<svg width="128" height="128" viewBox="0 0 128 128" fill="none" xmlns="http://www.w3.org/2000/svg">
<g clip-path="url(#clip0_4417_13357)">
<path d="M128 64C128 99.3462 99.3462 128 64 128C28.6538 128 0 99.3462 0 64C0 28.6538 28.6538 0 64 0C99.3462 0 128 28.6538 128 64Z" fill="#FFE500"/>
<path d="M88.7775 32.4545L78.394 95H70.8201L79.8599 40.3949H79.4934L62.5133 50.5341L63.8571 42.8381L81.2036 32.4545H88.7775Z" fill="black"/>
<path d="M59.1209 32.4545L48.7374 95H41.1635L50.2033 40.3949H49.8368L32.8567 50.5341L34.2004 42.8381L51.547 32.4545H59.1209Z" fill="black"/>
</g>
<defs>
<clipPath id="clip0_4417_13357">
<rect width="128" height="128" fill="white"/>
</clipPath>
</defs>
</svg>
