<svg width="128" height="128" viewBox="0 0 128 128" fill="none" xmlns="http://www.w3.org/2000/svg">
<g clip-path="url(#clip0_4417_13369)">
<path d="M128 64C128 99.3462 99.3462 128 64 128C28.6538 128 0 99.3462 0 64C0 28.6538 28.6538 0 64 0C99.3462 0 128 28.6538 128 64Z" fill="#FD6100"/>
<path d="M69.6558 95.8551C66.0724 95.8551 62.9574 95.1425 60.3106 93.7173C57.6638 92.2921 55.6787 90.3376 54.3553 87.8537C53.0319 85.3698 52.5535 82.5398 52.92 79.3636H60.2495C60.0663 82.1733 60.9723 84.5045 62.9676 86.3572C64.9832 88.21 67.5791 89.1363 70.7552 89.1363C73.3205 89.1363 75.7026 88.5357 77.9015 87.3345C80.1207 86.1333 81.9735 84.4841 83.4597 82.3871C84.9664 80.29 85.9436 77.8977 86.3916 75.2102C86.8395 72.482 86.6461 70.0388 85.8113 67.8807C84.9765 65.7225 83.6226 64.0225 81.7495 62.7805C79.8764 61.5386 77.5961 60.9176 74.9086 60.9176C73.0151 60.9176 71.0097 61.223 68.8923 61.8338C66.7952 62.4242 65.0137 63.1775 63.5478 64.0937L56.5847 63.2386L65.5024 32.4545H97.9967L96.8972 39.1733H70.7552L65.5024 57.6193H65.8688C67.3347 56.5809 69.0755 55.736 71.0911 55.0845C73.1271 54.4126 75.214 54.0767 77.3518 54.0767C81.1794 54.0767 84.437 54.9929 87.1245 56.8253C89.8324 58.6373 91.7767 61.1314 92.9576 64.3075C94.1588 67.4633 94.4133 71.0568 93.7211 75.0881C93.0696 79.0786 91.5935 82.6416 89.2928 85.777C87.0125 88.892 84.1622 91.3556 80.7417 93.1676C77.3416 94.9593 73.6463 95.8551 69.6558 95.8551Z" fill="white"/>
<path d="M52.9481 32.4545L42.5646 95H34.9907L44.0305 40.3949H43.664L26.6839 50.5341L28.0276 42.8381L45.3742 32.4545H52.9481Z" fill="white"/>
</g>
<defs>
<clipPath id="clip0_4417_13369">
<rect width="128" height="128" fill="white"/>
</clipPath>
</defs>
</svg>
