<svg width="128" height="128" viewBox="0 0 128 128" fill="none" xmlns="http://www.w3.org/2000/svg">
<g clip-path="url(#clip0_4417_13375)">
<path d="M128 64C128 99.3462 99.3462 128 64 128C28.6538 128 0 99.3462 0 64C0 28.6538 28.6538 0 64 0C99.3462 0 128 28.6538 128 64Z" fill="#D72F00"/>
<path d="M54.2827 95L91.4191 39.6619L91.5413 39.1733H59.2913L60.3907 32.4545H100.459L99.2373 39.5398L80.7302 67.2699L62.2231 95H54.2827Z" fill="white"/>
<path d="M55.0438 32.4545L44.6603 95H37.0864L46.1262 40.3949H45.7597L28.7796 50.5341L30.1233 42.8381L47.4699 32.4545H55.0438Z" fill="white"/>
</g>
<defs>
<clipPath id="clip0_4417_13375">
<rect width="128" height="128" fill="white"/>
</clipPath>
</defs>
</svg>
