<svg width="128" height="128" viewBox="0 0 128 128" fill="none" xmlns="http://www.w3.org/2000/svg">
<g clip-path="url(#clip0_4417_13330)">
<path d="M128 64C128 99.3462 99.3462 128 64 128C28.6538 128 0 99.3462 0 64C0 28.6538 28.6538 0 64 0C99.3462 0 128 28.6538 128 64Z" fill="#00BCFF"/>
<path d="M38.301 99L39.3919 92.8637L66.5283 67.6364C69.7101 64.6818 72.3578 62.1023 74.4715 59.8978C76.6078 57.6932 78.2669 55.625 79.4488 53.6932C80.6533 51.7614 81.4374 49.7273 81.801 47.5909C82.2101 45.1364 81.9942 43.0114 81.1533 41.2159C80.3124 39.4205 78.9828 38.0341 77.1647 37.0568C75.3465 36.0796 73.1647 35.5909 70.6192 35.5909C67.9374 35.5909 65.4942 36.1478 63.2897 37.2614C61.0851 38.3523 59.2556 39.8977 57.801 41.8977C56.3465 43.875 55.3919 46.1818 54.9374 48.8182H46.8919C47.5738 44.7273 49.1306 41.1364 51.5624 38.0455C54.0169 34.9546 57.0283 32.5455 60.5965 30.8182C64.1874 29.0909 68.0283 28.2273 72.1192 28.2273C76.2101 28.2273 79.676 29.0909 82.5169 30.8182C85.3578 32.5455 87.4147 34.875 88.6874 37.8068C89.9601 40.7387 90.301 44 89.7101 47.5909C89.2556 50.1818 88.3578 52.6932 87.0169 55.125C85.676 57.5568 83.6192 60.2728 80.8465 63.2728C78.0965 66.25 74.3692 69.8864 69.6647 74.1818L51.2556 90.9546L51.1192 91.5H83.5738L82.3465 99H38.301Z" fill="black"/>
</g>
<defs>
<clipPath id="clip0_4417_13330">
<rect width="128" height="128" fill="white"/>
</clipPath>
</defs>
</svg>
