<svg width="128" height="128" viewBox="0 0 128 128" fill="none" xmlns="http://www.w3.org/2000/svg">
<g clip-path="url(#clip0_4417_14990)">
<path d="M128 64C128 99.3462 99.3462 128 64 128C28.6538 128 0 99.3462 0 64C0 28.6538 28.6538 0 64 0C99.3462 0 128 28.6538 128 64Z" fill="#15053C"/>
<path d="M86.8574 80.8409L87.4029 77.3636L106.767 53.0909H109.289L108.403 58.4772H106.698L92.0392 76.8182V77.0909H112.698L112.085 80.8409H86.8574ZM102.062 88L103.426 79.75L103.698 78.1818L107.857 53.0909H111.88L106.085 88H102.062Z" fill="white"/>
<path d="M82.4668 88.2727C81.6032 88.2727 80.8816 87.9773 80.302 87.3863C79.7225 86.7841 79.4214 86.0568 79.3986 85.2045C79.3873 84.3523 79.6884 83.642 80.302 83.0738C80.9157 82.4943 81.6373 82.2045 82.4668 82.2045C83.3077 82.2045 84.035 82.5 84.6486 83.0909C85.2623 83.6818 85.5577 84.3863 85.535 85.2045C85.5236 85.7727 85.3759 86.2898 85.0918 86.7557C84.8191 87.2216 84.4498 87.5909 83.9839 87.8636C83.5293 88.1363 83.0236 88.2727 82.4668 88.2727Z" fill="white"/>
<path d="M61.7589 88.6562C58.2277 88.6562 55.3839 87.6953 53.2277 85.7734C51.0714 83.8359 49.6495 81.0312 48.962 77.3594C48.2745 73.6719 48.3527 69.2188 49.1964 64C50.0402 58.8125 51.423 54.3828 53.3448 50.7109C55.2667 47.0234 57.6339 44.2109 60.4464 42.2734C63.2589 40.3203 66.4152 39.3438 69.9152 39.3438C73.4152 39.3438 76.2511 40.3203 78.423 42.2734C80.6105 44.2266 82.0636 47.0391 82.7823 50.7109C83.5167 54.3828 83.4464 58.8125 82.5714 64C81.6964 69.2188 80.298 73.6641 78.3761 77.3359C76.4542 81.0078 74.087 83.8125 71.2745 85.75C68.462 87.6875 65.2902 88.6562 61.7589 88.6562ZM62.6027 83.5C66.1183 83.5 69.1261 81.8125 71.6261 78.4375C74.1417 75.0469 75.9152 70.2344 76.9464 64C77.6339 59.8438 77.7745 56.3047 77.3683 53.3828C76.962 50.4609 76.0558 48.2344 74.6495 46.7031C73.2433 45.1719 71.3839 44.4063 69.0714 44.4063C65.6027 44.4063 62.6183 46.1172 60.1183 49.5391C57.6183 52.9453 55.8527 57.7656 54.8214 64C54.1339 68.1563 53.9855 71.6875 54.3761 74.5938C54.7667 77.5 55.6573 79.7109 57.048 81.2266C58.4386 82.7422 60.2902 83.5 62.6027 83.5Z" fill="white"/>
<path d="M14.1555 88L14.9055 83.7812L33.5618 66.4375C35.7493 64.4062 37.5696 62.6328 39.0227 61.1172C40.4915 59.6016 41.6321 58.1797 42.4446 56.8516C43.2727 55.5234 43.8118 54.125 44.0618 52.6563C44.343 50.9688 44.1946 49.5078 43.6165 48.2734C43.0383 47.0391 42.1243 46.0859 40.8743 45.4141C39.6243 44.7422 38.1243 44.4063 36.3743 44.4063C34.5305 44.4063 32.8508 44.7891 31.3352 45.5547C29.8196 46.3047 28.5618 47.3672 27.5618 48.7422C26.5618 50.1016 25.9055 51.6875 25.593 53.5H20.0618C20.5305 50.6875 21.6008 48.2188 23.2727 46.0938C24.9602 43.9687 27.0305 42.3125 29.4836 41.125C31.9524 39.9375 34.593 39.3438 37.4055 39.3438C40.218 39.3438 42.6008 39.9375 44.554 41.125C46.5071 42.3125 47.9211 43.9141 48.7961 45.9297C49.6711 47.9453 49.9055 50.1875 49.4993 52.6563C49.1868 54.4375 48.5696 56.1641 47.6477 57.8359C46.7258 59.5078 45.3118 61.375 43.4055 63.4375C41.5149 65.4844 38.9524 67.9844 35.718 70.9375L23.0618 82.4688L22.968 82.8438H45.2805L44.4368 88H14.1555Z" fill="white"/>
</g>
<defs>
<clipPath id="clip0_4417_14990">
<rect width="128" height="128" fill="white"/>
</clipPath>
</defs>
</svg>
