<svg width="128" height="128" viewBox="0 0 128 128" fill="none" xmlns="http://www.w3.org/2000/svg">
<g clip-path="url(#clip0_4417_14994)">
<path d="M128 64C128 99.3462 99.3462 128 64 128C28.6538 128 0 99.3462 0 64C0 28.6538 28.6538 0 64 0C99.3462 0 128 28.6538 128 64Z" fill="#260970"/>
<path d="M97.905 88.4773C95.5186 88.4773 93.4788 88.0398 91.7856 87.1648C90.1038 86.2784 88.8709 85.0796 88.0868 83.5682C87.314 82.0568 87.0868 80.3523 87.405 78.4546C87.6436 77.0227 88.1549 75.6989 88.939 74.483C89.7231 73.2671 90.6777 72.25 91.8027 71.4318C92.939 70.6136 94.155 70.0909 95.4504 69.8636V69.7273C93.8481 69.2841 92.6947 68.3011 91.9902 66.7784C91.297 65.2443 91.1322 63.5227 91.4959 61.6136C91.8368 59.8523 92.5584 58.2955 93.6606 56.9432C94.7629 55.5909 96.1436 54.5341 97.8027 53.7727C99.4618 53 101.291 52.6136 103.291 52.6136C105.359 52.6136 107.144 53.0341 108.644 53.875C110.144 54.7046 111.246 55.8409 111.95 57.2841C112.666 58.7159 112.871 60.3409 112.564 62.1591C112.234 64.1023 111.422 65.75 110.127 67.1023C108.831 68.4432 107.348 69.3182 105.678 69.7273V69.8636C106.905 70.1136 107.967 70.6761 108.865 71.5511C109.774 72.4261 110.433 73.5114 110.842 74.8068C111.252 76.0909 111.325 77.4886 111.064 79C110.757 80.8523 109.99 82.4943 108.763 83.9261C107.536 85.3466 105.984 86.4602 104.109 87.2671C102.246 88.0739 100.178 88.4773 97.905 88.4773ZM98.0413 84.7273C99.689 84.7273 101.149 84.4602 102.422 83.9261C103.695 83.3807 104.729 82.625 105.524 81.6591C106.331 80.6818 106.837 79.5455 107.041 78.25C107.246 76.9546 107.104 75.8239 106.615 74.858C106.127 73.8807 105.365 73.125 104.331 72.5909C103.297 72.0455 102.064 71.7727 100.632 71.7727C99.1095 71.7727 97.7004 72.0739 96.405 72.6761C95.1095 73.2784 94.0299 74.108 93.1663 75.1648C92.314 76.2216 91.7799 77.4318 91.564 78.7955C91.3709 80.0114 91.5015 81.0682 91.9561 81.9659C92.4106 82.8523 93.1549 83.5341 94.189 84.0114C95.2231 84.4886 96.5072 84.7273 98.0413 84.7273ZM100.769 68.1591C102.098 68.1591 103.308 67.8921 104.399 67.358C105.502 66.8239 106.411 66.0852 107.127 65.1421C107.854 64.1989 108.325 63.1136 108.541 61.8864C108.757 60.7046 108.672 59.6989 108.286 58.8693C107.911 58.0284 107.291 57.3921 106.428 56.9602C105.564 56.5171 104.496 56.2955 103.223 56.2955C101.848 56.2955 100.609 56.5511 99.5072 57.0625C98.4163 57.5739 97.5186 58.2898 96.814 59.2102C96.1095 60.1307 95.655 61.2046 95.4504 62.4318C95.2572 63.625 95.3595 64.6534 95.7572 65.5171C96.155 66.3693 96.7856 67.0227 97.6493 67.4773C98.5243 67.9318 99.564 68.1591 100.769 68.1591Z" fill="white"/>
<path d="M83.6152 88.2727C82.7516 88.2727 82.03 87.9773 81.4505 87.3863C80.8709 86.7841 80.5698 86.0568 80.5471 85.2045C80.5357 84.3523 80.8368 83.642 81.4505 83.0738C82.0641 82.4943 82.7857 82.2045 83.6152 82.2045C84.4561 82.2045 85.1834 82.5 85.7971 83.0909C86.4107 83.6818 86.7062 84.3863 86.6834 85.2045C86.6721 85.7727 86.5243 86.2898 86.2402 86.7557C85.9675 87.2216 85.5982 87.5909 85.1323 87.8636C84.6777 88.1363 84.1721 88.2727 83.6152 88.2727Z" fill="white"/>
<path d="M62.9073 88.6562C59.3761 88.6562 56.5323 87.6953 54.3761 85.7734C52.2198 83.8359 50.798 81.0312 50.1105 77.3594C49.423 73.6719 49.5011 69.2188 50.3448 64C51.1886 58.8125 52.5714 54.3828 54.4933 50.7109C56.4152 47.0234 58.7823 44.2109 61.5948 42.2734C64.4073 40.3203 67.5636 39.3438 71.0636 39.3438C74.5636 39.3438 77.3995 40.3203 79.5714 42.2734C81.7589 44.2266 83.212 47.0391 83.9308 50.7109C84.6652 54.3828 84.5948 58.8125 83.7198 64C82.8448 69.2188 81.4464 73.6641 79.5245 77.3359C77.6027 81.0078 75.2355 83.8125 72.423 85.75C69.6105 87.6875 66.4386 88.6562 62.9073 88.6562ZM63.7511 83.5C67.2667 83.5 70.2745 81.8125 72.7745 78.4375C75.2902 75.0469 77.0636 70.2344 78.0949 64C78.7823 59.8438 78.923 56.3047 78.5167 53.3828C78.1105 50.4609 77.2042 48.2344 75.798 46.7031C74.3917 45.1719 72.5323 44.4063 70.2198 44.4063C66.7511 44.4063 63.7667 46.1172 61.2667 49.5391C58.7667 52.9453 57.0011 57.7656 55.9698 64C55.2823 68.1563 55.1339 71.6875 55.5245 74.5938C55.9152 77.5 56.8058 79.7109 58.1964 81.2266C59.587 82.7422 61.4386 83.5 63.7511 83.5Z" fill="white"/>
<path d="M15.304 88L16.054 83.7812L34.7102 66.4375C36.8977 64.4062 38.718 62.6328 40.1711 61.1172C41.6399 59.6016 42.7805 58.1797 43.593 56.8516C44.4211 55.5234 44.9602 54.125 45.2102 52.6563C45.4915 50.9688 45.343 49.5078 44.7649 48.2734C44.1868 47.0391 43.2727 46.0859 42.0227 45.4141C40.7727 44.7422 39.2727 44.4063 37.5227 44.4063C35.679 44.4063 33.9993 44.7891 32.4836 45.5547C30.968 46.3047 29.7102 47.3672 28.7102 48.7422C27.7102 50.1016 27.054 51.6875 26.7415 53.5H21.2102C21.679 50.6875 22.7493 48.2188 24.4211 46.0938C26.1086 43.9687 28.179 42.3125 30.6321 41.125C33.1008 39.9375 35.7415 39.3438 38.554 39.3438C41.3665 39.3438 43.7493 39.9375 45.7024 41.125C47.6555 42.3125 49.0696 43.9141 49.9446 45.9297C50.8196 47.9453 51.054 50.1875 50.6477 52.6563C50.3352 54.4375 49.718 56.1641 48.7961 57.8359C47.8743 59.5078 46.4602 61.375 44.554 63.4375C42.6633 65.4844 40.1008 67.9844 36.8665 70.9375L24.2102 82.4688L24.1165 82.8438H46.429L45.5852 88H15.304Z" fill="white"/>
</g>
<defs>
<clipPath id="clip0_4417_14994">
<rect width="128" height="128" fill="white"/>
</clipPath>
</defs>
</svg>
