<svg width="128" height="128" viewBox="0 0 128 128" fill="none" xmlns="http://www.w3.org/2000/svg">
<g clip-path="url(#clip0_4417_14995)">
<path d="M128 64C128 99.3462 99.3462 128 64 128C28.6538 128 0 99.3462 0 64C0 28.6538 28.6538 0 64 0C99.3462 0 128 28.6538 128 64Z" fill="#2A0B7C"/>
<path d="M103.979 52.6136C105.445 52.625 106.865 52.9034 108.24 53.4489C109.615 53.983 110.803 54.8807 111.803 56.1421C112.803 57.4034 113.485 59.1137 113.848 61.2727C114.223 63.4205 114.138 66.125 113.592 69.3864C113.081 72.4546 112.342 75.1761 111.377 77.5511C110.422 79.9148 109.274 81.9091 107.933 83.5341C106.592 85.1591 105.081 86.3921 103.399 87.233C101.729 88.0625 99.922 88.4773 97.9789 88.4773C96.047 88.4773 94.3652 88.0909 92.9334 87.3182C91.5129 86.5341 90.4107 85.4489 89.6266 84.0625C88.8539 82.6648 88.4789 81.0455 88.5016 79.2046H92.5243C92.5925 80.8409 93.0698 82.1705 93.9561 83.1932C94.8539 84.2159 96.2402 84.7273 98.1152 84.7273C100.808 84.7273 103.166 83.5739 105.189 81.2671C107.223 78.9489 108.615 75.5568 109.365 71.0909L109.092 71.3636C108.297 72.3182 107.416 73.1307 106.45 73.8011C105.485 74.4716 104.456 74.983 103.365 75.3352C102.274 75.6875 101.138 75.8636 99.9561 75.8636C97.9107 75.8636 96.1209 75.3523 94.5868 74.3296C93.0527 73.3068 91.922 71.9034 91.1948 70.1193C90.4675 68.3352 90.297 66.2955 90.6834 64C91.047 61.8864 91.8368 59.9659 93.0527 58.2386C94.28 56.5 95.8254 55.1193 97.6891 54.0966C99.5641 53.0739 101.661 52.5796 103.979 52.6136ZM103.842 56.3636C102.388 56.3636 101.013 56.7273 99.7175 57.4546C98.422 58.1818 97.3255 59.1648 96.4277 60.4034C95.53 61.6421 94.9561 63.0227 94.7061 64.5455C94.4789 65.9318 94.5811 67.1989 95.013 68.3466C95.4448 69.4943 96.1436 70.4091 97.1095 71.0909C98.0754 71.7727 99.2516 72.1136 100.638 72.1136C101.752 72.1136 102.825 71.8921 103.86 71.4489C104.894 71.0057 105.831 70.4034 106.672 69.6421C107.524 68.8693 108.235 67.9943 108.803 67.0171C109.371 66.0284 109.74 65 109.911 63.9318C110.138 62.5909 110.036 61.3466 109.604 60.1989C109.172 59.0511 108.462 58.125 107.473 57.4205C106.485 56.7159 105.274 56.3636 103.842 56.3636Z" fill="white"/>
<path d="M83.5527 88.2727C82.6891 88.2727 81.9675 87.9773 81.388 87.3863C80.8084 86.7841 80.5073 86.0568 80.4846 85.2045C80.4732 84.3523 80.7743 83.642 81.388 83.0738C82.0016 82.4943 82.7232 82.2045 83.5527 82.2045C84.3936 82.2045 85.1209 82.5 85.7346 83.0909C86.3482 83.6818 86.6437 84.3863 86.6209 85.2045C86.6096 85.7727 86.4618 86.2898 86.1777 86.7557C85.905 87.2216 85.5357 87.5909 85.0698 87.8636C84.6152 88.1363 84.1096 88.2727 83.5527 88.2727Z" fill="white"/>
<path d="M62.8448 88.6562C59.3136 88.6562 56.4698 87.6953 54.3136 85.7734C52.1573 83.8359 50.7355 81.0312 50.048 77.3594C49.3605 73.6719 49.4386 69.2188 50.2823 64C51.1261 58.8125 52.5089 54.3828 54.4308 50.7109C56.3527 47.0234 58.7198 44.2109 61.5323 42.2734C64.3448 40.3203 67.5011 39.3438 71.0011 39.3438C74.5011 39.3438 77.337 40.3203 79.5089 42.2734C81.6964 44.2266 83.1495 47.0391 83.8683 50.7109C84.6027 54.3828 84.5323 58.8125 83.6573 64C82.7823 69.2188 81.3839 73.6641 79.462 77.3359C77.5402 81.0078 75.173 83.8125 72.3605 85.75C69.548 87.6875 66.3761 88.6562 62.8448 88.6562ZM63.6886 83.5C67.2042 83.5 70.212 81.8125 72.712 78.4375C75.2277 75.0469 77.0011 70.2344 78.0324 64C78.7198 59.8438 78.8605 56.3047 78.4542 53.3828C78.048 50.4609 77.1417 48.2344 75.7355 46.7031C74.3292 45.1719 72.4698 44.4063 70.1573 44.4063C66.6886 44.4063 63.7042 46.1172 61.2042 49.5391C58.7042 52.9453 56.9386 57.7656 55.9073 64C55.2198 68.1563 55.0714 71.6875 55.462 74.5938C55.8527 77.5 56.7433 79.7109 58.1339 81.2266C59.5245 82.7422 61.3761 83.5 63.6886 83.5Z" fill="white"/>
<path d="M15.2415 88L15.9915 83.7812L34.6477 66.4375C36.8352 64.4062 38.6555 62.6328 40.1086 61.1172C41.5774 59.6016 42.718 58.1797 43.5305 56.8516C44.3586 55.5234 44.8977 54.125 45.1477 52.6563C45.429 50.9688 45.2805 49.5078 44.7024 48.2734C44.1243 47.0391 43.2102 46.0859 41.9602 45.4141C40.7102 44.7422 39.2102 44.4063 37.4602 44.4063C35.6165 44.4063 33.9368 44.7891 32.4211 45.5547C30.9055 46.3047 29.6477 47.3672 28.6477 48.7422C27.6477 50.1016 26.9915 51.6875 26.679 53.5H21.1477C21.6165 50.6875 22.6868 48.2188 24.3586 46.0938C26.0461 43.9687 28.1165 42.3125 30.5696 41.125C33.0383 39.9375 35.679 39.3438 38.4915 39.3438C41.304 39.3438 43.6868 39.9375 45.6399 41.125C47.593 42.3125 49.0071 43.9141 49.8821 45.9297C50.7571 47.9453 50.9915 50.1875 50.5852 52.6563C50.2727 54.4375 49.6555 56.1641 48.7336 57.8359C47.8118 59.5078 46.3977 61.375 44.4915 63.4375C42.6008 65.4844 40.0383 67.9844 36.804 70.9375L24.1477 82.4688L24.054 82.8438H46.3665L45.5227 88H15.2415Z" fill="white"/>
</g>
<defs>
<clipPath id="clip0_4417_14995">
<rect width="128" height="128" fill="white"/>
</clipPath>
</defs>
</svg>
