<svg width="128" height="128" viewBox="0 0 128 128" fill="none" xmlns="http://www.w3.org/2000/svg">
<g clip-path="url(#clip0_4417_15002)">
<path d="M128 64C128 99.3462 99.3462 128 64 128C28.6538 128 0 99.3462 0 64C0 28.6538 28.6538 0 64 0C99.3462 0 128 28.6538 128 64Z" fill="#540D89"/>
<path d="M95.262 90.4773C93.7961 90.4659 92.3757 90.1875 91.0007 89.6421C89.6257 89.0966 88.4382 88.1932 87.4382 86.9318C86.4382 85.6591 85.7507 83.9375 85.3757 81.7671C85.012 79.5966 85.1029 76.8864 85.6484 73.6364C86.1597 70.5796 86.8927 67.875 87.8472 65.5227C88.8131 63.1591 89.9666 61.1705 91.3075 59.5568C92.6484 57.9318 94.1541 56.7046 95.8245 55.875C97.5063 55.0341 99.3188 54.6136 101.262 54.6136C103.194 54.6136 104.87 55.0057 106.29 55.7898C107.722 56.5625 108.825 57.6421 109.597 59.0284C110.381 60.4034 110.762 62 110.739 63.8182H106.717C106.66 62.2273 106.177 60.9205 105.268 59.8977C104.37 58.875 102.989 58.3636 101.126 58.3636C98.4211 58.3636 96.0575 59.5171 94.0347 61.8239C92.012 64.1307 90.6257 67.5 89.8757 71.9318L90.1484 71.6591C90.9438 70.7046 91.8245 69.8921 92.7904 69.2216C93.7563 68.5511 94.7847 68.0398 95.8757 67.6875C96.9779 67.3352 98.1143 67.1591 99.2847 67.1591C101.33 67.1591 103.12 67.6705 104.654 68.6932C106.188 69.7159 107.319 71.1193 108.046 72.9034C108.773 74.6875 108.944 76.7273 108.557 79.0227C108.194 81.1364 107.398 83.0682 106.171 84.8182C104.955 86.5568 103.41 87.9432 101.535 88.9773C99.6711 90 97.5802 90.5 95.262 90.4773ZM95.3984 86.7273C96.8529 86.7273 98.2279 86.358 99.5234 85.6193C100.819 84.8807 101.915 83.8864 102.813 82.6364C103.711 81.3864 104.285 80 104.535 78.4773C104.762 77.0909 104.66 75.8239 104.228 74.6761C103.796 73.5284 103.097 72.6136 102.131 71.9318C101.165 71.25 99.9893 70.9091 98.6029 70.9091C97.5007 70.9091 96.4268 71.1307 95.3813 71.5739C94.3472 72.0171 93.4041 72.625 92.5518 73.3977C91.7109 74.1591 91.0063 75.0284 90.4382 76.0057C89.87 76.983 89.5007 78.0114 89.3302 79.0909C89.1029 80.4318 89.2052 81.6818 89.637 82.8409C90.0688 84 90.7791 84.9375 91.7677 85.6534C92.7563 86.3693 93.9666 86.7273 95.3984 86.7273Z" fill="white"/>
<path d="M80.7037 90.2728C79.8401 90.2728 79.1185 89.9773 78.539 89.3864C77.9594 88.7841 77.6583 88.0569 77.6356 87.2046C77.6242 86.3523 77.9253 85.6421 78.539 85.0739C79.1526 84.4944 79.8742 84.2046 80.7037 84.2046C81.5447 84.2046 82.2719 84.5 82.8856 85.091C83.4992 85.6819 83.7947 86.3864 83.7719 87.2046C83.7606 87.7728 83.6128 88.2898 83.3287 88.7557C83.056 89.2216 82.6867 89.591 82.2208 89.8637C81.7662 90.1364 81.2606 90.2728 80.7037 90.2728Z" fill="white"/>
<path d="M80.2159 37.6364L71.5228 90H65.1818L72.75 44.2841H72.4432L58.2273 52.7727L59.3523 46.3295L73.875 37.6364H80.2159Z" fill="white"/>
<path d="M18.1599 90L18.9781 85.3977L39.3304 66.4773C41.7167 64.2614 43.7025 62.3267 45.2878 60.6733C46.89 59.0199 48.1343 57.4688 49.0207 56.0199C49.9241 54.571 50.5122 53.0455 50.7849 51.4432C51.0917 49.6023 50.9298 48.0085 50.2991 46.6619C49.6684 45.3154 48.6713 44.2756 47.3076 43.5426C45.944 42.8097 44.3076 42.4432 42.3985 42.4432C40.3872 42.4432 38.5548 42.8608 36.9014 43.696C35.248 44.5142 33.8758 45.6733 32.7849 47.1733C31.694 48.6563 30.9781 50.3864 30.6372 52.3637H24.6031C25.1145 49.2955 26.2821 46.6023 28.1059 44.2841C29.9468 41.9659 32.2054 40.1591 34.8815 38.8637C37.5747 37.5682 40.4554 36.9205 43.5235 36.9205C46.5917 36.9205 49.1912 37.5682 51.3218 38.8637C53.4525 40.1591 54.9951 41.9063 55.9497 44.1051C56.9042 46.304 57.1599 48.75 56.7167 51.4432C56.3758 53.3864 55.7025 55.2699 54.6968 57.0938C53.6912 58.9176 52.1486 60.9546 50.069 63.2046C48.0065 65.4375 45.211 68.1648 41.6826 71.3864L27.8758 83.9659L27.7735 84.375H52.1145L51.194 90H18.1599Z" fill="white"/>
</g>
<defs>
<clipPath id="clip0_4417_15002">
<rect width="128" height="128" fill="white"/>
</clipPath>
</defs>
</svg>
