<svg width="128" height="128" viewBox="0 0 128 128" fill="none" xmlns="http://www.w3.org/2000/svg">
<g clip-path="url(#clip0_4417_15020)">
<path d="M128 64C128 99.3462 99.3462 128 64 128C28.6538 128 0 99.3462 0 64C0 28.6538 28.6538 0 64 0C99.3462 0 128 28.6538 128 64Z" fill="#4E0D8A"/>
<path d="M89.159 36.7272L79.9828 92H73.2896L81.2783 43.7443H80.9544L65.9487 52.7045L67.1362 45.9034L82.4658 36.7272H89.159Z" fill="white"/>
<path d="M23.6553 92L24.5189 87.142L46.0019 67.1704C48.5208 64.8314 50.6169 62.7893 52.2902 61.044C53.9815 59.2987 55.295 57.6614 56.2306 56.1321C57.1842 54.6027 57.8049 52.9924 58.0928 51.3011C58.4166 49.3579 58.2457 47.6756 57.58 46.2542C56.9143 44.8328 55.8617 43.7353 54.4223 42.9616C52.9829 42.1879 51.2557 41.8011 49.2405 41.8011C47.1174 41.8011 45.1832 42.2419 43.4379 43.1235C41.6927 43.9872 40.2443 45.2107 39.0928 46.794C37.9413 48.3593 37.1856 50.1856 36.8257 52.2727H30.4564C30.9962 49.0341 32.2287 46.1913 34.1539 43.7443C36.097 41.2973 38.481 39.3901 41.3058 38.0227C44.1486 36.6553 47.1894 35.9716 50.428 35.9716C53.6666 35.9716 56.4105 36.6553 58.6595 38.0227C60.9086 39.3901 62.5369 41.2343 63.5445 43.5554C64.5521 45.8764 64.8219 48.4583 64.3541 51.3011C63.9943 53.3522 63.2836 55.3404 62.222 57.2656C61.1605 59.1908 59.5322 61.3409 57.3371 63.7159C55.16 66.0729 52.2093 68.9517 48.4848 72.3522L33.911 85.6306L33.803 86.0625H59.4962L58.5246 92H23.6553Z" fill="white"/>
<path d="M99.5485 79.1165L104.039 51.929H108.693L104.203 79.1165H99.5485ZM90.1152 67.8295L90.8979 63.2159H118.085L117.303 67.8295H90.1152Z" fill="white"/>
</g>
<defs>
<clipPath id="clip0_4417_15020">
<rect width="128" height="128" fill="white"/>
</clipPath>
</defs>
</svg>
