<svg width="128" height="128" viewBox="0 0 128 128" fill="none" xmlns="http://www.w3.org/2000/svg">
<g clip-path="url(#clip0_4417_15006)">
<path d="M128 64C128 99.3462 99.3462 128 64 128C28.6538 128 0 99.3462 0 64C0 28.6538 28.6538 0 64 0C99.3462 0 128 28.6538 128 64Z" fill="#6A0D88"/>
<path d="M99.353 90.4773C96.7848 90.4773 94.7167 89.7784 93.1485 88.3807C91.5803 86.9716 90.5462 84.9318 90.0462 82.2614C89.5462 79.5796 89.603 76.3409 90.2167 72.5455C90.8303 68.7727 91.836 65.5511 93.2337 62.8807C94.6314 60.1989 96.353 58.1534 98.3985 56.7443C100.444 55.3239 102.739 54.6136 105.285 54.6136C107.83 54.6136 109.893 55.3239 111.472 56.7443C113.063 58.1648 114.12 60.2102 114.643 62.8807C115.177 65.5511 115.126 68.7727 114.489 72.5455C113.853 76.3409 112.836 79.5739 111.438 82.2443C110.041 84.9148 108.319 86.9546 106.273 88.3636C104.228 89.7727 101.921 90.4773 99.353 90.4773ZM99.9667 86.7273C102.523 86.7273 104.711 85.5 106.529 83.0455C108.359 80.5796 109.648 77.0796 110.398 72.5455C110.898 69.5227 111.001 66.9489 110.705 64.8239C110.41 62.6989 109.751 61.0796 108.728 59.9659C107.705 58.8523 106.353 58.2955 104.671 58.2955C102.148 58.2955 99.978 59.5398 98.1598 62.0284C96.3417 64.5057 95.0576 68.0114 94.3076 72.5455C93.8076 75.5682 93.6996 78.1364 93.9837 80.25C94.2678 82.3636 94.9155 83.9716 95.9269 85.0739C96.9383 86.1761 98.2848 86.7273 99.9667 86.7273Z" fill="white"/>
<path d="M85.2721 90.2727C84.4085 90.2727 83.6869 89.9773 83.1073 89.3863C82.5278 88.7841 82.2267 88.0568 82.2039 87.2045C82.1926 86.3523 82.4937 85.642 83.1073 85.0738C83.721 84.4943 84.4426 84.2045 85.2721 84.2045C86.113 84.2045 86.8403 84.5 87.4539 85.0909C88.0676 85.6818 88.363 86.3863 88.3403 87.2045C88.3289 87.7727 88.1812 88.2898 87.8971 88.7557C87.6244 89.2216 87.2551 89.5909 86.7892 89.8636C86.3346 90.1363 85.8289 90.2727 85.2721 90.2727Z" fill="white"/>
<path d="M48.4683 90L49.2637 85.5256L69.0506 67.1307C71.3707 64.9763 73.3014 63.0954 74.8426 61.4879C76.4003 59.8805 77.6101 58.3724 78.4718 56.9638C79.3501 55.5552 79.9219 54.072 80.187 52.5142C80.4853 50.7244 80.3279 49.175 79.7147 47.8658C79.1015 46.5566 78.1321 45.5457 76.8063 44.8331C75.4806 44.1205 73.8897 43.7642 72.0336 43.7642C70.0781 43.7642 68.2966 44.1702 66.6891 44.9823C65.0817 45.7777 63.7476 46.9046 62.687 48.3629C61.6264 49.8047 60.9304 51.4868 60.5989 53.4091H54.7325C55.2296 50.4261 56.3648 47.8078 58.138 45.554C59.9278 43.3002 62.1236 41.5436 64.7254 40.2841C67.3437 39.0246 70.1444 38.3949 73.1273 38.3949C76.1103 38.3949 78.6375 39.0246 80.709 40.2841C82.7805 41.5436 84.2803 43.2422 85.2083 45.38C86.1363 47.5178 86.3849 49.8958 85.9541 52.5142C85.6226 54.4034 84.968 56.2346 83.9903 58.0078C83.0125 59.781 81.5128 61.7614 79.491 63.9489C77.4858 66.1198 74.768 68.7713 71.3376 71.9034L57.9143 84.1335L57.8148 84.5313H81.4796L80.5847 90H48.4683Z" fill="white"/>
<path d="M14.4854 90L15.2808 85.5256L35.0677 67.1307C37.3878 64.9763 39.3184 63.0954 40.8596 61.4879C42.4174 59.8805 43.6272 58.3724 44.4889 56.9638C45.3672 55.5552 45.939 54.072 46.2041 52.5142C46.5024 50.7244 46.345 49.175 45.7318 47.8658C45.1186 46.5566 44.1492 45.5457 42.8234 44.8331C41.4977 44.1205 39.9068 43.7642 38.0507 43.7642C36.0952 43.7642 34.3137 44.1702 32.7062 44.9823C31.0988 45.7777 29.7647 46.9046 28.7041 48.3629C27.6435 49.8047 26.9475 51.4868 26.616 53.4091H20.7496C21.2467 50.4261 22.3819 47.8078 24.1551 45.554C25.9449 43.3002 28.1407 41.5436 30.7425 40.2841C33.3608 39.0246 36.1615 38.3949 39.1444 38.3949C42.1274 38.3949 44.6546 39.0246 46.7261 40.2841C48.7976 41.5436 50.2974 43.2422 51.2254 45.38C52.1534 47.5178 52.402 49.8958 51.9711 52.5142C51.6397 54.4034 50.9851 56.2346 50.0074 58.0078C49.0296 59.781 47.5299 61.7614 45.5081 63.9489C43.5029 66.1198 40.7851 68.7713 37.3547 71.9034L23.9314 84.1335L23.8319 84.5313H47.4967L46.6018 90H14.4854Z" fill="white"/>
</g>
<defs>
<clipPath id="clip0_4417_15006">
<rect width="128" height="128" fill="white"/>
</clipPath>
</defs>
</svg>
