<svg width="128" height="128" viewBox="0 0 128 128" fill="none" xmlns="http://www.w3.org/2000/svg">
<g clip-path="url(#clip0_4417_15011)">
<path d="M128 64C128 99.3462 99.3462 128 64 128C28.6538 128 0 99.3462 0 64C0 28.6538 28.6538 0 64 0C99.3462 0 128 28.6538 128 64Z" fill="#890E87"/>
<path d="M99.032 90.4773C97.032 90.4773 95.2933 90.0796 93.8161 89.2841C92.3388 88.4887 91.2308 87.3978 90.4922 86.0114C89.7536 84.625 89.4865 83.0455 89.6911 81.2728H93.782C93.6797 82.8409 94.1854 84.1421 95.299 85.1762C96.424 86.2103 97.8729 86.7273 99.6456 86.7273C101.077 86.7273 102.407 86.3921 103.634 85.7216C104.873 85.0512 105.907 84.1307 106.737 82.9603C107.577 81.7898 108.123 80.4546 108.373 78.9546C108.623 77.4319 108.515 76.0682 108.049 74.8637C107.583 73.6591 106.827 72.7103 105.782 72.0171C104.737 71.3239 103.464 70.9773 101.964 70.9773C100.907 70.9773 99.7876 71.1478 98.6058 71.4887C97.4354 71.8182 96.4411 72.2387 95.6229 72.75L91.7365 72.2728L96.7138 55.0909H114.85L114.237 58.8409H99.6456L96.7138 69.1364H96.9183C97.7365 68.5569 98.7081 68.0853 99.8331 67.7216C100.969 67.3466 102.134 67.1591 103.327 67.1591C105.464 67.1591 107.282 67.6705 108.782 68.6932C110.293 69.7046 111.379 71.0966 112.038 72.8694C112.708 74.6307 112.85 76.6364 112.464 78.8864C112.1 81.1137 111.276 83.1023 109.992 84.8523C108.719 86.5909 107.129 87.9659 105.219 88.9773C103.322 89.9773 101.259 90.4773 99.032 90.4773Z" fill="white"/>
<path d="M84.9127 90.2727C84.0491 90.2727 83.3275 89.9773 82.748 89.3863C82.1684 88.7841 81.8673 88.0568 81.8445 87.2045C81.8332 86.3523 82.1343 85.642 82.748 85.0738C83.3616 84.4943 84.0832 84.2045 84.9127 84.2045C85.7536 84.2045 86.4809 84.5 87.0945 85.0909C87.7082 85.6818 88.0036 86.3863 87.9809 87.2045C87.9695 87.7727 87.8218 88.2898 87.5377 88.7557C87.265 89.2216 86.8957 89.5909 86.4298 89.8636C85.9752 90.1363 85.4695 90.2727 84.9127 90.2727Z" fill="white"/>
<path d="M48.1089 90L48.9043 85.5256L68.6913 67.1307C71.0113 64.9763 72.942 63.0954 74.4832 61.4879C76.0409 59.8805 77.2507 58.3724 78.1124 56.9638C78.9908 55.5552 79.5625 54.072 79.8276 52.5142C80.1259 50.7244 79.9685 49.175 79.3553 47.8658C78.7422 46.5566 77.7727 45.5457 76.447 44.8331C75.1212 44.1205 73.5303 43.7642 71.6742 43.7642C69.7187 43.7642 67.9372 44.1702 66.3298 44.9823C64.7223 45.7777 63.3882 46.9046 62.3276 48.3629C61.267 49.8047 60.571 51.4868 60.2396 53.4091H54.3731C54.8702 50.4261 56.0054 47.8078 57.7786 45.554C59.5684 43.3002 61.7642 41.5436 64.366 40.2841C66.9844 39.0246 69.785 38.3949 72.768 38.3949C75.7509 38.3949 78.2782 39.0246 80.3497 40.2841C82.4211 41.5436 83.9209 43.2422 84.8489 45.38C85.777 47.5178 86.0256 49.8958 85.5947 52.5142C85.2632 54.4034 84.6086 56.2346 83.6309 58.0078C82.6532 59.781 81.1534 61.7614 79.1316 63.9489C77.1264 66.1198 74.4086 68.7713 70.9782 71.9034L57.5549 84.1335L57.4555 84.5313H81.1203L80.2254 90H48.1089Z" fill="white"/>
<path d="M14.126 90L14.9214 85.5256L34.7084 67.1307C37.0284 64.9763 38.9591 63.0954 40.5003 61.4879C42.058 59.8805 43.2678 58.3724 44.1295 56.9638C45.0078 55.5552 45.5796 54.072 45.8447 52.5142C46.143 50.7244 45.9856 49.175 45.3724 47.8658C44.7593 46.5566 43.7898 45.5457 42.464 44.8331C41.1383 44.1205 39.5474 43.7642 37.6913 43.7642C35.7358 43.7642 33.9543 44.1702 32.3469 44.9823C30.7394 45.7777 29.4053 46.9046 28.3447 48.3629C27.2841 49.8047 26.5881 51.4868 26.2567 53.4091H20.3902C20.8873 50.4261 22.0225 47.8078 23.7957 45.554C25.5855 43.3002 27.7813 41.5436 30.3831 40.2841C33.0014 39.0246 35.8021 38.3949 38.7851 38.3949C41.768 38.3949 44.2952 39.0246 46.3667 40.2841C48.4382 41.5436 49.938 43.2422 50.866 45.38C51.7941 47.5178 52.0426 49.8958 51.6118 52.5142C51.2803 54.4034 50.6257 56.2346 49.648 58.0078C48.6702 59.781 47.1705 61.7614 45.1487 63.9489C43.1435 66.1198 40.4257 68.7713 36.9953 71.9034L23.572 84.1335L23.4726 84.5313H47.1373L46.2425 90H14.126Z" fill="white"/>
</g>
<defs>
<clipPath id="clip0_4417_15011">
<rect width="128" height="128" fill="white"/>
</clipPath>
</defs>
</svg>
