<svg width="128" height="128" viewBox="0 0 128 128" fill="none" xmlns="http://www.w3.org/2000/svg">
<g clip-path="url(#clip0_4417_15014)">
<path d="M128 64C128 99.3462 99.3462 128 64 128C28.6538 128 0 99.3462 0 64C0 28.6538 28.6538 0 64 0C99.3462 0 128 28.6538 128 64Z" fill="#AB1199"/>
<path d="M99.2022 90.4773C96.8158 90.4773 94.7761 90.0398 93.0829 89.1648C91.4011 88.2784 90.1681 87.0796 89.384 85.5682C88.6113 84.0568 88.384 82.3523 88.7022 80.4546C88.9408 79.0227 89.4522 77.6989 90.2363 76.483C91.0204 75.2671 91.9749 74.25 93.0999 73.4318C94.2363 72.6136 95.4522 72.0909 96.7476 71.8636V71.7273C95.1454 71.2841 93.992 70.3011 93.2874 68.7784C92.5942 67.2443 92.4295 65.5227 92.7931 63.6136C93.134 61.8523 93.8556 60.2955 94.9579 58.9432C96.0601 57.5909 97.4408 56.5341 99.0999 55.7727C100.759 55 102.589 54.6136 104.589 54.6136C106.657 54.6136 108.441 55.0341 109.941 55.875C111.441 56.7046 112.543 57.8409 113.248 59.2841C113.964 60.7159 114.168 62.3409 113.861 64.1591C113.532 66.1023 112.719 67.75 111.424 69.1023C110.128 70.4432 108.645 71.3182 106.975 71.7273V71.8636C108.202 72.1136 109.265 72.6761 110.162 73.5511C111.072 74.4261 111.731 75.5114 112.14 76.8068C112.549 78.0909 112.623 79.4886 112.361 81C112.054 82.8523 111.287 84.4943 110.06 85.9261C108.833 87.3466 107.282 88.4602 105.407 89.2671C103.543 90.0739 101.475 90.4773 99.2022 90.4773ZM99.3386 86.7273C100.986 86.7273 102.447 86.4602 103.719 85.9261C104.992 85.3807 106.026 84.625 106.822 83.6591C107.628 82.6818 108.134 81.5455 108.339 80.25C108.543 78.9546 108.401 77.8239 107.912 76.858C107.424 75.8807 106.662 75.125 105.628 74.5909C104.594 74.0455 103.361 73.7727 101.929 73.7727C100.407 73.7727 98.9976 74.0739 97.7022 74.6761C96.4067 75.2784 95.3272 76.108 94.4636 77.1648C93.6113 78.2216 93.0772 79.4318 92.8613 80.7955C92.6681 82.0114 92.7988 83.0682 93.2533 83.9659C93.7079 84.8523 94.4522 85.5341 95.4863 86.0114C96.5204 86.4886 97.8045 86.7273 99.3386 86.7273ZM102.066 70.1591C103.395 70.1591 104.606 69.8921 105.697 69.358C106.799 68.8239 107.708 68.0852 108.424 67.1421C109.151 66.1989 109.623 65.1136 109.839 63.8864C110.054 62.7046 109.969 61.6989 109.583 60.8693C109.208 60.0284 108.589 59.3921 107.725 58.9602C106.861 58.5171 105.793 58.2955 104.52 58.2955C103.145 58.2955 101.907 58.5511 100.804 59.0625C99.7136 59.5739 98.8158 60.2898 98.1113 61.2102C97.4067 62.1307 96.9522 63.2046 96.7476 64.4318C96.5545 65.625 96.6567 66.6534 97.0545 67.5171C97.4522 68.3693 98.0829 69.0227 98.9465 69.4773C99.8215 69.9318 100.861 70.1591 102.066 70.1591Z" fill="white"/>
<path d="M84.9127 90.2727C84.0491 90.2727 83.3275 89.9773 82.748 89.3863C82.1684 88.7841 81.8673 88.0568 81.8445 87.2045C81.8332 86.3523 82.1343 85.642 82.748 85.0738C83.3616 84.4943 84.0832 84.2045 84.9127 84.2045C85.7536 84.2045 86.4809 84.5 87.0945 85.0909C87.7082 85.6818 88.0036 86.3863 87.9809 87.2045C87.9695 87.7727 87.8218 88.2898 87.5377 88.7557C87.265 89.2216 86.8957 89.5909 86.4298 89.8636C85.9752 90.1363 85.4695 90.2727 84.9127 90.2727Z" fill="white"/>
<path d="M48.1089 90L48.9043 85.5256L68.6913 67.1307C71.0113 64.9763 72.942 63.0954 74.4832 61.4879C76.0409 59.8805 77.2507 58.3724 78.1124 56.9638C78.9908 55.5552 79.5625 54.072 79.8276 52.5142C80.1259 50.7244 79.9685 49.175 79.3553 47.8658C78.7422 46.5566 77.7727 45.5457 76.447 44.8331C75.1212 44.1205 73.5303 43.7642 71.6742 43.7642C69.7187 43.7642 67.9372 44.1702 66.3298 44.9823C64.7223 45.7777 63.3882 46.9046 62.3276 48.3629C61.267 49.8047 60.571 51.4868 60.2396 53.4091H54.3731C54.8702 50.4261 56.0054 47.8078 57.7786 45.554C59.5684 43.3002 61.7642 41.5436 64.366 40.2841C66.9844 39.0246 69.785 38.3949 72.768 38.3949C75.7509 38.3949 78.2782 39.0246 80.3497 40.2841C82.4211 41.5436 83.9209 43.2422 84.8489 45.38C85.777 47.5178 86.0256 49.8958 85.5947 52.5142C85.2632 54.4034 84.6086 56.2346 83.6309 58.0078C82.6532 59.781 81.1534 61.7614 79.1316 63.9489C77.1264 66.1198 74.4086 68.7713 70.9782 71.9034L57.5549 84.1335L57.4555 84.5313H81.1203L80.2254 90H48.1089Z" fill="white"/>
<path d="M14.126 90L14.9214 85.5256L34.7084 67.1307C37.0284 64.9763 38.9591 63.0954 40.5003 61.4879C42.058 59.8805 43.2678 58.3724 44.1295 56.9638C45.0078 55.5552 45.5796 54.072 45.8447 52.5142C46.143 50.7244 45.9856 49.175 45.3724 47.8658C44.7593 46.5566 43.7898 45.5457 42.464 44.8331C41.1383 44.1205 39.5474 43.7642 37.6913 43.7642C35.7358 43.7642 33.9543 44.1702 32.3469 44.9823C30.7394 45.7777 29.4053 46.9046 28.3447 48.3629C27.2841 49.8047 26.5881 51.4868 26.2567 53.4091H20.3902C20.8873 50.4261 22.0225 47.8078 23.7957 45.554C25.5855 43.3002 27.7813 41.5436 30.3831 40.2841C33.0014 39.0246 35.8021 38.3949 38.7851 38.3949C41.768 38.3949 44.2952 39.0246 46.3667 40.2841C48.4382 41.5436 49.938 43.2422 50.866 45.38C51.7941 47.5178 52.0426 49.8958 51.6118 52.5142C51.2803 54.4034 50.6257 56.2346 49.648 58.0078C48.6702 59.781 47.1705 61.7614 45.1487 63.9489C43.1435 66.1198 40.4257 68.7713 36.9953 71.9034L23.572 84.1335L23.4726 84.5313H47.1373L46.2425 90H14.126Z" fill="white"/>
</g>
<defs>
<clipPath id="clip0_4417_15014">
<rect width="128" height="128" fill="white"/>
</clipPath>
</defs>
</svg>
