<svg width="128" height="128" viewBox="0 0 128 128" fill="none" xmlns="http://www.w3.org/2000/svg">
<g clip-path="url(#clip0_4417_13333)">
<path d="M128 64C128 99.3462 99.3462 128 64 128C28.6538 128 0 99.3462 0 64C0 28.6538 28.6538 0 64 0C99.3462 0 128 28.6538 128 64Z" fill="#00DEFF"/>
<path d="M60.1648 99.9546C55.6194 99.9546 51.6762 99.1932 48.3353 97.6705C45.0171 96.125 42.5398 93.9773 40.9035 91.2273C39.2671 88.4546 38.6876 85.2273 39.1648 81.5455H47.6194C47.4148 83.7728 47.8012 85.7046 48.7785 87.3409C49.7785 88.9773 51.2557 90.2387 53.2103 91.125C55.1876 92.0114 57.5512 92.4546 60.3012 92.4546C63.233 92.4546 65.983 91.9432 68.5512 90.9205C71.1421 89.8978 73.3126 88.4205 75.0626 86.4887C76.8126 84.5341 77.8921 82.2046 78.3012 79.5C78.6648 77.0682 78.3921 74.9091 77.483 73.0228C76.5739 71.1364 75.0057 69.6591 72.7785 68.5909C70.5739 67.5 67.6876 66.9546 64.1194 66.9546H58.3921L59.6194 59.4546H64.9376C67.7103 59.4546 70.2557 58.9318 72.5739 57.8864C74.8921 56.8409 76.8239 55.375 78.3694 53.4887C79.9148 51.5796 80.8921 49.3409 81.3012 46.7727C81.6876 44.5227 81.5285 42.5682 80.8239 40.9091C80.1421 39.2273 78.9603 37.9205 77.2785 36.9887C75.6194 36.0568 73.5057 35.5909 70.9376 35.5909C68.483 35.5909 66.0739 36.0341 63.7103 36.9205C61.3694 37.7841 59.3694 39.0455 57.7103 40.7046C56.0512 42.3409 55.0057 44.3182 54.5739 46.6364H46.3921C47.0966 43 48.6762 39.8068 51.1307 37.0568C53.5853 34.2841 56.5739 32.125 60.0966 30.5796C63.6421 29.0114 67.3921 28.2273 71.3466 28.2273C75.733 28.2273 79.3466 29.1364 82.1876 30.9546C85.0512 32.75 87.0966 35.1137 88.3239 38.0455C89.5512 40.9546 89.8921 44.0909 89.3466 47.4546C88.733 51.2955 87.1535 54.5455 84.608 57.2046C82.0626 59.8637 78.9603 61.75 75.3012 62.8637V63.2728C79.5967 64.0228 82.7103 66 84.6421 69.2046C86.5966 72.3864 87.2103 76.1818 86.483 80.5909C85.8466 84.5455 84.3126 87.9773 81.8807 90.8864C79.4489 93.7728 76.3694 96.0114 72.6421 97.6023C68.9148 99.1705 64.7557 99.9546 60.1648 99.9546Z" fill="black"/>
</g>
<defs>
<clipPath id="clip0_4417_13333">
<rect width="128" height="128" fill="white"/>
</clipPath>
</defs>
</svg>
