<svg width="128" height="128" viewBox="0 0 128 128" fill="none" xmlns="http://www.w3.org/2000/svg">
<path d="M64 128C99.3462 128 128 99.3462 128 64C128 28.6538 99.3462 0 64 0C28.6538 0 0 28.6538 0 64C0 99.3462 28.6538 128 64 128Z" fill="url(#paint0_linear_2816_15372)"/>
<path d="M29.4915 44.7273L22.9716 84H18.2159L23.892 49.7131H23.6619L13 56.0796L13.8438 51.2472L24.7358 44.7273H29.4915Z" fill="black"/>
<path d="M29 67.2727C29.2731 65.5231 29.7824 64.1159 30.5281 63.0514C31.2842 61.9868 32.1664 61.2121 33.1747 60.7273C34.1934 60.2424 35.2384 60 36.3096 60C37.3808 60 38.326 60.2372 39.1452 60.7115C39.9644 61.1752 40.8676 61.9078 41.8548 62.9091C42.5164 63.5731 43.0731 64.0474 43.5247 64.332C43.9868 64.6061 44.5014 64.7431 45.0685 64.7431C45.9822 64.7431 46.7489 64.4163 47.3685 63.7628C47.9986 63.1094 48.4082 62.1502 48.5973 60.8854H52C51.7479 62.635 51.2491 64.0316 50.5034 65.0751C49.7578 66.108 48.8756 66.8564 47.8568 67.3202C46.8381 67.7734 45.7932 68 44.7219 68C43.6507 68 42.716 67.7628 41.9178 67.2885C41.1301 66.8142 40.2374 66.0817 39.2397 65.0909C38.5781 64.4269 38.0005 63.9842 37.5068 63.7628C37.0237 63.531 36.4986 63.415 35.9315 63.415C35.0808 63.415 34.3352 63.7101 33.6945 64.3004C33.0539 64.8906 32.6233 65.8814 32.4027 67.2727H29Z" fill="black"/>
<path d="M103.424 73L106.313 56H109.309L106.419 73H103.424ZM97.353 65.9424L97.8567 63.0576H115.353L114.849 65.9424H97.353Z" fill="black"/>
<path d="M44.8962 84L45.5099 80.5483L60.7741 66.3579C62.5639 64.696 64.0532 63.245 65.2421 62.0049C66.4438 60.7649 67.3771 59.6015 68.0418 58.5149C68.7194 57.4282 69.1604 56.2841 69.365 55.0824C69.5951 53.7017 69.4737 52.5064 69.0006 51.4964C68.5276 50.4865 67.7798 49.7066 66.757 49.1569C65.7343 48.6072 64.507 48.3324 63.0752 48.3324C61.5667 48.3324 60.1924 48.6456 58.9524 49.272C57.7123 49.8856 56.6832 50.7549 55.865 51.8799C55.0468 52.9922 54.5099 54.2897 54.2542 55.7727H49.7286C50.1121 53.4716 50.9879 51.4517 52.3558 49.713C53.7364 47.9744 55.4303 46.6193 57.4374 45.6477C59.4573 44.6761 61.6178 44.1903 63.919 44.1903C66.2201 44.1903 68.1697 44.6761 69.7677 45.6477C71.3657 46.6193 72.5227 47.9297 73.2386 49.5788C73.9545 51.228 74.1462 53.0625 73.8139 55.0824C73.5582 56.5397 73.0532 57.9524 72.2989 59.3203C71.5447 60.6882 70.3877 62.2159 68.8281 63.9034C67.2812 65.5781 65.1846 67.6235 62.5383 70.0397L52.1832 79.4744L52.1065 79.7812H70.3622L69.6718 84H44.8962Z" fill="black"/>
<path d="M70.0316 84L70.6452 80.5483L85.9094 66.3579C87.6992 64.696 89.1885 63.245 90.3774 62.0049C91.5791 60.7649 92.5124 59.6015 93.1772 58.5149C93.8547 57.4282 94.2958 56.2841 94.5003 55.0824C94.7304 53.7017 94.609 52.5064 94.136 51.4964C93.6629 50.4865 92.9151 49.7066 91.8923 49.1569C90.8696 48.6072 89.6423 48.3324 88.2105 48.3324C86.702 48.3324 85.3277 48.6456 84.0877 49.272C82.8476 49.8856 81.8185 50.7549 81.0003 51.8799C80.1821 52.9922 79.6452 54.2897 79.3895 55.7727H74.8639C75.2475 53.4716 76.1232 51.4517 77.4911 49.713C78.8718 47.9744 80.5656 46.6193 82.5727 45.6477C84.5926 44.6761 86.7531 44.1903 89.0543 44.1903C91.3554 44.1903 93.305 44.6761 94.903 45.6477C96.501 46.6193 97.658 47.9297 98.3739 49.5788C99.0898 51.228 99.2816 53.0625 98.9492 55.0824C98.6935 56.5397 98.1885 57.9524 97.4343 59.3203C96.68 60.6882 95.523 62.2159 93.9634 63.9034C92.4165 65.5781 90.3199 67.6235 87.6736 70.0397L77.3185 79.4744L77.2418 79.7812H95.4975L94.8071 84H70.0316Z" fill="black"/>
<defs>
<linearGradient id="paint0_linear_2816_15372" x1="0" y1="0" x2="128" y2="128" gradientUnits="userSpaceOnUse">
<stop stop-color="#0099FF"/>
<stop offset="1" stop-color="#00FFFF"/>
</linearGradient>
</defs>
</svg>
