<svg width="128" height="128" viewBox="0 0 128 128" fill="none" xmlns="http://www.w3.org/2000/svg">
<path d="M64 128C99.3462 128 128 99.3462 128 64C128 28.6538 99.3462 0 64 0C28.6538 0 0 28.6538 0 64C0 99.3462 28.6538 128 64 128Z" fill="#CCCCCC"/>
<path d="M56.23 77.4091L56.3501 76.6761C57.0301 72.8688 57.9401 69.8352 59.1001 67.5753C60.2801 65.3153 61.7001 63.4931 63.3501 62.1087C65.0201 60.7038 66.9201 59.411 69.0601 58.2301C70.3601 57.4972 71.5699 56.6319 72.6899 55.6342C73.8299 54.6162 74.7901 53.4557 75.5601 52.1527C76.3601 50.8293 76.8801 49.3532 77.1201 47.7244C77.4501 45.7292 77.2701 43.9986 76.6001 42.5327C75.9301 41.0668 74.88 39.9368 73.46 39.1428C72.03 38.3487 70.3602 37.9517 68.4502 37.9517C66.7802 37.9517 65.1002 38.2978 63.4102 38.9901C61.7402 39.6823 60.2502 40.7715 58.9502 42.2578C57.6702 43.7441 56.76 45.6884 56.23 48.0909H48.54C49.27 44.6297 50.6499 41.6674 52.6899 39.2038C54.7499 36.7403 57.2199 34.857 60.1099 33.554C63.0199 32.2509 66.1299 31.5994 69.4199 31.5994C73.0099 31.5994 76.0102 32.312 78.4302 33.7372C80.8602 35.1624 82.6002 37.1169 83.6602 39.6008C84.7202 42.0848 84.9802 44.9148 84.4502 48.0909C84.0802 50.3305 83.3999 52.3563 82.3999 54.1683C81.4299 55.9803 80.1699 57.599 78.6499 59.0241C77.1399 60.4493 75.41 61.6913 73.46 62.75C71.5 63.8494 69.8801 65.0099 68.6001 66.2315C67.3201 67.4328 66.29 68.8681 65.52 70.5376C64.74 72.1868 64.1302 74.233 63.6802 76.6761L63.5601 77.4091H56.23ZM58.0601 95.4886C56.5201 95.4886 55.2199 94.9593 54.1899 93.9006C53.1499 92.8215 52.6098 91.5185 52.5698 89.9915C52.5498 88.4645 53.0899 87.192 54.1899 86.174C55.2799 85.1357 56.5801 84.6165 58.0601 84.6165C59.5701 84.6165 60.8702 85.1458 61.9702 86.2045C63.0702 87.2633 63.6001 88.5256 63.5601 89.9915C63.5401 91.0095 63.28 91.9358 62.77 92.7706C62.28 93.6054 61.6198 94.267 60.7798 94.7557C59.9698 95.2443 59.0601 95.4886 58.0601 95.4886Z" fill="black"/>
</svg>
