<svg width="231" height="259" viewBox="0 0 231 259" fill="none" xmlns="http://www.w3.org/2000/svg">
    <path d="M106.702 54.4614C105.205 57.0195 104.009 59.4661 102.863 62.1387" stroke="black" stroke-width="3" stroke-linecap="round"/>
    <path d="M139.969 64.6978C139.357 67.4202 138.673 68.9902 137.41 71.0955" stroke="black" stroke-width="3" stroke-linecap="round"/>
    <path d="M192.593 43.5046C167.298 43.5046 197.868 72.1392 203.114 62.6978C209.538 51.1331 195.248 45.2427 186.195 42.2251" stroke="black" stroke-width="3" stroke-linecap="round"/>
    <path d="M70.874 135.03C54.0888 160.97 55.1855 181 52.998 196C50.4836 213.242 50.9967 244.5 56.9976 256.5" stroke="black" stroke-width="3" stroke-linecap="round"/>
    <path d="M168.016 137C172.168 178.52 171.135 178.09 166.5 219.5C165.295 230.269 159.326 248.674 151 257" stroke="black" stroke-width="3" stroke-linecap="round"/>
    <path d="M180.918 2C185.855 2.23508 193.893 3.21173 193.713 9.67727C193.605 13.5661 189.719 15.2627 188.595 18.6341" stroke="#F54F51" stroke-width="3" stroke-linecap="round"/>
    <path d="M186.229 30.0113C184.13 29.6441 186.417 30.4127 186.993 29.7845C187.691 29.0226 187.617 28.8272 186.658 28.5076" stroke="#F54F51" stroke-width="3" stroke-linecap="round"/>
    <path d="M216.734 4.66284C220.708 4.87961 223.422 8.33115 223.334 12.2173C223.244 16.1676 220.464 19.9606 216.734 21.2039" stroke="#F54F51" stroke-width="3" stroke-linecap="round"/>
    <path d="M214.369 32.5894C214.032 33.005 211.948 34.5166 213.713 34.296C213.952 34.2661 214.645 33.8201 214.322 33.4964C214.184 33.3585 213.469 33.4279 213.94 33.6634" stroke="#F54F51" stroke-width="3" stroke-linecap="round"/>
    <path d="M201.051 2.94434C204.574 5.08906 207.874 8.3691 206.922 12.9453C206.585 14.5686 205.377 15.8923 204.309 17.0866C203.865 17.5826 203.516 18.2717 202.984 18.6261" stroke="#F54F51" stroke-width="3" stroke-linecap="round"/>
    <path d="M200.406 31.5151C202.031 33.5142 203.174 30.8706 201.266 30.8706" stroke="#F54F51" stroke-width="3" stroke-linecap="round"/>
    <path d="M62.6475 123.909C52.2547 128.58 45.055 138.227 38.3918 147.206C31.1183 157.008 25.2815 168.52 20.6779 179.822C17.6396 187.282 15.4377 195.253 13.4088 203.043C13.0128 204.563 13.1998 209.061 12.656 210.12C10.6113 214.103 -4.22638 219.615 4.82038 225.629C11.1969 229.867 27.1249 229.55 21.1253 218.889" stroke="black" stroke-width="3" stroke-linecap="round"/>
    <path d="M178.402 139.792C192.303 148.828 216.601 159.195 226.117 139.044C233.165 124.117 227.456 104.986 220.69 90.9925C217.107 83.5818 213.056 76.2186 209.052 69.1001C207.981 67.1969 206.882 65.4916 205.646 63.6738C204.636 62.1886 202.652 60.8154 202.652 58.9585" stroke="black" stroke-width="3" stroke-linecap="round"/>
    <path d="M121.57 24.4036C122.645 26.8062 124.644 29.7229 124.644 32.4725" stroke="black" stroke-width="3" stroke-linecap="round"/>
    <path d="M133.866 26.3247C133.866 28.8804 133.594 31.1447 133.098 33.6251" stroke="black" stroke-width="3" stroke-linecap="round"/>
    <path d="M144.242 29.0142C143.834 30.8901 142.646 38.2358 140.016 38.2358" stroke="black" stroke-width="3" stroke-linecap="round"/>
    <path d="M116.664 32.3706C114.407 31.8841 105.693 31.8689 103.505 32.3706C92.9085 34.8004 82.2307 41.2012 74.4721 49.6958C64.9505 60.1207 59.6731 74.0642 62.9977 89.0056C66.6564 105.448 78.8814 114.776 92.5537 119.511C109.194 125.275 126.759 126.18 143.944 123.707C155.93 121.983 169.268 118.522 175.138 105.121C177.307 100.167 178.181 94.588 177.969 89.0957C177.619 80.0273 175.571 69.5917 171.487 61.6921C168.184 55.3026 162.908 49.8229 157.716 45.4481C154.047 42.3575 150.335 40.0237 146.093 38.1371" stroke="black" stroke-width="3" stroke-linecap="round"/>
    <path d="M96 89.9553C96.4654 88.1781 99.6479 85.9292 101.288 87.5693C102.868 89.1496 104.863 88.9513 107.011 89.52C108.211 89.8375 108.574 90.1471 109.526 90.8097C110.56 91.5289 111.897 91.3741 113.057 91.7609C115.377 92.5344 117.622 93.1533 119.248 95.0498C120.844 96.9118 121.662 98.7465 124.181 99.0964C126.93 99.4782 129.131 98.6989 131.404 100.467C133.372 101.998 134.912 102.086 137.482 101.708C139.691 101.383 140.658 101.178 139.819 98.6611" stroke="black" stroke-width="3" stroke-linecap="round"/>
</svg>
