<svg xmlns="http://www.w3.org/2000/svg" xmlns:xlink="http://www.w3.org/1999/xlink" width="610" height="512" viewBox="0 0 610 512">
  <defs>
    <clipPath id="clip-difficulty_down">
      <rect width="610" height="512"/>
    </clipPath>
  </defs>
  <g id="difficulty_down" clip-path="url(#clip-difficulty_down)">
    <g id="Icon_feather-arrow-up" data-name="Icon feather-arrow-up" transform="translate(540.508 429.989) rotate(180)">
      <path id="パス_27" data-name="パス 27" d="M18,340.989V7.5" transform="translate(24.034 0)" fill="none" stroke="#97b9ff" stroke-linecap="round" stroke-linejoin="round" stroke-width="27"/>
      <path id="パス_28" data-name="パス 28" d="M7.5,42.293,42.034,7.5,76.568,42.293" transform="translate(0 0)" fill="none" stroke="#97b9ff" stroke-linecap="round" stroke-linejoin="round" stroke-width="27"/>
    </g>
    <path id="中マド_2" data-name="中マド 2" d="M-20078-4920a175.284,175.284,0,0,1-35.066-3.535,173.142,173.142,0,0,1-32.662-10.138,174.1,174.1,0,0,1-29.557-16.042,175.262,175.262,0,0,1-25.752-21.247,175.284,175.284,0,0,1-21.246-25.75,173.826,173.826,0,0,1-16.043-29.556,172.962,172.962,0,0,1-10.139-32.661A175,175,0,0,1-20252-5094a175.024,175.024,0,0,1,3.537-35.068,172.976,172.976,0,0,1,10.139-32.663,173.911,173.911,0,0,1,16.043-29.557,175.121,175.121,0,0,1,21.246-25.751,175.315,175.315,0,0,1,25.752-21.248,174.1,174.1,0,0,1,29.557-16.042,173.142,173.142,0,0,1,32.662-10.138A175.284,175.284,0,0,1-20078-5268a175.284,175.284,0,0,1,35.066,3.535,173.142,173.142,0,0,1,32.662,10.138,173.949,173.949,0,0,1,29.555,16.042,175.142,175.142,0,0,1,25.752,21.248,175.121,175.121,0,0,1,21.246,25.751,173.948,173.948,0,0,1,16.043,29.557,173.285,173.285,0,0,1,10.141,32.663A175.351,175.351,0,0,1-19904-5094a175.328,175.328,0,0,1-3.533,35.066,173.271,173.271,0,0,1-10.141,32.661,173.844,173.844,0,0,1-16.043,29.556,175.139,175.139,0,0,1-21.246,25.75,175.077,175.077,0,0,1-25.752,21.247,173.949,173.949,0,0,1-29.555,16.042,173.142,173.142,0,0,1-32.662,10.138A175.284,175.284,0,0,1-20078-4920Zm-45.723-120.976h0v28.224h92.117v-28.224h-26.262v-117.6h-25.678a87.485,87.485,0,0,1-15.973,7.815,122.4,122.4,0,0,1-20.088,5.318v21.561h26.852v82.907h-30.969Z" transform="translate(20346 5350)" fill="#fff"/>
  </g>
</svg>
