<svg xmlns="http://www.w3.org/2000/svg" xmlns:xlink="http://www.w3.org/1999/xlink" width="610" height="512" viewBox="0 0 610 512">
  <defs>
    <clipPath id="clip-difficulty_up">
      <rect width="610" height="512"/>
    </clipPath>
  </defs>
  <g id="difficulty_up" clip-path="url(#clip-difficulty_up)">
    <g id="Icon_feather-arrow-up" data-name="Icon feather-arrow-up" transform="translate(456.44 81.5)">
      <path id="パス_27" data-name="パス 27" d="M18,340.989V7.5" transform="translate(24.034 0)" fill="none" stroke="#ff9797" stroke-linecap="round" stroke-linejoin="round" stroke-width="27"/>
      <path id="パス_28" data-name="パス 28" d="M7.5,42.293,42.034,7.5,76.568,42.293" transform="translate(0 0)" fill="none" stroke="#ff9797" stroke-linecap="round" stroke-linejoin="round" stroke-width="27"/>
    </g>
    <path id="中マド_1" data-name="中マド 1" d="M-19408-4930a175.284,175.284,0,0,1-35.066-3.535,173.1,173.1,0,0,1-32.66-10.139,173.963,173.963,0,0,1-29.557-16.043,175.142,175.142,0,0,1-25.752-21.248,175.25,175.25,0,0,1-21.248-25.751,173.819,173.819,0,0,1-16.041-29.556,172.994,172.994,0,0,1-10.139-32.662A175,175,0,0,1-19582-5104a175,175,0,0,1,3.537-35.066,172.994,172.994,0,0,1,10.139-32.662,173.819,173.819,0,0,1,16.041-29.556,175.25,175.25,0,0,1,21.248-25.751,175.142,175.142,0,0,1,25.752-21.248,173.923,173.923,0,0,1,29.557-16.043,173.1,173.1,0,0,1,32.66-10.139A175.284,175.284,0,0,1-19408-5278a175.284,175.284,0,0,1,35.066,3.535,173.1,173.1,0,0,1,32.662,10.139,174.026,174.026,0,0,1,29.557,16.043,175.209,175.209,0,0,1,25.75,21.248,175,175,0,0,1,21.248,25.751,174.072,174.072,0,0,1,16.043,29.556,173.16,173.16,0,0,1,10.141,32.662A175.328,175.328,0,0,1-19234-5104a175.328,175.328,0,0,1-3.533,35.066,173.16,173.16,0,0,1-10.141,32.662,174.072,174.072,0,0,1-16.043,29.556,174.978,174.978,0,0,1-21.248,25.751,175.209,175.209,0,0,1-25.75,21.248,174.026,174.026,0,0,1-29.557,16.043,173.1,173.1,0,0,1-32.662,10.139A175.284,175.284,0,0,1-19408-4930Zm48.1-239.461c-14.609,0-26.723,6.044-35.029,17.479-8.867,12.209-13.363,29.976-13.363,52.808,0,22.613,4.621,41.128,13.363,53.544,8.393,11.917,20.506,18.216,35.029,18.216s26.684-6.3,35.123-18.216c8.8-12.434,13.455-30.95,13.455-53.544,0-22.673-4.527-40.394-13.455-52.669C-19333.162-5163.368-19345.309-5169.459-19359.9-5169.459Zm-120.891,25.575a20.619,20.619,0,0,1,7.371,1.259,15.114,15.114,0,0,1,5.625,3.709,16.456,16.456,0,0,1,3.592,6.054,25.571,25.571,0,0,1,1.262,8.3c0,4.88-1.352,10.067-4.129,15.857a95.376,95.376,0,0,1-11.65,17.841c-8.9,11.171-21.686,24.159-41.445,42.113v18.768h94.947v-27.6h-25.211a195.111,195.111,0,0,0-22.262,1.838c12.166-12.271,21.746-23.854,28.475-34.43,8.455-13.292,12.742-25.48,12.742-36.225,0-25.753-18.043-43.056-44.9-43.056-18.271,0-31.014,5.933-45.449,21.162l17.85,17.663C-19497.939-5137.187-19490.469-5143.885-19480.789-5143.885Zm150.957-39.837h0v12.5h20v21h13v-21h20.1v-12.5h-20.1v-20.9h-13v20.9h-20Zm-30.066,130.917a11.835,11.835,0,0,1-6.844-1.966,16.526,16.526,0,0,1-5.553-7.142,53.111,53.111,0,0,1-3.725-14.179,166.924,166.924,0,0,1-1.359-23.081c0-17.426,1.664-29.381,5.084-36.546a15.37,15.37,0,0,1,5.553-6.743,12.541,12.541,0,0,1,6.844-1.792c5.7,0,9.668,2.712,12.486,8.534,3.482,7.188,5.176,19.143,5.176,36.546a163.717,163.717,0,0,1-1.387,23.081,52.623,52.623,0,0,1-3.789,14.179,16.64,16.64,0,0,1-5.613,7.142A11.955,11.955,0,0,1-19359.9-5052.805Z" transform="translate(19657 5359.999)" fill="#fff"/>
  </g>
</svg>
