<svg xmlns="http://www.w3.org/2000/svg" xmlns:xlink="http://www.w3.org/1999/xlink" width="610" height="512" viewBox="0 0 610 512">
  <defs>
    <clipPath id="clip-download_down">
      <rect width="610" height="512"/>
    </clipPath>
  </defs>
  <g id="download_down" clip-path="url(#clip-download_down)">
    <g id="Icon_feather-arrow-up" data-name="Icon feather-arrow-up" transform="translate(540.508 429.989) rotate(180)">
      <path id="패스_27" data-name="패스 27" d="M18,340.989V7.5" transform="translate(24.034 0)" fill="none" stroke="#97b9ff" stroke-linecap="round" stroke-linejoin="round" stroke-width="27"/>
      <path id="패스_28" data-name="패스 28" d="M7.5,42.293,42.034,7.5,76.568,42.293" transform="translate(0 0)" fill="none" stroke="#97b9ff" stroke-linecap="round" stroke-linejoin="round" stroke-width="27"/>
    </g>
    <path id="Icon_awesome-download" data-name="Icon awesome-download" d="M130.05,0h48.167a14.415,14.415,0,0,1,14.45,14.45V115.6h52.8a12.019,12.019,0,0,1,8.489,20.531l-91.577,91.637a11.665,11.665,0,0,1-16.437,0l-91.7-91.637A12.019,12.019,0,0,1,62.737,115.6H115.6V14.45A14.415,14.415,0,0,1,130.05,0ZM308.268,226.384v67.434a14.415,14.415,0,0,1-14.45,14.45H14.45A14.415,14.415,0,0,1,0,293.818V226.384a14.415,14.415,0,0,1,14.45-14.45h88.326l29.5,29.5a30.852,30.852,0,0,0,43.711,0l29.5-29.5h88.326A14.415,14.415,0,0,1,308.268,226.384Zm-74.659,52.983a12.042,12.042,0,1,0-12.042,12.042A12.077,12.077,0,0,0,233.609,279.367Zm38.533,0A12.042,12.042,0,1,0,260.1,291.409,12.077,12.077,0,0,0,272.142,279.367Z" transform="translate(99 102)" fill="#fff"/>
  </g>
</svg>
