<svg width="36" height="36" viewBox="0 0 36 36" fill="none" xmlns="http://www.w3.org/2000/svg">
<path fill-rule="evenodd" clip-rule="evenodd" d="M14.4213 0C13.8327 0 13.3555 0.48506 13.3555 1.08341V14.4768H8.4872C6.64617 14.4768 5.67109 16.6897 6.8968 18.0862L16.4082 28.9228C17.2557 29.8884 18.7415 29.8884 19.589 28.9228L29.1004 18.0862C30.3261 16.6897 29.351 14.4768 27.51 14.4768H23.029V1.08341C23.029 0.48506 22.5518 0 21.9632 0H14.4213ZM2 31.7646C0.895431 31.7646 0 32.6601 0 33.7646V33.9999C0 35.1045 0.895433 35.9999 2 35.9999H33.9999C35.1045 35.9999 35.9999 35.1045 35.9999 33.9999V33.7646C35.9999 32.6601 35.1045 31.7646 33.9999 31.7646H2Z" fill="white"/>
</svg>
