<svg width="16" height="16" viewBox="0 0 16 16" fill="none" xmlns="http://www.w3.org/2000/svg">
    <g opacity="0.4">
        <path fill-rule="evenodd" clip-rule="evenodd" d="M10.0881 5.54454C10.0881 8.05449 8.05361 10.0891 5.54407 10.0891C3.03453 10.0891 1 8.05449 1 5.54454C1 3.03458 3.03453 1 5.54407 1C8.05361 1 10.0881 3.03458 10.0881 5.54454ZM8.77035 10.0541C7.8615 10.7056 6.74757 11.0891 5.54407 11.0891C2.48216 11.0891 0 8.6067 0 5.54454C0 2.48237 2.48216 0 5.54407 0C8.60597 0 11.0881 2.48237 11.0881 5.54454C11.0881 7.22123 10.3439 8.7241 9.16789 9.7408C9.31751 9.72029 9.47464 9.76756 9.58967 9.8826L14.8531 15.1465C15.0484 15.3418 15.0484 15.6584 14.8531 15.8536C14.6579 16.0489 14.3413 16.0489 14.146 15.8536L8.88259 10.5897C8.73779 10.4449 8.70037 10.2334 8.77035 10.0541Z" fill="white"/>
    </g>
</svg>
