<svg width="36" height="36" viewBox="0 0 36 36" fill="none" xmlns="http://www.w3.org/2000/svg">
<path d="M35.9999 18C35.9999 27.9435 27.929 35.9999 17.9709 35.9999C9.71127 35.9999 2.75806 30.462 0.624192 22.9064L7.53385 25.7588C7.99837 28.0886 10.0669 29.8524 12.5346 29.8524C15.3798 29.8524 17.7532 27.5007 17.6298 24.5177L23.7629 20.1483C27.5443 20.2427 30.7161 17.1798 30.7161 13.3621C30.7161 9.61691 27.6677 6.57579 23.9153 6.57579C20.1629 6.57579 17.1145 9.62417 17.1145 13.3621V13.4492L12.8177 19.6693C11.6927 19.604 10.5895 19.9161 9.66046 20.5475L0 16.5556C0.740321 7.28708 8.49918 0 17.9709 0C27.929 0 35.9999 8.05643 35.9999 18ZM11.3008 27.312L9.08708 26.3975C9.49387 27.2422 10.1963 27.9085 11.0613 28.2701C13.0137 29.083 15.2564 28.154 16.0693 26.2088C16.4613 25.2653 16.4685 24.2274 16.0766 23.2838C15.6846 22.3403 14.9516 21.6 14.008 21.208C13.0717 20.8161 12.0701 20.8306 11.1847 21.1645L13.4709 22.108C14.908 22.7032 15.5903 24.3508 14.9879 25.7878C14.3855 27.2322 12.7379 27.9072 11.3008 27.312ZM23.9153 17.8838C21.4185 17.8838 19.3862 15.8516 19.3862 13.3621C19.3862 10.8726 21.4185 8.8403 23.9153 8.8403C26.412 8.8403 28.4443 10.8726 28.4443 13.3621C28.4443 15.8516 26.4193 17.8838 23.9153 17.8838ZM23.9225 16.7516C25.8024 16.7516 27.3266 15.2274 27.3266 13.3548C27.3266 11.475 25.8024 9.95804 23.9225 9.95804C22.0427 9.95804 20.5185 11.4822 20.5185 13.3548C20.5258 15.2274 22.05 16.7516 23.9225 16.7516Z" fill="url(#paint0_linear_1581_9872)"/>
<path d="M35.9999 18C35.9999 27.9435 27.929 35.9999 17.9709 35.9999C9.71127 35.9999 2.75806 30.462 0.624192 22.9064L7.53385 25.7588C7.99837 28.0886 10.0669 29.8524 12.5346 29.8524C15.3798 29.8524 17.7532 27.5007 17.6298 24.5177L23.7629 20.1483C27.5443 20.2427 30.7161 17.1798 30.7161 13.3621C30.7161 9.61691 27.6677 6.57579 23.9153 6.57579C20.1629 6.57579 17.1145 9.62417 17.1145 13.3621V13.4492L12.8177 19.6693C11.6927 19.604 10.5895 19.9161 9.66046 20.5475L0 16.5556C0.740321 7.28708 8.49918 0 17.9709 0C27.929 0 35.9999 8.05643 35.9999 18ZM11.3008 27.312L9.08708 26.3975C9.49387 27.2422 10.1963 27.9085 11.0613 28.2701C13.0137 29.083 15.2564 28.154 16.0693 26.2088C16.4613 25.2653 16.4685 24.2274 16.0766 23.2838C15.6846 22.3403 14.9516 21.6 14.008 21.208C13.0717 20.8161 12.0701 20.8306 11.1847 21.1645L13.4709 22.108C14.908 22.7032 15.5903 24.3508 14.9879 25.7878C14.3855 27.2322 12.7379 27.9072 11.3008 27.312ZM23.9153 17.8838C21.4185 17.8838 19.3862 15.8516 19.3862 13.3621C19.3862 10.8726 21.4185 8.8403 23.9153 8.8403C26.412 8.8403 28.4443 10.8726 28.4443 13.3621C28.4443 15.8516 26.4193 17.8838 23.9153 17.8838ZM23.9225 16.7516C25.8024 16.7516 27.3266 15.2274 27.3266 13.3548C27.3266 11.475 25.8024 9.95804 23.9225 9.95804C22.0427 9.95804 20.5185 11.4822 20.5185 13.3548C20.5258 15.2274 22.05 16.7516 23.9225 16.7516Z" fill="white"/>
<defs>
<linearGradient id="paint0_linear_1581_9872" x1="5.5" y1="5" x2="31" y2="31" gradientUnits="userSpaceOnUse">
<stop stop-color="#FF0000"/>
<stop offset="0.0760415" stop-color="#FAFF00"/>
<stop offset="0.138542" stop-color="#24FF00"/>
<stop offset="0.221875" stop-color="#00FFE0"/>
<stop offset="0.284375" stop-color="#1400FF"/>
<stop offset="0.352083" stop-color="#CC00FF"/>
<stop offset="0.419792" stop-color="#FF00A8"/>
<stop offset="0.492708" stop-color="#FF0000"/>
<stop offset="0.58125" stop-color="#FFF500"/>
<stop offset="0.648958" stop-color="#42FF00"/>
<stop offset="0.732292" stop-color="#00FFE0"/>
<stop offset="0.810417" stop-color="#00FFE0"/>
<stop offset="0.878125" stop-color="#000AFF"/>
<stop offset="0.940625" stop-color="#EB00FF"/>
<stop offset="1" stop-color="#FF0000"/>
</linearGradient>
</defs>
</svg>
