<svg width="128" height="128" viewBox="0 0 128 128" fill="none" xmlns="http://www.w3.org/2000/svg">
<path d="M64 128C99.3462 128 128 99.3462 128 64C128 28.6538 99.3462 0 64 0C28.6538 0 0 28.6538 0 64C0 99.3462 28.6538 128 64 128Z" fill="#434343"/>
<path d="M57.6201 60.3679L56.52 67.0866H29.1602L30.2598 60.3679H57.6201ZM51.1802 95L52.1602 89.5028L76.4702 66.9034C79.3202 64.2566 81.6901 61.9458 83.5801 59.9709C85.5001 57.996 86.98 56.1432 88.04 54.4126C89.12 52.6821 89.8199 50.8598 90.1499 48.946C90.5099 46.7472 90.3198 44.8435 89.5698 43.2351C88.8098 41.6267 87.6202 40.3847 85.9902 39.5092C84.3702 38.6338 82.4099 38.196 80.1299 38.196C77.7299 38.196 75.5401 38.6948 73.5601 39.6925C71.5901 40.6697 69.9499 42.0542 68.6499 43.8459C67.3399 45.6172 66.4901 47.6837 66.0801 50.0455H58.8701C59.4901 46.3807 60.8801 43.1638 63.0601 40.3949C65.2601 37.6259 67.9599 35.4678 71.1499 33.9205C74.3699 32.3731 77.8102 31.5994 81.4702 31.5994C85.1402 31.5994 88.24 32.3731 90.79 33.9205C93.33 35.4678 95.1798 37.5547 96.3198 40.1811C97.4598 42.8075 97.76 45.7292 97.23 48.946C96.83 51.267 96.0198 53.5168 94.8198 55.6953C93.6198 57.8738 91.78 60.3068 89.29 62.9943C86.83 65.6615 83.4898 68.919 79.2798 72.767L62.7798 87.7926L62.6602 88.2812H91.7402L90.6401 95H51.1802Z" fill="white"/>
</svg>
