<svg width="128" height="128" viewBox="0 0 128 128" fill="none" xmlns="http://www.w3.org/2000/svg">
<g clip-path="url(#clip0_4417_13354)">
<path d="M128 64C128 99.3462 99.3462 128 64 128C28.6538 128 0 99.3462 0 64C0 28.6538 28.6538 0 64 0C99.3462 0 128 28.6538 128 64Z" fill="#FCF500"/>
<path d="M74.797 95.8551C70.1956 95.8551 66.4901 94.603 63.6805 92.0987C60.8708 89.5741 59.0181 85.9195 58.1222 81.1349C57.2264 76.33 57.3282 70.5275 58.4276 63.7273C59.5271 56.9678 61.3289 51.1958 63.8332 46.4112C66.3374 41.6063 69.422 37.9415 73.0867 35.4169C76.7515 32.8719 80.8642 31.5994 85.4248 31.5994C89.9854 31.5994 93.6807 32.8719 96.5107 35.4169C99.3611 37.9619 101.255 41.6267 102.191 46.4112C103.148 51.1958 103.056 56.9678 101.916 63.7273C100.776 70.5275 98.9539 76.3198 96.4496 81.1044C93.9454 85.889 90.8609 89.5436 87.1961 92.0682C83.5313 94.5928 79.3983 95.8551 74.797 95.8551ZM75.8964 89.1364C80.4774 89.1364 84.3966 86.9375 87.6542 82.5398C90.9321 78.1217 93.243 71.8508 94.5867 63.7273C95.4826 58.3116 95.6658 53.7 95.1364 49.8927C94.6071 46.0855 93.4262 43.1842 91.5938 41.1889C89.7614 39.1937 87.3386 38.196 84.3254 38.196C79.8055 38.196 75.9167 40.4254 72.6592 44.8842C69.4016 49.3227 67.1009 55.6037 65.7572 63.7273C64.8613 69.143 64.6679 73.7443 65.1769 77.5312C65.6859 81.3182 66.8464 84.1991 68.6585 86.174C70.4705 88.1489 72.8831 89.1364 75.8964 89.1364Z" fill="black"/>
<path d="M57.2342 32.4545L46.8507 95H39.2768L48.3166 40.3949H47.9501L30.97 50.5341L32.3137 42.8381L49.6603 32.4545H57.2342Z" fill="black"/>
</g>
<defs>
<clipPath id="clip0_4417_13354">
<rect width="128" height="128" fill="white"/>
</clipPath>
</defs>
</svg>
