<svg width="128" height="128" viewBox="0 0 128 128" fill="none" xmlns="http://www.w3.org/2000/svg">
<g clip-path="url(#clip0_4417_13731)">
<circle cx="64" cy="64" r="64" fill="#680000"/>
<path d="M53.2762 32.4545L42.8927 95H35.3188L44.3586 40.3949H43.9921L27.012 50.5341L28.3558 42.8381L45.7023 32.4545H53.2762ZM80.6118 31.5994C83.2382 31.6198 85.7832 32.1186 88.2467 33.0959C90.7102 34.0528 92.8378 35.6612 94.6295 37.9212C96.4212 40.1811 97.6428 43.2453 98.2943 47.1136C98.9662 50.9616 98.8135 55.8073 97.8362 61.6506C96.92 67.1477 95.5966 72.0239 93.866 76.2791C92.1558 80.514 90.0994 84.0871 87.697 86.9986C85.2945 89.91 82.5867 92.1191 79.5734 93.6257C76.5805 95.112 73.3433 95.8551 69.8618 95.8551C66.4006 95.8551 63.3873 95.1629 60.822 93.7784C58.277 92.3736 56.3021 90.4292 54.8973 87.9453C53.5128 85.4411 52.8409 82.5398 52.8816 79.2415H60.089C60.2112 82.1733 61.0663 84.5554 62.6544 86.3878C64.2628 88.2202 66.7467 89.1364 70.1061 89.1364C74.9314 89.1364 79.156 87.0698 82.7801 82.9368C86.4245 78.7834 88.9186 72.706 90.2623 64.7045L89.7737 65.1932C88.3485 66.9034 86.7706 68.3591 85.04 69.5604C83.3094 70.7616 81.4669 71.6778 79.5123 72.3089C77.5578 72.9401 75.5218 73.2557 73.4044 73.2557C69.7396 73.2557 66.5329 72.3395 63.7843 70.5071C61.0358 68.6747 59.01 66.1603 57.7069 62.9638C56.4039 59.7673 56.0985 56.1127 56.7907 52C57.4422 48.2131 58.8573 44.7723 61.0358 41.6776C63.2346 38.5625 66.0036 36.0888 69.3426 34.2564C72.702 32.424 76.4583 31.5384 80.6118 31.5994ZM80.3674 38.3182C77.7614 38.3182 75.2978 38.9697 72.9768 40.2727C70.6558 41.5758 68.6911 43.3369 67.0826 45.5561C65.4742 47.7753 64.446 50.2491 63.9981 52.9773C63.5909 55.4612 63.7742 57.7313 64.5478 59.7876C65.3215 61.844 66.5736 63.483 68.3042 64.7045C70.0348 65.9261 72.1421 66.5369 74.626 66.5369C76.6212 66.5369 78.5452 66.1399 80.398 65.3459C82.2507 64.5518 83.9304 63.4728 85.437 62.1087C86.964 60.7242 88.2365 59.1565 89.2545 57.4055C90.2725 55.6342 90.9342 53.7917 91.2396 51.8778C91.6468 49.4754 91.4636 47.246 90.6899 45.1896C89.9162 43.1333 88.6437 41.474 86.8724 40.2116C85.1011 38.9493 82.9328 38.3182 80.3674 38.3182Z" fill="white"/>
</g>
<defs>
<clipPath id="clip0_4417_13731">
<rect width="128" height="128" fill="white"/>
</clipPath>
</defs>
</svg>
