<svg width="128" height="128" viewBox="0 0 128 128" fill="none" xmlns="http://www.w3.org/2000/svg">
<g clip-path="url(#clip0_4416_11996)">
<circle cx="64" cy="64" r="64" fill="url(#paint0_linear_4416_11996)"/>
<path d="M108.424 73L111.313 56H114.309L111.419 73H108.424ZM102.353 65.9424L102.857 63.0576H120.353L119.849 65.9424H102.353Z" fill="black"/>
<path d="M26.4915 44.7272L19.9716 84H15.2159L20.892 49.713H20.6619L10 56.0795L10.8438 51.2471L21.7358 44.7272H26.4915Z" fill="black"/>
<path d="M26.6978 68.2755C27.0302 66.1534 27.6502 64.4467 28.5579 63.1555C29.4784 61.8643 30.5522 60.9247 31.7795 60.3366C33.0195 59.7485 34.2916 59.4545 35.5955 59.4545C36.8995 59.4545 38.0501 59.7422 39.0472 60.3174C40.0444 60.8799 41.1438 61.7684 42.3455 62.9829C43.1509 63.7883 43.8285 64.3636 44.3782 64.7088C44.9407 65.0412 45.5671 65.2074 46.2575 65.2074C47.3697 65.2074 48.3029 64.811 49.0572 64.0184C49.8242 63.2258 50.3228 62.0625 50.5529 60.5284H54.695C54.3882 62.6505 53.7809 64.3444 52.8732 65.6101C51.9656 66.8629 50.8917 67.7706 49.6516 68.3331C48.4116 68.8828 47.1396 69.1576 45.8356 69.1576C44.5316 69.1576 43.3938 68.87 42.4222 68.2947C41.4634 67.7194 40.3768 66.8309 39.1623 65.6292C38.3569 64.8238 37.6538 64.2869 37.0529 64.0184C36.4649 63.7372 35.8257 63.5966 35.1353 63.5966C34.0998 63.5966 33.1921 63.9545 32.4123 64.6704C31.6325 65.3863 31.1083 66.588 30.8399 68.2755H26.6978Z" fill="black"/>
<path d="M49.8963 84L50.51 80.5483L65.7742 66.3579C67.5639 64.696 69.0533 63.245 70.2422 62.0049C71.4439 60.7649 72.3772 59.6015 73.0419 58.5149C73.7195 57.4282 74.1605 56.2841 74.3651 55.0824C74.5952 53.7017 74.4737 52.5064 74.0007 51.4964C73.5277 50.4865 72.7799 49.7066 71.7571 49.1569C70.7344 48.6072 69.5071 48.3324 68.0753 48.3324C66.5668 48.3324 65.1925 48.6456 63.9524 49.272C62.7124 49.8856 61.6833 50.7549 60.8651 51.8799C60.0469 52.9922 59.51 54.2897 59.2543 55.7727H54.7287C55.1122 53.4716 55.988 51.4517 57.3559 49.713C58.7365 47.9744 60.4304 46.6193 62.4375 45.6477C64.4574 44.6761 66.6179 44.1903 68.9191 44.1903C71.2202 44.1903 73.1698 44.6761 74.7678 45.6477C76.3658 46.6193 77.5228 47.9297 78.2387 49.5788C78.9546 51.228 79.1463 53.0625 78.8139 55.0824C78.5583 56.5397 78.0533 57.9524 77.299 59.3203C76.5448 60.6882 75.3878 62.2159 73.8282 63.9034C72.2813 65.5781 70.1847 67.6235 67.5384 70.0397L57.1833 79.4744L57.1066 79.7812H75.3623L74.6719 84H49.8963Z" fill="black"/>
<path d="M75.0316 84L75.6453 80.5483L90.9095 66.3579C92.6993 64.696 94.1886 63.245 95.3775 62.0049C96.5792 60.7649 97.5125 59.6015 98.1772 58.5149C98.8548 57.4282 99.2959 56.2841 99.5004 55.0824C99.7305 53.7017 99.6091 52.5064 99.1361 51.4964C98.663 50.4865 97.9152 49.7066 96.8924 49.1569C95.8697 48.6072 94.6424 48.3324 93.2106 48.3324C91.7021 48.3324 90.3278 48.6456 89.0878 49.272C87.8477 49.8856 86.8186 50.7549 86.0004 51.8799C85.1822 52.9922 84.6453 54.2897 84.3896 55.7727H79.864C80.2476 53.4716 81.1233 51.4517 82.4912 49.713C83.8718 47.9744 85.5657 46.6193 87.5728 45.6477C89.5927 44.6761 91.7532 44.1903 94.0544 44.1903C96.3555 44.1903 98.3051 44.6761 99.9031 45.6477C101.501 46.6193 102.658 47.9297 103.374 49.5788C104.09 51.228 104.282 53.0625 103.949 55.0824C103.694 56.5397 103.189 57.9524 102.434 59.3203C101.68 60.6882 100.523 62.2159 98.9635 63.9034C97.4166 65.5781 95.32 67.6235 92.6737 70.0397L82.3186 79.4744L82.2419 79.7812H100.498L99.8072 84H75.0316Z" fill="black"/>
</g>
<defs>
<linearGradient id="paint0_linear_4416_11996" x1="0" y1="0" x2="128" y2="128" gradientUnits="userSpaceOnUse">
<stop stop-color="#0099FF"/>
<stop offset="1" stop-color="#00FFFF"/>
</linearGradient>
<clipPath id="clip0_4416_11996">
<rect width="128" height="128" fill="white"/>
</clipPath>
</defs>
</svg>
