<svg width="128" height="128" viewBox="0 0 128 128" fill="none" xmlns="http://www.w3.org/2000/svg">
<g clip-path="url(#clip0_4417_14376)">
<circle cx="64" cy="64" r="64" fill="#190648"/>
<path d="M18.2725 89L19.0452 84.6534L38.2668 66.7841C40.5206 64.6913 42.3961 62.8641 43.8932 61.3026C45.4065 59.741 46.5817 58.276 47.4188 56.9077C48.272 55.5393 48.8274 54.0985 49.085 52.5852C49.3747 50.8466 49.2218 49.3414 48.6262 48.0696C48.0305 46.7978 47.0888 45.8158 45.8009 45.1236C44.513 44.4313 42.9675 44.0852 41.1645 44.0852C39.2649 44.0852 37.5343 44.4796 35.9728 45.2685C34.4112 46.0412 33.1153 47.1359 32.085 48.5526C31.0547 49.9531 30.3785 51.5871 30.0566 53.4545H24.3577C24.8407 50.5568 25.9434 48.0133 27.6659 45.8239C29.4046 43.6345 31.5376 41.928 34.0651 40.7045C36.6086 39.4811 39.3293 38.8693 42.227 38.8693C45.1247 38.8693 47.5798 39.4811 49.5921 40.7045C51.6044 41.928 53.0613 43.5781 53.9628 45.6548C54.8643 47.7315 55.1058 50.0417 54.6872 52.5852C54.3653 54.4205 53.7294 56.1993 52.7796 57.9219C51.8298 59.6444 50.3729 61.5682 48.4088 63.6932C46.4609 65.8021 43.8208 68.3778 40.4884 71.4205L27.4486 83.3011L27.352 83.6875H50.3407L49.4713 89H18.2725ZM67.3184 89.6761C63.6802 89.6761 60.7503 88.6861 58.5287 86.706C56.3071 84.7098 54.8421 81.8201 54.1338 78.0369C53.4254 74.2377 53.5059 69.6496 54.3753 64.2727C55.2446 58.928 56.6693 54.3641 58.6494 50.581C60.6295 46.7817 63.0684 43.884 65.9662 41.8878C68.8639 39.8755 72.1158 38.8693 75.7218 38.8693C79.3279 38.8693 82.2498 39.8755 84.4875 41.8878C86.7413 43.9001 88.2384 46.7978 88.979 50.581C89.7356 54.3641 89.6631 58.928 88.7616 64.2727C87.8601 69.6496 86.4193 74.2296 84.4392 78.0128C82.4591 81.7959 80.0201 84.6856 77.1224 86.6818C74.2247 88.678 70.9567 89.6761 67.3184 89.6761ZM68.1878 84.3636C71.8099 84.3636 74.9089 82.625 77.4846 79.1477C80.0765 75.6544 81.9037 70.696 82.9662 64.2727C83.6745 59.9905 83.8194 56.3442 83.4008 53.3338C82.9823 50.3234 82.0486 48.0294 80.5997 46.4517C79.1508 44.8741 77.2351 44.0852 74.8525 44.0852C71.2787 44.0852 68.2039 45.848 65.6281 49.3736C63.0523 52.883 61.2332 57.8494 60.1707 64.2727C59.4624 68.5549 59.3094 72.1932 59.7119 75.1875C60.1144 78.1818 61.032 80.4598 62.4647 82.0213C63.8975 83.5829 65.8052 84.3636 68.1878 84.3636Z" fill="white"/>
<path d="M99.5486 79.1165L104.039 51.929H108.693L104.203 79.1165H99.5486ZM90.1153 67.8295L90.898 63.2159H118.085L117.303 67.8295H90.1153Z" fill="white"/>
</g>
<defs>
<clipPath id="clip0_4417_14376">
<rect width="128" height="128" fill="white"/>
</clipPath>
</defs>
</svg>
