<svg width="128" height="128" viewBox="0 0 128 128" fill="none" xmlns="http://www.w3.org/2000/svg">
<g clip-path="url(#clip0_4417_13724)">
<circle cx="64" cy="64" r="64" fill="#010005"/>
<path d="M15.1633 88L15.9133 83.7813L34.5695 66.4375C36.757 64.4062 38.5773 62.6328 40.0305 61.1172C41.4992 59.6016 42.6398 58.1797 43.4523 56.8516C44.2805 55.5234 44.8195 54.125 45.0695 52.6562C45.3508 50.9688 45.2023 49.5078 44.6242 48.2734C44.0461 47.0391 43.132 46.0859 41.882 45.4141C40.632 44.7422 39.132 44.4062 37.382 44.4062C35.5383 44.4062 33.8586 44.7891 32.343 45.5547C30.8273 46.3047 29.5695 47.3672 28.5695 48.7422C27.5695 50.1016 26.9133 51.6875 26.6008 53.5H21.0695C21.5383 50.6875 22.6086 48.2187 24.2805 46.0937C25.968 43.9687 28.0383 42.3125 30.4914 41.125C32.9602 39.9375 35.6008 39.3437 38.4133 39.3437C41.2258 39.3437 43.6086 39.9375 45.5617 41.125C47.5148 42.3125 48.9289 43.9141 49.8039 45.9297C50.6789 47.9453 50.9133 50.1875 50.507 52.6562C50.1945 54.4375 49.5773 56.1641 48.6555 57.8359C47.7336 59.5078 46.3195 61.375 44.4133 63.4375C42.5227 65.4844 39.9602 67.9844 36.7258 70.9375L24.0695 82.4687L23.9758 82.8438H46.2883L45.4445 88H15.1633ZM62.7667 88.6562C59.2355 88.6562 56.3917 87.6953 54.2355 85.7734C52.0792 83.8359 50.6573 81.0312 49.9698 77.3594C49.2823 73.6719 49.3605 69.2187 50.2042 64C51.048 58.8125 52.4308 54.3828 54.3527 50.7109C56.2745 47.0234 58.6417 44.2109 61.4542 42.2734C64.2667 40.3203 67.423 39.3437 70.923 39.3437C74.423 39.3437 77.2589 40.3203 79.4308 42.2734C81.6183 44.2266 83.0714 47.0391 83.7902 50.7109C84.5245 54.3828 84.4542 58.8125 83.5792 64C82.7042 69.2187 81.3058 73.6641 79.3839 77.3359C77.462 81.0078 75.0948 83.8125 72.2823 85.75C69.4698 87.6875 66.298 88.6562 62.7667 88.6562ZM63.6105 83.5C67.1261 83.5 70.1339 81.8125 72.6339 78.4375C75.1495 75.0469 76.923 70.2344 77.9542 64C78.6417 59.8437 78.7823 56.3047 78.3761 53.3828C77.9698 50.4609 77.0636 48.2344 75.6573 46.7031C74.2511 45.1719 72.3917 44.4062 70.0792 44.4062C66.6105 44.4062 63.6261 46.1172 61.1261 49.5391C58.6261 52.9453 56.8605 57.7656 55.8292 64C55.1417 68.1562 54.9933 71.6875 55.3839 74.5938C55.7745 77.5 56.6652 79.7109 58.0558 81.2266C59.4464 82.7422 61.298 83.5 63.6105 83.5ZM83.4746 88.2727C82.6109 88.2727 81.8893 87.9773 81.3098 87.3864C80.7302 86.7841 80.4291 86.0568 80.4064 85.2045C80.395 84.3523 80.6962 83.642 81.3098 83.0739C81.9234 82.4943 82.645 82.2045 83.4746 82.2045C84.3155 82.2045 85.0427 82.5 85.6564 83.0909C86.27 83.6818 86.5655 84.3864 86.5427 85.2045C86.5314 85.7727 86.3837 86.2898 86.0996 86.7557C85.8268 87.2216 85.4575 87.5909 84.9916 87.8636C84.5371 88.1364 84.0314 88.2727 83.4746 88.2727ZM97.5555 88.4773C94.9873 88.4773 92.9191 87.7784 91.3509 86.3807C89.7827 84.9716 88.7486 82.9318 88.2486 80.2614C87.7486 77.5795 87.8055 74.3409 88.4191 70.5455C89.0327 66.7727 90.0384 63.5511 91.4361 60.8807C92.8339 58.1989 94.5555 56.1534 96.6009 54.7443C98.6464 53.3239 100.942 52.6136 103.487 52.6136C106.033 52.6136 108.095 53.3239 109.675 54.7443C111.266 56.1648 112.323 58.2102 112.845 60.8807C113.379 63.5511 113.328 66.7727 112.692 70.5455C112.055 74.3409 111.038 77.5739 109.641 80.2443C108.243 82.9148 106.521 84.9545 104.476 86.3636C102.43 87.7727 100.124 88.4773 97.5555 88.4773ZM98.1691 84.7273C100.726 84.7273 102.913 83.5 104.732 81.0455C106.561 78.5795 107.851 75.0795 108.601 70.5455C109.101 67.5227 109.203 64.9489 108.908 62.8239C108.612 60.6989 107.953 59.0795 106.93 57.9659C105.908 56.8523 104.555 56.2955 102.874 56.2955C100.351 56.2955 98.1805 57.5398 96.3623 60.0284C94.5441 62.5057 93.26 66.0114 92.51 70.5455C92.01 73.5682 91.9021 76.1364 92.1861 78.25C92.4702 80.3636 93.118 81.9716 94.1293 83.0739C95.1407 84.1761 96.4873 84.7273 98.1691 84.7273Z" fill="white"/>
</g>
<defs>
<clipPath id="clip0_4417_13724">
<rect width="128" height="128" fill="white"/>
</clipPath>
</defs>
</svg>
