<svg width="128" height="128" viewBox="0 0 128 128" fill="none" xmlns="http://www.w3.org/2000/svg">
<g clip-path="url(#clip0_4417_13756)">
<circle cx="64" cy="64" r="64" fill="#060112"/>
<path d="M20.9836 88L21.7336 83.7813L40.3898 66.4375C42.5773 64.4062 44.3977 62.6328 45.8508 61.1172C47.3195 59.6016 48.4602 58.1797 49.2727 56.8516C50.1008 55.5234 50.6398 54.125 50.8898 52.6562C51.1711 50.9688 51.0227 49.5078 50.4445 48.2734C49.8664 47.0391 48.9523 46.0859 47.7023 45.4141C46.4523 44.7422 44.9523 44.4062 43.2023 44.4062C41.3586 44.4062 39.6789 44.7891 38.1633 45.5547C36.6477 46.3047 35.3898 47.3672 34.3898 48.7422C33.3898 50.1016 32.7336 51.6875 32.4211 53.5H26.8898C27.3586 50.6875 28.4289 48.2187 30.1008 46.0937C31.7883 43.9687 33.8586 42.3125 36.3117 41.125C38.7805 39.9375 41.4211 39.3437 44.2336 39.3437C47.0461 39.3437 49.4289 39.9375 51.382 41.125C53.3352 42.3125 54.7492 43.9141 55.6242 45.9297C56.4992 47.9453 56.7336 50.1875 56.3273 52.6562C56.0148 54.4375 55.3977 56.1641 54.4758 57.8359C53.5539 59.5078 52.1398 61.375 50.2336 63.4375C48.343 65.4844 45.7805 67.9844 42.5461 70.9375L29.8898 82.4687L29.7961 82.8438H52.1086L51.2648 88H20.9836ZM68.587 88.6562C65.0558 88.6562 62.212 87.6953 60.0558 85.7734C57.8995 83.8359 56.4777 81.0312 55.7902 77.3594C55.1027 73.6719 55.1808 69.2187 56.0245 64C56.8683 58.8125 58.2511 54.3828 60.173 50.7109C62.0948 47.0234 64.462 44.2109 67.2745 42.2734C70.087 40.3203 73.2433 39.3437 76.7433 39.3437C80.2433 39.3437 83.0792 40.3203 85.2511 42.2734C87.4386 44.2266 88.8917 47.0391 89.6105 50.7109C90.3448 54.3828 90.2745 58.8125 89.3995 64C88.5245 69.2187 87.1261 73.6641 85.2042 77.3359C83.2823 81.0078 80.9152 83.8125 78.1027 85.75C75.2902 87.6875 72.1183 88.6562 68.587 88.6562ZM69.4308 83.5C72.9464 83.5 75.9542 81.8125 78.4542 78.4375C80.9698 75.0469 82.7433 70.2344 83.7745 64C84.462 59.8437 84.6027 56.3047 84.1964 53.3828C83.7902 50.4609 82.8839 48.2344 81.4777 46.7031C80.0714 45.1719 78.212 44.4062 75.8995 44.4062C72.4308 44.4062 69.4464 46.1172 66.9464 49.5391C64.4464 52.9453 62.6808 57.7656 61.6495 64C60.962 68.1562 60.8136 71.6875 61.2042 74.5938C61.5948 77.5 62.4855 79.7109 63.8761 81.2266C65.2667 82.7422 67.1183 83.5 69.4308 83.5ZM89.2949 88.2727C88.4312 88.2727 87.7097 87.9773 87.1301 87.3864C86.5506 86.7841 86.2494 86.0568 86.2267 85.2045C86.2153 84.3523 86.5165 83.642 87.1301 83.0739C87.7437 82.4943 88.4653 82.2045 89.2949 82.2045C90.1358 82.2045 90.8631 82.5 91.4767 83.0909C92.0903 83.6818 92.3858 84.3864 92.3631 85.2045C92.3517 85.7727 92.204 86.2898 91.9199 86.7557C91.6472 87.2216 91.2778 87.5909 90.8119 87.8636C90.3574 88.1364 89.8517 88.2727 89.2949 88.2727ZM107.173 53.0909L101.377 88H97.1499L102.195 57.5227H101.991L92.5136 63.1818L93.2636 58.8864L102.945 53.0909H107.173Z" fill="white"/>
</g>
<defs>
<clipPath id="clip0_4417_13756">
<rect width="128" height="128" fill="white"/>
</clipPath>
</defs>
</svg>
