<svg width="128" height="128" viewBox="0 0 128 128" fill="none" xmlns="http://www.w3.org/2000/svg">
<g clip-path="url(#clip0_4417_14988)">
<path d="M128 64C128 99.3462 99.3462 128 64 128C28.6538 128 0 99.3462 0 64C0 28.6538 28.6538 0 64 0C99.3462 0 128 28.6538 128 64Z" fill="#0A0221"/>
<path d="M87.3154 87L87.8609 83.9318L101.429 71.3182C103.02 69.8409 104.344 68.5511 105.401 67.4489C106.469 66.3466 107.298 65.3125 107.889 64.3466C108.492 63.3807 108.884 62.3636 109.065 61.2955C109.27 60.0682 109.162 59.0057 108.742 58.108C108.321 57.2102 107.656 56.5171 106.747 56.0284C105.838 55.5398 104.747 55.2955 103.475 55.2955C102.134 55.2955 100.912 55.5739 99.8098 56.1307C98.7075 56.6761 97.7927 57.4489 97.0654 58.4489C96.3382 59.4375 95.8609 60.5909 95.6336 61.9091H91.6109C91.9518 59.8636 92.7302 58.0682 93.9461 56.5227C95.1734 54.9773 96.6791 53.7727 98.4632 52.9091C100.259 52.0455 102.179 51.6136 104.225 51.6136C106.27 51.6136 108.003 52.0455 109.423 52.9091C110.844 53.7727 111.872 54.9375 112.509 56.4034C113.145 57.8693 113.315 59.5 113.02 61.2955C112.793 62.5909 112.344 63.8466 111.673 65.0625C111.003 66.2784 109.975 67.6364 108.588 69.1364C107.213 70.625 105.35 72.4432 102.997 74.5909L93.7927 82.9773L93.7245 83.25H109.952L109.338 87H87.3154Z" fill="white"/>
<path d="M83.3339 87.2727C82.4703 87.2727 81.7487 86.9773 81.1692 86.3863C80.5896 85.7841 80.2885 85.0568 80.2658 84.2045C80.2544 83.3523 80.5555 82.642 81.1692 82.0738C81.7828 81.4943 82.5044 81.2045 83.3339 81.2045C84.1748 81.2045 84.9021 81.5 85.5158 82.0909C86.1294 82.6818 86.4248 83.3863 86.4021 84.2045C86.3907 84.7727 86.243 85.2898 85.9589 85.7557C85.6862 86.2216 85.3169 86.5909 84.851 86.8636C84.3964 87.1363 83.8907 87.2727 83.3339 87.2727Z" fill="white"/>
<path d="M62.6261 87.6562C59.0948 87.6562 56.2511 86.6953 54.0948 84.7734C51.9386 82.8359 50.5167 80.0312 49.8292 76.3594C49.1417 72.6719 49.2198 68.2188 50.0636 63C50.9073 57.8125 52.2902 53.3828 54.212 49.7109C56.1339 46.0234 58.5011 43.2109 61.3136 41.2734C64.1261 39.3203 67.2823 38.3438 70.7823 38.3438C74.2823 38.3438 77.1183 39.3203 79.2902 41.2734C81.4777 43.2266 82.9308 46.0391 83.6495 49.7109C84.3839 53.3828 84.3136 57.8125 83.4386 63C82.5636 68.2188 81.1652 72.6641 79.2433 76.3359C77.3214 80.0078 74.9542 82.8125 72.1417 84.75C69.3292 86.6875 66.1573 87.6562 62.6261 87.6562ZM63.4698 82.5C66.9855 82.5 69.9933 80.8125 72.4933 77.4375C75.0089 74.0469 76.7824 69.2344 77.8136 63C78.5011 58.8438 78.6417 55.3047 78.2355 52.3828C77.8292 49.4609 76.923 47.2344 75.5167 45.7031C74.1105 44.1719 72.2511 43.4063 69.9386 43.4063C66.4698 43.4063 63.4855 45.1172 60.9855 48.5391C58.4855 51.9453 56.7198 56.7656 55.6886 63C55.0011 67.1563 54.8527 70.6875 55.2433 73.5938C55.6339 76.5 56.5245 78.7109 57.9152 80.2266C59.3058 81.7422 61.1573 82.5 63.4698 82.5Z" fill="white"/>
<path d="M15.0226 87L15.7726 82.7812L34.4289 65.4375C36.6164 63.4062 38.4367 61.6328 39.8898 60.1172C41.3586 58.6016 42.4992 57.1797 43.3117 55.8516C44.1398 54.5234 44.6789 53.125 44.9289 51.6563C45.2101 49.9688 45.0617 48.5078 44.4836 47.2734C43.9055 46.0391 42.9914 45.0859 41.7414 44.4141C40.4914 43.7422 38.9914 43.4063 37.2414 43.4063C35.3976 43.4063 33.718 43.7891 32.2023 44.5547C30.6867 45.3047 29.4289 46.3672 28.4289 47.7422C27.4289 49.1016 26.7726 50.6875 26.4601 52.5H20.9289C21.3976 49.6875 22.468 47.2188 24.1398 45.0938C25.8273 42.9687 27.8976 41.3125 30.3508 40.125C32.8195 38.9375 35.4601 38.3438 38.2726 38.3438C41.0851 38.3438 43.468 38.9375 45.4211 40.125C47.3742 41.3125 48.7883 42.9141 49.6633 44.9297C50.5383 46.9453 50.7726 49.1875 50.3664 51.6563C50.0539 53.4375 49.4367 55.1641 48.5148 56.8359C47.593 58.5078 46.1789 60.375 44.2726 62.4375C42.382 64.4844 39.8195 66.9844 36.5851 69.9375L23.9289 81.4688L23.8351 81.8438H46.1476L45.3039 87H15.0226Z" fill="white"/>
</g>
<defs>
<clipPath id="clip0_4417_14988">
<rect width="128" height="128" fill="white"/>
</clipPath>
</defs>
</svg>
