<svg width="128" height="128" viewBox="0 0 128 128" fill="none" xmlns="http://www.w3.org/2000/svg">
<g clip-path="url(#clip0_4417_13718)">
<circle cx="64" cy="64" r="64" fill="#10032E"/>
<path d="M15.4289 88L16.1789 83.7813L34.8352 66.4375C37.0227 64.4062 38.843 62.6328 40.2961 61.1172C41.7648 59.6016 42.9055 58.1797 43.718 56.8516C44.5461 55.5234 45.0852 54.125 45.3352 52.6562C45.6164 50.9688 45.468 49.5078 44.8898 48.2734C44.3117 47.0391 43.3977 46.0859 42.1477 45.4141C40.8977 44.7422 39.3977 44.4062 37.6477 44.4062C35.8039 44.4062 34.1242 44.7891 32.6086 45.5547C31.093 46.3047 29.8352 47.3672 28.8352 48.7422C27.8352 50.1016 27.1789 51.6875 26.8664 53.5H21.3352C21.8039 50.6875 22.8742 48.2187 24.5461 46.0937C26.2336 43.9687 28.3039 42.3125 30.757 41.125C33.2258 39.9375 35.8664 39.3437 38.6789 39.3437C41.4914 39.3437 43.8742 39.9375 45.8273 41.125C47.7805 42.3125 49.1945 43.9141 50.0695 45.9297C50.9445 47.9453 51.1789 50.1875 50.7727 52.6562C50.4602 54.4375 49.843 56.1641 48.9211 57.8359C47.9992 59.5078 46.5852 61.375 44.6789 63.4375C42.7883 65.4844 40.2258 67.9844 36.9914 70.9375L24.3352 82.4687L24.2414 82.8438H46.5539L45.7102 88H15.4289ZM63.0323 88.6562C59.5011 88.6562 56.6573 87.6953 54.5011 85.7734C52.3448 83.8359 50.923 81.0312 50.2355 77.3594C49.548 73.6719 49.6261 69.2187 50.4698 64C51.3136 58.8125 52.6964 54.3828 54.6183 50.7109C56.5402 47.0234 58.9073 44.2109 61.7198 42.2734C64.5323 40.3203 67.6886 39.3437 71.1886 39.3437C74.6886 39.3437 77.5245 40.3203 79.6964 42.2734C81.8839 44.2266 83.337 47.0391 84.0558 50.7109C84.7902 54.3828 84.7198 58.8125 83.8448 64C82.9698 69.2187 81.5714 73.6641 79.6495 77.3359C77.7277 81.0078 75.3605 83.8125 72.548 85.75C69.7355 87.6875 66.5636 88.6562 63.0323 88.6562ZM63.8761 83.5C67.3917 83.5 70.3995 81.8125 72.8995 78.4375C75.4152 75.0469 77.1886 70.2344 78.2198 64C78.9073 59.8437 79.048 56.3047 78.6417 53.3828C78.2355 50.4609 77.3292 48.2344 75.923 46.7031C74.5167 45.1719 72.6573 44.4062 70.3448 44.4062C66.8761 44.4062 63.8917 46.1172 61.3917 49.5391C58.8917 52.9453 57.1261 57.7656 56.0948 64C55.4073 68.1562 55.2589 71.6875 55.6495 74.5938C56.0402 77.5 56.9308 79.7109 58.3214 81.2266C59.712 82.7422 61.5636 83.5 63.8761 83.5ZM83.7402 88.2727C82.8766 88.2727 82.155 87.9773 81.5754 87.3864C80.9959 86.7841 80.6947 86.0568 80.672 85.2045C80.6606 84.3523 80.9618 83.642 81.5754 83.0739C82.1891 82.4943 82.9106 82.2045 83.7402 82.2045C84.5811 82.2045 85.3084 82.5 85.922 83.0909C86.5356 83.6818 86.8311 84.3864 86.8084 85.2045C86.797 85.7727 86.6493 86.2898 86.3652 86.7557C86.0925 87.2216 85.7231 87.5909 85.2572 87.8636C84.8027 88.1364 84.297 88.2727 83.7402 88.2727ZM98.341 88.4773C96.0683 88.4773 94.0967 88.0966 92.4262 87.3352C90.7671 86.5625 89.5285 85.4886 88.7103 84.1136C87.8921 82.7273 87.6023 81.1136 87.841 79.2727H92.0683C91.966 80.3864 92.1592 81.3523 92.6478 82.1705C93.1478 82.9886 93.8864 83.6193 94.8637 84.0625C95.8523 84.5057 97.0342 84.7273 98.4092 84.7273C99.8751 84.7273 101.25 84.4716 102.534 83.9602C103.83 83.4489 104.915 82.7102 105.79 81.7443C106.665 80.767 107.205 79.6023 107.409 78.25C107.591 77.0341 107.455 75.9545 107 75.0114C106.546 74.0682 105.761 73.3295 104.648 72.7955C103.546 72.25 102.102 71.9773 100.318 71.9773H97.4546L98.0683 68.2273H100.727C102.114 68.2273 103.386 67.9659 104.546 67.4432C105.705 66.9205 106.671 66.1875 107.443 65.2443C108.216 64.2898 108.705 63.1705 108.909 61.8864C109.102 60.7614 109.023 59.7841 108.671 58.9545C108.33 58.1136 107.739 57.4602 106.898 56.9943C106.068 56.5284 105.011 56.2955 103.727 56.2955C102.5 56.2955 101.296 56.517 100.114 56.9602C98.9433 57.392 97.9433 58.0227 97.1137 58.8523C96.2842 59.6705 95.7614 60.6591 95.5455 61.8182H91.4546C91.8069 60 92.5967 58.4034 93.8239 57.0284C95.0512 55.642 96.5455 54.5625 98.3069 53.7898C100.08 53.0057 101.955 52.6136 103.932 52.6136C106.125 52.6136 107.932 53.0682 109.352 53.9773C110.784 54.875 111.807 56.0568 112.421 57.5227C113.034 58.9773 113.205 60.5455 112.932 62.2273C112.625 64.1477 111.835 65.7727 110.563 67.1023C109.29 68.4318 107.739 69.375 105.909 69.9318V70.1364C108.057 70.5114 109.614 71.5 110.58 73.1023C111.557 74.6932 111.864 76.5909 111.5 78.7955C111.182 80.7727 110.415 82.4886 109.199 83.9432C107.983 85.3864 106.443 86.5057 104.58 87.3011C102.716 88.0852 100.636 88.4773 98.341 88.4773Z" fill="white"/>
</g>
<defs>
<clipPath id="clip0_4417_13718">
<rect width="128" height="128" fill="white"/>
</clipPath>
</defs>
</svg>
