<svg width="128" height="128" viewBox="0 0 128 128" fill="none" xmlns="http://www.w3.org/2000/svg">
<g clip-path="url(#clip0_4417_13712)">
<circle cx="64" cy="64" r="64" fill="#190649"/>
<path d="M15.3039 88L16.0539 83.7813L34.7102 66.4375C36.8977 64.4062 38.718 62.6328 40.1711 61.1172C41.6398 59.6016 42.7805 58.1797 43.593 56.8516C44.4211 55.5234 44.9602 54.125 45.2102 52.6562C45.4914 50.9688 45.343 49.5078 44.7648 48.2734C44.1867 47.0391 43.2727 46.0859 42.0227 45.4141C40.7727 44.7422 39.2727 44.4062 37.5227 44.4062C35.6789 44.4062 33.9992 44.7891 32.4836 45.5547C30.968 46.3047 29.7102 47.3672 28.7102 48.7422C27.7102 50.1016 27.0539 51.6875 26.7414 53.5H21.2102C21.6789 50.6875 22.7492 48.2187 24.4211 46.0937C26.1086 43.9687 28.1789 42.3125 30.632 41.125C33.1008 39.9375 35.7414 39.3437 38.5539 39.3437C41.3664 39.3437 43.7492 39.9375 45.7023 41.125C47.6555 42.3125 49.0695 43.9141 49.9445 45.9297C50.8195 47.9453 51.0539 50.1875 50.6477 52.6562C50.3352 54.4375 49.718 56.1641 48.7961 57.8359C47.8742 59.5078 46.4602 61.375 44.5539 63.4375C42.6633 65.4844 40.1008 67.9844 36.8664 70.9375L24.2102 82.4687L24.1164 82.8438H46.4289L45.5852 88H15.3039ZM62.9073 88.6562C59.3761 88.6562 56.5323 87.6953 54.3761 85.7734C52.2198 83.8359 50.798 81.0312 50.1105 77.3594C49.423 73.6719 49.5011 69.2187 50.3448 64C51.1886 58.8125 52.5714 54.3828 54.4933 50.7109C56.4152 47.0234 58.7823 44.2109 61.5948 42.2734C64.4073 40.3203 67.5636 39.3437 71.0636 39.3437C74.5636 39.3437 77.3995 40.3203 79.5714 42.2734C81.7589 44.2266 83.212 47.0391 83.9308 50.7109C84.6652 54.3828 84.5948 58.8125 83.7198 64C82.8448 69.2187 81.4464 73.6641 79.5245 77.3359C77.6027 81.0078 75.2355 83.8125 72.423 85.75C69.6105 87.6875 66.4386 88.6562 62.9073 88.6562ZM63.7511 83.5C67.2667 83.5 70.2745 81.8125 72.7745 78.4375C75.2902 75.0469 77.0636 70.2344 78.0948 64C78.7823 59.8437 78.923 56.3047 78.5167 53.3828C78.1105 50.4609 77.2042 48.2344 75.798 46.7031C74.3917 45.1719 72.5323 44.4062 70.2198 44.4062C66.7511 44.4062 63.7667 46.1172 61.2667 49.5391C58.7667 52.9453 57.0011 57.7656 55.9698 64C55.2823 68.1562 55.1339 71.6875 55.5245 74.5938C55.9152 77.5 56.8058 79.7109 58.1964 81.2266C59.587 82.7422 61.4386 83.5 63.7511 83.5ZM83.6152 88.2727C82.7516 88.2727 82.03 87.9773 81.4504 87.3864C80.8709 86.7841 80.5697 86.0568 80.547 85.2045C80.5356 84.3523 80.8368 83.642 81.4504 83.0739C82.0641 82.4943 82.7856 82.2045 83.6152 82.2045C84.4561 82.2045 85.1834 82.5 85.797 83.0909C86.4106 83.6818 86.7061 84.3864 86.6834 85.2045C86.672 85.7727 86.5243 86.2898 86.2402 86.7557C85.9675 87.2216 85.5981 87.5909 85.1322 87.8636C84.6777 88.1364 84.172 88.2727 83.6152 88.2727ZM97.7344 88.4773C95.7344 88.4773 93.9958 88.0795 92.5185 87.2841C91.0413 86.4886 89.9333 85.3977 89.1947 84.0114C88.456 82.625 88.189 81.0455 88.3935 79.2727H92.4844C92.3822 80.8409 92.8879 82.142 94.0015 83.1761C95.1265 84.2102 96.5754 84.7273 98.3481 84.7273C99.7799 84.7273 101.109 84.392 102.337 83.7216C103.575 83.0511 104.609 82.1307 105.439 80.9602C106.28 79.7898 106.825 78.4545 107.075 76.9545C107.325 75.4318 107.217 74.0682 106.751 72.8636C106.286 71.6591 105.53 70.7102 104.484 70.017C103.439 69.3239 102.166 68.9773 100.666 68.9773C99.6094 68.9773 98.4901 69.1477 97.3083 69.4886C96.1379 69.8182 95.1435 70.2386 94.3254 70.75L90.439 70.2727L95.4163 53.0909H113.553L112.939 56.8409H98.3481L95.4163 67.1364H95.6208C96.439 66.5568 97.4106 66.0852 98.5356 65.7216C99.6719 65.3466 100.837 65.1591 102.03 65.1591C104.166 65.1591 105.984 65.6705 107.484 66.6932C108.996 67.7045 110.081 69.0966 110.74 70.8693C111.411 72.6307 111.553 74.6364 111.166 76.8864C110.803 79.1136 109.979 81.1023 108.695 82.8523C107.422 84.5909 105.831 85.9659 103.922 86.9773C102.024 87.9773 99.9617 88.4773 97.7344 88.4773Z" fill="white"/>
</g>
<defs>
<clipPath id="clip0_4417_13712">
<rect width="128" height="128" fill="white"/>
</clipPath>
</defs>
</svg>
