<svg width="128" height="128" viewBox="0 0 128 128" fill="none" xmlns="http://www.w3.org/2000/svg">
<g clip-path="url(#clip0_4417_13709)">
<circle cx="64" cy="64" r="64" fill="#1D0755"/>
<path d="M15.1867 88L15.9367 83.7813L34.593 66.4375C36.7805 64.4062 38.6008 62.6328 40.0539 61.1172C41.5227 59.6016 42.6633 58.1797 43.4758 56.8516C44.3039 55.5234 44.843 54.125 45.093 52.6562C45.3742 50.9688 45.2258 49.5078 44.6477 48.2734C44.0695 47.0391 43.1555 46.0859 41.9055 45.4141C40.6555 44.7422 39.1555 44.4062 37.4055 44.4062C35.5617 44.4062 33.882 44.7891 32.3664 45.5547C30.8508 46.3047 29.593 47.3672 28.593 48.7422C27.593 50.1016 26.9367 51.6875 26.6242 53.5H21.093C21.5617 50.6875 22.632 48.2187 24.3039 46.0937C25.9914 43.9687 28.0617 42.3125 30.5148 41.125C32.9836 39.9375 35.6242 39.3437 38.4367 39.3437C41.2492 39.3437 43.632 39.9375 45.5852 41.125C47.5383 42.3125 48.9523 43.9141 49.8273 45.9297C50.7023 47.9453 50.9367 50.1875 50.5305 52.6562C50.218 54.4375 49.6008 56.1641 48.6789 57.8359C47.757 59.5078 46.343 61.375 44.4367 63.4375C42.5461 65.4844 39.9836 67.9844 36.7492 70.9375L24.093 82.4687L23.9992 82.8438H46.3117L45.468 88H15.1867ZM62.7902 88.6562C59.2589 88.6562 56.4152 87.6953 54.2589 85.7734C52.1027 83.8359 50.6808 81.0312 49.9933 77.3594C49.3058 73.6719 49.3839 69.2187 50.2277 64C51.0714 58.8125 52.4542 54.3828 54.3761 50.7109C56.298 47.0234 58.6652 44.2109 61.4777 42.2734C64.2902 40.3203 67.4464 39.3437 70.9464 39.3437C74.4464 39.3437 77.2823 40.3203 79.4542 42.2734C81.6417 44.2266 83.0948 47.0391 83.8136 50.7109C84.548 54.3828 84.4777 58.8125 83.6027 64C82.7277 69.2187 81.3292 73.6641 79.4073 77.3359C77.4855 81.0078 75.1183 83.8125 72.3058 85.75C69.4933 87.6875 66.3214 88.6562 62.7902 88.6562ZM63.6339 83.5C67.1495 83.5 70.1573 81.8125 72.6573 78.4375C75.173 75.0469 76.9464 70.2344 77.9777 64C78.6652 59.8437 78.8058 56.3047 78.3995 53.3828C77.9933 50.4609 77.087 48.2344 75.6808 46.7031C74.2745 45.1719 72.4152 44.4062 70.1027 44.4062C66.6339 44.4062 63.6495 46.1172 61.1495 49.5391C58.6495 52.9453 56.8839 57.7656 55.8527 64C55.1652 68.1562 55.0167 71.6875 55.4073 74.5938C55.798 77.5 56.6886 79.7109 58.0792 81.2266C59.4698 82.7422 61.3214 83.5 63.6339 83.5ZM83.498 88.2727C82.6344 88.2727 81.9128 87.9773 81.3332 87.3864C80.7537 86.7841 80.4525 86.0568 80.4298 85.2045C80.4185 84.3523 80.7196 83.642 81.3332 83.0739C81.9469 82.4943 82.6685 82.2045 83.498 82.2045C84.3389 82.2045 85.0662 82.5 85.6798 83.0909C86.2935 83.6818 86.5889 84.3864 86.5662 85.2045C86.5548 85.7727 86.4071 86.2898 86.123 86.7557C85.8503 87.2216 85.481 87.5909 85.015 87.8636C84.5605 88.1364 84.0548 88.2727 83.498 88.2727ZM98.0562 88.4773C96.5903 88.4659 95.1698 88.1875 93.7948 87.642C92.4198 87.0966 91.2323 86.1932 90.2323 84.9318C89.2323 83.6591 88.5448 81.9375 88.1698 79.767C87.8062 77.5966 87.8971 74.8864 88.4425 71.6364C88.9539 68.5795 89.6869 65.875 90.6414 63.5227C91.6073 61.1591 92.7607 59.1705 94.1016 57.5568C95.4425 55.9318 96.9482 54.7045 98.6187 53.875C100.3 53.0341 102.113 52.6136 104.056 52.6136C105.988 52.6136 107.664 53.0057 109.085 53.7898C110.516 54.5625 111.619 55.642 112.391 57.0284C113.175 58.4034 113.556 60 113.533 61.8182H109.511C109.454 60.2273 108.971 58.9205 108.062 57.8977C107.164 56.875 105.783 56.3636 103.92 56.3636C101.215 56.3636 98.8516 57.517 96.8289 59.8239C94.8062 62.1307 93.4198 65.5 92.6698 69.9318L92.9425 69.6591C93.738 68.7045 94.6187 67.892 95.5846 67.2216C96.5505 66.5511 97.5789 66.0398 98.6698 65.6875C99.7721 65.3352 100.908 65.1591 102.079 65.1591C104.124 65.1591 105.914 65.6705 107.448 66.6932C108.982 67.7159 110.113 69.1193 110.84 70.9034C111.568 72.6875 111.738 74.7273 111.352 77.0227C110.988 79.1364 110.193 81.0682 108.965 82.8182C107.749 84.5568 106.204 85.9432 104.329 86.9773C102.465 88 100.374 88.5 98.0562 88.4773ZM98.1925 84.7273C99.6471 84.7273 101.022 84.358 102.318 83.6193C103.613 82.8807 104.71 81.8864 105.607 80.6364C106.505 79.3864 107.079 78 107.329 76.4773C107.556 75.0909 107.454 73.8239 107.022 72.6761C106.59 71.5284 105.891 70.6136 104.925 69.9318C103.96 69.25 102.783 68.9091 101.397 68.9091C100.295 68.9091 99.2209 69.1307 98.1755 69.5739C97.1414 70.017 96.1982 70.625 95.3459 71.3977C94.505 72.1591 93.8005 73.0284 93.2323 74.0057C92.6641 74.983 92.2948 76.0114 92.1244 77.0909C91.8971 78.4318 91.9994 79.6818 92.4312 80.8409C92.863 82 93.5732 82.9375 94.5619 83.6534C95.5505 84.3693 96.7607 84.7273 98.1925 84.7273Z" fill="white"/>
</g>
<defs>
<clipPath id="clip0_4417_13709">
<rect width="128" height="128" fill="white"/>
</clipPath>
</defs>
</svg>
