<svg width="128" height="128" viewBox="0 0 128 128" fill="none" xmlns="http://www.w3.org/2000/svg">
<g clip-path="url(#clip0_4417_13706)">
<circle cx="64" cy="64" r="64" fill="#220863"/>
<path d="M16.1945 88L16.9445 83.7813L35.6008 66.4375C37.7883 64.4062 39.6086 62.6328 41.0617 61.1172C42.5305 59.6016 43.6711 58.1797 44.4836 56.8516C45.3117 55.5234 45.8508 54.125 46.1008 52.6562C46.382 50.9688 46.2336 49.5078 45.6555 48.2734C45.0773 47.0391 44.1633 46.0859 42.9133 45.4141C41.6633 44.7422 40.1633 44.4062 38.4133 44.4062C36.5695 44.4062 34.8898 44.7891 33.3742 45.5547C31.8586 46.3047 30.6008 47.3672 29.6008 48.7422C28.6008 50.1016 27.9445 51.6875 27.632 53.5H22.1008C22.5695 50.6875 23.6398 48.2187 25.3117 46.0937C26.9992 43.9687 29.0695 42.3125 31.5227 41.125C33.9914 39.9375 36.632 39.3437 39.4445 39.3437C42.257 39.3437 44.6398 39.9375 46.593 41.125C48.5461 42.3125 49.9602 43.9141 50.8352 45.9297C51.7102 47.9453 51.9445 50.1875 51.5383 52.6562C51.2258 54.4375 50.6086 56.1641 49.6867 57.8359C48.7648 59.5078 47.3508 61.375 45.4445 63.4375C43.5539 65.4844 40.9914 67.9844 37.757 70.9375L25.1008 82.4687L25.007 82.8438H47.3195L46.4758 88H16.1945ZM63.798 88.6562C60.2667 88.6562 57.423 87.6953 55.2667 85.7734C53.1105 83.8359 51.6886 81.0312 51.0011 77.3594C50.3136 73.6719 50.3917 69.2187 51.2355 64C52.0792 58.8125 53.462 54.3828 55.3839 50.7109C57.3058 47.0234 59.673 44.2109 62.4855 42.2734C65.298 40.3203 68.4542 39.3437 71.9542 39.3437C75.4542 39.3437 78.2902 40.3203 80.462 42.2734C82.6495 44.2266 84.1027 47.0391 84.8214 50.7109C85.5558 54.3828 85.4855 58.8125 84.6105 64C83.7355 69.2187 82.337 73.6641 80.4152 77.3359C78.4933 81.0078 76.1261 83.8125 73.3136 85.75C70.5011 87.6875 67.3292 88.6562 63.798 88.6562ZM64.6417 83.5C68.1573 83.5 71.1652 81.8125 73.6652 78.4375C76.1808 75.0469 77.9542 70.2344 78.9855 64C79.673 59.8437 79.8136 56.3047 79.4073 53.3828C79.0011 50.4609 78.0948 48.2344 76.6886 46.7031C75.2823 45.1719 73.423 44.4062 71.1105 44.4062C67.6417 44.4062 64.6573 46.1172 62.1573 49.5391C59.6573 52.9453 57.8917 57.7656 56.8605 64C56.173 68.1562 56.0245 71.6875 56.4152 74.5938C56.8058 77.5 57.6964 79.7109 59.087 81.2266C60.4777 82.7422 62.3292 83.5 64.6417 83.5ZM84.5058 88.2727C83.6422 88.2727 82.9206 87.9773 82.341 87.3864C81.7615 86.7841 81.4604 86.0568 81.4376 85.2045C81.4263 84.3523 81.7274 83.642 82.341 83.0739C82.9547 82.4943 83.6763 82.2045 84.5058 82.2045C85.3467 82.2045 86.074 82.5 86.6876 83.0909C87.3013 83.6818 87.5967 84.3864 87.574 85.2045C87.5626 85.7727 87.4149 86.2898 87.1308 86.7557C86.8581 87.2216 86.4888 87.5909 86.0229 87.8636C85.5683 88.1364 85.0626 88.2727 84.5058 88.2727ZM88.8751 88L109.602 57.1136L109.671 56.8409H91.6705L92.2842 53.0909H114.648L113.966 57.0455L93.3069 88H88.8751Z" fill="white"/>
</g>
<defs>
<clipPath id="clip0_4417_13706">
<rect width="128" height="128" fill="white"/>
</clipPath>
</defs>
</svg>
