<svg width="128" height="128" viewBox="0 0 128 128" fill="none" xmlns="http://www.w3.org/2000/svg">
<g clip-path="url(#clip0_4417_13703)">
<circle cx="64" cy="64" r="64" fill="#260970"/>
<path d="M15.3039 88L16.0539 83.7813L34.7102 66.4375C36.8977 64.4062 38.718 62.6328 40.1711 61.1172C41.6398 59.6016 42.7805 58.1797 43.593 56.8516C44.4211 55.5234 44.9602 54.125 45.2102 52.6562C45.4914 50.9688 45.343 49.5078 44.7648 48.2734C44.1867 47.0391 43.2727 46.0859 42.0227 45.4141C40.7727 44.7422 39.2727 44.4062 37.5227 44.4062C35.6789 44.4062 33.9992 44.7891 32.4836 45.5547C30.968 46.3047 29.7102 47.3672 28.7102 48.7422C27.7102 50.1016 27.0539 51.6875 26.7414 53.5H21.2102C21.6789 50.6875 22.7492 48.2187 24.4211 46.0937C26.1086 43.9687 28.1789 42.3125 30.632 41.125C33.1008 39.9375 35.7414 39.3437 38.5539 39.3437C41.3664 39.3437 43.7492 39.9375 45.7023 41.125C47.6555 42.3125 49.0695 43.9141 49.9445 45.9297C50.8195 47.9453 51.0539 50.1875 50.6477 52.6562C50.3352 54.4375 49.718 56.1641 48.7961 57.8359C47.8742 59.5078 46.4602 61.375 44.5539 63.4375C42.6633 65.4844 40.1008 67.9844 36.8664 70.9375L24.2102 82.4687L24.1164 82.8438H46.4289L45.5852 88H15.3039ZM62.9073 88.6562C59.3761 88.6562 56.5323 87.6953 54.3761 85.7734C52.2198 83.8359 50.798 81.0312 50.1105 77.3594C49.423 73.6719 49.5011 69.2187 50.3448 64C51.1886 58.8125 52.5714 54.3828 54.4933 50.7109C56.4152 47.0234 58.7823 44.2109 61.5948 42.2734C64.4073 40.3203 67.5636 39.3437 71.0636 39.3437C74.5636 39.3437 77.3995 40.3203 79.5714 42.2734C81.7589 44.2266 83.212 47.0391 83.9308 50.7109C84.6652 54.3828 84.5948 58.8125 83.7198 64C82.8448 69.2187 81.4464 73.6641 79.5245 77.3359C77.6027 81.0078 75.2355 83.8125 72.423 85.75C69.6105 87.6875 66.4386 88.6562 62.9073 88.6562ZM63.7511 83.5C67.2667 83.5 70.2745 81.8125 72.7745 78.4375C75.2902 75.0469 77.0636 70.2344 78.0948 64C78.7823 59.8437 78.923 56.3047 78.5167 53.3828C78.1105 50.4609 77.2042 48.2344 75.798 46.7031C74.3917 45.1719 72.5323 44.4062 70.2198 44.4062C66.7511 44.4062 63.7667 46.1172 61.2667 49.5391C58.7667 52.9453 57.0011 57.7656 55.9698 64C55.2823 68.1562 55.1339 71.6875 55.5245 74.5938C55.9152 77.5 56.8058 79.7109 58.1964 81.2266C59.587 82.7422 61.4386 83.5 63.7511 83.5ZM83.6152 88.2727C82.7516 88.2727 82.03 87.9773 81.4504 87.3864C80.8709 86.7841 80.5697 86.0568 80.547 85.2045C80.5356 84.3523 80.8368 83.642 81.4504 83.0739C82.0641 82.4943 82.7856 82.2045 83.6152 82.2045C84.4561 82.2045 85.1834 82.5 85.797 83.0909C86.4106 83.6818 86.7061 84.3864 86.6834 85.2045C86.672 85.7727 86.5243 86.2898 86.2402 86.7557C85.9675 87.2216 85.5981 87.5909 85.1322 87.8636C84.6777 88.1364 84.172 88.2727 83.6152 88.2727ZM97.9049 88.4773C95.5185 88.4773 93.4788 88.0398 91.7856 87.1648C90.1038 86.2784 88.8708 85.0795 88.0867 83.5682C87.314 82.0568 87.0867 80.3523 87.4049 78.4545C87.6435 77.0227 88.1549 75.6989 88.939 74.483C89.7231 73.267 90.6776 72.25 91.8026 71.4318C92.939 70.6136 94.1549 70.0909 95.4504 69.8636V69.7273C93.8481 69.2841 92.6947 68.3011 91.9901 66.7784C91.2969 65.2443 91.1322 63.5227 91.4958 61.6136C91.8367 59.8523 92.5583 58.2955 93.6606 56.9432C94.7629 55.5909 96.1435 54.5341 97.8026 53.7727C99.4617 53 101.291 52.6136 103.291 52.6136C105.359 52.6136 107.144 53.0341 108.644 53.875C110.144 54.7045 111.246 55.8409 111.95 57.2841C112.666 58.7159 112.871 60.3409 112.564 62.1591C112.234 64.1023 111.422 65.75 110.126 67.1023C108.831 68.4432 107.348 69.3182 105.678 69.7273V69.8636C106.905 70.1136 107.967 70.6761 108.865 71.5511C109.774 72.4261 110.433 73.5114 110.842 74.8068C111.251 76.0909 111.325 77.4886 111.064 79C110.757 80.8523 109.99 82.4943 108.763 83.9261C107.536 85.3466 105.984 86.4602 104.109 87.267C102.246 88.0739 100.178 88.4773 97.9049 88.4773ZM98.0413 84.7273C99.689 84.7273 101.149 84.4602 102.422 83.9261C103.695 83.3807 104.729 82.625 105.524 81.6591C106.331 80.6818 106.837 79.5455 107.041 78.25C107.246 76.9545 107.104 75.8239 106.615 74.858C106.126 73.8807 105.365 73.125 104.331 72.5909C103.297 72.0455 102.064 71.7727 100.632 71.7727C99.1094 71.7727 97.7004 72.0739 96.4049 72.6761C95.1094 73.2784 94.0299 74.108 93.1663 75.1648C92.314 76.2216 91.7799 77.4318 91.564 78.7955C91.3708 80.0114 91.5015 81.0682 91.956 81.9659C92.4106 82.8523 93.1549 83.5341 94.189 84.0114C95.2231 84.4886 96.5072 84.7273 98.0413 84.7273ZM100.769 68.1591C102.098 68.1591 103.308 67.892 104.399 67.358C105.501 66.8239 106.411 66.0852 107.126 65.142C107.854 64.1989 108.325 63.1136 108.541 61.8864C108.757 60.7045 108.672 59.6989 108.286 58.8693C107.911 58.0284 107.291 57.392 106.428 56.9602C105.564 56.517 104.496 56.2955 103.223 56.2955C101.848 56.2955 100.609 56.5511 99.5072 57.0625C98.4163 57.5739 97.5185 58.2898 96.814 59.2102C96.1094 60.1307 95.6549 61.2045 95.4504 62.4318C95.2572 63.625 95.3594 64.6534 95.7572 65.517C96.1549 66.3693 96.7856 67.0227 97.6492 67.4773C98.5242 67.9318 99.564 68.1591 100.769 68.1591Z" fill="white"/>
</g>
<defs>
<clipPath id="clip0_4417_13703">
<rect width="128" height="128" fill="white"/>
</clipPath>
</defs>
</svg>
