<svg width="128" height="128" viewBox="0 0 128 128" fill="none" xmlns="http://www.w3.org/2000/svg">
<g clip-path="url(#clip0_4417_13700)">
<circle cx="64" cy="64" r="64" fill="#2A0B7C"/>
<path d="M15.2414 88L15.9914 83.7813L34.6477 66.4375C36.8352 64.4062 38.6555 62.6328 40.1086 61.1172C41.5773 59.6016 42.718 58.1797 43.5305 56.8516C44.3586 55.5234 44.8977 54.125 45.1477 52.6562C45.4289 50.9688 45.2805 49.5078 44.7023 48.2734C44.1242 47.0391 43.2102 46.0859 41.9602 45.4141C40.7102 44.7422 39.2102 44.4062 37.4602 44.4062C35.6164 44.4062 33.9367 44.7891 32.4211 45.5547C30.9055 46.3047 29.6477 47.3672 28.6477 48.7422C27.6477 50.1016 26.9914 51.6875 26.6789 53.5H21.1477C21.6164 50.6875 22.6867 48.2187 24.3586 46.0937C26.0461 43.9687 28.1164 42.3125 30.5695 41.125C33.0383 39.9375 35.6789 39.3437 38.4914 39.3437C41.3039 39.3437 43.6867 39.9375 45.6398 41.125C47.593 42.3125 49.007 43.9141 49.882 45.9297C50.757 47.9453 50.9914 50.1875 50.5852 52.6562C50.2727 54.4375 49.6555 56.1641 48.7336 57.8359C47.8117 59.5078 46.3977 61.375 44.4914 63.4375C42.6008 65.4844 40.0383 67.9844 36.8039 70.9375L24.1477 82.4687L24.0539 82.8438H46.3664L45.5227 88H15.2414ZM62.8448 88.6562C59.3136 88.6562 56.4698 87.6953 54.3136 85.7734C52.1573 83.8359 50.7355 81.0312 50.048 77.3594C49.3605 73.6719 49.4386 69.2187 50.2823 64C51.1261 58.8125 52.5089 54.3828 54.4308 50.7109C56.3527 47.0234 58.7198 44.2109 61.5323 42.2734C64.3448 40.3203 67.5011 39.3437 71.0011 39.3437C74.5011 39.3437 77.337 40.3203 79.5089 42.2734C81.6964 44.2266 83.1495 47.0391 83.8683 50.7109C84.6027 54.3828 84.5323 58.8125 83.6573 64C82.7823 69.2187 81.3839 73.6641 79.462 77.3359C77.5402 81.0078 75.173 83.8125 72.3605 85.75C69.548 87.6875 66.3761 88.6562 62.8448 88.6562ZM63.6886 83.5C67.2042 83.5 70.212 81.8125 72.712 78.4375C75.2277 75.0469 77.0011 70.2344 78.0323 64C78.7198 59.8437 78.8605 56.3047 78.4542 53.3828C78.048 50.4609 77.1417 48.2344 75.7355 46.7031C74.3292 45.1719 72.4698 44.4062 70.1573 44.4062C66.6886 44.4062 63.7042 46.1172 61.2042 49.5391C58.7042 52.9453 56.9386 57.7656 55.9073 64C55.2198 68.1562 55.0714 71.6875 55.462 74.5938C55.8527 77.5 56.7433 79.7109 58.1339 81.2266C59.5245 82.7422 61.3761 83.5 63.6886 83.5ZM83.5527 88.2727C82.6891 88.2727 81.9675 87.9773 81.3879 87.3864C80.8084 86.7841 80.5072 86.0568 80.4845 85.2045C80.4731 84.3523 80.7743 83.642 81.3879 83.0739C82.0016 82.4943 82.7231 82.2045 83.5527 82.2045C84.3936 82.2045 85.1209 82.5 85.7345 83.0909C86.3481 83.6818 86.6436 84.3864 86.6209 85.2045C86.6095 85.7727 86.4618 86.2898 86.1777 86.7557C85.905 87.2216 85.5356 87.5909 85.0697 87.8636C84.6152 88.1364 84.1095 88.2727 83.5527 88.2727ZM103.979 52.6136C105.445 52.625 106.865 52.9034 108.24 53.4489C109.615 53.983 110.803 54.8807 111.803 56.142C112.803 57.4034 113.484 59.1136 113.848 61.2727C114.223 63.4205 114.138 66.125 113.592 69.3864C113.081 72.4545 112.342 75.1761 111.376 77.5511C110.422 79.9148 109.274 81.9091 107.933 83.5341C106.592 85.1591 105.081 86.392 103.399 87.233C101.729 88.0625 99.9219 88.4773 97.9788 88.4773C96.0469 88.4773 94.3651 88.0909 92.9333 87.3182C91.5129 86.5341 90.4106 85.4489 89.6265 84.0625C88.8538 82.6648 88.4788 81.0455 88.5015 79.2045H92.5242C92.5924 80.8409 93.0697 82.1705 93.956 83.1932C94.8538 84.2159 96.2401 84.7273 98.1151 84.7273C100.808 84.7273 103.166 83.5739 105.189 81.267C107.223 78.9489 108.615 75.5568 109.365 71.0909L109.092 71.3636C108.297 72.3182 107.416 73.1307 106.45 73.8011C105.484 74.4716 104.456 74.983 103.365 75.3352C102.274 75.6875 101.138 75.8636 99.956 75.8636C97.9106 75.8636 96.1208 75.3523 94.5867 74.3295C93.0526 73.3068 91.9219 71.9034 91.1947 70.1193C90.4674 68.3352 90.2969 66.2955 90.6833 64C91.0469 61.8864 91.8367 59.9659 93.0526 58.2386C94.2799 56.5 95.8254 55.1193 97.689 54.0966C99.564 53.0739 101.661 52.5795 103.979 52.6136ZM103.842 56.3636C102.388 56.3636 101.013 56.7273 99.7174 57.4545C98.4219 58.1818 97.3254 59.1648 96.4276 60.4034C95.5299 61.642 94.956 63.0227 94.706 64.5455C94.4788 65.9318 94.581 67.1989 95.0129 68.3466C95.4447 69.4943 96.1435 70.4091 97.1094 71.0909C98.0754 71.7727 99.2515 72.1136 100.638 72.1136C101.751 72.1136 102.825 71.892 103.859 71.4489C104.894 71.0057 105.831 70.4034 106.672 69.642C107.524 68.8693 108.234 67.9943 108.803 67.017C109.371 66.0284 109.74 65 109.911 63.9318C110.138 62.5909 110.036 61.3466 109.604 60.1989C109.172 59.0511 108.462 58.125 107.473 57.4205C106.484 56.7159 105.274 56.3636 103.842 56.3636Z" fill="white"/>
</g>
<defs>
<clipPath id="clip0_4417_13700">
<rect width="128" height="128" fill="white"/>
</clipPath>
</defs>
</svg>
