<svg width="128" height="128" viewBox="0 0 128 128" fill="none" xmlns="http://www.w3.org/2000/svg">
<g clip-path="url(#clip0_4417_14373)">
<circle cx="64" cy="64" r="64" fill="#010005"/>
<path d="M20.9168 94L21.8486 88.7585L45.0276 67.2102C47.7454 64.6866 50.007 62.4832 51.8124 60.6001C53.6372 58.7171 55.0544 56.9505 56.0638 55.3004C57.0927 53.6503 57.7624 51.9129 58.0731 50.0881C58.4225 47.9915 58.2381 46.1764 57.5198 44.6428C56.8015 43.1091 55.6659 41.925 54.1128 41.0902C52.5598 40.2554 50.6962 39.8381 48.5219 39.8381C46.2312 39.8381 44.1443 40.3137 42.2613 41.2649C40.3782 42.1967 38.8155 43.5168 37.5731 45.2251C36.3306 46.9141 35.5153 48.8845 35.127 51.1364H28.2549C28.8373 47.642 30.167 44.5748 32.2442 41.9347C34.3408 39.2945 36.913 37.2367 39.9608 35.7614C43.0281 34.286 46.3088 33.5483 49.8032 33.5483C53.2975 33.5483 56.2579 34.286 58.6846 35.7614C61.1112 37.2367 62.868 39.2266 63.9552 41.7308C65.0423 44.2351 65.3335 47.0208 64.8287 50.0881C64.4405 52.3011 63.6737 54.4463 62.5283 56.5234C61.3829 58.6006 59.6261 60.9205 57.2577 63.483C54.9088 66.026 51.725 69.1321 47.7066 72.8011L31.9821 87.1278L31.8657 87.5938H59.5873L58.539 94H20.9168ZM80.0605 94.8153C75.6732 94.8153 72.14 93.6214 69.461 91.2337C66.7821 88.8265 65.0155 85.3419 64.1613 80.7798C63.3072 76.1984 63.4042 70.6657 64.4525 64.1818C65.5008 57.7367 67.2188 52.2332 69.6066 47.6712C71.9944 43.0897 74.9355 39.5954 78.4298 37.1882C81.9241 34.7616 85.8455 33.5483 90.194 33.5483C94.5425 33.5483 98.0659 34.7616 100.764 37.1882C103.482 39.6148 105.288 43.1091 106.18 47.6712C107.093 52.2332 107.006 57.7367 105.918 64.1818C104.831 70.6657 103.094 76.1887 100.706 80.7507C98.3183 85.3127 95.3772 88.7973 91.8829 91.2045C88.3886 93.6117 84.4478 94.8153 80.0605 94.8153ZM81.1088 88.4091C85.4767 88.4091 89.2136 86.3125 92.3197 82.1193C95.4452 77.9067 97.6485 71.9276 98.9298 64.1818C99.784 59.018 99.9587 54.621 99.4539 50.9908C98.9492 47.3606 97.8233 44.5942 96.0761 42.6918C94.3289 40.7893 92.0188 39.8381 89.1457 39.8381C84.836 39.8381 81.1282 41.9638 78.0221 46.2152C74.9161 50.4472 72.7224 56.4361 71.4411 64.1818C70.587 69.3456 70.4026 73.733 70.8879 77.3438C71.3732 80.9545 72.4797 83.7015 74.2075 85.5845C75.9352 87.4676 78.2357 88.4091 81.1088 88.4091Z" fill="white"/>
</g>
<defs>
<clipPath id="clip0_4417_14373">
<rect width="128" height="128" fill="white"/>
</clipPath>
</defs>
</svg>
