<svg width="128" height="128" viewBox="0 0 128 128" fill="none" xmlns="http://www.w3.org/2000/svg">
<g clip-path="url(#clip0_4417_15017)">
<path d="M128 64C128 99.3462 99.3462 128 64 128C28.6538 128 0 99.3462 0 64C0 28.6538 28.6538 0 64 0C99.3462 0 128 28.6538 128 64Z" fill="#010005"/>
<path d="M80.0608 94.8153C75.6735 94.8153 72.1404 93.6214 69.4614 91.2337C66.7824 88.8265 65.0158 85.3418 64.1617 80.7798C63.3075 76.1984 63.4046 70.6657 64.4529 64.1818C65.5012 57.7367 67.2192 52.2332 69.607 47.6711C71.9948 43.0897 74.9358 39.5954 78.4301 37.1882C81.9245 34.7616 85.8459 33.5483 90.1944 33.5483C94.5428 33.5483 98.0663 34.7616 100.765 37.1882C103.482 39.6148 105.288 43.1091 106.181 47.6711C107.093 52.2332 107.006 57.7367 105.919 64.1818C104.832 70.6657 103.094 76.1887 100.706 80.7507C98.3186 85.3127 95.3776 88.7973 91.8833 91.2045C88.389 93.6117 84.4481 94.8153 80.0608 94.8153ZM81.1091 88.4091C85.477 88.4091 89.214 86.3125 92.3201 82.1193C95.4455 77.9067 97.6489 71.9275 98.9301 64.1818C99.7843 59.018 99.959 54.621 99.4543 50.9907C98.9496 47.3605 97.8236 44.5942 96.0765 42.6917C94.3293 40.7893 92.0192 39.8381 89.1461 39.8381C84.8364 39.8381 81.1285 41.9638 78.0225 46.2152C74.9164 50.4472 72.7228 56.4361 71.4415 64.1818C70.5873 69.3456 70.4029 73.7329 70.8882 77.3437C71.3736 80.9545 72.4801 83.7015 74.2078 85.5845C75.9356 87.4676 78.236 88.4091 81.1091 88.4091Z" fill="white"/>
<path d="M20.917 94L21.8488 88.7585L45.0278 67.2102C47.7456 64.6865 50.0072 62.4832 51.8126 60.6001C53.6374 58.7171 55.0545 56.9505 56.064 55.3004C57.0929 53.6503 57.7626 51.9129 58.0732 50.0881C58.4227 47.9915 58.2383 46.1764 57.52 44.6427C56.8017 43.1091 55.666 41.9249 54.113 41.0902C52.56 40.2554 50.6964 39.8381 48.5221 39.8381C46.2314 39.8381 44.1445 40.3137 42.2615 41.2649C40.3784 42.1967 38.8157 43.5168 37.5732 45.2251C36.3308 46.914 35.5155 48.8845 35.1272 51.1363H28.2551C28.8374 47.642 30.1672 44.5748 32.2444 41.9346C34.341 39.2945 36.9132 37.2367 39.961 35.7613C43.0283 34.286 46.309 33.5483 49.8034 33.5483C53.2977 33.5483 56.2581 34.286 58.6847 35.7613C61.1114 37.2367 62.8682 39.2265 63.9553 41.7308C65.0425 44.2351 65.3337 47.0208 64.8289 50.0881C64.4407 52.3011 63.6739 54.4462 62.5285 56.5234C61.3831 58.6006 59.6263 60.9204 57.2579 63.4829C54.9089 66.026 51.7252 69.1321 47.7068 72.8011L31.9823 87.1278L31.8659 87.5937H59.5875L58.5392 94H20.917Z" fill="white"/>
</g>
<defs>
<clipPath id="clip0_4417_15017">
<rect width="128" height="128" fill="white"/>
</clipPath>
</defs>
</svg>
