<svg width="128" height="128" viewBox="0 0 128 128" fill="none" xmlns="http://www.w3.org/2000/svg">
<g clip-path="url(#clip0_4417_14996)">
<path d="M128 64C128 99.3462 99.3462 128 64 128C28.6538 128 0 99.3462 0 64C0 28.6538 28.6538 0 64 0C99.3462 0 128 28.6538 128 64Z" fill="#2F0C89"/>
<path d="M95.2612 90.4773C92.693 90.4773 90.6249 89.7784 89.0567 88.3807C87.4885 86.9716 86.4544 84.9318 85.9544 82.2614C85.4544 79.5796 85.5112 76.3409 86.1249 72.5455C86.7385 68.7727 87.7442 65.5511 89.1419 62.8807C90.5396 60.1989 92.2612 58.1534 94.3067 56.7443C96.3521 55.3239 98.6476 54.6136 101.193 54.6136C103.738 54.6136 105.801 55.3239 107.381 56.7443C108.971 58.1648 110.028 60.2102 110.551 62.8807C111.085 65.5511 111.034 68.7727 110.398 72.5455C109.761 76.3409 108.744 79.5739 107.346 82.2443C105.949 84.9148 104.227 86.9546 102.182 88.3636C100.136 89.7727 97.8294 90.4773 95.2612 90.4773ZM95.8749 86.7273C98.4317 86.7273 100.619 85.5 102.437 83.0455C104.267 80.5796 105.557 77.0796 106.307 72.5455C106.807 69.5227 106.909 66.9489 106.613 64.8239C106.318 62.6989 105.659 61.0796 104.636 59.9659C103.613 58.8523 102.261 58.2955 100.579 58.2955C98.0567 58.2955 95.8862 59.5398 94.068 62.0284C92.2499 64.5057 90.9658 68.0114 90.2158 72.5455C89.7158 75.5682 89.6078 78.1364 89.8919 80.25C90.176 82.3636 90.8237 83.9716 91.8351 85.0739C92.8465 86.1761 94.193 86.7273 95.8749 86.7273Z" fill="white"/>
<path d="M81.1803 90.2728C80.3167 90.2728 79.5951 89.9773 79.0155 89.3864C78.436 88.7841 78.1349 88.0569 78.1121 87.2046C78.1008 86.3523 78.4019 85.6421 79.0155 85.0739C79.6292 84.4944 80.3508 84.2046 81.1803 84.2046C82.0212 84.2046 82.7485 84.5 83.3621 85.091C83.9758 85.6819 84.2712 86.3864 84.2485 87.2046C84.2371 87.7728 84.0894 88.2898 83.8053 88.7557C83.5326 89.2216 83.1633 89.591 82.6974 89.8637C82.2428 90.1364 81.7371 90.2728 81.1803 90.2728Z" fill="white"/>
<path d="M80.6925 37.6364L71.9993 90H65.6584L73.2266 44.2841H72.9198L58.7039 52.7727L59.8289 46.3295L74.3516 37.6364H80.6925Z" fill="white"/>
<path d="M18.6365 90L19.4547 85.3977L39.8069 66.4773C42.1933 64.2614 44.1791 62.3267 45.7643 60.6733C47.3666 59.0199 48.6109 57.4688 49.4973 56.0199C50.4007 54.571 50.9887 53.0455 51.2615 51.4432C51.5683 49.6023 51.4064 48.0085 50.7757 46.6619C50.145 45.3154 49.1478 44.2756 47.7842 43.5426C46.4206 42.8097 44.7842 42.4432 42.8751 42.4432C40.8637 42.4432 39.0314 42.8608 37.378 43.696C35.7245 44.5142 34.3524 45.6733 33.2615 47.1733C32.1706 48.6563 31.4547 50.3864 31.1137 52.3637H25.0797C25.591 49.2955 26.7586 46.6023 28.5825 44.2841C30.4234 41.9659 32.6819 40.1591 35.3581 38.8637C38.0512 37.5682 40.9319 36.9205 44.0001 36.9205C47.0683 36.9205 49.6677 37.5682 51.7984 38.8637C53.9291 40.1591 55.4717 41.9063 56.4262 44.1051C57.3808 46.304 57.6365 48.75 57.1933 51.4432C56.8524 53.3864 56.1791 55.2699 55.1734 57.0938C54.1677 58.9176 52.6251 60.9546 50.5456 63.2046C48.4831 65.4375 45.6876 68.1648 42.1592 71.3864L28.3524 83.9659L28.2501 84.375H52.591L51.6706 90H18.6365Z" fill="white"/>
</g>
<defs>
<clipPath id="clip0_4417_14996">
<rect width="128" height="128" fill="white"/>
</clipPath>
</defs>
</svg>
