<svg width="128" height="128" viewBox="0 0 128 128" fill="none" xmlns="http://www.w3.org/2000/svg">
<g clip-path="url(#clip0_4417_14380)">
<circle cx="64" cy="64" r="64" fill="#2F0C89"/>
<path d="M27.4832 94L28.415 88.7585L51.594 67.2102C54.3118 64.6866 56.5734 62.4832 58.3788 60.6001C60.2036 58.7171 61.6208 56.9505 62.6302 55.3004C63.6591 53.6503 64.3289 51.9129 64.6395 50.0881C64.9889 47.9915 64.8045 46.1764 64.0862 44.6428C63.3679 43.1091 62.2323 41.925 60.6792 41.0902C59.1262 40.2554 57.2626 39.8381 55.0883 39.8381C52.7976 39.8381 50.7107 40.3137 48.8277 41.2649C46.9446 42.1967 45.3819 43.5168 44.1395 45.2251C42.897 46.9141 42.0817 48.8845 41.6934 51.1364H34.8213C35.4037 47.642 36.7334 44.5748 38.8106 41.9347C40.9072 39.2945 43.4794 37.2367 46.5272 35.7614C49.5945 34.286 52.8753 33.5483 56.3696 33.5483C59.8639 33.5483 62.8244 34.286 65.251 35.7614C67.6776 37.2367 69.4344 39.2266 70.5216 41.7308C71.6087 44.2351 71.8999 47.0208 71.3951 50.0881C71.0069 52.3011 70.2401 54.4463 69.0947 56.5234C67.9494 58.6006 66.1925 60.9205 63.8241 63.483C61.4752 66.026 58.2914 69.1321 54.273 72.8011L38.5485 87.1278L38.4321 87.5938H66.1537L65.1054 94H27.4832ZM98.1581 34.3636L88.2576 94H81.036L89.6553 41.9347H89.3059L73.1155 51.6023L74.3968 44.2642L90.9365 34.3636H98.1581Z" fill="white"/>
</g>
<defs>
<clipPath id="clip0_4417_14380">
<rect width="128" height="128" fill="white"/>
</clipPath>
</defs>
</svg>
