<svg width="128" height="128" viewBox="0 0 128 128" fill="none" xmlns="http://www.w3.org/2000/svg">
<g clip-path="url(#clip0_4417_14997)">
<path d="M128 64C128 99.3462 99.3462 128 64 128C28.6538 128 0 99.3462 0 64C0 28.6538 28.6538 0 64 0C99.3462 0 128 28.6538 128 64Z" fill="#350C89"/>
<path d="M103.878 55.0909L98.0829 90H93.8556L98.9011 59.5228H98.6965L89.2192 65.1819L89.9692 60.8864L99.6511 55.0909H103.878Z" fill="white"/>
<path d="M86.0006 90.2728C85.137 90.2728 84.4154 89.9773 83.8359 89.3864C83.2563 88.7841 82.9552 88.0569 82.9324 87.2046C82.9211 86.3523 83.2222 85.6421 83.8359 85.0739C84.4495 84.4944 85.1711 84.2046 86.0006 84.2046C86.8415 84.2046 87.5688 84.5 88.1824 85.091C88.7961 85.6819 89.0915 86.3864 89.0688 87.2046C89.0574 87.7728 88.9097 88.2898 88.6256 88.7557C88.3529 89.2216 87.9836 89.591 87.5177 89.8637C87.0631 90.1364 86.5574 90.2728 86.0006 90.2728Z" fill="white"/>
<path d="M85.5128 37.6364L76.8196 90H70.4787L78.0469 44.2841H77.7401L63.5242 52.7727L64.6492 46.3295L79.1719 37.6364H85.5128Z" fill="white"/>
<path d="M23.4568 90L24.275 85.3977L44.6272 66.4773C47.0136 64.2614 48.9994 62.3267 50.5846 60.6733C52.1869 59.0199 53.4312 57.4688 54.3176 56.0199C55.221 54.571 55.8091 53.0455 56.0818 51.4432C56.3886 49.6023 56.2267 48.0085 55.596 46.6619C54.9653 45.3154 53.9681 44.2756 52.6045 43.5426C51.2409 42.8097 49.6045 42.4432 47.6954 42.4432C45.6841 42.4432 43.8517 42.8608 42.1983 43.696C40.5449 44.5142 39.1727 45.6733 38.0818 47.1733C36.9909 48.6563 36.275 50.3864 35.9341 52.3637H29.9C30.4113 49.2955 31.5789 46.6023 33.4028 44.2841C35.2437 41.9659 37.5022 40.1591 40.1784 38.8637C42.8716 37.5682 45.7522 36.9205 48.8204 36.9205C51.8886 36.9205 54.488 37.5682 56.6187 38.8637C58.7494 40.1591 60.292 41.9063 61.2466 44.1051C62.2011 46.304 62.4568 48.75 62.0136 51.4432C61.6727 53.3864 60.9994 55.2699 59.9937 57.0938C58.988 58.9176 57.4454 60.9546 55.3659 63.2046C53.3034 65.4375 50.5079 68.1648 46.9795 71.3864L33.1727 83.9659L33.0704 84.375H57.4113L56.4909 90H23.4568Z" fill="white"/>
</g>
<defs>
<clipPath id="clip0_4417_14997">
<rect width="128" height="128" fill="white"/>
</clipPath>
</defs>
</svg>
