<svg width="128" height="128" viewBox="0 0 128 128" fill="none" xmlns="http://www.w3.org/2000/svg">
<g clip-path="url(#clip0_4417_13694)">
<circle cx="64" cy="64" r="64" fill="#350C89"/>
<path d="M23.4568 90L24.275 85.3977L44.6272 66.4773C47.0136 64.2614 48.9994 62.3267 50.5846 60.6733C52.1869 59.0199 53.4312 57.4687 54.3176 56.0199C55.221 54.571 55.8091 53.0455 56.0818 51.4432C56.3886 49.6023 56.2267 48.0085 55.596 46.6619C54.9653 45.3153 53.9682 44.2756 52.6045 43.5426C51.2409 42.8097 49.6045 42.4432 47.6954 42.4432C45.6841 42.4432 43.8517 42.8608 42.1983 43.696C40.5449 44.5142 39.1727 45.6733 38.0818 47.1733C36.9909 48.6562 36.275 50.3864 35.9341 52.3636H29.9C30.4113 49.2955 31.5789 46.6023 33.4028 44.2841C35.2437 41.9659 37.5022 40.1591 40.1784 38.8636C42.8716 37.5682 45.7522 36.9205 48.8204 36.9205C51.8886 36.9205 54.488 37.5682 56.6187 38.8636C58.7494 40.1591 60.292 41.9062 61.2466 44.1051C62.2011 46.304 62.4568 48.75 62.0136 51.4432C61.6727 53.3864 60.9994 55.2699 59.9937 57.0938C58.988 58.9176 57.4454 60.9545 55.3659 63.2045C53.3034 65.4375 50.5079 68.1648 46.9795 71.3864L33.1727 83.9659L33.0704 84.375H57.4113L56.4909 90H23.4568ZM85.5128 37.6364L76.8196 90H70.4787L78.0469 44.2841H77.7401L63.5242 52.7727L64.6492 46.3295L79.1719 37.6364H85.5128ZM86.0007 90.2727C85.137 90.2727 84.4154 89.9773 83.8359 89.3864C83.2563 88.7841 82.9552 88.0568 82.9325 87.2045C82.9211 86.3523 83.2222 85.642 83.8359 85.0739C84.4495 84.4943 85.1711 84.2045 86.0007 84.2045C86.8416 84.2045 87.5688 84.5 88.1825 85.0909C88.7961 85.6818 89.0916 86.3864 89.0688 87.2045C89.0575 87.7727 88.9097 88.2898 88.6257 88.7557C88.3529 89.2216 87.9836 89.5909 87.5177 89.8636C87.0632 90.1364 86.5575 90.2727 86.0007 90.2727ZM103.878 55.0909L98.083 90H93.8557L98.9012 59.5227H98.6966L89.2193 65.1818L89.9693 60.8864L99.6512 55.0909H103.878Z" fill="white"/>
</g>
<defs>
<clipPath id="clip0_4417_13694">
<rect width="128" height="128" fill="white"/>
</clipPath>
</defs>
</svg>
