<svg width="128" height="128" viewBox="0 0 128 128" fill="none" xmlns="http://www.w3.org/2000/svg">
<g clip-path="url(#clip0_4417_13691)">
<circle cx="64" cy="64" r="64" fill="#3C0C89"/>
<path d="M18.4959 90L19.314 85.3977L39.6663 66.4773C42.0527 64.2614 44.0385 62.3267 45.6237 60.6733C47.226 59.0199 48.4703 57.4687 49.3566 56.0199C50.2601 54.571 50.8481 53.0455 51.1209 51.4432C51.4277 49.6023 51.2657 48.0085 50.6351 46.6619C50.0044 45.3153 49.0072 44.2756 47.6436 43.5426C46.2799 42.8097 44.6436 42.4432 42.7345 42.4432C40.7231 42.4432 38.8907 42.8608 37.2373 43.696C35.5839 44.5142 34.2118 45.6733 33.1209 47.1733C32.0299 48.6562 31.314 50.3864 30.9731 52.3636H24.939C25.4504 49.2955 26.618 46.6023 28.4419 44.2841C30.2828 41.9659 32.5413 40.1591 35.2174 38.8636C37.9106 37.5682 40.7913 36.9205 43.8595 36.9205C46.9277 36.9205 49.5271 37.5682 51.6578 38.8636C53.7885 40.1591 55.3311 41.9062 56.2856 44.1051C57.2402 46.304 57.4959 48.75 57.0527 51.4432C56.7118 53.3864 56.0385 55.2699 55.0328 57.0938C54.0271 58.9176 52.4845 60.9545 50.4049 63.2045C48.3424 65.4375 45.547 68.1648 42.0186 71.3864L28.2118 83.9659L28.1095 84.375H52.4504L51.5299 90H18.4959ZM80.5519 37.6364L71.8587 90H65.5178L73.086 44.2841H72.7791L58.5632 52.7727L59.6882 46.3295L74.211 37.6364H80.5519ZM81.0397 90.2727C80.1761 90.2727 79.4545 89.9773 78.8749 89.3864C78.2954 88.7841 77.9943 88.0568 77.9715 87.2045C77.9602 86.3523 78.2613 85.642 78.8749 85.0739C79.4886 84.4943 80.2102 84.2045 81.0397 84.2045C81.8806 84.2045 82.6079 84.5 83.2215 85.0909C83.8352 85.6818 84.1306 86.3864 84.1079 87.2045C84.0965 87.7727 83.9488 88.2898 83.6647 88.7557C83.392 89.2216 83.0227 89.5909 82.5568 89.8636C82.1022 90.1364 81.5965 90.2727 81.0397 90.2727ZM85.0212 90L85.5666 86.9318L99.1348 74.3182C100.726 72.8409 102.05 71.5511 103.106 70.4489C104.175 69.3466 105.004 68.3125 105.595 67.3466C106.197 66.3807 106.589 65.3636 106.771 64.2955C106.976 63.0682 106.868 62.0057 106.447 61.108C106.027 60.2102 105.362 59.517 104.453 59.0284C103.544 58.5398 102.453 58.2955 101.18 58.2955C99.8394 58.2955 98.6178 58.5739 97.5155 59.1307C96.4132 59.6761 95.4985 60.4489 94.7712 61.4489C94.0439 62.4375 93.5666 63.5909 93.3394 64.9091H89.3166C89.6576 62.8636 90.436 61.0682 91.6519 59.5227C92.8791 57.9773 94.3848 56.7727 96.1689 55.9091C97.9644 55.0455 99.8848 54.6136 101.93 54.6136C103.976 54.6136 105.709 55.0455 107.129 55.9091C108.55 56.7727 109.578 57.9375 110.214 59.4034C110.851 60.8693 111.021 62.5 110.726 64.2955C110.498 65.5909 110.05 66.8466 109.379 68.0625C108.709 69.2784 107.68 70.6364 106.294 72.1364C104.919 73.625 103.055 75.4432 100.703 77.5909L91.4985 85.9773L91.4303 86.25H107.658L107.044 90H85.0212Z" fill="white"/>
</g>
<defs>
<clipPath id="clip0_4417_13691">
<rect width="128" height="128" fill="white"/>
</clipPath>
</defs>
</svg>
