<svg width="128" height="128" viewBox="0 0 128 128" fill="none" xmlns="http://www.w3.org/2000/svg">
<g clip-path="url(#clip0_4417_13688)">
<circle cx="64" cy="64" r="64" fill="#420C89"/>
<path d="M18.4021 90L19.2203 85.3977L39.5726 66.4773C41.9589 64.2614 43.9447 62.3267 45.5299 60.6733C47.1322 59.0199 48.3765 57.4687 49.2629 56.0199C50.1663 54.571 50.7544 53.0455 51.0271 51.4432C51.3339 49.6023 51.172 48.0085 50.5413 46.6619C49.9106 45.3153 48.9135 44.2756 47.5498 43.5426C46.1862 42.8097 44.5498 42.4432 42.6407 42.4432C40.6294 42.4432 38.797 42.8608 37.1436 43.696C35.4902 44.5142 34.118 45.6733 33.0271 47.1733C31.9362 48.6562 31.2203 50.3864 30.8794 52.3636H24.8453C25.3566 49.2955 26.5243 46.6023 28.3481 44.2841C30.189 41.9659 32.4476 40.1591 35.1237 38.8636C37.8169 37.5682 40.6976 36.9205 43.7657 36.9205C46.8339 36.9205 49.4334 37.5682 51.564 38.8636C53.6947 40.1591 55.2373 41.9062 56.1919 44.1051C57.1464 46.304 57.4021 48.75 56.9589 51.4432C56.618 53.3864 55.9447 55.2699 54.939 57.0938C53.9334 58.9176 52.3907 60.9545 50.3112 63.2045C48.2487 65.4375 45.4532 68.1648 41.9248 71.3864L28.118 83.9659L28.0157 84.375H52.3567L51.4362 90H18.4021ZM80.4581 37.6364L71.7649 90H65.424L72.9922 44.2841H72.6854L58.4695 52.7727L59.5945 46.3295L74.1172 37.6364H80.4581ZM80.946 90.2727C80.0823 90.2727 79.3607 89.9773 78.7812 89.3864C78.2016 88.7841 77.9005 88.0568 77.8778 87.2045C77.8664 86.3523 78.1676 85.642 78.7812 85.0739C79.3948 84.4943 80.1164 84.2045 80.946 84.2045C81.7869 84.2045 82.5141 84.5 83.1278 85.0909C83.7414 85.6818 84.0369 86.3864 84.0141 87.2045C84.0028 87.7727 83.8551 88.2898 83.571 88.7557C83.2982 89.2216 82.9289 89.5909 82.463 89.8636C82.0085 90.1364 81.5028 90.2727 80.946 90.2727ZM95.5468 90.4773C93.274 90.4773 91.3024 90.0966 89.632 89.3352C87.9729 88.5625 86.7343 87.4886 85.9161 86.1136C85.0979 84.7273 84.8081 83.1136 85.0468 81.2727H89.274C89.1718 82.3864 89.3649 83.3523 89.8536 84.1705C90.3536 84.9886 91.0922 85.6193 92.0695 86.0625C93.0581 86.5057 94.2399 86.7273 95.6149 86.7273C97.0808 86.7273 98.4558 86.4716 99.7399 85.9602C101.035 85.4489 102.121 84.7102 102.996 83.7443C103.871 82.767 104.41 81.6023 104.615 80.25C104.797 79.0341 104.66 77.9545 104.206 77.0114C103.751 76.0682 102.967 75.3295 101.854 74.7955C100.751 74.25 99.3081 73.9773 97.524 73.9773H94.6604L95.274 70.2273H97.9331C99.3195 70.2273 100.592 69.9659 101.751 69.4432C102.91 68.9205 103.876 68.1875 104.649 67.2443C105.422 66.2898 105.91 65.1705 106.115 63.8864C106.308 62.7614 106.229 61.7841 105.876 60.9545C105.535 60.1136 104.944 59.4602 104.104 58.9943C103.274 58.5284 102.217 58.2955 100.933 58.2955C99.7058 58.2955 98.5013 58.517 97.3195 58.9602C96.149 59.392 95.149 60.0227 94.3195 60.8523C93.4899 61.6705 92.9672 62.6591 92.7513 63.8182H88.6604C89.0127 62 89.8024 60.4034 91.0297 59.0284C92.257 57.642 93.7513 56.5625 95.5127 55.7898C97.2854 55.0057 99.1604 54.6136 101.138 54.6136C103.331 54.6136 105.138 55.0682 106.558 55.9773C107.99 56.875 109.013 58.0568 109.626 59.5227C110.24 60.9773 110.41 62.5455 110.138 64.2273C109.831 66.1477 109.041 67.7727 107.768 69.1023C106.496 70.4318 104.944 71.375 103.115 71.9318V72.1364C105.263 72.5114 106.819 73.5 107.785 75.1023C108.763 76.6932 109.069 78.5909 108.706 80.7955C108.388 82.7727 107.621 84.4886 106.405 85.9432C105.189 87.3864 103.649 88.5057 101.785 89.3011C99.9218 90.0852 97.8422 90.4773 95.5468 90.4773Z" fill="white"/>
</g>
<defs>
<clipPath id="clip0_4417_13688">
<rect width="128" height="128" fill="white"/>
</clipPath>
</defs>
</svg>
