<svg width="128" height="128" viewBox="0 0 128 128" fill="none" xmlns="http://www.w3.org/2000/svg">
<g clip-path="url(#clip0_4417_13685)">
<circle cx="64" cy="64" r="64" fill="#480C89"/>
<path d="M17.6287 90L18.4468 85.3977L38.7991 66.4773C41.1855 64.2614 43.1713 62.3267 44.7565 60.6733C46.3588 59.0199 47.6031 57.4687 48.4895 56.0199C49.3929 54.571 49.9809 53.0455 50.2537 51.4432C50.5605 49.6023 50.3986 48.0085 49.7679 46.6619C49.1372 45.3153 48.14 44.2756 46.7764 43.5426C45.4128 42.8097 43.7764 42.4432 41.8673 42.4432C39.8559 42.4432 38.0236 42.8608 36.3701 43.696C34.7167 44.5142 33.3446 45.6733 32.2537 47.1733C31.1628 48.6562 30.4468 50.3864 30.1059 52.3636H24.0718C24.5832 49.2955 25.7508 46.6023 27.5747 44.2841C29.4156 41.9659 31.6741 40.1591 34.3503 38.8636C37.0434 37.5682 39.9241 36.9205 42.9923 36.9205C46.0605 36.9205 48.6599 37.5682 50.7906 38.8636C52.9213 40.1591 54.4639 41.9062 55.4184 44.1051C56.373 46.304 56.6287 48.75 56.1855 51.4432C55.8446 53.3864 55.1713 55.2699 54.1656 57.0938C53.1599 58.9176 51.6173 60.9545 49.5378 63.2045C47.4753 65.4375 44.6798 68.1648 41.1514 71.3864L27.3446 83.9659L27.2423 84.375H51.5832L50.6628 90H17.6287ZM79.6847 37.6364L70.9915 90H64.6506L72.2188 44.2841H71.912L57.6961 52.7727L58.8211 46.3295L73.3438 37.6364H79.6847ZM80.1725 90.2727C79.3089 90.2727 78.5873 89.9773 78.0078 89.3864C77.4282 88.7841 77.1271 88.0568 77.1043 87.2045C77.093 86.3523 77.3941 85.642 78.0078 85.0739C78.6214 84.4943 79.343 84.2045 80.1725 84.2045C81.0134 84.2045 81.7407 84.5 82.3543 85.0909C82.968 85.6818 83.2634 86.3864 83.2407 87.2045C83.2293 87.7727 83.0816 88.2898 82.7975 88.7557C82.5248 89.2216 82.1555 89.5909 81.6896 89.8636C81.235 90.1364 80.7293 90.2727 80.1725 90.2727ZM84.5631 82.8409L85.1085 79.3636L104.472 55.0909H106.995L106.109 60.4773H104.404L89.7449 78.8182V79.0909H110.404L109.79 82.8409H84.5631ZM99.7676 90L101.131 81.75L101.404 80.1818L105.563 55.0909H109.586L103.79 90H99.7676Z" fill="white"/>
</g>
<defs>
<clipPath id="clip0_4417_13685">
<rect width="128" height="128" fill="white"/>
</clipPath>
</defs>
</svg>
