<svg width="128" height="128" viewBox="0 0 128 128" fill="none" xmlns="http://www.w3.org/2000/svg">
<g clip-path="url(#clip0_4417_13682)">
<circle cx="64" cy="64" r="64" fill="#4F0D8A"/>
<path d="M18.2771 90L19.0953 85.3977L39.4476 66.4773C41.8339 64.2614 43.8197 62.3267 45.4049 60.6733C47.0072 59.0199 48.2515 57.4687 49.1379 56.0199C50.0413 54.571 50.6294 53.0455 50.9021 51.4432C51.2089 49.6023 51.047 48.0085 50.4163 46.6619C49.7856 45.3153 48.7885 44.2756 47.4248 43.5426C46.0612 42.8097 44.4248 42.4432 42.5157 42.4432C40.5044 42.4432 38.672 42.8608 37.0186 43.696C35.3652 44.5142 33.993 45.6733 32.9021 47.1733C31.8112 48.6562 31.0953 50.3864 30.7544 52.3636H24.7203C25.2316 49.2955 26.3993 46.6023 28.2231 44.2841C30.064 41.9659 32.3226 40.1591 34.9987 38.8636C37.6919 37.5682 40.5726 36.9205 43.6407 36.9205C46.7089 36.9205 49.3084 37.5682 51.439 38.8636C53.5697 40.1591 55.1123 41.9062 56.0669 44.1051C57.0214 46.304 57.2771 48.75 56.8339 51.4432C56.493 53.3864 55.8197 55.2699 54.814 57.0938C53.8084 58.9176 52.2657 60.9545 50.1862 63.2045C48.1237 65.4375 45.3282 68.1648 41.7998 71.3864L27.993 83.9659L27.8907 84.375H52.2317L51.3112 90H18.2771ZM80.3331 37.6364L71.6399 90H65.299L72.8672 44.2841H72.5604L58.3445 52.7727L59.4695 46.3295L73.9922 37.6364H80.3331ZM80.821 90.2727C79.9573 90.2727 79.2357 89.9773 78.6562 89.3864C78.0766 88.7841 77.7755 88.0568 77.7528 87.2045C77.7414 86.3523 78.0426 85.642 78.6562 85.0739C79.2698 84.4943 79.9914 84.2045 80.821 84.2045C81.6619 84.2045 82.3891 84.5 83.0028 85.0909C83.6164 85.6818 83.9119 86.3864 83.8891 87.2045C83.8778 87.7727 83.7301 88.2898 83.446 88.7557C83.1732 89.2216 82.8039 89.5909 82.338 89.8636C81.8835 90.1364 81.3778 90.2727 80.821 90.2727ZM94.9402 90.4773C92.9402 90.4773 91.2016 90.0795 89.7243 89.2841C88.247 88.4886 87.1391 87.3977 86.4005 86.0114C85.6618 84.625 85.3948 83.0455 85.5993 81.2727H89.6902C89.588 82.8409 90.0936 84.142 91.2073 85.1761C92.3323 86.2102 93.7811 86.7273 95.5539 86.7273C96.9857 86.7273 98.3152 86.392 99.5425 85.7216C100.781 85.0511 101.815 84.1307 102.645 82.9602C103.486 81.7898 104.031 80.4545 104.281 78.9545C104.531 77.4318 104.423 76.0682 103.957 74.8636C103.491 73.6591 102.736 72.7102 101.69 72.017C100.645 71.3239 99.372 70.9773 97.872 70.9773C96.8152 70.9773 95.6959 71.1477 94.5141 71.4886C93.3436 71.8182 92.3493 72.2386 91.5311 72.75L87.6448 72.2727L92.622 55.0909H110.758L110.145 58.8409H95.5539L92.622 69.1364H92.8266C93.6448 68.5568 94.6164 68.0852 95.7414 67.7216C96.8777 67.3466 98.0425 67.1591 99.2357 67.1591C101.372 67.1591 103.19 67.6705 104.69 68.6932C106.202 69.7045 107.287 71.0966 107.946 72.8693C108.616 74.6307 108.758 76.6364 108.372 78.8864C108.008 81.1136 107.185 83.1023 105.9 84.8523C104.628 86.5909 103.037 87.9659 101.128 88.9773C99.23 89.9773 97.1675 90.4773 94.9402 90.4773Z" fill="white"/>
</g>
<defs>
<clipPath id="clip0_4417_13682">
<rect width="128" height="128" fill="white"/>
</clipPath>
</defs>
</svg>
