<svg width="128" height="128" viewBox="0 0 128 128" fill="none" xmlns="http://www.w3.org/2000/svg">
<g clip-path="url(#clip0_4417_15001)">
<path d="M128 64C128 99.3462 99.3462 128 64 128C28.6538 128 0 99.3462 0 64C0 28.6538 28.6538 0 64 0C99.3462 0 128 28.6538 128 64Z" fill="#4F0D8A"/>
<path d="M94.9402 90.4773C92.9402 90.4773 91.2015 90.0796 89.7243 89.2841C88.247 88.4887 87.139 87.3978 86.4004 86.0114C85.6618 84.625 85.3947 83.0455 85.5993 81.2728H89.6902C89.5879 82.8409 90.0936 84.1421 91.2072 85.1762C92.3322 86.2103 93.7811 86.7273 95.5538 86.7273C96.9856 86.7273 98.3152 86.3921 99.5424 85.7216C100.781 85.0512 101.815 84.1307 102.645 82.9603C103.486 81.7898 104.031 80.4546 104.281 78.9546C104.531 77.4319 104.423 76.0682 103.957 74.8637C103.491 73.6591 102.736 72.7103 101.69 72.0171C100.645 71.3239 99.372 70.9773 97.872 70.9773C96.8152 70.9773 95.6958 71.1478 94.514 71.4887C93.3436 71.8182 92.3493 72.2387 91.5311 72.75L87.6447 72.2728L92.622 55.0909H110.758L110.145 58.8409H95.5538L92.622 69.1364H92.8265C93.6447 68.5569 94.6163 68.0853 95.7413 67.7216C96.8777 67.3466 98.0424 67.1591 99.2356 67.1591C101.372 67.1591 103.19 67.6705 104.69 68.6932C106.202 69.7046 107.287 71.0966 107.946 72.8694C108.616 74.6307 108.758 76.6364 108.372 78.8864C108.008 81.1137 107.184 83.1023 105.9 84.8523C104.628 86.5909 103.037 87.9659 101.128 88.9773C99.2299 89.9773 97.1674 90.4773 94.9402 90.4773Z" fill="white"/>
<path d="M80.8209 90.2728C79.9573 90.2728 79.2357 89.9773 78.6562 89.3864C78.0766 88.7841 77.7755 88.0569 77.7528 87.2046C77.7414 86.3523 78.0425 85.6421 78.6562 85.0739C79.2698 84.4944 79.9914 84.2046 80.8209 84.2046C81.6618 84.2046 82.3891 84.5 83.0028 85.091C83.6164 85.6819 83.9118 86.3864 83.8891 87.2046C83.8778 87.7728 83.73 88.2898 83.4459 88.7557C83.1732 89.2216 82.8039 89.591 82.338 89.8637C81.8834 90.1364 81.3778 90.2728 80.8209 90.2728Z" fill="white"/>
<path d="M80.3331 37.6364L71.6399 90H65.299L72.8672 44.2841H72.5604L58.3445 52.7727L59.4695 46.3295L73.9922 37.6364H80.3331Z" fill="white"/>
<path d="M18.2771 90L19.0953 85.3977L39.4476 66.4773C41.8339 64.2614 43.8197 62.3267 45.4049 60.6733C47.0072 59.0199 48.2515 57.4688 49.1379 56.0199C50.0413 54.571 50.6294 53.0455 50.9021 51.4432C51.2089 49.6023 51.047 48.0085 50.4163 46.6619C49.7856 45.3154 48.7885 44.2756 47.4248 43.5426C46.0612 42.8097 44.4248 42.4432 42.5157 42.4432C40.5044 42.4432 38.672 42.8608 37.0186 43.696C35.3652 44.5142 33.993 45.6733 32.9021 47.1733C31.8112 48.6563 31.0953 50.3864 30.7544 52.3637H24.7203C25.2316 49.2955 26.3993 46.6023 28.2231 44.2841C30.064 41.9659 32.3226 40.1591 34.9987 38.8637C37.6919 37.5682 40.5726 36.9205 43.6407 36.9205C46.7089 36.9205 49.3083 37.5682 51.439 38.8637C53.5697 40.1591 55.1123 41.9063 56.0669 44.1051C57.0214 46.304 57.2771 48.75 56.8339 51.4432C56.493 53.3864 55.8197 55.2699 54.814 57.0938C53.8083 58.9176 52.2657 60.9546 50.1862 63.2046C48.1237 65.4375 45.3282 68.1648 41.7998 71.3864L27.993 83.9659L27.8907 84.375H52.2316L51.3112 90H18.2771Z" fill="white"/>
</g>
<defs>
<clipPath id="clip0_4417_15001">
<rect width="128" height="128" fill="white"/>
</clipPath>
</defs>
</svg>
