<svg width="128" height="128" viewBox="0 0 128 128" fill="none" xmlns="http://www.w3.org/2000/svg">
<g clip-path="url(#clip0_4417_14383)">
<circle cx="64" cy="64" r="64" fill="#4E0D8A"/>
<path d="M23.6552 92L24.5188 87.142L46.0018 67.1705C48.5207 64.8314 50.6168 62.7893 52.2901 61.044C53.9814 59.2988 55.2949 57.6615 56.2305 56.1321C57.1841 54.6027 57.8048 52.9924 58.0927 51.3011C58.4165 49.358 58.2456 47.6757 57.5799 46.2543C56.9142 44.8329 55.8616 43.7353 54.4222 42.9616C52.9828 42.188 51.2556 41.8011 49.2404 41.8011C47.1173 41.8011 45.1831 42.2419 43.4378 43.1236C41.6926 43.9872 40.2442 45.2107 39.0927 46.794C37.9412 48.3594 37.1855 50.1856 36.8256 52.2727H30.4563C30.9961 49.0341 32.2286 46.1913 34.1538 43.7443C36.0969 41.2973 38.4809 39.3901 41.3057 38.0227C44.1485 36.6553 47.1893 35.9716 50.4279 35.9716C53.6665 35.9716 56.4104 36.6553 58.6594 38.0227C60.9085 39.3901 62.5368 41.2344 63.5444 43.5554C64.552 45.8764 64.8218 48.4583 64.354 51.3011C63.9942 53.3523 63.2835 55.3404 62.2219 57.2656C61.1604 59.1908 59.5321 61.3409 57.337 63.7159C55.1599 66.0729 52.2091 68.9517 48.4847 72.3523L33.9109 85.6307L33.8029 86.0625H59.4961L58.5245 92H23.6552ZM89.1588 36.7273L79.9826 92H73.2894L81.2781 43.7443H80.9542L65.9485 52.7045L67.136 45.9034L82.4656 36.7273H89.1588Z" fill="white"/>
<path d="M99.5486 79.1165L104.039 51.929H108.693L104.203 79.1165H99.5486ZM90.1153 67.8295L90.898 63.2159H118.085L117.303 67.8295H90.1153Z" fill="white"/>
</g>
<defs>
<clipPath id="clip0_4417_14383">
<rect width="128" height="128" fill="white"/>
</clipPath>
</defs>
</svg>
