<svg width="128" height="128" viewBox="0 0 128 128" fill="none" xmlns="http://www.w3.org/2000/svg">
<g clip-path="url(#clip0_4417_13789)">
<circle cx="64" cy="64" r="64" fill="#5A0D89"/>
<path d="M19.1677 90L19.9859 85.3977L40.3382 66.4773C42.7245 64.2614 44.7103 62.3267 46.2956 60.6733C47.8978 59.0199 49.1422 57.4687 50.0285 56.0199C50.9319 54.571 51.52 53.0455 51.7927 51.4432C52.0995 49.6023 51.9376 48.0085 51.3069 46.6619C50.6763 45.3153 49.6791 44.2756 48.3155 43.5426C46.9518 42.8097 45.3155 42.4432 43.4064 42.4432C41.395 42.4432 39.5626 42.8608 37.9092 43.696C36.2558 44.5142 34.8836 45.6733 33.7927 47.1733C32.7018 48.6562 31.9859 50.3864 31.645 52.3636H25.6109C26.1223 49.2955 27.2899 46.6023 29.1138 44.2841C30.9547 41.9659 33.2132 40.1591 35.8893 38.8636C38.5825 37.5682 41.4632 36.9205 44.5314 36.9205C47.5995 36.9205 50.199 37.5682 52.3297 38.8636C54.4603 40.1591 56.003 41.9062 56.9575 44.1051C57.912 46.304 58.1677 48.75 57.7245 51.4432C57.3836 53.3864 56.7103 55.2699 55.7047 57.0938C54.699 58.9176 53.1564 60.9545 51.0768 63.2045C49.0143 65.4375 46.2189 68.1648 42.6905 71.3864L28.8836 83.9659L28.7814 84.375H53.1223L52.2018 90H19.1677ZM81.2238 37.6364L72.5306 90H66.1897L73.7578 44.2841H73.451L59.2351 52.7727L60.3601 46.3295L74.8828 37.6364H81.2238ZM81.7116 90.2727C80.848 90.2727 80.1264 89.9773 79.5468 89.3864C78.9673 88.7841 78.6661 88.0568 78.6434 87.2045C78.632 86.3523 78.9332 85.642 79.5468 85.0739C80.1605 84.4943 80.882 84.2045 81.7116 84.2045C82.5525 84.2045 83.2798 84.5 83.8934 85.0909C84.507 85.6818 84.8025 86.3864 84.7798 87.2045C84.7684 87.7727 84.6207 88.2898 84.3366 88.7557C84.0639 89.2216 83.6945 89.5909 83.2286 89.8636C82.7741 90.1364 82.2684 90.2727 81.7116 90.2727ZM86.0808 90L106.808 59.1136L106.876 58.8409H88.8763L89.4899 55.0909H111.854L111.172 59.0455L90.5127 90H86.0808Z" fill="white"/>
</g>
<defs>
<clipPath id="clip0_4417_13789">
<rect width="128" height="128" fill="white"/>
</clipPath>
</defs>
</svg>
