<svg width="128" height="128" viewBox="0 0 128 128" fill="none" xmlns="http://www.w3.org/2000/svg">
<g clip-path="url(#clip0_4417_15004)">
<path d="M128 64C128 99.3462 99.3462 128 64 128C28.6538 128 0 99.3462 0 64C0 28.6538 28.6538 0 64 0C99.3462 0 128 28.6538 128 64Z" fill="#5F0D88"/>
<path d="M95.1106 90.4773C92.7243 90.4773 90.6845 90.0398 88.9913 89.1648C87.3095 88.2784 86.0765 87.0796 85.2925 85.5682C84.5197 84.0568 84.2925 82.3523 84.6106 80.4546C84.8493 79.0227 85.3606 77.6989 86.1447 76.483C86.9288 75.2671 87.8834 74.25 89.0084 73.4318C90.1447 72.6136 91.3606 72.0909 92.6561 71.8636V71.7273C91.0538 71.2841 89.9004 70.3011 89.1959 68.7784C88.5027 67.2443 88.3379 65.5227 88.7015 63.6136C89.0425 61.8523 89.7641 60.2955 90.8663 58.9432C91.9686 57.5909 93.3493 56.5341 95.0084 55.7727C96.6675 55 98.497 54.6136 100.497 54.6136C102.565 54.6136 104.349 55.0341 105.849 55.875C107.349 56.7046 108.452 57.8409 109.156 59.2841C109.872 60.7159 110.077 62.3409 109.77 64.1591C109.44 66.1023 108.628 67.75 107.332 69.1023C106.037 70.4432 104.554 71.3182 102.883 71.7273V71.8636C104.111 72.1136 105.173 72.6761 106.071 73.5511C106.98 74.4261 107.639 75.5114 108.048 76.8068C108.457 78.0909 108.531 79.4886 108.27 81C107.963 82.8523 107.196 84.4943 105.969 85.9261C104.741 87.3466 103.19 88.4602 101.315 89.2671C99.4515 90.0739 97.3834 90.4773 95.1106 90.4773ZM95.247 86.7273C96.8947 86.7273 98.355 86.4602 99.6277 85.9261C100.9 85.3807 101.935 84.625 102.73 83.6591C103.537 82.6818 104.042 81.5455 104.247 80.25C104.452 78.9546 104.31 77.8239 103.821 76.858C103.332 75.8807 102.571 75.125 101.537 74.5909C100.503 74.0455 99.2697 73.7727 97.8379 73.7727C96.3152 73.7727 94.9061 74.0739 93.6106 74.6761C92.3152 75.2784 91.2356 76.108 90.372 77.1648C89.5197 78.2216 88.9856 79.4318 88.7697 80.7955C88.5765 82.0114 88.7072 83.0682 89.1618 83.9659C89.6163 84.8523 90.3606 85.5341 91.3947 86.0114C92.4288 86.4886 93.7129 86.7273 95.247 86.7273ZM97.9743 70.1591C99.3038 70.1591 100.514 69.8921 101.605 69.358C102.707 68.8239 103.616 68.0852 104.332 67.1421C105.06 66.1989 105.531 65.1136 105.747 63.8864C105.963 62.7046 105.878 61.6989 105.491 60.8693C105.116 60.0284 104.497 59.3921 103.633 58.9602C102.77 58.5171 101.702 58.2955 100.429 58.2955C99.0538 58.2955 97.8152 58.5511 96.7129 59.0625C95.622 59.5739 94.7243 60.2898 94.0197 61.2102C93.3152 62.1307 92.8606 63.2046 92.6561 64.4318C92.4629 65.625 92.5652 66.6534 92.9629 67.5171C93.3606 68.3693 93.9913 69.0227 94.855 69.4773C95.73 69.9318 96.7697 70.1591 97.9743 70.1591Z" fill="white"/>
<path d="M80.8209 90.2728C79.9573 90.2728 79.2357 89.9773 78.6562 89.3864C78.0766 88.7841 77.7755 88.0569 77.7528 87.2046C77.7414 86.3523 78.0425 85.6421 78.6562 85.0739C79.2698 84.4944 79.9914 84.2046 80.8209 84.2046C81.6618 84.2046 82.3891 84.5 83.0028 85.091C83.6164 85.6819 83.9118 86.3864 83.8891 87.2046C83.8778 87.7728 83.73 88.2898 83.4459 88.7557C83.1732 89.2216 82.8039 89.591 82.338 89.8637C81.8834 90.1364 81.3778 90.2728 80.8209 90.2728Z" fill="white"/>
<path d="M80.3331 37.6364L71.6399 90H65.299L72.8672 44.2841H72.5604L58.3445 52.7727L59.4695 46.3295L73.9922 37.6364H80.3331Z" fill="white"/>
<path d="M18.2771 90L19.0953 85.3977L39.4476 66.4773C41.8339 64.2614 43.8197 62.3267 45.4049 60.6733C47.0072 59.0199 48.2515 57.4688 49.1379 56.0199C50.0413 54.571 50.6294 53.0455 50.9021 51.4432C51.2089 49.6023 51.047 48.0085 50.4163 46.6619C49.7856 45.3154 48.7885 44.2756 47.4248 43.5426C46.0612 42.8097 44.4248 42.4432 42.5157 42.4432C40.5044 42.4432 38.672 42.8608 37.0186 43.696C35.3652 44.5142 33.993 45.6733 32.9021 47.1733C31.8112 48.6563 31.0953 50.3864 30.7544 52.3637H24.7203C25.2316 49.2955 26.3993 46.6023 28.2231 44.2841C30.064 41.9659 32.3226 40.1591 34.9987 38.8637C37.6919 37.5682 40.5726 36.9205 43.6407 36.9205C46.7089 36.9205 49.3083 37.5682 51.439 38.8637C53.5697 40.1591 55.1123 41.9063 56.0669 44.1051C57.0214 46.304 57.2771 48.75 56.8339 51.4432C56.493 53.3864 55.8197 55.2699 54.814 57.0938C53.8083 58.9176 52.2657 60.9546 50.1862 63.2046C48.1237 65.4375 45.3282 68.1648 41.7998 71.3864L27.993 83.9659L27.8907 84.375H52.2316L51.3112 90H18.2771Z" fill="white"/>
</g>
<defs>
<clipPath id="clip0_4417_15004">
<rect width="128" height="128" fill="white"/>
</clipPath>
</defs>
</svg>
