<svg width="128" height="128" viewBox="0 0 128 128" fill="none" xmlns="http://www.w3.org/2000/svg">
<g clip-path="url(#clip0_4417_13673)">
<circle cx="64" cy="64" r="64" fill="#640D88"/>
<path d="M18.2146 90L19.0328 85.3977L39.3851 66.4773C41.7714 64.2614 43.7572 62.3267 45.3424 60.6733C46.9447 59.0199 48.189 57.4687 49.0754 56.0199C49.9788 54.571 50.5669 53.0455 50.8396 51.4432C51.1464 49.6023 50.9845 48.0085 50.3538 46.6619C49.7231 45.3153 48.726 44.2756 47.3623 43.5426C45.9987 42.8097 44.3623 42.4432 42.4532 42.4432C40.4419 42.4432 38.6095 42.8608 36.9561 43.696C35.3027 44.5142 33.9305 45.6733 32.8396 47.1733C31.7487 48.6562 31.0328 50.3864 30.6919 52.3636H24.6578C25.1691 49.2955 26.3368 46.6023 28.1606 44.2841C30.0015 41.9659 32.2601 40.1591 34.9362 38.8636C37.6294 37.5682 40.5101 36.9205 43.5782 36.9205C46.6464 36.9205 49.2459 37.5682 51.3765 38.8636C53.5072 40.1591 55.0498 41.9062 56.0044 44.1051C56.9589 46.304 57.2146 48.75 56.7714 51.4432C56.4305 53.3864 55.7572 55.2699 54.7515 57.0938C53.7459 58.9176 52.2032 60.9545 50.1237 63.2045C48.0612 65.4375 45.2657 68.1648 41.7373 71.3864L27.9305 83.9659L27.8282 84.375H52.1692L51.2487 90H18.2146ZM80.2706 37.6364L71.5774 90H65.2365L72.8047 44.2841H72.4979L58.282 52.7727L59.407 46.3295L73.9297 37.6364H80.2706ZM80.7585 90.2727C79.8948 90.2727 79.1732 89.9773 78.5937 89.3864C78.0141 88.7841 77.713 88.0568 77.6903 87.2045C77.6789 86.3523 77.9801 85.642 78.5937 85.0739C79.2073 84.4943 79.9289 84.2045 80.7585 84.2045C81.5994 84.2045 82.3266 84.5 82.9403 85.0909C83.5539 85.6818 83.8494 86.3864 83.8266 87.2045C83.8153 87.7727 83.6676 88.2898 83.3835 88.7557C83.1107 89.2216 82.7414 89.5909 82.2755 89.8636C81.821 90.1364 81.3153 90.2727 80.7585 90.2727ZM101.185 54.6136C102.65 54.625 104.071 54.9034 105.446 55.4489C106.821 55.983 108.008 56.8807 109.008 58.142C110.008 59.4034 110.69 61.1136 111.054 63.2727C111.429 65.4205 111.344 68.125 110.798 71.3864C110.287 74.4545 109.548 77.1761 108.582 79.5511C107.628 81.9148 106.48 83.9091 105.139 85.5341C103.798 87.1591 102.287 88.392 100.605 89.233C98.9345 90.0625 97.1277 90.4773 95.1845 90.4773C93.2527 90.4773 91.5709 90.0909 90.1391 89.3182C88.7186 88.5341 87.6164 87.4489 86.8323 86.0625C86.0595 84.6648 85.6845 83.0455 85.7073 81.2045H89.73C89.7982 82.8409 90.2755 84.1705 91.1618 85.1932C92.0595 86.2159 93.4459 86.7273 95.3209 86.7273C98.0141 86.7273 100.372 85.5739 102.395 83.267C104.429 80.9489 105.821 77.5568 106.571 73.0909L106.298 73.3636C105.503 74.3182 104.622 75.1307 103.656 75.8011C102.69 76.4716 101.662 76.983 100.571 77.3352C99.48 77.6875 98.3436 77.8636 97.1618 77.8636C95.1164 77.8636 93.3266 77.3523 91.7925 76.3295C90.2584 75.3068 89.1277 73.9034 88.4005 72.1193C87.6732 70.3352 87.5027 68.2955 87.8891 66C88.2527 63.8864 89.0425 61.9659 90.2584 60.2386C91.4857 58.5 93.0311 57.1193 94.8948 56.0966C96.7698 55.0739 98.8664 54.5795 101.185 54.6136ZM101.048 58.3636C99.5936 58.3636 98.2186 58.7273 96.9232 59.4545C95.6277 60.1818 94.5311 61.1648 93.6334 62.4034C92.7357 63.642 92.1618 65.0227 91.9118 66.5455C91.6845 67.9318 91.7868 69.1989 92.2186 70.3466C92.6505 71.4943 93.3493 72.4091 94.3152 73.0909C95.2811 73.7727 96.4573 74.1136 97.8436 74.1136C98.9573 74.1136 100.031 73.892 101.065 73.4489C102.099 73.0057 103.037 72.4034 103.878 71.642C104.73 70.8693 105.44 69.9943 106.008 69.017C106.577 68.0284 106.946 67 107.116 65.9318C107.344 64.5909 107.241 63.3466 106.81 62.1989C106.378 61.0511 105.667 60.125 104.679 59.4205C103.69 58.7159 102.48 58.3636 101.048 58.3636Z" fill="white"/>
</g>
<defs>
<clipPath id="clip0_4417_13673">
<rect width="128" height="128" fill="white"/>
</clipPath>
</defs>
</svg>
