<svg width="128" height="128" viewBox="0 0 128 128" fill="none" xmlns="http://www.w3.org/2000/svg">
<g clip-path="url(#clip0_4417_15019)">
<path d="M128 64C128 99.3462 99.3462 128 64 128C28.6538 128 0 99.3462 0 64C0 28.6538 28.6538 0 64 0C99.3462 0 128 28.6538 128 64Z" fill="#2F0C89"/>
<path d="M98.1583 34.3636L88.2578 94H81.0362L89.6555 41.9347H89.3061L73.1157 51.6023L74.397 44.2642L90.9367 34.3636H98.1583Z" fill="white"/>
<path d="M27.4834 94L28.4152 88.7585L51.5942 67.2102C54.312 64.6865 56.5736 62.4832 58.379 60.6001C60.2038 58.7171 61.6209 56.9505 62.6304 55.3004C63.6593 53.6503 64.329 51.9129 64.6397 50.0881C64.9891 47.9915 64.8047 46.1764 64.0864 44.6427C63.3681 43.1091 62.2325 41.9249 60.6794 41.0902C59.1264 40.2554 57.2628 39.8381 55.0885 39.8381C52.7978 39.8381 50.7109 40.3137 48.8279 41.2649C46.9448 42.1967 45.3821 43.5168 44.1396 45.2251C42.8972 46.914 42.0819 48.8845 41.6936 51.1363H34.8215C35.4039 47.642 36.7336 44.5748 38.8108 41.9346C40.9074 39.2945 43.4796 37.2367 46.5274 35.7613C49.5947 34.286 52.8754 33.5483 56.3698 33.5483C59.8641 33.5483 62.8245 34.286 65.2512 35.7613C67.6778 37.2367 69.4346 39.2265 70.5218 41.7308C71.6089 44.2351 71.9001 47.0208 71.3953 50.0881C71.0071 52.3011 70.2403 54.4462 69.0949 56.5234C67.9495 58.6006 66.1927 60.9204 63.8243 63.4829C61.4754 66.026 58.2916 69.1321 54.2732 72.8011L38.5487 87.1278L38.4323 87.5937H66.1539L65.1056 94H27.4834Z" fill="white"/>
</g>
<defs>
<clipPath id="clip0_4417_15019">
<rect width="128" height="128" fill="white"/>
</clipPath>
</defs>
</svg>
