<svg width="128" height="128" viewBox="0 0 128 128" fill="none" xmlns="http://www.w3.org/2000/svg">
<g clip-path="url(#clip0_4417_15022)">
<path d="M128 64C128 99.3462 99.3462 128 64 128C28.6538 128 0 99.3462 0 64C0 28.6538 28.6538 0 64 0C99.3462 0 128 28.6538 128 64Z" fill="#890E87"/>
<path d="M99.5485 79.1165L104.039 51.929H108.693L104.203 79.1165H99.5485ZM90.1152 67.8295L90.8979 63.2159H118.085L117.303 67.8295H90.1152Z" fill="white"/>
<path d="M51.2676 91L52.1085 86.2699L73.0261 66.8239C75.4788 64.5464 77.5197 62.558 79.149 60.8587C80.7957 59.1594 82.0746 57.5651 82.9856 56.076C83.9141 54.5869 84.5185 53.019 84.7988 51.3722C85.1142 49.4801 84.9477 47.8421 84.2995 46.4581C83.6513 45.0741 82.6265 44.0055 81.225 43.2522C79.8234 42.4988 78.1416 42.1222 76.1795 42.1222C74.1123 42.1222 72.229 42.5514 70.5297 43.4098C68.8303 44.2507 67.42 45.442 66.2988 46.9837C65.1776 48.5078 64.4418 50.286 64.0914 52.3182H57.8897C58.4153 49.1648 59.6154 46.3968 61.4899 44.0142C63.3819 41.6317 65.7032 39.7746 68.4537 38.4432C71.2217 37.1118 74.1823 36.446 77.3358 36.446C80.4892 36.446 83.1608 37.1118 85.3507 38.4432C87.5405 39.7746 89.126 41.5703 90.1071 43.8303C91.0881 46.0902 91.3509 48.6042 90.8954 51.3722C90.545 53.3693 89.853 55.3052 88.8194 57.1797C87.7858 59.0542 86.2003 61.1478 84.063 63.4603C81.9432 65.7552 79.0701 68.5583 75.4437 71.8693L61.2534 84.7983L61.1483 85.2188H86.1653L85.2193 91H51.2676Z" fill="white"/>
<path d="M15.3428 91L16.1837 86.2699L37.1013 66.8239C39.5539 64.5464 41.5949 62.558 43.2242 60.8587C44.8709 59.1594 46.1498 57.5651 47.0608 56.076C47.9893 54.5869 48.5937 53.019 48.874 51.3722C49.1894 49.4801 49.0229 47.8421 48.3747 46.4581C47.7265 45.0741 46.7017 44.0055 45.3002 43.2522C43.8986 42.4988 42.2168 42.1222 40.2547 42.1222C38.1875 42.1222 36.3042 42.5514 34.6048 43.4098C32.9055 44.2507 31.4952 45.442 30.374 46.9837C29.2528 48.5078 28.517 50.286 28.1666 52.3182H21.9649C22.4905 49.1648 23.6905 46.3968 25.5651 44.0142C27.4571 41.6317 29.7784 39.7746 32.5289 38.4432C35.2968 37.1118 38.2575 36.446 41.411 36.446C44.5644 36.446 47.236 37.1118 49.4259 38.4432C51.6157 39.7746 53.2012 41.5703 54.1823 43.8303C55.1633 46.0902 55.4261 48.6042 54.9706 51.3722C54.6202 53.3693 53.9282 55.3052 52.8946 57.1797C51.861 59.0542 50.2755 61.1478 48.1382 63.4603C46.0184 65.7552 43.1453 68.5583 39.5189 71.8693L25.3286 84.7983L25.2235 85.2188H50.2405L49.2945 91H15.3428Z" fill="white"/>
</g>
<defs>
<clipPath id="clip0_4417_15022">
<rect width="128" height="128" fill="white"/>
</clipPath>
</defs>
</svg>
