<svg width="128" height="128" viewBox="0 0 128 128" fill="none" xmlns="http://www.w3.org/2000/svg">
<g clip-path="url(#clip0_4417_14390)">
<circle cx="64" cy="64" r="64" fill="#890E87"/>
<path d="M99.5486 79.1165L104.039 51.929H108.693L104.203 79.1165H99.5486ZM90.1153 67.8295L90.898 63.2159H118.085L117.303 67.8295H90.1153Z" fill="white"/>
<path d="M15.3427 91L16.1836 86.2699L37.1012 66.8239C39.5539 64.5464 41.5948 62.558 43.2241 60.8587C44.8709 59.1593 46.1498 57.5651 47.0607 56.076C47.9892 54.5869 48.5936 53.0189 48.8739 51.3722C49.1893 49.4801 49.0229 47.8421 48.3747 46.4581C47.7265 45.0741 46.7016 44.0054 45.3001 43.2521C43.8986 42.4988 42.2168 42.1222 40.2546 42.1222C38.1874 42.1222 36.3041 42.5514 34.6048 43.4098C32.9054 44.2507 31.4952 45.442 30.3739 46.9837C29.2527 48.5078 28.5169 50.286 28.1666 52.3182H21.9649C22.4904 49.1648 23.6905 46.3968 25.565 44.0142C27.457 41.6316 29.7783 39.7746 32.5288 38.4432C35.2968 37.1117 38.2575 36.446 41.4109 36.446C44.5643 36.446 47.2359 37.1117 49.4258 38.4432C51.6157 39.7746 53.2011 41.5703 54.1822 43.8303C55.1632 46.0902 55.426 48.6042 54.9705 51.3722C54.6202 53.3693 53.9282 55.3052 52.8945 57.1797C51.8609 59.0542 50.2755 61.1477 48.1382 63.4602C46.0184 65.7552 43.1453 68.5582 39.5188 71.8693L25.3285 84.7983L25.2234 85.2188H50.2404L49.2944 91H15.3427ZM51.2674 91L52.1083 86.2699L73.0259 66.8239C75.4786 64.5464 77.5195 62.558 79.1488 60.8587C80.7956 59.1593 82.0744 57.5651 82.9854 56.076C83.9139 54.5869 84.5183 53.0189 84.7986 51.3722C85.114 49.4801 84.9475 47.8421 84.2993 46.4581C83.6511 45.0741 82.6263 44.0054 81.2248 43.2521C79.8233 42.4988 78.1414 42.1222 76.1793 42.1222C74.1121 42.1222 72.2288 42.5514 70.5295 43.4098C68.8301 44.2507 67.4198 45.442 66.2986 46.9837C65.1774 48.5078 64.4416 50.286 64.0912 52.3182H57.8895C58.4151 49.1648 59.6152 46.3968 61.4897 44.0142C63.3817 41.6316 65.703 39.7746 68.4535 38.4432C71.2215 37.1117 74.1822 36.446 77.3356 36.446C80.489 36.446 83.1606 37.1117 85.3505 38.4432C87.5403 39.7746 89.1258 41.5703 90.1069 43.8303C91.0879 46.0902 91.3507 48.6042 90.8952 51.3722C90.5448 53.3693 89.8528 55.3052 88.8192 57.1797C87.7856 59.0542 86.2002 61.1477 84.0628 63.4602C81.943 65.7552 79.0699 68.5582 75.4435 71.8693L61.2532 84.7983L61.1481 85.2188H86.1651L85.2191 91H51.2674Z" fill="white"/>
</g>
<defs>
<clipPath id="clip0_4417_14390">
<rect width="128" height="128" fill="white"/>
</clipPath>
</defs>
</svg>
