<svg width="128" height="128" viewBox="0 0 128 128" fill="none" xmlns="http://www.w3.org/2000/svg">
<g clip-path="url(#clip0_4417_14387)">
<circle cx="64" cy="64" r="64" fill="#6A0D88"/>
<path d="M21.7176 94L22.6494 88.7585L45.8284 67.2102C48.5462 64.6866 50.8078 62.4832 52.6132 60.6001C54.438 58.7171 55.8551 56.9505 56.8646 55.3004C57.8935 53.6503 58.5632 51.9129 58.8738 50.0881C59.2233 47.9915 59.0388 46.1764 58.3206 44.6428C57.6023 43.1091 56.4666 41.925 54.9136 41.0902C53.3606 40.2554 51.4969 39.8381 49.3227 39.8381C47.032 39.8381 44.9451 40.3137 43.062 41.2649C41.179 42.1967 39.6163 43.5168 38.3738 45.2251C37.1314 46.9141 36.3161 48.8845 35.9278 51.1364H29.0557C29.638 47.642 30.9678 44.5748 33.045 41.9347C35.1416 39.2945 37.7138 37.2367 40.7616 35.7614C43.8289 34.286 47.1096 33.5483 50.6039 33.5483C54.0983 33.5483 57.0587 34.286 59.4853 35.7614C61.9119 37.2367 63.6688 39.2266 64.7559 41.7308C65.8431 44.2351 66.1343 47.0208 65.6295 50.0881C65.2413 52.3011 64.4744 54.4463 63.3291 56.5234C62.1837 58.6006 60.4269 60.9205 58.0585 63.483C55.7095 66.026 52.5258 69.1321 48.5074 72.8011L32.7829 87.1278L32.6664 87.5938H60.388L59.3397 94H21.7176ZM61.526 94L62.4578 88.7585L85.6368 67.2102C88.3546 64.6866 90.6162 62.4832 92.4216 60.6001C94.2464 58.7171 95.6636 56.9505 96.673 55.3004C97.7019 53.6503 98.3717 51.9129 98.6823 50.0881C99.0317 47.9915 98.8473 46.1764 98.129 44.6428C97.4107 43.1091 96.2751 41.925 94.722 41.0902C93.169 40.2554 91.3054 39.8381 89.1311 39.8381C86.8404 39.8381 84.7535 40.3137 82.8705 41.2649C80.9874 42.1967 79.4247 43.5168 78.1823 45.2251C76.9398 46.9141 76.1245 48.8845 75.7362 51.1364H68.8641C69.4465 47.642 70.7763 44.5748 72.8534 41.9347C74.95 39.2945 77.5222 37.2367 80.5701 35.7614C83.6373 34.286 86.9181 33.5483 90.4124 33.5483C93.9067 33.5483 96.8672 34.286 99.2938 35.7614C101.72 37.2367 103.477 39.2266 104.564 41.7308C105.651 44.2351 105.943 47.0208 105.438 50.0881C105.05 52.3011 104.283 54.4463 103.138 56.5234C101.992 58.6006 100.235 60.9205 97.8669 63.483C95.518 66.026 92.3343 69.1321 88.3158 72.8011L72.5914 87.1278L72.4749 87.5938H100.196L99.1482 94H61.526Z" fill="white"/>
</g>
<defs>
<clipPath id="clip0_4417_14387">
<rect width="128" height="128" fill="white"/>
</clipPath>
</defs>
</svg>
