<svg width="128" height="128" viewBox="0 0 128 128" fill="none" xmlns="http://www.w3.org/2000/svg">
<g clip-path="url(#clip0_4417_13670)">
<circle cx="64" cy="64" r="64" fill="#6A0D88"/>
<path d="M14.4853 90L15.2807 85.5256L35.0676 67.1307C37.3877 64.9763 39.3184 63.0954 40.8595 61.4879C42.4173 59.8804 43.6271 58.3724 44.4888 56.9638C45.3671 55.5552 45.9389 54.072 46.204 52.5142C46.5023 50.7244 46.3449 49.175 45.7317 47.8658C45.1185 46.5566 44.1491 45.5457 42.8233 44.8331C41.4976 44.1205 39.9067 43.7642 38.0506 43.7642C36.0951 43.7642 34.3136 44.1702 32.7061 44.9822C31.0987 45.7777 29.7646 46.9046 28.704 48.3629C27.6434 49.8047 26.9474 51.4867 26.6159 53.4091H20.7495C21.2466 50.4261 22.3818 47.8078 24.155 45.554C25.9448 43.3002 28.1406 41.5436 30.7424 40.2841C33.3607 39.0246 36.1614 38.3949 39.1443 38.3949C42.1273 38.3949 44.6545 39.0246 46.726 40.2841C48.7975 41.5436 50.2973 43.2422 51.2253 45.38C52.1533 47.5178 52.4019 49.8958 51.9711 52.5142C51.6396 54.4034 50.985 56.2346 50.0073 58.0078C49.0295 59.781 47.5298 61.7614 45.508 63.9489C43.5028 66.1198 40.785 68.7713 37.3546 71.9034L23.9313 84.1335L23.8318 84.5312H47.4966L46.6017 90H14.4853ZM48.4681 90L49.2635 85.5256L69.0505 67.1307C71.3705 64.9763 73.3012 63.0954 74.8424 61.4879C76.4001 59.8804 77.6099 58.3724 78.4716 56.9638C79.3499 55.5552 79.9217 54.072 80.1868 52.5142C80.4851 50.7244 80.3277 49.175 79.7145 47.8658C79.1014 46.5566 78.1319 45.5457 76.8061 44.8331C75.4804 44.1205 73.8895 43.7642 72.0334 43.7642C70.0779 43.7642 68.2964 44.1702 66.6889 44.9822C65.0815 45.7777 63.7474 46.9046 62.6868 48.3629C61.6262 49.8047 60.9302 51.4867 60.5987 53.4091H54.7323C55.2294 50.4261 56.3646 47.8078 58.1378 45.554C59.9276 43.3002 62.1234 41.5436 64.7252 40.2841C67.3435 39.0246 70.1442 38.3949 73.1272 38.3949C76.1101 38.3949 78.6373 39.0246 80.7088 40.2841C82.7803 41.5436 84.2801 43.2422 85.2081 45.38C86.1362 47.5178 86.3847 49.8958 85.9539 52.5142C85.6224 54.4034 84.9678 56.2346 83.9901 58.0078C83.0123 59.781 81.5126 61.7614 79.4908 63.9489C77.4856 66.1198 74.7678 68.7713 71.3374 71.9034L57.9141 84.1335L57.8147 84.5312H81.4794L80.5845 90H48.4681ZM85.2719 90.2727C84.4083 90.2727 83.6867 89.9773 83.1071 89.3864C82.5276 88.7841 82.2264 88.0568 82.2037 87.2045C82.1924 86.3523 82.4935 85.642 83.1071 85.0739C83.7208 84.4943 84.4424 84.2045 85.2719 84.2045C86.1128 84.2045 86.8401 84.5 87.4537 85.0909C88.0674 85.6818 88.3628 86.3864 88.3401 87.2045C88.3287 87.7727 88.181 88.2898 87.8969 88.7557C87.6242 89.2216 87.2549 89.5909 86.7889 89.8636C86.3344 90.1364 85.8287 90.2727 85.2719 90.2727ZM99.3528 90.4773C96.7846 90.4773 94.7165 89.7784 93.1483 88.3807C91.5801 86.9716 90.546 84.9318 90.046 82.2614C89.546 79.5795 89.6028 76.3409 90.2165 72.5455C90.8301 68.7727 91.8358 65.5511 93.2335 62.8807C94.6312 60.1989 96.3528 58.1534 98.3983 56.7443C100.444 55.3239 102.739 54.6136 105.285 54.6136C107.83 54.6136 109.893 55.3239 111.472 56.7443C113.063 58.1648 114.12 60.2102 114.643 62.8807C115.177 65.5511 115.126 68.7727 114.489 72.5455C113.853 76.3409 112.836 79.5739 111.438 82.2443C110.04 84.9148 108.319 86.9545 106.273 88.3636C104.228 89.7727 101.921 90.4773 99.3528 90.4773ZM99.9665 86.7273C102.523 86.7273 104.711 85.5 106.529 83.0455C108.358 80.5795 109.648 77.0795 110.398 72.5455C110.898 69.5227 111.001 66.9489 110.705 64.8239C110.41 62.6989 109.751 61.0795 108.728 59.9659C107.705 58.8523 106.353 58.2955 104.671 58.2955C102.148 58.2955 99.9778 59.5398 98.1596 62.0284C96.3415 64.5057 95.0574 68.0114 94.3074 72.5455C93.8074 75.5682 93.6994 78.1364 93.9835 80.25C94.2676 82.3636 94.9153 83.9716 95.9267 85.0739C96.938 86.1761 98.2846 86.7273 99.9665 86.7273Z" fill="white"/>
</g>
<defs>
<clipPath id="clip0_4417_13670">
<rect width="128" height="128" fill="white"/>
</clipPath>
</defs>
</svg>
