<svg width="128" height="128" viewBox="0 0 128 128" fill="none" xmlns="http://www.w3.org/2000/svg">
<g clip-path="url(#clip0_4417_15007)">
<path d="M128 64C128 99.3462 99.3462 128 64 128C28.6538 128 0 99.3462 0 64C0 28.6538 28.6538 0 64 0C99.3462 0 128 28.6538 128 64Z" fill="#710D87"/>
<path d="M107.97 55.0909L102.175 90H97.9474L102.993 59.5228H102.788L93.311 65.1819L94.061 60.8864L103.743 55.0909H107.97Z" fill="white"/>
<path d="M90.0924 90.2727C89.2288 90.2727 88.5072 89.9773 87.9276 89.3863C87.3481 88.7841 87.047 88.0568 87.0242 87.2045C87.0129 86.3523 87.314 85.642 87.9276 85.0738C88.5413 84.4943 89.2629 84.2045 90.0924 84.2045C90.9333 84.2045 91.6606 84.5 92.2742 85.0909C92.8879 85.6818 93.1833 86.3863 93.1606 87.2045C93.1492 87.7727 93.0015 88.2898 92.7174 88.7557C92.4447 89.2216 92.0754 89.5909 91.6095 89.8636C91.1549 90.1363 90.6492 90.2727 90.0924 90.2727Z" fill="white"/>
<path d="M53.2886 90L54.084 85.5256L73.871 67.1307C76.191 64.9763 78.1217 63.0954 79.6629 61.4879C81.2206 59.8805 82.4304 58.3724 83.2921 56.9638C84.1704 55.5552 84.7422 54.072 85.0073 52.5142C85.3056 50.7244 85.1482 49.175 84.535 47.8658C83.9219 46.5566 82.9524 45.5457 81.6266 44.8331C80.3009 44.1205 78.71 43.7642 76.8539 43.7642C74.8984 43.7642 73.1169 44.1702 71.5095 44.9823C69.902 45.7777 68.5679 46.9046 67.5073 48.3629C66.4467 49.8047 65.7507 51.4868 65.4193 53.4091H59.5528C60.0499 50.4261 61.1851 47.8078 62.9583 45.554C64.7481 43.3002 66.9439 41.5436 69.5457 40.2841C72.164 39.0246 74.9647 38.3949 77.9477 38.3949C80.9306 38.3949 83.4578 39.0246 85.5293 40.2841C87.6008 41.5436 89.1006 43.2422 90.0286 45.38C90.9567 47.5178 91.2052 49.8958 90.7744 52.5142C90.4429 54.4034 89.7883 56.2346 88.8106 58.0078C87.8328 59.781 86.3331 61.7614 84.3113 63.9489C82.3061 66.1198 79.5883 68.7713 76.1579 71.9034L62.7346 84.1335L62.6352 84.5313H86.2999L85.405 90H53.2886Z" fill="white"/>
<path d="M19.3057 90L20.1011 85.5256L39.8881 67.1307C42.2081 64.9763 44.1388 63.0954 45.68 61.4879C47.2377 59.8805 48.4475 58.3724 49.3092 56.9638C50.1875 55.5552 50.7593 54.072 51.0244 52.5142C51.3227 50.7244 51.1653 49.175 50.5521 47.8658C49.939 46.5566 48.9695 45.5457 47.6437 44.8331C46.318 44.1205 44.7271 43.7642 42.871 43.7642C40.9155 43.7642 39.134 44.1702 37.5265 44.9823C35.9191 45.7777 34.585 46.9046 33.5244 48.3629C32.4638 49.8047 31.7678 51.4868 31.4363 53.4091H25.5699C26.067 50.4261 27.2022 47.8078 28.9754 45.554C30.7652 43.3002 32.961 41.5436 35.5628 40.2841C38.1811 39.0246 40.9818 38.3949 43.9648 38.3949C46.9477 38.3949 49.4749 39.0246 51.5464 40.2841C53.6179 41.5436 55.1177 43.2422 56.0457 45.38C56.9738 47.5178 57.2223 49.8958 56.7915 52.5142C56.46 54.4034 55.8054 56.2346 54.8277 58.0078C53.8499 59.781 52.3502 61.7614 50.3284 63.9489C48.3232 66.1198 45.6054 68.7713 42.175 71.9034L28.7517 84.1335L28.6523 84.5313H52.317L51.4221 90H19.3057Z" fill="white"/>
</g>
<defs>
<clipPath id="clip0_4417_15007">
<rect width="128" height="128" fill="white"/>
</clipPath>
</defs>
</svg>
