<svg width="128" height="128" viewBox="0 0 128 128" fill="none" xmlns="http://www.w3.org/2000/svg">
<g clip-path="url(#clip0_4417_13667)">
<circle cx="64" cy="64" r="64" fill="#710D87"/>
<path d="M19.3056 90L20.101 85.5256L39.888 67.1307C42.208 64.9763 44.1387 63.0954 45.6799 61.4879C47.2376 59.8804 48.4474 58.3724 49.3091 56.9638C50.1874 55.5552 50.7592 54.072 51.0243 52.5142C51.3226 50.7244 51.1652 49.175 50.552 47.8658C49.9389 46.5566 48.9694 45.5457 47.6436 44.8331C46.3179 44.1205 44.727 43.7642 42.8709 43.7642C40.9154 43.7642 39.1339 44.1702 37.5264 44.9822C35.919 45.7777 34.5849 46.9046 33.5243 48.3629C32.4637 49.8047 31.7677 51.4867 31.4362 53.4091H25.5698C26.0669 50.4261 27.2021 47.8078 28.9753 45.554C30.7651 43.3002 32.9609 41.5436 35.5627 40.2841C38.181 39.0246 40.9817 38.3949 43.9647 38.3949C46.9476 38.3949 49.4748 39.0246 51.5463 40.2841C53.6178 41.5436 55.1176 43.2422 56.0456 45.38C56.9737 47.5178 57.2222 49.8958 56.7914 52.5142C56.4599 54.4034 55.8053 56.2346 54.8276 58.0078C53.8498 59.781 52.3501 61.7614 50.3283 63.9489C48.3231 66.1198 45.6053 68.7713 42.1749 71.9034L28.7516 84.1335L28.6522 84.5312H52.3169L51.422 90H19.3056ZM53.2884 90L54.0838 85.5256L73.8708 67.1307C76.1908 64.9763 78.1215 63.0954 79.6627 61.4879C81.2204 59.8804 82.4302 58.3724 83.2919 56.9638C84.1702 55.5552 84.742 54.072 85.0071 52.5142C85.3054 50.7244 85.148 49.175 84.5348 47.8658C83.9217 46.5566 82.9522 45.5457 81.6264 44.8331C80.3007 44.1205 78.7098 43.7642 76.8537 43.7642C74.8982 43.7642 73.1167 44.1702 71.5093 44.9822C69.9018 45.7777 68.5677 46.9046 67.5071 48.3629C66.4465 49.8047 65.7505 51.4867 65.4191 53.4091H59.5526C60.0497 50.4261 61.1849 47.8078 62.9581 45.554C64.7479 43.3002 66.9437 41.5436 69.5455 40.2841C72.1639 39.0246 74.9645 38.3949 77.9475 38.3949C80.9304 38.3949 83.4576 39.0246 85.5291 40.2841C87.6006 41.5436 89.1004 43.2422 90.0284 45.38C90.9565 47.5178 91.205 49.8958 90.7742 52.5142C90.4427 54.4034 89.7881 56.2346 88.8104 58.0078C87.8326 59.781 86.3329 61.7614 84.3111 63.9489C82.3059 66.1198 79.5881 68.7713 76.1577 71.9034L62.7344 84.1335L62.635 84.5312H86.2997L85.4049 90H53.2884ZM90.0922 90.2727C89.2286 90.2727 88.507 89.9773 87.9274 89.3864C87.3479 88.7841 87.0468 88.0568 87.024 87.2045C87.0127 86.3523 87.3138 85.642 87.9274 85.0739C88.5411 84.4943 89.2627 84.2045 90.0922 84.2045C90.9331 84.2045 91.6604 84.5 92.274 85.0909C92.8877 85.6818 93.1831 86.3864 93.1604 87.2045C93.149 87.7727 93.0013 88.2898 92.7172 88.7557C92.4445 89.2216 92.0752 89.5909 91.6093 89.8636C91.1547 90.1364 90.649 90.2727 90.0922 90.2727ZM107.97 55.0909L102.175 90H97.9473L102.993 59.5227H102.788L93.3109 65.1818L94.0609 60.8864L103.743 55.0909H107.97Z" fill="white"/>
</g>
<defs>
<clipPath id="clip0_4417_13667">
<rect width="128" height="128" fill="white"/>
</clipPath>
</defs>
</svg>
