<svg width="128" height="128" viewBox="0 0 128 128" fill="none" xmlns="http://www.w3.org/2000/svg">
<g clip-path="url(#clip0_4417_15008)">
<path d="M128 64C128 99.3462 99.3462 128 64 128C28.6538 128 0 99.3462 0 64C0 28.6538 28.6538 0 64 0C99.3462 0 128 28.6538 128 64Z" fill="#770D87"/>
<path d="M89.1128 90L89.6582 86.9318L103.226 74.3182C104.817 72.8409 106.141 71.5511 107.198 70.4489C108.266 69.3466 109.096 68.3125 109.687 67.3466C110.289 66.3807 110.681 65.3636 110.863 64.2955C111.067 63.0682 110.959 62.0057 110.539 61.108C110.118 60.2102 109.454 59.5171 108.545 59.0284C107.636 58.5398 106.545 58.2955 105.272 58.2955C103.931 58.2955 102.709 58.5739 101.607 59.1307C100.505 59.6761 99.5901 60.4489 98.8628 61.4489C98.1355 62.4375 97.6582 63.5909 97.431 64.9091H93.4082C93.7492 62.8636 94.5276 61.0682 95.7435 59.5227C96.9707 57.9773 98.4764 56.7727 100.261 55.9091C102.056 55.0455 103.976 54.6136 106.022 54.6136C108.067 54.6136 109.8 55.0455 111.221 55.9091C112.641 56.7727 113.67 57.9375 114.306 59.4034C114.942 60.8693 115.113 62.5 114.817 64.2955C114.59 65.5909 114.141 66.8466 113.471 68.0625C112.8 69.2784 111.772 70.6364 110.386 72.1364C109.011 73.625 107.147 75.4432 104.795 77.5909L95.5901 85.9773L95.5219 86.25H111.749L111.136 90H89.1128Z" fill="white"/>
<path d="M85.1315 90.2727C84.2678 90.2727 83.5462 89.9773 82.9667 89.3863C82.3872 88.7841 82.086 88.0568 82.0633 87.2045C82.0519 86.3523 82.3531 85.642 82.9667 85.0738C83.5803 84.4943 84.3019 84.2045 85.1315 84.2045C85.9724 84.2045 86.6997 84.5 87.3133 85.0909C87.9269 85.6818 88.2224 86.3863 88.1997 87.2045C88.1883 87.7727 88.0406 88.2898 87.7565 88.7557C87.4837 89.2216 87.1144 89.5909 86.6485 89.8636C86.194 90.1363 85.6883 90.2727 85.1315 90.2727Z" fill="white"/>
<path d="M48.3276 90L49.1231 85.5256L68.91 67.1307C71.2301 64.9763 73.1607 63.0954 74.7019 61.4879C76.2597 59.8805 77.4694 58.3724 78.3312 56.9638C79.2095 55.5552 79.7812 54.072 80.0464 52.5142C80.3447 50.7244 80.1872 49.175 79.5741 47.8658C78.9609 46.5566 77.9915 45.5457 76.6657 44.8331C75.3399 44.1205 73.749 43.7642 71.893 43.7642C69.9375 43.7642 68.156 44.1702 66.5485 44.9823C64.941 45.7777 63.607 46.9046 62.5464 48.3629C61.4858 49.8047 60.7898 51.4868 60.4583 53.4091H54.5918C55.089 50.4261 56.2242 47.8078 57.9974 45.554C59.7872 43.3002 61.9829 41.5436 64.5847 40.2841C67.2031 39.0246 70.0038 38.3949 72.9867 38.3949C75.9697 38.3949 78.4969 39.0246 80.5684 40.2841C82.6399 41.5436 84.1397 43.2422 85.0677 45.38C85.9957 47.5178 86.2443 49.8958 85.8134 52.5142C85.482 54.4034 84.8274 56.2346 83.8497 58.0078C82.8719 59.781 81.3721 61.7614 79.3504 63.9489C77.3452 66.1198 74.6273 68.7713 71.197 71.9034L57.7737 84.1335L57.6742 84.5313H81.339L80.4441 90H48.3276Z" fill="white"/>
<path d="M14.3447 90L15.1402 85.5256L34.9271 67.1307C37.2472 64.9763 39.1778 63.0954 40.719 61.4879C42.2768 59.8805 43.4865 58.3724 44.3483 56.9638C45.2266 55.5552 45.7983 54.072 46.0635 52.5142C46.3618 50.7244 46.2043 49.175 45.5912 47.8658C44.978 46.5566 44.0086 45.5457 42.6828 44.8331C41.357 44.1205 39.7661 43.7642 37.9101 43.7642C35.9546 43.7642 34.1731 44.1702 32.5656 44.9823C30.9581 45.7777 29.6241 46.9046 28.5635 48.3629C27.5029 49.8047 26.8068 51.4868 26.4754 53.4091H20.6089C21.1061 50.4261 22.2413 47.8078 24.0145 45.554C25.8042 43.3002 28 41.5436 30.6018 40.2841C33.2202 39.0246 36.0209 38.3949 39.0038 38.3949C41.9868 38.3949 44.514 39.0246 46.5855 40.2841C48.657 41.5436 50.1567 43.2422 51.0848 45.38C52.0128 47.5178 52.2614 49.8958 51.8305 52.5142C51.4991 54.4034 50.8445 56.2346 49.8667 58.0078C48.889 59.781 47.3892 61.7614 45.3675 63.9489C43.3622 66.1198 40.6444 68.7713 37.214 71.9034L23.7907 84.1335L23.6913 84.5313H47.3561L46.4612 90H14.3447Z" fill="white"/>
</g>
<defs>
<clipPath id="clip0_4417_15008">
<rect width="128" height="128" fill="white"/>
</clipPath>
</defs>
</svg>
