<svg width="128" height="128" viewBox="0 0 128 128" fill="none" xmlns="http://www.w3.org/2000/svg">
<g clip-path="url(#clip0_4417_13664)">
<circle cx="64" cy="64" r="64" fill="#770D87"/>
<path d="M14.3446 90L15.1401 85.5256L34.927 67.1307C37.2471 64.9763 39.1777 63.0954 40.7189 61.4879C42.2767 59.8804 43.4864 58.3724 44.3482 56.9638C45.2265 55.5552 45.7982 54.072 46.0634 52.5142C46.3617 50.7244 46.2042 49.175 45.5911 47.8658C44.9779 46.5566 44.0085 45.5457 42.6827 44.8331C41.3569 44.1205 39.766 43.7642 37.91 43.7642C35.9545 43.7642 34.173 44.1702 32.5655 44.9822C30.958 45.7777 29.624 46.9046 28.5634 48.3629C27.5028 49.8047 26.8068 51.4867 26.4753 53.4091H20.6088C21.106 50.4261 22.2412 47.8078 24.0144 45.554C25.8041 43.3002 27.9999 41.5436 30.6017 40.2841C33.2201 39.0246 36.0208 38.3949 39.0037 38.3949C41.9867 38.3949 44.5139 39.0246 46.5854 40.2841C48.6569 41.5436 50.1567 43.2422 51.0847 45.38C52.0127 47.5178 52.2613 49.8958 51.8304 52.5142C51.499 54.4034 50.8444 56.2346 49.8666 58.0078C48.8889 59.781 47.3891 61.7614 45.3674 63.9489C43.3621 66.1198 40.6443 68.7713 37.2139 71.9034L23.7907 84.1335L23.6912 84.5312H47.356L46.4611 90H14.3446ZM48.3274 90L49.1229 85.5256L68.9098 67.1307C71.2299 64.9763 73.1605 63.0954 74.7017 61.4879C76.2595 59.8804 77.4693 58.3724 78.331 56.9638C79.2093 55.5552 79.781 54.072 80.0462 52.5142C80.3445 50.7244 80.1871 49.175 79.5739 47.8658C78.9607 46.5566 77.9913 45.5457 76.6655 44.8331C75.3398 44.1205 73.7488 43.7642 71.8928 43.7642C69.9373 43.7642 68.1558 44.1702 66.5483 44.9822C64.9408 45.7777 63.6068 46.9046 62.5462 48.3629C61.4856 49.8047 60.7896 51.4867 60.4581 53.4091H54.5916C55.0888 50.4261 56.224 47.8078 57.9972 45.554C59.787 43.3002 61.9827 41.5436 64.5845 40.2841C67.2029 39.0246 70.0036 38.3949 72.9865 38.3949C75.9695 38.3949 78.4967 39.0246 80.5682 40.2841C82.6397 41.5436 84.1395 43.2422 85.0675 45.38C85.9955 47.5178 86.2441 49.8958 85.8132 52.5142C85.4818 54.4034 84.8272 56.2346 83.8495 58.0078C82.8717 59.781 81.3719 61.7614 79.3502 63.9489C77.345 66.1198 74.6272 68.7713 71.1968 71.9034L57.7735 84.1335L57.674 84.5312H81.3388L80.4439 90H48.3274ZM85.1313 90.2727C84.2676 90.2727 83.546 89.9773 82.9665 89.3864C82.387 88.7841 82.0858 88.0568 82.0631 87.2045C82.0517 86.3523 82.3529 85.642 82.9665 85.0739C83.5801 84.4943 84.3017 84.2045 85.1313 84.2045C85.9722 84.2045 86.6995 84.5 87.3131 85.0909C87.9267 85.6818 88.2222 86.3864 88.1995 87.2045C88.1881 87.7727 88.0404 88.2898 87.7563 88.7557C87.4835 89.2216 87.1142 89.5909 86.6483 89.8636C86.1938 90.1364 85.6881 90.2727 85.1313 90.2727ZM89.1128 90L89.6582 86.9318L103.226 74.3182C104.817 72.8409 106.141 71.5511 107.198 70.4489C108.266 69.3466 109.096 68.3125 109.687 67.3466C110.289 66.3807 110.681 65.3636 110.863 64.2955C111.067 63.0682 110.959 62.0057 110.539 61.108C110.118 60.2102 109.454 59.517 108.545 59.0284C107.635 58.5398 106.545 58.2955 105.272 58.2955C103.931 58.2955 102.709 58.5739 101.607 59.1307C100.505 59.6761 99.59 60.4489 98.8628 61.4489C98.1355 62.4375 97.6582 63.5909 97.4309 64.9091H93.4082C93.7491 62.8636 94.5275 61.0682 95.7434 59.5227C96.9707 57.9773 98.4764 56.7727 100.26 55.9091C102.056 55.0455 103.976 54.6136 106.022 54.6136C108.067 54.6136 109.8 55.0455 111.221 55.9091C112.641 56.7727 113.67 57.9375 114.306 59.4034C114.942 60.8693 115.113 62.5 114.817 64.2955C114.59 65.5909 114.141 66.8466 113.471 68.0625C112.8 69.2784 111.772 70.6364 110.385 72.1364C109.01 73.625 107.147 75.4432 104.795 77.5909L95.59 85.9773L95.5218 86.25H111.749L111.135 90H89.1128Z" fill="white"/>
</g>
<defs>
<clipPath id="clip0_4417_13664">
<rect width="128" height="128" fill="white"/>
</clipPath>
</defs>
</svg>
