<svg width="128" height="128" viewBox="0 0 128 128" fill="none" xmlns="http://www.w3.org/2000/svg">
<g clip-path="url(#clip0_4417_13661)">
<circle cx="64" cy="64" r="64" fill="#7D0D87"/>
<path d="M14.2509 90L15.0463 85.5256L34.8333 67.1307C37.1533 64.9763 39.084 63.0954 40.6252 61.4879C42.1829 59.8804 43.3927 58.3724 44.2544 56.9638C45.1327 55.5552 45.7045 54.072 45.9696 52.5142C46.2679 50.7244 46.1105 49.175 45.4973 47.8658C44.8842 46.5566 43.9147 45.5457 42.5889 44.8331C41.2632 44.1205 39.6723 43.7642 37.8162 43.7642C35.8607 43.7642 34.0792 44.1702 32.4718 44.9822C30.8643 45.7777 29.5302 46.9046 28.4696 48.3629C27.409 49.8047 26.713 51.4867 26.3816 53.4091H20.5151C21.0122 50.4261 22.1474 47.8078 23.9206 45.554C25.7104 43.3002 27.9062 41.5436 30.508 40.2841C33.1264 39.0246 35.927 38.3949 38.91 38.3949C41.8929 38.3949 44.4202 39.0246 46.4916 40.2841C48.5631 41.5436 50.0629 43.2422 50.9909 45.38C51.919 47.5178 52.1675 49.8958 51.7367 52.5142C51.4052 54.4034 50.7506 56.2346 49.7729 58.0078C48.7952 59.781 47.2954 61.7614 45.2736 63.9489C43.2684 66.1198 40.5506 68.7713 37.1202 71.9034L23.6969 84.1335L23.5975 84.5312H47.2622L46.3674 90H14.2509ZM48.2337 90L49.0291 85.5256L68.8161 67.1307C71.1362 64.9763 73.0668 63.0954 74.608 61.4879C76.1657 59.8804 77.3755 58.3724 78.2372 56.9638C79.1156 55.5552 79.6873 54.072 79.9524 52.5142C80.2507 50.7244 80.0933 49.175 79.4801 47.8658C78.867 46.5566 77.8975 45.5457 76.5718 44.8331C75.246 44.1205 73.6551 43.7642 71.799 43.7642C69.8435 43.7642 68.0621 44.1702 66.4546 44.9822C64.8471 45.7777 63.513 46.9046 62.4524 48.3629C61.3918 49.8047 60.6958 51.4867 60.3644 53.4091H54.4979C54.9951 50.4261 56.1302 47.8078 57.9034 45.554C59.6932 43.3002 61.889 41.5436 64.4908 40.2841C67.1092 39.0246 69.9098 38.3949 72.8928 38.3949C75.8757 38.3949 78.403 39.0246 80.4745 40.2841C82.546 41.5436 84.0457 43.2422 84.9737 45.38C85.9018 47.5178 86.1504 49.8958 85.7195 52.5142C85.388 54.4034 84.7335 56.2346 83.7557 58.0078C82.778 59.781 81.2782 61.7614 79.2564 63.9489C77.2512 66.1198 74.5334 68.7713 71.103 71.9034L57.6797 84.1335L57.5803 84.5312H81.2451L80.3502 90H48.2337ZM85.0375 90.2727C84.1739 90.2727 83.4523 89.9773 82.8728 89.3864C82.2932 88.7841 81.9921 88.0568 81.9693 87.2045C81.958 86.3523 82.2591 85.642 82.8728 85.0739C83.4864 84.4943 84.208 84.2045 85.0375 84.2045C85.8784 84.2045 86.6057 84.5 87.2193 85.0909C87.833 85.6818 88.1284 86.3864 88.1057 87.2045C88.0943 87.7727 87.9466 88.2898 87.6625 88.7557C87.3898 89.2216 87.0205 89.5909 86.5546 89.8636C86.1 90.1364 85.5943 90.2727 85.0375 90.2727ZM99.6383 90.4773C97.3656 90.4773 95.394 90.0966 93.7236 89.3352C92.0645 88.5625 90.8258 87.4886 90.0076 86.1136C89.1895 84.7273 88.8997 83.1136 89.1383 81.2727H93.3656C93.2633 82.3864 93.4565 83.3523 93.9451 84.1705C94.4451 84.9886 95.1838 85.6193 96.1611 86.0625C97.1497 86.5057 98.3315 86.7273 99.7065 86.7273C101.172 86.7273 102.547 86.4716 103.832 85.9602C105.127 85.4489 106.212 84.7102 107.087 83.7443C107.962 82.767 108.502 81.6023 108.707 80.25C108.888 79.0341 108.752 77.9545 108.297 77.0114C107.843 76.0682 107.059 75.3295 105.945 74.7955C104.843 74.25 103.4 73.9773 101.616 73.9773H98.752L99.3656 70.2273H102.025C103.411 70.2273 104.684 69.9659 105.843 69.4432C107.002 68.9205 107.968 68.1875 108.741 67.2443C109.513 66.2898 110.002 65.1705 110.207 63.8864C110.4 62.7614 110.32 61.7841 109.968 60.9545C109.627 60.1136 109.036 59.4602 108.195 58.9943C107.366 58.5284 106.309 58.2955 105.025 58.2955C103.797 58.2955 102.593 58.517 101.411 58.9602C100.241 59.392 99.2406 60.0227 98.4111 60.8523C97.5815 61.6705 97.0588 62.6591 96.8429 63.8182H92.752C93.1042 62 93.894 60.4034 95.1213 59.0284C96.3486 57.642 97.8429 56.5625 99.6042 55.7898C101.377 55.0057 103.252 54.6136 105.229 54.6136C107.422 54.6136 109.229 55.0682 110.65 55.9773C112.082 56.875 113.104 58.0568 113.718 59.5227C114.332 60.9773 114.502 62.5455 114.229 64.2273C113.922 66.1477 113.133 67.7727 111.86 69.1023C110.587 70.4318 109.036 71.375 107.207 71.9318V72.1364C109.354 72.5114 110.911 73.5 111.877 75.1023C112.854 76.6932 113.161 78.5909 112.797 80.7955C112.479 82.7727 111.712 84.4886 110.496 85.9432C109.28 87.3864 107.741 88.5057 105.877 89.3011C104.013 90.0852 101.934 90.4773 99.6383 90.4773Z" fill="white"/>
</g>
<defs>
<clipPath id="clip0_4417_13661">
<rect width="128" height="128" fill="white"/>
</clipPath>
</defs>
</svg>
