<svg width="128" height="128" viewBox="0 0 128 128" fill="none" xmlns="http://www.w3.org/2000/svg">
<g clip-path="url(#clip0_4417_15009)">
<path d="M128 64C128 99.3462 99.3462 128 64 128C28.6538 128 0 99.3462 0 64C0 28.6538 28.6538 0 64 0C99.3462 0 128 28.6538 128 64Z" fill="#7D0D87"/>
<path d="M99.6384 90.4773C97.3657 90.4773 95.3941 90.0966 93.7237 89.3352C92.0646 88.5625 90.8259 87.4886 90.0078 86.1136C89.1896 84.7273 88.8998 83.1136 89.1384 81.2727H93.3657C93.2634 82.3864 93.4566 83.3523 93.9453 84.1705C94.4453 84.9886 95.1839 85.6193 96.1612 86.0625C97.1498 86.5057 98.3316 86.7273 99.7066 86.7273C101.173 86.7273 102.548 86.4716 103.832 85.9602C105.127 85.4489 106.212 84.7102 107.087 83.7443C107.962 82.7671 108.502 81.6023 108.707 80.25C108.888 79.0341 108.752 77.9546 108.298 77.0114C107.843 76.0682 107.059 75.3296 105.945 74.7955C104.843 74.25 103.4 73.9773 101.616 73.9773H98.7521L99.3657 70.2273H102.025C103.411 70.2273 104.684 69.9659 105.843 69.4432C107.002 68.9205 107.968 68.1875 108.741 67.2443C109.513 66.2898 110.002 65.1705 110.207 63.8864C110.4 62.7614 110.32 61.7841 109.968 60.9546C109.627 60.1136 109.036 59.4602 108.195 58.9943C107.366 58.5284 106.309 58.2955 105.025 58.2955C103.798 58.2955 102.593 58.5171 101.411 58.9602C100.241 59.3921 99.2407 60.0227 98.4112 60.8523C97.5816 61.6705 97.0589 62.6591 96.843 63.8182H92.7521C93.1044 62 93.8941 60.4034 95.1214 59.0284C96.3487 57.6421 97.843 56.5625 99.6044 55.7898C101.377 55.0057 103.252 54.6136 105.229 54.6136C107.423 54.6136 109.229 55.0682 110.65 55.9773C112.082 56.875 113.104 58.0568 113.718 59.5227C114.332 60.9773 114.502 62.5455 114.229 64.2273C113.923 66.1477 113.133 67.7727 111.86 69.1023C110.587 70.4318 109.036 71.375 107.207 71.9318V72.1364C109.354 72.5114 110.911 73.5 111.877 75.1023C112.854 76.6932 113.161 78.5909 112.798 80.7955C112.479 82.7727 111.712 84.4886 110.496 85.9432C109.28 87.3864 107.741 88.5057 105.877 89.3011C104.013 90.0852 101.934 90.4773 99.6384 90.4773Z" fill="white"/>
<path d="M85.0377 90.2727C84.1741 90.2727 83.4525 89.9773 82.873 89.3863C82.2934 88.7841 81.9923 88.0568 81.9695 87.2045C81.9582 86.3523 82.2593 85.642 82.873 85.0738C83.4866 84.4943 84.2082 84.2045 85.0377 84.2045C85.8786 84.2045 86.6059 84.5 87.2195 85.0909C87.8332 85.6818 88.1286 86.3863 88.1059 87.2045C88.0945 87.7727 87.9468 88.2898 87.6627 88.7557C87.39 89.2216 87.0207 89.5909 86.5548 89.8636C86.1002 90.1363 85.5945 90.2727 85.0377 90.2727Z" fill="white"/>
<path d="M48.2339 90L49.0293 85.5256L68.8163 67.1307C71.1363 64.9763 73.067 63.0954 74.6082 61.4879C76.1659 59.8805 77.3757 58.3724 78.2374 56.9638C79.1158 55.5552 79.6875 54.072 79.9526 52.5142C80.2509 50.7244 80.0935 49.175 79.4803 47.8658C78.8672 46.5566 77.8977 45.5457 76.572 44.8331C75.2462 44.1205 73.6553 43.7642 71.7992 43.7642C69.8437 43.7642 68.0622 44.1702 66.4548 44.9823C64.8473 45.7777 63.5132 46.9046 62.4526 48.3629C61.392 49.8047 60.696 51.4868 60.3646 53.4091H54.4981C54.9952 50.4261 56.1304 47.8078 57.9036 45.554C59.6934 43.3002 61.8892 41.5436 64.491 40.2841C67.1094 39.0246 69.91 38.3949 72.893 38.3949C75.8759 38.3949 78.4032 39.0246 80.4747 40.2841C82.5461 41.5436 84.0459 43.2422 84.9739 45.38C85.902 47.5178 86.1506 49.8958 85.7197 52.5142C85.3882 54.4034 84.7336 56.2346 83.7559 58.0078C82.7782 59.781 81.2784 61.7614 79.2566 63.9489C77.2514 66.1198 74.5336 68.7713 71.1032 71.9034L57.6799 84.1335L57.5805 84.5313H81.2453L80.3504 90H48.2339Z" fill="white"/>
<path d="M14.251 90L15.0464 85.5256L34.8334 67.1307C37.1534 64.9763 39.0841 63.0954 40.6253 61.4879C42.183 59.8805 43.3928 58.3724 44.2545 56.9638C45.1328 55.5552 45.7046 54.072 45.9697 52.5142C46.268 50.7244 46.1106 49.175 45.4974 47.8658C44.8843 46.5566 43.9148 45.5457 42.589 44.8331C41.2633 44.1205 39.6724 43.7642 37.8163 43.7642C35.8608 43.7642 34.0793 44.1702 32.4719 44.9823C30.8644 45.7777 29.5303 46.9046 28.4697 48.3629C27.4091 49.8047 26.7131 51.4868 26.3817 53.4091H20.5152C21.0123 50.4261 22.1475 47.8078 23.9207 45.554C25.7105 43.3002 27.9063 41.5436 30.5081 40.2841C33.1264 39.0246 35.9271 38.3949 38.9101 38.3949C41.893 38.3949 44.4202 39.0246 46.4917 40.2841C48.5632 41.5436 50.063 43.2422 50.991 45.38C51.9191 47.5178 52.1676 49.8958 51.7368 52.5142C51.4053 54.4034 50.7507 56.2346 49.773 58.0078C48.7952 59.781 47.2955 61.7614 45.2737 63.9489C43.2685 66.1198 40.5507 68.7713 37.1203 71.9034L23.697 84.1335L23.5976 84.5313H47.2623L46.3675 90H14.251Z" fill="white"/>
</g>
<defs>
<clipPath id="clip0_4417_15009">
<rect width="128" height="128" fill="white"/>
</clipPath>
</defs>
</svg>
