<svg width="128" height="128" viewBox="0 0 128 128" fill="none" xmlns="http://www.w3.org/2000/svg">
<g clip-path="url(#clip0_4417_15010)">
<path d="M128 64C128 99.3462 99.3462 128 64 128C28.6538 128 0 99.3462 0 64C0 28.6538 28.6538 0 64 0C99.3462 0 128 28.6538 128 64Z" fill="#830D87"/>
<path d="M88.6548 82.8409L89.2002 79.3637L108.564 55.0909H111.087L110.2 60.4773H108.496L93.8366 78.8182V79.0909H114.496L113.882 82.8409H88.6548ZM103.859 90L105.223 81.75L105.496 80.1819L109.655 55.0909H113.678L107.882 90H103.859Z" fill="white"/>
<path d="M84.2643 90.2727C83.4007 90.2727 82.6791 89.9773 82.0995 89.3863C81.52 88.7841 81.2188 88.0568 81.1961 87.2045C81.1847 86.3523 81.4859 85.642 82.0995 85.0738C82.7132 84.4943 83.4347 84.2045 84.2643 84.2045C85.1052 84.2045 85.8325 84.5 86.4461 85.0909C87.0597 85.6818 87.3552 86.3863 87.3325 87.2045C87.3211 87.7727 87.1734 88.2898 86.8893 88.7557C86.6166 89.2216 86.2472 89.5909 85.7813 89.8636C85.3268 90.1363 84.8211 90.2727 84.2643 90.2727Z" fill="white"/>
<path d="M47.4604 90L48.2559 85.5256L68.0428 67.1307C70.3629 64.9763 72.2935 63.0954 73.8347 61.4879C75.3925 59.8805 76.6023 58.3724 77.464 56.9638C78.3423 55.5552 78.914 54.072 79.1792 52.5142C79.4775 50.7244 79.3201 49.175 78.7069 47.8658C78.0937 46.5566 77.1243 45.5457 75.7985 44.8331C74.4728 44.1205 72.8818 43.7642 71.0258 43.7642C69.0703 43.7642 67.2888 44.1702 65.6813 44.9823C64.0738 45.7777 62.7398 46.9046 61.6792 48.3629C60.6186 49.8047 59.9226 51.4868 59.5911 53.4091H53.7247C54.2218 50.4261 55.357 47.8078 57.1302 45.554C58.92 43.3002 61.1158 41.5436 63.7176 40.2841C66.3359 39.0246 69.1366 38.3949 72.1195 38.3949C75.1025 38.3949 77.6297 39.0246 79.7012 40.2841C81.7727 41.5436 83.2725 43.2422 84.2005 45.38C85.1285 47.5178 85.3771 49.8958 84.9462 52.5142C84.6148 54.4034 83.9602 56.2346 82.9825 58.0078C82.0047 59.781 80.505 61.7614 78.4832 63.9489C76.478 66.1198 73.7602 68.7713 70.3298 71.9034L56.9065 84.1335L56.807 84.5313H80.4718L79.5769 90H47.4604Z" fill="white"/>
<path d="M13.4775 90L14.273 85.5256L34.0599 67.1307C36.38 64.9763 38.3106 63.0954 39.8518 61.4879C41.4096 59.8805 42.6194 58.3724 43.4811 56.9638C44.3594 55.5552 44.9311 54.072 45.1963 52.5142C45.4946 50.7244 45.3372 49.175 44.724 47.8658C44.1108 46.5566 43.1414 45.5457 41.8156 44.8331C40.4898 44.1205 38.8989 43.7642 37.0429 43.7642C35.0874 43.7642 33.3059 44.1702 31.6984 44.9823C30.0909 45.7777 28.7569 46.9046 27.6963 48.3629C26.6357 49.8047 25.9397 51.4868 25.6082 53.4091H19.7417C20.2389 50.4261 21.3741 47.8078 23.1473 45.554C24.9371 43.3002 27.1328 41.5436 29.7346 40.2841C32.353 39.0246 35.1537 38.3949 38.1366 38.3949C41.1196 38.3949 43.6468 39.0246 45.7183 40.2841C47.7898 41.5436 49.2896 43.2422 50.2176 45.38C51.1456 47.5178 51.3942 49.8958 50.9633 52.5142C50.6319 54.4034 49.9773 56.2346 48.9996 58.0078C48.0218 59.781 46.522 61.7614 44.5003 63.9489C42.4951 66.1198 39.7773 68.7713 36.3469 71.9034L22.9236 84.1335L22.8241 84.5313H46.4889L45.594 90H13.4775Z" fill="white"/>
</g>
<defs>
<clipPath id="clip0_4417_15010">
<rect width="128" height="128" fill="white"/>
</clipPath>
</defs>
</svg>
