<svg width="128" height="128" viewBox="0 0 128 128" fill="none" xmlns="http://www.w3.org/2000/svg">
<g clip-path="url(#clip0_4417_13658)">
<circle cx="64" cy="64" r="64" fill="#830D87"/>
<path d="M13.4774 90L14.2729 85.5256L34.0598 67.1307C36.3799 64.9763 38.3105 63.0954 39.8517 61.4879C41.4095 59.8804 42.6193 58.3724 43.481 56.9638C44.3593 55.5552 44.931 54.072 45.1962 52.5142C45.4945 50.7244 45.3371 49.175 44.7239 47.8658C44.1107 46.5566 43.1413 45.5457 41.8155 44.8331C40.4898 44.1205 38.8988 43.7642 37.0428 43.7642C35.0873 43.7642 33.3058 44.1702 31.6983 44.9822C30.0908 45.7777 28.7568 46.9046 27.6962 48.3629C26.6356 49.8047 25.9396 51.4867 25.6081 53.4091H19.7416C20.2388 50.4261 21.374 47.8078 23.1472 45.554C24.937 43.3002 27.1327 41.5436 29.7345 40.2841C32.3529 39.0246 35.1536 38.3949 38.1365 38.3949C41.1195 38.3949 43.6467 39.0246 45.7182 40.2841C47.7897 41.5436 49.2895 43.2422 50.2175 45.38C51.1455 47.5178 51.3941 49.8958 50.9632 52.5142C50.6318 54.4034 49.9772 56.2346 48.9995 58.0078C48.0217 59.781 46.522 61.7614 44.5002 63.9489C42.495 66.1198 39.7772 68.7713 36.3468 71.9034L22.9235 84.1335L22.824 84.5312H46.4888L45.5939 90H13.4774ZM47.4603 90L48.2557 85.5256L68.0426 67.1307C70.3627 64.9763 72.2934 63.0954 73.8345 61.4879C75.3923 59.8804 76.6021 58.3724 77.4638 56.9638C78.3421 55.5552 78.9139 54.072 79.179 52.5142C79.4773 50.7244 79.3199 49.175 78.7067 47.8658C78.0935 46.5566 77.1241 45.5457 75.7983 44.8331C74.4726 44.1205 72.8817 43.7642 71.0256 43.7642C69.0701 43.7642 67.2886 44.1702 65.6811 44.9822C64.0737 45.7777 62.7396 46.9046 61.679 48.3629C60.6184 49.8047 59.9224 51.4867 59.5909 53.4091H53.7245C54.2216 50.4261 55.3568 47.8078 57.13 45.554C58.9198 43.3002 61.1156 41.5436 63.7174 40.2841C66.3357 39.0246 69.1364 38.3949 72.1193 38.3949C75.1023 38.3949 77.6295 39.0246 79.701 40.2841C81.7725 41.5436 83.2723 43.2422 84.2003 45.38C85.1283 47.5178 85.3769 49.8958 84.9461 52.5142C84.6146 54.4034 83.96 56.2346 82.9823 58.0078C82.0045 59.781 80.5048 61.7614 78.483 63.9489C76.4778 66.1198 73.76 68.7713 70.3296 71.9034L56.9063 84.1335L56.8068 84.5312H80.4716L79.5767 90H47.4603ZM84.2641 90.2727C83.4005 90.2727 82.6789 89.9773 82.0993 89.3864C81.5198 88.7841 81.2186 88.0568 81.1959 87.2045C81.1845 86.3523 81.4857 85.642 82.0993 85.0739C82.713 84.4943 83.4345 84.2045 84.2641 84.2045C85.105 84.2045 85.8323 84.5 86.4459 85.0909C87.0595 85.6818 87.355 86.3864 87.3323 87.2045C87.3209 87.7727 87.1732 88.2898 86.8891 88.7557C86.6164 89.2216 86.247 89.5909 85.7811 89.8636C85.3266 90.1364 84.8209 90.2727 84.2641 90.2727ZM88.6547 82.8409L89.2001 79.3636L108.564 55.0909H111.086L110.2 60.4773H108.496L93.8365 78.8182V79.0909H114.496L113.882 82.8409H88.6547ZM103.859 90L105.223 81.75L105.496 80.1818L109.655 55.0909H113.677L107.882 90H103.859Z" fill="white"/>
</g>
<defs>
<clipPath id="clip0_4417_13658">
<rect width="128" height="128" fill="white"/>
</clipPath>
</defs>
</svg>
