<svg width="128" height="128" viewBox="0 0 128 128" fill="none" xmlns="http://www.w3.org/2000/svg">
<g clip-path="url(#clip0_4417_13759)">
<circle cx="64" cy="64" r="64" fill="#890E87"/>
<path d="M14.1259 90L14.9213 85.5256L34.7083 67.1307C37.0283 64.9763 38.959 63.0954 40.5002 61.4879C42.0579 59.8804 43.2677 58.3724 44.1294 56.9638C45.0077 55.5552 45.5795 54.072 45.8446 52.5142C46.1429 50.7244 45.9855 49.175 45.3723 47.8658C44.7592 46.5566 43.7897 45.5457 42.4639 44.8331C41.1382 44.1205 39.5473 43.7642 37.6912 43.7642C35.7357 43.7642 33.9542 44.1702 32.3468 44.9822C30.7393 45.7777 29.4052 46.9046 28.3446 48.3629C27.284 49.8047 26.588 51.4867 26.2566 53.4091H20.3901C20.8872 50.4261 22.0224 47.8078 23.7956 45.554C25.5854 43.3002 27.7812 41.5436 30.383 40.2841C33.0014 39.0246 35.802 38.3949 38.785 38.3949C41.7679 38.3949 44.2952 39.0246 46.3666 40.2841C48.4381 41.5436 49.9379 43.2422 50.8659 45.38C51.794 47.5178 52.0425 49.8958 51.6117 52.5142C51.2802 54.4034 50.6256 56.2346 49.6479 58.0078C48.6702 59.781 47.1704 61.7614 45.1486 63.9489C43.1434 66.1198 40.4256 68.7713 36.9952 71.9034L23.5719 84.1335L23.4725 84.5312H47.1372L46.2424 90H14.1259ZM48.1087 90L48.9041 85.5256L68.6911 67.1307C71.0112 64.9763 72.9418 63.0954 74.483 61.4879C76.0407 59.8804 77.2505 58.3724 78.1122 56.9638C78.9906 55.5552 79.5623 54.072 79.8274 52.5142C80.1257 50.7244 79.9683 49.175 79.3551 47.8658C78.742 46.5566 77.7725 45.5457 76.4468 44.8331C75.121 44.1205 73.5301 43.7642 71.674 43.7642C69.7185 43.7642 67.9371 44.1702 66.3296 44.9822C64.7221 45.7777 63.388 46.9046 62.3274 48.3629C61.2668 49.8047 60.5708 51.4867 60.2394 53.4091H54.3729C54.8701 50.4261 56.0052 47.8078 57.7784 45.554C59.5682 43.3002 61.764 41.5436 64.3658 40.2841C66.9842 39.0246 69.7848 38.3949 72.7678 38.3949C75.7507 38.3949 78.278 39.0246 80.3495 40.2841C82.421 41.5436 83.9207 43.2422 84.8487 45.38C85.7768 47.5178 86.0254 49.8958 85.5945 52.5142C85.263 54.4034 84.6085 56.2346 83.6307 58.0078C82.653 59.781 81.1532 61.7614 79.1314 63.9489C77.1262 66.1198 74.4084 68.7713 70.978 71.9034L57.5547 84.1335L57.4553 84.5312H81.1201L80.2252 90H48.1087ZM84.9125 90.2727C84.0489 90.2727 83.3273 89.9773 82.7478 89.3864C82.1682 88.7841 81.8671 88.0568 81.8443 87.2045C81.833 86.3523 82.1341 85.642 82.7478 85.0739C83.3614 84.4943 84.083 84.2045 84.9125 84.2045C85.7534 84.2045 86.4807 84.5 87.0943 85.0909C87.708 85.6818 88.0034 86.3864 87.9807 87.2045C87.9693 87.7727 87.8216 88.2898 87.5375 88.7557C87.2648 89.2216 86.8955 89.5909 86.4296 89.8636C85.975 90.1364 85.4693 90.2727 84.9125 90.2727ZM99.0318 90.4773C97.0318 90.4773 95.2932 90.0795 93.8159 89.2841C92.3386 88.4886 91.2307 87.3977 90.492 86.0114C89.7534 84.625 89.4863 83.0455 89.6909 81.2727H93.7818C93.6795 82.8409 94.1852 84.142 95.2988 85.1761C96.4238 86.2102 97.8727 86.7273 99.6454 86.7273C101.077 86.7273 102.407 86.392 103.634 85.7216C104.873 85.0511 105.907 84.1307 106.736 82.9602C107.577 81.7898 108.123 80.4545 108.373 78.9545C108.623 77.4318 108.515 76.0682 108.049 74.8636C107.583 73.6591 106.827 72.7102 105.782 72.017C104.736 71.3239 103.464 70.9773 101.964 70.9773C100.907 70.9773 99.7875 71.1477 98.6057 71.4886C97.4352 71.8182 96.4409 72.2386 95.6227 72.75L91.7363 72.2727L96.7136 55.0909H114.85L114.236 58.8409H99.6454L96.7136 69.1364H96.9182C97.7363 68.5568 98.7079 68.0852 99.8329 67.7216C100.969 67.3466 102.134 67.1591 103.327 67.1591C105.464 67.1591 107.282 67.6705 108.782 68.6932C110.293 69.7045 111.378 71.0966 112.037 72.8693C112.708 74.6307 112.85 76.6364 112.464 78.8864C112.1 81.1136 111.276 83.1023 109.992 84.8523C108.719 86.5909 107.128 87.9659 105.219 88.9773C103.322 89.9773 101.259 90.4773 99.0318 90.4773Z" fill="white"/>
</g>
<defs>
<clipPath id="clip0_4417_13759">
<rect width="128" height="128" fill="white"/>
</clipPath>
</defs>
</svg>
