<svg width="128" height="128" viewBox="0 0 128 128" fill="none" xmlns="http://www.w3.org/2000/svg">
<g clip-path="url(#clip0_4417_15012)">
<path d="M128 64C128 99.3462 99.3462 128 64 128C28.6538 128 0 99.3462 0 64C0 28.6538 28.6538 0 64 0C99.3462 0 128 28.6538 128 64Z" fill="#950F8D"/>
<path d="M99.8536 90.4773C98.3877 90.4659 96.9672 90.1875 95.5922 89.6421C94.2172 89.0966 93.0297 88.1932 92.0297 86.9318C91.0297 85.6591 90.3422 83.9375 89.9672 81.7671C89.6036 79.5966 89.6945 76.8864 90.2399 73.6364C90.7513 70.5796 91.4842 67.875 92.4388 65.5227C93.4047 63.1591 94.5581 61.1705 95.899 59.5568C97.2399 57.9318 98.7456 56.7046 100.416 55.875C102.098 55.0341 103.91 54.6136 105.854 54.6136C107.785 54.6136 109.462 55.0057 110.882 55.7898C112.314 56.5625 113.416 57.6421 114.189 59.0284C114.973 60.4034 115.354 62 115.331 63.8182H111.308C111.251 62.2273 110.768 60.9205 109.859 59.8977C108.962 58.875 107.581 58.3636 105.717 58.3636C103.013 58.3636 100.649 59.5171 98.6263 61.8239C96.6036 64.1307 95.2172 67.5 94.4672 71.9318L94.7399 71.6591C95.5354 70.7046 96.4161 69.8921 97.382 69.2216C98.3479 68.5511 99.3763 68.0398 100.467 67.6875C101.569 67.3352 102.706 67.1591 103.876 67.1591C105.922 67.1591 107.712 67.6705 109.246 68.6932C110.78 69.7159 111.91 71.1193 112.638 72.9034C113.365 74.6875 113.535 76.7273 113.149 79.0227C112.785 81.1364 111.99 83.0682 110.763 84.8182C109.547 86.5568 108.001 87.9432 106.126 88.9773C104.263 90 102.172 90.5 99.8536 90.4773ZM99.9899 86.7273C101.444 86.7273 102.819 86.358 104.115 85.6193C105.41 84.8807 106.507 83.8864 107.405 82.6364C108.302 81.3864 108.876 80 109.126 78.4773C109.354 77.0909 109.251 75.8239 108.819 74.6761C108.388 73.5284 107.689 72.6136 106.723 71.9318C105.757 71.25 104.581 70.9091 103.194 70.9091C102.092 70.9091 101.018 71.1307 99.9729 71.5739C98.9388 72.0171 97.9956 72.625 97.1433 73.3977C96.3024 74.1591 95.5979 75.0284 95.0297 76.0057C94.4615 76.983 94.0922 78.0114 93.9217 79.0909C93.6945 80.4318 93.7967 81.6818 94.2286 82.8409C94.6604 84 95.3706 84.9375 96.3592 85.6534C97.3479 86.3693 98.5581 86.7273 99.9899 86.7273Z" fill="white"/>
<path d="M85.2955 90.2727C84.4319 90.2727 83.7103 89.9773 83.1308 89.3863C82.5512 88.7841 82.2501 88.0568 82.2274 87.2045C82.216 86.3523 82.5171 85.642 83.1308 85.0738C83.7444 84.4943 84.466 84.2045 85.2955 84.2045C86.1364 84.2045 86.8637 84.5 87.4774 85.0909C88.091 85.6818 88.3864 86.3863 88.3637 87.2045C88.3524 87.7727 88.2046 88.2898 87.9205 88.7557C87.6478 89.2216 87.2785 89.5909 86.8126 89.8636C86.358 90.1363 85.8524 90.2727 85.2955 90.2727Z" fill="white"/>
<path d="M48.4917 90L49.2872 85.5256L69.0741 67.1307C71.3942 64.9763 73.3248 63.0954 74.866 61.4879C76.4238 59.8805 77.6335 58.3724 78.4953 56.9638C79.3736 55.5552 79.9453 54.072 80.2104 52.5142C80.5087 50.7244 80.3513 49.175 79.7381 47.8658C79.125 46.5566 78.1555 45.5457 76.8298 44.8331C75.504 44.1205 73.9131 43.7642 72.057 43.7642C70.1015 43.7642 68.3201 44.1702 66.7126 44.9823C65.1051 45.7777 63.7711 46.9046 62.7104 48.3629C61.6498 49.8047 60.9538 51.4868 60.6224 53.4091H54.7559C55.2531 50.4261 56.3882 47.8078 58.1614 45.554C59.9512 43.3002 62.147 41.5436 64.7488 40.2841C67.3672 39.0246 70.1678 38.3949 73.1508 38.3949C76.1337 38.3949 78.661 39.0246 80.7325 40.2841C82.804 41.5436 84.3037 43.2422 85.2318 45.38C86.1598 47.5178 86.4084 49.8958 85.9775 52.5142C85.6461 54.4034 84.9915 56.2346 84.0137 58.0078C83.036 59.781 81.5362 61.7614 79.5144 63.9489C77.5092 66.1198 74.7914 68.7713 71.361 71.9034L57.9377 84.1335L57.8383 84.5313H81.5031L80.6082 90H48.4917Z" fill="white"/>
<path d="M14.5088 90L15.3042 85.5256L35.0912 67.1307C37.4113 64.9763 39.3419 63.0954 40.8831 61.4879C42.4408 59.8805 43.6506 58.3724 44.5123 56.9638C45.3907 55.5552 45.9624 54.072 46.2275 52.5142C46.5258 50.7244 46.3684 49.175 45.7552 47.8658C45.1421 46.5566 44.1726 45.5457 42.8469 44.8331C41.5211 44.1205 39.9302 43.7642 38.0741 43.7642C36.1186 43.7642 34.3372 44.1702 32.7297 44.9823C31.1222 45.7777 29.7881 46.9046 28.7275 48.3629C27.6669 49.8047 26.9709 51.4868 26.6395 53.4091H20.773C21.2702 50.4261 22.4053 47.8078 24.1785 45.554C25.9683 43.3002 28.1641 41.5436 30.7659 40.2841C33.3843 39.0246 36.1849 38.3949 39.1679 38.3949C42.1508 38.3949 44.6781 39.0246 46.7496 40.2841C48.821 41.5436 50.3208 43.2422 51.2488 45.38C52.1769 47.5178 52.4255 49.8958 51.9946 52.5142C51.6631 54.4034 51.0085 56.2346 50.0308 58.0078C49.0531 59.781 47.5533 61.7614 45.5315 63.9489C43.5263 66.1198 40.8085 68.7713 37.3781 71.9034L23.9548 84.1335L23.8554 84.5313H47.5202L46.6253 90H14.5088Z" fill="white"/>
</g>
<defs>
<clipPath id="clip0_4417_15012">
<rect width="128" height="128" fill="white"/>
</clipPath>
</defs>
</svg>
