<svg width="128" height="128" viewBox="0 0 128 128" fill="none" xmlns="http://www.w3.org/2000/svg">
<g clip-path="url(#clip0_4417_13655)">
<circle cx="64" cy="64" r="64" fill="#950F8D"/>
<path d="M14.5087 90L15.3041 85.5256L35.0911 67.1307C37.4112 64.9763 39.3418 63.0954 40.883 61.4879C42.4407 59.8804 43.6505 58.3724 44.5122 56.9638C45.3906 55.5552 45.9623 54.072 46.2274 52.5142C46.5257 50.7244 46.3683 49.175 45.7551 47.8658C45.142 46.5566 44.1725 45.5457 42.8468 44.8331C41.521 44.1205 39.9301 43.7642 38.074 43.7642C36.1185 43.7642 34.3371 44.1702 32.7296 44.9822C31.1221 45.7777 29.788 46.9046 28.7274 48.3629C27.6668 49.8047 26.9708 51.4867 26.6394 53.4091H20.7729C21.2701 50.4261 22.4052 47.8078 24.1784 45.554C25.9682 43.3002 28.164 41.5436 30.7658 40.2841C33.3842 39.0246 36.1848 38.3949 39.1678 38.3949C42.1507 38.3949 44.678 39.0246 46.7495 40.2841C48.821 41.5436 50.3207 43.2422 51.2487 45.38C52.1768 47.5178 52.4254 49.8958 51.9945 52.5142C51.663 54.4034 51.0085 56.2346 50.0307 58.0078C49.053 59.781 47.5532 61.7614 45.5314 63.9489C43.5262 66.1198 40.8084 68.7713 37.378 71.9034L23.9547 84.1335L23.8553 84.5312H47.5201L46.6252 90H14.5087ZM48.4915 90L49.287 85.5256L69.0739 67.1307C71.394 64.9763 73.3246 63.0954 74.8658 61.4879C76.4236 59.8804 77.6333 58.3724 78.4951 56.9638C79.3734 55.5552 79.9451 54.072 80.2103 52.5142C80.5085 50.7244 80.3511 49.175 79.738 47.8658C79.1248 46.5566 78.1553 45.5457 76.8296 44.8331C75.5038 44.1205 73.9129 43.7642 72.0568 43.7642C70.1014 43.7642 68.3199 44.1702 66.7124 44.9822C65.1049 45.7777 63.7709 46.9046 62.7103 48.3629C61.6496 49.8047 60.9536 51.4867 60.6222 53.4091H54.7557C55.2529 50.4261 56.388 47.8078 58.1612 45.554C59.951 43.3002 62.1468 41.5436 64.7486 40.2841C67.367 39.0246 70.1676 38.3949 73.1506 38.3949C76.1335 38.3949 78.6608 39.0246 80.7323 40.2841C82.8038 41.5436 84.3035 43.2422 85.2316 45.38C86.1596 47.5178 86.4082 49.8958 85.9773 52.5142C85.6459 54.4034 84.9913 56.2346 84.0135 58.0078C83.0358 59.781 81.536 61.7614 79.5142 63.9489C77.509 66.1198 74.7912 68.7713 71.3608 71.9034L57.9375 84.1335L57.8381 84.5312H81.5029L80.608 90H48.4915ZM85.2953 90.2727C84.4317 90.2727 83.7101 89.9773 83.1306 89.3864C82.551 88.7841 82.2499 88.0568 82.2272 87.2045C82.2158 86.3523 82.5169 85.642 83.1306 85.0739C83.7442 84.4943 84.4658 84.2045 85.2953 84.2045C86.1362 84.2045 86.8635 84.5 87.4772 85.0909C88.0908 85.6818 88.3862 86.3864 88.3635 87.2045C88.3522 87.7727 88.2044 88.2898 87.9203 88.7557C87.6476 89.2216 87.2783 89.5909 86.8124 89.8636C86.3578 90.1364 85.8522 90.2727 85.2953 90.2727ZM99.8535 90.4773C98.3876 90.4659 96.9672 90.1875 95.5922 89.642C94.2172 89.0966 93.0297 88.1932 92.0297 86.9318C91.0297 85.6591 90.3422 83.9375 89.9672 81.767C89.6035 79.5966 89.6944 76.8864 90.2399 73.6364C90.7513 70.5795 91.4842 67.875 92.4388 65.5227C93.4047 63.1591 94.5581 61.1705 95.899 59.5568C97.2399 57.9318 98.7456 56.7045 100.416 55.875C102.098 55.0341 103.91 54.6136 105.854 54.6136C107.785 54.6136 109.461 55.0057 110.882 55.7898C112.314 56.5625 113.416 57.642 114.189 59.0284C114.973 60.4034 115.354 62 115.331 63.8182H111.308C111.251 62.2273 110.768 60.9205 109.859 59.8977C108.961 58.875 107.581 58.3636 105.717 58.3636C103.013 58.3636 100.649 59.517 98.6263 61.8239C96.6035 64.1307 95.2172 67.5 94.4672 71.9318L94.7399 71.6591C95.5353 70.7045 96.416 69.892 97.3819 69.2216C98.3478 68.5511 99.3763 68.0398 100.467 67.6875C101.569 67.3352 102.706 67.1591 103.876 67.1591C105.922 67.1591 107.711 67.6705 109.246 68.6932C110.78 69.7159 111.91 71.1193 112.638 72.9034C113.365 74.6875 113.535 76.7273 113.149 79.0227C112.785 81.1364 111.99 83.0682 110.763 84.8182C109.547 86.5568 108.001 87.9432 106.126 88.9773C104.263 90 102.172 90.5 99.8535 90.4773ZM99.9899 86.7273C101.444 86.7273 102.819 86.358 104.115 85.6193C105.41 84.8807 106.507 83.8864 107.405 82.6364C108.302 81.3864 108.876 80 109.126 78.4773C109.354 77.0909 109.251 75.8239 108.819 74.6761C108.388 73.5284 107.689 72.6136 106.723 71.9318C105.757 71.25 104.581 70.9091 103.194 70.9091C102.092 70.9091 101.018 71.1307 99.9728 71.5739C98.9388 72.017 97.9956 72.625 97.1433 73.3977C96.3024 74.1591 95.5978 75.0284 95.0297 76.0057C94.4615 76.983 94.0922 78.0114 93.9217 79.0909C93.6944 80.4318 93.7967 81.6818 94.2285 82.8409C94.6603 84 95.3706 84.9375 96.3592 85.6534C97.3478 86.3693 98.5581 86.7273 99.9899 86.7273Z" fill="white"/>
</g>
<defs>
<clipPath id="clip0_4417_13655">
<rect width="128" height="128" fill="white"/>
</clipPath>
</defs>
</svg>
