<svg width="128" height="128" viewBox="0 0 128 128" fill="none" xmlns="http://www.w3.org/2000/svg">
<g clip-path="url(#clip0_4417_13652)">
<circle cx="64" cy="64" r="64" fill="#A01093"/>
<path d="M15.5165 90L16.312 85.5256L36.0989 67.1307C38.419 64.9763 40.3496 63.0954 41.8908 61.4879C43.4486 59.8804 44.6583 58.3724 45.5201 56.9638C46.3984 55.5552 46.9701 54.072 47.2353 52.5142C47.5336 50.7244 47.3761 49.175 46.763 47.8658C46.1498 46.5566 45.1803 45.5457 43.8546 44.8331C42.5288 44.1205 40.9379 43.7642 39.0818 43.7642C37.1264 43.7642 35.3449 44.1702 33.7374 44.9822C32.1299 45.7777 30.7959 46.9046 29.7353 48.3629C28.6746 49.8047 27.9786 51.4867 27.6472 53.4091H21.7807C22.2779 50.4261 23.413 47.8078 25.1862 45.554C26.976 43.3002 29.1718 41.5436 31.7736 40.2841C34.392 39.0246 37.1926 38.3949 40.1756 38.3949C43.1586 38.3949 45.6858 39.0246 47.7573 40.2841C49.8288 41.5436 51.3285 43.2422 52.2566 45.38C53.1846 47.5178 53.4332 49.8958 53.0023 52.5142C52.6709 54.4034 52.0163 56.2346 51.0385 58.0078C50.0608 59.781 48.561 61.7614 46.5392 63.9489C44.534 66.1198 41.8162 68.7713 38.3858 71.9034L24.9625 84.1335L24.8631 84.5312H48.5279L47.633 90H15.5165ZM49.4993 90L50.2948 85.5256L70.0817 67.1307C72.4018 64.9763 74.3324 63.0954 75.8736 61.4879C77.4314 59.8804 78.6411 58.3724 79.5029 56.9638C80.3812 55.5552 80.9529 54.072 81.2181 52.5142C81.5164 50.7244 81.3589 49.175 80.7458 47.8658C80.1326 46.5566 79.1631 45.5457 77.8374 44.8331C76.5116 44.1205 74.9207 43.7642 73.0647 43.7642C71.1092 43.7642 69.3277 44.1702 67.7202 44.9822C66.1127 45.7777 64.7787 46.9046 63.7181 48.3629C62.6575 49.8047 61.9614 51.4867 61.63 53.4091H55.7635C56.2607 50.4261 57.3959 47.8078 59.1691 45.554C60.9588 43.3002 63.1546 41.5436 65.7564 40.2841C68.3748 39.0246 71.1755 38.3949 74.1584 38.3949C77.1414 38.3949 79.6686 39.0246 81.7401 40.2841C83.8116 41.5436 85.3113 43.2422 86.2394 45.38C87.1674 47.5178 87.416 49.8958 86.9851 52.5142C86.6537 54.4034 85.9991 56.2346 85.0213 58.0078C84.0436 59.781 82.5438 61.7614 80.522 63.9489C78.5168 66.1198 75.799 68.7713 72.3686 71.9034L58.9453 84.1335L58.8459 84.5312H82.5107L81.6158 90H49.4993ZM86.3031 90.2727C85.4395 90.2727 84.7179 89.9773 84.1384 89.3864C83.5588 88.7841 83.2577 88.0568 83.235 87.2045C83.2236 86.3523 83.5247 85.642 84.1384 85.0739C84.752 84.4943 85.4736 84.2045 86.3031 84.2045C87.1441 84.2045 87.8713 84.5 88.485 85.0909C89.0986 85.6818 89.3941 86.3864 89.3713 87.2045C89.36 87.7727 89.2122 88.2898 88.9281 88.7557C88.6554 89.2216 88.2861 89.5909 87.8202 89.8636C87.3656 90.1364 86.86 90.2727 86.3031 90.2727ZM90.6724 90L111.4 59.1136L111.468 58.8409H93.4679L94.0815 55.0909H116.445L115.763 59.0455L95.1042 90H90.6724Z" fill="white"/>
</g>
<defs>
<clipPath id="clip0_4417_13652">
<rect width="128" height="128" fill="white"/>
</clipPath>
</defs>
</svg>
