<svg width="128" height="128" viewBox="0 0 128 128" fill="none" xmlns="http://www.w3.org/2000/svg">
<g clip-path="url(#clip0_4417_15013)">
<path d="M128 64C128 99.3462 99.3462 128 64 128C28.6538 128 0 99.3462 0 64C0 28.6538 28.6538 0 64 0C99.3462 0 128 28.6538 128 64Z" fill="#A01093"/>
<path d="M90.6724 90L111.4 59.1137L111.468 58.8409H93.4678L94.0815 55.0909H116.445L115.763 59.0455L95.1042 90H90.6724Z" fill="white"/>
<path d="M86.3033 90.2727C85.4397 90.2727 84.7181 89.9773 84.1386 89.3863C83.559 88.7841 83.2579 88.0568 83.2352 87.2045C83.2238 86.3523 83.5249 85.642 84.1386 85.0738C84.7522 84.4943 85.4738 84.2045 86.3033 84.2045C87.1443 84.2045 87.8715 84.5 88.4852 85.0909C89.0988 85.6818 89.3943 86.3863 89.3715 87.2045C89.3602 87.7727 89.2124 88.2898 88.9283 88.7557C88.6556 89.2216 88.2863 89.5909 87.8204 89.8636C87.3659 90.1363 86.8602 90.2727 86.3033 90.2727Z" fill="white"/>
<path d="M49.4995 90L50.295 85.5256L70.0819 67.1307C72.402 64.9763 74.3326 63.0954 75.8738 61.4879C77.4316 59.8805 78.6413 58.3724 79.5031 56.9638C80.3814 55.5552 80.9531 54.072 81.2183 52.5142C81.5166 50.7244 81.3591 49.175 80.746 47.8658C80.1328 46.5566 79.1633 45.5457 77.8376 44.8331C76.5118 44.1205 74.9209 43.7642 73.0648 43.7642C71.1094 43.7642 69.3279 44.1702 67.7204 44.9823C66.1129 45.7777 64.7789 46.9046 63.7183 48.3629C62.6577 49.8047 61.9616 51.4868 61.6302 53.4091H55.7637C56.2609 50.4261 57.3961 47.8078 59.1693 45.554C60.959 43.3002 63.1548 41.5436 65.7566 40.2841C68.375 39.0246 71.1756 38.3949 74.1586 38.3949C77.1416 38.3949 79.6688 39.0246 81.7403 40.2841C83.8118 41.5436 85.3115 43.2422 86.2396 45.38C87.1676 47.5178 87.4162 49.8958 86.9853 52.5142C86.6539 54.4034 85.9993 56.2346 85.0215 58.0078C84.0438 59.781 82.544 61.7614 80.5222 63.9489C78.517 66.1198 75.7992 68.7713 72.3688 71.9034L58.9455 84.1335L58.8461 84.5313H82.5109L81.616 90H49.4995Z" fill="white"/>
<path d="M15.5166 90L16.3121 85.5256L36.099 67.1307C38.4191 64.9763 40.3497 63.0954 41.8909 61.4879C43.4487 59.8805 44.6584 58.3724 45.5202 56.9638C46.3985 55.5552 46.9702 54.072 47.2354 52.5142C47.5336 50.7244 47.3762 49.175 46.7631 47.8658C46.1499 46.5566 45.1804 45.5457 43.8547 44.8331C42.5289 44.1205 40.938 43.7642 39.0819 43.7642C37.1265 43.7642 35.345 44.1702 33.7375 44.9823C32.13 45.7777 30.796 46.9046 29.7354 48.3629C28.6747 49.8047 27.9787 51.4868 27.6473 53.4091H21.7808C22.278 50.4261 23.4131 47.8078 25.1863 45.554C26.9761 43.3002 29.1719 41.5436 31.7737 40.2841C34.3921 39.0246 37.1927 38.3949 40.1757 38.3949C43.1586 38.3949 45.6859 39.0246 47.7574 40.2841C49.8289 41.5436 51.3286 43.2422 52.2567 45.38C53.1847 47.5178 53.4333 49.8958 53.0024 52.5142C52.671 54.4034 52.0164 56.2346 51.0386 58.0078C50.0609 59.781 48.5611 61.7614 46.5393 63.9489C44.5341 66.1198 41.8163 68.7713 38.3859 71.9034L24.9626 84.1335L24.8632 84.5313H48.528L47.6331 90H15.5166Z" fill="white"/>
</g>
<defs>
<clipPath id="clip0_4417_15013">
<rect width="128" height="128" fill="white"/>
</clipPath>
</defs>
</svg>
