<svg width="128" height="128" viewBox="0 0 128 128" fill="none" xmlns="http://www.w3.org/2000/svg">
<g clip-path="url(#clip0_4417_13649)">
<circle cx="64" cy="64" r="64" fill="#AB1199"/>
<path d="M14.1259 90L14.9213 85.5256L34.7083 67.1307C37.0283 64.9763 38.959 63.0954 40.5002 61.4879C42.0579 59.8804 43.2677 58.3724 44.1294 56.9638C45.0077 55.5552 45.5795 54.072 45.8446 52.5142C46.1429 50.7244 45.9855 49.175 45.3723 47.8658C44.7592 46.5566 43.7897 45.5457 42.4639 44.8331C41.1382 44.1205 39.5473 43.7642 37.6912 43.7642C35.7357 43.7642 33.9542 44.1702 32.3468 44.9822C30.7393 45.7777 29.4052 46.9046 28.3446 48.3629C27.284 49.8047 26.588 51.4867 26.2566 53.4091H20.3901C20.8872 50.4261 22.0224 47.8078 23.7956 45.554C25.5854 43.3002 27.7812 41.5436 30.383 40.2841C33.0014 39.0246 35.802 38.3949 38.785 38.3949C41.7679 38.3949 44.2952 39.0246 46.3666 40.2841C48.4381 41.5436 49.9379 43.2422 50.8659 45.38C51.794 47.5178 52.0425 49.8958 51.6117 52.5142C51.2802 54.4034 50.6256 56.2346 49.6479 58.0078C48.6702 59.781 47.1704 61.7614 45.1486 63.9489C43.1434 66.1198 40.4256 68.7713 36.9952 71.9034L23.5719 84.1335L23.4725 84.5312H47.1372L46.2424 90H14.1259ZM48.1087 90L48.9041 85.5256L68.6911 67.1307C71.0112 64.9763 72.9418 63.0954 74.483 61.4879C76.0407 59.8804 77.2505 58.3724 78.1122 56.9638C78.9906 55.5552 79.5623 54.072 79.8274 52.5142C80.1257 50.7244 79.9683 49.175 79.3551 47.8658C78.742 46.5566 77.7725 45.5457 76.4468 44.8331C75.121 44.1205 73.5301 43.7642 71.674 43.7642C69.7185 43.7642 67.9371 44.1702 66.3296 44.9822C64.7221 45.7777 63.388 46.9046 62.3274 48.3629C61.2668 49.8047 60.5708 51.4867 60.2394 53.4091H54.3729C54.8701 50.4261 56.0052 47.8078 57.7784 45.554C59.5682 43.3002 61.764 41.5436 64.3658 40.2841C66.9842 39.0246 69.7848 38.3949 72.7678 38.3949C75.7507 38.3949 78.278 39.0246 80.3495 40.2841C82.421 41.5436 83.9207 43.2422 84.8487 45.38C85.7768 47.5178 86.0254 49.8958 85.5945 52.5142C85.263 54.4034 84.6085 56.2346 83.6307 58.0078C82.653 59.781 81.1532 61.7614 79.1314 63.9489C77.1262 66.1198 74.4084 68.7713 70.978 71.9034L57.5547 84.1335L57.4553 84.5312H81.1201L80.2252 90H48.1087ZM84.9125 90.2727C84.0489 90.2727 83.3273 89.9773 82.7478 89.3864C82.1682 88.7841 81.8671 88.0568 81.8443 87.2045C81.833 86.3523 82.1341 85.642 82.7478 85.0739C83.3614 84.4943 84.083 84.2045 84.9125 84.2045C85.7534 84.2045 86.4807 84.5 87.0943 85.0909C87.708 85.6818 88.0034 86.3864 87.9807 87.2045C87.9693 87.7727 87.8216 88.2898 87.5375 88.7557C87.2648 89.2216 86.8955 89.5909 86.4296 89.8636C85.975 90.1364 85.4693 90.2727 84.9125 90.2727ZM99.2022 90.4773C96.8159 90.4773 94.7761 90.0398 93.0829 89.1648C91.4011 88.2784 90.1682 87.0795 89.3841 85.5682C88.6113 84.0568 88.3841 82.3523 88.7022 80.4545C88.9409 79.0227 89.4522 77.6989 90.2363 76.483C91.0204 75.267 91.975 74.25 93.1 73.4318C94.2363 72.6136 95.4522 72.0909 96.7477 71.8636V71.7273C95.1454 71.2841 93.992 70.3011 93.2875 68.7784C92.5943 67.2443 92.4295 65.5227 92.7932 63.6136C93.1341 61.8523 93.8557 60.2955 94.9579 58.9432C96.0602 57.5909 97.4409 56.5341 99.1 55.7727C100.759 55 102.589 54.6136 104.589 54.6136C106.657 54.6136 108.441 55.0341 109.941 55.875C111.441 56.7045 112.543 57.8409 113.248 59.2841C113.964 60.7159 114.168 62.3409 113.861 64.1591C113.532 66.1023 112.719 67.75 111.424 69.1023C110.128 70.4432 108.645 71.3182 106.975 71.7273V71.8636C108.202 72.1136 109.265 72.6761 110.162 73.5511C111.072 74.4261 111.731 75.5114 112.14 76.8068C112.549 78.0909 112.623 79.4886 112.361 81C112.055 82.8523 111.287 84.4943 110.06 85.9261C108.833 87.3466 107.282 88.4602 105.407 89.267C103.543 90.0739 101.475 90.4773 99.2022 90.4773ZM99.3386 86.7273C100.986 86.7273 102.447 86.4602 103.719 85.9261C104.992 85.3807 106.026 84.625 106.822 83.6591C107.628 82.6818 108.134 81.5455 108.339 80.25C108.543 78.9545 108.401 77.8239 107.912 76.858C107.424 75.8807 106.662 75.125 105.628 74.5909C104.594 74.0455 103.361 73.7727 101.93 73.7727C100.407 73.7727 98.9977 74.0739 97.7022 74.6761C96.4068 75.2784 95.3272 76.108 94.4636 77.1648C93.6113 78.2216 93.0772 79.4318 92.8613 80.7955C92.6682 82.0114 92.7988 83.0682 93.2534 83.9659C93.7079 84.8523 94.4522 85.5341 95.4863 86.0114C96.5204 86.4886 97.8045 86.7273 99.3386 86.7273ZM102.066 70.1591C103.395 70.1591 104.606 69.892 105.697 69.358C106.799 68.8239 107.708 68.0852 108.424 67.142C109.151 66.1989 109.623 65.1136 109.839 63.8864C110.055 62.7045 109.969 61.6989 109.583 60.8693C109.208 60.0284 108.589 59.392 107.725 58.9602C106.861 58.517 105.793 58.2955 104.52 58.2955C103.145 58.2955 101.907 58.5511 100.805 59.0625C99.7136 59.5739 98.8159 60.2898 98.1113 61.2102C97.4068 62.1307 96.9522 63.2045 96.7477 64.4318C96.5545 65.625 96.6568 66.6534 97.0545 67.517C97.4522 68.3693 98.0829 69.0227 98.9466 69.4773C99.8216 69.9318 100.861 70.1591 102.066 70.1591Z" fill="white"/>
</g>
<defs>
<clipPath id="clip0_4417_13649">
<rect width="128" height="128" fill="white"/>
</clipPath>
</defs>
</svg>
