<svg width="128" height="128" viewBox="0 0 128 128" fill="none" xmlns="http://www.w3.org/2000/svg">
<g clip-path="url(#clip0_4417_15015)">
<path d="M128 64C128 99.3462 99.3462 128 64 128C28.6538 128 0 99.3462 0 64C0 28.6538 28.6538 0 64 0C99.3462 0 128 28.6538 128 64Z" fill="#B7129F"/>
<path d="M104.776 54.6136C106.242 54.625 107.662 54.9034 109.037 55.4489C110.412 55.983 111.6 56.8807 112.6 58.1421C113.6 59.4034 114.282 61.1137 114.645 63.2727C115.02 65.4205 114.935 68.125 114.39 71.3864C113.878 74.4546 113.14 77.1761 112.174 79.5511C111.219 81.9148 110.072 83.9091 108.731 85.5341C107.39 87.1591 105.878 88.3921 104.197 89.233C102.526 90.0625 100.719 90.4773 98.7761 90.4773C96.8443 90.4773 95.1625 90.0909 93.7306 89.3182C92.3102 88.5341 91.2079 87.4489 90.4238 86.0625C89.6511 84.6648 89.2761 83.0455 89.2988 81.2046H93.3216C93.3897 82.8409 93.867 84.1705 94.7534 85.1932C95.6511 86.2159 97.0375 86.7273 98.9125 86.7273C101.606 86.7273 103.964 85.5739 105.986 83.2671C108.02 80.9489 109.412 77.5568 110.162 73.0909L109.89 73.3636C109.094 74.3182 108.214 75.1307 107.248 75.8011C106.282 76.4716 105.253 76.983 104.162 77.3352C103.072 77.6875 101.935 77.8636 100.753 77.8636C98.7079 77.8636 96.9181 77.3523 95.3841 76.3296C93.85 75.3068 92.7193 73.9034 91.992 72.1193C91.2647 70.3352 91.0943 68.2955 91.4806 66C91.8443 63.8864 92.6341 61.9659 93.85 60.2386C95.0772 58.5 96.6227 57.1193 98.4863 56.0966C100.361 55.0739 102.458 54.5796 104.776 54.6136ZM104.64 58.3636C103.185 58.3636 101.81 58.7273 100.515 59.4546C99.2193 60.1818 98.1227 61.1648 97.225 62.4034C96.3272 63.6421 95.7534 65.0227 95.5034 66.5455C95.2761 67.9318 95.3784 69.1989 95.8102 70.3466C96.242 71.4943 96.9409 72.4091 97.9068 73.0909C98.8727 73.7727 100.049 74.1136 101.435 74.1136C102.549 74.1136 103.623 73.8921 104.657 73.4489C105.691 73.0057 106.628 72.4034 107.469 71.6421C108.322 70.8693 109.032 69.9943 109.6 69.0171C110.168 68.0284 110.537 67 110.708 65.9318C110.935 64.5909 110.833 63.3466 110.401 62.1989C109.969 61.0511 109.259 60.125 108.27 59.4205C107.282 58.7159 106.072 58.3636 104.64 58.3636Z" fill="white"/>
<path d="M84.3502 90.2727C83.4866 90.2727 82.765 89.9773 82.1855 89.3863C81.6059 88.7841 81.3048 88.0568 81.282 87.2045C81.2707 86.3523 81.5718 85.642 82.1855 85.0738C82.7991 84.4943 83.5207 84.2045 84.3502 84.2045C85.1911 84.2045 85.9184 84.5 86.532 85.0909C87.1457 85.6818 87.4411 86.3863 87.4184 87.2045C87.407 87.7727 87.2593 88.2898 86.9752 88.7557C86.7025 89.2216 86.3332 89.5909 85.8673 89.8636C85.4127 90.1363 84.907 90.2727 84.3502 90.2727Z" fill="white"/>
<path d="M47.5464 90L48.3418 85.5256L68.1288 67.1307C70.4488 64.9763 72.3795 63.0954 73.9207 61.4879C75.4784 59.8805 76.6882 58.3724 77.5499 56.9638C78.4283 55.5552 79 54.072 79.2651 52.5142C79.5634 50.7244 79.406 49.175 78.7928 47.8658C78.1797 46.5566 77.2102 45.5457 75.8845 44.8331C74.5587 44.1205 72.9678 43.7642 71.1117 43.7642C69.1562 43.7642 67.3747 44.1702 65.7673 44.9823C64.1598 45.7777 62.8257 46.9046 61.7651 48.3629C60.7045 49.8047 60.0085 51.4868 59.6771 53.4091H53.8106C54.3077 50.4261 55.4429 47.8078 57.2161 45.554C59.0059 43.3002 61.2017 41.5436 63.8035 40.2841C66.4219 39.0246 69.2225 38.3949 72.2055 38.3949C75.1884 38.3949 77.7157 39.0246 79.7872 40.2841C81.8586 41.5436 83.3584 43.2422 84.2864 45.38C85.2145 47.5178 85.4631 49.8958 85.0322 52.5142C84.7007 54.4034 84.0461 56.2346 83.0684 58.0078C82.0907 59.781 80.5909 61.7614 78.5691 63.9489C76.5639 66.1198 73.8461 68.7713 70.4157 71.9034L56.9924 84.1335L56.893 84.5313H80.5578L79.6629 90H47.5464Z" fill="white"/>
<path d="M13.5635 90L14.3589 85.5256L34.1459 67.1307C36.4659 64.9763 38.3966 63.0954 39.9378 61.4879C41.4955 59.8805 42.7053 58.3724 43.567 56.9638C44.4453 55.5552 45.0171 54.072 45.2822 52.5142C45.5805 50.7244 45.4231 49.175 44.8099 47.8658C44.1968 46.5566 43.2273 45.5457 41.9015 44.8331C40.5758 44.1205 38.9849 43.7642 37.1288 43.7642C35.1733 43.7642 33.3918 44.1702 31.7844 44.9823C30.1769 45.7777 28.8428 46.9046 27.7822 48.3629C26.7216 49.8047 26.0256 51.4868 25.6942 53.4091H19.8277C20.3248 50.4261 21.46 47.8078 23.2332 45.554C25.023 43.3002 27.2188 41.5436 29.8206 40.2841C32.4389 39.0246 35.2396 38.3949 38.2226 38.3949C41.2055 38.3949 43.7327 39.0246 45.8042 40.2841C47.8757 41.5436 49.3755 43.2422 50.3035 45.38C51.2316 47.5178 51.4801 49.8958 51.0493 52.5142C50.7178 54.4034 50.0632 56.2346 49.0855 58.0078C48.1077 59.781 46.608 61.7614 44.5862 63.9489C42.581 66.1198 39.8632 68.7713 36.4328 71.9034L23.0095 84.1335L22.9101 84.5313H46.5748L45.68 90H13.5635Z" fill="white"/>
</g>
<defs>
<clipPath id="clip0_4417_15015">
<rect width="128" height="128" fill="white"/>
</clipPath>
</defs>
</svg>
