<svg width="128" height="128" viewBox="0 0 128 128" fill="none" xmlns="http://www.w3.org/2000/svg">
<g clip-path="url(#clip0_4417_13646)">
<circle cx="64" cy="64" r="64" fill="#B7129F"/>
<path d="M13.5634 90L14.3588 85.5256L34.1458 67.1307C36.4658 64.9763 38.3965 63.0954 39.9377 61.4879C41.4954 59.8804 42.7052 58.3724 43.5669 56.9638C44.4452 55.5552 45.017 54.072 45.2821 52.5142C45.5804 50.7244 45.423 49.175 44.8098 47.8658C44.1967 46.5566 43.2272 45.5457 41.9014 44.8331C40.5757 44.1205 38.9848 43.7642 37.1287 43.7642C35.1732 43.7642 33.3917 44.1702 31.7843 44.9822C30.1768 45.7777 28.8427 46.9046 27.7821 48.3629C26.7215 49.8047 26.0255 51.4867 25.6941 53.4091H19.8276C20.3247 50.4261 21.4599 47.8078 23.2331 45.554C25.0229 43.3002 27.2187 41.5436 29.8205 40.2841C32.4389 39.0246 35.2395 38.3949 38.2225 38.3949C41.2054 38.3949 43.7327 39.0246 45.8041 40.2841C47.8756 41.5436 49.3754 43.2422 50.3034 45.38C51.2315 47.5178 51.48 49.8958 51.0492 52.5142C50.7177 54.4034 50.0631 56.2346 49.0854 58.0078C48.1077 59.781 46.6079 61.7614 44.5861 63.9489C42.5809 66.1198 39.8631 68.7713 36.4327 71.9034L23.0094 84.1335L22.91 84.5312H46.5747L45.6799 90H13.5634ZM47.5462 90L48.3416 85.5256L68.1286 67.1307C70.4487 64.9763 72.3793 63.0954 73.9205 61.4879C75.4782 59.8804 76.688 58.3724 77.5497 56.9638C78.4281 55.5552 78.9998 54.072 79.2649 52.5142C79.5632 50.7244 79.4058 49.175 78.7926 47.8658C78.1795 46.5566 77.21 45.5457 75.8843 44.8331C74.5585 44.1205 72.9676 43.7642 71.1115 43.7642C69.156 43.7642 67.3746 44.1702 65.7671 44.9822C64.1596 45.7777 62.8255 46.9046 61.7649 48.3629C60.7043 49.8047 60.0083 51.4867 59.6769 53.4091H53.8104C54.3076 50.4261 55.4427 47.8078 57.2159 45.554C59.0057 43.3002 61.2015 41.5436 63.8033 40.2841C66.4217 39.0246 69.2223 38.3949 72.2053 38.3949C75.1882 38.3949 77.7155 39.0246 79.787 40.2841C81.8585 41.5436 83.3582 43.2422 84.2862 45.38C85.2143 47.5178 85.4629 49.8958 85.032 52.5142C84.7005 54.4034 84.046 56.2346 83.0682 58.0078C82.0905 59.781 80.5907 61.7614 78.5689 63.9489C76.5637 66.1198 73.8459 68.7713 70.4155 71.9034L56.9922 84.1335L56.8928 84.5312H80.5576L79.6627 90H47.5462ZM84.35 90.2727C83.4864 90.2727 82.7648 89.9773 82.1853 89.3864C81.6057 88.7841 81.3046 88.0568 81.2818 87.2045C81.2705 86.3523 81.5716 85.642 82.1853 85.0739C82.7989 84.4943 83.5205 84.2045 84.35 84.2045C85.1909 84.2045 85.9182 84.5 86.5318 85.0909C87.1455 85.6818 87.4409 86.3864 87.4182 87.2045C87.4068 87.7727 87.2591 88.2898 86.975 88.7557C86.7023 89.2216 86.333 89.5909 85.8671 89.8636C85.4125 90.1364 84.9068 90.2727 84.35 90.2727ZM104.776 54.6136C106.242 54.625 107.662 54.9034 109.037 55.4489C110.412 55.983 111.6 56.8807 112.6 58.142C113.6 59.4034 114.282 61.1136 114.645 63.2727C115.02 65.4205 114.935 68.125 114.39 71.3864C113.878 74.4545 113.14 77.1761 112.174 79.5511C111.219 81.9148 110.072 83.9091 108.731 85.5341C107.39 87.1591 105.878 88.392 104.197 89.233C102.526 90.0625 100.719 90.4773 98.7761 90.4773C96.8443 90.4773 95.1625 90.0909 93.7307 89.3182C92.3102 88.5341 91.2079 87.4489 90.4238 86.0625C89.6511 84.6648 89.2761 83.0455 89.2988 81.2045H93.3216C93.3897 82.8409 93.867 84.1705 94.7534 85.1932C95.6511 86.2159 97.0375 86.7273 98.9125 86.7273C101.606 86.7273 103.964 85.5739 105.986 83.267C108.02 80.9489 109.412 77.5568 110.162 73.0909L109.89 73.3636C109.094 74.3182 108.214 75.1307 107.248 75.8011C106.282 76.4716 105.253 76.983 104.162 77.3352C103.072 77.6875 101.935 77.8636 100.753 77.8636C98.7079 77.8636 96.9182 77.3523 95.3841 76.3295C93.85 75.3068 92.7193 73.9034 91.992 72.1193C91.2647 70.3352 91.0943 68.2955 91.4807 66C91.8443 63.8864 92.6341 61.9659 93.85 60.2386C95.0772 58.5 96.6227 57.1193 98.4863 56.0966C100.361 55.0739 102.458 54.5795 104.776 54.6136ZM104.64 58.3636C103.185 58.3636 101.81 58.7273 100.515 59.4545C99.2193 60.1818 98.1227 61.1648 97.225 62.4034C96.3272 63.642 95.7534 65.0227 95.5034 66.5455C95.2761 67.9318 95.3784 69.1989 95.8102 70.3466C96.242 71.4943 96.9409 72.4091 97.9068 73.0909C98.8727 73.7727 100.049 74.1136 101.435 74.1136C102.549 74.1136 103.623 73.892 104.657 73.4489C105.691 73.0057 106.628 72.4034 107.469 71.642C108.322 70.8693 109.032 69.9943 109.6 69.017C110.168 68.0284 110.537 67 110.708 65.9318C110.935 64.5909 110.833 63.3466 110.401 62.1989C109.969 61.0511 109.259 60.125 108.27 59.4205C107.282 58.7159 106.072 58.3636 104.64 58.3636Z" fill="white"/>
</g>
<defs>
<clipPath id="clip0_4417_13646">
<rect width="128" height="128" fill="white"/>
</clipPath>
</defs>
</svg>
