<svg width="128" height="128" viewBox="0 0 128 128" fill="none" xmlns="http://www.w3.org/2000/svg">
<g clip-path="url(#clip0_4417_15021)">
<path d="M128 64C128 99.3462 99.3462 128 64 128C28.6538 128 0 99.3462 0 64C0 28.6538 28.6538 0 64 0C99.3462 0 128 28.6538 128 64Z" fill="#6A0D88"/>
<path d="M61.5264 94L62.4582 88.7585L85.6372 67.2102C88.355 64.6865 90.6166 62.4832 92.422 60.6001C94.2468 58.7171 95.6639 56.9505 96.6734 55.3004C97.7023 53.6503 98.372 51.9129 98.6826 50.0881C99.0321 47.9915 98.8476 46.1764 98.1294 44.6427C97.4111 43.1091 96.2754 41.9249 94.7224 41.0902C93.1694 40.2554 91.3057 39.8381 89.1315 39.8381C86.8408 39.8381 84.7539 40.3137 82.8708 41.2649C80.9878 42.1967 79.425 43.5168 78.1826 45.2251C76.9402 46.914 76.1249 48.8845 75.7366 51.1363H68.8644C69.4468 47.642 70.7766 44.5748 72.8538 41.9346C74.9504 39.2945 77.5226 37.2367 80.5704 35.7613C83.6376 34.286 86.9184 33.5483 90.4127 33.5483C93.9071 33.5483 96.8675 34.286 99.2941 35.7613C101.721 37.2367 103.478 39.2265 104.565 41.7308C105.652 44.2351 105.943 47.0208 105.438 50.0881C105.05 52.3011 104.283 54.4462 103.138 56.5234C101.993 58.6006 100.236 60.9204 97.8673 63.4829C95.5183 66.026 92.3346 69.1321 88.3161 72.8011L72.5917 87.1278L72.4752 87.5937H100.197L99.1485 94H61.5264Z" fill="white"/>
<path d="M21.7178 94L22.6496 88.7585L45.8286 67.2102C48.5464 64.6865 50.808 62.4832 52.6134 60.6001C54.4382 58.7171 55.8553 56.9505 56.8648 55.3004C57.8937 53.6503 58.5634 51.9129 58.874 50.0881C59.2235 47.9915 59.039 46.1764 58.3208 44.6427C57.6025 43.1091 56.4668 41.9249 54.9138 41.0902C53.3608 40.2554 51.4971 39.8381 49.3229 39.8381C47.0322 39.8381 44.9453 40.3137 43.0622 41.2649C41.1792 42.1967 39.6164 43.5168 38.374 45.2251C37.1316 46.914 36.3163 48.8845 35.928 51.1363H29.0558C29.6382 47.642 30.968 44.5748 33.0452 41.9346C35.1418 39.2945 37.714 37.2367 40.7618 35.7613C43.829 34.286 47.1098 33.5483 50.6041 33.5483C54.0985 33.5483 57.0589 34.286 59.4855 35.7613C61.9121 37.2367 63.669 39.2265 64.7561 41.7308C65.8432 44.2351 66.1344 47.0208 65.6297 50.0881C65.2414 52.3011 64.4746 54.4462 63.3293 56.5234C62.1839 58.6006 60.4271 60.9204 58.0587 63.4829C55.7097 66.026 52.526 69.1321 48.5075 72.8011L32.7831 87.1278L32.6666 87.5937H60.3882L59.3399 94H21.7178Z" fill="white"/>
</g>
<defs>
<clipPath id="clip0_4417_15021">
<rect width="128" height="128" fill="white"/>
</clipPath>
</defs>
</svg>
