<svg width="128" height="128" viewBox="0 0 128 128" fill="none" xmlns="http://www.w3.org/2000/svg">
<g clip-path="url(#clip0_4417_14394)">
<circle cx="64" cy="64" r="64" fill="#C113A5"/>
<path d="M20.9363 94L21.8682 88.7585L45.0471 67.2102C47.7649 64.6866 50.0265 62.4832 51.8319 60.6001C53.6567 58.7171 55.0739 56.9505 56.0834 55.3004C57.1122 53.6503 57.782 51.9129 58.0926 50.0881C58.442 47.9915 58.2576 46.1764 57.5393 44.6428C56.821 43.1091 55.6854 41.925 54.1324 41.0902C52.5793 40.2554 50.7157 39.8381 48.5414 39.8381C46.2507 39.8381 44.1638 40.3137 42.2808 41.2649C40.3977 42.1967 38.835 43.5168 37.5926 45.2251C36.3502 46.9141 35.5348 48.8845 35.1466 51.1364H28.2744C28.8568 47.642 30.1866 44.5748 32.2637 41.9347C34.3603 39.2945 36.9325 37.2367 39.9804 35.7614C43.0476 34.286 46.3284 33.5483 49.8227 33.5483C53.317 33.5483 56.2775 34.286 58.7041 35.7614C61.1307 37.2367 62.8876 39.2266 63.9747 41.7308C65.0618 44.2351 65.353 47.0208 64.8483 50.0881C64.46 52.3011 63.6932 54.4463 62.5478 56.5234C61.4025 58.6006 59.6456 60.9205 57.2772 63.483C54.9283 66.026 51.7446 69.1321 47.7261 72.8011L32.0017 87.1278L31.8852 87.5938H59.6068L58.5585 94H20.9363ZM81.1283 94.8153C77.2457 94.8153 73.8776 94.165 71.0239 92.8643C68.1896 91.5443 66.0736 89.7098 64.6759 87.3608C63.2782 84.9924 62.7831 82.2358 63.1908 79.0909H70.4124C70.2377 80.9934 70.5677 82.6435 71.4024 84.0412C72.2566 85.4389 73.5184 86.5163 75.188 87.2734C76.8769 88.0305 78.8958 88.4091 81.2448 88.4091C83.749 88.4091 86.098 87.9723 88.2916 87.0987C90.5047 86.2251 92.3586 84.9633 93.8534 83.3132C95.3482 81.6437 96.2703 79.6539 96.6198 77.3438C96.9304 75.2666 96.6974 73.4223 95.9209 71.8111C95.1444 70.1998 93.8049 68.938 91.9024 68.0256C90.0194 67.0937 87.554 66.6278 84.5061 66.6278H79.6141L80.6624 60.2216H85.205C87.5734 60.2216 89.7476 59.7751 91.7277 58.8821C93.7078 57.9891 95.3579 56.737 96.678 55.1257C97.9981 53.495 98.8328 51.5829 99.1823 49.3892C99.5123 47.4673 99.3764 45.7978 98.7746 44.3807C98.1922 42.9441 97.1827 41.8279 95.7462 41.032C94.3291 40.236 92.5237 39.8381 90.33 39.8381C88.2334 39.8381 86.1756 40.2166 84.1567 40.9737C82.1572 41.7114 80.4488 42.7888 79.0317 44.206C77.6146 45.6037 76.7216 47.2926 76.3527 49.2727H69.3641C69.9659 46.1667 71.3151 43.4392 73.4117 41.0902C75.5083 38.7218 78.0611 36.8776 81.0701 35.5575C84.0985 34.218 87.3016 33.5483 90.6794 33.5483C94.4261 33.5483 97.5128 34.3248 99.9394 35.8778C102.385 37.4115 104.133 39.4304 105.181 41.9347C106.229 44.4195 106.52 47.0985 106.054 49.9716C105.53 53.2524 104.181 56.0284 102.007 58.2997C99.8326 60.571 97.1827 62.1823 94.0573 63.1335V63.483C97.7263 64.1236 100.386 65.8125 102.036 68.5497C103.705 71.2675 104.23 74.5095 103.608 78.2756C103.065 81.6534 101.754 84.5848 99.6773 87.0696C97.6001 89.535 94.9697 91.4472 91.786 92.8061C88.6023 94.1456 85.0497 94.8153 81.1283 94.8153Z" fill="white"/>
</g>
<defs>
<clipPath id="clip0_4417_14394">
<rect width="128" height="128" fill="white"/>
</clipPath>
</defs>
</svg>
