<svg width="128" height="128" viewBox="0 0 128 128" fill="none" xmlns="http://www.w3.org/2000/svg">
<g clip-path="url(#clip0_4417_15016)">
<path d="M128 64C128 99.3462 99.3462 128 64 128C28.6538 128 0 99.3462 0 64C0 28.6538 28.6538 0 64 0C99.3462 0 128 28.6538 128 64Z" fill="#C113A5"/>
<path d="M100.447 90.4773C97.8786 90.4773 95.8104 89.7784 94.2422 88.3807C92.674 86.9716 91.64 84.9318 91.14 82.2614C90.64 79.5796 90.6968 76.3409 91.3104 72.5455C91.924 68.7727 92.9297 65.5511 94.3275 62.8807C95.7252 60.1989 97.4468 58.1534 99.4922 56.7443C101.538 55.3239 103.833 54.6136 106.379 54.6136C108.924 54.6136 110.987 55.3239 112.566 56.7443C114.157 58.1648 115.214 60.2102 115.737 62.8807C116.271 65.5511 116.22 68.7727 115.583 72.5455C114.947 76.3409 113.93 79.5739 112.532 82.2443C111.134 84.9148 109.413 86.9546 107.367 88.3636C105.322 89.7727 103.015 90.4773 100.447 90.4773ZM101.06 86.7273C103.617 86.7273 105.805 85.5 107.623 83.0455C109.452 80.5796 110.742 77.0796 111.492 72.5455C111.992 69.5227 112.094 66.9489 111.799 64.8239C111.504 62.6989 110.845 61.0796 109.822 59.9659C108.799 58.8523 107.447 58.2955 105.765 58.2955C103.242 58.2955 101.072 59.5398 99.2536 62.0284C97.4354 64.5057 96.1513 68.0114 95.4013 72.5455C94.9013 75.5682 94.7934 78.1364 95.0775 80.25C95.3615 82.3636 96.0093 83.9716 97.0206 85.0739C98.032 86.1761 99.3786 86.7273 101.06 86.7273Z" fill="white"/>
<path d="M86.3658 90.2727C85.5022 90.2727 84.7806 89.9773 84.2011 89.3863C83.6215 88.7841 83.3204 88.0568 83.2977 87.2045C83.2863 86.3523 83.5874 85.642 84.2011 85.0738C84.8147 84.4943 85.5363 84.2045 86.3658 84.2045C87.2068 84.2045 87.934 84.5 88.5477 85.0909C89.1613 85.6818 89.4568 86.3863 89.434 87.2045C89.4227 87.7727 89.2749 88.2898 88.9908 88.7557C88.7181 89.2216 88.3488 89.5909 87.8829 89.8636C87.4284 90.1363 86.9227 90.2727 86.3658 90.2727Z" fill="white"/>
<path d="M64.7751 90.696C61.4607 90.696 58.5855 90.1409 56.1494 89.0306C53.7299 87.9037 51.9235 86.3376 50.7304 84.3324C49.5372 82.3106 49.1146 79.9574 49.4626 77.2727H55.6274C55.4782 78.8968 55.76 80.3054 56.4725 81.4986C57.2017 82.6918 58.2789 83.6115 59.7041 84.2578C61.1458 84.9041 62.8693 85.2273 64.8745 85.2273C67.0123 85.2273 69.0175 84.8544 70.8902 84.1087C72.7794 83.3629 74.362 82.2858 75.638 80.8771C76.9141 79.452 77.7012 77.7533 77.9995 75.7813C78.2647 74.0081 78.0658 72.4337 77.4029 71.0583C76.7401 69.6828 75.5966 68.6056 73.9725 67.8267C72.3651 67.0313 70.2604 66.6335 67.6586 66.6335H63.4825L64.3774 61.1648H68.2552C70.277 61.1648 72.1331 60.7836 73.8234 60.0213C75.5137 59.259 76.9224 58.1901 78.0493 56.8146C79.1761 55.4226 79.8887 53.7903 80.187 51.9176C80.4688 50.277 80.3528 48.8518 79.839 47.6421C79.3419 46.4157 78.4801 45.4628 77.2538 44.7834C76.044 44.1039 74.5028 43.7642 72.6302 43.7642C70.8404 43.7642 69.0838 44.0874 67.3603 44.7337C65.6534 45.3634 64.1951 46.2832 62.9853 47.4929C61.7756 48.6861 61.0133 50.1279 60.6984 51.8182H54.7325C55.2462 49.1667 56.398 46.8383 58.1877 44.8331C59.9775 42.8113 62.1567 41.237 64.7254 40.1101C67.3106 38.9666 70.045 38.3949 72.9285 38.3949C76.1269 38.3949 78.7618 39.0578 80.8333 40.3835C82.9214 41.6927 84.4129 43.4162 85.3078 45.554C86.2027 47.6752 86.4512 49.9621 86.0535 52.4148C85.6061 55.2154 84.4543 57.5852 82.5983 59.5242C80.7422 61.4631 78.4801 62.8386 75.812 63.6506V63.9489C78.9441 64.4958 81.2145 65.9375 82.6231 68.2742C84.0483 70.5942 84.4957 73.3618 83.9654 76.5767C83.5014 79.4602 82.3828 81.9626 80.6096 84.0838C78.8364 86.1885 76.5909 87.8208 73.8731 88.9808C71.1553 90.1243 68.1226 90.696 64.7751 90.696Z" fill="white"/>
<path d="M13.3916 90L14.1871 85.5256L33.974 67.1307C36.2941 64.9763 38.2247 63.0954 39.7659 61.4879C41.3237 59.8805 42.5334 58.3724 43.3952 56.9638C44.2735 55.5552 44.8452 54.072 45.1104 52.5142C45.4086 50.7244 45.2512 49.175 44.6381 47.8658C44.0249 46.5566 43.0554 45.5457 41.7297 44.8331C40.4039 44.1205 38.813 43.7642 36.9569 43.7642C35.0015 43.7642 33.22 44.1702 31.6125 44.9823C30.005 45.7777 28.671 46.9046 27.6104 48.3629C26.5497 49.8047 25.8537 51.4868 25.5223 53.4091H19.6558C20.153 50.4261 21.2881 47.8078 23.0613 45.554C24.8511 43.3002 27.0469 41.5436 29.6487 40.2841C32.2671 39.0246 35.0677 38.3949 38.0507 38.3949C41.0336 38.3949 43.5609 39.0246 45.6324 40.2841C47.7039 41.5436 49.2036 43.2422 50.1317 45.38C51.0597 47.5178 51.3083 49.8958 50.8774 52.5142C50.546 54.4034 49.8914 56.2346 48.9136 58.0078C47.9359 59.781 46.4361 61.7614 44.4143 63.9489C42.4091 66.1198 39.6913 68.7713 36.2609 71.9034L22.8376 84.1335L22.7382 84.5313H46.403L45.5081 90H13.3916Z" fill="white"/>
</g>
<defs>
<clipPath id="clip0_4417_15016">
<rect width="128" height="128" fill="white"/>
</clipPath>
</defs>
</svg>
