<svg width="128" height="128" viewBox="0 0 128 128" fill="none" xmlns="http://www.w3.org/2000/svg">
<g clip-path="url(#clip0_4417_13643)">
<circle cx="64" cy="64" r="64" fill="#C113A5"/>
<path d="M13.3915 90L14.187 85.5256L33.9739 67.1307C36.294 64.9763 38.2246 63.0954 39.7658 61.4879C41.3236 59.8804 42.5333 58.3724 43.3951 56.9638C44.2734 55.5552 44.8451 54.072 45.1103 52.5142C45.4086 50.7244 45.2511 49.175 44.638 47.8658C44.0248 46.5566 43.0553 45.5457 41.7296 44.8331C40.4038 44.1205 38.8129 43.7642 36.9568 43.7642C35.0014 43.7642 33.2199 44.1702 31.6124 44.9822C30.0049 45.7777 28.6709 46.9046 27.6103 48.3629C26.5496 49.8047 25.8536 51.4867 25.5222 53.4091H19.6557C20.1529 50.4261 21.288 47.8078 23.0612 45.554C24.851 43.3002 27.0468 41.5436 29.6486 40.2841C32.267 39.0246 35.0676 38.3949 38.0506 38.3949C41.0336 38.3949 43.5608 39.0246 45.6323 40.2841C47.7038 41.5436 49.2035 43.2422 50.1316 45.38C51.0596 47.5178 51.3082 49.8958 50.8773 52.5142C50.5459 54.4034 49.8913 56.2346 48.9135 58.0078C47.9358 59.781 46.436 61.7614 44.4142 63.9489C42.409 66.1198 39.6912 68.7713 36.2608 71.9034L22.8375 84.1335L22.7381 84.5312H46.4029L45.508 90H13.3915ZM64.7749 90.696C61.4605 90.696 58.5853 90.1409 56.1492 89.0305C53.7297 87.9036 51.9233 86.3376 50.7301 84.3324C49.537 82.3106 49.1144 79.9574 49.4624 77.2727H55.6272C55.478 78.8968 55.7597 80.3054 56.4723 81.4986C57.2015 82.6918 58.2787 83.6115 59.7039 84.2578C61.1456 84.9041 62.8691 85.2273 64.8743 85.2273C67.0121 85.2273 69.0173 84.8544 70.8899 84.1087C72.7791 83.3629 74.3618 82.2857 75.6378 80.8771C76.9139 79.4519 77.701 77.7533 77.9993 75.7812C78.2645 74.008 78.0656 72.4337 77.4027 71.0582C76.7398 69.6828 75.5964 68.6056 73.9723 67.8267C72.3648 67.0312 70.2602 66.6335 67.6584 66.6335H63.4823L64.3772 61.1648H68.255C70.2768 61.1648 72.1328 60.7836 73.8232 60.0213C75.5135 59.259 76.9221 58.1901 78.049 56.8146C79.1759 55.4226 79.8885 53.7902 80.1868 51.9176C80.4685 50.277 80.3525 48.8518 79.8388 47.642C79.3416 46.4157 78.4799 45.4628 77.2536 44.7834C76.0438 44.1039 74.5026 43.7642 72.63 43.7642C70.8402 43.7642 69.0836 44.0874 67.3601 44.7337C65.6532 45.3634 64.1949 46.2831 62.9851 47.4929C61.7754 48.6861 61.013 50.1278 60.6982 51.8182H54.7323C55.246 49.1667 56.3978 46.8383 58.1875 44.8331C59.9773 42.8113 62.1565 41.237 64.7252 40.1101C67.3104 38.9666 70.0448 38.3949 72.9283 38.3949C76.1267 38.3949 78.7616 39.0578 80.8331 40.3835C82.9212 41.6927 84.4127 43.4162 85.3076 45.554C86.2024 47.6752 86.451 49.9621 86.0533 52.4148C85.6059 55.2154 84.4541 57.5852 82.598 59.5241C80.742 61.4631 78.4799 62.8385 75.8118 63.6506V63.9489C78.9439 64.4957 81.2143 65.9375 82.6229 68.2741C84.0481 70.5942 84.4955 73.3617 83.9652 76.5767C83.5012 79.4602 82.3826 81.9626 80.6094 84.0838C78.8362 86.1884 76.5907 87.8208 73.8729 88.9808C71.1551 90.1243 68.1224 90.696 64.7749 90.696ZM86.3656 90.2727C85.502 90.2727 84.7804 89.9773 84.2009 89.3864C83.6213 88.7841 83.3202 88.0568 83.2975 87.2045C83.2861 86.3523 83.5872 85.642 84.2009 85.0739C84.8145 84.4943 85.5361 84.2045 86.3656 84.2045C87.2066 84.2045 87.9338 84.5 88.5475 85.0909C89.1611 85.6818 89.4566 86.3864 89.4338 87.2045C89.4225 87.7727 89.2747 88.2898 88.9906 88.7557C88.7179 89.2216 88.3486 89.5909 87.8827 89.8636C87.4281 90.1364 86.9225 90.2727 86.3656 90.2727ZM100.447 90.4773C97.8784 90.4773 95.8102 89.7784 94.242 88.3807C92.6738 86.9716 91.6397 84.9318 91.1397 82.2614C90.6397 79.5795 90.6966 76.3409 91.3102 72.5455C91.9238 68.7727 92.9295 65.5511 94.3272 62.8807C95.725 60.1989 97.4466 58.1534 99.492 56.7443C101.537 55.3239 103.833 54.6136 106.378 54.6136C108.924 54.6136 110.986 55.3239 112.566 56.7443C114.157 58.1648 115.214 60.2102 115.736 62.8807C116.27 65.5511 116.219 68.7727 115.583 72.5455C114.947 76.3409 113.93 79.5739 112.532 82.2443C111.134 84.9148 109.412 86.9545 107.367 88.3636C105.322 89.7727 103.015 90.4773 100.447 90.4773ZM101.06 86.7273C103.617 86.7273 105.805 85.5 107.623 83.0455C109.452 80.5795 110.742 77.0795 111.492 72.5455C111.992 69.5227 112.094 66.9489 111.799 64.8239C111.503 62.6989 110.844 61.0795 109.822 59.9659C108.799 58.8523 107.447 58.2955 105.765 58.2955C103.242 58.2955 101.072 59.5398 99.2534 62.0284C97.4352 64.5057 96.1511 68.0114 95.4011 72.5455C94.9011 75.5682 94.7932 78.1364 95.0772 80.25C95.3613 82.3636 96.0091 83.9716 97.0204 85.0739C98.0318 86.1761 99.3784 86.7273 101.06 86.7273Z" fill="white"/>
</g>
<defs>
<clipPath id="clip0_4417_13643">
<rect width="128" height="128" fill="white"/>
</clipPath>
</defs>
</svg>
