<svg width="128" height="128" viewBox="0 0 128 128" fill="none" xmlns="http://www.w3.org/2000/svg">
<g clip-path="url(#clip0_4417_15023)">
<path d="M128 64C128 99.3462 99.3462 128 64 128C28.6538 128 0 99.3462 0 64C0 28.6538 28.6538 0 64 0C99.3462 0 128 28.6538 128 64Z" fill="#C113A5"/>
<path d="M81.1283 94.8153C77.2457 94.8153 73.8776 94.165 71.0239 92.8643C68.1896 91.5443 66.0736 89.7097 64.6759 87.3608C63.2782 84.9924 62.7831 82.2358 63.1908 79.0909H70.4124C70.2377 80.9934 70.5677 82.6434 71.4025 84.0412C72.2566 85.4389 73.5185 86.5163 75.188 87.2734C76.8769 88.0305 78.8958 88.4091 81.2448 88.4091C83.7491 88.4091 86.098 87.9723 88.2917 87.0987C90.5047 86.2251 92.3587 84.9633 93.8535 83.3132C95.3483 81.6437 96.2704 79.6539 96.6198 77.3437C96.9304 75.2666 96.6974 73.4223 95.9209 71.8111C95.1444 70.1998 93.8049 68.938 91.9025 68.0256C90.0194 67.0937 87.554 66.6278 84.5062 66.6278H79.6141L80.6624 60.2216H85.205C87.5734 60.2216 89.7476 59.7751 91.7278 58.8821C93.7079 57.9891 95.358 56.737 96.678 55.1257C97.9981 53.495 98.8329 51.5828 99.1823 49.3892C99.5123 47.4673 99.3764 45.7978 98.7746 44.3807C98.1922 42.9441 97.1828 41.8279 95.7462 41.0319C94.3291 40.236 92.5237 39.8381 90.33 39.8381C88.2334 39.8381 86.1757 40.2166 84.1567 40.9737C82.1572 41.7114 80.4489 42.7888 79.0317 44.206C77.6146 45.6037 76.7216 47.2926 76.3527 49.2727H69.3641C69.9659 46.1667 71.3151 43.4391 73.4117 41.0902C75.5083 38.7218 78.0611 36.8776 81.0701 35.5575C84.0985 34.218 87.3016 33.5483 90.6795 33.5483C94.4261 33.5483 97.5128 34.3248 99.9394 35.8778C102.385 37.4114 104.133 39.4304 105.181 41.9346C106.229 44.4195 106.52 47.0985 106.054 49.9716C105.53 53.2524 104.181 56.0284 102.007 58.2997C99.8326 60.571 97.1828 62.1823 94.0573 63.1335V63.4829C97.7263 64.1236 100.386 65.8125 102.036 68.5497C103.705 71.2675 104.23 74.5095 103.608 78.2756C103.065 81.6534 101.754 84.5847 99.6773 87.0696C97.6001 89.535 94.9697 91.4472 91.786 92.8061C88.6023 94.1456 85.0497 94.8153 81.1283 94.8153Z" fill="white"/>
<path d="M20.9365 94L21.8683 88.7585L45.0473 67.2102C47.7651 64.6865 50.0267 62.4832 51.8321 60.6001C53.6569 58.7171 55.0741 56.9505 56.0835 55.3004C57.1124 53.6503 57.7822 51.9129 58.0928 50.0881C58.4422 47.9915 58.2578 46.1764 57.5395 44.6427C56.8212 43.1091 55.6856 41.9249 54.1325 41.0902C52.5795 40.2554 50.7159 39.8381 48.5416 39.8381C46.2509 39.8381 44.164 40.3137 42.281 41.2649C40.3979 42.1967 38.8352 43.5168 37.5928 45.2251C36.3503 46.914 35.535 48.8845 35.1468 51.1363H28.2746C28.857 47.642 30.1868 44.5748 32.2639 41.9346C34.3605 39.2945 36.9327 37.2367 39.9806 35.7613C43.0478 34.286 46.3286 33.5483 49.8229 33.5483C53.3172 33.5483 56.2777 34.286 58.7043 35.7613C61.1309 37.2367 62.8878 39.2265 63.9749 41.7308C65.062 44.2351 65.3532 47.0208 64.8485 50.0881C64.4602 52.3011 63.6934 54.4462 62.548 56.5234C61.4027 58.6006 59.6458 60.9204 57.2774 63.4829C54.9285 66.026 51.7448 69.1321 47.7263 72.8011L32.0019 87.1278L31.8854 87.5937H59.607L58.5587 94H20.9365Z" fill="white"/>
</g>
<defs>
<clipPath id="clip0_4417_15023">
<rect width="128" height="128" fill="white"/>
</clipPath>
</defs>
</svg>
