<svg width="128" height="128" viewBox="0 0 128 128" fill="none" xmlns="http://www.w3.org/2000/svg">
<g clip-path="url(#clip0_4417_13339)">
<path d="M128 64C128 99.3462 99.3462 128 64 128C28.6538 128 0 99.3462 0 64C0 28.6538 28.6538 0 64 0C99.3462 0 128 28.6538 128 64Z" fill="#27FFBD"/>
<path d="M59.8424 99.9546C55.8424 99.9546 52.3651 99.1591 49.4105 97.5682C46.456 95.9773 44.2401 93.7955 42.7628 91.0227C41.2855 88.25 40.7515 85.0909 41.1605 81.5455H49.3424C49.1378 84.6818 50.1492 87.2841 52.3765 89.3523C54.6265 91.4205 57.5242 92.4546 61.0696 92.4546C63.9333 92.4546 66.5924 91.7841 69.0469 90.4432C71.5242 89.1023 73.5924 87.2614 75.2514 84.9205C76.9333 82.5796 78.0242 79.9091 78.5242 76.9091C79.0242 73.8636 78.8083 71.1364 77.8764 68.7273C76.9446 66.3182 75.4333 64.4205 73.3424 63.0341C71.2515 61.6477 68.706 60.9546 65.706 60.9546C63.5924 60.9546 61.3537 61.2955 58.9901 61.9773C56.6492 62.6364 54.6605 63.4773 53.0242 64.5L45.2515 63.5455L55.206 29.1818H91.4787L90.2514 36.6818H61.0696L55.206 57.2727H55.6151C57.2515 56.1136 59.1946 55.1705 61.4446 54.4432C63.7174 53.6932 66.0469 53.3182 68.4333 53.3182C72.706 53.3182 76.3424 54.3409 79.3424 56.3864C82.3651 58.4091 84.5355 61.1932 85.8537 64.7386C87.1946 68.2614 87.4787 72.2727 86.706 76.7727C85.9787 81.2273 84.331 85.2046 81.7628 88.7046C79.2174 92.1818 76.0355 94.9318 72.2174 96.9546C68.4219 98.9546 64.2969 99.9546 59.8424 99.9546Z" fill="black"/>
</g>
<defs>
<clipPath id="clip0_4417_13339">
<rect width="128" height="128" fill="white"/>
</clipPath>
</defs>
</svg>
