<svg width="128" height="128" viewBox="0 0 128 128" fill="none" xmlns="http://www.w3.org/2000/svg">
<g clip-path="url(#clip0_4417_13348)">
<path d="M128 64C128 99.3462 99.3462 128 64 128C28.6538 128 0 99.3462 0 64C0 28.6538 28.6538 0 64 0C99.3462 0 128 28.6538 128 64Z" fill="#B1FC00"/>
<path d="M60.0582 99.9546C55.2855 99.9546 51.2059 99.0796 47.8196 97.3296C44.4559 95.5568 41.99 93.1591 40.4218 90.1364C38.8764 87.1137 38.4218 83.7046 39.0582 79.9091C39.5355 77.0455 40.5582 74.3978 42.1264 71.9659C43.6946 69.5341 45.6036 67.5 47.8536 65.8637C50.1264 64.2273 52.5582 63.1818 55.1491 62.7273V62.4546C51.9446 61.5682 49.6377 59.6023 48.2286 56.5568C46.8423 53.4887 46.5127 50.0455 47.24 46.2273C47.9218 42.7046 49.365 39.5909 51.5696 36.8864C53.7741 34.1818 56.5355 32.0682 59.8537 30.5455C63.1718 29 66.8309 28.2273 70.8309 28.2273C74.9673 28.2273 78.5355 29.0682 81.5355 30.75C84.5355 32.4091 86.74 34.6818 88.1491 37.5682C89.5809 40.4318 89.99 43.6818 89.3764 47.3182C88.7173 51.2046 87.0923 54.5 84.5014 57.2046C81.9105 59.8864 78.9446 61.6364 75.6036 62.4546V62.7273C78.0582 63.2273 80.1832 64.3523 81.9786 66.1023C83.7968 67.8523 85.115 70.0228 85.9332 72.6137C86.7514 75.1818 86.8991 77.9773 86.3764 81C85.7627 84.7046 84.2286 87.9887 81.7741 90.8523C79.3196 93.6932 76.2173 95.9205 72.4673 97.5341C68.74 99.1478 64.6036 99.9546 60.0582 99.9546ZM60.3309 92.4546C63.6264 92.4546 66.5468 91.9205 69.0923 90.8523C71.6377 89.7614 73.7059 88.25 75.2968 86.3182C76.9105 84.3637 77.9218 82.0909 78.3309 79.5C78.74 76.9091 78.4559 74.6478 77.4786 72.7159C76.5014 70.7614 74.9787 69.25 72.9105 68.1818C70.8423 67.0909 68.3764 66.5455 65.5127 66.5455C62.4673 66.5455 59.6491 67.1478 57.0582 68.3523C54.4673 69.5568 52.3082 71.2159 50.5809 73.3296C48.8764 75.4432 47.8082 77.8637 47.3764 80.5909C46.99 83.0228 47.2514 85.1364 48.1605 86.9318C49.0696 88.7046 50.5582 90.0682 52.6264 91.0228C54.6946 91.9773 57.2627 92.4546 60.3309 92.4546ZM65.7855 59.3182C68.4446 59.3182 70.865 58.7841 73.0468 57.7159C75.2514 56.6478 77.0696 55.1705 78.5014 53.2841C79.9559 51.3978 80.8991 49.2273 81.3309 46.7727C81.7627 44.4091 81.5923 42.3977 80.8196 40.7387C80.0696 39.0568 78.8309 37.7841 77.1036 36.9205C75.3764 36.0341 73.24 35.5909 70.6946 35.5909C67.9446 35.5909 65.4673 36.1023 63.2627 37.125C61.0809 38.1478 59.2855 39.5796 57.8764 41.4205C56.4673 43.2614 55.5582 45.4091 55.1491 47.8637C54.7627 50.25 54.9673 52.3068 55.7627 54.0341C56.5582 55.7387 57.8196 57.0455 59.5468 57.9546C61.2968 58.8637 63.3764 59.3182 65.7855 59.3182Z" fill="black"/>
</g>
<defs>
<clipPath id="clip0_4417_13348">
<rect width="128" height="128" fill="white"/>
</clipPath>
</defs>
</svg>
