<svg width="128" height="128" viewBox="0 0 128 128" fill="none" xmlns="http://www.w3.org/2000/svg">
<g clip-path="url(#clip0_4417_13351)">
<path d="M128 64C128 99.3462 99.3462 128 64 128C28.6538 128 0 99.3462 0 64C0 28.6538 28.6538 0 64 0C99.3462 0 128 28.6538 128 64Z" fill="#D6F800"/>
<path d="M70.456 28.2273C73.3878 28.25 76.2287 28.8068 78.9787 29.8978C81.7287 30.9659 84.1037 32.7614 86.1037 35.2841C88.1037 37.8068 89.4674 41.2273 90.1946 45.5455C90.9446 49.8409 90.7742 55.25 89.6833 61.7728C88.6606 67.9091 87.1833 73.3523 85.2515 78.1023C83.3424 82.8296 81.0469 86.8182 78.3651 90.0682C75.6833 93.3182 72.6606 95.7841 69.2969 97.4659C65.956 99.125 62.3424 99.9546 58.456 99.9546C54.5924 99.9546 51.2287 99.1818 48.3651 97.6364C45.5242 96.0682 43.3196 93.8978 41.7515 91.125C40.206 88.3296 39.456 85.0909 39.5015 81.4091H47.5469C47.6833 84.6818 48.6378 87.3409 50.4106 89.3864C52.206 91.4318 54.9787 92.4546 58.7287 92.4546C64.1151 92.4546 68.831 90.1478 72.8765 85.5341C76.9446 80.8978 79.7287 74.1137 81.2287 65.1818L80.6833 65.7273C79.0924 67.6364 77.331 69.2614 75.3992 70.6023C73.4674 71.9432 71.4106 72.9659 69.2287 73.6705C67.0469 74.375 64.7742 74.7273 62.4106 74.7273C58.3196 74.7273 54.7401 73.7046 51.6719 71.6591C48.6037 69.6137 46.3424 66.8068 44.8878 63.2387C43.4333 59.6705 43.0924 55.5909 43.8651 51C44.5924 46.7728 46.1719 42.9318 48.6037 39.4773C51.0583 36 54.1492 33.2387 57.8765 31.1932C61.6265 29.1478 65.8196 28.1591 70.456 28.2273ZM70.1833 35.7273C67.2742 35.7273 64.5242 36.4546 61.9333 37.9091C59.3424 39.3637 57.1492 41.3296 55.3537 43.8068C53.5583 46.2841 52.4106 49.0455 51.9106 52.0909C51.456 54.8637 51.6606 57.3978 52.5242 59.6932C53.3878 61.9887 54.7856 63.8182 56.7174 65.1818C58.6492 66.5455 61.0015 67.2273 63.7742 67.2273C66.0015 67.2273 68.1492 66.7841 70.2174 65.8978C72.2856 65.0114 74.1606 63.8068 75.8424 62.2841C77.5469 60.7387 78.9674 58.9887 80.1037 57.0341C81.2401 55.0568 81.9787 53 82.3196 50.8637C82.7742 48.1818 82.5696 45.6932 81.706 43.3978C80.8424 41.1023 79.4219 39.25 77.4446 37.8409C75.4674 36.4318 73.0469 35.7273 70.1833 35.7273Z" fill="black"/>
</g>
<defs>
<clipPath id="clip0_4417_13351">
<rect width="128" height="128" fill="white"/>
</clipPath>
</defs>
</svg>
