<svg width="128" height="128" viewBox="0 0 128 128" fill="none" xmlns="http://www.w3.org/2000/svg">
<path d="M64 128C99.3462 128 128 99.3462 128 64C128 28.6538 99.3462 0 64 0C28.6538 0 0 28.6538 0 64C0 99.3462 28.6538 128 64 128Z" fill="#FF6FFF"/>
<path d="M16 45.892L16.9901 40H54.7088L53.7188 45.892H38.2401L30.9957 89.4545H24.2585L31.4787 45.892H16Z" fill="white"/>
<path d="M41.5427 89.4545L47.7245 52.3636H54.2203L48.0385 89.4545H41.5427Z" fill="white"/>
<path d="M62.7641 67.2869L59.1178 89.4545H52.5979L58.7797 52.3636H65.0581L64.0681 58.304H64.5269C65.702 56.3561 67.2878 54.8026 69.284 53.6435C71.2963 52.4683 73.703 51.8807 76.5041 51.8807C78.9994 51.8807 81.1003 52.4039 82.8067 53.4503C84.5292 54.4806 85.7447 56.0341 86.453 58.1108C87.1774 60.1875 87.2901 62.7794 86.7911 65.8864L82.8308 89.4545H76.311L80.1263 66.5142C80.5932 63.7292 80.239 61.5478 79.0638 59.9702C77.8886 58.3925 76.0212 57.6037 73.4615 57.6037C71.7068 57.6037 70.0808 57.982 68.5837 58.7386C67.1026 59.4953 65.855 60.598 64.8408 62.0469C63.8266 63.4957 63.1343 65.2424 62.7641 67.2869Z" fill="white"/>
<path d="M85.8913 103.364C84.8771 103.364 83.9676 103.283 83.1626 103.122C82.3738 102.961 81.8023 102.792 81.4481 102.615L83.9837 97.1335C85.2876 97.4877 86.4467 97.6084 87.4609 97.4957C88.4751 97.3831 89.441 96.9242 90.3587 96.1193C91.2763 95.3144 92.218 94.0346 93.1839 92.2798L94.6569 89.6236L87.316 52.3636H94.0291L98.9552 81.6065H99.3416L113.999 52.3636H121.292L98.8104 94.5739C97.7479 96.554 96.5646 98.188 95.2606 99.4759C93.9728 100.78 92.548 101.754 90.9865 102.398C89.4249 103.042 87.7265 103.364 85.8913 103.364Z" fill="white"/>
</svg>
