<svg width="128" height="128" viewBox="0 0 128 128" fill="none" xmlns="http://www.w3.org/2000/svg">
<path d="M64 128C99.3462 128 128 99.3462 128 64C128 28.6538 99.3462 0 64 0C28.6538 0 0 28.6538 0 64C0 99.3462 28.6538 128 64 128Z" fill="#CCCCCC"/>
<path d="M57.23 77.4091L57.3501 76.6761C58.0301 72.8688 58.9401 69.8352 60.1001 67.5753C61.2801 65.3153 62.7001 63.4931 64.3501 62.1087C66.0201 60.7038 67.9201 59.411 70.0601 58.2301C71.3601 57.4972 72.5699 56.6319 73.6899 55.6342C74.8299 54.6162 75.7901 53.4557 76.5601 52.1527C77.3601 50.8293 77.8801 49.3532 78.1201 47.7244C78.4501 45.7292 78.2701 43.9986 77.6001 42.5327C76.9301 41.0668 75.88 39.9368 74.46 39.1428C73.03 38.3487 71.3602 37.9517 69.4502 37.9517C67.7802 37.9517 66.1002 38.2978 64.4102 38.9901C62.7402 39.6823 61.2502 40.7715 59.9502 42.2578C58.6702 43.7441 57.76 45.6884 57.23 48.0909H49.54C50.27 44.6297 51.6499 41.6674 53.6899 39.2038C55.7499 36.7403 58.2199 34.857 61.1099 33.554C64.0199 32.2509 67.1299 31.5994 70.4199 31.5994C74.0099 31.5994 77.0102 32.312 79.4302 33.7372C81.8602 35.1624 83.6002 37.1169 84.6602 39.6008C85.7202 42.0848 85.9802 44.9148 85.4502 48.0909C85.0802 50.3305 84.3999 52.3563 83.3999 54.1683C82.4299 55.9803 81.1699 57.599 79.6499 59.0241C78.1399 60.4493 76.41 61.6913 74.46 62.75C72.5 63.8494 70.8801 65.0099 69.6001 66.2315C68.3201 67.4328 67.29 68.8681 66.52 70.5376C65.74 72.1868 65.1302 74.233 64.6802 76.6761L64.5601 77.4091H57.23ZM59.0601 95.4886C57.5201 95.4886 56.2199 94.9593 55.1899 93.9006C54.1499 92.8215 53.6098 91.5185 53.5698 89.9915C53.5498 88.4645 54.0899 87.192 55.1899 86.174C56.2799 85.1357 57.5801 84.6165 59.0601 84.6165C60.5701 84.6165 61.8702 85.1458 62.9702 86.2045C64.0702 87.2633 64.6001 88.5256 64.5601 89.9915C64.5401 91.0095 64.28 91.9358 63.77 92.7706C63.28 93.6054 62.6198 94.267 61.7798 94.7557C60.9698 95.2443 60.0601 95.4886 59.0601 95.4886Z" fill="black"/>
</svg>
