<svg xmlns="http://www.w3.org/2000/svg" width="58.199" height="58.2" viewBox="0 0 58.199 58.2">
  <path id="Icon_awesome-download" data-name="Icon awesome-download" d="M24.553,0h9.094a2.722,2.722,0,0,1,2.728,2.728v19.1h9.969a2.269,2.269,0,0,1,1.6,3.876L30.657,43a2.2,2.2,0,0,1-3.1,0L10.242,25.7a2.269,2.269,0,0,1,1.6-3.876h9.98V2.728A2.722,2.722,0,0,1,24.553,0ZM58.2,42.741V55.472A2.722,2.722,0,0,1,55.472,58.2H2.728A2.722,2.722,0,0,1,0,55.472V42.741a2.722,2.722,0,0,1,2.728-2.728H19.4l5.57,5.57a5.825,5.825,0,0,0,8.253,0l5.57-5.57H55.472A2.722,2.722,0,0,1,58.2,42.741Zm-14.1,10a2.273,2.273,0,1,0-2.273,2.273A2.28,2.28,0,0,0,44.1,52.744Zm7.275,0a2.273,2.273,0,1,0-2.273,2.273A2.28,2.28,0,0,0,51.38,52.744Z" fill="#fff"/>
</svg>
