<svg xmlns="http://www.w3.org/2000/svg" xmlns:xlink="http://www.w3.org/1999/xlink" width="700" height="100" viewBox="0 0 700 100"><defs><clipPath id="b"><rect width="700" height="100"/></clipPath></defs><g id="a" clip-path="url(#b)"><path d="M8.95-4.882,6.25,0h22l.939-1.7,17.88-32.311L36.035-53.816Zm90.193,0-34.978-63.2L56.981-81.054l-.815-1.816H51.953l-.844,1.823L43.929-68.078l-.881,1.593-.037.066L54.047-46.609l.322.581,8.068,14.573L78.9-1.7,79.842,0h22Zm87.343-42.1a41.4,41.4,0,0,0-13.564-25.188A41.37,41.37,0,0,0,148.629-82.45l-36.754-.135V-65H146.59a24.2,24.2,0,0,1,3.647.449,23.705,23.705,0,0,1,9.629,4.363,23.906,23.906,0,0,1,9.026,14.324,23.98,23.98,0,0,1,.468,4.725,24.192,24.192,0,0,1-.508,4.919,23.947,23.947,0,0,1-19.7,18.684H129.415V-52.778h-17.54V0h38.453l.2-.026a41.453,41.453,0,0,0,35.932-35.048,41.86,41.86,0,0,0,.442-6.07A41.212,41.212,0,0,0,186.487-46.982ZM236.4-82.3A41.194,41.194,0,0,0,195.25-41.148,41.2,41.2,0,0,0,236.4,0a41.194,41.194,0,0,0,41.147-41.148A41.194,41.194,0,0,0,236.4-82.3ZM260.37-41.148A24,24,0,0,1,236.4-17.175a24,24,0,0,1-23.973-23.973A24,24,0,0,1,236.4-65.121,24,24,0,0,1,260.37-41.148Z" transform="translate(0 92)" fill="#f2f2f2"/><path d="M8.95-4.882,6.25,0h22l.939-1.7,17.88-32.311L36.035-53.816Zm90.193,0-34.978-63.2L56.981-81.054l-.815-1.816H51.953l-.844,1.823L43.929-68.078l-.881,1.593-.037.066L54.047-46.609l.322.581,8.068,14.573L78.9-1.7,79.842,0h22Z" transform="translate(347 92)" fill="#f2f2f2"/><path d="M6.25-82.739V0H23.79V-82.739Z" transform="translate(455 92)" fill="#4d93fc"/><path d="M256.25-49.525v14.251h0V0h17.54V-35.274h48.882v-17.54H256.254Zm73.793-15.516v-17.54H256.254v17.54Z" transform="translate(34 92)" fill="#f54f51"/><path d="M23.114,0V-11.977H5.952V0Z" transform="translate(486 91)" fill="#f2f2f2"/><path d="M38.4-52.657l2.152,4.666,5.061,10.963.884,1.911H66.972V-17.54H44.784C32.652-19.25,23.534-29.391,23.534-41.212s9.117-21.962,21.249-23.672H84.37v-17.54H48.409A42.387,42.387,0,0,0,18.791-70.537,40.441,40.441,0,0,0,6.25-41.212,40.444,40.444,0,0,0,18.795-11.883,42.384,42.384,0,0,0,48.409,0h36.1V-35.11h0V-52.657Zm90.75,0,2.152,4.666,5.061,10.963.884,1.911h20.471V-17.54H135.534c-12.132-1.71-21.249-11.851-21.249-23.672s9.117-21.962,21.249-23.672H175.12v-17.54H139.159a42.387,42.387,0,0,0-29.617,11.887A40.441,40.441,0,0,0,97-41.212a40.444,40.444,0,0,0,12.545,29.329A42.384,42.384,0,0,0,139.159,0h36.1V-35.11h0V-52.657Z" transform="translate(518 92)" fill="#f2f2f2"/></g></svg>