<svg xmlns="http://www.w3.org/2000/svg" xmlns:xlink="http://www.w3.org/1999/xlink" width="175" height="175" viewBox="0 0 175 175">
  <defs>
    <clipPath id="clip-_-2">
      <rect width="175" height="175"/>
    </clipPath>
  </defs>
  <g id="_-2" data-name="-2" clip-path="url(#clip-_-2)">
    <circle id="楕円形_90" data-name="楕円形 90" cx="87.5" cy="87.5" r="87.5" fill="#20124d"/>
    <path id="パス_77" data-name="パス 77" d="M120.3-133.8a22.908,22.908,0,0,1,6.5,5.8c2.2,3.2,2.4,4.2,1.9,11-1.1,15.4-4.9,20.7-29.4,41.2C84.8-63.7,81-58.9,81-52.7V-50H99c20.1,0,18.7-.6,17.4,7.3l-.7,3.7H89.8c-24.2,0-25.9-.1-25.4-1.8.2-.9,1.2-5.7,2.1-10.6s2.3-10.3,3.1-11.9c2.7-5.1,9.4-11.6,24-23.3,15-12,18.7-16.3,20.3-23.4,1.7-7.3,1.4-10.4-1.3-12.9-2.9-2.7-9.8-3.1-14.4-.7-3,1.6-6.2,6.9-6.2,10.4,0,4.6-.9,5.2-8,5.2H77.2l1.4-6a48.693,48.693,0,0,1,2.9-8.9c1.3-2.6,10-11,11.4-11.1.3-.1,2.9-.7,5.6-1.5C105.3-137.5,115-136.7,120.3-133.8ZM71.7-90.6a31.823,31.823,0,0,0-1.2,6L69.8-80H33.3l.8-4.8a50.6,50.6,0,0,1,1.4-6c.3-.9,5-1.2,18.6-1.2C69-92,72.1-91.8,71.7-90.6Z" transform="translate(6.387 175.303)" fill="#fff"/>
  </g>
</svg>
