<svg width="128" height="128" viewBox="0 0 128 128" fill="none" xmlns="http://www.w3.org/2000/svg">
<circle cx="64" cy="64" r="64" fill="#434343"/>
<path d="M57.6202 60.3679L56.5208 67.0866H29.1572L30.2566 60.3679H57.6202ZM51.1788 95L52.1561 89.5028L76.4657 66.9034C79.3161 64.2566 81.688 61.9458 83.5815 59.9709C85.4953 57.996 86.9816 56.1432 88.0403 54.4126C89.1194 52.6821 89.8218 50.8598 90.1475 48.946C90.514 46.7472 90.3206 44.8435 89.5673 43.2351C88.814 41.6267 87.6229 40.3847 85.9941 39.5092C84.3653 38.6338 82.4108 38.196 80.1305 38.196C77.728 38.196 75.5393 38.6948 73.5644 39.6925C71.5895 40.6697 69.9506 42.0542 68.6475 43.8459C67.3445 45.6172 66.4894 47.6837 66.0822 50.0455H58.8748C59.4856 46.3807 60.8802 43.1638 63.0588 40.3949C65.2576 37.6259 67.9553 35.4678 71.1518 33.9205C74.3686 32.3731 77.8095 31.5994 81.4742 31.5994C85.139 31.5994 88.2439 32.3731 90.7889 33.9205C93.3338 35.4678 95.1764 37.5547 96.3166 40.1811C97.4567 42.8075 97.7621 45.7292 97.2328 48.946C96.8256 51.267 96.0213 53.5168 94.8201 55.6953C93.6189 57.8738 91.7763 60.3068 89.2924 62.9943C86.8289 65.6615 83.4899 68.919 79.2754 72.767L62.7839 87.7926L62.6617 88.2812H91.7356L90.6362 95H51.1788Z" fill="white"/>
</svg>
