<svg xmlns="http://www.w3.org/2000/svg" xmlns:xlink="http://www.w3.org/1999/xlink" width="175" height="175" viewBox="0 0 175 175">
  <defs>
    <clipPath id="clip-_0">
      <rect width="175" height="175"/>
    </clipPath>
  </defs>
  <g id="_0" data-name="0" clip-path="url(#clip-_0)">
    <circle id="楕円形_90" data-name="楕円形 90" cx="87.5" cy="87.5" r="87.5" fill="#4a4a4a"/>
    <path id="前面オブジェクトで型抜き_5" data-name="前面オブジェクトで型抜き 5" d="M71.584,97.915c-4.975,0-9.465-.832-12.32-2.282a17.745,17.745,0,0,1-6.7-5.787A13.486,13.486,0,0,1,50,82.249c0-2.414,2.7-18.427,5.376-33.226C57.958,34.744,61.1,18.385,61.91,16.209A22.746,22.746,0,0,1,69.381,6.87a32.835,32.835,0,0,1,12.268-5.8A28.784,28.784,0,0,1,88.79,0a34.761,34.761,0,0,1,7.636,1.069,20.263,20.263,0,0,1,9.594,4.717c2.913,2.679,4.384,5.145,4.342,11.19-.042,6.089-1.606,15.638-4.673,32.252-2.818,15.7-5.875,30.147-6.727,32.581a23.258,23.258,0,0,1-6.589,8.872A27.328,27.328,0,0,1,82.311,96.51,39.362,39.362,0,0,1,71.584,97.915ZM87.375,10.956a16.431,16.431,0,0,0-5.285,1.3c-3.085,1.074-5.091,2.1-6.934,7.212-1.834,5.092-3.687,14.763-6.52,30.085-2.74,15.2-3.962,22.23-4.438,26.453-.515,4.565-.083,5.61.69,6.787a10.233,10.233,0,0,0,8.777,4.492,14.3,14.3,0,0,0,9.529-3.834C86.4,80.593,86.732,79.343,92.015,50c3.37-17.883,5.287-31.625,4.962-33.24-.429-1.705-2.035-3.263-4.522-4.388A13.45,13.45,0,0,0,87.375,10.956Z" transform="translate(7 38.542)" fill="#fff"/>
  </g>
</svg>
