<svg xmlns="http://www.w3.org/2000/svg" xmlns:xlink="http://www.w3.org/1999/xlink" width="175" height="175" viewBox="0 0 175 175">
  <defs>
    <clipPath id="clip-_10">
      <rect width="175" height="175"/>
    </clipPath>
  </defs>
  <g id="_10" data-name="10" clip-path="url(#clip-_10)">
    <circle id="楕円形_90" data-name="楕円形 90" cx="87.5" cy="87.5" r="87.5" fill="#ff0"/>
    <path id="パス_79" data-name="パス 79" d="M97.8-131.7a26.18,26.18,0,0,0-14.4,9.8c-2.7,3.9-3.6,8-10,43.5L69.7-57.3l2.1,4.4c5.1,10.5,22,12.9,34.5,4.9,7.8-4.9,9-8.1,14.7-39.5,5.3-28.7,5.6-33.2,2.5-37.9C119.5-131.4,107.4-134.4,97.8-131.7Zm13.5,11.5c1,.9,1.7,2.9,1.7,5.2,0,4.8-8.7,52.2-10.2,55.5-.6,1.3-3.1,3.4-5.6,4.7-4.2,2-4.8,2-8.6.7-6.6-2.3-6.6-3.1-1-34.1,4.1-22.8,5.3-27.7,7.2-30C98.8-122.9,107.1-123.9,111.3-120.2Z" transform="translate(0.594 175.472)"/>
    <path id="パス_80" data-name="パス 80" d="M63.3-128.7c-1.2,2.6-6.8,5.7-10.2,5.7-1.5,0-2.1.6-2.1,2.2a22.176,22.176,0,0,1-.6,4.5c-.6,2.2-.3,2.3,4.5,2.3,4.2,0,5.1.3,5.1,1.8,0,1.6-10.2,59.3-11.5,64.9-.5,2.2-.3,2.3,5.8,2.3h6.3l7.3-40.3c4-22.1,7.5-41.4,7.8-43l.6-2.7h-6C65-131,64.2-130.7,63.3-128.7Z" transform="translate(0.594 175.472)"/>
  </g>
</svg>
