<svg xmlns="http://www.w3.org/2000/svg" xmlns:xlink="http://www.w3.org/1999/xlink" width="175" height="175" viewBox="0 0 175 175">
  <defs>
    <clipPath id="clip-_13">
      <rect width="175" height="175"/>
    </clipPath>
  </defs>
  <g id="_13" data-name="13" clip-path="url(#clip-_13)">
    <circle id="楕円形_90" data-name="楕円形 90" cx="87.5" cy="87.5" r="87.5" fill="#fa0"/>
    <g id="_13-2" data-name="13" transform="translate(0.873 175.57)">
      <path id="パス_110" data-name="パス 110" d="M96.2-131.5a25.122,25.122,0,0,0-17.6,19.7l-.7,3.8H90.7l.7-3.8a12.738,12.738,0,0,1,15.2-10.8c5.5,1.1,6.9,4.2,5.4,12.1-1.9,10-4.4,12.1-16.2,14-2.8.4-3.8,1.1-3.8,2.4a38.99,38.99,0,0,1-.6,5c-.6,3.1-.6,3.1,3.4,3.1,5.4,0,8.7,1.4,10.7,4.3,1.4,2.2,1.4,3.2-.4,12.2-1.6,8.6-2.3,10.2-5,12.7-4.1,3.7-11.3,4.2-16,1.1-2.3-1.5-2.3-1.9-1.7-9.4L83-73H77c-7.4,0-7.5.2-7.5,12.2,0,8.2.1,8.8,3,11.8,5.7,6,19.9,7.7,29.8,3.5,5.5-2.3,11.4-8,13.1-12.8a84.813,84.813,0,0,0,3.1-13.4c1.4-8.2,1.4-9.6.1-12.8a12.535,12.535,0,0,0-4.4-5.2l-3-1.7,4.4-2.7c5.2-3.4,7.9-8.2,9.2-16.8,1.2-8.4.1-12.8-4.2-16.8C115-132.9,105.4-134.4,96.2-131.5Z"/>
      <path id="パス_111" data-name="パス 111" d="M62.2-128a11.193,11.193,0,0,1-6.7,4.1c-4.1,1-4.5,1.4-5.3,5.3a14.066,14.066,0,0,0-.5,4.8c.2.5,2.7.8,5.4.8,4.6,0,4.9.2,4.4,2.2C58.5-106.1,48-47.5,48-46.2c0,1,1.5,1.2,6.3,1l6.2-.3,7.1-39c4-21.5,7.5-40.7,7.8-42.8L76-131H70.2C64.9-131,64.2-130.7,62.2-128Z"/>
    </g>
  </g>
</svg>
