<svg xmlns="http://www.w3.org/2000/svg" xmlns:xlink="http://www.w3.org/1999/xlink" width="175" height="175" viewBox="0 0 175 175">
  <defs>
    <clipPath id="clip-_15">
      <rect width="175" height="175"/>
    </clipPath>
  </defs>
  <g id="_15" data-name="15" clip-path="url(#clip-_15)">
    <circle id="楕円形_90" data-name="楕円形 90" cx="87.5" cy="87.5" r="87.5" fill="#f60"/>
    <g id="グループ_330" data-name="グループ 330" transform="translate(-16659.6 -8544.385)">
      <path id="パス_128" data-name="パス 128" d="M67-129.9c-1.4,2.5-6.8,5.9-9.6,5.9-2.2,0-3.4,2.3-3.4,6.7,0,2.1.5,2.3,5,2.3,2.8,0,5,.1,5,.3,0,.1-2.7,15.1-6,33.2S52-48,52-47.3c0,.9,1.8,1.3,5.9,1.3h6l1-5.3C67.5-64.2,79-128.6,79-130.2c0-1.5-.9-1.8-5.5-1.8C69-132,67.9-131.6,67-129.9Z" transform="translate(16655 8720)"/>
      <path id="パス_129" data-name="パス 129" d="M87-129.8c-.9,2.1-8,40.2-8,42.7,0,.7,2.3,1.1,5.8,1.1,5.3,0,6-.2,7-2.5,2.7-5.9,12.5-8.4,17.6-4.4,3.2,2.5,3.3,4.6.5,19.6-2.4,13-4.5,16.5-10.8,18.4a10.22,10.22,0,0,1-7.5-.1c-4.8-1.5-6-4-5.2-10.7L87-71H81.1c-5.8,0-5.9,0-6.5,3.1a62.469,62.469,0,0,0-.6,8.5c0,4.5.5,5.9,3.1,8.9,9.6,10.9,34,6.9,41-6.7,2.5-4.9,7.2-29.9,6.5-35.1-.9-8.1-6.2-12-16.3-12a23.673,23.673,0,0,0-10.5,2.1,20.613,20.613,0,0,1-4.3,1.9c-.1-.1.7-4.8,1.8-10.5L97.2-121h16.3c9,0,16.6-.3,16.8-.8a24.537,24.537,0,0,0,1.2-5.5l.7-4.7H110.1C88.1-132,88-132,87-129.8Z" transform="translate(16655 8720)"/>
    </g>
  </g>
</svg>
