<svg xmlns="http://www.w3.org/2000/svg" xmlns:xlink="http://www.w3.org/1999/xlink" width="175" height="175" viewBox="0 0 175 175">
  <defs>
    <clipPath id="clip-_17">
      <rect width="175" height="175"/>
    </clipPath>
  </defs>
  <g id="_17" data-name="17" clip-path="url(#clip-_17)">
    <circle id="楕円形_90" data-name="楕円形 90" cx="87.5" cy="87.5" r="87.5" fill="red"/>
    <g id="グループ_331" data-name="グループ 331" transform="translate(-16397.6 -8539.5)">
      <path id="パス_124" data-name="パス 124" d="M67.1-128a11.526,11.526,0,0,1-6.6,4.2c-4.4,1.2-5.5,2.6-5.5,7.5,0,2.1.5,2.3,5,2.3,2.8,0,5,.1,5,.3,0,.1-2.7,15.1-6,33.2S53-47,53-46.3c0,.9,1.8,1.3,5.9,1.3h6l1-5.3C68.5-63.2,80-127.6,80-129.2c0-1.5-.9-1.8-5.3-1.8C69.9-131,69.1-130.7,67.1-128Z" transform="translate(16394 8715)"/>
      <path id="パス_125" data-name="パス 125" d="M84.5-129.8a29.355,29.355,0,0,0-.7,5.1l-.3,3.9,14.7-.2c8,0,14.9.3,15.2.8s-8.3,17-19,36.8C83.6-63.7,74.6-46.9,74.3-46.3c-.4,1,1.2,1.3,5.9,1.3h6.4l19.6-36.3c10.8-19.9,20-37.1,20.6-38.2a32.954,32.954,0,0,0,1.7-6.8l.7-4.7H107.1C90.3-131,84.8-130.7,84.5-129.8Z" transform="translate(16394 8715)"/>
    </g>
  </g>
</svg>
