<svg xmlns="http://www.w3.org/2000/svg" xmlns:xlink="http://www.w3.org/1999/xlink" width="175" height="175" viewBox="0 0 175 175">
  <defs>
    <clipPath id="clip-_18.5">
      <rect width="175" height="175"/>
    </clipPath>
  </defs>
  <g id="_18.5" data-name="18.5" clip-path="url(#clip-_18.5)">
    <circle id="楕円形_90" data-name="楕円形 90" cx="87.5" cy="87.5" r="87.5" fill="#a61c00"/>
    <path id="前面オブジェクトで型抜き_9" data-name="前面オブジェクトで型抜き 9" d="M35.412,75.924h0a23.778,23.778,0,0,1-10.76-2.371,11.479,11.479,0,0,1-6.14-7.042c-.5-1.741-.346-6,.413-11.113.752-5.075,1.859-9.477,2.888-11.487,1.426-2.752,6.409-7.5,8.6-8.2a.3.3,0,0,0,.222-.221c.142-.549-.791-1.947-2.322-3.479-1.581-1.531-2.422-2.389-2.775-3.649s-.212-3.039.075-6.05c.706-7.564,2.9-13.027,6.713-16.7S41.487.112,48.71.011C49,0,49.289,0,49.57,0A20.792,20.792,0,0,1,58.91,1.911c3.224,1.612,5.1,3.416,6.088,5.85.992,2.45,1.088,5.549.312,10.05a31.628,31.628,0,0,1-2.8,9.3,13.261,13.261,0,0,1-4.9,5.4c-.656.437-1.323.862-1.858,1.2a15.858,15.858,0,0,0-1.342.9.04.04,0,0,0-.021.033,11.478,11.478,0,0,0,2.821,3.168c2.608,2.407,3.1,3.582,3.1,7.4,0,7.53-2.827,18.834-5.6,22.4a20.081,20.081,0,0,1-8.5,6.248A28.834,28.834,0,0,1,35.412,75.924Zm6.352-36.9a12.439,12.439,0,0,0-5.154,1.386,9.323,9.323,0,0,0-4.1,3.2c-.868,1.6-1.9,5.667-2.638,10.363s-.917,8.447-.463,9.537C30.2,65.7,33,67.055,36.716,67.055c3.363,0,7.541-1.251,9.294-4.045.68-.971,1.866-5.407,2.7-10.1.954-4.824,1.171-7.522.75-9.313s-1.472-2.819-3.75-3.688A10.608,10.608,0,0,0,41.764,39.025ZM47.509,7.911a15.977,15.977,0,0,0-5.2,1.8c-4.081,2.04-5.9,6.2-5.9,13.5-.1,4.5.116,4.906,3.3,6.2a10.338,10.338,0,0,0,4.1.8,11.037,11.037,0,0,0,7.9-3.1c.83-.969,1.836-3.844,2.563-7.325.583-2.791,1.03-6.3.538-7.775a5.924,5.924,0,0,0-2.825-2.762A9.771,9.771,0,0,0,47.509,7.911Zm-42.2,67c-2.776,0-5.1-.308-5.3-.7-.289-.576,6.44-39.2,9.6-55.1l.7-3.2H5.81c-2.4,0-3.571-.027-4.068-.626-.516-.622-.288-1.842.168-4.274.486-2.433,1.152-3.1,3.1-3.1,1.533,0,3.731-1.335,5.6-3.4,2.776-2.879,3.972-3.4,8-3.5,2.987,0,4.7.364,4.7,1,0,.894-11.187,63.133-12.6,70.1C10.211,74.7,9.808,74.911,5.31,74.911Zm69.963-7.083c-.925,0-1.405-.117-1.606-.39-.17-.231-.157-.586.043-1.227.283-.945.956-4.436,1.6-8.3.607-3.638,1.407-7.527,1.7-8.8.17-.714.262-1.206,0-1.534-.485-.614-2.133-.666-7.1-.666-4.19,0-7.6-.4-7.6-.9a39.453,39.453,0,0,1,.6-4l.7-3.1h7.8c6.5,0,7.9-.284,7.9-1.6,0-.846.657-5.366,1.6-10.5l1.7-8.9h3.8c2.733,0,3.9.419,3.9,1.4,0,.85-.778,5.417-1.5,9.3-.56,3.009-1.5,8.179-1.5,9s2.388,1.3,7.3,1.5l7.2.3-.4,3a10.09,10.09,0,0,1-.8,3.7c-.188.471-3.4.8-7.8.8h-7.3l-1.9,10.2-1.8,10.3-4.3.3C76.484,67.792,75.794,67.828,75.273,67.828Z" transform="translate(39.094 49.538)" fill="#fff"/>
  </g>
</svg>
