<svg xmlns="http://www.w3.org/2000/svg" xmlns:xlink="http://www.w3.org/1999/xlink" width="175" height="175" viewBox="0 0 175 175">
  <defs>
    <clipPath id="clip-_19.5">
      <rect width="175" height="175"/>
    </clipPath>
  </defs>
  <g id="_19.5" data-name="19.5" clip-path="url(#clip-_19.5)">
    <circle id="楕円形_90" data-name="楕円形 90" cx="87.5" cy="87.5" r="87.5" fill="#460c00"/>
    <path id="前面オブジェクトで型抜き_7" data-name="前面オブジェクトで型抜き 7" d="M35.77,75.7A22.808,22.808,0,0,1,26.4,73.885c-3-1.368-4.745-2.725-5.837-4.538S19,65.208,19,61.584v-5.8H29.7l-.1,4.1a7.931,7.931,0,0,0,1.948,5.853,6.67,6.67,0,0,0,4.9,1.842,11.534,11.534,0,0,0,2.052-.195c3.2-.641,5.084-1.72,6.487-3.725,1.414-2.02,2.4-5.055,3.413-10.475.883-4.81,1.6-9.189,1.6-9.5,0-.082-.072-.124-.214-.124A11.208,11.208,0,0,0,46.3,44.984a15.231,15.231,0,0,1-7.806,1.655c-.7,0-1.481-.018-2.394-.055-5.669-.4-6.7-.8-9.2-3.6a10.091,10.091,0,0,1-2.35-3.562A13.32,13.32,0,0,1,24,34.884a82.471,82.471,0,0,1,1.587-13.125c1-5.32,2.127-9.5,3.012-11.175a19.212,19.212,0,0,1,4.788-5.349A26.618,26.618,0,0,1,40.2,1.085,23.892,23.892,0,0,1,48.056,0C53.139,0,57.818.958,59.7,2.384a18.8,18.8,0,0,1,4.7,5.6l1.9,3.5-4.2,23.5c-2.191,12.382-4.668,25.093-5.3,27.2-.708,2.17-2.722,4.955-5.388,7.45A21.3,21.3,0,0,1,43.4,74.684,29.1,29.1,0,0,1,35.77,75.7ZM47.528,8.187a11.425,11.425,0,0,0-5.228,1.2c-3.735,1.918-4.816,4.285-6.8,14.9-1.9,10.1-1.9,10.1.5,12.5a7.791,7.791,0,0,0,5.59,2.1,11.057,11.057,0,0,0,7.41-2.9c2.5-2.2,3.3-4.1,4.5-10.7,1.832-9.874,1.87-12.64.2-14.8C52.68,9.067,50.315,8.187,47.528,8.187ZM10.6,73.785H5.3c-3.033,0-5.3-.316-5.3-.6C0,72.975,1.135,66.693,2.706,58,3.4,54.17,4.181,49.834,5,45.284c2.711-14.527,5-27.777,5-28.4,0-.606-1.929-1.1-4.3-1.1H1.3l.6-3.7c.308-1.693.559-2.609,1.15-3.238C3.661,8.2,4.624,7.879,6.3,7.484a10.753,10.753,0,0,0,6-3.9C13.826,1.5,14.626.89,16.986.89c.522,0,1.143.029,2.014.095,2.632.21,4.4.733,4.4,1.3-.03.15-.313,1.739-.783,4.372l0,.011v0c-1.141,6.4-3.263,18.3-5.714,31.812l-6.3,35.3Zm71.2-6H77.9c-2.114,0-3.9-.412-3.9-.9,0-.544.808-5.081,1.5-8.8q.169-.873.322-1.658c1.032-5.293,1.5-7.708.619-8.782-.665-.807-2.115-.865-4.423-.865l-.907,0-1.111,0c-3.5,0-5.121-.032-6.013-.337S63,45.583,63,44.384c0-5.129.715-5.6,8.5-5.6h7.4l1.1-5.8c.39-2.013.816-4.375,1.158-6.274.181-1,.336-1.865.442-2.426.529-2.982.864-4.711,1.587-5.575.7-.834,1.78-.925,3.913-.925s3.079.072,3.446.52c.263.321.222.838.054,1.68-.312,1.351-1.032,5.173-1.6,8.3-.361,1.984-1.239,6.756-1.6,8.2-.138.758-.207,1.281.079,1.623.522.625,2.143.677,7.021.677,4.135,0,7.5.4,7.5.9s-.3,2.228-.6,3.9l-.6,3.1-7.7.3-7.6.3-1.8,10.2-1.9,10.3Z" transform="translate(36.5 49.649)" fill="#fff"/>
  </g>
</svg>
