<svg xmlns="http://www.w3.org/2000/svg" xmlns:xlink="http://www.w3.org/1999/xlink" width="175" height="175" viewBox="0 0 175 175">
  <defs>
    <clipPath id="clip-_2">
      <rect width="175" height="175"/>
    </clipPath>
  </defs>
  <g id="_2" data-name="2" clip-path="url(#clip-_2)">
    <circle id="楕円形_90" data-name="楕円形 90" cx="87.5" cy="87.5" r="87.5" fill="#0bf"/>
    <path id="パス_96" data-name="パス 96" d="M85.3-136.2c-10,3.6-15,9.1-17.8,19.7-2.3,8.9-2.5,8.6,5.7,8.3l7.2-.3,1.1-5c1.6-7,2.9-9,7.1-11,4.3-2,10.6-1.6,13.5,1.1,2.3,2.1,2.5,8,.4,15-1.6,5.6-7.3,11.6-21.5,22.8C70.6-77.3,61.6-68.7,58.9-64.3,57-61.2,53-45.1,53-40.3V-38H78.9c14.3,0,26.2-.4,26.5-.8a32.681,32.681,0,0,0,1.2-6l.7-5.2H69.8l.7-3.8c1.1-6.3,3.6-9.3,17.6-20.9,17.9-14.9,26.1-23.6,28.3-29.9a57.688,57.688,0,0,0,2.3-12.9c.5-7.3.3-8.3-1.9-11.5C111.4-137,96.8-140.3,85.3-136.2Z" transform="translate(1.537 175.483)"/>
  </g>
</svg>
