<svg width="128" height="128" viewBox="0 0 128 128" fill="none" xmlns="http://www.w3.org/2000/svg">
<circle cx="64" cy="64" r="64" fill="#00BBFF"/>
<path d="M38.3011 99L39.392 92.8636L66.5284 67.6364C69.7102 64.6818 72.358 62.1023 74.4716 59.8977C76.608 57.6932 78.267 55.625 79.4489 53.6932C80.6534 51.7614 81.4375 49.7273 81.8011 47.5909C82.2102 45.1364 81.9943 43.0114 81.1534 41.2159C80.3125 39.4205 78.983 38.0341 77.1648 37.0568C75.3466 36.0795 73.1648 35.5909 70.6193 35.5909C67.9375 35.5909 65.4943 36.1477 63.2898 37.2614C61.0852 38.3523 59.2557 39.8977 57.8011 41.8977C56.3466 43.875 55.392 46.1818 54.9375 48.8182H46.892C47.5739 44.7273 49.1307 41.1364 51.5625 38.0455C54.017 34.9545 57.0284 32.5455 60.5966 30.8182C64.1875 29.0909 68.0284 28.2273 72.1193 28.2273C76.2102 28.2273 79.6761 29.0909 82.517 30.8182C85.358 32.5455 87.4148 34.875 88.6875 37.8068C89.9602 40.7386 90.3011 44 89.7102 47.5909C89.2557 50.1818 88.358 52.6932 87.017 55.125C85.6761 57.5568 83.6193 60.2727 80.8466 63.2727C78.0966 66.25 74.3693 69.8864 69.6648 74.1818L51.2557 90.9545L51.1193 91.5H83.5739L82.3466 99H38.3011Z" fill="black"/>
</svg>
