<svg width="128" height="128" viewBox="0 0 128 128" fill="none" xmlns="http://www.w3.org/2000/svg">
<circle cx="64" cy="64" r="64" fill="#261358"/>
<path d="M18.0573 86L18.7391 82.1648L35.6993 66.3977C37.688 64.5511 39.3428 62.9389 40.6638 61.5611C41.999 60.1832 43.036 58.8906 43.7746 57.6832C44.5274 56.4759 45.0175 55.2045 45.2448 53.8693C45.5005 52.3352 45.3655 51.0071 44.8399 49.8849C44.3144 48.7628 43.4834 47.8963 42.347 47.2855C41.2107 46.6747 39.847 46.3693 38.2561 46.3693C36.58 46.3693 35.053 46.7173 33.6752 47.4134C32.2973 48.0952 31.1539 49.0611 30.2448 50.3111C29.3357 51.5469 28.7391 52.9886 28.455 54.6364H23.4266C23.8527 52.0795 24.8257 49.8352 26.3456 47.9034C27.8797 45.9716 29.7618 44.4659 31.9919 43.3864C34.2363 42.3068 36.6368 41.767 39.1936 41.767C41.7505 41.767 43.9167 42.3068 45.6922 43.3864C47.4678 44.4659 48.7533 45.9219 49.5488 47.7543C50.3442 49.5866 50.5573 51.625 50.188 53.8693C49.9039 55.4886 49.3428 57.0582 48.5047 58.5781C47.6667 60.098 46.3811 61.7955 44.6482 63.6705C42.9294 65.5312 40.5999 67.804 37.6595 70.4886L26.1539 80.9716L26.0686 81.3125H46.3527L45.5857 86H18.0573ZM61.3331 86.5966C58.1229 86.5966 55.5377 85.723 53.5774 83.9759C51.6172 82.2145 50.3246 79.6648 49.6996 76.3267C49.0746 72.9744 49.1456 68.9261 49.9127 64.1818C50.6797 59.4659 51.9368 55.4389 53.684 52.1009C55.4311 48.7486 57.5831 46.1918 60.1399 44.4304C62.6968 42.6548 65.5661 41.767 68.7479 41.767C71.9297 41.767 74.5078 42.6548 76.4823 44.4304C78.4709 46.206 79.7919 48.7628 80.4453 52.1009C81.113 55.4389 81.049 59.4659 80.2536 64.1818C79.4581 68.9261 78.1868 72.9673 76.4397 76.3054C74.6925 79.6435 72.5405 82.1932 69.9837 83.9545C67.4269 85.7159 64.5434 86.5966 61.3331 86.5966ZM62.1002 81.9091C65.2962 81.9091 68.0306 80.375 70.3033 77.3068C72.5902 74.2244 74.2024 69.8494 75.1399 64.1818C75.7649 60.4034 75.8928 57.1861 75.5235 54.5298C75.1541 51.8736 74.3303 49.8494 73.0519 48.4574C71.7735 47.0653 70.0831 46.3693 67.9809 46.3693C64.8274 46.3693 62.1144 47.9247 59.8416 51.0355C57.5689 54.1321 55.9638 58.5142 55.0263 64.1818C54.4013 67.9602 54.2664 71.1705 54.6215 73.8125C54.9766 76.4545 55.7863 78.4645 57.0505 79.8423C58.3147 81.2202 59.9979 81.9091 62.1002 81.9091ZM80.6047 86.2727C79.7411 86.2727 79.0195 85.9773 78.4399 85.3864C77.8604 84.7841 77.5593 84.0568 77.5365 83.2045C77.5252 82.3523 77.8263 81.642 78.4399 81.0739C79.0536 80.4943 79.7752 80.2045 80.6047 80.2045C81.4456 80.2045 82.1729 80.5 82.7865 81.0909C83.4002 81.6818 83.6956 82.3864 83.6729 83.2045C83.6615 83.7727 83.5138 84.2898 83.2297 84.7557C82.957 85.2216 82.5877 85.5909 82.1218 85.8636C81.6672 86.1364 81.1615 86.2727 80.6047 86.2727ZM95.9726 86.4773C93.5862 86.4773 91.5464 86.0398 89.8532 85.1648C88.1714 84.2784 86.9385 83.0795 86.1544 81.5682C85.3816 80.0568 85.1544 78.3523 85.4726 76.4545C85.7112 75.0227 86.2226 73.6989 87.0066 72.483C87.7907 71.267 88.7453 70.25 89.8703 69.4318C91.0066 68.6136 92.2226 68.0909 93.518 67.8636V67.7273C91.9157 67.2841 90.7623 66.3011 90.0578 64.7784C89.3646 63.2443 89.1998 61.5227 89.5635 59.6136C89.9044 57.8523 90.626 56.2955 91.7282 54.9432C92.8305 53.5909 94.2112 52.5341 95.8703 51.7727C97.5294 51 99.3589 50.6136 101.359 50.6136C103.427 50.6136 105.211 51.0341 106.711 51.875C108.211 52.7045 109.313 53.8409 110.018 55.2841C110.734 56.7159 110.938 58.3409 110.632 60.1591C110.302 62.1023 109.49 63.75 108.194 65.1023C106.899 66.4432 105.416 67.3182 103.745 67.7273V67.8636C104.973 68.1136 106.035 68.6761 106.933 69.5511C107.842 70.4261 108.501 71.5114 108.91 72.8068C109.319 74.0909 109.393 75.4886 109.132 77C108.825 78.8523 108.058 80.4943 106.831 81.9261C105.603 83.3466 104.052 84.4602 102.177 85.267C100.313 86.0739 98.2453 86.4773 95.9726 86.4773ZM96.1089 82.7273C97.7566 82.7273 99.2169 82.4602 100.49 81.9261C101.762 81.3807 102.796 80.625 103.592 79.6591C104.399 78.6818 104.904 77.5455 105.109 76.25C105.313 74.9545 105.171 73.8239 104.683 72.858C104.194 71.8807 103.433 71.125 102.399 70.5909C101.365 70.0455 100.132 69.7727 98.6998 69.7727C97.1771 69.7727 95.768 70.0739 94.4726 70.6761C93.1771 71.2784 92.0976 72.108 91.2339 73.1648C90.3816 74.2216 89.8476 75.4318 89.6316 76.7955C89.4385 78.0114 89.5691 79.0682 90.0237 79.9659C90.4782 80.8523 91.2226 81.5341 92.2566 82.0114C93.2907 82.4886 94.5748 82.7273 96.1089 82.7273ZM98.8362 66.1591C100.166 66.1591 101.376 65.892 102.467 65.358C103.569 64.8239 104.478 64.0852 105.194 63.142C105.921 62.1989 106.393 61.1136 106.609 59.8864C106.825 58.7045 106.74 57.6989 106.353 56.8693C105.978 56.0284 105.359 55.392 104.495 54.9602C103.632 54.517 102.563 54.2955 101.291 54.2955C99.9157 54.2955 98.6771 54.5511 97.5748 55.0625C96.4839 55.5739 95.5862 56.2898 94.8816 57.2102C94.1771 58.1307 93.7226 59.2045 93.518 60.4318C93.3248 61.625 93.4271 62.6534 93.8248 63.517C94.2226 64.3693 94.8532 65.0227 95.7169 65.4773C96.5919 65.9318 97.6316 66.1591 98.8362 66.1591Z" fill="white"/>
</svg>
