<svg xmlns="http://www.w3.org/2000/svg" xmlns:xlink="http://www.w3.org/1999/xlink" width="175" height="175" viewBox="0 0 175 175"><defs><clipPath id="b"><rect width="175" height="175"/></clipPath></defs><g id="a" clip-path="url(#b)"><circle cx="87.5" cy="87.5" r="87.5" fill="#261358"/><g transform="translate(-1.312)"><path d="M53.471,68.6A20.037,20.037,0,0,1,44.884,67a12.386,12.386,0,0,1-4.669-4.054,9.481,9.481,0,0,1-1.787-5.322c0-1.691,1.882-12.91,3.747-23.278,1.8-10,3.992-21.465,4.554-22.99a15.923,15.923,0,0,1,5.207-6.542A22.832,22.832,0,0,1,60.486.749,19.965,19.965,0,0,1,65.463,0a24.109,24.109,0,0,1,5.322.749,14.094,14.094,0,0,1,6.687,3.3c2.03,1.877,3.055,3.6,3.026,7.84-.029,4.266-1.12,10.956-3.257,22.6-1.964,11-4.095,21.121-4.688,22.826a16.29,16.29,0,0,1-4.592,6.216,19.022,19.022,0,0,1-7.013,4.083A27.3,27.3,0,0,1,53.471,68.6ZM64.477,7.676a11.4,11.4,0,0,0-3.683.913c-2.15.752-3.548,1.468-4.833,5.053-1.278,3.567-2.57,10.343-4.544,21.078-1.91,10.646-2.762,15.574-3.093,18.533-.359,3.2-.058,3.93.481,4.755a7.121,7.121,0,0,0,6.117,3.147,9.941,9.941,0,0,0,6.641-2.686c2.237-2.006,2.467-2.882,6.149-23.441C70.06,22.5,71.4,12.871,71.169,11.74a5.167,5.167,0,0,0-3.151-3.074A9.336,9.336,0,0,0,64.477,7.676ZM17.216,67.538c-6.632,0-11.272-.032-13.911-.192C.927,67.2,0,66.954,0,66.462c0-2.185,2.444-13.879,3.228-15.448a27.258,27.258,0,0,1,5.034-6.341,141.175,141.175,0,0,1,10.8-9.338C32.119,24.811,34.586,21.368,34.586,13.661c0-3.5-2.534-5.847-6.3-5.847a10.361,10.361,0,0,0-3.225.544c-3.545,1.156-5.607,3.821-6.3,8.147l-.461,3.382H8.608l.923-4.073c1.63-6.675,3.815-9.869,8.992-13.143C20.936,1.153,24.7.282,28.853.282a26.616,26.616,0,0,1,5.209.5,17.381,17.381,0,0,1,4.521,1.508A10.251,10.251,0,0,1,43.2,7.206a12.666,12.666,0,0,1,.989,7.224,33.412,33.412,0,0,1-1.519,6.6,23.722,23.722,0,0,1-2.967,5.727c-2.459,3.522-6.281,7.277-13.191,12.96C19.916,45.138,16.7,48.034,14.66,50.4a11.492,11.492,0,0,0-3.208,6.763l-.308,2.305,12.528.231,12.6.23-.537,3.228a17.425,17.425,0,0,1-.923,3.766C34.671,67.285,27.434,67.538,17.216,67.538Z" transform="translate(25.312 53)" fill="#fff"/><path d="M61.491-53.945s-4.03,7.9-4.213,8.332c-.244.611.733.794,4.213.794h4.58l3.738-9.126Z" transform="translate(42.285 166.945)" fill="#fff"/><path d="M73.075-138.453c-5.643,1.383-9.681,4.979-11.174,9.9a31.627,31.627,0,0,0-1,7.413c0,4.315,0,4.37,2.1,6.251a18.166,18.166,0,0,1,2.047,2.1,4.524,4.524,0,0,1-1.6.83c-2.1.885-4.757,3.762-5.809,6.14-1.217,3.043-2.711,12-2.379,14.77.553,4.923,4.37,7.8,11.064,8.3,7.634.609,14.383-2.489,17.094-7.8,1.106-2.213,3.209-11.838,3.209-14.881a8.393,8.393,0,0,0-3.43-6.362l-1.549-1,2.489-1.77c3.928-2.766,5.532-5.974,6.2-12.613.387-4.315,0-5.809-2.1-8.243C85.522-138.453,78.607-139.892,73.075-138.453Zm6.583,6.085a5.55,5.55,0,0,1,2.323,1.936c.83,1.272.885,1.881.277,5.421-.83,4.591-1.6,6.085-4.094,7.579-3.374,2.1-8.851.94-9.57-1.991-.553-2.157.83-8.851,2.157-10.511A7.983,7.983,0,0,1,79.658-132.368Zm-2.379,24.285a5.353,5.353,0,0,1,1.6,2.489c0,2.157-2.268,12.226-3.043,13.387C73.13-88,65-88,63.394-92.206c-.553-1.549,1.328-12.613,2.545-14.438s3.928-3.043,7.026-3.043C75.177-109.687,75.9-109.411,77.279-108.083Z" transform="translate(60.889 204.014)" fill="#fff"/></g></g></svg>