<svg xmlns="http://www.w3.org/2000/svg" xmlns:xlink="http://www.w3.org/1999/xlink" width="175" height="175" viewBox="0 0 175 175">
  <defs>
    <clipPath id="clip-_20">
      <rect width="175" height="175"/>
    </clipPath>
  </defs>
  <g id="_20" data-name="20" clip-path="url(#clip-_20)">
    <circle id="楕円形_90" data-name="楕円形 90" cx="87.5" cy="87.5" r="87.5"/>
    <path id="前面オブジェクトで型抜き_5" data-name="前面オブジェクトで型抜き 5" d="M69.572,89.256c-4.511,0-8.583-.758-11.172-2.081A16.116,16.116,0,0,1,52.325,81.9,12.336,12.336,0,0,1,50,74.975c0-2.2,2.448-16.8,4.875-30.288,2.341-13.016,5.194-27.929,5.925-29.912a20.717,20.717,0,0,1,6.774-8.513A29.708,29.708,0,0,1,78.7.975,25.977,25.977,0,0,1,85.175,0,31.368,31.368,0,0,1,92.1.975a18.338,18.338,0,0,1,8.7,4.3c2.641,2.442,3.975,4.69,3.938,10.2-.038,5.55-1.457,14.255-4.237,29.4-2.555,14.307-5.328,27.48-6.1,29.7a21.2,21.2,0,0,1-5.975,8.088A24.75,24.75,0,0,1,79.3,87.975,35.519,35.519,0,0,1,69.572,89.256ZM83.892,9.987A14.836,14.836,0,0,0,79.1,11.175c-2.8.979-4.616,1.91-6.288,6.575-1.663,4.641-3.343,13.457-5.913,27.425-2.485,13.852-3.593,20.264-4.025,24.113-.467,4.162-.075,5.114.625,6.187a9.265,9.265,0,0,0,7.959,4.1A12.934,12.934,0,0,0,80.1,76.075c2.91-2.609,3.209-3.75,8-30.5,3.056-16.3,4.794-28.828,4.5-30.3-.389-1.554-1.845-2.975-4.1-4A12.147,12.147,0,0,0,83.892,9.987ZM22.4,87.875c-8.629,0-14.666-.042-18.1-.25-3.094-.188-4.3-.51-4.3-1.15,0-2.843,3.18-18.058,4.2-20.1a35.466,35.466,0,0,1,6.55-8.25A183.686,183.686,0,0,1,24.8,45.975C41.791,32.282,45,27.8,45,17.775c0-4.551-3.3-7.608-8.2-7.608a13.481,13.481,0,0,0-4.2.708c-4.613,1.5-7.3,4.972-8.2,10.6l-.6,4.4H11.2l1.2-5.3c2.121-8.685,4.964-12.84,11.7-17.1C27.24,1.5,32.139.367,37.541.367a34.63,34.63,0,0,1,6.777.647A22.614,22.614,0,0,1,50.2,2.975a13.338,13.338,0,0,1,6.012,6.4,16.48,16.48,0,0,1,1.287,9.4,43.473,43.473,0,0,1-1.977,8.586,30.865,30.865,0,0,1-3.861,7.452c-3.2,4.582-8.172,9.468-17.163,16.863-8.587,7.055-12.767,10.822-15.425,13.9s-3.792,5.466-4.175,8.8l-.4,3,16.3.3,16.4.3-.7,4.2a22.672,22.672,0,0,1-1.2,4.9C45.112,87.546,35.695,87.875,22.4,87.875Z" transform="translate(35.131 42.872)" fill="#fff"/>
  </g>
</svg>
