<svg width="128" height="128" viewBox="0 0 128 128" fill="none" xmlns="http://www.w3.org/2000/svg">
<circle cx="64" cy="64" r="64" fill="#360900"/>
<path d="M17.9557 86L18.6375 82.1648L35.5978 66.3977C37.5864 64.5511 39.2412 62.9389 40.5622 61.5611C41.8975 60.1832 42.9344 58.8906 43.673 57.6832C44.4259 56.4759 44.9159 55.2045 45.1432 53.8693C45.3989 52.3352 45.264 51.0071 44.7384 49.8849C44.2128 48.7628 43.3818 47.8963 42.2455 47.2855C41.1091 46.6747 39.7455 46.3693 38.1546 46.3693C36.4784 46.3693 34.9515 46.7173 33.5736 47.4134C32.1958 48.0952 31.0523 49.0611 30.1432 50.3111C29.2341 51.5469 28.6375 52.9886 28.3534 54.6364H23.325C23.7512 52.0795 24.7242 49.8352 26.2441 47.9034C27.7782 45.9716 29.6603 44.4659 31.8904 43.3864C34.1347 42.3068 36.5353 41.767 39.0921 41.767C41.6489 41.767 43.8151 42.3068 45.5907 43.3864C47.3662 44.4659 48.6517 45.9219 49.4472 47.7543C50.2426 49.5866 50.4557 51.625 50.0864 53.8693C49.8023 55.4886 49.2412 57.0582 48.4032 58.5781C47.5651 60.098 46.2796 61.7955 44.5466 63.6705C42.8279 65.5312 40.4983 67.804 37.558 70.4886L26.0523 80.9716L25.9671 81.3125H46.2512L45.4841 86H17.9557ZM61.2316 86.5966C58.0213 86.5966 55.4361 85.723 53.4759 83.9759C51.5157 82.2145 50.223 79.6648 49.598 76.3267C48.973 72.9744 49.0441 68.9261 49.8111 64.1818C50.5782 59.4659 51.8353 55.4389 53.5824 52.1009C55.3296 48.7486 57.4816 46.1918 60.0384 44.4304C62.5952 42.6548 65.4645 41.767 68.6463 41.767C71.8282 41.767 74.4063 42.6548 76.3807 44.4304C78.3693 46.206 79.6904 48.7628 80.3438 52.1009C81.0114 55.4389 80.9475 59.4659 80.152 64.1818C79.3566 68.9261 78.0853 72.9673 76.3381 76.3054C74.5909 79.6435 72.439 82.1932 69.8821 83.9545C67.3253 85.7159 64.4418 86.5966 61.2316 86.5966ZM61.9986 81.9091C65.1946 81.9091 67.929 80.375 70.2017 77.3068C72.4887 74.2244 74.1009 69.8494 75.0384 64.1818C75.6634 60.4034 75.7912 57.1861 75.4219 54.5298C75.0526 51.8736 74.2287 49.8494 72.9503 48.4574C71.6719 47.0653 69.9816 46.3693 67.8793 46.3693C64.7259 46.3693 62.0128 47.9247 59.7401 51.0355C57.4674 54.1321 55.8622 58.5142 54.9247 64.1818C54.2997 67.9602 54.1648 71.1705 54.5199 73.8125C54.875 76.4545 55.6847 78.4645 56.9489 79.8423C58.2131 81.2202 59.8963 81.9091 61.9986 81.9091ZM80.5032 86.2727C79.6395 86.2727 78.9179 85.9773 78.3384 85.3864C77.7588 84.7841 77.4577 84.0568 77.435 83.2045C77.4236 82.3523 77.7247 81.642 78.3384 81.0739C78.952 80.4943 79.6736 80.2045 80.5032 80.2045C81.3441 80.2045 82.0713 80.5 82.685 81.0909C83.2986 81.6818 83.5941 82.3864 83.5713 83.2045C83.56 83.7727 83.4122 84.2898 83.1282 84.7557C82.8554 85.2216 82.4861 85.5909 82.0202 85.8636C81.5657 86.1364 81.06 86.2727 80.5032 86.2727ZM94.5841 86.4773C92.0159 86.4773 89.9477 85.7784 88.3795 84.3807C86.8113 82.9716 85.7772 80.9318 85.2772 78.2614C84.7772 75.5795 84.8341 72.3409 85.4477 68.5455C86.0613 64.7727 87.067 61.5511 88.4647 58.8807C89.8625 56.1989 91.5841 54.1534 93.6295 52.7443C95.675 51.3239 97.9704 50.6136 100.516 50.6136C103.061 50.6136 105.124 51.3239 106.703 52.7443C108.294 54.1648 109.351 56.2102 109.874 58.8807C110.408 61.5511 110.357 64.7727 109.72 68.5455C109.084 72.3409 108.067 75.5739 106.669 78.2443C105.272 80.9148 103.55 82.9545 101.505 84.3636C99.4591 85.7727 97.1522 86.4773 94.5841 86.4773ZM95.1977 82.7273C97.7545 82.7273 99.942 81.5 101.76 79.0455C103.59 76.5795 104.88 73.0795 105.63 68.5455C106.13 65.5227 106.232 62.9489 105.936 60.8239C105.641 58.6989 104.982 57.0795 103.959 55.9659C102.936 54.8523 101.584 54.2955 99.9022 54.2955C97.3795 54.2955 95.2091 55.5398 93.3909 58.0284C91.5727 60.5057 90.2886 64.0114 89.5386 68.5455C89.0386 71.5682 88.9307 74.1364 89.2147 76.25C89.4988 78.3636 90.1466 79.9716 91.1579 81.0739C92.1693 82.1761 93.5159 82.7273 95.1977 82.7273Z" fill="white"/>
</svg>
