<svg xmlns="http://www.w3.org/2000/svg" xmlns:xlink="http://www.w3.org/1999/xlink" width="175" height="175" viewBox="0 0 175 175"><defs><clipPath id="b"><rect width="175" height="175"/></clipPath></defs><g id="a" clip-path="url(#b)"><circle cx="87.5" cy="87.5" r="87.5" fill="#351c75"/><g transform="translate(15.688 -10.328)"><path d="M50.2,2.608c5.3,2.7,8.3,9.1,7.3,15.8-1.8,12.8-6.1,19-23,32.9-15.7,12.9-18.9,16.6-19.6,22.7l-.4,3,16.3.3,16.4.3-.7,4.2a22.14,22.14,0,0,1-1.2,4.9c-.2.5-10.5.8-22.9.8-18.4,0-22.4-.2-22.4-1.4,0-2.9,3.2-18.1,4.2-20.1,2.7-5,7.9-10.2,20.6-20.4,17-13.7,20.2-18.2,20.2-28.2,0-6-5.7-9.1-12.4-6.9-4.6,1.5-7.3,5-8.2,10.6l-.6,4.4H11.2l1.2-5.3c2.1-8.6,4.9-12.8,11.7-17.1C30.3-.792,43-1.092,50.2,2.608Z" transform="translate(25.312 53.568)" fill="#fff"/><path d="M84.673-133.437c-2.37,2.644-4.193,3.646-7.019,4.193-2.826.456-3.92,1.094-3.92,2.1a46.854,46.854,0,0,1-.547,4.922l-.547,3.373,5.378.273,5.378.273L77.29-84.578c-3.464,18.5-6.2,34.457-6.29,35.277,0,1.458.912,1.641,6.654,1.641h6.654l7.931-43.573c4.375-23.883,7.931-44.028,7.931-44.666,0-.729-1.823-1.094-6.107-1C88.046-136.9,87.773-136.719,84.673-133.437Z" transform="translate(17.917 190.116)" fill="#fff"/></g></g></svg>