<svg width="128" height="128" viewBox="0 0 128 128" fill="none" xmlns="http://www.w3.org/2000/svg">
<circle cx="64" cy="64" r="64" fill="#351C75"/>
<path d="M20.3391 88L21.0891 83.7813L39.7453 66.4375C41.9328 64.4062 43.7531 62.6328 45.2062 61.1172C46.675 59.6016 47.8156 58.1797 48.6281 56.8516C49.4563 55.5234 49.9953 54.125 50.2453 52.6562C50.5266 50.9688 50.3781 49.5078 49.8 48.2734C49.2219 47.0391 48.3078 46.0859 47.0578 45.4141C45.8078 44.7422 44.3078 44.4062 42.5578 44.4062C40.7141 44.4062 39.0344 44.7891 37.5187 45.5547C36.0031 46.3047 34.7453 47.3672 33.7453 48.7422C32.7453 50.1016 32.0891 51.6875 31.7766 53.5H26.2453C26.7141 50.6875 27.7844 48.2187 29.4562 46.0937C31.1437 43.9687 33.2141 42.3125 35.6672 41.125C38.1359 39.9375 40.7766 39.3437 43.5891 39.3437C46.4016 39.3437 48.7844 39.9375 50.7375 41.125C52.6906 42.3125 54.1047 43.9141 54.9797 45.9297C55.8547 47.9453 56.0891 50.1875 55.6828 52.6562C55.3703 54.4375 54.7531 56.1641 53.8312 57.8359C52.9094 59.5078 51.4953 61.375 49.5891 63.4375C47.6984 65.4844 45.1359 67.9844 41.9016 70.9375L29.2453 82.4687L29.1516 82.8438H51.4641L50.6203 88H20.3391ZM77.2238 40L69.255 88H63.4425L70.38 46.0937H70.0988L57.0675 53.875L58.0988 47.9687L71.4113 40H77.2238ZM78.08 88.2727C77.2164 88.2727 76.4948 87.9773 75.9153 87.3864C75.3357 86.7841 75.0346 86.0568 75.0118 85.2045C75.0005 84.3523 75.3016 83.642 75.9153 83.0739C76.5289 82.4943 77.2505 82.2045 78.08 82.2045C78.9209 82.2045 79.6482 82.5 80.2618 83.0909C80.8755 83.6818 81.1709 84.3864 81.1482 85.2045C81.1368 85.7727 80.9891 86.2898 80.705 86.7557C80.4323 87.2216 80.063 87.5909 79.5971 87.8636C79.1425 88.1364 78.6368 88.2727 78.08 88.2727ZM93.3797 88.4773C90.8115 88.4773 88.7433 87.7784 87.1751 86.3807C85.607 84.9716 84.5729 82.9318 84.0729 80.2614C83.5729 77.5795 83.6297 74.3409 84.2433 70.5455C84.857 66.7727 85.8626 63.5511 87.2604 60.8807C88.6581 58.1989 90.3797 56.1534 92.4251 54.7443C94.4706 53.3239 96.7661 52.6136 99.3115 52.6136C101.857 52.6136 103.919 53.3239 105.499 54.7443C107.09 56.1648 108.147 58.2102 108.669 60.8807C109.204 63.5511 109.152 66.7727 108.516 70.5455C107.88 74.3409 106.863 77.5739 105.465 80.2443C104.067 82.9148 102.346 84.9545 100.3 86.3636C98.2547 87.7727 95.9479 88.4773 93.3797 88.4773ZM93.9933 84.7273C96.5501 84.7273 98.7376 83.5 100.556 81.0455C102.385 78.5795 103.675 75.0795 104.425 70.5455C104.925 67.5227 105.027 64.9489 104.732 62.8239C104.437 60.6989 103.777 59.0795 102.755 57.9659C101.732 56.8523 100.38 56.2955 98.6979 56.2955C96.1751 56.2955 94.0047 57.5398 92.1865 60.0284C90.3683 62.5057 89.0842 66.0114 88.3342 70.5455C87.8342 73.5682 87.7263 76.1364 88.0104 78.25C88.2945 80.3636 88.9422 81.9716 89.9536 83.0739C90.9649 84.1761 92.3115 84.7273 93.9933 84.7273Z" fill="white"/>
</svg>
