<svg xmlns="http://www.w3.org/2000/svg" xmlns:xlink="http://www.w3.org/1999/xlink" width="175" height="175" viewBox="0 0 175 175">
  <defs>
    <clipPath id="clip-_4">
      <rect width="175" height="175"/>
    </clipPath>
  </defs>
  <g id="_4" data-name="4" clip-path="url(#clip-_4)">
    <circle id="楕円形_90" data-name="楕円形 90" cx="87.5" cy="87.5" r="87.5" fill="aqua"/>
    <path id="パス_102" data-name="パス 102" d="M90.6-131.8C54.5-75,48-63.4,48-55.9c0,.5,8.4.9,18.6.9H85.3l-.6,4.8c-.3,2.6-.9,6.2-1.3,7.9L82.8-39H96.7l1.4-7.8,1.4-7.7,4.2-.3c4.5-.3,4.7-.5,5.8-8l.7-4.2h-4.1c-2.3,0-4.1-.5-4.1-1.1s2.7-15.8,6-33.9,6-33.3,6-33.9c0-.7-3.5-1.1-10-1.1H94ZM93-94.9c-2.2,12.3-4.3,23.6-4.6,25.1L87.8-67H76.4c-6.3,0-11.4-.2-11.4-.5,0-1,31.3-50.5,31.7-50.2C96.9-117.4,95.3-107.2,93-94.9Z" transform="translate(7 176)"/>
  </g>
</svg>
