<svg xmlns="http://www.w3.org/2000/svg" xmlns:xlink="http://www.w3.org/1999/xlink" width="175" height="175" viewBox="0 0 175 175">
  <defs>
    <clipPath id="clip-_6">
      <rect width="175" height="175"/>
    </clipPath>
  </defs>
  <g id="_6" data-name="6" clip-path="url(#clip-_6)">
    <circle id="楕円形_90" data-name="楕円形 90" cx="87.5" cy="87.5" r="87.5" fill="lime"/>
    <path id="パス_104" data-name="パス 104" d="M85.1-137.4c-10.2,3.6-17.1,11.1-19,20.7C60.4-88.5,55-55,55.6-51.5c.8,5.1,7.3,11.8,12.9,13.4,9.6,2.6,21.7.6,29.3-5,6.5-4.8,8.9-9.9,11.8-25.1,2.9-14.7,2.8-21.4-.3-25.6-5-6.9-18.7-8.9-28-4.1l-4.9,2.6,2.3-12.5c1.9-10.6,2.7-13.1,5-15.4a14.965,14.965,0,0,1,14.5-3.9c4.7,1.5,6,3.8,5.7,10.4l-.3,5.2h13.9l.8-5.2c1.2-7.2-.4-12.3-5.2-16.6a23.778,23.778,0,0,0-7.8-4.6C99.9-139.4,90.3-139.2,85.1-137.4Zm9.1,49.8c3.5,2.6,3.7,5.7,1.2,19.1-2,10.8-2.7,13.3-5.1,15.7C83-45.2,70-47.7,70-56.8c0-4.8,3.6-23.5,5-26.2C77.8-88.2,89.7-91.1,94.2-87.6Z" transform="translate(0.382 175.438)"/>
  </g>
</svg>
