<svg width="128" height="128" viewBox="0 0 128 128" fill="none" xmlns="http://www.w3.org/2000/svg">
<circle cx="64" cy="64" r="64" fill="#00FF00"/>
<path d="M60.5014 99.9545C57.5696 99.9318 54.7287 99.375 51.9787 98.2841C49.2287 97.1932 46.8537 95.3864 44.8537 92.8636C42.8537 90.3182 41.4787 86.875 40.7287 82.5341C40.0014 78.1932 40.1832 72.7727 41.2741 66.2727C42.2969 60.1591 43.7628 54.75 45.6719 50.0455C47.6037 45.3182 49.9105 41.3409 52.5923 38.1136C55.2741 34.8636 58.2855 32.4091 61.6264 30.75C64.9901 29.0682 68.6151 28.2273 72.5014 28.2273C76.3651 28.2273 79.7173 29.0114 82.5582 30.5795C85.4219 32.125 87.6264 34.2841 89.1719 37.0568C90.7401 39.8068 91.5014 43 91.456 46.6364H83.4105C83.2969 43.4545 82.331 40.8409 80.5128 38.7955C78.7173 36.75 75.956 35.7273 72.2287 35.7273C66.8196 35.7273 62.0923 38.0341 58.0469 42.6477C54.0014 47.2614 51.2287 54 49.7287 62.8636L50.2741 62.3182C51.8651 60.4091 53.6264 58.7841 55.5582 57.4432C57.4901 56.1023 59.5469 55.0795 61.7287 54.375C63.9332 53.6705 66.206 53.3182 68.5469 53.3182C72.6378 53.3182 76.2173 54.3409 79.2855 56.3864C82.3537 58.4318 84.6151 61.2386 86.0696 64.8068C87.5241 68.375 87.8651 72.4545 87.0923 77.0455C86.3651 81.2727 84.7741 85.1364 82.3196 88.6364C79.8878 92.1136 76.7969 94.8864 73.0469 96.9545C69.3196 99 65.1378 100 60.5014 99.9545ZM60.7741 92.4545C63.6832 92.4545 66.4332 91.7159 69.0241 90.2386C71.6151 88.7614 73.8082 86.7727 75.6037 84.2727C77.3991 81.7727 78.5469 79 79.0469 75.9545C79.5014 73.1818 79.2969 70.6477 78.4332 68.3523C77.5696 66.0568 76.1719 64.2273 74.2401 62.8636C72.3082 61.5 69.956 60.8182 67.1832 60.8182C64.9787 60.8182 62.831 61.2614 60.7401 62.1477C58.6719 63.0341 56.7855 64.25 55.081 65.7955C53.3991 67.3182 51.9901 69.0568 50.8537 71.0114C49.7173 72.9659 48.9787 75.0227 48.6378 77.1818C48.1832 79.8636 48.3878 82.3636 49.2514 84.6818C50.1151 87 51.5355 88.875 53.5128 90.3068C55.4901 91.7386 57.9105 92.4545 60.7741 92.4545Z" fill="black"/>
</svg>
