<svg xmlns="http://www.w3.org/2000/svg" xmlns:xlink="http://www.w3.org/1999/xlink" width="175" height="175" viewBox="0 0 175 175">
  <defs>
    <clipPath id="clip-_8">
      <rect width="175" height="175"/>
    </clipPath>
  </defs>
  <g id="_8" data-name="8" clip-path="url(#clip-_8)">
    <circle id="楕円形_90" data-name="楕円形 90" cx="87.5" cy="87.5" r="87.5" fill="#9f0"/>
    <path id="パス_106" data-name="パス 106" d="M87.5-138c-10.2,2.5-17.5,9-20.2,17.9a57.172,57.172,0,0,0-1.8,13.4c0,7.8,0,7.9,3.8,11.3A32.839,32.839,0,0,1,73-91.6a8.178,8.178,0,0,1-2.9,1.5c-3.8,1.6-8.6,6.8-10.5,11.1-2.2,5.5-4.9,21.7-4.3,26.7,1,8.9,7.9,14.1,20,15,13.8,1.1,26-4.5,30.9-14.1,2-4,5.8-21.4,5.8-26.9a15.172,15.172,0,0,0-6.2-11.5L103-91.6l4.5-3.2c7.1-5,10-10.8,11.2-22.8.7-7.8,0-10.5-3.8-14.9C110-138,97.5-140.6,87.5-138Zm11.9,11a10.033,10.033,0,0,1,4.2,3.5c1.5,2.3,1.6,3.4.5,9.8-1.5,8.3-2.9,11-7.4,13.7-6.1,3.8-16,1.7-17.3-3.6-1-3.9,1.5-16,3.9-19A14.431,14.431,0,0,1,99.4-127ZM95.1-83.1c1.6,1.6,2.9,3.6,2.9,4.5,0,3.9-4.1,22.1-5.5,24.2-4.9,7.6-19.6,7.6-22.5,0-1-2.8,2.4-22.8,4.6-26.1S81.7-86,87.3-86C91.3-86,92.6-85.5,95.1-83.1Z" transform="translate(0.422 175.589)"/>
  </g>
</svg>
