<svg width="128" height="128" viewBox="0 0 128 128" fill="none" xmlns="http://www.w3.org/2000/svg">
<circle cx="64" cy="64" r="64" fill="#99FF00"/>
<path d="M60.0582 99.9545C55.2855 99.9545 51.206 99.0795 47.8196 97.3295C44.456 95.5568 41.9901 93.1591 40.4219 90.1364C38.8764 87.1136 38.4219 83.7045 39.0582 79.9091C39.5355 77.0455 40.5582 74.3977 42.1264 71.9659C43.6946 69.5341 45.6037 67.5 47.8537 65.8636C50.1264 64.2273 52.5582 63.1818 55.1491 62.7273V62.4545C51.9446 61.5682 49.6378 59.6023 48.2287 56.5568C46.8423 53.4886 46.5128 50.0455 47.2401 46.2273C47.9219 42.7045 49.3651 39.5909 51.5696 36.8864C53.7741 34.1818 56.5355 32.0682 59.8537 30.5455C63.1719 29 66.831 28.2273 70.831 28.2273C74.9673 28.2273 78.5355 29.0682 81.5355 30.75C84.5355 32.4091 86.7401 34.6818 88.1492 37.5682C89.581 40.4318 89.9901 43.6818 89.3764 47.3182C88.7173 51.2045 87.0923 54.5 84.5014 57.2045C81.9105 59.8864 78.9446 61.6364 75.6037 62.4545V62.7273C78.0582 63.2273 80.1832 64.3523 81.9787 66.1023C83.7969 67.8523 85.1151 70.0227 85.9332 72.6136C86.7514 75.1818 86.8991 77.9773 86.3764 81C85.7628 84.7045 84.2287 87.9886 81.7741 90.8523C79.3196 93.6932 76.2173 95.9205 72.4673 97.5341C68.7401 99.1477 64.6037 99.9545 60.0582 99.9545ZM60.331 92.4545C63.6264 92.4545 66.5469 91.9205 69.0923 90.8523C71.6378 89.7614 73.706 88.25 75.2969 86.3182C76.9105 84.3636 77.9219 82.0909 78.331 79.5C78.7401 76.9091 78.456 74.6477 77.4787 72.7159C76.5014 70.7614 74.9787 69.25 72.9105 68.1818C70.8423 67.0909 68.3764 66.5455 65.5128 66.5455C62.4673 66.5455 59.6491 67.1477 57.0582 68.3523C54.4673 69.5568 52.3082 71.2159 50.581 73.3295C48.8764 75.4432 47.8082 77.8636 47.3764 80.5909C46.9901 83.0227 47.2514 85.1364 48.1605 86.9318C49.0696 88.7045 50.5582 90.0682 52.6264 91.0227C54.6946 91.9773 57.2628 92.4545 60.331 92.4545ZM65.7855 59.3182C68.4446 59.3182 70.8651 58.7841 73.0469 57.7159C75.2514 56.6477 77.0696 55.1705 78.5014 53.2841C79.956 51.3977 80.8991 49.2273 81.331 46.7727C81.7628 44.4091 81.5923 42.3977 80.8196 40.7386C80.0696 39.0568 78.831 37.7841 77.1037 36.9205C75.3764 36.0341 73.2401 35.5909 70.6946 35.5909C67.9446 35.5909 65.4673 36.1023 63.2628 37.125C61.081 38.1477 59.2855 39.5795 57.8764 41.4205C56.4673 43.2614 55.5582 45.4091 55.1491 47.8636C54.7628 50.25 54.9673 52.3068 55.7628 54.0341C56.5582 55.7386 57.8196 57.0455 59.5469 57.9545C61.2969 58.8636 63.3764 59.3182 65.7855 59.3182Z" fill="black"/>
</svg>
