<svg width="64" height="64" viewBox="0 0 64 64" fill="none" xmlns="http://www.w3.org/2000/svg">
<g clip-path="url(#clip0_4975_21482)">
<mask id="mask0_4975_21482" style="mask-type:luminance" maskUnits="userSpaceOnUse" x="0" y="0" width="64" height="64">
<path d="M64 0H0V64H64V0Z" fill="white"/>
</mask>
<g mask="url(#mask0_4975_21482)">
<path fill-rule="evenodd" clip-rule="evenodd" d="M32 3C15.9837 3 3 15.9837 3 32C3 48.0163 15.9837 61 32 61C48.0163 61 61 48.0163 61 32C61 15.9837 48.0163 3 32 3ZM0 32C0 14.3269 14.3269 0 32 0C49.6731 0 64 14.3269 64 32C64 49.6731 49.6731 64 32 64C14.3269 64 0 49.6731 0 32Z" fill="white"/>
<path fill-rule="evenodd" clip-rule="evenodd" d="M34.5468 15.842C36.009 13.3094 39.2473 12.4417 41.7798 13.9039C44.3124 15.3661 45.1801 18.6044 43.7179 21.1369L43.1884 22.0541L48.0292 24.849C50.4207 26.2297 51.2401 29.2877 49.8594 31.6791L47.5939 35.6029L48.5112 36.1325C51.0437 37.5946 51.9114 40.833 50.4492 43.3655C48.9871 45.898 45.7487 46.7658 43.2162 45.3036L42.299 44.774L38.9745 50.5322C37.5938 52.9236 34.5359 53.743 32.1444 52.3623L28.2208 50.097C27.7142 49.8045 27.5407 49.1568 27.8331 48.6503C29.2953 46.1178 28.4276 42.8794 25.895 41.4173C23.3625 39.9551 20.1242 40.8228 18.662 43.3554C18.3696 43.8619 17.7219 44.0354 17.2154 43.743L13.2914 41.4775C10.8999 40.0968 10.0805 37.0388 11.4612 34.6474L14.2562 29.8063C14.5486 29.2998 15.1963 29.1263 15.7029 29.4187C18.2354 30.8809 21.4737 30.0132 22.9359 27.4806C24.398 24.9481 23.5303 21.7098 20.9978 20.2476C20.4913 19.9552 20.3177 19.3075 20.6102 18.801L22.3461 15.7943C23.7268 13.4028 26.7847 12.5835 29.1762 13.9642L34.0173 16.7592L34.5468 15.842Z" fill="white"/>
</g>
</g>
<defs>
<clipPath id="clip0_4975_21482">
<rect width="64" height="64" fill="white"/>
</clipPath>
</defs>
</svg>
