<svg width="64" height="64" viewBox="0 0 64 64" fill="none" xmlns="http://www.w3.org/2000/svg">
<g clip-path="url(#clip0_4975_21497)">
<mask id="mask0_4975_21497" style="mask-type:luminance" maskUnits="userSpaceOnUse" x="0" y="0" width="64" height="64">
<path d="M64 0H0V64H64V0Z" fill="white"/>
</mask>
<g mask="url(#mask0_4975_21497)">
<path fill-rule="evenodd" clip-rule="evenodd" d="M32 3C15.9837 3 3 15.9837 3 32C3 48.0163 15.9837 61 32 61C48.0163 61 61 48.0163 61 32C61 15.9837 48.0163 3 32 3ZM0 32C0 14.3269 14.3269 0 32 0C49.6731 0 64 14.3269 64 32C64 49.6731 49.6731 64 32 64C14.3269 64 0 49.6731 0 32Z" fill="white"/>
<path opacity="0.6" d="M32 46C39.732 46 46 39.732 46 32C46 24.268 39.732 18 32 18C24.268 18 18 24.268 18 32C18 39.732 24.268 46 32 46Z" fill="white"/>
<path d="M34 10C34 8.89543 33.1046 8 32 8C30.8954 8 30 8.89543 30 10V13C30 14.1046 30.8954 15 32 15C33.1046 15 34 14.1046 34 13V10Z" fill="white"/>
<path d="M54 34C55.1046 34 56 33.1046 56 32C56 30.8954 55.1046 30 54 30H51C49.8954 30 49 30.8954 49 32C49 33.1046 49.8954 34 51 34H54Z" fill="white"/>
<path d="M48.9706 17.8578C49.7517 17.0768 49.7517 15.8104 48.9706 15.0294C48.1896 14.2483 46.9232 14.2483 46.1422 15.0294L44.0209 17.1507C43.2398 17.9318 43.2398 19.1981 44.0209 19.9791C44.8019 20.7602 46.0682 20.7602 46.8493 19.9791L48.9706 17.8578Z" fill="white"/>
<path d="M46.1421 48.9706C46.9232 49.7517 48.1895 49.7517 48.9706 48.9706C49.7516 48.1896 49.7516 46.9232 48.9706 46.1422L46.8492 44.0209C46.0682 43.2398 44.8019 43.2398 44.0208 44.0209C43.2398 44.8019 43.2398 46.0682 44.0208 46.8493L46.1421 48.9706Z" fill="white"/>
<path d="M34 51C34 49.8954 33.1046 49 32 49C30.8954 49 30 49.8954 30 51V54C30 55.1046 30.8954 56 32 56C33.1046 56 34 55.1046 34 54V51Z" fill="white"/>
<path d="M13 34C14.1046 34 15 33.1046 15 32C15 30.8954 14.1046 30 13 30H10C8.89543 30 8 30.8954 8 32C8 33.1046 8.89543 34 10 34H13Z" fill="white"/>
<path d="M19.9792 46.8493C20.7602 46.0682 20.7602 44.8019 19.9792 44.0208C19.1981 43.2398 17.9318 43.2398 17.1507 44.0208L15.0294 46.1422C14.2484 46.9232 14.2484 48.1895 15.0294 48.9706C15.8105 49.7516 17.0768 49.7516 17.8578 48.9706L19.9792 46.8493Z" fill="white"/>
<path d="M17.1507 19.9791C17.9317 20.7601 19.198 20.7601 19.9791 19.9791C20.7601 19.198 20.7601 17.9317 19.9791 17.1507L17.8578 15.0293C17.0767 14.2483 15.8104 14.2483 15.0293 15.0293C14.2483 15.8104 14.2483 17.0767 15.0293 17.8578L17.1507 19.9791Z" fill="white"/>
<path fill-rule="evenodd" clip-rule="evenodd" d="M22.8325 42.5817C22.5824 42.3647 22.3383 42.1372 22.1005 41.8995C16.6332 36.4322 16.6332 27.5678 22.1005 22.1005C27.5678 16.6332 36.4322 16.6332 41.8995 22.1005C42.1372 22.3383 42.3647 22.5824 42.5817 22.8325L22.8325 42.5817Z" fill="white"/>
</g>
</g>
<defs>
<clipPath id="clip0_4975_21497">
<rect width="64" height="64" fill="white"/>
</clipPath>
</defs>
</svg>
