<svg width="24" height="24" viewBox="0 0 24 24" fill="none" xmlns="http://www.w3.org/2000/svg">
    <path fill-rule="evenodd" clip-rule="evenodd"
        d="M24 12C24 18.6274 18.6274 24 12 24C5.37258 24 0 18.6274 0 12C0 5.37258 5.37258 0 12 0C18.6274 0 24 5.37258 24 12ZM5 10.5C5 9.67157 5.67157 9 6.5 9C7.32843 9 8 9.67157 8 10.5V16.5C8 17.3284 7.32843 18 6.5 18C5.67157 18 5 17.3284 5 16.5V10.5ZM10 7C10 5.89543 10.8954 5 12 5C13.1046 5 14 5.89543 14 7V10H17C18.1046 10 19 10.8954 19 12V13V15V16C19 17.1046 18.1046 18 17 18H11C10.4477 18 10 17.5523 10 17V14V10.7529V7Z"
        fill="#3B84F1" />
</svg>