<svg width="64" height="64" viewBox="0 0 64 64" fill="none" xmlns="http://www.w3.org/2000/svg">
<g clip-path="url(#clip0_4975_21502)">
<mask id="mask0_4975_21502" style="mask-type:luminance" maskUnits="userSpaceOnUse" x="0" y="0" width="64" height="64">
<path d="M64 0H0V64H64V0Z" fill="white"/>
</mask>
<g mask="url(#mask0_4975_21502)">
<path fill-rule="evenodd" clip-rule="evenodd" d="M32 3C15.9837 3 3 15.9837 3 32C3 48.0163 15.9837 61 32 61C48.0163 61 61 48.0163 61 32C61 15.9837 48.0163 3 32 3ZM0 32C0 14.3269 14.3269 0 32 0C49.6731 0 64 14.3269 64 32C64 49.6731 49.6731 64 32 64C14.3269 64 0 49.6731 0 32Z" fill="white"/>
<path fill-rule="evenodd" clip-rule="evenodd" d="M16.7925 16.5137C18.2196 15.8115 19.8957 15.8301 21.3069 16.5639L26.5068 19.2679L23.2806 25.4722L22.8905 27.6566L22.2081 27.5348L21.8933 28.1401L19.9559 27.1326L13.0462 25.8987L14.078 20.121C14.3576 18.5553 15.3654 17.216 16.7925 16.5137ZM28.6069 20.3599L33.8069 23.0639C35.3487 23.8656 36.3636 25.4104 36.4874 27.1438L36.9047 32.9866L26.9302 33.6991L26.7121 30.6458L23.9934 29.2321L28.6069 20.3599ZM22.454 30.1013L21.4222 35.879C21.1495 37.4062 20.1833 38.7203 18.8069 39.4361L13.6069 42.1401L8.99338 33.2679L12.0105 31.699L12.6097 28.3434L22.454 30.1013ZM44.419 32.2566C45.6257 31.8543 46.9404 31.9271 48.0954 32.4602L53.4296 34.9222L49.239 44.0018L45.7027 42.3696L42.0128 43.5996L38.8505 34.1127L44.419 32.2566ZM11.5068 43.2321L6.30688 45.9361L1.69336 37.0639L6.89333 34.3599L11.5068 43.2321ZM39.6497 44.3873L34.0812 46.2434C32.616 46.7318 31.0073 46.5157 29.723 45.6578C28.4387 44.8 27.6228 43.3968 27.5128 41.8562L27.0955 36.0134L34.7994 35.4631L36.4874 34.9004L36.6313 35.3323L37.07 35.3009L37.1925 37.016L39.6497 44.3873ZM55.7612 35.9982L61.0954 38.4602L56.9048 47.5398L51.5706 45.0778L55.7612 35.9982Z" fill="white"/>
</g>
</g>
<defs>
<clipPath id="clip0_4975_21502">
<rect width="64" height="64" fill="white"/>
</clipPath>
</defs>
</svg>
