<svg width="64" height="64" viewBox="0 0 64 64" fill="none" xmlns="http://www.w3.org/2000/svg">
<g clip-path="url(#clip0_4975_21489)">
<path fill-rule="evenodd" clip-rule="evenodd" d="M32 61C48.0163 61 61 48.0163 61 32C61 15.9837 48.0163 3 32 3C15.9837 3 3 15.9837 3 32C3 48.0163 15.9837 61 32 61ZM32 64C49.6731 64 64 49.6731 64 32C64 14.3269 49.6731 0 32 0C14.3269 0 0 14.3269 0 32C0 49.6731 14.3269 64 32 64Z" fill="white"/>
<path d="M43.8046 19.3923C41.6567 21.5402 38.1743 21.5402 36.0264 19.3923C33.8786 17.2444 33.8786 13.762 36.0264 11.6141C38.1743 9.46624 41.6567 9.46624 43.8046 11.6141C45.9525 13.762 45.9525 17.2444 43.8046 19.3923Z" fill="white"/>
<path fill-rule="evenodd" clip-rule="evenodd" d="M49.5218 22.1426C50.8046 23.1913 50.9943 25.0813 49.9455 26.364C47.9717 28.7782 45.4724 30.3271 42.5811 30.5831C39.7331 30.8353 36.9977 29.7892 34.5849 28.0092L32.1702 26.2278L32.169 26.2269L32.1679 26.2261L32.1669 26.2254L32.166 26.2247L32.1648 26.2239L32.1639 26.2232L32.163 26.2225L32.1622 26.2219L32.1613 26.2212L32.1603 26.2205L32.1594 26.2199L32.1585 26.2192L32.1565 26.2177L32.1555 26.217L32.1544 26.2161L29.6784 24.3896L29.6206 24.3423C28.1508 23.1406 26.8946 22.834 25.9257 22.9313C24.9568 23.0285 23.7865 23.5787 22.5849 25.0485C21.5362 26.3312 19.6462 26.5209 18.3634 25.4722C17.0807 24.4235 16.891 22.5335 17.9397 21.2507C19.9029 18.8496 22.4257 17.2524 25.3265 16.9613C28.2026 16.6726 30.9699 17.7161 33.3572 19.6475L35.7204 21.3909L35.7214 21.3915L35.7223 21.3922L35.7231 21.3929L35.724 21.3935L35.725 21.3942L35.7259 21.3949L38.1468 23.1808C39.7576 24.3691 41.0684 24.6936 42.0519 24.6065C42.992 24.5232 44.1095 24.023 45.3004 22.5663C46.3491 21.2836 48.2391 21.0939 49.5218 22.1426Z" fill="white"/>
<path fill-rule="evenodd" clip-rule="evenodd" d="M15.1789 38.3283L30.0281 23.4791C31.1997 22.3075 33.0992 22.3075 34.2708 23.4791C35.4423 24.6507 35.4423 26.5501 34.2708 27.7217L19.4215 42.571C18.25 43.7425 16.3505 43.7425 15.1789 42.571C14.0073 41.3994 14.0073 39.4999 15.1789 38.3283Z" fill="white"/>
<path fill-rule="evenodd" clip-rule="evenodd" d="M28.4271 36.4965C26.8853 36.5542 25.2796 37.0692 24.3015 37.7212C22.9229 38.6403 21.0603 38.2678 20.1413 36.8892C19.2222 35.5106 19.5947 33.648 20.9733 32.7289C22.9952 31.381 25.7094 30.594 28.2027 30.5007C30.5368 30.4134 33.7504 30.9219 35.5786 33.4814C37.2638 35.8407 37.7376 38.3 36.6984 40.5737C35.8669 42.393 34.2429 43.5515 33.445 44.1206C33.4232 44.1362 33.402 44.1513 33.3815 44.166C32.0334 45.1292 30.1597 44.8173 29.1965 43.4692C28.2332 42.1211 28.5451 40.2474 29.8932 39.2842C30.3185 38.9803 30.635 38.7421 30.8887 38.5024C31.1387 38.2663 31.2201 38.1261 31.2413 38.0797C31.2414 38.0794 31.2417 38.0795 31.2421 38.0796C31.2439 38.0802 31.2475 38.0814 31.239 38.0292C31.2219 37.9246 31.134 37.5817 30.6962 36.9688C30.6644 36.9243 30.1281 36.4328 28.4271 36.4965Z" fill="white"/>
<mask id="mask0_4975_21489" style="mask-type:alpha" maskUnits="userSpaceOnUse" x="10" y="48" width="44" height="8">
<path fill-rule="evenodd" clip-rule="evenodd" d="M16.2857 56H10V48H16.2857V56ZM30.9524 56H18.381V48H30.9524V56ZM45.619 56H33.0476V48H45.619V56ZM54 56H47.7143V48H54V56Z" fill="white"/>
<path opacity="0.2" fill-rule="evenodd" clip-rule="evenodd" d="M54 56H10V48H54V56Z" fill="white"/>
</mask>
<g mask="url(#mask0_4975_21489)">
<path d="M8 32C8 45.2548 18.7452 56 32 56C45.2548 56 56 45.2548 56 32C56 18.7452 45.2548 8 32 8C18.7452 8 8 18.7452 8 32Z" fill="white"/>
<path fill-rule="evenodd" clip-rule="evenodd" d="M32 52C20.9543 52 12 43.0457 12 32C12 20.9543 20.9543 12 32 12C43.0457 12 52 20.9543 52 32C52 43.0457 43.0457 52 32 52ZM32 56C18.7452 56 8 45.2548 8 32C8 18.7452 18.7452 8 32 8C45.2548 8 56 18.7452 56 32C56 45.2548 45.2548 56 32 56Z" fill="white"/>
</g>
</g>
<defs>
<clipPath id="clip0_4975_21489">
<rect width="64" height="64" fill="white"/>
</clipPath>
</defs>
</svg>
