<svg width="64" height="64" viewBox="0 0 64 64" fill="none" xmlns="http://www.w3.org/2000/svg">
<g clip-path="url(#clip0_4975_21456)">
<mask id="mask0_4975_21456" style="mask-type:luminance" maskUnits="userSpaceOnUse" x="0" y="0" width="64" height="64">
<path d="M64 0H0V64H64V0Z" fill="white"/>
</mask>
<g mask="url(#mask0_4975_21456)">
<path fill-rule="evenodd" clip-rule="evenodd" d="M32 3C15.9837 3 3 15.9837 3 32C3 48.0163 15.9837 61 32 61C48.0163 61 61 48.0163 61 32C61 15.9837 48.0163 3 32 3ZM0 32C0 14.3269 14.3269 0 32 0C49.6731 0 64 14.3269 64 32C64 49.6731 49.6731 64 32 64C14.3269 64 0 49.6731 0 32Z" fill="white"/>
<path fill-rule="evenodd" clip-rule="evenodd" d="M40.6984 19.4142C39.9174 18.6332 38.651 18.6332 37.87 19.4142L34.3345 22.9497L39.2842 27.8995L42.8197 24.364C43.6008 23.5829 43.6008 22.3166 42.8197 21.5355L40.6984 19.4142ZM37.1629 30.0208L32.2131 25.0711L12.4141 44.8701C11.6331 45.6511 11.6331 46.9174 12.4141 47.6985L14.5355 49.8198C15.3165 50.6009 16.5828 50.6009 17.3639 49.8198L37.1629 30.0208Z" fill="white"/>
<path d="M22.5111 12.2692C22.6245 11.7429 23.3753 11.7429 23.4887 12.2692L24.6371 17.6008C24.6742 17.7731 24.7993 17.9131 24.9664 17.9694L29.5919 19.5261C30.0459 19.6789 30.0459 20.3211 29.5919 20.4739L24.9664 22.0306C24.7993 22.0869 24.6742 22.2269 24.6371 22.3992L23.4887 27.7308C23.3753 28.2571 22.6245 28.2571 22.5111 27.7308L21.3627 22.3992C21.3256 22.2269 21.2005 22.0869 21.0334 22.0306L16.4079 20.4739C15.9539 20.3211 15.9539 19.6789 16.4079 19.5261L21.0334 17.9694C21.2005 17.9131 21.3256 17.7731 21.3627 17.6008L22.5111 12.2692Z" fill="white"/>
<path d="M47.0117 30.2328C47.1263 29.7086 47.8739 29.7086 47.9885 30.2328L48.8181 34.0248C48.8558 34.1972 48.9817 34.337 49.1493 34.3925L52.5679 35.5254C53.0248 35.6768 53.0248 36.3232 52.5679 36.4746L49.1493 37.6075C48.9817 37.663 48.8558 37.8028 48.8181 37.9752L47.9885 41.7672C47.8739 42.2914 47.1263 42.2914 47.0117 41.7672L46.1821 37.9752C46.1444 37.8028 46.0185 37.663 45.8509 37.6075L42.4323 36.4746C41.9754 36.3232 41.9754 35.6768 42.4323 35.5254L45.8509 34.3925C46.0185 34.337 46.1444 34.1972 46.1821 34.0248L47.0117 30.2328Z" fill="white"/>
<path d="M44.0118 10.2165C44.1271 9.6933 44.8731 9.6933 44.9884 10.2165L45.3934 12.055C45.4314 12.2275 45.5576 12.3671 45.7254 12.4224L47.5569 13.0251C48.0151 13.1759 48.0151 13.8241 47.5569 13.9749L45.7254 14.5776C45.5576 14.6329 45.4314 14.7725 45.3934 14.945L44.9884 16.7835C44.8731 17.3067 44.1271 17.3067 44.0118 16.7835L43.6068 14.945C43.5688 14.7725 43.4426 14.6329 43.2748 14.5776L41.4433 13.9749C40.9851 13.8241 40.9851 13.1759 41.4433 13.0251L43.2748 12.4224C43.4426 12.3671 43.5688 12.2275 43.6068 12.055L44.0118 10.2165Z" fill="white"/>
</g>
</g>
<defs>
<clipPath id="clip0_4975_21456">
<rect width="64" height="64" fill="white"/>
</clipPath>
</defs>
</svg>
