<svg width="24" height="24" viewBox="0 0 24 24" fill="none" xmlns="http://www.w3.org/2000/svg">
    <path fill-rule="evenodd" clip-rule="evenodd"
        d="M12 24C18.6274 24 24 18.6274 24 12C24 5.37258 18.6274 0 12 0C5.37258 0 0 5.37258 0 12C0 18.6274 5.37258 24 12 24ZM14.1246 9.49342L12.9504 5.90475C12.6498 4.98605 11.3502 4.98605 11.0496 5.90475L9.87539 9.49342H6.09512C5.12471 9.49342 4.72306 10.7366 5.51002 11.3044L8.56231 13.5066L7.39272 17.0812C7.09168 18.0012 8.14316 18.7695 8.92824 18.2031L12 15.9868L15.0718 18.2031C15.8568 18.7695 16.9083 18.0012 16.6073 17.0812L15.4377 13.5066L18.49 11.3044C19.2769 10.7366 18.8753 9.49342 17.9049 9.49342H14.1246Z"
        fill="#ECCE23" />
</svg>