<svg width="64" height="64" viewBox="0 0 64 64" fill="none" xmlns="http://www.w3.org/2000/svg">
<g clip-path="url(#clip0_4975_21496)">
<mask id="mask0_4975_21496" style="mask-type:luminance" maskUnits="userSpaceOnUse" x="0" y="0" width="64" height="64">
<path d="M64 0H0V64H64V0Z" fill="white"/>
</mask>
<g mask="url(#mask0_4975_21496)">
<path fill-rule="evenodd" clip-rule="evenodd" d="M32 3C48.0163 3 61 15.9837 61 32C61 48.0163 48.0163 61 32 61C15.9837 61 3 48.0163 3 32C3 15.9837 15.9837 3 32 3ZM64 32C64 14.3269 49.6731 0 32 0C14.3269 0 0 14.3269 0 32C0 49.6731 14.3269 64 32 64C49.6731 64 64 49.6731 64 32Z" fill="white"/>
<path fill-rule="evenodd" clip-rule="evenodd" d="M14.592 18.5438C15.4664 19.2197 15.6173 20.472 15.0313 21.409C13.1103 24.4803 12 28.1105 12 32C12 43.0457 20.9543 52 32 52C43.0457 52 52 43.0457 52 32C52 20.9543 43.0457 12 32 12C31.6192 12 31.3001 11.7033 31.287 11.3227L31.2014 8.84076C31.1857 8.38423 31.5432 8 32 8C45.2548 8 56 18.7452 56 32C56 45.2548 45.2548 56 32 56C18.7452 56 8 45.2548 8 32C8 27.1882 9.41605 22.7072 11.8542 18.9508C12.4552 18.0247 13.7185 17.8686 14.592 18.5438Z" fill="white"/>
<path d="M21.7419 23.7679L31.8095 29.5804C32.766 30.1327 33.0938 31.3558 32.5415 32.3124C31.9892 33.269 30.766 33.5968 29.8095 33.0445L19.7419 27.232C18.7853 26.6797 18.4576 25.4565 19.0099 24.4999C19.5621 23.5433 20.7853 23.2156 21.7419 23.7679Z" fill="white"/>
<path d="M30 10C30 8.89543 30.8954 8 32 8C33.1046 8 34 8.89543 34 10V14C34 15.1046 33.1046 16 32 16C30.8954 16 30 15.1046 30 14V10Z" fill="white"/>
<path opacity="0.4" fill-rule="evenodd" clip-rule="evenodd" d="M18.4695 14.6533C19.1486 15.5238 18.9857 16.7732 18.1873 17.5359C14.3749 21.1776 12 26.3115 12 32C12 43.0457 20.9543 52 32 52C43.0457 52 52 43.0457 52 32C52 20.9543 43.0457 12 32 12C31.6192 12 31.3001 11.7033 31.287 11.3227L31.2014 8.84076C31.1857 8.38423 31.5432 8 32 8C45.2548 8 56 18.7452 56 32C56 45.2548 45.2548 56 32 56C18.7452 56 8 45.2548 8 32C8 25.031 10.9704 18.7557 15.7141 14.3712C16.5257 13.6211 17.7898 13.7818 18.4695 14.6533Z" fill="white"/>
</g>
</g>
<defs>
<clipPath id="clip0_4975_21496">
<rect width="64" height="64" fill="white"/>
</clipPath>
</defs>
</svg>
