<svg width="64" height="64" viewBox="0 0 64 64" fill="none" xmlns="http://www.w3.org/2000/svg">
<g clip-path="url(#clip0_4975_21485)">
<mask id="mask0_4975_21485" style="mask-type:luminance" maskUnits="userSpaceOnUse" x="0" y="0" width="64" height="64">
<path d="M64 0H0V64H64V0Z" fill="white"/>
</mask>
<g mask="url(#mask0_4975_21485)">
<path fill-rule="evenodd" clip-rule="evenodd" d="M32 3C15.9837 3 3 15.9837 3 32C3 48.0163 15.9837 61 32 61C48.0163 61 61 48.0163 61 32C61 15.9837 48.0163 3 32 3ZM0 32C0 14.3269 14.3269 0 32 0C49.6731 0 64 14.3269 64 32C64 49.6731 49.6731 64 32 64C14.3269 64 0 49.6731 0 32Z" fill="white"/>
<path fill-rule="evenodd" clip-rule="evenodd" d="M25.9983 38.7962C25.8154 38.7265 25.6171 38.7071 25.4244 38.7416C24.4752 38.9114 23.4979 39 22.4998 39C21.8501 39 21.5224 39.7979 22.0674 40.1518C23.4358 41.0406 24.9002 41.6534 26.2706 42.0441C26.7179 42.1717 27.0393 42.5722 27.0393 43.0373V53C27.0393 54.3821 28.1608 55.5 29.5401 55.5H29.5552H29.5703H29.5854H29.6005H29.6155H29.6306H29.6456H29.6605H29.6755H29.6904H29.7053H29.7202H29.7351H29.75H29.7648H29.7796H29.7944H29.8091H29.8239H29.8386H29.8533H29.868H29.8827H29.8973H29.9119H29.9265H29.9411H29.9557H29.9702H29.9847H29.9992H30.0137H30.0282H30.0426H30.057H30.0714H30.0858H30.1002H30.1146H30.1289H30.1432H30.1575H30.1718H30.186H30.2003H30.2145H30.2287H30.2429H30.2571H30.2712H30.2854H30.2995H30.3136H30.3277H30.3418H30.3558H30.3699H30.3839H30.3979H30.4119H30.4259H30.4399H30.4538H30.4677H30.4816H30.4956H30.5094H30.5233H30.5372H30.551H30.5648H30.5787H30.5925H30.6062H30.62H30.6338H30.6475H30.6612H30.675H30.6887H30.7024H30.716H30.7297H30.7433H30.757H30.7706H30.7842H30.7978H30.8114H30.825H30.8386H30.8521H30.8657H30.8792H30.8927H30.9062H30.9197H30.9332H30.9467H30.9601H30.9736H30.987H31.0005H31.0139H31.0273H31.0407H31.0541H31.0675H31.0808H31.0942H31.1075H31.1209H31.1342H31.1475H31.1609H31.1742H31.1875H31.2008H31.214H31.2273H31.2406H31.2538H31.2671H31.2803H31.2935H31.3068H31.32H31.3332H31.3464H31.3596H31.3728H31.386H31.3991H31.4123H31.4255H31.4386H31.4518H31.4649H31.478H31.4912H31.5043H31.5174H31.5305H31.5436H31.5567H31.5698H31.5829H31.596H31.6091H31.6222H31.6353H31.6483H31.6614H31.6745H31.6875H31.7006H31.7136H31.7267H31.7397H31.7527H31.7658H31.7788H31.7918H31.8049H31.8179H31.8309H31.8439H31.8569H31.87H31.883H31.896H31.909H31.922H31.935H31.948H31.961H31.974H31.987H32H32.013H32.026H32.039H32.052H32.065H32.078H32.091H32.1039H32.1169H32.1299H32.1429H32.1559H32.1689H32.1819H32.1949H32.2079H32.2209H32.2339H32.2469H32.2599H32.2729H32.2859H32.2989H32.3119H32.3249H32.3379H32.351H32.364H32.377H32.39H32.403H32.4161H32.4291H32.4421H32.4552H32.4682H32.4813H32.4943H32.5074H32.5204H32.5335H32.5465H32.5596H32.5727H32.5858H32.5988H32.6119H32.625H32.6381H32.6512H32.6643H32.6774H32.6906H32.7037H32.7168H32.7299H32.7431H32.7562H32.7694H32.7825H32.7957H32.8089H32.8221H32.8352H32.8484H32.8616H32.8748H32.8881H32.9013H32.9145H32.9278H32.941H32.9543H32.9675H32.9808H32.9941H33.0073H33.0206H33.0339H33.0473H33.0606H33.0739H33.0872H33.1006H33.114H33.1273H33.1407H33.1541H33.1675H33.1809H33.1943H33.2077H33.2212H33.2346H33.2481H33.2616H33.275H33.2885H33.302H33.3156H33.3291H33.3426H33.3562H33.3697H33.3833H33.3969H33.4105H33.4241H33.4377H33.4514H33.465H33.4787H33.4923H33.506H33.5197H33.5334H33.5472H33.5609H33.5747H33.5884H33.6022H33.616H33.6298H33.6436H33.6575H33.6713H33.6852H33.6991H33.713H33.7269H33.7408H33.7548H33.7687H33.7827H33.7967H33.8107H33.8247H33.8387H33.8528H33.8669H33.881H33.8951H33.9092H33.9233H33.9375H33.9516H33.9658H33.98H33.9942H34.0085H34.0227H34.037H34.0513H34.0656H34.0799H34.0943H34.1087H34.123H34.1374H34.1519H34.1663H34.1808H34.1952H34.2097H34.2243H34.2388H34.2533H34.2679H34.2825H34.2971H34.3118H34.3264H34.3411H34.3558H34.3705H34.3852H34.4H34.4148H34.4296H34.4444H34.4592H34.4741H34.489H34.5039H34.5188H34.5338H34.5488H34.5638H34.5788H34.5938H34.6089H34.624H34.6391H34.6542H34.6694H34.6845H34.6997H34.715H34.7302H34.7455H34.7608H34.7761H34.7914H34.8068H34.8222H34.8376H34.8531H34.8685H34.884H34.8995H34.9151H34.9306H34.9462H34.9618H34.9775H34.9932H35.0088H35.0246H35.0403H35.0561H35.0719H35.0877H35.1036H35.1194H35.1353H35.1513H35.1672H35.1832H35.1992H35.2153H35.2313H35.2474H35.2636H35.2797H35.2959H35.3121H35.3283H35.3446H35.3609H35.3772H35.3936H35.4099H35.4263H35.4428H35.4592H35.4757H35.4923H35.5088H35.5254H35.542H35.5587H35.5753H35.592H35.6088H35.6255H35.6423H35.6592H35.676H35.6929H35.7098H35.7268H35.7438H35.7608H35.7778H35.7949H35.812H35.8292H35.8463H35.8635H35.8808H35.898H35.9153H35.9327H35.95H35.9675H35.9849H36.0024H36.0199H36.0374H36.055H36.0726H36.0902H36.1079H36.1256H36.1433H36.1611H36.1789H36.1967H36.2146H36.2325H36.2505H36.2684H36.2865H36.3045H36.3226H36.3407H36.3589H36.3771H36.3953H36.4136H36.4319H36.4502H36.4686H36.487H36.5055H36.5239H36.5425H36.561H36.5796H36.5983H36.6169H36.6356H36.6544H36.6732H36.692H36.7108H36.7297H36.7487H36.7677H36.7867H36.8057H36.8248H36.8439H36.8631H36.8823H36.9016H36.9209H36.9402H36.9596H36.979H36.9984H37.0179H37.0374C38.4194 55.5 39.4683 54.4094 39.5997 53.16C39.7748 51.4957 40.2669 48.6248 40.6584 47.0024C40.6587 47.001 40.66 47 40.6615 47H40.6706H40.6797H40.6888H40.6979H40.707H40.7162H40.7254H40.7346H40.7438H40.753H40.7622H40.7715H40.7808H40.7901H40.7994H40.8087H40.818H40.8274H40.8368H40.8462H40.8556H40.865H40.8744H40.8839H40.8933H40.9028H40.9123H40.9218H40.9314H40.9409H40.9505H40.96H40.9696H40.9792H40.9888H40.9985H41.0081H41.0178H41.0275H41.0372H41.0469H41.0566H41.0663H41.0761H41.0858H41.0956H41.1054H41.1152H41.125H41.1349H41.1447H41.1546H41.1644H41.1743H41.1842H41.1941H41.2041H41.214H41.224H41.2339H41.2439H41.2539H41.2639H41.2739H41.284H41.294H41.3041H41.3142H41.3242H41.3343H41.3444H41.3546H41.3647H41.3748H41.385H41.3952H41.4054H41.4155H41.4258H41.436H41.4462H41.4564H41.4667H41.477H41.4872H41.4975H41.5078H41.5181H41.5285H41.5388H41.5491H41.5595H41.5699H41.5802H41.5906H41.601H41.6114H41.6219H41.6323H41.6427H41.6532H41.6636H41.6741H41.6846H41.6951H41.7056H41.7161H41.7266H41.7372H41.7477H41.7583H41.7688H41.7794H41.79H41.8006H41.8112H41.8218H41.8324H41.843H41.8537H41.8643H41.875H41.8856H41.8963H41.907H41.9177H41.9284H41.9391H41.9498H41.9605H41.9713H41.982H41.9928H42.0035H42.0143H42.0251H42.0359H42.0467H42.0575H42.0683H42.0791H42.0899H42.1007H42.1116H42.1224H42.1333H42.1441H42.155H42.1659H42.1768H42.1876H42.1985H42.2094H42.2204H42.2313H42.2422H42.2531H42.2641H42.275H42.286H42.2969H42.3079H42.3188H42.3298H42.3408H42.3518H42.3628H42.3738H42.3848H42.3958H42.4068H42.4178H42.4289H42.4399H42.4509H42.462H42.473H42.4841H42.4952H42.5062H42.5173H42.5284H42.5394H42.5505H42.5616H42.5727H42.5838H42.5949H42.606H42.6171H42.6283H42.6394H42.6505H42.6616H42.6728H42.6839H42.6951H42.7062H42.7174H42.7285H42.7397H42.7508H42.762H42.7732H42.7843H42.7955H42.8067H42.8179H42.8291H42.8403H42.8515H42.8626H42.8738H42.885H42.8963H42.9075H42.9187H42.9299H42.9411H42.9523H42.9635H42.9748H42.986H42.9972H43.0084H43.0197H43.0309H43.0421H43.0534H43.0646H43.0758H43.0871H43.0983H43.1096H43.1208H43.1321H43.1433H43.1546H43.1658H43.1771H43.1883H43.1996H43.2108H43.2221H43.2333H43.2446H43.2559H43.2671H43.2784H43.2896H43.3009H43.3122H43.3234H43.3347H43.3459H43.3572H43.3685H43.3797H43.391H43.4022H43.4135H43.4248H43.436H43.4473H43.4585H43.4698H43.4811H43.4923H43.5036H43.5148H43.5261H43.5373H43.5486H43.5598H43.5711H43.5823H43.5936H43.6048H43.6161H43.6273H43.6385H43.6498H43.661H43.6723H43.6835H43.6947H43.7059H43.7172H43.7284H43.7396H43.7508H43.7621H43.7733H43.7845H43.7957H43.8069H43.8181H43.8293H43.8405H43.8517H43.8629H43.8741H43.8853H43.8965H43.9077H43.9188H43.93H43.9412H43.9523H43.9635H43.9747H43.9858H43.997H44.0081H44.0193H44.0304H44.0415H44.0527H44.0638H44.0749H44.0861H44.0972H44.1083H44.1194H44.1305H44.1416H44.1527H44.1638H44.1749H44.1859H44.197H44.2081H44.2191H44.2302H44.2412H44.2523H44.2633H44.2744H44.2854H44.2964H44.3074H44.3185H44.3295H44.3405H44.3515H44.3625H44.3734H44.3844H44.3954H44.4064H44.4173H44.4283H44.4392H44.4502H44.4611H44.472H44.4829H44.4939H44.5048H44.5157H44.5266H44.5374H44.5483H44.5592H44.5701H44.5809H44.5918H44.6026H44.6134H44.6243H44.6351H44.6459H44.6567H44.6675H44.6783H44.6891H44.6998H44.7106H44.7213H44.7321H44.7428H44.7536H44.7643H44.775H44.7857H44.7964H44.8071H44.8178H44.8284H44.8391H44.8497H44.8604H44.871H44.8816H44.8923H44.9029H44.9135H44.924H44.9346H44.9452H44.9557H44.9663H44.9768H44.9874H44.9979H45.0084H45.0189H45.0294H45.0398H45.0503H45.0608H45.0712H45.0817H45.0921H45.1025H45.1129H45.1233H45.1337H45.144H45.1544H45.1648H45.1751H45.1854H45.1957H45.206H45.2163H45.2266H45.2369H45.2472H45.2574H45.2676H45.2779H45.2881H45.2983H45.3085H45.3186H45.3288H45.339H45.3491H45.3592H45.3693H45.3794H45.3895H45.3996H45.4097H45.4197H45.4298H45.4398H45.4498H45.4598H45.4698H45.4798H45.4897H45.4997H45.5096H45.5195H45.5294H45.5393C46.7577 47 47.5499 46.198 47.9961 45.4996C48.4475 44.7929 48.7435 43.9087 48.9487 43.0609C49.3185 41.533 49.478 39.7552 49.5242 38.3719C49.5316 38.1522 49.6079 37.9405 49.7452 37.7689L52.7109 34.0617C53.4377 33.1533 53.4533 31.8373 52.6774 30.9169C52.533 30.7456 52.3854 30.5721 52.2365 30.3971C51.6286 29.6826 50.9985 28.9418 50.4722 28.2167C50.1484 27.7706 49.8975 27.3747 49.7324 27.0402C49.651 26.8752 49.5996 26.7433 49.5698 26.6429C49.5418 26.5482 49.5395 26.5036 49.5393 26.5001C49.5393 26.4998 49.5393 26.4999 49.5393 26.5001C49.5393 25.3101 49.1275 21.6777 47.2967 18.2873C45.4212 14.8141 41.9803 11.5 36.0393 11.5C35.5513 11.5 35.3017 12.0781 35.5988 12.4653C35.9906 12.976 36.3532 13.5102 36.6841 14.0656C36.8567 14.3551 37.1569 14.546 37.4913 14.588C41.156 15.0476 43.3247 17.2456 44.657 19.7127C46.2011 22.5723 46.5393 25.69 46.5393 26.5C46.5393 27.1899 46.7832 27.8429 47.0422 28.3678C47.3123 28.9151 47.6708 29.4642 48.0442 29.9788C48.646 30.808 49.3738 31.6629 49.9855 32.3814C50.0537 32.4615 50.0555 32.5787 49.9898 32.6608L47.0872 36.289C46.7317 36.7334 46.5452 37.276 46.5368 37.8264C46.5167 39.1481 46.3759 40.9379 46.0329 42.3551C45.8585 43.0755 45.6578 43.5873 45.4679 43.8846C45.4373 43.9324 45.4117 43.9681 45.3912 43.9943C45.3884 43.9979 45.384 44 45.3794 44H45.3693H45.3592H45.3491H45.339H45.3288H45.3186H45.3085H45.2983H45.2881H45.2779H45.2676H45.2574H45.2472H45.2369H45.2266H45.2163H45.206H45.1957H45.1854H45.1751H45.1648H45.1544H45.144H45.1337H45.1233H45.1129H45.1025H45.0921H45.0817H45.0712H45.0608H45.0503H45.0398H45.0294H45.0189H45.0084H44.9979H44.9874H44.9768H44.9663H44.9557H44.9452H44.9346H44.924H44.9135H44.9029H44.8923H44.8816H44.871H44.8604H44.8497H44.8391H44.8284H44.8178H44.8071H44.7964H44.7857H44.775H44.7643H44.7536H44.7428H44.7321H44.7213H44.7106H44.6998H44.6891H44.6783H44.6675H44.6567H44.6459H44.6351H44.6243H44.6134H44.6026H44.5918H44.5809H44.5701H44.5592H44.5483H44.5374H44.5266H44.5157H44.5048H44.4939H44.4829H44.472H44.4611H44.4502H44.4392H44.4283H44.4173H44.4064H44.3954H44.3844H44.3734H44.3625H44.3515H44.3405H44.3295H44.3185H44.3074H44.2964H44.2854H44.2744H44.2633H44.2523H44.2412H44.2302H44.2191H44.2081H44.197H44.1859H44.1749H44.1638H44.1527H44.1416H44.1305H44.1194H44.1083H44.0972H44.0861H44.0749H44.0638H44.0527H44.0415H44.0304H44.0193H44.0081H43.997H43.9858H43.9747H43.9635H43.9523H43.9412H43.93H43.9188H43.9077H43.8965H43.8853H43.8741H43.8629H43.8517H43.8405H43.8293H43.8181H43.8069H43.7957H43.7845H43.7733H43.7621H43.7508H43.7396H43.7284H43.7172H43.7059H43.6947H43.6835H43.6723H43.661H43.6498H43.6385H43.6273H43.6161H43.6048H43.5936H43.5823H43.5711H43.5598H43.5486H43.5373H43.5261H43.5148H43.5036H43.4923H43.4811H43.4698H43.4585H43.4473H43.436H43.4248H43.4135H43.4022H43.391H43.3797H43.3685H43.3572H43.3459H43.3347H43.3234H43.3122H43.3009H43.2896H43.2784H43.2671H43.2559H43.2446H43.2333H43.2221H43.2108H43.1996H43.1883H43.1771H43.1658H43.1546H43.1433H43.1321H43.1208H43.1096H43.0983H43.0871H43.0758H43.0646H43.0534H43.0421H43.0309H43.0197H43.0084H42.9972H42.986H42.9748H42.9635H42.9523H42.9411H42.9299H42.9187H42.9075H42.8963H42.885H42.8738H42.8626H42.8515H42.8403H42.8291H42.8179H42.8067H42.7955H42.7843H42.7732H42.762H42.7508H42.7397H42.7285H42.7174H42.7062H42.6951H42.6839H42.6728H42.6616H42.6505H42.6394H42.6283H42.6171H42.606H42.5949H42.5838H42.5727H42.5616H42.5505H42.5394H42.5284H42.5173H42.5062H42.4952H42.4841H42.473H42.462H42.4509H42.4399H42.4289H42.4178H42.4068H42.3958H42.3848H42.3738H42.3628H42.3518H42.3408H42.3298H42.3188H42.3079H42.2969H42.286H42.275H42.2641H42.2531H42.2422H42.2313H42.2204H42.2094H42.1985H42.1876H42.1768H42.1659H42.155H42.1441H42.1333H42.1224H42.1116H42.1007H42.0899H42.0791H42.0683H42.0575H42.0467H42.0359H42.0251H42.0143H42.0035H41.9928H41.982H41.9713H41.9605H41.9498H41.9391H41.9284H41.9177H41.907H41.8963H41.8856H41.875H41.8643H41.8537H41.843H41.8324H41.8218H41.8112H41.8006H41.79H41.7794H41.7688H41.7583H41.7477H41.7372H41.7266H41.7161H41.7056H41.6951H41.6846H41.6741H41.6636H41.6532H41.6427H41.6323H41.6219H41.6114H41.601H41.5906H41.5802H41.5699H41.5595H41.5491H41.5388H41.5285H41.5181H41.5078H41.4975H41.4872H41.477H41.4667H41.4564H41.4462H41.436H41.4258H41.4155H41.4054H41.3952H41.385H41.3748H41.3647H41.3546H41.3444H41.3343H41.3242H41.3142H41.3041H41.294H41.284H41.2739H41.2639H41.2539H41.2439H41.2339H41.224H41.214H41.2041H41.1941H41.1842H41.1743H41.1644H41.1546H41.1447H41.1349H41.125H41.1152H41.1054H41.0956H41.0858H41.0761H41.0663H41.0566H41.0469H41.0372H41.0275H41.0178H41.0081H40.9985H40.9888H40.9792H40.9696H40.96H40.9505H40.9409H40.9314H40.9218H40.9123H40.9028H40.8933H40.8839H40.8744H40.865H40.8556H40.8462H40.8368H40.8274H40.818H40.8087H40.7994H40.7901H40.7808H40.7715H40.7622H40.753H40.7438H40.7346H40.7254H40.7162H40.707H40.6979H40.6888H40.6797H40.6706H40.6615H40.6524H40.6434H40.6344H40.6254H40.6164H40.6074H40.5985H40.5895H40.5806H40.5717H40.5628H40.554H40.5451H40.5363H40.5275H40.5187H40.5099H40.5012H40.4924H40.4837H40.475H40.4663H40.4577H40.449H40.4404H40.4318H40.4232H40.4146H40.4061H40.3975H40.389H40.3805H40.3721H40.3636H40.3552H40.3468H40.3384H40.33H40.3216H40.3133H40.305H40.2967H40.2884H40.2802H40.2719H40.2637H40.2555H40.2473H40.2392H40.2311H40.2229H40.2149H40.2068H40.1987C39.2117 44 38.1967 44.6099 37.8887 45.7274C37.4554 47.3002 36.8904 50.4986 36.6549 52.4995C36.6549 52.4998 36.6552 52.4995 36.6549 52.4995L36.6356 52.5H36.6169H36.5983H36.5796H36.561H36.5425H36.5239H36.5055H36.487H36.4686H36.4502H36.4319H36.4136H36.3953H36.3771H36.3589H36.3407H36.3226H36.3045H36.2865H36.2684H36.2505H36.2325H36.2146H36.1967H36.1789H36.1611H36.1433H36.1256H36.1079H36.0902H36.0726H36.055H36.0374H36.0199H36.0024H35.9849H35.9675H35.95H35.9327H35.9153H35.898H35.8808H35.8635H35.8463H35.8292H35.812H35.7949H35.7778H35.7608H35.7438H35.7268H35.7098H35.6929H35.676H35.6592H35.6423H35.6255H35.6088H35.592H35.5753H35.5587H35.542H35.5254H35.5088H35.4923H35.4757H35.4592H35.4428H35.4263H35.4099H35.3936H35.3772H35.3609H35.3446H35.3283H35.3121H35.2959H35.2797H35.2636H35.2474H35.2313H35.2153H35.1992H35.1832H35.1672H35.1513H35.1353H35.1194H35.1036H35.0877H35.0719H35.0561H35.0403H35.0246H35.0088H34.9932H34.9775H34.9618H34.9462H34.9306H34.9151H34.8995H34.884H34.8685H34.8531H34.8376H34.8222H34.8068H34.7914H34.7761H34.7608H34.7455H34.7302H34.715H34.6997H34.6845H34.6694H34.6542H34.6391H34.624H34.6089H34.5938H34.5788H34.5638H34.5488H34.5338H34.5188H34.5039H34.489H34.4741H34.4592H34.4444H34.4296H34.4148H34.4H34.3852H34.3705H34.3558H34.3411H34.3264H34.3118H34.2971H34.2825H34.2679H34.2533H34.2388H34.2243H34.2097H34.1952H34.1808H34.1663H34.1519H34.1374H34.123H34.1087H34.0943H34.0799H34.0656H34.0513H34.037H34.0227H34.0085H33.9942H33.98H33.9658H33.9516H33.9375H33.9233H33.9092H33.8951H33.881H33.8669H33.8528H33.8387H33.8247H33.8107H33.7967H33.7827H33.7687H33.7548H33.7408H33.7269H33.713H33.6991H33.6852H33.6713H33.6575H33.6436H33.6298H33.616H33.6022H33.5884H33.5747H33.5609H33.5472H33.5334H33.5197H33.506H33.4923H33.4787H33.465H33.4514H33.4377H33.4241H33.4105H33.3969H33.3833H33.3697H33.3562H33.3426H33.3291H33.3156H33.302H33.2885H33.275H33.2616H33.2481H33.2346H33.2212H33.2077H33.1943H33.1809H33.1675H33.1541H33.1407H33.1273H33.114H33.1006H33.0872H33.0739H33.0606H33.0473H33.0339H33.0206H33.0073H32.9941H32.9808H32.9675H32.9543H32.941H32.9278H32.9145H32.9013H32.8881H32.8748H32.8616H32.8484H32.8352H32.8221H32.8089H32.7957H32.7825H32.7694H32.7562H32.7431H32.7299H32.7168H32.7037H32.6906H32.6774H32.6643H32.6512H32.6381H32.625H32.6119H32.5988H32.5858H32.5727H32.5596H32.5465H32.5335H32.5204H32.5074H32.4943H32.4813H32.4682H32.4552H32.4421H32.4291H32.4161H32.403H32.39H32.377H32.364H32.351H32.3379H32.3249H32.3119H32.2989H32.2859H32.2729H32.2599H32.2469H32.2339H32.2209H32.2079H32.1949H32.1819H32.1689H32.1559H32.1429H32.1299H32.1169H32.1039H32.091H32.078H32.065H32.052H32.039H32.026H32.013H32H31.987H31.974H31.961H31.948H31.935H31.922H31.909H31.896H31.883H31.87H31.8569H31.8439H31.8309H31.8179H31.8049H31.7918H31.7788H31.7658H31.7527H31.7397H31.7267H31.7136H31.7006H31.6875H31.6745H31.6614H31.6483H31.6353H31.6222H31.6091H31.596H31.5829H31.5698H31.5567H31.5436H31.5305H31.5174H31.5043H31.4912H31.478H31.4649H31.4518H31.4386H31.4255H31.4123H31.3991H31.386H31.3728H31.3596H31.3464H31.3332H31.32H31.3068H31.2935H31.2803H31.2671H31.2538H31.2406H31.2273H31.214H31.2008H31.1875H31.1742H31.1609H31.1475H31.1342H31.1209H31.1075H31.0942H31.0808H31.0675H31.0541H31.0407H31.0273H31.0139H31.0005H30.987H30.9736H30.9601H30.9467H30.9332H30.9197H30.9062H30.8927H30.8792H30.8657H30.8521H30.8386H30.825H30.8114H30.7978H30.7842H30.7706H30.757H30.7433H30.7297H30.716H30.7024H30.6887H30.675H30.6612H30.6475H30.6338H30.62H30.6062H30.5925H30.5787H30.5648H30.551H30.5372H30.5233H30.5094H30.4956H30.4816H30.4677H30.4538H30.4399H30.4259H30.4119H30.3979H30.3839H30.3699H30.3558H30.3418H30.3277H30.3136H30.2995H30.2854H30.2712H30.2571H30.2429H30.2287H30.2145H30.2003H30.186H30.1718H30.1575H30.1432H30.1289H30.1146H30.1002H30.0858H30.0714H30.057H30.0426C30.0408 52.5 30.0393 52.4985 30.0393 52.4967V41.8673C30.0393 40.6078 29.1252 39.6177 27.9944 39.3817C27.3441 39.246 26.6696 39.0524 25.9983 38.7962ZM45.3332 44.0565C45.3342 44.0556 45.3343 44.0557 45.3332 44.0565V44.0565Z" fill="white"/>
<path fill-rule="evenodd" clip-rule="evenodd" d="M22.5 35C29.4036 35 35 29.4036 35 22.5C35 15.5964 29.4036 10 22.5 10C15.5964 10 10 15.5964 10 22.5C10 29.4036 15.5964 35 22.5 35ZM24 15.9783C24 15.1498 23.3284 14.4783 22.5 14.4783C21.6716 14.4783 21 15.1498 21 15.9783V22.587C21 23.9677 22.1193 25.087 23.5 25.087H26.3043C27.1328 25.087 27.8043 24.4154 27.8043 23.587C27.8043 22.7585 27.1328 22.087 26.3043 22.087H24V15.9783Z" fill="white"/>
</g>
</g>
<defs>
<clipPath id="clip0_4975_21485">
<rect width="64" height="64" fill="white"/>
</clipPath>
</defs>
</svg>
