<svg width="64" height="64" viewBox="0 0 64 64" fill="none" xmlns="http://www.w3.org/2000/svg">
<g clip-path="url(#clip0_4975_21486)">
<mask id="mask0_4975_21486" style="mask-type:luminance" maskUnits="userSpaceOnUse" x="0" y="0" width="64" height="64">
<path d="M64 0H0V64H64V0Z" fill="white"/>
</mask>
<g mask="url(#mask0_4975_21486)">
<path fill-rule="evenodd" clip-rule="evenodd" d="M32 3C15.9837 3 3 15.9837 3 32C3 48.0163 15.9837 61 32 61C48.0163 61 61 48.0163 61 32C61 15.9837 48.0163 3 32 3ZM0 32C0 14.3269 14.3269 0 32 0C49.6731 0 64 14.3269 64 32C64 49.6731 49.6731 64 32 64C14.3269 64 0 49.6731 0 32Z" fill="white"/>
<path d="M54.7287 10.7688L52.6074 8.64746L8.64765 52.6072L10.769 54.7286L54.7287 10.7688Z" fill="white"/>
<path fill-rule="evenodd" clip-rule="evenodd" d="M37.814 20.6638C38.1892 20.2887 38.2047 19.6869 37.8637 19.2804C37.5823 18.9448 37.3133 18.6094 37.0576 18.277C35.2989 15.9916 34.3267 14.0663 34.1363 13.4283C33.8205 12.3698 32.7064 11.7677 31.648 12.0835C30.5895 12.3993 29.9874 13.5134 30.3032 14.5718C30.6989 15.8982 32.0124 18.2796 33.8875 20.7164C34.2214 21.1503 34.5782 21.5928 34.9572 22.0381C35.3276 22.4735 35.9889 22.4889 36.3931 22.0847L37.814 20.6638ZM32.9962 25.4816C33.5383 24.9396 33.2968 24.0011 32.5818 23.7245C31.5371 23.3204 30.4775 22.809 29.4374 22.2276C26.8818 20.7991 24.6768 19.08 23.4614 17.9658C22.6472 17.2194 21.3821 17.2743 20.6356 18.0885C19.8892 18.9027 19.9442 20.1679 20.7584 20.9143C22.1804 22.2179 24.6347 24.1254 27.4857 25.7191C28.4142 26.2382 29.411 26.7388 30.4494 27.1766C30.8154 27.3309 31.2365 27.2413 31.5174 26.9605L32.9962 25.4816ZM27.8306 30.6472C28.3643 30.1136 28.1358 29.2064 27.4041 29.0214C25.8023 28.6162 24.2796 28.3604 22.9036 28.2679C21.5115 28.1742 20.1727 28.2407 19.0198 28.5521C17.8929 28.8565 16.6983 29.4674 15.9987 30.6521C15.99 30.6668 15.9818 30.6817 15.9742 30.6971C15.9311 30.7841 15.7784 31.1028 15.738 31.3352C15.7006 31.5504 15.7275 31.8764 15.7358 31.9642C15.7372 31.9793 15.7392 31.9941 15.7415 32.0091C15.8722 32.8461 16.0563 33.7386 16.3316 34.629C16.458 35.0376 16.3342 35.485 16.0164 35.7714C15.2393 36.4717 14.5495 37.2486 13.9562 38.002C12.2039 40.2272 10.8658 42.7975 10.1531 44.5125C9.7293 45.5325 10.2126 46.703 11.2326 47.1269C11.2841 47.1483 11.343 47.1349 11.3824 47.0954L15.169 43.3088C15.2308 43.2471 15.284 43.1775 15.3281 43.1021C15.8416 42.2229 16.4392 41.3142 17.0988 40.4767C17.5259 39.9343 17.95 39.4586 18.3658 39.0516C18.5159 38.9047 18.7556 38.9145 18.9068 39.0603C19.053 39.2014 19.2844 39.1935 19.428 39.0498L27.8306 30.6472ZM28.1241 40.1505C27.5492 40.7255 27.8588 41.7437 28.6381 41.9757C28.8362 42.0347 29.0362 42.097 29.2384 42.162C29.5987 42.2778 29.9837 42.4091 30.3841 42.5457C31.4417 42.9064 32.6071 43.3039 33.7087 43.549C35.3235 43.9082 37.1138 44.0314 39.0033 43.3818C39.2246 43.3057 39.444 43.2202 39.6618 43.125C40.155 42.9092 40.7474 43.0554 41.0321 43.5123C42.3143 45.5695 43.6513 47.6377 44.6161 49.1009C45.2241 50.0231 46.4645 50.2778 47.3867 49.6697C48.3089 49.0617 48.5635 47.8213 47.9555 46.8991C46.8999 45.298 45.3951 42.9665 44.0197 40.7405C43.7873 40.3646 43.8336 39.8824 44.1153 39.5417C44.1877 39.4541 44.26 39.3651 44.3322 39.2747C44.3875 39.2054 44.4425 39.1369 44.497 39.0693C44.8415 38.642 45.5059 38.7055 45.7766 39.183C47.3245 41.9136 49.1191 44.884 50.3006 46.788C50.8831 47.7265 52.116 48.0152 53.0546 47.4328C53.9931 46.8504 54.2818 45.6174 53.6994 44.6788C52.5366 42.805 50.7708 39.882 49.2564 37.2105C48.8507 36.4947 48.466 35.8023 48.1176 35.1567C48.0868 35.0997 48.0965 35.0293 48.1415 34.9827C48.5297 34.58 48.8953 34.2008 49.194 33.8647C49.5295 33.4871 49.8974 33.0377 50.1552 32.5325C50.4399 31.9745 50.6248 31.2809 50.4795 30.4954C50.3458 29.773 49.9731 29.2072 49.6335 28.7919C49.0765 28.1107 48.1611 27.3265 47.1019 26.4191L47.0986 26.4162C46.9711 26.307 46.8416 26.196 46.7103 26.0832C45.9916 25.4655 45.2711 24.9797 44.5567 24.6128C44.1946 24.4269 43.7588 24.5159 43.471 24.8037L28.1241 40.1505Z" fill="white"/>
</g>
</g>
<defs>
<clipPath id="clip0_4975_21486">
<rect width="64" height="64" fill="white"/>
</clipPath>
</defs>
</svg>
