<svg width="64" height="64" viewBox="0 0 64 64" fill="none" xmlns="http://www.w3.org/2000/svg">
<g clip-path="url(#clip0_4975_21484)">
<mask id="mask0_4975_21484" style="mask-type:luminance" maskUnits="userSpaceOnUse" x="0" y="0" width="64" height="64">
<path d="M64 0H0V64H64V0Z" fill="white"/>
</mask>
<g mask="url(#mask0_4975_21484)">
<path fill-rule="evenodd" clip-rule="evenodd" d="M32 3C15.9837 3 3 15.9837 3 32C3 48.0163 15.9837 61 32 61C48.0163 61 61 48.0163 61 32C61 15.9837 48.0163 3 32 3ZM0 32C0 14.3269 14.3269 0 32 0C49.6731 0 64 14.3269 64 32C64 49.6731 49.6731 64 32 64C14.3269 64 0 49.6731 0 32Z" fill="white"/>
<path fill-rule="evenodd" clip-rule="evenodd" d="M42.4323 16.0455C42.8629 15.6149 42.8127 14.9012 42.3072 14.5616C38.431 11.9583 33.7505 10.5665 29.0616 11.1201C18.9263 12.3166 10.3063 21.3618 12.2789 31.837C12.9191 35.2364 14.3305 38.2678 16.4108 40.6482C16.7753 41.0652 17.4132 41.0646 17.8049 40.6729L19.218 39.2598C19.6077 38.8701 19.6052 38.2409 19.2506 37.819C17.7484 36.0311 16.7085 33.7448 16.2098 31.0968C14.7644 23.4212 21.1324 16.084 29.5306 15.0925C32.9905 14.6841 36.5813 15.6516 39.6865 17.6261C40.0964 17.8867 40.6355 17.8423 40.9789 17.4989L42.4323 16.0455ZM37.2588 21.219C37.7074 20.7704 37.6306 20.0211 37.0742 19.7164C34.5544 18.337 31.6584 17.6733 28.8938 18.2411C22.8605 19.4801 17.6971 25.6382 19.8748 32.1052C20.2563 33.238 20.8069 34.3869 21.5241 35.4266C21.8569 35.9092 22.5405 35.9373 22.955 35.5228L24.3962 34.0816C24.7513 33.7265 24.7826 33.1657 24.5258 32.7341C24.1952 32.1786 23.9057 31.5414 23.6657 30.8286C22.4737 27.2889 25.2916 23.0643 29.6985 22.1593C31.1631 21.8585 32.8764 22.1309 34.547 22.9148C34.9514 23.1045 35.4366 23.0412 35.7525 22.7253L37.2588 21.219ZM40.3104 28.9074C40.1506 28.5111 40.2225 28.0522 40.5246 27.75L42.0643 26.2104C42.5218 25.7528 43.2885 25.8437 43.5767 26.423C44.3271 27.9318 44.8149 29.5868 44.9322 31.3328C45.2465 36.0098 42.8815 39.8987 39.4987 42.4532C36.136 44.9923 31.6395 46.3332 27.2537 45.979C26.3623 45.907 25.504 45.7734 24.6803 45.5824C23.9579 45.4149 23.7461 44.5286 24.2705 44.0042L26.0603 42.2144C26.2884 41.9862 26.6123 41.8846 26.9323 41.9253C27.1442 41.9522 27.3587 41.9745 27.5756 41.992C30.9851 42.2673 34.509 41.2086 37.0882 39.261C39.6473 37.3286 41.1457 34.6435 40.9412 31.601C40.8794 30.6815 40.6602 29.7752 40.3104 28.9074ZM31.513 26.9648C32.0264 26.4515 31.83 25.5898 31.112 25.4823C30.842 25.4419 30.5662 25.4156 30.2853 25.4039C29.1817 25.3582 28.2499 26.2157 28.2041 27.3193C28.1815 27.8651 28.3797 28.3688 28.7194 28.7442C29.0104 29.0657 29.5012 28.9766 29.8078 28.67L31.513 26.9648ZM35.5436 32.7311C36.1239 32.1507 37.0655 32.4957 36.9137 33.3023C36.6475 34.7169 35.8723 35.9246 34.8859 36.8453C33.4539 38.1817 31.4993 39.016 29.5774 39.289C29.3489 39.3215 29.2235 39.0512 29.3867 38.888L35.5436 32.7311ZM45.6572 23.7439C45.4133 23.3358 45.4636 22.811 45.7998 22.4749L47.2635 21.0112C47.7001 20.5746 48.4256 20.6334 48.7578 21.1539C50.676 24.1599 51.8791 27.6635 51.9913 31.407C52.3676 43.9546 40.5428 54.4725 28.0271 52.8305C26.9319 52.6869 26.1606 51.6826 26.3042 50.5874C26.4479 49.4922 27.4522 48.7209 28.5474 48.8645C38.6713 50.1927 48.294 41.56 47.9931 31.5269C47.9098 28.7485 47.0595 26.09 45.6572 23.7439Z" fill="white"/>
<path d="M54.5139 10.9835L52.3926 8.86218L8.86224 52.3925L10.9836 54.5138L54.5139 10.9835Z" fill="white"/>
</g>
</g>
<defs>
<clipPath id="clip0_4975_21484">
<rect width="64" height="64" fill="white"/>
</clipPath>
</defs>
</svg>
