<svg width="64" height="64" viewBox="0 0 64 64" fill="none" xmlns="http://www.w3.org/2000/svg">
<g clip-path="url(#clip0_4975_21504)">
<mask id="mask0_4975_21504" style="mask-type:luminance" maskUnits="userSpaceOnUse" x="0" y="0" width="64" height="64">
<path d="M64 0H0V64H64V0Z" fill="white"/>
</mask>
<g mask="url(#mask0_4975_21504)">
<path fill-rule="evenodd" clip-rule="evenodd" d="M32 3C15.9837 3 3 15.9837 3 32C3 48.0163 15.9837 61 32 61C48.0163 61 61 48.0163 61 32C61 15.9837 48.0163 3 32 3ZM0 32C0 14.3269 14.3269 0 32 0C49.6731 0 64 14.3269 64 32C64 49.6731 49.6731 64 32 64C14.3269 64 0 49.6731 0 32Z" fill="white"/>
<mask id="mask1_4975_21504" style="mask-type:alpha" maskUnits="userSpaceOnUse" x="0" y="0" width="64" height="64">
<path d="M32 64C49.6731 64 64 49.6731 64 32C64 14.3269 49.6731 0 32 0C14.3269 0 0 14.3269 0 32C0 49.6731 14.3269 64 32 64Z" fill="#D9D9D9"/>
</mask>
<g mask="url(#mask1_4975_21504)">
<path fill-rule="evenodd" clip-rule="evenodd" d="M14.8902 15.5404C16.5561 13.8023 19.224 13.4981 21.2383 14.8166L29.5865 20.2809L33.7701 23.0192L30.794 27.566L31.2448 28.1948L30.1217 29.0001H19.5175L14.4366 21.9136C13.0338 19.957 13.2244 17.2786 14.8902 15.5404Z" fill="white"/>
<path fill-rule="evenodd" clip-rule="evenodd" d="M37.8319 25.5276L41.9566 28.3538L47.8262 32.3755C49.6341 33.6143 50.4246 35.886 49.7762 37.9795C49.1277 40.073 47.1916 41.5002 45 41.5002L40 41.5001H35V35.7094V29.6607L37.8319 25.5276ZM31.5 41.5001V31.5001H27H22H17H12V41.5001H17H22H27H31.5ZM-6 31.5001H-1H4H9V41.5001H4H-1H-6V31.5001Z" fill="white"/>
<path fill-rule="evenodd" clip-rule="evenodd" d="M29.0513 44.0001L29.5733 44.5352L33.9211 48.9917C34.8621 49.9562 36.1526 50.5001 37.5001 50.5001H42.5001H47.5V44.0001H29.0513ZM50.5 42.8542V50.5001H55.5H60.5H65.5V40.5001H60.5H55.5H51.8875C51.6747 41.4352 51.1781 42.2479 50.5 42.8542Z" fill="white"/>
</g>
</g>
</g>
<defs>
<clipPath id="clip0_4975_21504">
<rect width="64" height="64" fill="white"/>
</clipPath>
</defs>
</svg>
