<svg width="64" height="64" viewBox="0 0 64 64" fill="none" xmlns="http://www.w3.org/2000/svg">
<g clip-path="url(#clip0_4975_21505)">
<mask id="mask0_4975_21505" style="mask-type:luminance" maskUnits="userSpaceOnUse" x="0" y="0" width="64" height="64">
<path d="M64 0H0V64H64V0Z" fill="white"/>
</mask>
<g mask="url(#mask0_4975_21505)">
<path fill-rule="evenodd" clip-rule="evenodd" d="M32 3C15.9837 3 3 15.9837 3 32C3 48.0163 15.9837 61 32 61C48.0163 61 61 48.0163 61 32C61 15.9837 48.0163 3 32 3ZM0 32C0 14.3269 14.3269 0 32 0C49.6731 0 64 14.3269 64 32C64 49.6731 49.6731 64 32 64C14.3269 64 0 49.6731 0 32Z" fill="white"/>
<mask id="mask1_4975_21505" style="mask-type:alpha" maskUnits="userSpaceOnUse" x="0" y="0" width="64" height="64">
<path d="M32 64C49.6731 64 64 49.6731 64 32C64 14.3269 49.6731 0 32 0C14.3269 0 0 14.3269 0 32C0 49.6731 14.3269 64 32 64Z" fill="#D9D9D9"/>
</mask>
<g mask="url(#mask1_4975_21505)">
<path fill-rule="evenodd" clip-rule="evenodd" d="M33.1197 50.7231V51.9292H34.2447C33.8208 51.5767 33.4424 51.1713 33.1197 50.7231ZM44.293 51.9292H46.0858V49.9471L45.133 51.0904C44.8771 51.3975 44.5956 51.6778 44.293 51.9292ZM47.7368 47.9659V51.9292H52.7368H54.149H55.6704H60.6704V41.9292H55.6704H54.149H52.7674L47.7368 47.9659ZM-5 41.9292H-10V51.9292H-5H-3.61297H1.38703V41.9292H-3.61297H-5ZM7.83005 41.9292H2.83005V51.9292H7.83005H9.21708H10.6346H15.6346V41.9292H10.6346H9.21708H7.83005ZM22.3292 41.9292H17.3292V51.9292H22.3292H23.7468H25.3006H30.3006V41.9292H25.3006H23.7468H22.3292ZM68.222 41.9292H63.222V51.9292H68.222H69.7434H74.7434V41.9292H69.7434H68.222Z" fill="white"/>
<path fill-rule="evenodd" clip-rule="evenodd" d="M33.8379 10.5279C32.4124 9.81509 30.7324 9.82463 29.3151 10.5536L28.6348 10.9034L24.1884 13.1902L28.7618 22.0831L31.6337 20.6061L34.5377 22.0581L39.0098 13.1138L34.5377 10.8777L33.8379 10.5279ZM26.3162 23.3408L23.3329 24.8751L22.6696 28.192L12.8637 26.2308L13.8443 21.3279L13.9998 20.5504C14.2985 19.057 15.2616 17.7811 16.616 17.0845L17.2963 16.7347L21.7427 14.4479L26.3162 23.3408ZM46.2001 16.709L41.728 14.4729L37.2558 23.4172L40.3064 24.9424L41.0582 28.2841L50.8143 26.089L49.7168 21.2109L49.5418 20.4334C49.2123 18.969 48.2424 17.7301 46.8999 17.0588L46.2001 16.709ZM52.6324 34.1692L51.5348 29.2911L41.7787 31.4863L42.5101 34.737L40.4013 37.2676L48.0835 43.6694L51.2844 39.8283L51.7704 39.2452C52.7652 38.0513 53.1484 36.4628 52.8073 34.9467L52.6324 34.1692ZM22.0391 31.3444L21.3476 34.8015L23.4573 37.5532L21.5702 39H21.5002H12.0002V39.0444C11.1471 37.907 10.818 36.4594 11.0972 35.0637L11.2527 34.2862L12.2332 29.3833L22.0391 31.3444ZM43.1855 49.547L46.3864 45.7059L38.7042 39.3041L36.5166 41.9292H33.081V51.9292H38.081H38.8585C40.3424 51.9292 41.7496 51.2701 42.6996 50.1301L43.1855 49.547Z" fill="white"/>
</g>
</g>
</g>
<defs>
<clipPath id="clip0_4975_21505">
<rect width="64" height="64" fill="white"/>
</clipPath>
</defs>
</svg>
