<svg width="64" height="64" viewBox="0 0 64 64" fill="none" xmlns="http://www.w3.org/2000/svg">
<g clip-path="url(#clip0_4975_21492)">
<mask id="mask0_4975_21492" style="mask-type:luminance" maskUnits="userSpaceOnUse" x="0" y="0" width="64" height="64">
<path d="M64 0H0V64H64V0Z" fill="white"/>
</mask>
<g mask="url(#mask0_4975_21492)">
<path fill-rule="evenodd" clip-rule="evenodd" d="M32 3C15.9837 3 3 15.9837 3 32C3 48.0163 15.9837 61 32 61C48.0163 61 61 48.0163 61 32C61 15.9837 48.0163 3 32 3ZM0 32C0 14.3269 14.3269 0 32 0C49.6731 0 64 14.3269 64 32C64 49.6731 49.6731 64 32 64C14.3269 64 0 49.6731 0 32Z" fill="white"/>
<path fill-rule="evenodd" clip-rule="evenodd" d="M44.3451 16.8173C45.4027 17.1359 46.0018 18.2515 45.6832 19.3091C45.4567 20.061 45.2215 21.4864 45.3608 23.0677C45.4993 24.6389 45.9919 26.2105 47.0604 27.452C47.7809 28.2892 47.6864 29.552 46.8492 30.2725C46.012 30.9931 44.7492 30.8985 44.0287 30.0614C42.2551 28.0007 41.5635 25.543 41.3763 23.4189C41.19 21.3049 41.4876 19.3691 41.8532 18.1554C42.1718 17.0978 43.2875 16.4987 44.3451 16.8173Z" fill="white"/>
<path fill-rule="evenodd" clip-rule="evenodd" d="M51.3266 15.6421C52.382 15.9682 52.9732 17.088 52.6472 18.1434C52.3146 19.22 51.863 21.8267 51.6175 24.4746C51.4967 25.7771 51.4326 27.0208 51.4508 28.0258C51.4599 28.5292 51.4892 28.9392 51.5334 29.2492C51.5738 29.5324 51.6145 29.6418 51.613 29.6424C51.6128 29.6424 51.6122 29.6412 51.611 29.6388C52.0986 30.624 51.6995 31.8193 50.7158 32.3132C49.7286 32.8088 48.5266 32.4103 48.031 31.4232C47.768 30.8993 47.6439 30.3075 47.5735 29.8137C47.4982 29.286 47.4624 28.7 47.4515 28.0983C47.4296 26.8933 47.5061 25.4908 47.6346 24.1053C47.8875 21.3774 48.3686 18.4412 48.8254 16.9627C49.1515 15.9073 50.2713 15.3161 51.3266 15.6421Z" fill="white"/>
<path opacity="0.2" d="M46.8715 46.4469H10.1151C6.56256 45.2675 11.3455 42.3192 13.7139 41.1399C16.0823 39.9605 13.1218 34.6534 13.1218 31.1154C13.1218 27.5774 16.6744 17.553 27.9243 18.1426C38.5963 18.702 38.5821 29.9361 39.7664 32.8844C40.1611 33.6707 41.069 34.7714 41.5427 32.8844C42.1348 30.5257 43.3189 28.1671 45.6873 26.9877C48.0557 25.8084 49.2399 25.2187 51.6083 29.3464C53.9767 33.4741 53.0141 41.1038 51.0163 44.0882C49.832 45.8572 48.6478 46.4469 46.8715 46.4469Z" fill="white"/>
<path fill-rule="evenodd" clip-rule="evenodd" d="M10.1151 46.4469H46.8715C48.6478 46.4469 49.832 45.8572 51.0163 44.0882C53.0141 41.1038 53.9768 33.4741 51.6084 29.3464C49.2399 25.2187 48.0557 25.8084 45.6873 26.9877C43.3189 28.1671 42.1348 30.5257 41.5427 32.8844C41.4223 33.3641 41.2738 33.6507 41.1128 33.7985C38.7024 39.7613 31.3936 42.9043 25.3655 40.2882C23.1097 39.3092 21.0048 37.8515 19.6226 35.967C18.22 34.0547 17.57 31.7039 18.2858 29.0829C18.9561 26.6288 20.157 24.7745 21.8235 23.6301C23.496 22.4815 25.5246 22.1258 27.6929 22.4615C31.2177 23.0071 33.7461 25.7446 33.4977 29.414C33.328 31.921 31.7135 33.6718 29.8344 34.3604C27.9766 35.0412 25.7 34.7187 24.3633 32.8835C23.2864 31.4052 23.3624 29.7811 24.021 28.6251C24.6158 27.5813 25.9598 26.6107 27.3663 27.2589C27.8679 27.49 28.0872 28.084 27.8561 28.5856C27.625 29.0872 27.031 29.3064 26.5294 29.0753C26.4881 29.0563 26.1081 29.0021 25.7588 29.6152C25.4734 30.1162 25.3851 30.8895 25.9799 31.706C26.6698 32.6532 27.9167 32.9331 29.1462 32.4826C30.3543 32.0398 31.3908 30.9253 31.5023 29.2789C31.6724 26.766 30.0102 24.844 27.387 24.4379C25.6242 24.165 24.1328 24.4704 22.9557 25.2787C21.7726 26.0912 20.7943 27.4895 20.2151 29.6099C19.6816 31.5634 20.142 33.2935 21.2353 34.7841C22.3489 36.3024 24.1253 37.5697 26.1617 38.4535C31.4257 40.7381 37.9385 37.6731 39.5491 32.2158C39.4175 31.7358 39.2924 31.1509 39.1522 30.4954C38.2163 26.1195 36.6074 18.5977 27.9244 18.1426C16.6744 17.553 13.1219 27.5774 13.1219 31.1154C13.1219 32.4252 13.5276 33.9774 13.9185 35.4728C14.5835 38.0171 15.2056 40.3971 13.714 41.1399C11.3455 42.3192 6.56256 45.2675 10.1151 46.4469Z" fill="white"/>
</g>
</g>
<defs>
<clipPath id="clip0_4975_21492">
<rect width="64" height="64" fill="white"/>
</clipPath>
</defs>
</svg>
