<svg width="64" height="64" viewBox="0 0 64 64" fill="none" xmlns="http://www.w3.org/2000/svg">
<g clip-path="url(#clip0_4975_21507)">
<mask id="mask0_4975_21507" style="mask-type:luminance" maskUnits="userSpaceOnUse" x="0" y="0" width="64" height="64">
<path d="M64 0H0V64H64V0Z" fill="white"/>
</mask>
<g mask="url(#mask0_4975_21507)">
<path fill-rule="evenodd" clip-rule="evenodd" d="M32 3C15.9837 3 3 15.9837 3 32C3 48.0163 15.9837 61 32 61C48.0163 61 61 48.0163 61 32C61 15.9837 48.0163 3 32 3ZM0 32C0 14.3269 14.3269 0 32 0C49.6731 0 64 14.3269 64 32C64 49.6731 49.6731 64 32 64C14.3269 64 0 49.6731 0 32Z" fill="white"/>
<path fill-rule="evenodd" clip-rule="evenodd" d="M35.9453 14.0747C36.9205 13.794 37.9469 14.3292 38.2379 15.2701C38.4132 15.8373 39.309 17.5488 40.9293 19.5804C42.3454 21.3561 44.1991 23.2278 46.3605 24.65C47.4939 24.9535 48.6607 25.5562 49.8227 26.5197C49.9446 26.6208 50.065 26.7203 50.1834 26.8182C51.1593 27.6249 52.0027 28.322 52.5159 28.9275C52.8288 29.2967 53.1721 29.7997 53.2953 30.4419C53.4292 31.1402 53.2589 31.7567 52.9965 32.2527C52.759 32.7018 52.4201 33.1014 52.1109 33.437C51.8357 33.7359 51.4991 34.0727 51.1413 34.4308L50.9742 34.5981C50.6429 34.9302 50.2726 35.3038 49.8641 35.7324C50.1059 36.1576 50.3627 36.6009 50.6294 37.0548C52.0246 39.4297 53.6515 42.0281 54.7228 43.6938C55.2594 44.5281 54.9934 45.6242 54.1287 46.1419C53.264 46.6596 52.1281 46.403 51.5915 45.5687C50.5029 43.8762 48.8494 41.2357 47.4233 38.8083C47.3865 38.7456 47.3498 38.683 47.3132 38.6205C46.6944 39.3277 46.0676 39.9263 45.4284 40.4224C46.3619 41.8481 47.2805 43.2151 47.9831 44.2433C48.5432 45.063 48.3086 46.1657 47.459 46.7062C46.6094 47.2467 45.4665 47.0204 44.9063 46.2006C44.1526 45.0975 43.1521 43.6077 42.145 42.065C40.6164 42.4477 39.1663 42.3297 37.8439 42.0458C36.829 41.828 35.7553 41.4747 34.7809 41.154C34.412 41.0326 34.0573 40.9158 33.7254 40.8129C32.4217 40.4087 31.222 40.1237 29.9926 40.1237C29.3213 40.1237 28.6927 40.0672 28.1053 39.9596C27.751 40.712 27.4076 41.5185 27.0589 42.3375L27.0559 42.3444L27.0547 42.3473C26.994 42.49 26.9331 42.6329 26.872 42.7761C26.4465 43.7723 25.9995 44.799 25.5468 45.6249C25.071 46.4929 23.956 46.8244 23.0564 46.3653C22.1568 45.9063 21.8133 44.8305 22.289 43.9625C22.6463 43.3108 23.0295 42.44 23.4646 41.4213C23.524 41.2823 23.5842 41.1408 23.6452 40.9974C23.9888 40.1901 24.3578 39.3233 24.7412 38.5075C24.4635 38.2949 24.2037 38.0641 23.9613 37.8167C23.4978 38.2255 23.0214 38.7259 22.5408 39.3148C21.1786 40.9838 20.103 42.9706 19.5447 44.2669C19.1542 45.1737 18.0758 45.6033 17.136 45.2265C16.1963 44.8497 15.751 43.8092 16.1416 42.9024C16.7982 41.3779 18.031 39.093 19.6454 37.1149C20.3163 36.2929 21.1212 35.4393 22.0444 34.7189C21.667 33.7245 21.438 32.7063 21.2871 31.7675C21.2871 31.7675 21.2469 31.4113 21.287 31.1884C21.3305 30.947 21.5152 30.6009 21.5152 30.6009C22.158 29.5349 23.2659 28.9867 24.3106 28.7144C25.3729 28.4376 26.6064 28.3785 27.8889 28.4617C30.4652 28.6289 33.5995 29.3955 36.77 30.6574C37.8201 31.0754 38.3607 31.0749 38.5636 31.0397C38.6693 31.0214 38.6765 31.009 38.7142 30.9445L38.7149 30.9434C38.795 30.8066 38.8854 30.5163 38.8949 30.045C38.9039 29.5941 38.836 29.1067 38.7313 28.6899L38.7188 28.6403C36.3828 28.2338 34.0799 27.2582 32.1105 26.196C29.4837 24.7793 27.2225 23.0835 25.9124 21.9247C25.1623 21.2612 25.1116 20.1365 25.7993 19.4128C26.487 18.689 27.6526 18.6401 28.4028 19.3036C29.5226 20.2941 31.5541 21.8223 33.9086 23.0922C36.3 24.3819 38.8033 25.2841 40.9269 25.2841C41.027 25.2841 41.1252 25.2918 41.2209 25.3066C41.2466 25.292 41.2725 25.2776 41.2985 25.2632C40.0278 24.1131 38.9246 22.8974 38.0086 21.7489C36.281 19.5827 35.0709 17.4657 34.7064 16.2867C34.4154 15.3457 34.9701 14.3554 35.9453 14.0747Z" fill="white"/>
<path opacity="0.6" fill-rule="evenodd" clip-rule="evenodd" d="M18.8833 29.1609L18.8686 29.1884L18.8681 29.1894L18.8638 29.1975L18.8577 29.2089L18.8422 29.2386C18.8305 29.2613 18.8159 29.29 18.7991 29.3238C18.7662 29.3901 18.7217 29.4823 18.6738 29.5907C18.6061 29.7439 18.4232 30.1642 18.3345 30.6569C18.2525 31.1124 18.2681 31.5345 18.2748 31.6903C18.2795 31.7999 18.2864 31.8943 18.2922 31.9626C18.2952 31.9975 18.298 32.0273 18.3004 32.0508L18.3036 32.0818L18.3049 32.0938L18.306 32.1035L18.3139 32.1738L18.3251 32.2438C18.4008 32.7145 18.497 33.2256 18.6244 33.7617C18.1257 34.2666 17.6907 34.7654 17.3213 35.218C15.4947 37.456 14.1278 39.994 13.3862 41.7157C13.1639 42.232 13.0408 42.7595 13.0065 43.2806C12.8273 43.6375 12.6725 43.9703 12.5447 44.2669C12.1542 45.1737 11.0758 45.6033 10.136 45.2265C9.19628 44.8497 8.75103 43.8092 9.14155 42.9024C9.79816 41.3779 11.031 39.093 12.6454 37.1149C13.3163 36.2929 14.1212 35.4393 15.0444 34.7189C14.667 33.7245 14.438 32.7063 14.2871 31.7675C14.2871 31.7675 14.2469 31.4113 14.287 31.1884C14.3305 30.947 14.5152 30.6009 14.5152 30.6009C15.158 29.5349 16.2659 28.9867 17.3106 28.7144C17.9439 28.5494 18.6381 28.4617 19.3672 28.4355C19.219 28.6279 19.0781 28.833 18.9461 29.0519L18.9056 29.1191L18.8833 29.1609ZM24.1727 25.6701C24.6178 25.5821 25.0691 25.521 25.5212 25.4821C24.9091 25.0114 24.3715 24.5669 23.9248 24.1718C22.7166 23.1031 22.1791 21.5681 22.3439 20.0872C21.9843 19.8029 21.668 19.5382 21.4028 19.3036C20.6526 18.6401 19.487 18.689 18.7993 19.4128C18.1116 20.1365 18.1623 21.2612 18.9124 21.9247C20.0638 22.9431 21.9497 24.3762 24.1727 25.6701ZM27.6309 15.859C28.6239 15.9547 29.5945 16.3525 30.3904 17.0565C30.8754 17.4855 31.584 18.0516 32.4409 18.655C32.1826 18.1202 31.9787 17.6205 31.8403 17.1729C31.7363 16.8366 31.6715 16.5004 31.6429 16.1681C31.4303 15.7651 31.2954 15.4561 31.2379 15.2701C30.9469 14.3292 29.9205 13.794 28.9453 14.0747C28.1176 14.3129 27.5928 15.0624 27.6309 15.859ZM41.1222 45.9582C40.9776 45.7421 40.8301 45.5207 40.6805 45.2954C39.4132 45.3541 38.2424 45.1997 37.2144 44.979C37.161 44.9676 37.1076 44.9558 37.0542 44.9438C37.3608 45.3992 37.648 45.8226 37.9063 46.2006C38.4665 47.0204 39.6094 47.2467 40.459 46.7062C40.7598 46.5149 40.9835 46.253 41.1222 45.9582Z" fill="white"/>
</g>
</g>
<defs>
<clipPath id="clip0_4975_21507">
<rect width="64" height="64" fill="white"/>
</clipPath>
</defs>
</svg>
