<svg width="231" height="261" viewBox="0 0 231 261" fill="none" xmlns="http://www.w3.org/2000/svg">
    <path d="M106.704 54.4614C105.206 57.0194 104.011 59.4661 102.865 62.1386" stroke="black" stroke-width="3" stroke-linecap="round"/>
    <path d="M139.971 64.6977C139.359 67.4202 138.675 68.9901 137.412 71.0955" stroke="black" stroke-width="3" stroke-linecap="round"/>
    <path d="M192.595 43.5045C167.3 43.5045 197.87 72.1391 203.116 62.6977C209.54 51.1329 195.25 45.2426 186.197 42.225" stroke="black" stroke-width="3" stroke-linecap="round"/>
    <path d="M70.876 135.03C54.0907 160.97 55.1875 181 53 196C50.4856 213.242 50.9987 244.5 56.9995 256.5" stroke="black" stroke-width="3" stroke-linecap="round"/>
    <path d="M167.516 139C171.668 180.52 170.635 180.09 166 221.5C164.795 232.269 158.826 250.674 150.5 259" stroke="black" stroke-width="3" stroke-linecap="round"/>
    <path d="M180.918 2C185.855 2.23508 193.893 3.21173 193.713 9.67727C193.605 13.5661 189.719 15.2627 188.595 18.6341" stroke="#f54f51" stroke-width="3" stroke-linecap="round"/>
    <path d="M186.231 30.0114C184.132 29.6442 186.419 30.4128 186.994 29.7846C187.693 29.0227 187.619 28.8273 186.66 28.5077" stroke="#f54f51" stroke-width="3" stroke-linecap="round"/>
    <path d="M216.734 4.66278C220.708 4.87955 223.422 8.33109 223.334 12.2172C223.244 16.1675 220.464 19.9606 216.734 21.2038" stroke="#f54f51" stroke-width="3" stroke-linecap="round"/>
    <path d="M214.371 32.5892C214.033 33.0049 211.949 34.5165 213.715 34.2959C213.954 34.2659 214.647 33.82 214.323 33.4962C214.186 33.3583 213.471 33.4278 213.942 33.6633" stroke="#f54f51" stroke-width="3" stroke-linecap="round"/>
    <path d="M201.053 2.94421C204.576 5.08894 207.876 8.36898 206.924 12.9452C206.587 14.5684 205.379 15.8921 204.311 17.0865C203.867 17.5824 203.518 18.2715 202.986 18.626" stroke="#f54f51" stroke-width="3" stroke-linecap="round"/>
    <path d="M200.408 31.5151C202.032 33.5142 203.176 30.8707 201.267 30.8707" stroke="#f54f51" stroke-width="3" stroke-linecap="round"/>
    <path d="M62.6495 123.909C52.2566 128.58 45.0569 138.227 38.3938 147.206C31.1202 157.008 25.2834 168.52 20.6799 179.822C17.6416 187.282 15.4396 195.253 13.4107 203.043C13.0148 204.563 13.2017 209.061 12.6579 210.12C10.6132 214.103 -4.22443 219.615 4.82234 225.629C11.1989 229.867 27.1269 229.55 21.1272 218.889" stroke="black" stroke-width="3" stroke-linecap="round"/>
    <path d="M178.404 139.792C192.305 148.828 216.603 159.195 226.119 139.044C233.167 124.117 227.458 104.986 220.692 90.9925C217.109 83.5818 213.058 76.2186 209.054 69.1001C207.983 67.1969 206.884 65.4916 205.648 63.6738C204.638 62.1886 202.654 60.8154 202.654 58.9585" stroke="black" stroke-width="3" stroke-linecap="round"/>
    <path d="M121.572 24.4035C122.647 26.8061 124.646 29.7228 124.646 32.4724" stroke="black" stroke-width="3" stroke-linecap="round"/>
    <path d="M133.868 26.3246C133.868 28.8804 133.596 31.1446 133.1 33.6251" stroke="black" stroke-width="3" stroke-linecap="round"/>
    <path d="M144.242 29.0143C143.834 30.8902 142.646 38.2359 140.016 38.2359" stroke="black" stroke-width="3" stroke-linecap="round"/>
    <path d="M116 32.2802C113.441 31.7927 103.558 31.7775 101.076 32.2802C89.0584 34.7148 76.9483 41.1286 68.149 49.6402C57.3501 60.0861 51.3649 74.0576 55.1355 89.0291C59.2849 105.505 73.1498 114.851 88.656 119.596C107.529 125.371 127.449 126.279 146.94 123.801C160.534 122.072 175.66 118.605 182.318 105.177C184.778 100.213 185.769 94.6227 185.529 89.1194C185.132 80.0327 182.809 69.5762 178.177 61.6607C174.432 55.2584 168.448 49.7676 162.559 45.384C158.398 42.2871 154.188 39.9487 149.377 38.0582" stroke="black" stroke-width="3" stroke-linecap="round"/>
    <path d="M96 89.9553C96.4654 88.1781 99.6479 85.9292 101.288 87.5693C102.868 89.1496 104.863 88.9513 107.011 89.52C108.211 89.8375 108.574 90.1471 109.526 90.8097C110.56 91.5289 111.897 91.3741 113.057 91.7609C115.377 92.5344 117.622 93.1533 119.248 95.0498C120.844 96.9118 121.662 98.7465 124.181 99.0964C126.93 99.4782 129.131 98.6989 131.404 100.467C133.372 101.998 134.912 102.086 137.482 101.708C139.691 101.383 140.658 101.178 139.819 98.6611" stroke="black" stroke-width="3" stroke-linecap="round"/>
</svg>
