<svg width="12" height="12" viewBox="0 0 12 12" fill="none" xmlns="http://www.w3.org/2000/svg">
    <circle cx="6" cy="6" r="5.5" stroke="white"/>
    <path d="M5.27 6.74C5.27 6.56667 5.32667 6.42333 5.44 6.31C5.55333 6.19 5.69667 6.13 5.87 6.13C6.31 6.13 6.66333 6.02667 6.93 5.82C7.19667 5.61333 7.33 5.29333 7.33 4.86C7.33 4.52667 7.21 4.25 6.97 4.03C6.73 3.81 6.43 3.7 6.07 3.7C5.70333 3.7 5.38 3.82333 5.1 4.07C4.94 4.21667 4.77333 4.29 4.6 4.29C4.47333 4.29 4.36 4.25 4.26 4.17C4.08667 4.03667 4 3.88 4 3.7C4 3.54667 4.06333 3.40667 4.19 3.28C4.43 3.03333 4.71 2.84333 5.03 2.71C5.35667 2.57 5.70333 2.5 6.07 2.5C6.52333 2.5 6.93667 2.60333 7.31 2.81C7.68333 3.01667 7.98 3.30333 8.2 3.67C8.42 4.03 8.53 4.42667 8.53 4.86C8.53 5.5 8.34667 6.00667 7.98 6.38C7.61333 6.75333 7.12667 6.98667 6.52 7.08C6.48667 7.09333 6.47 7.11 6.47 7.13V7.5C6.47 7.67333 6.41333 7.82 6.3 7.94C6.18667 8.05333 6.04333 8.11 5.87 8.11C5.69667 8.11 5.55333 8.05333 5.44 7.94C5.32667 7.82 5.27 7.67333 5.27 7.5V6.74ZM5.82 9.9C5.62667 9.9 5.47667 9.85 5.37 9.75C5.27 9.64333 5.22 9.49333 5.22 9.3V9.13C5.22 8.93667 5.27 8.79 5.37 8.69C5.47667 8.58333 5.62667 8.53 5.82 8.53H5.95C6.14333 8.53 6.29 8.58333 6.39 8.69C6.49667 8.79 6.55 8.93667 6.55 9.13V9.3C6.55 9.49333 6.49667 9.64333 6.39 9.75C6.29 9.85 6.14333 9.9 5.95 9.9H5.82Z" fill="white"/>
</svg>
