<svg width="64" height="64" viewBox="0 0 64 64" fill="none" xmlns="http://www.w3.org/2000/svg">
<g clip-path="url(#clip0_4975_21495)">
<mask id="mask0_4975_21495" style="mask-type:luminance" maskUnits="userSpaceOnUse" x="0" y="0" width="64" height="64">
<path d="M64 0H0V64H64V0Z" fill="white"/>
</mask>
<g mask="url(#mask0_4975_21495)">
<path fill-rule="evenodd" clip-rule="evenodd" d="M32 3C48.0163 3 61 15.9837 61 32C61 48.0163 48.0163 61 32 61C15.9837 61 3 48.0163 3 32C3 15.9837 15.9837 3 32 3ZM64 32C64 14.3269 49.6731 0 32 0C14.3269 0 0 14.3269 0 32C0 49.6731 14.3269 64 32 64C49.6731 64 64 49.6731 64 32Z" fill="white"/>
<path fill-rule="evenodd" clip-rule="evenodd" d="M28.7042 53.7523C28.8695 52.661 29.8882 51.9202 30.9906 51.975C31.325 51.9916 31.6615 52 32 52C43.0457 52 52 43.0457 52 32C52 20.9543 43.0457 12 32 12C31.6192 12 31.3001 11.7033 31.287 11.3227L31.2014 8.84076C31.1857 8.38423 31.5432 8 32 8C45.2548 8 56 18.7452 56 32C56 45.2548 45.2548 56 32 56C31.4606 56 30.9253 55.9822 30.3948 55.9472C29.2915 55.8743 28.5386 54.8455 28.7042 53.7523Z" fill="white"/>
<path d="M30 45L30 33.375C30 32.2704 30.8954 31.375 32 31.375C33.1046 31.375 34 32.2704 34 33.375L34 45C34 46.1046 33.1046 47 32 47C30.8954 47 30 46.1046 30 45Z" fill="white"/>
<path d="M30 10C30 8.89543 30.8954 8 32 8C33.1046 8 34 8.89543 34 10V14C34 15.1046 33.1046 16 32 16C30.8954 16 30 15.1046 30 14V10Z" fill="white"/>
<path opacity="0.4" fill-rule="evenodd" clip-rule="evenodd" d="M18.4695 14.6533C19.1486 15.5238 18.9857 16.7732 18.1873 17.5359C14.3749 21.1776 12 26.3115 12 32C12 43.0457 20.9543 52 32 52C43.0457 52 52 43.0457 52 32C52 20.9543 43.0457 12 32 12C31.6192 12 31.3001 11.7033 31.287 11.3227L31.2014 8.84076C31.1857 8.38423 31.5432 8 32 8C45.2548 8 56 18.7452 56 32C56 45.2548 45.2548 56 32 56C18.7452 56 8 45.2548 8 32C8 25.031 10.9704 18.7557 15.7141 14.3712C16.5257 13.6211 17.7898 13.7818 18.4695 14.6533Z" fill="white"/>
</g>
</g>
<defs>
<clipPath id="clip0_4975_21495">
<rect width="64" height="64" fill="white"/>
</clipPath>
</defs>
</svg>
