<svg width="64" height="64" viewBox="0 0 64 64" fill="none" xmlns="http://www.w3.org/2000/svg">
<g clip-path="url(#clip0_4975_21491)">
<mask id="mask0_4975_21491" style="mask-type:luminance" maskUnits="userSpaceOnUse" x="0" y="0" width="64" height="64">
<path d="M64 0H0V64H64V0Z" fill="white"/>
</mask>
<g mask="url(#mask0_4975_21491)">
<path fill-rule="evenodd" clip-rule="evenodd" d="M32 3C15.9837 3 3 15.9837 3 32C3 48.0163 15.9837 61 32 61C48.0163 61 61 48.0163 61 32C61 15.9837 48.0163 3 32 3ZM0 32C0 14.3269 14.3269 0 32 0C49.6731 0 64 14.3269 64 32C64 49.6731 49.6731 64 32 64C14.3269 64 0 49.6731 0 32Z" fill="white"/>
<path d="M54.6323 10.8652L52.511 8.7439L8.74391 52.511L10.8652 54.6323L54.6323 10.8652Z" fill="white"/>
<path fill-rule="evenodd" clip-rule="evenodd" d="M41.3749 17.1029C41.4129 17.0648 41.3863 17 41.3326 17C39.6609 17 38.2018 17.2397 36.9551 17.719C35.7368 18.1701 34.7168 18.7904 33.8951 19.5798C33.1018 20.3411 32.5068 21.2292 32.1102 22.2442C31.7418 23.231 31.5577 24.2742 31.5577 25.3738V25.6698C31.5577 26.1577 32.1395 26.3383 32.4845 25.9933L41.3749 17.1029ZM26.4148 32.063C26.6024 31.8754 26.7077 31.6211 26.7077 31.3558V19.5375C26.7077 18.7199 26.4386 18.1278 25.9002 17.7613C25.3619 17.3947 24.6819 17.2115 23.8602 17.2115C23.3502 17.2115 22.8261 17.296 22.2878 17.4652C21.7494 17.6344 21.1119 17.9163 20.3753 18.311L13.1928 22.2865C12.5412 22.653 12.1587 23.1605 12.0453 23.809C11.932 24.4575 12.0312 25.0637 12.3428 25.6276C12.6828 26.2478 13.1645 26.6849 13.7878 26.9386C14.4111 27.1642 15.077 27.0796 15.7853 26.6849L19.772 24.4091C20.4387 24.0285 21.2678 24.5099 21.2678 25.2775V34.7958C21.2678 35.6867 22.3449 36.1329 22.9749 35.5029L26.4148 32.063ZM22.0753 47.2387C21.7156 46.9939 21.7843 46.4904 22.0919 46.1827L25.0006 43.274C25.6306 42.644 26.7077 43.0902 26.7077 43.9811V45.4625C26.7077 46.2801 26.4386 46.8722 25.9002 47.2387C25.3619 47.6053 24.7244 47.7885 23.9877 47.7885C23.2511 47.7885 22.6136 47.6053 22.0753 47.2387ZM30.8778 37.6095C30.9134 37.43 31.0067 37.268 31.1361 37.1386L38.51 29.7646C38.8237 29.4509 39.3039 29.3908 39.7202 29.5444C39.7755 29.5648 39.8313 29.5843 39.8876 29.603C40.3976 29.744 40.9076 29.8145 41.4176 29.8145C41.9559 29.8145 42.4659 29.744 42.9476 29.603C43.4576 29.4338 43.9109 29.1942 44.3076 28.884C44.7042 28.5457 45.0159 28.1369 45.2426 27.6576C45.4976 27.1501 45.6251 26.558 45.6251 25.8813V25.6698C45.6251 25.0531 45.5391 24.5096 45.3673 24.0395C45.2002 23.5823 45.232 23.0426 45.5762 22.6984L48.6945 19.5802C48.7036 19.5711 48.7182 19.5709 48.7275 19.5798C49.5492 20.3411 50.1584 21.2292 50.555 22.2442C50.98 23.231 51.1925 24.2742 51.1925 25.3738V25.6698C51.1925 26.1774 51.1075 26.7131 50.9375 27.2769C50.7958 27.8408 50.555 28.4047 50.215 28.9686C49.875 29.5325 49.4359 30.0823 48.8975 30.618C48.8408 30.6776 48.7828 30.7364 48.7233 30.7946C48.1497 31.3552 48.2584 32.5441 48.8975 33.0286C49.5209 33.4516 50.0592 33.9591 50.5125 34.5512C50.9658 35.1432 51.32 35.8199 51.575 36.5812C51.8583 37.3142 52 38.1037 52 38.9495V39.457C52 40.6694 51.7733 41.7972 51.32 42.8404C50.8667 43.8836 50.1867 44.7858 49.28 45.5471C48.4017 46.3083 47.3109 46.9145 46.0076 47.3656C44.7042 47.7885 43.2026 48 41.5026 48C39.7459 48 38.1876 47.7885 36.8276 47.3656C35.496 46.9145 34.3768 46.3083 33.4701 45.5471C32.5635 44.7858 31.8835 43.8836 31.4302 42.8404C30.9768 41.7972 30.7502 40.6694 30.7502 39.457V38.9495C30.7502 38.4859 30.7927 38.0392 30.8778 37.6095ZM39.5051 34.8049C40.1284 34.6357 40.7801 34.5512 41.4601 34.5512C42.1401 34.5512 42.7776 34.6357 43.3726 34.8049C43.9676 34.9741 44.4776 35.2419 44.9026 35.6085C45.3559 35.975 45.7101 36.4261 45.965 36.9618C46.2484 37.4975 46.39 38.146 46.39 38.9072V39.1187C46.39 40.4438 45.9509 41.4729 45.0726 42.206C44.1942 42.9109 42.9901 43.2633 41.4601 43.2633C39.9301 43.2633 38.6976 42.9109 37.7626 42.206C36.8276 41.4729 36.3601 40.4438 36.3601 39.1187V38.9072C36.3601 38.146 36.5018 37.4975 36.7851 36.9618C37.0685 36.3979 37.4368 35.9468 37.8901 35.6085C38.3718 35.2419 38.9101 34.9741 39.5051 34.8049Z" fill="white"/>
</g>
</g>
<defs>
<clipPath id="clip0_4975_21491">
<rect width="64" height="64" fill="white"/>
</clipPath>
</defs>
</svg>
