<svg width="64" height="64" viewBox="0 0 64 64" fill="none" xmlns="http://www.w3.org/2000/svg">
<g clip-path="url(#clip0_4975_21501)">
<mask id="mask0_4975_21501" style="mask-type:luminance" maskUnits="userSpaceOnUse" x="0" y="0" width="64" height="64">
<path d="M64 0H0V64H64V0Z" fill="white"/>
</mask>
<g mask="url(#mask0_4975_21501)">
<path fill-rule="evenodd" clip-rule="evenodd" d="M32 3C15.9837 3 3 15.9837 3 32C3 48.0163 15.9837 61 32 61C48.0163 61 61 48.0163 61 32C61 15.9837 48.0163 3 32 3ZM0 32C0 14.3269 14.3269 0 32 0C49.6731 0 64 14.3269 64 32C64 49.6731 49.6731 64 32 64C14.3269 64 0 49.6731 0 32Z" fill="white"/>
<mask id="mask1_4975_21501" style="mask-type:alpha" maskUnits="userSpaceOnUse" x="0" y="0" width="64" height="64">
<path d="M32 64C49.6731 64 64 49.6731 64 32C64 14.3269 49.6731 0 32 0C14.3269 0 0 14.3269 0 32C0 49.6731 14.3269 64 32 64Z" fill="#D9D9D9"/>
</mask>
<g mask="url(#mask1_4975_21501)">
<path d="M27.5 36.1309V28.1309C27.5 27.5786 27.9477 27.1309 28.5 27.1309H33.5858C33.851 27.1309 34.1054 27.2362 34.2929 27.4238L38.2929 31.4238C38.6834 31.8143 38.6834 32.4474 38.2929 32.838L34.2929 36.838C34.1054 37.0255 33.851 37.1309 33.5858 37.1309H28.5C27.9477 37.1309 27.5 36.6831 27.5 36.1309Z" fill="white"/>
<path fill-rule="evenodd" clip-rule="evenodd" d="M59.1309 -5.825L57.0434 -1.28161L55.3047 2.50248L53.2172 7.04586L44.1305 2.87086L46.218 -1.67252L47.9566 -5.45662L50.0441 -10L59.1309 -5.825ZM52.3695 8.89091L50.282 13.4343L48.5434 17.2184C47.7279 18.9934 45.9534 20.1309 44 20.1309H39.9091H34.9091V10.1309H39.9091H40.7948L41.1953 9.25929L43.2828 4.71591L52.3695 8.89091ZM19.6903 12.5958C20.5887 11.0686 22.2282 10.1309 24 10.1309H28.0909H33.0909V20.1309H28.0909H26.8597L26.2642 21.1433L23.9186 25.1309H23.1816L15.1098 20.3827L17.6449 16.0731L19.6903 12.5958ZM14.2709 21.8088L19.9184 25.1309H12.3167L14.2709 21.8088ZM11.5 27.1309H11.1403L9.69033 29.5958C8.76989 31.1605 8.76989 33.1012 9.69033 34.666L11.7358 38.1433L14.2709 42.4529L22.8902 37.3827L22.7421 37.1309H23.5V27.1309H11.5ZM23.7291 38.8088L26.2642 43.1185L26.8597 44.1309H28.0909H33.0909V54.1309H28.0909H24C22.2282 54.1309 20.5887 53.1932 19.6903 51.666L17.6449 48.1887L15.1098 43.879L23.7291 38.8088ZM34.9091 44.1309H39.9091H44C45.8734 44.1309 47.5896 45.1781 48.4464 46.8441L50.2873 50.4237L52.5741 54.8701L43.6812 59.4436L41.3945 54.9972L40.949 54.1309H39.9091H34.9091V44.1309ZM53.3188 56.3182L55.6055 60.7646L57.4464 64.3441L59.7332 68.7906L50.8403 73.3641L48.5536 68.9176L46.7127 65.3381L44.4259 60.8916L53.3188 56.3182Z" fill="white"/>
</g>
</g>
</g>
<defs>
<clipPath id="clip0_4975_21501">
<rect width="64" height="64" fill="white"/>
</clipPath>
</defs>
</svg>
