<svg width="64" height="64" viewBox="0 0 64 64" fill="none" xmlns="http://www.w3.org/2000/svg">
<g clip-path="url(#clip0_4975_21498)">
<mask id="mask0_4975_21498" style="mask-type:luminance" maskUnits="userSpaceOnUse" x="0" y="0" width="64" height="64">
<path d="M64 0H0V64H64V0Z" fill="white"/>
</mask>
<g mask="url(#mask0_4975_21498)">
<path fill-rule="evenodd" clip-rule="evenodd" d="M32 3C15.9837 3 3 15.9837 3 32C3 48.0163 15.9837 61 32 61C48.0163 61 61 48.0163 61 32C61 15.9837 48.0163 3 32 3ZM0 32C0 14.3269 14.3269 0 32 0C49.6731 0 64 14.3269 64 32C64 49.6731 49.6731 64 32 64C14.3269 64 0 49.6731 0 32Z" fill="white"/>
<mask id="mask1_4975_21498" style="mask-type:alpha" maskUnits="userSpaceOnUse" x="0" y="0" width="64" height="64">
<path d="M32 64C49.6731 64 64 49.6731 64 32C64 14.3269 49.6731 0 32 0C14.3269 0 0 14.3269 0 32C0 49.6731 14.3269 64 32 64Z" fill="#D9D9D9"/>
</mask>
<g mask="url(#mask1_4975_21498)">
<path fill-rule="evenodd" clip-rule="evenodd" d="M48.6244 51.6132H51.1268V44.871L48.8342 51.1048C48.7705 51.278 48.7005 51.4475 48.6244 51.6132ZM-17 41.6132H-22V51.6132H-17H-13.4808H-8.48082V41.6132H-13.4808H-17ZM-1.56976 41.6132H-6.56976V51.6132H-1.56976H1.94942H5.7387H10.7387V41.6132H5.7387H1.94942H-1.56976ZM18.564 41.6132H13.564V51.6132H18.564H22.3532H26.1029H31.1029V41.6132H26.1029H22.3532H18.564ZM58.2544 41.6132H53.2544V51.6132H58.2544H61.8375H65.6976H70.6976V41.6132H65.6976H61.8375H58.2544ZM78.7625 41.6132H73.7625V51.6132H78.7625H82.6226H87.6226V41.6132H82.6226H78.7625Z" fill="white"/>
<path fill-rule="evenodd" clip-rule="evenodd" d="M35.1272 11.8813C33.4235 10.7087 31.1736 10.706 29.4671 11.8747L26.3828 13.9869L22.2575 16.8121L27.9078 25.0628L32.0331 22.2376L32.2851 22.065L32.5261 22.2309L36.6448 25.0658L42.3146 16.8285L38.1959 13.9936L35.1272 11.8813ZM48.7661 21.2691L44.6474 18.4342L38.9776 26.6715L42.9947 29.4365L41.3483 34.0308L50.7621 37.4042L52.4488 32.6973L53.7068 29.1867C54.4722 27.051 53.7036 24.6677 51.8348 23.3813L48.7661 21.2691ZM25.5347 26.6879L21.4422 29.4907L23.0093 34.1598L13.529 37.3417L11.938 32.6015L10.7598 29.0909C10.0485 26.9717 10.8304 24.6378 12.6747 23.3747L15.7591 21.2624L19.8844 18.4372L25.5347 26.6879ZM48.1157 44.7893L49.8024 40.0824L40.3886 36.709L38.7019 41.4159L38.6312 41.6132H38.434H33.434V51.6132H38.434H42.1508C44.2619 51.6132 46.1455 50.2873 46.8577 48.2999L48.1157 44.7893ZM24.8206 39.5566L23.8859 36.7715L15.588 39.5566H24.8206ZM30.6317 41.6321V51.6132H25.6317H21.9149C19.7666 51.6132 17.8584 50.2408 17.1748 48.2042L15.9965 44.6936L14.969 41.6321H30.6317Z" fill="white"/>
</g>
</g>
</g>
<defs>
<clipPath id="clip0_4975_21498">
<rect width="64" height="64" fill="white"/>
</clipPath>
</defs>
</svg>
