<svg width="64" height="64" viewBox="0 0 64 64" fill="none" xmlns="http://www.w3.org/2000/svg">
<g clip-path="url(#clip0_4975_21483)">
<mask id="mask0_4975_21483" style="mask-type:luminance" maskUnits="userSpaceOnUse" x="0" y="0" width="64" height="64">
<path d="M64 0H0V64H64V0Z" fill="white"/>
</mask>
<g mask="url(#mask0_4975_21483)">
<path fill-rule="evenodd" clip-rule="evenodd" d="M32 3C15.9837 3 3 15.9837 3 32C3 48.0163 15.9837 61 32 61C48.0163 61 61 48.0163 61 32C61 15.9837 48.0163 3 32 3ZM0 32C0 14.3269 14.3269 0 32 0C49.6731 0 64 14.3269 64 32C64 49.6731 49.6731 64 32 64C14.3269 64 0 49.6731 0 32Z" fill="white"/>
<path d="M15.8882 23.0501C17.7742 23.0501 19.1764 23.4172 20.0949 24.1516C21.0133 24.8693 21.4725 25.9875 21.4725 27.5063V27.8067C21.4725 28.2239 21.4233 28.6245 21.3249 29.0083C21.2265 29.3922 21.0625 29.751 20.8329 30.0848C20.6197 30.4019 20.3327 30.6857 19.9719 30.936C19.6274 31.1697 19.1928 31.3533 18.668 31.4868C19.2092 31.5702 19.7013 31.7121 20.1441 31.9124C20.5869 32.1127 20.9641 32.388 21.2757 32.7385C21.6037 33.0723 21.8497 33.4812 22.0137 33.9652C22.1941 34.4325 22.2843 34.9917 22.2843 35.6426V36.0431C22.2843 37.5619 21.8251 38.7469 20.9067 39.5981C19.9883 40.4325 18.5696 40.8498 16.6508 40.8498H11.091C10.3038 40.8498 9.75442 40.6996 9.44281 40.3992C9.1476 40.0987 9 39.5563 9 38.7719V25.128C9 24.3435 9.1476 23.8011 9.44281 23.5007C9.75442 23.2003 10.3038 23.0501 11.091 23.0501H15.8882ZM12.1243 38.1961H14.9779C15.6668 38.1961 16.2654 38.1711 16.7738 38.121C17.2986 38.0709 17.725 37.9624 18.053 37.7955C18.3974 37.612 18.6516 37.3533 18.8156 37.0195C18.9796 36.6857 19.0616 36.2434 19.0616 35.6926V35.3672C19.0616 34.9499 18.996 34.5828 18.8648 34.2656C18.7336 33.9485 18.504 33.6898 18.176 33.4896C17.848 33.2893 17.4052 33.1391 16.8476 33.0389C16.29 32.9388 15.593 32.8887 14.7565 32.8887H12.1243V38.1961ZM12.1243 30.2851H14.6827C15.4043 30.2851 15.9948 30.2517 16.454 30.185C16.9296 30.1015 17.2986 29.968 17.561 29.7844C17.8398 29.6008 18.0284 29.3588 18.1268 29.0584C18.2252 28.758 18.2744 28.3741 18.2744 27.9068V27.6815C18.2744 26.8804 17.9792 26.3547 17.3888 26.1043C16.8148 25.8373 15.8636 25.7038 14.5351 25.7038H12.1243V30.2851Z" fill="white"/>
<path d="M30.2336 23.0501C31.2996 23.0501 32.2098 23.1836 32.9642 23.4506C33.735 23.701 34.3665 24.0598 34.8585 24.5271C35.3505 24.9777 35.7113 25.5202 35.9409 26.1544C36.1869 26.7886 36.3099 27.4729 36.3099 28.2072V28.5577C36.3099 29.2921 36.1869 29.993 35.9409 30.6606C35.6949 31.3115 35.3177 31.8873 34.8093 32.388C34.3009 32.872 33.6694 33.2643 32.915 33.5647C32.1606 33.8484 31.2668 33.9903 30.2336 33.9903H26.6911V39.6231C26.6911 40.1071 26.5353 40.4576 26.2237 40.6745C25.9121 40.8915 25.5431 41 25.1166 41C24.6902 41 24.3212 40.8915 24.0096 40.6745C23.698 40.4576 23.5422 40.1071 23.5422 39.6231V25.128C23.5422 24.3435 23.6898 23.8011 23.985 23.5007C24.2966 23.2003 24.846 23.0501 25.6333 23.0501H30.2336ZM26.6911 31.2865H29.8154C30.8486 31.2865 31.6604 31.0862 32.2508 30.6857C32.8412 30.2851 33.1364 29.5591 33.1364 28.5077V28.2323C33.1364 27.7316 33.0626 27.3227 32.915 27.0056C32.7674 26.6885 32.5542 26.4381 32.2754 26.2545C32.013 26.0542 31.6932 25.9207 31.316 25.854C30.9388 25.7705 30.5288 25.7288 30.086 25.7288H26.6911V31.2865Z" fill="white"/>
<path d="M40.0674 23C40.4282 23 40.7398 23.0334 41.0022 23.1001C41.2646 23.1502 41.4942 23.267 41.691 23.4506C41.9042 23.6175 42.101 23.8679 42.2814 24.2017C42.4782 24.5355 42.6914 24.9861 42.921 25.5535L46.2913 34.1154L49.514 25.5786C49.7108 25.0278 49.8994 24.5855 50.0798 24.2517C50.2766 23.9179 50.4816 23.6592 50.6948 23.4757C50.9244 23.2921 51.1704 23.1669 51.4328 23.1001C51.7116 23.0334 52.0314 23 52.3922 23H52.9089C53.6961 23 54.2373 23.1502 54.5325 23.4506C54.8441 23.751 54.9999 24.2935 54.9999 25.0779V39.6982C54.9999 40.1488 54.8523 40.4826 54.5571 40.6996C54.2619 40.8999 53.9093 41 53.4993 41C53.1221 41 52.7776 40.8999 52.466 40.6996C52.1708 40.4826 52.0232 40.1488 52.0232 39.6982V25.8039C51.8756 26.4381 51.7362 26.9638 51.605 27.3811C51.4738 27.7816 51.3426 28.1572 51.2114 28.5077L47.9641 36.644C47.7509 37.178 47.5213 37.5369 47.2753 37.7204C47.0457 37.8873 46.7177 37.9708 46.2913 37.9708C45.7829 37.9708 45.3975 37.879 45.1351 37.6954C44.8891 37.4951 44.6595 37.1196 44.4463 36.5688L41.2728 28.5077C41.1416 28.1739 41.0104 27.7983 40.8792 27.3811C40.748 26.9638 40.5922 26.4381 40.4118 25.8039V39.6982C40.4118 40.1488 40.256 40.4826 39.9443 40.6996C39.6491 40.8999 39.3047 41 38.9111 41C38.5339 41 38.1977 40.8999 37.9025 40.6996C37.6073 40.4826 37.4597 40.1488 37.4597 39.6982V25.0779C37.4597 24.2935 37.6073 23.751 37.9025 23.4506C38.2141 23.1502 38.7635 23 39.5507 23H40.0674Z" fill="white"/>
<path fill-rule="evenodd" clip-rule="evenodd" d="M32 9.5C32.8284 9.5 33.5 10.1716 33.5 11V19C33.5 19.8284 32.8284 20.5 32 20.5C31.1716 20.5 30.5 19.8284 30.5 19V11C30.5 10.1716 31.1716 9.5 32 9.5Z" fill="white"/>
<path fill-rule="evenodd" clip-rule="evenodd" d="M33.8388 9.64645C33.8388 9.64645 33.8388 9.64646 33.8388 9.64646L40.2028 16.0104C40.7885 16.5961 40.7886 17.5459 40.2028 18.1317C39.617 18.7175 38.6672 18.7175 38.0814 18.1317L32.071 12.1213L26.0607 18.1317C25.4749 18.7175 24.5251 18.7175 23.9393 18.1317C23.3536 17.5459 23.3536 16.5961 23.9393 16.0104L30.3032 9.64646C31.2795 8.67018 32.8625 8.67017 33.8388 9.64645ZM31.7174 11.7678L31.7174 11.7678C31.7174 11.7678 31.7174 11.7678 31.7174 11.7678Z" fill="white"/>
<path fill-rule="evenodd" clip-rule="evenodd" d="M32 43.5C32.8284 43.5 33.5 44.1716 33.5 45V53C33.5 53.8284 32.8284 54.5 32 54.5C31.1716 54.5 30.5 53.8284 30.5 53V45C30.5 44.1716 31.1716 43.5 32 43.5Z" fill="white"/>
<path fill-rule="evenodd" clip-rule="evenodd" d="M23.9393 46.0103C24.5251 45.4245 25.4749 45.4245 26.0607 46.0103L32.0711 52.0208L38.0814 46.0103C38.6672 45.4245 39.617 45.4245 40.2028 46.0103C40.7885 46.5961 40.7886 47.5458 40.2028 48.1316L33.8389 54.4956L33.8389 54.4956C32.8626 55.4719 31.2796 55.4719 30.3033 54.4956L23.9393 48.1316C23.3536 47.5459 23.3536 46.5961 23.9393 46.0103Z" fill="white"/>
</g>
</g>
<defs>
<clipPath id="clip0_4975_21483">
<rect width="64" height="64" fill="white"/>
</clipPath>
</defs>
</svg>
