<svg width="64" height="64" viewBox="0 0 64 64" fill="none" xmlns="http://www.w3.org/2000/svg">
<g clip-path="url(#clip0_4975_21503)">
<mask id="mask0_4975_21503" style="mask-type:luminance" maskUnits="userSpaceOnUse" x="0" y="0" width="64" height="64">
<path d="M64 0H0V64H64V0Z" fill="white"/>
</mask>
<g mask="url(#mask0_4975_21503)">
<path fill-rule="evenodd" clip-rule="evenodd" d="M32 3C15.9837 3 3 15.9837 3 32C3 48.0163 15.9837 61 32 61C48.0163 61 61 48.0163 61 32C61 15.9837 48.0163 3 32 3ZM0 32C0 14.3269 14.3269 0 32 0C49.6731 0 64 14.3269 64 32C64 49.6731 49.6731 64 32 64C14.3269 64 0 49.6731 0 32Z" fill="white"/>
<mask id="mask1_4975_21503" style="mask-type:alpha" maskUnits="userSpaceOnUse" x="0" y="0" width="64" height="64">
<path d="M32 64C49.6731 64 64 49.6731 64 32C64 14.3269 49.6731 0 32 0C14.3269 0 0 14.3269 0 32C0 49.6731 14.3269 64 32 64Z" fill="#D9D9D9"/>
</mask>
<g mask="url(#mask1_4975_21503)">
<path fill-rule="evenodd" clip-rule="evenodd" d="M24.6227 17C22.7068 17 20.9594 18.0947 20.1236 19.8186L17.9579 24.2854L15.7765 28.7845L24.7747 33.1472L26.956 28.6481L27.7551 27H29.7662H34.7662V17H29.7662H24.6227ZM43.1395 17H38.1395V27H40.0828L39.2473 28.6219L48.1371 33.2014L50.4269 28.7566L52.7279 24.2898C53.5264 22.7398 53.4598 20.8857 52.5521 19.397C51.6444 17.9083 50.0267 17 48.2831 17H43.1395ZM44.4441 40.3702L46.7339 35.9253L37.8441 31.3457L35.5544 35.7906L34.6495 37.5472H32.69H27.69V47.5472H32.69H37.6982C39.5703 47.5472 41.2857 46.5013 42.143 44.837L44.4441 40.3702ZM19.871 34L14.5084 31.4L13.2478 34H19.871Z" fill="white"/>
<path fill-rule="evenodd" clip-rule="evenodd" d="M38.4147 37.5472H37H27.8525H22.8525V47.5472H27.8525H29.604V40.0378H37.1357L38.4147 37.5472ZM44.5136 47.5472C44.5564 47.4734 44.5974 47.3983 44.6367 47.3218L49.6561 37.5472H50.8413V47.5472H45.8413H44.5136ZM6 37.5472H1V47.5472H6H15.1475H20.1475V37.5472H15.1475H6ZM58.1209 37.5472H53.1209V47.5472H58.1209H66.9623H71.9623V37.5472H66.9623H58.1209Z" fill="white"/>
</g>
</g>
</g>
<defs>
<clipPath id="clip0_4975_21503">
<rect width="64" height="64" fill="white"/>
</clipPath>
</defs>
</svg>
