<svg xmlns="http://www.w3.org/2000/svg" xmlns:xlink="http://www.w3.org/1999/xlink" width="512" height="512" viewBox="0 0 512 512">
  <defs>
    <clipPath id="clip-copyright">
      <rect width="512" height="512"/>
    </clipPath>
  </defs>
  <g id="copyright" clip-path="url(#clip-copyright)">
    <g id="그룹_350" data-name="그룹 350">
      <path id="제외_1" data-name="제외 1" d="M-19898-7426a257.878,257.878,0,0,1-51.592-5.2,254.685,254.685,0,0,1-48.053-14.917,256.008,256.008,0,0,1-43.484-23.6,257.856,257.856,0,0,1-37.889-31.26,257.71,257.71,0,0,1-31.26-37.887,256.009,256.009,0,0,1-23.6-43.485,254.791,254.791,0,0,1-14.92-48.055A257.939,257.939,0,0,1-20154-7682a257.951,257.951,0,0,1,5.2-51.593,254.787,254.787,0,0,1,14.92-48.054,256.009,256.009,0,0,1,23.6-43.485,257.736,257.736,0,0,1,31.26-37.887,257.856,257.856,0,0,1,37.889-31.26,255.951,255.951,0,0,1,43.484-23.6,254.685,254.685,0,0,1,48.053-14.917A257.878,257.878,0,0,1-19898-7938a257.9,257.9,0,0,1,51.594,5.2,254.685,254.685,0,0,1,48.053,14.917,256.026,256.026,0,0,1,43.486,23.6,257.807,257.807,0,0,1,37.887,31.26,257.736,257.736,0,0,1,31.26,37.887,255.9,255.9,0,0,1,23.6,43.485,254.637,254.637,0,0,1,14.92,48.054A257.944,257.944,0,0,1-19642-7682a257.939,257.939,0,0,1-5.2,51.593,254.642,254.642,0,0,1-14.92,48.055,255.9,255.9,0,0,1-23.6,43.485,257.736,257.736,0,0,1-31.26,37.887,257.807,257.807,0,0,1-37.887,31.26,256.008,256.008,0,0,1-43.486,23.6,254.685,254.685,0,0,1-48.053,14.917A257.9,257.9,0,0,1-19898-7426Zm.5-468c-117.174,0-212.5,95.328-212.5,212.5s95.328,212.5,212.5,212.5,212.5-95.328,212.5-212.5S-19780.326-7894-19897.5-7894Z" transform="translate(20154 7938)" fill="#fff"/>
      <path id="합치기_1" data-name="합치기 1" d="M-20036.621-7646.983a146.187,146.187,0,0,1-27.6-8.565,147.142,147.142,0,0,1-24.975-13.557,148.1,148.1,0,0,1-21.75-17.95,148.046,148.046,0,0,1-17.955-21.752,147.579,147.579,0,0,1-13.553-24.974,146.477,146.477,0,0,1-8.566-27.59A148.165,148.165,0,0,1-20154-7791a148.16,148.16,0,0,1,2.988-29.626,146.588,146.588,0,0,1,8.566-27.59,147.253,147.253,0,0,1,13.553-24.973,148.529,148.529,0,0,1,17.955-21.757,148.445,148.445,0,0,1,21.75-17.95,147.326,147.326,0,0,1,24.975-13.552,146.258,146.258,0,0,1,27.6-8.565A148.23,148.23,0,0,1-20007-7938a148.273,148.273,0,0,1,29.627,2.988,146.176,146.176,0,0,1,27.592,8.565,146.681,146.681,0,0,1,24.881,13.495,21.264,21.264,0,0,1,13.338,19.733,21.258,21.258,0,0,1-21.258,21.258,21.168,21.168,0,0,1-8.664-1.84c-.105.157-.207.315-.309.473q-1.526-1.222-3.09-2.383c-.326-.226-.65-.462-.963-.706a105.267,105.267,0,0,0-61.533-19.967,105.123,105.123,0,0,0-105,105,105.128,105.128,0,0,0,105,105.013,103.768,103.768,0,0,0,60.311-19.09,21.362,21.362,0,0,1,3.445-2.536c.211-.161.416-.321.625-.483.021.032.043.063.063.094a21.167,21.167,0,0,1,10.115-2.556,21.258,21.258,0,0,1,21.258,21.258,21.184,21.184,0,0,1-6.229,15.032c.086.1.168.2.252.3-2.355,1.812-4.8,3.574-7.273,5.244a146.569,146.569,0,0,1-24.969,13.557,146.1,146.1,0,0,1-27.592,8.565A148.024,148.024,0,0,1-20007-7644,147.966,147.966,0,0,1-20036.621-7646.983ZM-19860-7790.261v-1.88l0,1.144h0l0,.737Z" transform="translate(20263 8047)" fill="#fff"/>
    </g>
  </g>
</svg>
