<svg xmlns="http://www.w3.org/2000/svg" xmlns:xlink="http://www.w3.org/1999/xlink" width="512" height="512" viewBox="0 0 512 512">
  <defs>
    <clipPath id="clip-library">
      <rect width="512" height="512"/>
    </clipPath>
  </defs>
  <g id="library" clip-path="url(#clip-library)">
    <g id="Icon_ionic-md-bookmarks" data-name="Icon ionic-md-bookmarks" transform="translate(76.5 76.5)">
      <path id="패스_18" data-name="패스 18" d="M37.652,4.5H27.014c7.6,5.2,11.549,18.776,11.549,38.919V315.672c0,20.143-3.546,34-11.549,38.919H37.652c12.005,0,21.68-17.5,21.68-38.919V43.419C59.332,22,49.657,4.5,37.652,4.5Z" transform="translate(295.168 0)" fill="#fff"/>
      <path id="패스_19" data-name="패스 19" d="M283.829,4.682c-1.389-.091-2.778-.182-4.168-.182H46.871C23.552,4.5,4.5,22,4.5,43.419V315.672c0,21.419,19.052,38.919,42.371,38.919h232.89c1.389,0,2.778-.091,4.168-.182,21.334-1.914,38.2-18.594,38.2-38.737V43.419C322.032,23.276,305.164,6.6,283.829,4.682ZM147.39,179.5,91.821,150.333,36.253,179.5V33.667H147.39Z" transform="translate(0 0)" fill="#fff"/>
    </g>
  </g>
</svg>
