<svg xmlns="http://www.w3.org/2000/svg" xmlns:xlink="http://www.w3.org/1999/xlink" width="512" height="512" viewBox="0 0 512 512">
  <defs>
    <clipPath id="clip-planet_edit">
      <rect width="512" height="512"/>
    </clipPath>
  </defs>
  <g id="planet_edit" clip-path="url(#clip-planet_edit)">
    <g id="그룹_80" data-name="그룹 80" transform="matrix(0.914, 0.407, -0.407, 0.914, 116.737, -114.534)">
      <path id="패스_20" data-name="패스 20" d="M140.215,349a50.077,50.077,0,0,1-16.646-1.787,50.035,50.035,0,0,1-12-2.17,49.885,49.885,0,0,1-13.086-4.157A50.09,50.09,0,0,1,84.1,335.861a50.106,50.106,0,0,1-9.749-4.365,49.945,49.945,0,0,1-8.082-4.3,50.191,50.191,0,0,1-9.07-5.637A50.149,50.149,0,0,1,45,312.445a50.16,50.16,0,0,1-12.8-10.79,50.062,50.062,0,0,1-8.737-8.51,50.027,50.027,0,0,1-8.523-10.768,49.812,49.812,0,0,1,15.45-81.421,49.815,49.815,0,0,1,62.365,20.63A50.791,50.791,0,0,1,96.741,226a50,50,0,0,1,3.607,3.837,49.448,49.448,0,0,1,5.441,4.8,49.882,49.882,0,0,1,5.455,3.712q2.037,1.074,3.958,2.339c1.2.578,2.375,1.2,3.522,1.872q2.117.89,4.149,1.97A50.157,50.157,0,0,1,129,246.968a50.531,50.531,0,0,1,5.772,1.423,50.578,50.578,0,0,1,5.138,1.165,50.2,50.2,0,0,1,7.194.934,49.526,49.526,0,0,1,6.6.027c1.525-.16,3.059-.253,4.588-.271,1.315-.191,2.641-.329,3.967-.418q1.927-.383,3.881-.613a50.128,50.128,0,0,1,5.832-1.121,50.235,50.235,0,0,1,5.615-1.947,50.369,50.369,0,0,1,4.944-1.823,49.658,49.658,0,0,1,6.54-3.134,50.238,50.238,0,0,1,5.549-3.575c1.192-.96,2.428-1.876,3.7-2.725,1-.876,2.031-1.716,3.1-2.508a49.8,49.8,0,1,1,64.535,75.592,50.074,50.074,0,0,1-7.118,5.762,50.222,50.222,0,0,1-8.732,6.144,50.136,50.136,0,0,1-13.16,7.674,50.014,50.014,0,0,1-14.934,7.567,49.97,49.97,0,0,1-11.249,4.717,50.047,50.047,0,0,1-13.24,3.641,50.087,50.087,0,0,1-13.283,3.465,50.144,50.144,0,0,1-9.032,1.431,50.1,50.1,0,0,1-9.106.956,50.047,50.047,0,0,1-10.665.4A50.111,50.111,0,0,1,140.215,349Zm106.09-196.769a49.7,49.7,0,0,1-34.3-23.818,50.1,50.1,0,0,1-3.975-4.4,50.105,50.105,0,0,1-3.619-3.846,50.389,50.389,0,0,1-5.45-4.8,49.782,49.782,0,0,1-5.447-3.712q-2.033-1.074-3.953-2.334-1.8-.867-3.521-1.872-2.112-.887-4.14-1.965a50.157,50.157,0,0,1-6.14-2.45,49.877,49.877,0,0,1-5.754-1.422,49.9,49.9,0,0,1-5.152-1.165,50.365,50.365,0,0,1-7.2-.934,50.221,50.221,0,0,1-6.593-.027q-2.289.24-4.585.271-1.973.287-3.965.418-1.929.383-3.879.613a50.1,50.1,0,0,1-5.842,1.121,50.839,50.839,0,0,1-5.6,1.943,50.445,50.445,0,0,1-4.954,1.827,49.733,49.733,0,0,1-6.547,3.139,50,50,0,0,1-5.55,3.57c-1.187.965-2.423,1.872-3.695,2.725q-1.5,1.314-3.1,2.508a49.675,49.675,0,0,1-34.71,14.134q-1.321,0-2.655-.071a49.8,49.8,0,0,1-27.174-89.65,49.969,49.969,0,0,1,7.119-5.767,50.171,50.171,0,0,1,8.726-6.14,50.118,50.118,0,0,1,13.165-7.678,50.009,50.009,0,0,1,14.948-7.572,49.987,49.987,0,0,1,11.218-4.708,50.131,50.131,0,0,1,13.259-3.65,50.087,50.087,0,0,1,13.294-3.465,50.091,50.091,0,0,1,9.011-1.426,50.19,50.19,0,0,1,9.11-.956,50.046,50.046,0,0,1,10.666-.4A50.147,50.147,0,0,1,164.552,1a50.171,50.171,0,0,1,16.66,1.787,50.022,50.022,0,0,1,11.973,2.165,49.878,49.878,0,0,1,13.1,4.162,50.067,50.067,0,0,1,14.4,5.029,50.141,50.141,0,0,1,9.724,4.357,50.312,50.312,0,0,1,8.087,4.3,50.07,50.07,0,0,1,9.063,5.633,50.03,50.03,0,0,1,12.208,9.119,49.976,49.976,0,0,1,12.812,10.8,49.81,49.81,0,0,1,8.715,8.487,49.951,49.951,0,0,1,8.541,10.777,49.793,49.793,0,0,1-43.528,84.608Z" transform="translate(430.668 456.7) rotate(-180)" fill="#fff" opacity="0.35"/>
      <circle id="타원_11" data-name="타원 11" cx="49.805" cy="49.805" r="49.805" transform="translate(409.206 427.098) rotate(-177)" fill="#fff"/>
      <circle id="타원_12" data-name="타원 12" cx="49.805" cy="49.805" r="49.805" transform="translate(241.635 240.989) rotate(-177)" fill="#fff"/>
    </g>
  </g>
</svg>
