<svg xmlns="http://www.w3.org/2000/svg" xmlns:xlink="http://www.w3.org/1999/xlink" width="512" height="512" viewBox="0 0 512 512">
  <defs>
    <clipPath id="clip-text_edit">
      <rect width="512" height="512"/>
    </clipPath>
  </defs>
  <g id="text_edit" clip-path="url(#clip-text_edit)">
    <path id="패스_12" data-name="패스 12" d="M0,30H350V88.333H0Z" transform="translate(80.998 354.792)" fill="rgba(255,255,255,0.36)"/>
    <path id="교차_1" data-name="교차 1" d="M-20441.6-3342.156l55.6-55.6v28.9l-26.7,26.7Zm-78.648,0,58.334-58.332h28.873l-58.365,58.332Zm-49.6-29.148,29.186-29.184h28.9l-58.088,58.088Z" transform="translate(20817 3785.281)" fill="rgba(255,255,255,0.36)"/>
    <path id="패스_15" data-name="패스 15" d="M219.024-27.378a23.619,23.619,0,0,1,1.755,8.424q0,9.126-5.967,14.918a19.1,19.1,0,0,1-13.689,5.792,18.407,18.407,0,0,1-11.407-3.861,25.092,25.092,0,0,1-7.9-10.53L163.566-55.107H58.968L40.716-12.285A21.593,21.593,0,0,1,33.17-1.931,18.464,18.464,0,0,1,22.113,1.755q-9.126,0-13.865-4.914T3.51-16.5a23.221,23.221,0,0,1,1.053-6.669l87.4-209.9a23.293,23.293,0,0,1,8.424-10.881,18.388,18.388,0,0,1,12.636-3.159,20.56,20.56,0,0,1,11.758,3.686,20.792,20.792,0,0,1,7.9,10.355ZM76.167-95.472h70.2l-35.451-82.134Z" transform="translate(144 351)" fill="#fff"/>
  </g>
</svg>
