<svg width="128" height="128" viewBox="0 0 128 128" fill="none" xmlns="http://www.w3.org/2000/svg">
<circle cx="64" cy="64" r="64" fill="#FF6FFF"/>
<path d="M18.1197 46.4545L18.9378 41.4545H53.8469L53.0288 46.4545H38.3924L31.4833 88H25.8469L32.756 46.4545H18.1197ZM47.0513 88L52.8694 53.0909H58.2331L52.4149 88H47.0513ZM57.1876 47.1818C56.1422 47.1818 55.2406 46.8258 54.4831 46.1136C53.7406 45.4015 53.3694 44.5455 53.3694 43.5455C53.3694 42.5455 53.7406 41.6894 54.4831 40.9773C55.2406 40.2651 56.1422 39.9091 57.1876 39.9091C58.2331 39.9091 59.127 40.2651 59.8694 40.9773C60.627 41.6894 61.0058 42.5455 61.0058 43.5455C61.0058 44.5455 60.627 45.4015 59.8694 46.1136C59.127 46.8258 58.2331 47.1818 57.1876 47.1818ZM64.0169 67L60.5624 88H55.1987L61.0169 53.0909H66.1987L65.2897 58.5455H65.7442C66.8351 56.7727 68.3124 55.3485 70.176 54.2727C72.0397 53.1818 74.2897 52.6364 76.926 52.6364C79.2594 52.6364 81.2291 53.1212 82.8351 54.0909C84.4563 55.0455 85.6003 56.5 86.2669 58.4545C86.9488 60.3939 87.0472 62.8485 86.5624 65.8182L82.8351 88H77.4715L81.1078 66.1818C81.5624 63.4545 81.2063 61.3182 80.0397 59.7727C78.8881 58.2273 77.0624 57.4545 74.5624 57.4545C72.8351 57.4545 71.2366 57.8258 69.7669 58.5682C68.3124 59.3106 67.0775 60.3939 66.0624 61.8182C65.0624 63.2424 64.3806 64.9697 64.0169 67ZM85.6644 101.091C84.7553 101.091 83.9523 101.015 83.2553 100.864C82.5735 100.727 82.1038 100.591 81.8463 100.455L84.0281 95.7273C85.2705 96.0606 86.3766 96.1591 87.3463 96.0227C88.3311 95.9015 89.2629 95.4242 90.1417 94.5909C91.0356 93.7727 91.9675 92.4848 92.9372 90.7273L94.4372 88L87.4372 53.0909H93.0281L98.0281 81H98.3917L112.664 53.0909H118.71L97.3008 93.0455C96.3008 94.9091 95.2023 96.4318 94.0053 97.6136C92.8084 98.7955 91.5129 99.6667 90.119 100.227C88.725 100.803 87.2402 101.091 85.6644 101.091Z" fill="white"/>
</svg>
