<svg width="128" height="128" viewBox="0 0 128 128" fill="none" xmlns="http://www.w3.org/2000/svg">
<circle cx="64" cy="64" r="64" fill="#CCCCCC"/>
<path d="M57.2316 77.4091L57.3538 76.6761C58.0257 72.8688 58.9419 69.8352 60.1024 67.5753C61.2832 65.3153 62.6982 63.4931 64.3474 62.1087C66.0169 60.7038 67.9205 59.411 70.0583 58.2301C71.3614 57.4972 72.5728 56.6319 73.6926 55.6342C74.8327 54.6162 75.7896 53.4557 76.5633 52.1527C77.3573 50.8293 77.8765 49.3532 78.1208 47.7244C78.4466 45.7292 78.2735 43.9986 77.6017 42.5327C76.9298 41.0668 75.8812 39.9368 74.4561 39.1428C73.0309 38.3487 71.3614 37.9517 69.4475 37.9517C67.778 37.9517 66.0983 38.2978 64.4085 38.9901C62.739 39.6823 61.2527 40.7715 59.9497 42.2578C58.667 43.7441 57.761 45.6884 57.2316 48.0909H49.5356C50.2686 44.6297 51.653 41.6674 53.689 39.2038C55.7454 36.7403 58.2191 34.857 61.1102 33.554C64.0216 32.2509 67.1265 31.5994 70.4248 31.5994C74.0081 31.5994 77.0112 32.312 79.434 33.7372C81.8569 35.1624 83.5976 37.1169 84.6563 39.6008C85.7151 42.0848 85.9797 44.9148 85.4504 48.0909C85.0839 50.3305 84.4018 52.3563 83.4042 54.1683C82.4269 55.9803 81.1748 57.599 79.6478 59.0241C78.1412 60.4493 76.4106 61.6913 74.4561 62.75C72.5015 63.8494 70.8829 65.0099 69.6002 66.2315C68.3176 67.4328 67.2894 68.8681 66.5157 70.5376C65.742 72.1868 65.1312 74.233 64.6833 76.6761L64.5612 77.4091H57.2316ZM59.064 95.4886C57.5167 95.4886 56.2238 94.9593 55.1855 93.9006C54.1471 92.8215 53.6076 91.5185 53.5669 89.9915C53.5465 88.4645 54.086 87.192 55.1855 86.174C56.2849 85.1357 57.5777 84.6165 59.064 84.6165C60.5706 84.6165 61.8737 85.1458 62.9731 86.2045C64.0725 87.2633 64.6019 88.5256 64.5612 89.9915C64.5408 91.0095 64.2761 91.9358 63.7671 92.7706C63.2785 93.6054 62.6168 94.267 61.782 94.7557C60.9677 95.2443 60.0616 95.4886 59.064 95.4886Z" fill="black"/>
</svg>
