<svg width="128" height="128" viewBox="0 0 128 128" fill="none" xmlns="http://www.w3.org/2000/svg">
<circle cx="64" cy="64" r="64" fill="#FFFF00"/>
<path d="M57.2342 32.4545L46.8507 95H39.2768L48.3166 40.3949H47.9501L30.97 50.5341L32.3138 42.8381L49.6604 32.4545H57.2342ZM74.797 95.8551C70.1957 95.8551 66.4902 94.603 63.6806 92.0987C60.8709 89.5741 59.0181 85.9195 58.1223 81.1349C57.2265 76.33 57.3283 70.5275 58.4277 63.7273C59.5271 56.9678 61.329 51.1958 63.8333 46.4112C66.3375 41.6063 69.422 37.9415 73.0868 35.4169C76.7516 32.8719 80.8643 31.5994 85.4249 31.5994C89.9855 31.5994 93.6808 32.8719 96.5108 35.4169C99.3612 37.9619 101.255 41.6267 102.191 46.4112C103.148 51.1958 103.057 56.9678 101.916 63.7273C100.776 70.5275 98.954 76.3198 96.4497 81.1044C93.9455 85.889 90.861 89.5436 87.1962 92.0682C83.5314 94.5928 79.3984 95.8551 74.797 95.8551ZM75.8965 89.1364C80.4774 89.1364 84.3967 86.9375 87.6543 82.5398C90.9322 78.1217 93.2431 71.8509 94.5868 63.7273C95.4826 58.3116 95.6659 53.7 95.1365 49.8928C94.6072 46.0855 93.4263 43.1842 91.5939 41.1889C89.7615 39.1937 87.3387 38.196 84.3254 38.196C79.8056 38.196 75.9168 40.4254 72.6592 44.8842C69.4017 49.3227 67.101 55.6037 65.7573 63.7273C64.8614 69.143 64.668 73.7443 65.177 77.5312C65.686 81.3182 66.8465 84.1991 68.6585 86.174C70.4706 88.1489 72.8832 89.1364 75.8965 89.1364Z" fill="black"/>
</svg>
