<svg xmlns="http://www.w3.org/2000/svg" xmlns:xlink="http://www.w3.org/1999/xlink" width="175" height="175" viewBox="0 0 175 175"><defs><clipPath id="b"><rect width="175" height="175"/></clipPath></defs><g id="a" clip-path="url(#b)"><circle cx="87.5" cy="87.5" r="87.5" fill="#4c1130"/><path d="M119-134.2c0,1.6-15.3,87.1-16.5,91.9-.5,2.1-1.1,2.3-7.6,2.3-6.2,0-7-.2-6.5-1.8.5-1.7,13.6-73.6,13.6-74.7,0-.3-2.6-.5-5.9-.5H90.3l.8-4.3c.4-2.3.8-4.5.9-4.9,0-.3,1.8-.9,4-1.3,4.4-.8,8.6-3.6,9.5-6.5.5-1.7,1.5-2,7.1-2C118-136,119-135.7,119-134.2ZM84.6-91.3c-.2,1-.8,3.7-1.1,6L82.8-81H46.7l.7-5.2a32.681,32.681,0,0,1,1.2-6c.3-.4,8.6-.8,18.5-.8C83.8-93,85.1-92.9,84.6-91.3Z" transform="translate(4.65 175.5)" fill="#fff"/></g></svg>