<svg xmlns="http://www.w3.org/2000/svg" xmlns:xlink="http://www.w3.org/1999/xlink" width="175" height="175" viewBox="0 0 175 175">
  <defs>
    <clipPath id="clip-_11">
      <rect width="175" height="175"/>
    </clipPath>
  </defs>
  <g id="_11" data-name="11" clip-path="url(#clip-_11)">
    <circle id="楕円形_90" data-name="楕円形 90" cx="87.5" cy="87.5" r="87.5" fill="#fd0"/>
    <path id="パス_81" data-name="パス 81" d="M73.8-128.1c-1.1,2.1-2.9,3.3-6,4.2-5.4,1.5-5.4,1.6-6.2,6.1l-.7,3.8H66c4.1,0,5,.3,5,1.8,0,1.6-10.2,59.3-11.5,64.9-.5,2.2-.3,2.3,6,2.3,3.6,0,6.5-.2,6.5-.5s3.4-19.1,7.5-41.8C83.6-109.9,87-129,87-129.7c0-.9-1.7-1.3-5.7-1.3C75.9-131,75.4-130.8,73.8-128.1Z" transform="translate(0.535 175.5)"/>
    <path id="パス_82" data-name="パス 82" d="M101.1-128a11.526,11.526,0,0,1-6.6,4.2c-4.4,1.2-5.5,2.6-5.5,7.5,0,2.1.5,2.3,5,2.3,2.8,0,5,.1,5,.3,0,.1-2.7,15.1-6,33.2s-6,33.6-6,34.3c0,1,1.6,1.2,6.2,1l6.2-.3,7.2-40c4-22,7.5-41.2,7.8-42.8.5-2.7.5-2.7-5.2-2.7C103.9-131,103.2-130.7,101.1-128Z" transform="translate(0.535 175.5)"/>
  </g>
</svg>
