<svg xmlns="http://www.w3.org/2000/svg" xmlns:xlink="http://www.w3.org/1999/xlink" width="175" height="175" viewBox="0 0 175 175">
  <defs>
    <clipPath id="clip-_12">
      <rect width="175" height="175"/>
    </clipPath>
  </defs>
  <g id="_12" data-name="12" clip-path="url(#clip-_12)">
    <circle id="楕円形_90" data-name="楕円形 90" cx="87.5" cy="87.5" r="87.5" fill="#fc0"/>
    <g id="_12-2" data-name="12" transform="translate(-1.43 175.384)">
      <path id="パス_108" data-name="パス 108" d="M97.2-130.2c-8.7,3.1-13.4,8.7-15.8,18.9L80.2-106H92.9l.7-3.8c.9-5,3-8.9,5.5-10.3,3.5-1.8,10.6-1.5,13,.7,1.9,1.7,2.1,2.6,1.5,7.7a28.674,28.674,0,0,1-2,8.5c-1.9,3.5-8.7,10-21.2,20C80.1-75,76-70.8,73.5-66.1,72.3-63.6,69-48.7,69-45.4c0,1.2,4,1.4,22.9,1.4h22.8l1-5c.6-2.7.8-5.2.5-5.5s-7.7-.5-16.5-.5h-16l.6-3.4c.9-5.5,3.2-8.1,18.8-21.2,16.2-13.6,20.1-18.3,22.4-27,3-11.6,1.1-18.4-6.3-22.7C114.3-132.2,103.9-132.6,97.2-130.2Z"/>
      <path id="パス_109" data-name="パス 109" d="M66-127.6c-1.2,2.4-7.3,5.6-10.5,5.6a1.453,1.453,0,0,0-1.5,1.4,40.412,40.412,0,0,1-.6,4.5l-.6,3.1h5.1c3.4,0,5.1.4,5.1,1.3,0,.7-2.7,16.1-6,34.2s-6,33.1-6,33.2c0,.2,2.9.3,6.5.3s6.5-.4,6.5-.8,3.4-19.3,7.5-41.9C75.6-109.4,79-128.4,79-129s-2.4-1-5.8-1C68-130,67.2-129.7,66-127.6Z"/>
    </g>
  </g>
</svg>
