<svg width="128" height="128" viewBox="0 0 128 128" fill="none" xmlns="http://www.w3.org/2000/svg">
<circle cx="64" cy="64" r="64" fill="#FFCC00"/>
<path d="M53.0741 32.4545L42.6905 95H35.1167L44.1564 40.3949H43.79L26.8099 50.5341L28.1536 42.8381L45.5002 32.4545H53.0741ZM50.3585 95L51.3357 89.5028L75.6454 66.9034C78.4958 64.2566 80.8677 61.9458 82.7612 59.9709C84.675 57.996 86.1613 56.1432 87.22 54.4126C88.299 52.6821 89.0015 50.8598 89.3272 48.946C89.6937 46.7472 89.5003 44.8435 88.747 43.2351C87.9936 41.6267 86.8026 40.3847 85.1738 39.5092C83.545 38.6338 81.5905 38.196 79.3102 38.196C76.9077 38.196 74.719 38.6948 72.7441 39.6925C70.7692 40.6697 69.1302 42.0542 67.8272 43.8459C66.5242 45.6172 65.6691 47.6837 65.2619 50.0455H58.0545C58.6653 46.3807 60.0599 43.1638 62.2384 40.3949C64.4373 37.6259 67.135 35.4678 70.3315 33.9205C73.5483 32.3731 76.9891 31.5994 80.6539 31.5994C84.3187 31.5994 87.4236 32.3731 89.9686 33.9205C92.5135 35.4678 94.3561 37.5547 95.4963 40.1811C96.6364 42.8075 96.9418 45.7292 96.4124 48.946C96.0052 51.267 95.201 53.5168 93.9998 55.6953C92.7986 57.8738 90.956 60.3068 88.4721 62.9943C86.0086 65.6615 82.6695 68.919 78.4551 72.767L61.9636 87.7926L61.8414 88.2812H90.9153L89.8159 95H50.3585Z" fill="black"/>
</svg>
