<svg width="128" height="128" viewBox="0 0 128 128" fill="none" xmlns="http://www.w3.org/2000/svg">
<circle cx="64" cy="64" r="64" fill="#FFAA00"/>
<path d="M52.2303 32.4545L41.8468 95H34.2729L43.3127 40.3949H42.9462L25.9661 50.5341L27.3099 42.8381L44.6564 32.4545H52.2303ZM70.8926 95.8551C66.8206 95.8551 63.2882 95.1731 60.2953 93.8089C57.3227 92.4245 55.1035 90.5005 53.6376 88.0369C52.1717 85.553 51.6525 82.6619 52.0801 79.3636H59.6539C59.4707 81.3589 59.8168 83.0895 60.6923 84.5554C61.5881 86.0213 62.9115 87.1513 64.6624 87.9453C66.4338 88.7393 68.5512 89.1364 71.0147 89.1364C73.6411 89.1364 76.1047 88.6783 78.4053 87.7621C80.7264 86.8459 82.6707 85.5225 84.2384 83.7919C85.8061 82.041 86.7732 79.9541 87.1397 77.5312C87.4655 75.3527 87.2212 73.4186 86.4068 71.7287C85.5924 70.0388 84.1875 68.7154 82.1923 67.7585C80.2174 66.7812 77.6317 66.2926 74.4352 66.2926H69.3045L70.4039 59.5739H75.1681C77.652 59.5739 79.9323 59.1056 82.009 58.169C84.0857 57.2325 85.8163 55.9193 87.2008 54.2294C88.5853 52.5192 89.4607 50.5137 89.8272 48.2131C90.1733 46.1974 90.0308 44.4465 89.3997 42.9602C88.7889 41.4536 87.7302 40.2829 86.2235 39.4481C84.7373 38.6134 82.8438 38.196 80.5431 38.196C78.3443 38.196 76.1861 38.593 74.0687 39.3871C71.9716 40.1607 70.18 41.2907 68.6937 42.777C67.2074 44.2429 66.2709 46.0142 65.884 48.0909H58.5545C59.1856 44.8333 60.6007 41.9728 62.7995 39.5092C64.9984 37.0253 67.6757 35.0911 70.8315 33.7067C74.0076 32.3018 77.367 31.5994 80.9096 31.5994C84.8391 31.5994 88.0763 32.4138 90.6213 34.0426C93.1866 35.651 95.019 37.7685 96.1184 40.3949C97.2178 43.0009 97.5232 45.8106 97.0346 48.8239C96.4849 52.2647 95.0699 55.1761 92.7896 57.5582C90.5093 59.9403 87.7302 61.6302 84.4522 62.6278V62.9943C88.3002 63.6662 91.0895 65.4375 92.8201 68.3082C94.5711 71.1586 95.1208 74.5587 94.4693 78.5085C93.8992 82.0511 92.5249 85.1255 90.3464 87.7315C88.1679 90.3172 85.4091 92.3227 82.0701 93.7479C78.7311 95.1527 75.0052 95.8551 70.8926 95.8551Z" fill="black"/>
</svg>
