<svg xmlns="http://www.w3.org/2000/svg" xmlns:xlink="http://www.w3.org/1999/xlink" width="175" height="175" viewBox="0 0 175 175">
  <defs>
    <clipPath id="clip-_14">
      <rect width="175" height="175"/>
    </clipPath>
  </defs>
  <g id="_14" data-name="14" clip-path="url(#clip-_14)">
    <circle id="楕円形_90" data-name="楕円形 90" cx="87.5" cy="87.5" r="87.5" fill="#f80"/>
    <g id="_14-2" data-name="14" transform="translate(-1.5 175.493)">
      <path id="パス_112" data-name="パス 112" d="M65.2-128a11.193,11.193,0,0,1-6.7,4.1c-4.6,1.2-5,1.7-5.7,7.9-.3,2.4,0,2.5,5,2.8,4.4.3,5.2.6,4.8,2C61.8-108.5,51-48.3,51-46.6c0,1.3,1.3,1.6,6.3,1.6h6.3l7.3-40.3c4-22.1,7.5-41.4,7.8-43l.5-2.7H73.3C67.9-131,67.2-130.7,65.2-128Z"/>
      <path id="パス_113" data-name="パス 113" d="M106.7-127.3c-1.3,2.1-10,16.2-19.5,31.3C72.5-72.4,70-67.8,69.4-63.3L68.7-58H85.5c14.4,0,16.6.2,16.1,1.5a52.273,52.273,0,0,0-1.2,6.5l-.7,5h6.1c6.7,0,6.1.8,7.8-9.3.6-3.5.8-3.7,4.5-3.7,3.6,0,3.8-.2,4.4-3.8.4-2,.9-4.5,1.1-5.4.4-1.3-.3-1.7-3.4-2l-3.8-.3,5.3-29c2.9-16,5.3-29.8,5.3-30.8,0-1.5-1.1-1.7-9-1.7h-9ZM108-91.9c-2.2,11.7-4,21.7-4,22.1,0,.5-4.5.8-10.1.8s-9.9-.4-9.7-.9c.6-1.6,27.2-44,27.5-43.8C111.8-113.5,110.2-103.7,108-91.9Z"/>
    </g>
  </g>
</svg>
