<svg width="128" height="128" viewBox="0 0 128 128" fill="none" xmlns="http://www.w3.org/2000/svg">
<circle cx="64" cy="64" r="64" fill="#FF4400"/>
<path d="M52.2762 32.4545L41.8927 95H34.3188L43.3586 40.3949H42.9921L26.012 50.5341L27.3558 42.8381L44.7023 32.4545H52.2762ZM70.6941 95.8551C68.0677 95.8348 65.5227 95.3359 63.0592 94.3587C60.5957 93.3814 58.468 91.7628 56.6764 89.5028C54.8847 87.2225 53.6529 84.138 52.9811 80.2493C52.3296 76.3606 52.4924 71.5047 53.4697 65.6818C54.3859 60.205 55.6991 55.3594 57.4093 51.1449C59.1399 46.91 61.2064 43.3471 63.6089 40.456C66.0114 37.5445 68.7091 35.3456 71.702 33.8594C74.7152 32.3527 77.9626 31.5994 81.4441 31.5994C84.9053 31.5994 87.9084 32.3018 90.4534 33.7067C93.0187 35.0911 94.9936 37.0253 96.3781 39.5092C97.7829 41.9728 98.465 44.8333 98.4243 48.0909H91.2169C91.1151 45.2405 90.2498 42.8991 88.621 41.0668C87.0126 39.2344 84.5388 38.3182 81.1998 38.3182C76.3542 38.3182 72.1193 40.3847 68.4953 44.5178C64.8712 48.6508 62.3873 54.6875 61.0436 62.6278L61.5322 62.1392C62.9574 60.429 64.5353 58.9732 66.2659 57.772C67.9965 56.5708 69.839 55.6546 71.7936 55.0234C73.7685 54.3923 75.8045 54.0767 77.9015 54.0767C81.5663 54.0767 84.773 54.9929 87.5216 56.8253C90.2701 58.6577 92.2959 61.1721 93.599 64.3686C94.902 67.5651 95.2074 71.2197 94.5152 75.3324C93.8636 79.1193 92.4385 82.5805 90.2396 85.7159C88.0611 88.831 85.2921 91.3149 81.9328 93.1676C78.5938 95 74.8475 95.8958 70.6941 95.8551ZM70.9385 89.1364C73.5445 89.1364 76.0081 88.4747 78.3291 87.1513C80.6501 85.8279 82.6148 84.0464 84.2233 81.8068C85.8317 79.5672 86.8599 77.0833 87.3078 74.3551C87.715 71.8712 87.5317 69.6011 86.7581 67.5447C85.9844 65.4884 84.7323 63.8494 83.0017 62.6278C81.2711 61.4062 79.1638 60.7955 76.6799 60.7955C74.705 60.7955 72.781 61.1925 70.9079 61.9865C69.0552 62.7805 67.3653 63.8698 65.8383 65.2543C64.3317 66.6184 63.0694 68.1759 62.0514 69.9268C61.0334 71.6778 60.3717 73.5204 60.0663 75.4545C59.6591 77.857 59.8423 80.0966 60.616 82.1733C61.3897 84.25 62.6622 85.9297 64.4335 87.2124C66.2048 88.495 68.3731 89.1364 70.9385 89.1364Z" fill="white"/>
</svg>
