<svg xmlns="http://www.w3.org/2000/svg" xmlns:xlink="http://www.w3.org/1999/xlink" width="175" height="175" viewBox="0 0 175 175">
  <defs>
    <clipPath id="clip-_16">
      <rect width="175" height="175"/>
    </clipPath>
  </defs>
  <g id="_16" data-name="16" clip-path="url(#clip-_16)">
    <circle id="楕円形_90" data-name="楕円形 90" cx="87.5" cy="87.5" r="87.5" fill="#f40"/>
    <path id="パス_120" data-name="パス 120" d="M99.8-131.6a37.912,37.912,0,0,0-8.7,3.9c-7.2,4.8-8.4,8.2-14.1,39.7-2.9,15.8-5,29.9-4.7,31.7,1.4,8.1,8.2,12.6,19.2,12.7a44.442,44.442,0,0,0,10.9-1.3c4.5-1.6,11.1-7.2,13.3-11.4,2.2-4.3,5.3-20.8,5.3-28.2,0-5.4-.4-6.8-2.6-9.4-4.6-5.5-14.5-6.6-23.2-2.6-4.6,2.1-5.3,2.2-4.8.7.3-.9,1.2-5.7,2.1-10.6,1.9-10.6,2.6-12.1,6.8-14.6,4.3-2.6,9.7-2.6,13.2.2,2.5,1.9,2.7,2.6,2.3,7l-.5,4.9,6.1-.3,6.1-.3.3-6.7c.3-6.2.1-6.9-2.9-10.2C118.8-132.2,109.6-134.2,99.8-131.6ZM107-87c2.4,2.4,2.5,4.6.4,16.4-2.1,11.2-3.6,14.4-7.9,16.2-6.4,2.6-13.6.8-14.9-3.8-.3-1.3.4-7.4,1.5-13.5,2-10.4,2.4-11.5,5.5-14.3,2.9-2.5,4.3-3,8.4-3C103.7-89,105.5-88.5,107-87Z" transform="translate(-0.951 175.66)"/>
    <path id="パス_121" data-name="パス 121" d="M64.1-128a11.526,11.526,0,0,1-6.6,4.2c-4.4,1.2-5.5,2.6-5.5,7.5,0,2.1.5,2.3,5,2.3,2.8,0,5,.1,5,.3,0,.1-2.7,15.1-6,33.2S50-47,50-46.3c0,.9,1.8,1.3,5.9,1.3h6l1-5.3C65.5-63.2,77-127.6,77-129.2c0-1.5-.9-1.8-5.3-1.8C66.9-131,66.1-130.7,64.1-128Z" transform="translate(-0.951 175.66)"/>
  </g>
</svg>
