<svg width="128" height="128" viewBox="0 0 128 128" fill="none" xmlns="http://www.w3.org/2000/svg">
<circle cx="64" cy="64" r="64" fill="#A61C00"/>
<path d="M43.3549 36.7273L34.1788 92H27.4856L35.4742 43.7443H35.1504L20.1447 52.7045L21.3322 45.9034L36.6617 36.7273H43.3549ZM58.9835 92.7557C55.2051 92.7557 51.9755 92.063 49.2946 90.6776C46.6317 89.2741 44.6795 87.3759 43.438 84.983C42.2146 82.59 41.8547 79.8911 42.3585 76.8864C42.7363 74.6193 43.546 72.5232 44.7875 70.598C46.029 68.6728 47.5403 67.0625 49.3216 65.767C51.1208 64.4716 53.046 63.6439 55.0971 63.2841V63.0682C52.5602 62.3665 50.734 60.8101 49.6184 58.3991C48.5209 55.9702 48.26 53.2443 48.8358 50.2216C49.3755 47.4328 50.5181 44.9678 52.2633 42.8267C54.0086 40.6856 56.1947 39.0123 58.8216 37.8068C61.4485 36.5833 64.3452 35.9716 67.5119 35.9716C70.7865 35.9716 73.6113 36.6373 75.9863 37.9688C78.3613 39.2822 80.1066 41.0814 81.2221 43.3665C82.3557 45.6335 82.6795 48.2064 82.1937 51.0852C81.672 54.1619 80.3855 56.7708 78.3344 58.9119C76.2832 61.035 73.9352 62.4205 71.2903 63.0682V63.2841C73.2335 63.6799 74.9158 64.5705 76.3372 65.956C77.7766 67.3414 78.8202 69.0597 79.4679 71.1108C80.1156 73.1439 80.2326 75.357 79.8187 77.75C79.3329 80.6828 78.1184 83.2827 76.1753 85.5497C74.2321 87.7988 71.7761 89.562 68.8074 90.8395C65.8566 92.117 62.582 92.7557 58.9835 92.7557ZM59.1994 86.8182C61.8083 86.8182 64.1203 86.3954 66.1355 85.5497C68.1506 84.6861 69.788 83.4896 71.0474 81.9602C72.3249 80.4129 73.1256 78.6136 73.4494 76.5625C73.7733 74.5114 73.5484 72.7211 72.7747 71.1918C72.001 69.6444 70.7955 68.4479 69.1582 67.6023C67.5209 66.7386 65.5687 66.3068 63.3017 66.3068C60.8907 66.3068 58.6596 66.7836 56.6085 67.7372C54.5574 68.6908 52.8481 70.0043 51.4807 71.6776C50.1312 73.3509 49.2856 75.267 48.9437 77.4261C48.6379 79.3513 48.8448 81.0246 49.5645 82.446C50.2842 83.8494 51.4627 84.929 53.1 85.6847C54.7373 86.4403 56.7704 86.8182 59.1994 86.8182ZM63.5176 60.5852C65.6227 60.5852 67.5389 60.1624 69.2662 59.3168C71.0114 58.4711 72.4508 57.3016 73.5844 55.8082C74.7359 54.3149 75.4826 52.5966 75.8244 50.6534C76.1663 48.7822 76.0313 47.1899 75.4196 45.8764C74.8258 44.545 73.8452 43.5374 72.4778 42.8537C71.1104 42.152 69.4191 41.8011 67.404 41.8011C65.2269 41.8011 63.2657 42.206 61.5204 43.0156C59.7932 43.8253 58.3718 44.9588 57.2562 46.4162C56.1407 47.8736 55.421 49.5739 55.0971 51.517C54.7913 53.4062 54.9532 55.0346 55.5829 56.402C56.2127 57.7514 57.2113 58.786 58.5787 59.5057C59.9641 60.2254 61.6104 60.5852 63.5176 60.5852Z" fill="white"/>
<path d="M95.0881 78.8182L100.043 48.8182H105.179L100.224 78.8182H95.0881ZM84.679 66.3636L85.5426 61.2727H115.543L114.679 66.3636H84.679Z" fill="white"/>
</svg>
