<svg xmlns="http://www.w3.org/2000/svg" xmlns:xlink="http://www.w3.org/1999/xlink" width="175" height="175" viewBox="0 0 175 175">
  <defs>
    <clipPath id="clip-_18">
      <rect width="175" height="175"/>
    </clipPath>
  </defs>
  <g id="_18" data-name="18" clip-path="url(#clip-_18)">
    <circle id="楕円形_90" data-name="楕円形 90" cx="87.5" cy="87.5" r="87.5" fill="#c00"/>
    <path id="前面オブジェクトで型抜き_8" data-name="前面オブジェクトで型抜き 8" d="M41.96,89.552A26.455,26.455,0,0,1,29.281,86.6a14.722,14.722,0,0,1-7.417-8.814c-.546-1.866-.2-7.155.887-13.475s2.581-11.781,3.813-13.925a24.1,24.1,0,0,1,6.4-6.3l4.5-3-2.4-1.8A11.082,11.082,0,0,1,30.789,33a23.605,23.605,0,0,1,.075-9.812c1.245-6.951,3.13-11.593,6.112-15.05S44.089,2.348,50.364.585A21.627,21.627,0,0,1,55.933,0c5.053,0,10.786.961,13.632,2.284a19.664,19.664,0,0,1,6.1,5.4,9.987,9.987,0,0,1,1.875,4.038,24.874,24.874,0,0,1-.075,6.063,37.741,37.741,0,0,1-3.537,13.925,19.008,19.008,0,0,1-3.311,4.638,16.071,16.071,0,0,1-4.351,3.138l-3.4,1.6,2.9,1.8a14.8,14.8,0,0,1,4.6,5.5c1.712,3.627,1.7,4.191-.3,15.1-1.512,8.269-2.8,12.5-4.6,15.1A24.7,24.7,0,0,1,55.113,86.82,32.752,32.752,0,0,1,41.96,89.552Zm7.488-43.4a14.9,14.9,0,0,0-4.283.633A9.876,9.876,0,0,0,39.04,51.5C37.6,53.924,36.5,57.529,35.465,63.185c-1.694,9.567-1.689,9.915.2,12.4a11.1,11.1,0,0,0,5,3.5,9.245,9.245,0,0,0,2.386.285c4.2,0,9.041-2.1,11.013-4.785,1.047-1.365,2.4-5.8,3.438-11.3s1.419-10.166.962-11.9C57.731,48.3,54.023,46.152,49.447,46.152ZM55.864,9.814a13.019,13.019,0,0,0-6.2,1.47c-3.791,2-5.8,6.252-6.5,13.8-.494,5.632-.3,6.6,1.7,8.6a5.593,5.593,0,0,0,4.771,1.955c.73,0,1.6-.048,2.83-.155,6.643-.6,9.706-3.124,11.3-9.3,1.265-4.865,1.417-11.476.3-13.1C62.72,11.1,59.5,9.814,55.864,9.814Zm-43.4,77.87h-6.4c-3.985,0-5.421-.052-5.886-.635-.283-.355-.184-.914-.013-1.665.557-2.229,3.547-18.5,6.262-33.638,2.7-15.062,5.438-30.705,5.438-31.463,0-1.211-1.239-1.6-5.1-1.6h-5.1l.6-3.1a39.917,39.917,0,0,0,.6-4.4c0-.705,1.615-1.6,3.6-2,4.5-.783,8.079-3.034,8.9-5.6.5-1.6,1.564-1.9,6.7-1.9h6l-.5,2.7c-.287,1.535-3.568,19.619-7.8,43Z" transform="translate(48.653 42.724)" fill="#fff"/>
  </g>
</svg>
