<svg width="128" height="128" viewBox="0 0 128 128" fill="none" xmlns="http://www.w3.org/2000/svg">
<circle cx="64" cy="64" r="64" fill="#CC0000"/>
<path d="M53.1121 32.4545L42.7286 95H35.1548L44.1945 40.3949H43.8281L26.8479 50.5341L28.1917 42.8381L45.5383 32.4545H53.1121ZM70.7971 95.8551C66.5216 95.8551 62.867 95.0713 59.8333 93.5036C56.8201 91.9155 54.611 89.7675 53.2062 87.0597C51.8217 84.3518 51.4145 81.2978 51.9846 77.8977C52.4122 75.3324 53.3284 72.9605 54.7332 70.782C56.138 68.6035 57.8483 66.7812 59.8639 65.3153C61.8999 63.8494 64.0784 62.9129 66.3994 62.5057V62.2614C63.5287 61.4673 61.4621 59.7062 60.1998 56.978C58.9579 54.2294 58.6627 51.1449 59.3142 47.7244C59.925 44.5687 61.2178 41.7794 63.1927 39.3565C65.1676 36.9337 67.6413 35.0402 70.6139 33.6761C73.5864 32.2917 76.8644 31.5994 80.4477 31.5994C84.1532 31.5994 87.3497 32.3527 90.0372 33.8594C92.7247 35.3456 94.6996 37.3816 95.9619 39.9673C97.2446 42.5327 97.611 45.4441 97.0613 48.7017C96.4709 52.1832 95.0152 55.1354 92.6941 57.5582C90.3731 59.9607 87.7162 61.5284 84.7233 62.2614V62.5057C86.9221 62.9536 88.8258 63.9614 90.4342 65.5291C92.063 67.0968 93.2439 69.0412 93.9768 71.3622C94.7098 73.6629 94.8421 76.1671 94.3738 78.875C93.8241 82.1937 92.4498 85.1357 90.251 87.701C88.0521 90.246 85.273 92.2412 81.9136 93.6868C78.5746 95.1323 74.8691 95.8551 70.7971 95.8551ZM71.0414 89.1364C73.9936 89.1364 76.6099 88.6579 78.8902 87.701C81.1705 86.7237 83.0232 85.3698 84.4484 83.6392C85.8939 81.8883 86.8 79.8523 87.1664 77.5312C87.5329 75.2102 87.2784 73.1844 86.4029 71.4538C85.5275 69.7029 84.1634 68.349 82.3106 67.392C80.4579 66.4148 78.2488 65.9261 75.6835 65.9261C72.9553 65.9261 70.4306 66.4657 68.1096 67.5447C65.7886 68.6238 63.8544 70.1101 62.3071 72.0036C60.7801 73.897 59.8232 76.0653 59.4363 78.5085C59.0902 80.687 59.3243 82.5805 60.1387 84.1889C60.9531 85.777 62.2867 86.9986 64.1395 87.8537C65.9922 88.7088 68.2929 89.1364 71.0414 89.1364ZM75.9278 59.4517C78.3099 59.4517 80.4782 58.9732 82.4328 58.0163C84.4077 57.0594 86.0365 55.736 87.3191 54.0462C88.6222 52.3563 89.4671 50.4119 89.8539 48.2131C90.2408 46.0956 90.0881 44.2938 89.3958 42.8075C88.724 41.3009 87.6144 40.1607 86.067 39.3871C84.5197 38.593 82.6058 38.196 80.3255 38.196C77.862 38.196 75.6428 38.6541 73.6679 39.5703C71.7133 40.4865 70.1049 41.7692 68.8426 43.4183C67.5803 45.0675 66.7659 46.9915 66.3994 49.1903C66.0533 51.3281 66.2365 53.1707 66.9491 54.718C67.6617 56.245 68.7917 57.4157 70.339 58.2301C71.9067 59.0445 73.7697 59.4517 75.9278 59.4517Z" fill="white"/>
</svg>
