<svg width="128" height="128" viewBox="0 0 128 128" fill="none" xmlns="http://www.w3.org/2000/svg">
<circle cx="64" cy="64" r="64" fill="#460C00"/>
<path d="M43.058 36.7273L33.8819 92H27.1887L35.1774 43.7443H34.8535L19.8478 52.7045L21.0353 45.9034L36.3649 36.7273H43.058ZM67.215 35.9716C69.5361 35.9896 71.7851 36.4304 73.9622 37.294C76.1393 38.1397 78.0195 39.5611 79.6028 41.5582C81.1862 43.5554 82.2657 46.2633 82.8415 49.6818C83.4352 53.0824 83.3003 57.3646 82.4366 62.5284C81.627 67.3864 80.4575 71.6955 78.9281 75.456C77.4167 79.1984 75.5995 82.3561 73.4764 84.929C71.3533 87.5019 68.9603 89.4541 66.2974 90.7855C63.6525 92.099 60.7917 92.7557 57.715 92.7557C54.6563 92.7557 51.9934 92.1439 49.7264 90.9205C47.4773 89.679 45.7321 87.9607 44.4906 85.7656C43.2671 83.5526 42.6734 80.9886 42.7094 78.0739H49.0787C49.1866 80.6648 49.9423 82.7699 51.3457 84.3892C52.7671 86.0085 54.9622 86.8182 57.9309 86.8182C62.1952 86.8182 65.9286 84.992 69.1312 81.3395C72.3519 77.669 74.5559 72.2983 75.7434 65.2273L75.3116 65.6591C74.0522 67.1705 72.6577 68.4569 71.1284 69.5185C69.599 70.58 67.9707 71.3897 66.2434 71.9474C64.5162 72.5052 62.7169 72.7841 60.8457 72.7841C57.6071 72.7841 54.7733 71.9744 52.3443 70.3551C49.9153 68.7358 48.1251 66.5137 46.9736 63.6889C45.822 60.8641 45.5522 57.6345 46.1639 54C46.7397 50.6534 47.9901 47.6127 49.9153 44.8778C51.8585 42.125 54.3055 39.9389 57.2562 38.3196C60.225 36.7003 63.5446 35.9176 67.215 35.9716ZM66.9991 41.9091C64.6961 41.9091 62.519 42.4848 60.4679 43.6364C58.4167 44.7879 56.6805 46.3442 55.2591 48.3054C53.8377 50.2666 52.9291 52.4526 52.5332 54.8636C52.1734 57.0587 52.3353 59.0649 53.019 60.8821C53.7027 62.6993 54.8093 64.1477 56.3386 65.2273C57.868 66.3068 59.7302 66.8466 61.9253 66.8466C63.6885 66.8466 65.3888 66.4957 67.0261 65.794C68.6634 65.0923 70.1478 64.1387 71.4792 62.9332C72.8287 61.7098 73.9532 60.3243 74.8528 58.777C75.7524 57.2116 76.3372 55.5833 76.6071 53.892C76.9669 51.7689 76.805 49.7988 76.1213 47.9815C75.4376 46.1643 74.3131 44.6979 72.7477 43.5824C71.1824 42.4669 69.2662 41.9091 66.9991 41.9091Z" fill="white"/>
<path d="M95.0881 78.8182L100.043 48.8182H105.179L100.224 78.8182H95.0881ZM84.679 66.3636L85.5426 61.2727H115.543L114.679 66.3636H84.679Z" fill="white"/>
</svg>
