<svg width="128" height="128" viewBox="0 0 128 128" fill="none" xmlns="http://www.w3.org/2000/svg">
<circle cx="64" cy="64" r="64" fill="#660000"/>
<path d="M52.2762 32.4545L41.8927 95H34.3188L43.3586 40.3949H42.9921L26.012 50.5341L27.3558 42.8381L44.7023 32.4545H52.2762ZM79.6118 31.5994C82.2382 31.6198 84.7832 32.1186 87.2467 33.0959C89.7102 34.0528 91.8378 35.6612 93.6295 37.9212C95.4212 40.1811 96.6428 43.2453 97.2943 47.1136C97.9662 50.9616 97.8135 55.8073 96.8362 61.6506C95.92 67.1477 94.5966 72.0239 92.866 76.2791C91.1558 80.514 89.0994 84.0871 86.697 86.9986C84.2945 89.91 81.5867 92.1191 78.5734 93.6257C75.5805 95.112 72.3433 95.8551 68.8618 95.8551C65.4006 95.8551 62.3873 95.1629 59.822 93.7784C57.277 92.3736 55.3021 90.4292 53.8973 87.9453C52.5128 85.4411 51.8409 82.5398 51.8816 79.2415H59.089C59.2112 82.1733 60.0663 84.5554 61.6544 86.3878C63.2628 88.2202 65.7467 89.1364 69.1061 89.1364C73.9314 89.1364 78.156 87.0698 81.7801 82.9368C85.4245 78.7834 87.9186 72.706 89.2623 64.7045L88.7737 65.1932C87.3485 66.9034 85.7706 68.3591 84.04 69.5604C82.3094 70.7616 80.4669 71.6778 78.5123 72.3089C76.5578 72.9401 74.5218 73.2557 72.4044 73.2557C68.7396 73.2557 65.5329 72.3395 62.7843 70.5071C60.0358 68.6747 58.01 66.1603 56.7069 62.9638C55.4039 59.7673 55.0985 56.1127 55.7907 52C56.4422 48.2131 57.8573 44.7723 60.0358 41.6776C62.2346 38.5625 65.0036 36.0888 68.3426 34.2564C71.702 32.424 75.4583 31.5384 79.6118 31.5994ZM79.3674 38.3182C76.7614 38.3182 74.2978 38.9697 71.9768 40.2727C69.6558 41.5758 67.6911 43.3369 66.0826 45.5561C64.4742 47.7753 63.446 50.2491 62.9981 52.9773C62.5909 55.4612 62.7742 57.7313 63.5478 59.7876C64.3215 61.844 65.5736 63.483 67.3042 64.7045C69.0348 65.9261 71.1421 66.5369 73.626 66.5369C75.6212 66.5369 77.5452 66.1399 79.398 65.3459C81.2507 64.5518 82.9304 63.4728 84.437 62.1087C85.964 60.7242 87.2365 59.1565 88.2545 57.4055C89.2725 55.6342 89.9342 53.7917 90.2396 51.8778C90.6468 49.4754 90.4636 47.246 89.6899 45.1896C88.9162 43.1333 87.6437 41.474 85.8724 40.2116C84.1011 38.9493 81.9328 38.3182 79.3674 38.3182Z" fill="white"/>
</svg>
