<svg xmlns="http://www.w3.org/2000/svg" xmlns:xlink="http://www.w3.org/1999/xlink" width="175" height="175" viewBox="0 0 175 175">
  <defs>
    <clipPath id="clip-_19">
      <rect width="175" height="175"/>
    </clipPath>
  </defs>
  <g id="_19" data-name="19" clip-path="url(#clip-_19)">
    <circle id="楕円形_90" data-name="楕円形 90" cx="87.5" cy="87.5" r="87.5" fill="#600"/>
    <path id="前面オブジェクトで型抜き_6" data-name="前面オブジェクトで型抜き 6" d="M41.434,89.463a25.562,25.562,0,0,1-3.734-.269,23.809,23.809,0,0,1-7.286-2.253,15.657,15.657,0,0,1-5.1-4.072,14.254,14.254,0,0,1-2.758-5.684,19.322,19.322,0,0,1-.255-7.09l.6-4.4H35.1l-.3,4.9c-.3,4.357-.046,5.142,2.3,7a10.126,10.126,0,0,0,6.285,1.958c4.564,0,8.83-2.274,10.615-5.657,1.692-3.186,5.188-20.911,4.3-21.8a.4.4,0,0,0-.284-.078A12.024,12.024,0,0,0,54.4,53.293c-2.231,1.23-6.094,1.964-10.332,1.964-4.46,0-8.356-.829-10.168-2.164a14.332,14.332,0,0,1-4.862-6.025A16.17,16.17,0,0,1,28,39.094c1.32-11.985,4.55-24.771,7.2-28.5C39.616,4.159,48.4,0,57.588,0A24.9,24.9,0,0,1,70.2,3.194a12.125,12.125,0,0,1,6,7c.85,2.251,1.277,3.38.838,7.575C76.593,22,75.21,29.637,72.7,43.493c-3.508,19.842-5.79,30.081-7.4,33.2a22.624,22.624,0,0,1-9.687,9.177A30.847,30.847,0,0,1,41.434,89.463ZM55.947,9.807A15.155,15.155,0,0,0,49.9,11.194c-4.12,1.808-5.7,5.016-7.7,15.6-1.6,8.66-2.108,14.175.028,16.741,1.276,1.533,3.441,2.159,7.473,2.159,4.432,0,5.531-.432,8.4-3.3,2.709-2.709,3.4-4.475,4.9-12.6,1.24-6.6,1.85-10.4,1.737-12.837A6.063,6.063,0,0,0,62.2,11.993,9.457,9.457,0,0,0,55.947,9.807ZM10.2,87.644c-1.177,0-2.7-.053-4.3-.151l-5.9-.3,6.1-33.8c3.317-18.047,5.907-33.889,5.7-34.2-.286-.285-2.564-.5-5.3-.5H1.7l.5-3.3c.894-5.166,1.07-5.394,4.7-6.1a16.229,16.229,0,0,0,5.85-2.612c1.785-1.265,2.85-2.606,2.85-3.587,0-1.073,1.4-1.4,6-1.4,3.532,0,6,.411,6,1,0,.8-3.823,22.165-7.6,42.85-3.786,20.734-7.7,41.746-7.9,41.95A5.308,5.308,0,0,1,10.2,87.644Z" transform="translate(48.895 42.768)" fill="#fff"/>
  </g>
</svg>
