<svg xmlns="http://www.w3.org/2000/svg" xmlns:xlink="http://www.w3.org/1999/xlink" width="175" height="175" viewBox="0 0 175 175"><defs><clipPath id="b"><rect width="175" height="175"/></clipPath></defs><g id="a" clip-path="url(#b)"><circle cx="87.5" cy="87.5" r="87.5" fill="#240600"/><g transform="translate(7.688)"><path d="M53.471,68.6A20.037,20.037,0,0,1,44.884,67a12.386,12.386,0,0,1-4.669-4.054,9.481,9.481,0,0,1-1.787-5.322c0-1.691,1.882-12.91,3.747-23.278,1.8-10,3.992-21.465,4.554-22.99a15.923,15.923,0,0,1,5.207-6.542A22.832,22.832,0,0,1,60.486.749,19.965,19.965,0,0,1,65.463,0a24.109,24.109,0,0,1,5.322.749,14.094,14.094,0,0,1,6.687,3.3c2.03,1.877,3.055,3.6,3.026,7.84-.029,4.266-1.12,10.956-3.257,22.6-1.964,11-4.095,21.121-4.688,22.826a16.29,16.29,0,0,1-4.592,6.216,19.022,19.022,0,0,1-7.013,4.083A27.3,27.3,0,0,1,53.471,68.6ZM64.477,7.676a11.4,11.4,0,0,0-3.683.913c-2.15.752-3.548,1.468-4.833,5.053-1.278,3.567-2.57,10.343-4.544,21.078-1.91,10.646-2.762,15.574-3.093,18.533-.359,3.2-.058,3.93.481,4.755a7.121,7.121,0,0,0,6.117,3.147,9.941,9.941,0,0,0,6.641-2.686c2.237-2.006,2.467-2.882,6.149-23.441C70.06,22.5,71.4,12.871,71.169,11.74a5.167,5.167,0,0,0-3.151-3.074A9.336,9.336,0,0,0,64.477,7.676ZM17.216,67.538c-6.632,0-11.272-.032-13.911-.192C.927,67.2,0,66.954,0,66.462c0-2.185,2.444-13.879,3.228-15.448a27.258,27.258,0,0,1,5.034-6.341,141.175,141.175,0,0,1,10.8-9.338C32.119,24.811,34.586,21.368,34.586,13.661c0-3.5-2.534-5.847-6.3-5.847a10.361,10.361,0,0,0-3.225.544c-3.545,1.156-5.607,3.821-6.3,8.147l-.461,3.382H8.608l.923-4.073c1.63-6.675,3.815-9.869,8.992-13.143C20.936,1.153,24.7.282,28.853.282a26.616,26.616,0,0,1,5.209.5,17.381,17.381,0,0,1,4.521,1.508A10.251,10.251,0,0,1,43.2,7.206a12.666,12.666,0,0,1,.989,7.224,33.412,33.412,0,0,1-1.519,6.6,23.722,23.722,0,0,1-2.967,5.727c-2.459,3.522-6.281,7.277-13.191,12.96C19.916,45.138,16.7,48.034,14.66,50.4a11.492,11.492,0,0,0-3.208,6.763l-.308,2.305,12.528.231,12.6.23-.537,3.228a17.425,17.425,0,0,1-.923,3.766C34.671,67.285,27.434,67.538,17.216,67.538Z" transform="translate(25.312 53.201)" fill="#fff"/><path d="M61.491-53.945s-4.03,7.9-4.213,8.332c-.244.611.733.794,4.213.794h4.58l3.738-9.126Z" transform="translate(42.285 166.325)" fill="#fff"/><path d="M79.326-134.8a6.88,6.88,0,0,1-4.274,2.553c-1.721.278-2.387.666-2.387,1.277a28.531,28.531,0,0,1-.333,3L72-125.916l3.275.167,3.275.167L74.83-105.045C72.721-93.776,71.056-84.062,71-83.563c0,.888.555,1,4.052,1H79.1L83.934-109.1c2.664-14.543,4.829-26.811,4.829-27.2,0-.444-1.11-.666-3.719-.611C81.38-136.907,81.214-136.8,79.326-134.8Z" transform="translate(46.5 203.915)" fill="#fff"/></g></g></svg>