<svg width="128" height="128" viewBox="0 0 128 128" fill="none" xmlns="http://www.w3.org/2000/svg">
<circle cx="64" cy="64" r="64" fill="#240600"/>
<path d="M23.276 86L23.9578 82.1648L40.9181 66.3977C42.9067 64.5511 44.5615 62.9389 45.8826 61.5611C47.2178 60.1832 48.2547 58.8906 48.9934 57.6832C49.7462 56.4759 50.2363 55.2045 50.4635 53.8693C50.7192 52.3352 50.5843 51.0071 50.0587 49.8849C49.5331 48.7628 48.7022 47.8963 47.5658 47.2855C46.4294 46.6747 45.0658 46.3693 43.4749 46.3693C41.7988 46.3693 40.2718 46.7173 38.8939 47.4134C37.5161 48.0952 36.3726 49.0611 35.4635 50.3111C34.5544 51.5469 33.9578 52.9886 33.6738 54.6364H28.6453C29.0715 52.0795 30.0445 49.8352 31.5644 47.9034C33.0985 45.9716 34.9806 44.4659 37.2107 43.3864C39.455 42.3068 41.8556 41.767 44.4124 41.767C46.9692 41.767 49.1354 42.3068 50.911 43.3864C52.6865 44.4659 53.972 45.9219 54.7675 47.7543C55.563 49.5866 55.776 51.625 55.4067 53.8693C55.1226 55.4886 54.5615 57.0582 53.7235 58.5781C52.8854 60.098 51.5999 61.7955 49.8669 63.6705C48.1482 65.5312 45.8186 67.804 42.8783 70.4886L31.3726 80.9716L31.2874 81.3125H51.5715L50.8044 86H23.276ZM66.5519 86.5966C63.3416 86.5966 60.7564 85.723 58.7962 83.9759C56.836 82.2145 55.5434 79.6648 54.9184 76.3267C54.2934 72.9744 54.3644 68.9261 55.1314 64.1818C55.8985 59.4659 57.1556 55.4389 58.9027 52.1009C60.6499 48.7486 62.8019 46.1918 65.3587 44.4304C67.9155 42.6548 70.7848 41.767 73.9666 41.767C77.1485 41.767 79.7266 42.6548 81.701 44.4304C83.6897 46.206 85.0107 48.7628 85.6641 52.1009C86.3317 55.4389 86.2678 59.4659 85.4723 64.1818C84.6769 68.9261 83.4056 72.9673 81.6584 76.3054C79.9113 79.6435 77.7593 82.1932 75.2024 83.9545C72.6456 85.7159 69.7621 86.5966 66.5519 86.5966ZM67.3189 81.9091C70.5149 81.9091 73.2493 80.375 75.522 77.3068C77.809 74.2244 79.4212 69.8494 80.3587 64.1818C80.9837 60.4034 81.1115 57.1861 80.7422 54.5298C80.3729 51.8736 79.549 49.8494 78.2706 48.4574C76.9922 47.0653 75.3019 46.3693 73.1996 46.3693C70.0462 46.3693 67.3331 47.9247 65.0604 51.0355C62.7877 54.1321 61.1826 58.5142 60.2451 64.1818C59.6201 67.9602 59.4851 71.1705 59.8402 73.8125C60.1953 76.4545 61.005 78.4645 62.2692 79.8423C63.5334 81.2202 65.2166 81.9091 67.3189 81.9091ZM85.8235 86.2727C84.9598 86.2727 84.2382 85.9773 83.6587 85.3864C83.0791 84.7841 82.778 84.0568 82.7553 83.2045C82.7439 82.3523 83.0451 81.642 83.6587 81.0739C84.2723 80.4943 84.9939 80.2045 85.8235 80.2045C86.6644 80.2045 87.3916 80.5 88.0053 81.0909C88.6189 81.6818 88.9144 82.3864 88.8916 83.2045C88.8803 83.7727 88.7326 84.2898 88.4485 84.7557C88.1757 85.2216 87.8064 85.5909 87.3405 85.8636C86.886 86.1364 86.3803 86.2727 85.8235 86.2727ZM103.701 51.0909L97.9058 86H93.6785L98.724 55.5227H98.5194L89.0422 61.1818L89.7922 56.8864L99.474 51.0909H103.701Z" fill="white"/>
</svg>
