<svg width="128" height="128" viewBox="0 0 128 128" fill="none" xmlns="http://www.w3.org/2000/svg">
<circle cx="64" cy="64" r="64" fill="#130400"/>
<path d="M17.8151 85L18.4969 81.1648L35.4571 65.3977C37.4458 63.5511 39.1006 61.9389 40.4216 60.5611C41.7568 59.1832 42.7938 57.8906 43.5324 56.6832C44.2853 55.4759 44.7753 54.2045 45.0026 52.8693C45.2583 51.3352 45.1233 50.0071 44.5978 48.8849C44.0722 47.7628 43.2412 46.8963 42.1049 46.2855C40.9685 45.6747 39.6049 45.3693 38.014 45.3693C36.3378 45.3693 34.8108 45.7173 33.433 46.4134C32.0551 47.0952 30.9117 48.0611 30.0026 49.3111C29.0935 50.5469 28.4969 51.9886 28.2128 53.6364H23.1844C23.6105 51.0795 24.5836 48.8352 26.1034 46.9034C27.6375 44.9716 29.5196 43.4659 31.7497 42.3864C33.9941 41.3068 36.3946 40.767 38.9515 40.767C41.5083 40.767 43.6745 41.3068 45.45 42.3864C47.2256 43.4659 48.5111 44.9219 49.3066 46.7543C50.102 48.5866 50.3151 50.625 49.9458 52.8693C49.6617 54.4886 49.1006 56.0582 48.2625 57.5781C47.4245 59.098 46.139 60.7955 44.406 62.6705C42.6872 64.5312 40.3577 66.804 37.4174 69.4886L25.9117 79.9716L25.8265 80.3125H46.1105L45.3435 85H17.8151ZM61.0909 85.5966C57.8807 85.5966 55.2955 84.723 53.3353 82.9759C51.375 81.2145 50.0824 78.6648 49.4574 75.3267C48.8324 71.9744 48.9034 67.9261 49.6705 63.1818C50.4375 58.4659 51.6946 54.4389 53.4418 51.1009C55.189 47.7486 57.3409 45.1918 59.8978 43.4304C62.4546 41.6548 65.3239 40.767 68.5057 40.767C71.6875 40.767 74.2657 41.6548 76.2401 43.4304C78.2287 45.206 79.5497 47.7628 80.2032 51.1009C80.8708 54.4389 80.8068 58.4659 80.0114 63.1818C79.2159 67.9261 77.9446 71.9673 76.1975 75.3054C74.4503 78.6435 72.2983 81.1932 69.7415 82.9545C67.1847 84.7159 64.3012 85.5966 61.0909 85.5966ZM61.858 80.9091C65.054 80.9091 67.7884 79.375 70.0611 76.3068C72.348 73.2244 73.9603 68.8494 74.8978 63.1818C75.5228 59.4034 75.6506 56.1861 75.2813 53.5298C74.912 50.8736 74.0881 48.8494 72.8097 47.4574C71.5313 46.0653 69.8409 45.3693 67.7387 45.3693C64.5853 45.3693 61.8722 46.9247 59.5995 50.0355C57.3267 53.1321 55.7216 57.5142 54.7841 63.1818C54.1591 66.9602 54.0242 70.1705 54.3793 72.8125C54.7344 75.4545 55.5441 77.4645 56.8083 78.8423C58.0725 80.2202 59.7557 80.9091 61.858 80.9091ZM80.3625 85.2727C79.4989 85.2727 78.7773 84.9773 78.1978 84.3864C77.6182 83.7841 77.3171 83.0568 77.2943 82.2045C77.283 81.3523 77.5841 80.642 78.1978 80.0739C78.8114 79.4943 79.533 79.2045 80.3625 79.2045C81.2034 79.2045 81.9307 79.5 82.5443 80.0909C83.158 80.6818 83.4534 81.3864 83.4307 82.2045C83.4193 82.7727 83.2716 83.2898 82.9875 83.7557C82.7148 84.2216 82.3455 84.5909 81.8796 84.8636C81.425 85.1364 80.9193 85.2727 80.3625 85.2727ZM84.344 85L84.8895 81.9318L98.4576 69.3182C100.049 67.8409 101.372 66.5511 102.429 65.4489C103.497 64.3466 104.327 63.3125 104.918 62.3466C105.52 61.3807 105.912 60.3636 106.094 59.2955C106.299 58.0682 106.191 57.0057 105.77 56.108C105.35 55.2102 104.685 54.517 103.776 54.0284C102.867 53.5398 101.776 53.2955 100.503 53.2955C99.1622 53.2955 97.9406 53.5739 96.8383 54.1307C95.736 54.6761 94.8213 55.4489 94.094 56.4489C93.3667 57.4375 92.8895 58.5909 92.6622 59.9091H88.6395C88.9804 57.8636 89.7588 56.0682 90.9747 54.5227C92.202 52.9773 93.7076 51.7727 95.4917 50.9091C97.2872 50.0455 99.2076 49.6136 101.253 49.6136C103.299 49.6136 105.032 50.0455 106.452 50.9091C107.872 51.7727 108.901 52.9375 109.537 54.4034C110.174 55.8693 110.344 57.5 110.049 59.2955C109.821 60.5909 109.372 61.8466 108.702 63.0625C108.032 64.2784 107.003 65.6364 105.617 67.1364C104.242 68.625 102.378 70.4432 100.026 72.5909L90.8213 80.9773L90.7531 81.25H106.98L106.367 85H84.344Z" fill="white"/>
</svg>
