<svg xmlns="http://www.w3.org/2000/svg" xmlns:xlink="http://www.w3.org/1999/xlink" width="175" height="175" viewBox="0 0 175 175"><defs><clipPath id="b"><rect width="175" height="175"/></clipPath></defs><g id="a" clip-path="url(#b)"><circle cx="87.5" cy="87.5" r="87.5"/><g transform="translate(-0.311)"><path d="M53.471,68.6A20.037,20.037,0,0,1,44.884,67a12.386,12.386,0,0,1-4.669-4.054,9.481,9.481,0,0,1-1.787-5.322c0-1.691,1.882-12.91,3.747-23.278,1.8-10,3.992-21.465,4.554-22.99a15.923,15.923,0,0,1,5.207-6.542A22.832,22.832,0,0,1,60.486.749,19.965,19.965,0,0,1,65.463,0a24.109,24.109,0,0,1,5.322.749,14.094,14.094,0,0,1,6.687,3.3c2.03,1.877,3.055,3.6,3.026,7.84-.029,4.266-1.12,10.956-3.257,22.6-1.964,11-4.095,21.121-4.688,22.826a16.29,16.29,0,0,1-4.592,6.216,19.022,19.022,0,0,1-7.013,4.083A27.3,27.3,0,0,1,53.471,68.6ZM64.477,7.676a11.4,11.4,0,0,0-3.683.913c-2.15.752-3.548,1.468-4.833,5.053-1.278,3.567-2.57,10.343-4.544,21.078-1.91,10.646-2.762,15.574-3.093,18.533-.359,3.2-.058,3.93.481,4.755a7.121,7.121,0,0,0,6.117,3.147,9.941,9.941,0,0,0,6.641-2.686c2.237-2.006,2.467-2.882,6.149-23.441C70.06,22.5,71.4,12.871,71.169,11.74a5.167,5.167,0,0,0-3.151-3.074A9.336,9.336,0,0,0,64.477,7.676ZM17.216,67.538c-6.632,0-11.272-.032-13.911-.192C.927,67.2,0,66.954,0,66.462c0-2.185,2.444-13.879,3.228-15.448a27.258,27.258,0,0,1,5.034-6.341,141.175,141.175,0,0,1,10.8-9.338C32.119,24.811,34.586,21.368,34.586,13.661c0-3.5-2.534-5.847-6.3-5.847a10.361,10.361,0,0,0-3.225.544c-3.545,1.156-5.607,3.821-6.3,8.147l-.461,3.382H8.608l.923-4.073c1.63-6.675,3.815-9.869,8.992-13.143C20.936,1.153,24.7.282,28.853.282a26.616,26.616,0,0,1,5.209.5,17.381,17.381,0,0,1,4.521,1.508A10.251,10.251,0,0,1,43.2,7.206a12.666,12.666,0,0,1,.989,7.224,33.412,33.412,0,0,1-1.519,6.6,23.722,23.722,0,0,1-2.967,5.727c-2.459,3.522-6.281,7.277-13.191,12.96C19.916,45.138,16.7,48.034,14.66,50.4a11.492,11.492,0,0,0-3.208,6.763l-.308,2.305,12.528.231,12.6.23-.537,3.228a17.425,17.425,0,0,1-.923,3.766C34.671,67.285,27.434,67.538,17.216,67.538Z" transform="translate(25.312 53)" fill="#fff"/><path d="M61.491-53.945s-4.03,7.9-4.213,8.332c-.244.611.733.794,4.213.794h4.58l3.738-9.126Z" transform="translate(42.285 166.945)" fill="#fff"/><path d="M72.433-138.211c-6.528,2.047-10.455,6.472-11.174,12.557l-.332,2.711h3.706c2.434,0,3.762-.221,3.928-.719.111-.332.5-1.77.83-3.1a7.26,7.26,0,0,1,5.477-5.587c2.932-.774,5.477-.111,6.915,1.826,1.051,1.383,1.051,1.77.443,5.477a20.937,20.937,0,0,1-1.549,5.311c-1.162,1.77-4.923,3.43-7.855,3.43-2.545,0-2.877.387-3.651,4.536l-.387,2.1h2.1c3.319,0,6.2,1.051,7.191,2.6.885,1.328.885,1.77-.055,6.97a37.729,37.729,0,0,1-1.6,6.97c-1.826,3.817-8.685,5.311-11.783,2.655-1.6-1.438-1.77-2.545-1.051-7.745l.443-3.153H60.152c-4.536,0-4.426-.221-4.979,7.026-.332,4.315-.221,4.7,1.162,6.8,2.379,3.6,5.145,4.7,11.672,4.7,6.2,0,8.906-.885,12.668-4.149,2.932-2.6,4.038-5.089,5.311-12.281,1.494-8.132.83-10.953-2.821-12.723l-1.6-.83,2.711-1.77c3.817-2.434,5.532-5.974,5.974-12.281.332-5.089-.166-6.8-2.711-9.183C84.658-138.765,77.467-139.816,72.433-138.211Z" transform="translate(59.394 204.969)" fill="#fff"/></g></g></svg>