<svg width="128" height="128" viewBox="0 0 128 128" fill="none" xmlns="http://www.w3.org/2000/svg">
<circle cx="64" cy="64" r="64" fill="black"/>
<path d="M17.0651 86L17.7469 82.1648L34.7071 66.3977C36.6958 64.5511 38.3506 62.9389 39.6716 61.5611C41.0068 60.1832 42.0438 58.8906 42.7824 57.6832C43.5353 56.4759 44.0253 55.2045 44.2526 53.8693C44.5083 52.3352 44.3733 51.0071 43.8478 49.8849C43.3222 48.7628 42.4912 47.8963 41.3549 47.2855C40.2185 46.6747 38.8549 46.3693 37.264 46.3693C35.5878 46.3693 34.0608 46.7173 32.683 47.4134C31.3051 48.0952 30.1617 49.0611 29.2526 50.3111C28.3435 51.5469 27.7469 52.9886 27.4628 54.6364H22.4344C22.8605 52.0795 23.8336 49.8352 25.3534 47.9034C26.8875 45.9716 28.7696 44.4659 30.9997 43.3864C33.2441 42.3068 35.6446 41.767 38.2015 41.767C40.7583 41.767 42.9245 42.3068 44.7 43.3864C46.4756 44.4659 47.7611 45.9219 48.5566 47.7543C49.352 49.5866 49.5651 51.625 49.1958 53.8693C48.9117 55.4886 48.3506 57.0582 47.5125 58.5781C46.6745 60.098 45.389 61.7955 43.656 63.6705C41.9372 65.5312 39.6077 67.804 36.6674 70.4886L25.1617 80.9716L25.0765 81.3125H45.3605L44.5935 86H17.0651ZM60.3409 86.5966C57.1307 86.5966 54.5455 85.723 52.5853 83.9759C50.625 82.2145 49.3324 79.6648 48.7074 76.3267C48.0824 72.9744 48.1534 68.9261 48.9205 64.1818C49.6875 59.4659 50.9446 55.4389 52.6918 52.1009C54.439 48.7486 56.5909 46.1918 59.1478 44.4304C61.7046 42.6548 64.5739 41.767 67.7557 41.767C70.9375 41.767 73.5157 42.6548 75.4901 44.4304C77.4787 46.206 78.7997 48.7628 79.4532 52.1009C80.1208 55.4389 80.0568 59.4659 79.2614 64.1818C78.4659 68.9261 77.1946 72.9673 75.4475 76.3054C73.7003 79.6435 71.5483 82.1932 68.9915 83.9545C66.4347 85.7159 63.5512 86.5966 60.3409 86.5966ZM61.108 81.9091C64.304 81.9091 67.0384 80.375 69.3111 77.3068C71.598 74.2244 73.2103 69.8494 74.1478 64.1818C74.7728 60.4034 74.9006 57.1861 74.5313 54.5298C74.162 51.8736 73.3381 49.8494 72.0597 48.4574C70.7813 47.0653 69.0909 46.3693 66.9887 46.3693C63.8353 46.3693 61.1222 47.9247 58.8495 51.0355C56.5767 54.1321 54.9716 58.5142 54.0341 64.1818C53.4091 67.9602 53.2742 71.1705 53.6293 73.8125C53.9844 76.4545 54.7941 78.4645 56.0583 79.8423C57.3225 81.2202 59.0057 81.9091 61.108 81.9091ZM79.6125 86.2727C78.7489 86.2727 78.0273 85.9773 77.4478 85.3864C76.8682 84.7841 76.5671 84.0568 76.5443 83.2045C76.533 82.3523 76.8341 81.642 77.4478 81.0739C78.0614 80.4943 78.783 80.2045 79.6125 80.2045C80.4534 80.2045 81.1807 80.5 81.7943 81.0909C82.408 81.6818 82.7034 82.3864 82.6807 83.2045C82.6693 83.7727 82.5216 84.2898 82.2375 84.7557C81.9648 85.2216 81.5955 85.5909 81.1296 85.8636C80.675 86.1364 80.1693 86.2727 79.6125 86.2727ZM95.5258 86.4773C93.2531 86.4773 91.2815 86.0966 89.611 85.3352C87.952 84.5625 86.7133 83.4886 85.8951 82.1136C85.077 80.7273 84.7872 79.1136 85.0258 77.2727H89.2531C89.1508 78.3864 89.344 79.3523 89.8326 80.1705C90.3326 80.9886 91.0713 81.6193 92.0485 82.0625C93.0372 82.5057 94.219 82.7273 95.594 82.7273C97.0599 82.7273 98.4349 82.4716 99.719 81.9602C101.014 81.4489 102.1 80.7102 102.975 79.7443C103.85 78.767 104.389 77.6023 104.594 76.25C104.776 75.0341 104.639 73.9545 104.185 73.0114C103.73 72.0682 102.946 71.3295 101.833 70.7955C100.73 70.25 99.2872 69.9773 97.5031 69.9773H94.6395L95.2531 66.2273H97.9122C99.2985 66.2273 100.571 65.9659 101.73 65.4432C102.889 64.9205 103.855 64.1875 104.628 63.2443C105.401 62.2898 105.889 61.1705 106.094 59.8864C106.287 58.7614 106.208 57.7841 105.855 56.9545C105.514 56.1136 104.924 55.4602 104.083 54.9943C103.253 54.5284 102.196 54.2955 100.912 54.2955C99.6849 54.2955 98.4804 54.517 97.2985 54.9602C96.1281 55.392 95.1281 56.0227 94.2985 56.8523C93.469 57.6705 92.9463 58.6591 92.7304 59.8182H88.6395C88.9917 58 89.7815 56.4034 91.0088 55.0284C92.236 53.642 93.7304 52.5625 95.4917 51.7898C97.2645 51.0057 99.1395 50.6136 101.117 50.6136C103.31 50.6136 105.117 51.0682 106.537 51.9773C107.969 52.875 108.992 54.0568 109.605 55.5227C110.219 56.9773 110.389 58.5455 110.117 60.2273C109.81 62.1477 109.02 63.7727 107.747 65.1023C106.475 66.4318 104.924 67.375 103.094 67.9318V68.1364C105.242 68.5114 106.799 69.5 107.764 71.1023C108.742 72.6932 109.049 74.5909 108.685 76.7955C108.367 78.7727 107.6 80.4886 106.384 81.9432C105.168 83.3864 103.628 84.5057 101.764 85.3011C99.9008 86.0852 97.8213 86.4773 95.5258 86.4773Z" fill="white"/>
</svg>
