<svg width="128" height="128" viewBox="0 0 128 128" fill="none" xmlns="http://www.w3.org/2000/svg">
<circle cx="64" cy="64" r="64" fill="#0A031F"/>
<path d="M16.9479 86L17.6297 82.1648L34.5899 66.3977C36.5786 64.5511 38.2334 62.9389 39.5544 61.5611C40.8897 60.1832 41.9266 58.8906 42.6652 57.6832C43.4181 56.4759 43.9081 55.2045 44.1354 53.8693C44.3911 52.3352 44.2561 51.0071 43.7306 49.8849C43.205 48.7628 42.374 47.8963 41.2377 47.2855C40.1013 46.6747 38.7377 46.3693 37.1468 46.3693C35.4706 46.3693 33.9436 46.7173 32.5658 47.4134C31.188 48.0952 30.0445 49.0611 29.1354 50.3111C28.2263 51.5469 27.6297 52.9886 27.3456 54.6364H22.3172C22.7434 52.0795 23.7164 49.8352 25.2363 47.9034C26.7703 45.9716 28.6524 44.4659 30.8826 43.3864C33.1269 42.3068 35.5274 41.767 38.0843 41.767C40.6411 41.767 42.8073 42.3068 44.5828 43.3864C46.3584 44.4659 47.6439 45.9219 48.4394 47.7543C49.2348 49.5866 49.4479 51.625 49.0786 53.8693C48.7945 55.4886 48.2334 57.0582 47.3953 58.5781C46.5573 60.098 45.2718 61.7955 43.5388 63.6705C41.8201 65.5312 39.4905 67.804 36.5502 70.4886L25.0445 80.9716L24.9593 81.3125H45.2434L44.4763 86H16.9479ZM60.2238 86.5966C57.0135 86.5966 54.4283 85.723 52.4681 83.9759C50.5078 82.2145 49.2152 79.6648 48.5902 76.3267C47.9652 72.9744 48.0363 68.9261 48.8033 64.1818C49.5703 59.4659 50.8274 55.4389 52.5746 52.1009C54.3218 48.7486 56.4738 46.1918 59.0306 44.4304C61.5874 42.6548 64.4567 41.767 67.6385 41.767C70.8203 41.767 73.3985 42.6548 75.3729 44.4304C77.3615 46.206 78.6826 48.7628 79.336 52.1009C80.0036 55.4389 79.9397 59.4659 79.1442 64.1818C78.3488 68.9261 77.0774 72.9673 75.3303 76.3054C73.5831 79.6435 71.4311 82.1932 68.8743 83.9545C66.3175 85.7159 63.434 86.5966 60.2238 86.5966ZM60.9908 81.9091C64.1868 81.9091 66.9212 80.375 69.1939 77.3068C71.4809 74.2244 73.0931 69.8494 74.0306 64.1818C74.6556 60.4034 74.7834 57.1861 74.4141 54.5298C74.0448 51.8736 73.2209 49.8494 71.9425 48.4574C70.6641 47.0653 68.9738 46.3693 66.8715 46.3693C63.7181 46.3693 61.005 47.9247 58.7323 51.0355C56.4595 54.1321 54.8544 58.5142 53.9169 64.1818C53.2919 67.9602 53.157 71.1705 53.5121 73.8125C53.8672 76.4545 54.6769 78.4645 55.9411 79.8423C57.2053 81.2202 58.8885 81.9091 60.9908 81.9091ZM79.4953 86.2727C78.6317 86.2727 77.9101 85.9773 77.3306 85.3864C76.751 84.7841 76.4499 84.0568 76.4272 83.2045C76.4158 82.3523 76.7169 81.642 77.3306 81.0739C77.9442 80.4943 78.6658 80.2045 79.4953 80.2045C80.3363 80.2045 81.0635 80.5 81.6772 81.0909C82.2908 81.6818 82.5863 82.3864 82.5635 83.2045C82.5522 83.7727 82.4044 84.2898 82.1203 84.7557C81.8476 85.2216 81.4783 85.5909 81.0124 85.8636C80.5578 86.1364 80.0522 86.2727 79.4953 86.2727ZM83.8859 78.8409L84.4314 75.3636L103.795 51.0909H106.318L105.431 56.4773H103.727L89.0677 74.8182V75.0909H109.727L109.113 78.8409H83.8859ZM99.0905 86L100.454 77.75L100.727 76.1818L104.886 51.0909H108.909L103.113 86H99.0905Z" fill="white"/>
</svg>
