<svg xmlns="http://www.w3.org/2000/svg" xmlns:xlink="http://www.w3.org/1999/xlink" width="175" height="175" viewBox="0 0 175 175">
  <defs>
    <clipPath id="clip-_20.5">
      <rect width="175" height="175"/>
    </clipPath>
  </defs>
  <g id="_20.5" data-name="20.5" clip-path="url(#clip-_20.5)">
    <circle id="楕円形_90" data-name="楕円形 90" cx="87.5" cy="87.5" r="87.5"/>
    <path id="前面オブジェクトで型抜き_10" data-name="前面オブジェクトで型抜き 10" d="M81.8,67.784H77.9c-2.114,0-3.9-.412-3.9-.9,0-.544.808-5.08,1.5-8.8q.169-.873.322-1.659c1.032-5.292,1.5-7.707.618-8.781-.665-.807-2.115-.865-4.423-.865l-.907,0H71.1l-1.1,0c-3.5,0-5.121-.032-6.013-.337S63,45.583,63,44.384c0-5.129.715-5.6,8.5-5.6h7.4l1.1-5.8c.39-2.016.817-4.379,1.159-6.278.181-1,.336-1.863.441-2.423.529-2.982.864-4.711,1.587-5.575.7-.834,1.78-.925,3.913-.925s3.079.072,3.446.52c.263.321.222.838.054,1.68-.312,1.351-1.031,5.173-1.6,8.3-.361,1.984-1.239,6.755-1.6,8.2-.138.758-.207,1.281.079,1.623.521.625,2.143.677,7.021.677,4.135,0,7.5.4,7.5.9s-.3,2.228-.6,3.9l-.6,3.1-7.7.3-7.6.3-1.8,10.2-1.9,10.3Z" transform="translate(52.5 49.649)" fill="red"/>
    <path id="前面オブジェクトで型抜き_11" data-name="前面オブジェクトで型抜き 11" d="M59.007,75.7a22.111,22.111,0,0,1-9.476-1.765,13.669,13.669,0,0,1-5.152-4.474,10.463,10.463,0,0,1-1.972-5.873c0-1.867,2.077-14.247,4.135-25.688,1.986-11.04,4.405-23.688,5.025-25.37a17.571,17.571,0,0,1,5.746-7.22A25.2,25.2,0,0,1,66.749.827,22.032,22.032,0,0,1,72.241,0a26.6,26.6,0,0,1,5.873.827,15.553,15.553,0,0,1,7.379,3.647c2.24,2.071,3.372,3.978,3.34,8.651C88.8,17.832,87.6,25.216,85.239,38.06,83.072,50.2,80.72,61.368,80.065,63.25A17.977,17.977,0,0,1,75,70.11a20.991,20.991,0,0,1-7.74,4.506A30.125,30.125,0,0,1,59.007,75.7ZM71.153,8.471a12.583,12.583,0,0,0-4.064,1.008c-2.372.83-3.915,1.62-5.333,5.576-1.411,3.937-2.836,11.414-5.015,23.26C54.633,50.063,53.693,55.5,53.327,58.766c-.4,3.53-.064,4.337.53,5.248a7.858,7.858,0,0,0,6.75,3.473,10.97,10.97,0,0,0,7.329-2.964c2.468-2.213,2.722-3.18,6.785-25.869,2.592-13.826,4.066-24.45,3.817-25.7-.33-1.318-1.565-2.523-3.478-3.392A10.3,10.3,0,0,0,71.153,8.471ZM19,74.531c-7.318,0-12.439-.035-15.352-.212C1.022,74.16,0,73.886,0,73.343,0,70.932,2.7,58.027,3.562,56.3a30.08,30.08,0,0,1,5.555-7A155.791,155.791,0,0,1,21.034,38.993C35.445,27.38,38.167,23.58,38.167,15.076c0-3.86-2.8-6.453-6.958-6.453a11.434,11.434,0,0,0-3.559.6c-3.913,1.276-6.187,4.217-6.955,8.991l-.509,3.732H9.5l1.018-4.5c1.8-7.366,4.21-10.89,9.923-14.5C23.1,1.272,27.259.311,31.84.311A29.372,29.372,0,0,1,37.588.86a19.18,19.18,0,0,1,4.989,1.664,11.313,11.313,0,0,1,5.1,5.428,13.977,13.977,0,0,1,1.092,7.972,36.871,36.871,0,0,1-1.676,7.282,26.178,26.178,0,0,1-3.275,6.32c-2.714,3.887-6.931,8.03-14.557,14.3-7.283,5.984-10.828,9.179-13.082,11.789a12.682,12.682,0,0,0-3.541,7.464l-.34,2.544,13.825.255,13.909.254L39.439,69.7a19.229,19.229,0,0,1-1.018,4.156C38.261,74.252,30.275,74.531,19,74.531Z" transform="translate(29.5 49.649)" fill="red"/>
  </g>
</svg>
