<svg width="128" height="128" viewBox="0 0 128 128" fill="none" xmlns="http://www.w3.org/2000/svg">
<circle cx="64" cy="64" r="64" fill="#11072D"/>
<path d="M18.2448 86L18.9266 82.1648L35.8868 66.3977C37.8755 64.5511 39.5303 62.9389 40.8513 61.5611C42.1865 60.1832 43.2235 58.8906 43.9621 57.6832C44.7149 56.4759 45.205 55.2045 45.4323 53.8693C45.688 52.3352 45.553 51.0071 45.0274 49.8849C44.5019 48.7628 43.6709 47.8963 42.5345 47.2855C41.3982 46.6747 40.0345 46.3693 38.4436 46.3693C36.7675 46.3693 35.2405 46.7173 33.8627 47.4134C32.4848 48.0952 31.3414 49.0611 30.4323 50.3111C29.5232 51.5469 28.9266 52.9886 28.6425 54.6364H23.6141C24.0402 52.0795 25.0132 49.8352 26.5331 47.9034C28.0672 45.9716 29.9493 44.4659 32.1794 43.3864C34.4238 42.3068 36.8243 41.767 39.3811 41.767C41.938 41.767 44.1042 42.3068 45.8797 43.3864C47.6553 44.4659 48.9408 45.9219 49.7363 47.7543C50.5317 49.5866 50.7448 51.625 50.3755 53.8693C50.0914 55.4886 49.5303 57.0582 48.6922 58.5781C47.8542 60.098 46.5686 61.7955 44.8357 63.6705C43.1169 65.5312 40.7874 67.804 37.847 70.4886L26.3414 80.9716L26.2561 81.3125H46.5402L45.7732 86H18.2448ZM61.5206 86.5966C58.3104 86.5966 55.7252 85.723 53.7649 83.9759C51.8047 82.2145 50.5121 79.6648 49.8871 76.3267C49.2621 72.9744 49.3331 68.9261 50.1002 64.1818C50.8672 59.4659 52.1243 55.4389 53.8715 52.1009C55.6186 48.7486 57.7706 46.1918 60.3274 44.4304C62.8843 42.6548 65.7536 41.767 68.9354 41.767C72.1172 41.767 74.6953 42.6548 76.6698 44.4304C78.6584 46.206 79.9794 48.7628 80.6328 52.1009C81.3005 55.4389 81.2365 59.4659 80.4411 64.1818C79.6456 68.9261 78.3743 72.9673 76.6272 76.3054C74.88 79.6435 72.728 82.1932 70.1712 83.9545C67.6144 85.7159 64.7309 86.5966 61.5206 86.5966ZM62.2877 81.9091C65.4837 81.9091 68.2181 80.375 70.4908 77.3068C72.7777 74.2244 74.3899 69.8494 75.3274 64.1818C75.9524 60.4034 76.0803 57.1861 75.711 54.5298C75.3416 51.8736 74.5178 49.8494 73.2394 48.4574C71.961 47.0653 70.2706 46.3693 68.1684 46.3693C65.0149 46.3693 62.3019 47.9247 60.0291 51.0355C57.7564 54.1321 56.1513 58.5142 55.2138 64.1818C54.5888 67.9602 54.4539 71.1705 54.809 73.8125C55.1641 76.4545 55.9738 78.4645 57.238 79.8423C58.5022 81.2202 60.1854 81.9091 62.2877 81.9091ZM80.7922 86.2727C79.9286 86.2727 79.207 85.9773 78.6274 85.3864C78.0479 84.7841 77.7468 84.0568 77.724 83.2045C77.7127 82.3523 78.0138 81.642 78.6274 81.0739C79.2411 80.4943 79.9627 80.2045 80.7922 80.2045C81.6331 80.2045 82.3604 80.5 82.974 81.0909C83.5877 81.6818 83.8831 82.3864 83.8604 83.2045C83.849 83.7727 83.7013 84.2898 83.4172 84.7557C83.1445 85.2216 82.7752 85.5909 82.3093 85.8636C81.8547 86.1364 81.349 86.2727 80.7922 86.2727ZM95.6146 86.4773C93.6146 86.4773 91.876 86.0795 90.3987 85.2841C88.9214 84.4886 87.8135 83.3977 87.0748 82.0114C86.3362 80.625 86.0691 79.0455 86.2737 77.2727H90.3646C90.2623 78.8409 90.768 80.142 91.8816 81.1761C93.0066 82.2102 94.4555 82.7273 96.2282 82.7273C97.6601 82.7273 98.9896 82.392 100.217 81.7216C101.456 81.0511 102.49 80.1307 103.319 78.9602C104.16 77.7898 104.706 76.4545 104.956 74.9545C105.206 73.4318 105.098 72.0682 104.632 70.8636C104.166 69.6591 103.41 68.7102 102.365 68.017C101.319 67.3239 100.046 66.9773 98.5464 66.9773C97.4896 66.9773 96.3703 67.1477 95.1885 67.4886C94.018 67.8182 93.0237 68.2386 92.2055 68.75L88.3191 68.2727L93.2964 51.0909H111.433L110.819 54.8409H96.2282L93.2964 65.1364H93.501C94.3191 64.5568 95.2907 64.0852 96.4157 63.7216C97.5521 63.3466 98.7169 63.1591 99.9101 63.1591C102.046 63.1591 103.865 63.6705 105.365 64.6932C106.876 65.7045 107.961 67.0966 108.62 68.8693C109.291 70.6307 109.433 72.6364 109.046 74.8864C108.683 77.1136 107.859 79.1023 106.575 80.8523C105.302 82.5909 103.711 83.9659 101.802 84.9773C99.9044 85.9773 97.8419 86.4773 95.6146 86.4773Z" fill="white"/>
</svg>
