<svg width="128" height="128" viewBox="0 0 128 128" fill="none" xmlns="http://www.w3.org/2000/svg">
<circle cx="64" cy="64" r="64" fill="#180B3B"/>
<path d="M17.8698 86L18.5516 82.1648L35.5118 66.3977C37.5005 64.5511 39.1553 62.9389 40.4763 61.5611C41.8115 60.1832 42.8485 58.8906 43.5871 57.6832C44.3399 56.4759 44.83 55.2045 45.0573 53.8693C45.313 52.3352 45.178 51.0071 44.6524 49.8849C44.1269 48.7628 43.2959 47.8963 42.1595 47.2855C41.0232 46.6747 39.6595 46.3693 38.0686 46.3693C36.3925 46.3693 34.8655 46.7173 33.4877 47.4134C32.1098 48.0952 30.9664 49.0611 30.0573 50.3111C29.1482 51.5469 28.5516 52.9886 28.2675 54.6364H23.2391C23.6652 52.0795 24.6382 49.8352 26.1581 47.9034C27.6922 45.9716 29.5743 44.4659 31.8044 43.3864C34.0488 42.3068 36.4493 41.767 39.0061 41.767C41.563 41.767 43.7292 42.3068 45.5047 43.3864C47.2803 44.4659 48.5658 45.9219 49.3613 47.7543C50.1567 49.5866 50.3698 51.625 50.0005 53.8693C49.7164 55.4886 49.1553 57.0582 48.3172 58.5781C47.4792 60.098 46.1936 61.7955 44.4607 63.6705C42.7419 65.5312 40.4124 67.804 37.472 70.4886L25.9664 80.9716L25.8811 81.3125H46.1652L45.3982 86H17.8698ZM61.1456 86.5966C57.9354 86.5966 55.3502 85.723 53.3899 83.9759C51.4297 82.2145 50.1371 79.6648 49.5121 76.3267C48.8871 72.9744 48.9581 68.9261 49.7252 64.1818C50.4922 59.4659 51.7493 55.4389 53.4965 52.1009C55.2436 48.7486 57.3956 46.1918 59.9524 44.4304C62.5093 42.6548 65.3786 41.767 68.5604 41.767C71.7422 41.767 74.3203 42.6548 76.2948 44.4304C78.2834 46.206 79.6044 48.7628 80.2578 52.1009C80.9255 55.4389 80.8615 59.4659 80.0661 64.1818C79.2706 68.9261 77.9993 72.9673 76.2522 76.3054C74.505 79.6435 72.353 82.1932 69.7962 83.9545C67.2394 85.7159 64.3559 86.5966 61.1456 86.5966ZM61.9127 81.9091C65.1087 81.9091 67.8431 80.375 70.1158 77.3068C72.4027 74.2244 74.0149 69.8494 74.9524 64.1818C75.5774 60.4034 75.7053 57.1861 75.336 54.5298C74.9666 51.8736 74.1428 49.8494 72.8644 48.4574C71.586 47.0653 69.8956 46.3693 67.7934 46.3693C64.6399 46.3693 61.9269 47.9247 59.6541 51.0355C57.3814 54.1321 55.7763 58.5142 54.8388 64.1818C54.2138 67.9602 54.0789 71.1705 54.434 73.8125C54.7891 76.4545 55.5988 78.4645 56.863 79.8423C58.1272 81.2202 59.8104 81.9091 61.9127 81.9091ZM80.4172 86.2727C79.5536 86.2727 78.832 85.9773 78.2524 85.3864C77.6729 84.7841 77.3718 84.0568 77.349 83.2045C77.3377 82.3523 77.6388 81.642 78.2524 81.0739C78.8661 80.4943 79.5877 80.2045 80.4172 80.2045C81.2581 80.2045 81.9854 80.5 82.599 81.0909C83.2127 81.6818 83.5081 82.3864 83.4854 83.2045C83.474 83.7727 83.3263 84.2898 83.0422 84.7557C82.7695 85.2216 82.4002 85.5909 81.9343 85.8636C81.4797 86.1364 80.974 86.2727 80.4172 86.2727ZM96.1941 86.4773C94.7282 86.4659 93.3078 86.1875 91.9328 85.642C90.5578 85.0966 89.3703 84.1932 88.3703 82.9318C87.3703 81.6591 86.6828 79.9375 86.3078 77.767C85.9441 75.5966 86.0351 72.8864 86.5805 69.6364C87.0919 66.5795 87.8248 63.875 88.7794 61.5227C89.7453 59.1591 90.8987 57.1705 92.2396 55.5568C93.5805 53.9318 95.0862 52.7045 96.7566 51.875C98.4385 51.0341 100.251 50.6136 102.194 50.6136C104.126 50.6136 105.802 51.0057 107.223 51.7898C108.654 52.5625 109.757 53.642 110.529 55.0284C111.313 56.4034 111.694 58 111.671 59.8182H107.649C107.592 58.2273 107.109 56.9205 106.2 55.8977C105.302 54.875 103.921 54.3636 102.058 54.3636C99.3532 54.3636 96.9896 55.517 94.9669 57.8239C92.9441 60.1307 91.5578 63.5 90.8078 67.9318L91.0805 67.6591C91.876 66.7045 92.7566 65.892 93.7226 65.2216C94.6885 64.5511 95.7169 64.0398 96.8078 63.6875C97.9101 63.3352 99.0464 63.1591 100.217 63.1591C102.262 63.1591 104.052 63.6705 105.586 64.6932C107.12 65.7159 108.251 67.1193 108.978 68.9034C109.706 70.6875 109.876 72.7273 109.49 75.0227C109.126 77.1364 108.331 79.0682 107.103 80.8182C105.887 82.5568 104.342 83.9432 102.467 84.9773C100.603 86 98.5123 86.5 96.1941 86.4773ZM96.3305 82.7273C97.7851 82.7273 99.1601 82.358 100.456 81.6193C101.751 80.8807 102.848 79.8864 103.745 78.6364C104.643 77.3864 105.217 76 105.467 74.4773C105.694 73.0909 105.592 71.8239 105.16 70.6761C104.728 69.5284 104.029 68.6136 103.063 67.9318C102.098 67.25 100.921 66.9091 99.5351 66.9091C98.4328 66.9091 97.3589 67.1307 96.3135 67.5739C95.2794 68.017 94.3362 68.625 93.4839 69.3977C92.643 70.1591 91.9385 71.0284 91.3703 72.0057C90.8021 72.983 90.4328 74.0114 90.2623 75.0909C90.0351 76.4318 90.1373 77.6818 90.5691 78.8409C91.001 80 91.7112 80.9375 92.6998 81.6534C93.6885 82.3693 94.8987 82.7273 96.3305 82.7273Z" fill="white"/>
</svg>
