<svg width="128" height="128" viewBox="0 0 128 128" fill="none" xmlns="http://www.w3.org/2000/svg">
<circle cx="64" cy="64" r="64" fill="#1F0F4A"/>
<path d="M19.1354 86L19.8172 82.1648L36.7774 66.3977C38.7661 64.5511 40.4209 62.9389 41.7419 61.5611C43.0772 60.1832 44.1141 58.8906 44.8527 57.6832C45.6056 56.4759 46.0956 55.2045 46.3229 53.8693C46.5786 52.3352 46.4436 51.0071 45.9181 49.8849C45.3925 48.7628 44.5615 47.8963 43.4252 47.2855C42.2888 46.6747 40.9252 46.3693 39.3343 46.3693C37.6581 46.3693 36.1311 46.7173 34.7533 47.4134C33.3755 48.0952 32.232 49.0611 31.3229 50.3111C30.4138 51.5469 29.8172 52.9886 29.5331 54.6364H24.5047C24.9309 52.0795 25.9039 49.8352 27.4238 47.9034C28.9578 45.9716 30.8399 44.4659 33.0701 43.3864C35.3144 42.3068 37.7149 41.767 40.2718 41.767C42.8286 41.767 44.9948 42.3068 46.7703 43.3864C48.5459 44.4659 49.8314 45.9219 50.6269 47.7543C51.4223 49.5866 51.6354 51.625 51.2661 53.8693C50.982 55.4886 50.4209 57.0582 49.5828 58.5781C48.7448 60.098 47.4593 61.7955 45.7263 63.6705C44.0076 65.5312 41.678 67.804 38.7377 70.4886L27.232 80.9716L27.1468 81.3125H47.4309L46.6638 86H19.1354ZM62.4113 86.5966C59.201 86.5966 56.6158 85.723 54.6556 83.9759C52.6953 82.2145 51.4027 79.6648 50.7777 76.3267C50.1527 72.9744 50.2238 68.9261 50.9908 64.1818C51.7578 59.4659 53.0149 55.4389 54.7621 52.1009C56.5093 48.7486 58.6613 46.1918 61.2181 44.4304C63.7749 42.6548 66.6442 41.767 69.826 41.767C73.0078 41.767 75.586 42.6548 77.5604 44.4304C79.549 46.206 80.8701 48.7628 81.5235 52.1009C82.1911 55.4389 82.1272 59.4659 81.3317 64.1818C80.5363 68.9261 79.2649 72.9673 77.5178 76.3054C75.7706 79.6435 73.6186 82.1932 71.0618 83.9545C68.505 85.7159 65.6215 86.5966 62.4113 86.5966ZM63.1783 81.9091C66.3743 81.9091 69.1087 80.375 71.3814 77.3068C73.6684 74.2244 75.2806 69.8494 76.2181 64.1818C76.8431 60.4034 76.9709 57.1861 76.6016 54.5298C76.2323 51.8736 75.4084 49.8494 74.13 48.4574C72.8516 47.0653 71.1613 46.3693 69.059 46.3693C65.9056 46.3693 63.1925 47.9247 60.9198 51.0355C58.647 54.1321 57.0419 58.5142 56.1044 64.1818C55.4794 67.9602 55.3445 71.1705 55.6996 73.8125C56.0547 76.4545 56.8644 78.4645 58.1286 79.8423C59.3928 81.2202 61.076 81.9091 63.1783 81.9091ZM81.6828 86.2727C80.8192 86.2727 80.0976 85.9773 79.5181 85.3864C78.9385 84.7841 78.6374 84.0568 78.6147 83.2045C78.6033 82.3523 78.9044 81.642 79.5181 81.0739C80.1317 80.4943 80.8533 80.2045 81.6828 80.2045C82.5238 80.2045 83.251 80.5 83.8647 81.0909C84.4783 81.6818 84.7738 82.3864 84.751 83.2045C84.7397 83.7727 84.5919 84.2898 84.3078 84.7557C84.0351 85.2216 83.6658 85.5909 83.1999 85.8636C82.7453 86.1364 82.2397 86.2727 81.6828 86.2727ZM86.7552 86L107.482 55.1136L107.551 54.8409H89.5507L90.1643 51.0909H112.528L111.846 55.0455L91.187 86H86.7552Z" fill="white"/>
</svg>
