<svg width="128" height="128" viewBox="0 0 128 128" fill="none" xmlns="http://www.w3.org/2000/svg">
<circle cx="64" cy="64" r="64" fill="#2D1766"/>
<path d="M17.8698 86L18.5516 82.1648L35.5118 66.3977C37.5005 64.5511 39.1553 62.9389 40.4763 61.5611C41.8115 60.1832 42.8485 58.8906 43.5871 57.6832C44.3399 56.4759 44.83 55.2045 45.0573 53.8693C45.313 52.3352 45.178 51.0071 44.6524 49.8849C44.1269 48.7628 43.2959 47.8963 42.1595 47.2855C41.0232 46.6747 39.6595 46.3693 38.0686 46.3693C36.3925 46.3693 34.8655 46.7173 33.4877 47.4134C32.1098 48.0952 30.9664 49.0611 30.0573 50.3111C29.1482 51.5469 28.5516 52.9886 28.2675 54.6364H23.2391C23.6652 52.0795 24.6382 49.8352 26.1581 47.9034C27.6922 45.9716 29.5743 44.4659 31.8044 43.3864C34.0488 42.3068 36.4493 41.767 39.0061 41.767C41.563 41.767 43.7292 42.3068 45.5047 43.3864C47.2803 44.4659 48.5658 45.9219 49.3613 47.7543C50.1567 49.5866 50.3698 51.625 50.0005 53.8693C49.7164 55.4886 49.1553 57.0582 48.3172 58.5781C47.4792 60.098 46.1936 61.7955 44.4607 63.6705C42.7419 65.5312 40.4124 67.804 37.472 70.4886L25.9664 80.9716L25.8811 81.3125H46.1652L45.3982 86H17.8698ZM61.1456 86.5966C57.9354 86.5966 55.3502 85.723 53.3899 83.9759C51.4297 82.2145 50.1371 79.6648 49.5121 76.3267C48.8871 72.9744 48.9581 68.9261 49.7252 64.1818C50.4922 59.4659 51.7493 55.4389 53.4965 52.1009C55.2436 48.7486 57.3956 46.1918 59.9524 44.4304C62.5093 42.6548 65.3786 41.767 68.5604 41.767C71.7422 41.767 74.3203 42.6548 76.2948 44.4304C78.2834 46.206 79.6044 48.7628 80.2578 52.1009C80.9255 55.4389 80.8615 59.4659 80.0661 64.1818C79.2706 68.9261 77.9993 72.9673 76.2522 76.3054C74.505 79.6435 72.353 82.1932 69.7962 83.9545C67.2394 85.7159 64.3559 86.5966 61.1456 86.5966ZM61.9127 81.9091C65.1087 81.9091 67.8431 80.375 70.1158 77.3068C72.4027 74.2244 74.0149 69.8494 74.9524 64.1818C75.5774 60.4034 75.7053 57.1861 75.336 54.5298C74.9666 51.8736 74.1428 49.8494 72.8644 48.4574C71.586 47.0653 69.8956 46.3693 67.7934 46.3693C64.6399 46.3693 61.9269 47.9247 59.6541 51.0355C57.3814 54.1321 55.7763 58.5142 54.8388 64.1818C54.2138 67.9602 54.0789 71.1705 54.434 73.8125C54.7891 76.4545 55.5988 78.4645 56.863 79.8423C58.1272 81.2202 59.8104 81.9091 61.9127 81.9091ZM80.4172 86.2727C79.5536 86.2727 78.832 85.9773 78.2524 85.3864C77.6729 84.7841 77.3718 84.0568 77.349 83.2045C77.3377 82.3523 77.6388 81.642 78.2524 81.0739C78.8661 80.4943 79.5877 80.2045 80.4172 80.2045C81.2581 80.2045 81.9854 80.5 82.599 81.0909C83.2127 81.6818 83.5081 82.3864 83.4854 83.2045C83.474 83.7727 83.3263 84.2898 83.0422 84.7557C82.7695 85.2216 82.4002 85.5909 81.9343 85.8636C81.4797 86.1364 80.974 86.2727 80.4172 86.2727ZM101.171 50.6136C102.637 50.625 104.058 50.9034 105.433 51.4489C106.808 51.983 107.995 52.8807 108.995 54.142C109.995 55.4034 110.677 57.1136 111.041 59.2727C111.416 61.4205 111.331 64.125 110.785 67.3864C110.274 70.4545 109.535 73.1761 108.569 75.5511C107.615 77.9148 106.467 79.9091 105.126 81.5341C103.785 83.1591 102.274 84.392 100.592 85.233C98.9214 86.0625 97.1146 86.4773 95.1714 86.4773C93.2396 86.4773 91.5578 86.0909 90.126 85.3182C88.7055 84.5341 87.6032 83.4489 86.8191 82.0625C86.0464 80.6648 85.6714 79.0455 85.6941 77.2045H89.7169C89.7851 78.8409 90.2623 80.1705 91.1487 81.1932C92.0464 82.2159 93.4328 82.7273 95.3078 82.7273C98.001 82.7273 100.359 81.5739 102.382 79.267C104.416 76.9489 105.808 73.5568 106.558 69.0909L106.285 69.3636C105.49 70.3182 104.609 71.1307 103.643 71.8011C102.677 72.4716 101.649 72.983 100.558 73.3352C99.4669 73.6875 98.3305 73.8636 97.1487 73.8636C95.1032 73.8636 93.3135 73.3523 91.7794 72.3295C90.2453 71.3068 89.1146 69.9034 88.3873 68.1193C87.6601 66.3352 87.4896 64.2955 87.876 62C88.2396 59.8864 89.0294 57.9659 90.2453 56.2386C91.4726 54.5 93.018 53.1193 94.8816 52.0966C96.7566 51.0739 98.8532 50.5795 101.171 50.6136ZM101.035 54.3636C99.5805 54.3636 98.2055 54.7273 96.9101 55.4545C95.6146 56.1818 94.518 57.1648 93.6203 58.4034C92.7226 59.642 92.1487 61.0227 91.8987 62.5455C91.6714 63.9318 91.7737 65.1989 92.2055 66.3466C92.6373 67.4943 93.3362 68.4091 94.3021 69.0909C95.268 69.7727 96.4441 70.1136 97.8305 70.1136C98.9441 70.1136 100.018 69.892 101.052 69.4489C102.086 69.0057 103.024 68.4034 103.865 67.642C104.717 66.8693 105.427 65.9943 105.995 65.017C106.563 64.0284 106.933 63 107.103 61.9318C107.331 60.5909 107.228 59.3466 106.796 58.1989C106.365 57.0511 105.654 56.125 104.666 55.4205C103.677 54.7159 102.467 54.3636 101.035 54.3636Z" fill="white"/>
</svg>
