<svg xmlns="http://www.w3.org/2000/svg" xmlns:xlink="http://www.w3.org/1999/xlink" width="175" height="175" viewBox="0 0 175 175"><defs><clipPath id="b"><rect width="175" height="175"/></clipPath></defs><g id="a" clip-path="url(#b)"><circle cx="87.5" cy="87.5" r="87.5" fill="#360900"/><g transform="translate(-9.819 10.201)"><path d="M53.471,68.6A20.037,20.037,0,0,1,44.884,67a12.386,12.386,0,0,1-4.669-4.054,9.481,9.481,0,0,1-1.787-5.322c0-1.691,1.882-12.91,3.747-23.278,1.8-10,3.992-21.465,4.554-22.99a15.923,15.923,0,0,1,5.207-6.542A22.832,22.832,0,0,1,60.486.749,19.965,19.965,0,0,1,65.463,0a24.109,24.109,0,0,1,5.322.749,14.094,14.094,0,0,1,6.687,3.3c2.03,1.877,3.055,3.6,3.026,7.84-.029,4.266-1.12,10.956-3.257,22.6-1.964,11-4.095,21.121-4.688,22.826a16.29,16.29,0,0,1-4.592,6.216,19.022,19.022,0,0,1-7.013,4.083A27.3,27.3,0,0,1,53.471,68.6ZM64.477,7.676a11.4,11.4,0,0,0-3.683.913c-2.15.752-3.548,1.468-4.833,5.053-1.278,3.567-2.57,10.343-4.544,21.078-1.91,10.646-2.762,15.574-3.093,18.533-.359,3.2-.058,3.93.481,4.755a7.121,7.121,0,0,0,6.117,3.147,9.941,9.941,0,0,0,6.641-2.686c2.237-2.006,2.467-2.882,6.149-23.441C70.06,22.5,71.4,12.871,71.169,11.74a5.167,5.167,0,0,0-3.151-3.074A9.336,9.336,0,0,0,64.477,7.676ZM17.216,67.538c-6.632,0-11.272-.032-13.911-.192C.927,67.2,0,66.954,0,66.462c0-2.185,2.444-13.879,3.228-15.448a27.258,27.258,0,0,1,5.034-6.341,141.175,141.175,0,0,1,10.8-9.338C32.119,24.811,34.586,21.368,34.586,13.661c0-3.5-2.534-5.847-6.3-5.847a10.361,10.361,0,0,0-3.225.544c-3.545,1.156-5.607,3.821-6.3,8.147l-.461,3.382H8.608l.923-4.073c1.63-6.675,3.815-9.869,8.992-13.143C20.936,1.153,24.7.282,28.853.282a26.616,26.616,0,0,1,5.209.5,17.381,17.381,0,0,1,4.521,1.508A10.251,10.251,0,0,1,43.2,7.206a12.666,12.666,0,0,1,.989,7.224,33.412,33.412,0,0,1-1.519,6.6,23.722,23.722,0,0,1-2.967,5.727c-2.459,3.522-6.281,7.277-13.191,12.96C19.916,45.138,16.7,48.034,14.66,50.4a11.492,11.492,0,0,0-3.208,6.763l-.308,2.305,12.528.231,12.6.23-.537,3.228a17.425,17.425,0,0,1-.923,3.766C34.671,67.285,27.434,67.538,17.216,67.538Z" transform="translate(35.131 43)" fill="#fff"/><path d="M61.491-53.945s-4.03,7.9-4.213,8.332c-.244.611.733.794,4.213.794h4.58l3.738-9.126Z" transform="translate(52.104 156.125)" fill="#fff"/><path d="M12.182,56.6A15.967,15.967,0,0,1,5.228,55.28a10.089,10.089,0,0,1-3.781-3.345A7.921,7.921,0,0,1,0,47.544c0-1.4,1.524-10.652,3.034-19.206,1.457-8.254,3.233-17.71,3.688-18.968a13.1,13.1,0,0,1,4.217-5.4A18.345,18.345,0,0,1,17.863.618,15.89,15.89,0,0,1,21.893,0,19.184,19.184,0,0,1,26.2.618a11.334,11.334,0,0,1,5.415,2.727c1.644,1.549,2.474,2.974,2.451,6.468-.024,3.519-.907,9.04-2.637,18.643-1.59,9.073-3.316,17.426-3.8,18.833a13.431,13.431,0,0,1-3.719,5.128,15.339,15.339,0,0,1-5.68,3.369A21.725,21.725,0,0,1,12.182,56.6ZM21.095,6.333a9.093,9.093,0,0,0-2.983.753c-1.741.621-2.873,1.211-3.914,4.169s-2.081,8.533-3.68,17.391C8.972,37.43,8.282,41.5,8.013,43.937c-.29,2.639-.047,3.243.389,3.923a5.736,5.736,0,0,0,4.954,2.6,7.971,7.971,0,0,0,5.378-2.216c1.811-1.655,2-2.378,4.979-19.341,1.9-10.337,2.984-18.28,2.8-19.214A4.226,4.226,0,0,0,23.963,7.15,7.452,7.452,0,0,0,21.095,6.333Z" transform="translate(125.438 55)" fill="#fff"/></g></g></svg>