<svg width="128" height="128" viewBox="0 0 128 128" fill="none" xmlns="http://www.w3.org/2000/svg">
<circle cx="64" cy="64" r="64" fill="#351C75"/>
<path d="M25.7019 95L26.6792 89.5028L50.9888 66.9034C53.8392 64.2566 56.2111 61.9458 58.1046 59.9709C60.0184 57.996 61.5047 56.1432 62.5634 54.4126C63.6425 52.6821 64.3449 50.8598 64.6707 48.946C65.0371 46.7472 64.8437 44.8435 64.0904 43.2351C63.3371 41.6267 62.146 40.3847 60.5172 39.5092C58.8885 38.6338 56.9339 38.196 54.6536 38.196C52.2511 38.196 50.0625 38.6948 48.0876 39.6925C46.1127 40.6697 44.4737 42.0542 43.1707 43.8459C41.8676 45.6172 41.0125 47.6837 40.6053 50.0455H33.3979C34.0087 46.3807 35.4034 43.1638 37.5819 40.3949C39.7807 37.6259 42.4784 35.4678 45.6749 33.9205C48.8918 32.3731 52.3326 31.5994 55.9974 31.5994C59.6621 31.5994 62.767 32.3731 65.312 33.9205C67.857 35.4678 69.6995 37.5547 70.8397 40.1811C71.9798 42.8075 72.2852 45.7292 71.7559 48.946C71.3487 51.267 70.5445 53.5168 69.3432 55.6953C68.142 57.8738 66.2994 60.3068 63.8155 62.9943C61.352 65.6615 58.013 68.919 53.7985 72.767L37.307 87.7926L37.1849 88.2812H66.2587L65.1593 95H25.7019ZM99.8244 32.4545L89.4409 95H81.867L90.9068 40.3949H90.5403L73.5602 50.5341L74.9039 42.8381L92.2505 32.4545H99.8244Z" fill="white"/>
</svg>
