<svg width="128" height="128" viewBox="0 0 128 128" fill="none" xmlns="http://www.w3.org/2000/svg">
<circle cx="64" cy="64" r="64" fill="#00DDFF"/>
<path d="M60.1648 99.9545C55.6193 99.9545 51.6761 99.1932 48.3352 97.6705C45.017 96.125 42.5398 93.9773 40.9034 91.2273C39.267 88.4545 38.6875 85.2273 39.1648 81.5455H47.6193C47.4148 83.7727 47.8011 85.7045 48.7784 87.3409C49.7784 88.9773 51.2557 90.2386 53.2102 91.125C55.1875 92.0114 57.5511 92.4545 60.3011 92.4545C63.233 92.4545 65.983 91.9432 68.5511 90.9205C71.142 89.8977 73.3125 88.4205 75.0625 86.4886C76.8125 84.5341 77.892 82.2045 78.3011 79.5C78.6648 77.0682 78.392 74.9091 77.483 73.0227C76.5739 71.1364 75.0057 69.6591 72.7784 68.5909C70.5739 67.5 67.6875 66.9545 64.1193 66.9545H58.392L59.6193 59.4545H64.9375C67.7102 59.4545 70.2557 58.9318 72.5739 57.8864C74.892 56.8409 76.8239 55.375 78.3693 53.4886C79.9148 51.5795 80.892 49.3409 81.3011 46.7727C81.6875 44.5227 81.5284 42.5682 80.8239 40.9091C80.142 39.2273 78.9602 37.9205 77.2784 36.9886C75.6193 36.0568 73.5057 35.5909 70.9375 35.5909C68.483 35.5909 66.0739 36.0341 63.7102 36.9205C61.3693 37.7841 59.3693 39.0455 57.7102 40.7045C56.0511 42.3409 55.0057 44.3182 54.5739 46.6364H46.392C47.0966 43 48.6761 39.8068 51.1307 37.0568C53.5852 34.2841 56.5739 32.125 60.0966 30.5795C63.642 29.0114 67.392 28.2273 71.3466 28.2273C75.733 28.2273 79.3466 29.1364 82.1875 30.9545C85.0511 32.75 87.0966 35.1136 88.3239 38.0455C89.5511 40.9545 89.892 44.0909 89.3466 47.4545C88.733 51.2955 87.1534 54.5455 84.608 57.2045C82.0625 59.8636 78.9602 61.75 75.3011 62.8636V63.2727C79.5966 64.0227 82.7102 66 84.642 69.2045C86.5966 72.3864 87.2102 76.1818 86.483 80.5909C85.8466 84.5455 84.3125 87.9773 81.8807 90.8864C79.4489 93.7727 76.3693 96.0114 72.642 97.6023C68.9148 99.1705 64.7557 99.9545 60.1648 99.9545Z" fill="black"/>
</svg>
