<svg xmlns="http://www.w3.org/2000/svg" xmlns:xlink="http://www.w3.org/1999/xlink" width="175" height="175" viewBox="0 0 175 175">
  <defs>
    <clipPath id="clip-_3">
      <rect width="175" height="175"/>
    </clipPath>
  </defs>
  <g id="_3" data-name="3" clip-path="url(#clip-_3)">
    <circle id="楕円形_90" data-name="楕円形 90" cx="87.5" cy="87.5" r="87.5" fill="#0df"/>
    <path id="パス_101" data-name="パス 101" d="M86.5-137.6c-11.8,3.7-18.9,11.7-20.2,22.7l-.6,4.9h6.7c4.4,0,6.8-.4,7.1-1.3.2-.6.9-3.2,1.5-5.6A13.123,13.123,0,0,1,90.9-127c5.3-1.4,9.9-.2,12.5,3.3,1.9,2.5,1.9,3.2.8,9.9-.7,4-2,8.3-2.8,9.6C99.3-101,92.5-98,87.2-98c-4.6,0-5.2.7-6.6,8.2L79.9-86h3.8c6,0,11.2,1.9,13,4.7,1.6,2.4,1.6,3.2-.1,12.6-.9,5.6-2.2,11.3-2.9,12.6-3.3,6.9-15.7,9.6-21.3,4.8-2.9-2.6-3.2-4.6-1.9-14l.8-5.7h-7c-8.2,0-8-.4-9,12.7-.6,7.8-.4,8.5,2.1,12.3,4.3,6.5,9.3,8.5,21.1,8.5,11.2,0,16.1-1.6,22.9-7.5,5.3-4.7,7.3-9.2,9.6-22.2,2.7-14.7,1.5-19.8-5.1-23L103-91.7l4.9-3.2c6.9-4.4,10-10.8,10.8-22.2.6-9.2-.3-12.3-4.9-16.6C108.6-138.6,95.6-140.5,86.5-137.6Z" transform="translate(0.559 175.734)"/>
  </g>
</svg>
