<svg xmlns="http://www.w3.org/2000/svg" xmlns:xlink="http://www.w3.org/1999/xlink" width="175" height="175" viewBox="0 0 175 175">
  <defs>
    <clipPath id="clip-_5">
      <rect width="175" height="175"/>
    </clipPath>
  </defs>
  <g id="_5" data-name="5" clip-path="url(#clip-_5)">
    <circle id="楕円形_90" data-name="楕円形 90" cx="87.5" cy="87.5" r="87.5" fill="#0fa"/>
    <path id="パス_103" data-name="パス 103" d="M69.9-137.8c-.7,1.9-9.5,51.5-9.2,52,.2.5,3.3.8,6.8.8,6.5,0,6.5,0,7.9-3.5,2.8-6.5,14.5-9.7,20-5.4C97.5-92.3,98-91,98-87.7c0,5.8-4,27.6-5.7,30.9-2.7,5.4-13.2,8.5-18.6,5.6-4.2-2.2-4.8-3.9-4.2-11.1l.6-6.8-6.8.3-6.8.3-1.2,6C53.2-51.8,56-45.3,64.6-41c4.1,2.1,6.3,2.5,13.4,2.5,7-.1,9.5-.5,14-2.7a30.116,30.116,0,0,0,14-12.7c2-4.1,7-30.4,7-37.1,0-6.3-2.7-11-8.1-13.8-6.8-3.6-18.1-2.5-27,2.5-.3.2.4-4.9,1.6-11.4l2.1-11.8,19.1-.3,19.1-.2.7-4.6a43.091,43.091,0,0,1,1.2-6c.4-1.2-3.9-1.4-25.6-1.4C81.7-138,70-137.9,69.9-137.8Z" transform="translate(-0.633 175.75)"/>
  </g>
</svg>
