<svg width="128" height="128" viewBox="0 0 128 128" fill="none" xmlns="http://www.w3.org/2000/svg">
<circle cx="64" cy="64" r="64" fill="#00FFAA"/>
<path d="M59.8423 99.9545C55.8423 99.9545 52.3651 99.1591 49.4105 97.5682C46.456 95.9773 44.2401 93.7955 42.7628 91.0227C41.2855 88.25 40.7514 85.0909 41.1605 81.5455H49.3423C49.1378 84.6818 50.1491 87.2841 52.3764 89.3523C54.6264 91.4205 57.5241 92.4545 61.0696 92.4545C63.9332 92.4545 66.5923 91.7841 69.0469 90.4432C71.5241 89.1023 73.5923 87.2614 75.2514 84.9205C76.9332 82.5795 78.0241 79.9091 78.5241 76.9091C79.0241 73.8636 78.8082 71.1364 77.8764 68.7273C76.9446 66.3182 75.4332 64.4205 73.3423 63.0341C71.2514 61.6477 68.706 60.9545 65.706 60.9545C63.5923 60.9545 61.3537 61.2955 58.9901 61.9773C56.6491 62.6364 54.6605 63.4773 53.0241 64.5L45.2514 63.5455L55.206 29.1818H91.4787L90.2514 36.6818H61.0696L55.206 57.2727H55.6151C57.2514 56.1136 59.1946 55.1705 61.4446 54.4432C63.7173 53.6932 66.0469 53.3182 68.4332 53.3182C72.706 53.3182 76.3423 54.3409 79.3423 56.3864C82.3651 58.4091 84.5355 61.1932 85.8537 64.7386C87.1946 68.2614 87.4787 72.2727 86.706 76.7727C85.9787 81.2273 84.331 85.2045 81.7628 88.7045C79.2173 92.1818 76.0355 94.9318 72.2173 96.9545C68.4219 98.9545 64.2969 99.9545 59.8423 99.9545Z" fill="black"/>
</svg>
