<svg xmlns="http://www.w3.org/2000/svg" xmlns:xlink="http://www.w3.org/1999/xlink" width="175" height="175" viewBox="0 0 175 175">
  <defs>
    <clipPath id="clip-_9">
      <rect width="175" height="175"/>
    </clipPath>
  </defs>
  <g id="_9" data-name="9" clip-path="url(#clip-_9)">
    <circle id="楕円形_90" data-name="楕円形 90" cx="87.5" cy="87.5" r="87.5" fill="#cf0"/>
    <path id="パス_107" data-name="パス 107" d="M85.3-137.1c-13.3,4.5-17.1,9.9-20.7,28.9C63.2-100.6,62-93.1,62-91.4c0,4.8,4,11.5,8.2,13.7,5.6,2.8,15.2,2.6,22.1-.6l5.4-2.5-1.4,7.7c-3.2,17.6-3.3,17.9-6.8,21-9.3,8.1-22,2.8-19.6-8.2.5-2,.6-3.8.3-4.1-.3-.4-3.4-.6-6.8-.6-6,0-6.4.2-6.9,2.5-.3,1.4-.7,3.6-1,5-.9,4.1,1.4,10.7,4.8,14.3,6.3,6.6,20.4,8,31.5,3.2,6.3-2.7,13.3-10.1,15-15.6.6-2.2,3.6-17.8,6.6-34.8,6.2-34.3,6.2-35.5.5-42.1C108.4-138.7,95.8-140.8,85.3-137.1Zm14.1,10.5c5.2,2.2,5.7,5.1,3.1,19.1-2.4,13.1-3.4,15.7-6.9,18-6.8,4.5-15.4,3.7-18.1-1.6-1.4-2.7-1.4-3.9.5-14.7,2.5-14.3,4.2-17.9,9.5-20.3C92.3-128.3,95-128.4,99.4-126.6Z" transform="translate(0.791 175.541)"/>
  </g>
</svg>
