<svg width="128" height="128" viewBox="0 0 128 128" fill="none" xmlns="http://www.w3.org/2000/svg">
<circle cx="64" cy="64" r="64" fill="#CCFF00"/>
<path d="M70.456 28.2273C73.3878 28.25 76.2287 28.8068 78.9787 29.8977C81.7287 30.9659 84.1037 32.7614 86.1037 35.2841C88.1037 37.8068 89.4673 41.2273 90.1946 45.5455C90.9446 49.8409 90.7742 55.25 89.6832 61.7727C88.6605 67.9091 87.1832 73.3523 85.2514 78.1023C83.3423 82.8295 81.0469 86.8182 78.3651 90.0682C75.6832 93.3182 72.6605 95.7841 69.2969 97.4659C65.956 99.125 62.3423 99.9545 58.456 99.9545C54.5923 99.9545 51.2287 99.1818 48.3651 97.6364C45.5241 96.0682 43.3196 93.8977 41.7514 91.125C40.206 88.3295 39.456 85.0909 39.5014 81.4091H47.5469C47.6832 84.6818 48.6378 87.3409 50.4105 89.3864C52.206 91.4318 54.9787 92.4545 58.7287 92.4545C64.1151 92.4545 68.831 90.1477 72.8764 85.5341C76.9446 80.8977 79.7287 74.1136 81.2287 65.1818L80.6832 65.7273C79.0923 67.6364 77.331 69.2614 75.3991 70.6023C73.4673 71.9432 71.4105 72.9659 69.2287 73.6705C67.0469 74.375 64.7741 74.7273 62.4105 74.7273C58.3196 74.7273 54.7401 73.7045 51.6719 71.6591C48.6037 69.6136 46.3423 66.8068 44.8878 63.2386C43.4332 59.6705 43.0923 55.5909 43.8651 51C44.5923 46.7727 46.1719 42.9318 48.6037 39.4773C51.0582 36 54.1491 33.2386 57.8764 31.1932C61.6264 29.1477 65.8196 28.1591 70.456 28.2273ZM70.1832 35.7273C67.2741 35.7273 64.5241 36.4545 61.9332 37.9091C59.3423 39.3636 57.1491 41.3295 55.3537 43.8068C53.5582 46.2841 52.4105 49.0455 51.9105 52.0909C51.456 54.8636 51.6605 57.3977 52.5241 59.6932C53.3878 61.9886 54.7855 63.8182 56.7173 65.1818C58.6491 66.5455 61.0014 67.2273 63.7741 67.2273C66.0014 67.2273 68.1491 66.7841 70.2173 65.8977C72.2855 65.0114 74.1605 63.8068 75.8423 62.2841C77.5469 60.7386 78.9673 58.9886 80.1037 57.0341C81.2401 55.0568 81.9787 53 82.3196 50.8636C82.7741 48.1818 82.5696 45.6932 81.706 43.3977C80.8423 41.1023 79.4219 39.25 77.4446 37.8409C75.4673 36.4318 73.0469 35.7273 70.1832 35.7273Z" fill="black"/>
</svg>
