<svg xmlns="http://www.w3.org/2000/svg" xmlns:xlink="http://www.w3.org/1999/xlink" width="512" height="512" viewBox="0 0 512 512">
  <defs>
    <clipPath id="clip-speed">
      <rect width="512" height="512"/>
    </clipPath>
  </defs>
  <g id="speed" clip-path="url(#clip-speed)">
    <path id="パス_38" data-name="パス 38" d="M13595.91,5304.049c13.051-.636,28.127,1.131,93.025,29.623,64.875,28.468,117.854,33.993,96.488,7.1s-88.549-26.1-135.238-67.219c-46.666-41.153-54.605-75.935-20.59-68.833,34.041,7.138,196.182,103.638,192.246,81.494-3.957-22.143-79.127-61.707-93.33-96.512s3.156-72.767,56.912-13.439c53.779,59.316,150.057,144.4,159.785,149.491s37.973,26.878,17.408,53.768c-20.588,26.9-30.812,27.691-23.721,39.576,7.113,11.837,47.467,71.954,49.021,86.217,1.578,14.229,7.938,39.54-9.471,32.414s-113.943-123.39-80.682-56.147c33.191,67.243,44.264,97.3-4.781,62.46-49.045-34.781-25.277-47.443-71.143-38.727-45.887,8.681-69.609,1.578-89.4-12.662s-22.119-27.7-57.738-28.492-62.52,7.138-73.613,41.153c-11.049,34-88.551,74.357-58.492,10.283,30.082-64.086,37.973-91.765,0-29.281-37.949,62.508-70.41,60.918-63.25,29.281,7.09-31.648,33.238-92.555,57.715-108.361,24.521-15.842,38.727-30.082,24.521-48.256-14.205-18.209-18.773-29.258-5.348-41.119S13582.813,5304.674,13595.91,5304.049Z" transform="translate(-13478.354 -5096.267)" fill="#fff"/>
  </g>
</svg>
