<svg xmlns="http://www.w3.org/2000/svg" width="58.199" height="58.2" viewBox="0 0 58.199 58.2">
  <path id="Icon_awesome-steam" data-name="Icon awesome-steam" d="M58.2,29.662A29.153,29.153,0,0,1,1.009,37.595L12.18,42.206A8.246,8.246,0,0,0,28.5,40.2l9.915-7.064A10.972,10.972,0,1,0,27.668,22.165v.141L20.722,32.361a8.215,8.215,0,0,0-5.1,1.42L0,27.327a29.149,29.149,0,0,1,58.2,2.335ZM18.27,44.717l-3.579-1.478a6.187,6.187,0,0,0,11.288-.305,6.179,6.179,0,0,0-7.9-8.155l3.7,1.525a4.558,4.558,0,0,1-3.508,8.413ZM38.663,29.475a7.31,7.31,0,1,1,7.322-7.31A7.329,7.329,0,0,1,38.663,29.475Zm.012-1.83a5.491,5.491,0,1,0-5.5-5.491A5.5,5.5,0,0,0,38.675,27.644Z" transform="translate(0 -0.563)" fill="#fff"/>
</svg>
