<svg width="14" height="14" viewBox="0 0 14 14" fill="none" xmlns="http://www.w3.org/2000/svg">
<path fill-rule="evenodd" clip-rule="evenodd" d="M7 12.5C3.96243 12.5 1.5 10.0376 1.5 7C1.5 3.96243 3.96243 1.5 7 1.5C10.0376 1.5 12.5 3.96243 12.5 7H14C14 3.13401 10.866 0 7 0C3.13401 0 0 3.13401 0 7C0 10.866 3.13401 14 7 14V12.5ZM11 7C11 4.79086 9.20914 3 7 3C4.79086 3 3 4.79086 3 7C3 9.20914 4.79086 11 7 11V9.5C5.61929 9.5 4.5 8.38071 4.5 7C4.5 5.61929 5.61929 4.5 7 4.5C8.38071 4.5 9.5 5.61929 9.5 7H11ZM8 7C8 6.44772 7.55228 6 7 6C6.44772 6 6 6.44772 6 7C6 7.55228 6.44772 8 7 8V7H8Z" fill="white"/>
<path d="M9.14507 8L10.9904 9.84531L12.8357 8H14V9.12671L12.1359 10.9908L14 12.8549V14H12.854L10.9904 12.1363L9.12671 14H8V12.8357L9.84486 10.9908L8 9.14596V8H9.14507Z" fill="white"/>
</svg>
