<svg xmlns="http://www.w3.org/2000/svg" xmlns:xlink="http://www.w3.org/1999/xlink" width="64" height="64" viewBox="0 0 64 64">
  <defs>
    <clipPath id="clip-_1">
      <rect width="64" height="64"/>
    </clipPath>
  </defs>
  <g id="_1" data-name="1" clip-path="url(#clip-_1)">
    <g id="타원_1" data-name="타원 1" fill="none" stroke="#fff" stroke-width="3">
      <circle cx="32" cy="32" r="32" stroke="none"/>
      <circle cx="32" cy="32" r="30.5" fill="none"/>
    </g>
    <path id="패스_1" data-name="패스 1" d="M16.25-28.633V0H10.1V-21.68a7.368,7.368,0,0,1-1.2.85,12.4,12.4,0,0,1-1.475.723,13.167,13.167,0,0,1-1.621.547,11.84,11.84,0,0,1-1.66.322v-5.2a25.664,25.664,0,0,0,4.531-1.8,25.787,25.787,0,0,0,3.848-2.4Z" transform="translate(19.805 46.316)" fill="#fff"/>
  </g>
</svg>
