<svg xmlns="http://www.w3.org/2000/svg" xmlns:xlink="http://www.w3.org/1999/xlink" width="64" height="64" viewBox="0 0 64 64">
  <defs>
    <clipPath id="clip-path">
      <rect id="長方形_54" data-name="長方形 54" width="64" height="64"/>
    </clipPath>
  </defs>
  <g id="_1" data-name="1" clip-path="url(#clip-path)">
    <g id="_1-2" data-name="1" clip-path="url(#clip-path)">
      <g id="circles" fill="none" stroke="#fff" stroke-width="4">
        <circle cx="32" cy="32" r="32" stroke="none"/>
        <circle cx="32" cy="32" r="30" fill="none"/>
      </g>
      <path id="path_e" d="M-12.579-14.714,2.6-3.806A4.593,4.593,0,0,1,3.668,2.6,4.593,4.593,0,0,1-2.74,3.669,4.435,4.435,0,0,1-3.807,2.6L-14.715-12.578a1.531,1.531,0,0,1,.162-1.973,1.531,1.531,0,0,1,1.973-.163Z" transform="matrix(-0.766, 0.643, -0.643, -0.766, 32, 32)" fill="#fff"/>
      <path id="progress_e" d="M0-23a1,1,0,0,1-1-1,1,1,0,0,1,1-1A25,25,0,0,1,25,0a1,1,0,0,1-1,1,1,1,0,0,1-1-1A23,23,0,0,0,0-23" transform="translate(32 32)" fill="#fff"/>
    </g>
  </g>
</svg>
