<svg width="64" height="64" viewBox="0 0 64 64" fill="none" xmlns="http://www.w3.org/2000/svg">
<path d="M32 62C48.5685 62 62 48.5685 62 32C62 15.4315 48.5685 2 32 2C15.4315 2 2 15.4315 2 32C2 48.5685 15.4315 62 32 62Z" stroke="white" stroke-width="4"/>
<path d="M51.0967 35.1827L32.4558 36.5872C31.2415 36.6821 30.0392 36.2908 29.1134 35.4994C28.1875 34.708 27.6139 33.5812 27.5186 32.367C27.4714 31.7655 27.5431 31.1605 27.7297 30.5868C27.9162 30.013 28.214 29.4816 28.606 29.0229C28.998 28.5642 29.4765 28.1873 30.0142 27.9136C30.5519 27.6399 31.1383 27.4748 31.7398 27.4278C32.2452 27.3857 32.7542 27.4306 33.2445 27.5605L51.3595 32.173C51.7106 32.2632 52.0184 32.4751 52.228 32.7709C52.4375 33.0667 52.5354 33.4273 52.504 33.7885C52.4725 34.1497 52.3138 34.488 52.0563 34.7432C51.7987 34.9984 51.459 35.1539 51.0975 35.182L51.0967 35.1827Z" fill="white"/>
<path d="M32 9C31.7348 9 31.4804 8.89464 31.2929 8.70711C31.1054 8.51957 31 8.26522 31 8C31 7.73478 31.1054 7.48043 31.2929 7.29289C31.4804 7.10536 31.7348 7 32 7C38.6304 7 44.9893 9.63392 49.6777 14.3223C54.3661 19.0107 57 25.3696 57 32C57 32.2652 56.8946 32.5196 56.7071 32.7071C56.5196 32.8946 56.2652 33 56 33C55.7348 33 55.4804 32.8946 55.2929 32.7071C55.1054 32.5196 55 32.2652 55 32C55 25.9 52.5768 20.0499 48.2635 15.7365C43.9501 11.4232 38.1 9 32 9Z" fill="white"/>
</svg>
