<svg xmlns="http://www.w3.org/2000/svg" xmlns:xlink="http://www.w3.org/1999/xlink" width="64" height="64" viewBox="0 0 64 64">
  <defs>
    <clipPath id="clip-_10">
      <rect width="64" height="64"/>
    </clipPath>
  </defs>
  <g id="_10" data-name="10" clip-path="url(#clip-_10)">
    <g id="타원_1" data-name="타원 1" fill="none" stroke="#fff" stroke-width="3">
      <circle cx="32" cy="32" r="32" stroke="none"/>
      <circle cx="32" cy="32" r="30.5" fill="none"/>
    </g>
    <path id="패스_10" data-name="패스 10" d="M16.25-28.633V0H10.1V-21.68a7.368,7.368,0,0,1-1.2.85,12.4,12.4,0,0,1-1.475.723,13.167,13.167,0,0,1-1.621.547,11.84,11.84,0,0,1-1.66.322v-5.2a25.664,25.664,0,0,0,4.531-1.8,25.787,25.787,0,0,0,3.848-2.4ZM34.355.488q-10,0-10-14.043,0-7.285,2.705-11.1A9.013,9.013,0,0,1,34.9-28.477q9.766,0,9.766,14.277Q44.668-7.09,42-3.3A8.782,8.782,0,0,1,34.355.488Zm.273-24.258q-4,0-4,10.059,0,9.473,3.926,9.473,3.828,0,3.828-9.766T34.629-23.77Z" transform="translate(7.596 46.072)" fill="#fff"/>
  </g>
</svg>
