<svg xmlns="http://www.w3.org/2000/svg" xmlns:xlink="http://www.w3.org/1999/xlink" width="64" height="64" viewBox="0 0 64 64">
  <defs>
    <clipPath id="clip-_10">
      <rect width="64" height="64"/>
    </clipPath>
  </defs>
  <g id="_10" data-name="10" clip-path="url(#clip-_10)">
    <g id="타원_1" data-name="타원 1" fill="none" stroke="#fff" stroke-width="4">
      <circle cx="32" cy="32" r="32" stroke="none"/>
      <circle cx="32" cy="32" r="30" fill="none"/>
    </g>
    <path id="패스_7" data-name="패스 7" d="M16.26-6.987a7.7,7.7,0,0,1-.542,2.9A7.08,7.08,0,0,1,14.209-1.75,6.981,6.981,0,0,1,11.909-.2,7.405,7.405,0,0,1,8.994.366,7.353,7.353,0,0,1,5.823-.293,6.4,6.4,0,0,1,3.457-2.2,8.938,8.938,0,0,1,1.978-5.273,15.166,15.166,0,0,1,1.465-9.39,16.947,16.947,0,0,1,2.131-14.3a11.283,11.283,0,0,1,1.9-3.772,8.554,8.554,0,0,1,3-2.424,8.908,8.908,0,0,1,3.955-.857,9.976,9.976,0,0,1,3.779.571v3.867a6.93,6.93,0,0,0-3.486-.908,4.872,4.872,0,0,0-2.124.454,4.7,4.7,0,0,0-1.633,1.289A6.233,6.233,0,0,0,6.453-14.07a8.964,8.964,0,0,0-.417,2.629h.088a5.1,5.1,0,0,1,4.409-2.065,5.745,5.745,0,0,1,2.358.469,5.116,5.116,0,0,1,1.8,1.326A6.081,6.081,0,0,1,15.85-9.653,8.211,8.211,0,0,1,16.26-6.987Zm-4.526.293q0-3.384-2.769-3.384a2.716,2.716,0,0,0-1.143.234,2.542,2.542,0,0,0-.879.659,3.007,3.007,0,0,0-.564,1,3.944,3.944,0,0,0-.2,1.282,4.957,4.957,0,0,0,.205,1.45A3.851,3.851,0,0,0,6.965-4.27a2.865,2.865,0,0,0,.886.8,2.262,2.262,0,0,0,1.143.293,2.474,2.474,0,0,0,1.135-.256,2.542,2.542,0,0,0,.864-.718,3.3,3.3,0,0,0,.549-1.113A5.078,5.078,0,0,0,11.733-6.694ZM30.3-21.006V-7.764h2.52v3.457H30.3V0H26.082V-4.307H16.927V-7.925q1.216-1.362,2.52-2.981t2.52-3.333q1.216-1.714,2.263-3.45a34.582,34.582,0,0,0,1.78-3.318ZM21.073-7.764h5.01V-15.1q-.513.952-1.113,1.926t-1.26,1.919q-.659.945-1.333,1.831T21.073-7.764Zm25.842,2.08H42.4v4.512H40.036V-5.684H35.5V-8.062h4.535V-12.6H42.4v4.535h4.512Z" transform="translate(8 43)" fill="#fff"/>
  </g>
</svg>
