<svg width="64" height="64" viewBox="0 0 64 64" fill="none" xmlns="http://www.w3.org/2000/svg">
<path d="M32 62C48.5685 62 62 48.5685 62 32C62 15.4315 48.5685 2 32 2C15.4315 2 2 15.4315 2 32C2 48.5685 15.4315 62 32 62Z" stroke="white" stroke-width="4"/>
<path d="M24.26 36.013C24.2679 37.0056 24.0838 37.9903 23.718 38.913C23.3744 39.7841 22.8616 40.5785 22.209 41.25C21.5537 41.9153 20.7716 42.4424 19.909 42.8C18.9855 43.1836 17.9939 43.3761 16.994 43.366C15.9011 43.3848 14.8178 43.1596 13.823 42.707C12.8926 42.2705 12.0811 41.6164 11.457 40.8C10.7713 39.8801 10.2691 38.8368 9.97795 37.727C9.61917 36.3847 9.44655 34.9994 9.46495 33.61C9.4452 31.9496 9.6696 30.2952 10.131 28.7C10.5212 27.3343 11.1658 26.0545 12.031 24.928C12.8334 23.9022 13.8595 23.0731 15.031 22.504C16.2661 21.9187 17.6193 21.6255 18.986 21.647C20.2706 21.592 21.5539 21.7859 22.765 22.218V26.085C21.7033 25.4803 20.5007 25.1671 19.279 25.177C18.5458 25.1666 17.8198 25.3218 17.155 25.631C16.5212 25.9333 15.9632 26.3737 15.522 26.92C15.0452 27.5187 14.6829 28.2001 14.453 28.93C14.1839 29.7807 14.0433 30.6668 14.036 31.559H14.124C14.6285 30.8745 15.2961 30.3271 16.0661 29.9664C16.8362 29.6058 17.6842 29.4434 18.533 29.494C19.3432 29.4823 20.1468 29.6421 20.891 29.963C21.5814 30.2669 22.196 30.7197 22.691 31.289C23.2081 31.8927 23.6018 32.5919 23.85 33.347C24.1326 34.207 24.2712 35.1078 24.26 36.013ZM19.734 36.306C19.734 34.05 18.811 32.922 16.965 32.922C16.5715 32.9163 16.1815 32.9961 15.822 33.156C15.4844 33.309 15.1844 33.5339 14.943 33.815C14.6925 34.109 14.501 34.4485 14.379 34.815C14.242 35.2284 14.1744 35.6616 14.179 36.097C14.1751 36.5878 14.2442 37.0765 14.384 37.547C14.5082 37.9718 14.7047 38.372 14.965 38.73C15.2008 39.0559 15.5027 39.3285 15.851 39.53C16.1993 39.7271 16.5937 39.8282 16.994 39.823C17.3873 39.8291 17.7764 39.7414 18.129 39.567C18.4669 39.3951 18.7621 39.1498 18.993 38.849C19.2447 38.5161 19.431 38.1384 19.542 37.736C19.6734 37.2709 19.7377 36.7893 19.733 36.306H19.734ZM38.3 21.994V35.236H40.82V38.693H38.3V43H34.082V38.693H24.927V35.075C25.7376 34.167 26.5776 33.1733 27.447 32.094C28.3163 31.0147 29.1563 29.9037 29.967 28.761C30.7776 27.6183 31.532 26.4683 32.23 25.311C32.8831 24.2382 33.4773 23.1305 34.01 21.993L38.3 21.994ZM29.073 35.236H34.083V27.9C33.741 28.5347 33.37 29.1767 32.97 29.826C32.57 30.4753 32.15 31.115 31.71 31.745C31.2706 32.375 30.8263 32.9853 30.377 33.576C29.9276 34.1667 29.493 34.72 29.073 35.236ZM54.915 37.316H50.4V41.828H48.036V37.316H43.5V34.938H48.035V30.4H50.4V34.935H54.912L54.915 37.316Z" fill="white"/>
</svg>
