<svg width="64" height="64" viewBox="0 0 64 64" fill="none" xmlns="http://www.w3.org/2000/svg">
<path d="M32 62C48.5685 62 62 48.5685 62 32C62 15.4315 48.5685 2 32 2C15.4315 2 2 15.4315 2 32C2 48.5685 15.4315 62 32 62Z" stroke="white" stroke-width="4"/>
<path d="M12.9033 28.8173L31.5442 27.4128C32.7585 27.3179 33.9608 27.7092 34.8866 28.5006C35.8125 29.292 36.3861 30.4188 36.4814 31.633C36.5286 32.2345 36.4569 32.8395 36.2703 33.4132C36.0838 33.987 35.786 34.5184 35.394 34.9771C35.002 35.4358 34.5235 35.8127 33.9858 36.0864C33.4481 36.3601 32.8617 36.5252 32.2602 36.5722C31.7548 36.6143 31.2458 36.5694 30.7555 36.4395L12.6405 31.827C12.2894 31.7368 11.9816 31.5249 11.772 31.2291C11.5625 30.9333 11.4646 30.5727 11.496 30.2115C11.5275 29.8503 11.6862 29.512 11.9437 29.2568C12.2013 29.0016 12.541 28.8461 12.9025 28.818L12.9033 28.8173Z" fill="white"/>
<path d="M32 9C31.7348 9 31.4804 8.89464 31.2929 8.70711C31.1054 8.51957 31 8.26522 31 8C31 7.73478 31.1054 7.48043 31.2929 7.29289C31.4804 7.10536 31.7348 7 32 7C38.6304 7 44.9893 9.63392 49.6777 14.3223C54.3661 19.0107 57 25.3696 57 32C57 38.6304 54.3661 44.9893 49.6777 49.6777C44.9893 54.3661 38.6304 57 32 57C25.3696 57 19.0107 54.3661 14.3223 49.6777C9.63392 44.9893 7 38.6304 7 32C7 31.7348 7.10536 31.4804 7.29289 31.2929C7.48043 31.1054 7.73478 31 8 31C8.26522 31 8.51957 31.1054 8.70711 31.2929C8.89464 31.4804 9 31.7348 9 32C9 38.1 11.4232 43.9501 15.7365 48.2635C20.0499 52.5768 25.9 55 32 55C38.1 55 43.9501 52.5768 48.2635 48.2635C52.5768 43.9501 55 38.1 55 32C55 25.9 52.5768 20.0499 48.2635 15.7365C43.9501 11.4232 38.1 9 32 9Z" fill="white"/>
</svg>
