<svg xmlns="http://www.w3.org/2000/svg" xmlns:xlink="http://www.w3.org/1999/xlink" width="64" height="64" viewBox="0 0 64 64">
  <defs>
    <clipPath id="clip-_12">
      <rect width="64" height="64"/>
    </clipPath>
  </defs>
  <g id="_12" data-name="12" clip-path="url(#clip-_12)">
    <g id="타원_1" data-name="타원 1" fill="none" stroke="#fff" stroke-width="3">
      <circle cx="32" cy="32" r="32" stroke="none"/>
      <circle cx="32" cy="32" r="30.5" fill="none"/>
    </g>
    <path id="패스_12" data-name="패스 12" d="M16.25-28.633V0H10.1V-21.68a7.368,7.368,0,0,1-1.2.85,12.4,12.4,0,0,1-1.475.723,13.167,13.167,0,0,1-1.621.547,11.84,11.84,0,0,1-1.66.322v-5.2a25.664,25.664,0,0,0,4.531-1.8,25.787,25.787,0,0,0,3.848-2.4ZM31.387-5.117H43.262V0H24.629V-2.109a9.818,9.818,0,0,1,.723-3.857,12.8,12.8,0,0,1,1.816-3.066,15.756,15.756,0,0,1,2.393-2.4q1.3-1.045,2.471-1.885,1.23-.879,2.158-1.68a12.3,12.3,0,0,0,1.563-1.592,6.052,6.052,0,0,0,.947-1.6,4.763,4.763,0,0,0,.313-1.729A3.474,3.474,0,0,0,36-22.637a4.515,4.515,0,0,0-3.105-.918,10.43,10.43,0,0,0-6.914,2.871v-5.43a14.842,14.842,0,0,1,8.242-2.363,12.173,12.173,0,0,1,3.818.557A8.078,8.078,0,0,1,40.9-26.328a6.789,6.789,0,0,1,1.787,2.51,8.47,8.47,0,0,1,.615,3.291,9.279,9.279,0,0,1-.6,3.438,10.563,10.563,0,0,1-1.582,2.734A14.35,14.35,0,0,1,38.848-12.1q-1.289,1.025-2.676,1.982-.937.664-1.807,1.318A17.127,17.127,0,0,0,32.832-7.51a7,7,0,0,0-1.055,1.24A2.141,2.141,0,0,0,31.387-5.117Z" transform="translate(8 46)" fill="#fff"/>
  </g>
</svg>
