<svg width="64" height="64" viewBox="0 0 64 64" fill="none" xmlns="http://www.w3.org/2000/svg">
<path d="M32 62C48.5685 62 62 48.5685 62 32C62 15.4315 48.5685 2 32 2C15.4315 2 2 15.4315 2 32C2 48.5685 15.4315 62 32 62Z" stroke="white" stroke-width="4"/>
<path d="M17.9999 32C20.9999 32 22.9999 34 22.9999 36V44C23.0193 44.1359 23.0068 44.2743 22.9634 44.4045C22.92 44.5347 22.8469 44.6529 22.7498 44.75C22.6528 44.847 22.5346 44.9201 22.4044 44.9635C22.2742 45.0069 22.1357 45.0194 21.9999 45H9.9999C9.72823 45.0388 9.45127 45.0138 9.19094 44.927C8.93061 44.8402 8.69406 44.694 8.50001 44.4999C8.30597 44.3059 8.15976 44.0693 8.07295 43.809C7.98615 43.5487 7.96114 43.2717 7.9999 43V33C7.98052 32.8642 7.99303 32.7257 8.03643 32.5955C8.07983 32.4654 8.15294 32.3471 8.24996 32.2501C8.34698 32.1531 8.46526 32.08 8.59542 32.0366C8.72559 31.9932 8.86407 31.9806 8.9999 32H17.9999ZM53.9999 19C54.2716 18.9613 54.5485 18.9863 54.8089 19.0731C55.0692 19.1599 55.3057 19.3061 55.4998 19.5001C55.6938 19.6942 55.84 19.9307 55.9269 20.1911C56.0137 20.4514 56.0387 20.7284 55.9999 21V31C56.0193 31.1359 56.0068 31.2743 55.9634 31.4045C55.92 31.5347 55.8469 31.6529 55.7498 31.75C55.6528 31.847 55.5345 31.9201 55.4044 31.9635C55.2742 32.0069 55.1357 32.0194 54.9999 32H45.9999C42.9999 32 40.9999 30 40.9999 28V20C40.9805 19.8642 40.993 19.7257 41.0364 19.5955C41.0798 19.4654 41.1529 19.3471 41.25 19.2501C41.347 19.1531 41.4653 19.08 41.5954 19.0366C41.7256 18.9932 41.8641 18.9806 41.9999 19H53.9999ZM35.9999 19C36.1357 18.9806 36.2742 18.9932 36.4044 19.0366C36.5345 19.08 36.6528 19.1531 36.7498 19.2501C36.8469 19.3471 36.92 19.4654 36.9634 19.5955C37.0068 19.7257 37.0193 19.8642 36.9999 20V27C37.0097 27.3107 36.9172 27.6161 36.7365 27.869C36.5558 28.122 36.297 28.3085 35.9999 28.4L26.9999 31.3C25.6666 31.7667 24.7332 31.6667 24.1999 31L21.1999 27C17.9999 23 19.9999 19 23.9999 19H35.9999ZM27.9999 45C27.8641 45.0194 27.7256 45.0069 27.5954 44.9635C27.4653 44.9201 27.347 44.847 27.25 44.75C27.1529 44.6529 27.0798 44.5347 27.0364 44.4045C26.993 44.2743 26.9805 44.1359 26.9999 44V37C26.9829 36.6994 27.0746 36.4027 27.2582 36.1641C27.4417 35.9254 27.705 35.7607 27.9999 35.7L36.9999 32.7C38.3332 32.2334 39.2666 32.3334 39.7999 33L42.7999 37C45.9999 41 43.9999 45 39.9999 45" fill="white"/>
</svg>
