<svg xmlns="http://www.w3.org/2000/svg" xmlns:xlink="http://www.w3.org/1999/xlink" width="64" height="64" viewBox="0 0 64 64">
  <defs>
    <clipPath id="clip-_13">
      <rect width="64" height="64"/>
    </clipPath>
  </defs>
  <g id="_13" data-name="13" clip-path="url(#clip-_13)">
    <g id="타원_1" data-name="타원 1" fill="none" stroke="#fff" stroke-width="3">
      <circle cx="32" cy="32" r="32" stroke="none"/>
      <circle cx="32" cy="32" r="30.5" fill="none"/>
    </g>
    <path id="패스_13" data-name="패스 13" d="M16.25-28.633V0H10.1V-21.68a7.368,7.368,0,0,1-1.2.85,12.4,12.4,0,0,1-1.475.723,13.167,13.167,0,0,1-1.621.547,11.84,11.84,0,0,1-1.66.322v-5.2a25.664,25.664,0,0,0,4.531-1.8,25.787,25.787,0,0,0,3.848-2.4ZM25.293-.918V-6.289a10.841,10.841,0,0,0,6.563,2.051,5.908,5.908,0,0,0,3.682-1.016,3.372,3.372,0,0,0,1.318-2.832,3.219,3.219,0,0,0-1.631-2.891,8.449,8.449,0,0,0-4.482-1.016h-2.6v-4.727h2.4q5.469,0,5.469-3.633,0-3.418-4.2-3.418a9.574,9.574,0,0,0-5.469,1.816v-5.039a15.1,15.1,0,0,1,6.875-1.484,10.375,10.375,0,0,1,6.689,1.934,6.154,6.154,0,0,1,2.393,5.02q0,5.488-5.566,6.875v.1a7.567,7.567,0,0,1,4.688,2.158,6.085,6.085,0,0,1,1.719,4.385A7.515,7.515,0,0,1,40.273-1.8Q37.4.488,32.344.488A15.326,15.326,0,0,1,25.293-.918Z" transform="translate(8.357 46.072)" fill="#fff"/>
  </g>
</svg>
