<svg xmlns="http://www.w3.org/2000/svg" xmlns:xlink="http://www.w3.org/1999/xlink" width="64" height="64" viewBox="0 0 64 64">
  <defs>
    <clipPath id="clip-_13">
      <rect width="64" height="64"/>
    </clipPath>
  </defs>
  <g id="_13" data-name="13" clip-path="url(#clip-_13)">
    <g id="_3" data-name="3">
      <g id="circles_1" fill="none" stroke="#fff" stroke-width="4">
        <circle cx="32" cy="32" r="32" stroke="none"/>
        <circle cx="32" cy="32" r="30" fill="none"/>
      </g>
      <path id="icon_1" d="M-14,0c3,0,5,2,5,4v8a.884.884,0,0,1-1,1H-22a1.768,1.768,0,0,1-2-2V1a.884.884,0,0,1,1-1M22-13a1.768,1.768,0,0,1,2,2V-1a.884.884,0,0,1-1,1H14C11,0,9-2,9-4v-8a.884.884,0,0,1,1-1M4-13a.884.884,0,0,1,1,1v7A1.418,1.418,0,0,1,4-3.6L-5-.7Q-7,0-7.8-1l-3-4C-14-9-12-13-8-13m4,26a.884.884,0,0,1-1-1V5A1.255,1.255,0,0,1-4,3.7l9-3Q7,0,7.8,1l3,4C14,9,12,13,8,13" transform="translate(32 32)" fill="#fff"/>
    </g>
  </g>
</svg>
