<svg xmlns="http://www.w3.org/2000/svg" xmlns:xlink="http://www.w3.org/1999/xlink" width="64" height="64" viewBox="0 0 64 64">
  <defs>
    <clipPath id="clip-_14">
      <rect width="64" height="64"/>
    </clipPath>
  </defs>
  <g id="_14" data-name="14" clip-path="url(#clip-_14)">
    <g id="패스_3" data-name="패스 3" fill="none">
      <path d="M32,0A32,32,0,1,1,0,32,32,32,0,0,1,32,0Z" stroke="none"/>
      <path d="M 32 4 C 28.21825790405273 4 24.55176544189453 4.739765167236328 21.10236358642578 6.198741912841797 C 17.76862335205078 7.608787536621094 14.77377700805664 9.628246307373047 12.20101165771484 12.20101165771484 C 9.628246307373047 14.77377700805664 7.608787536621094 17.76862335205078 6.198741912841797 21.10236358642578 C 4.739765167236328 24.55176544189453 4 28.21825790405273 4 32 C 4 35.78174209594727 4.739765167236328 39.44823455810547 6.198741912841797 42.89763641357422 C 7.608787536621094 46.23137664794922 9.628246307373047 49.22622299194336 12.20101165771484 51.79898834228516 C 14.77377700805664 54.37175369262695 17.76862335205078 56.39121246337891 21.10236358642578 57.8012580871582 C 24.55176544189453 59.26023483276367 28.21825790405273 60 32 60 C 35.78174209594727 60 39.44823455810547 59.26023483276367 42.89763641357422 57.8012580871582 C 46.23137664794922 56.39121246337891 49.22622299194336 54.37175369262695 51.79898834228516 51.79898834228516 C 54.37175369262695 49.22622299194336 56.39121246337891 46.23137664794922 57.8012580871582 42.89763641357422 C 59.26023483276367 39.44823455810547 60 35.78174209594727 60 32 C 60 28.21825790405273 59.26023483276367 24.55176544189453 57.8012580871582 21.10236358642578 C 56.39121246337891 17.76862335205078 54.37175369262695 14.77377700805664 51.79898834228516 12.20101165771484 C 49.22622299194336 9.628246307373047 46.23137664794922 7.608787536621094 42.89763641357422 6.198741912841797 C 39.44823455810547 4.739765167236328 35.78174209594727 4 32 4 M 32 0 C 49.6731071472168 0 64 14.3268928527832 64 32 C 64 49.6731071472168 49.6731071472168 64 32 64 C 14.3268928527832 64 0 49.6731071472168 0 32 C 0 14.3268928527832 14.3268928527832 0 32 0 Z" stroke="none" fill="#fff"/>
    </g>
    <path id="Icon_awesome-running" data-name="Icon awesome-running" d="M20.255,7.149a3.574,3.574,0,1,0-3.574-3.574A3.574,3.574,0,0,0,20.255,7.149ZM8.466,23.641l-1.1,2.571H2.383a2.383,2.383,0,0,0,0,4.766H8.151a3.567,3.567,0,0,0,3.285-2.166l.655-1.528-.795-.469A7.091,7.091,0,0,1,8.466,23.641ZM28.6,16.68H25.317l-1.941-3.965a7.145,7.145,0,0,0-4.6-3.793L13.482,7.347a7.119,7.119,0,0,0-6.02,1.276L4.508,10.888a2.383,2.383,0,0,0,2.9,3.781L10.364,12.4a2.319,2.319,0,0,1,1.882-.457l1.095.325-2.79,6.508a4.778,4.778,0,0,0,1.959,5.981L18.837,28.5,16.792,35.03a2.383,2.383,0,1,0,4.548,1.424L23.7,28.929a3.589,3.589,0,0,0-1.611-4.05l-4.56-2.691,2.332-5.829,1.509,3.085a3.6,3.6,0,0,0,3.21,2H28.6a2.383,2.383,0,1,0,0-4.765Z" transform="translate(16.511 12.937)" fill="#fff"/>
  </g>
</svg>
