<svg width="64" height="64" viewBox="0 0 64 64" fill="none" xmlns="http://www.w3.org/2000/svg">
<g clip-path="url(#clip0_1674_10130)">
<path d="M32 4C28.2183 4 24.5518 4.73977 21.1024 6.19874C17.7686 7.60879 14.7738 9.62825 12.201 12.201C9.62825 14.7738 7.60879 17.7686 6.19874 21.1024C4.73977 24.5518 4 28.2183 4 32C4 35.7817 4.73977 39.4482 6.19874 42.8976C7.60879 46.2314 9.62825 49.2262 12.201 51.799C14.7738 54.3718 17.7686 56.3912 21.1024 57.8013C24.5518 59.2602 28.2183 60 32 60C35.7817 60 39.4482 59.2602 42.8976 57.8013C46.2314 56.3912 49.2262 54.3718 51.799 51.799C54.3718 49.2262 56.3912 46.2314 57.8013 42.8976C59.2602 39.4482 60 35.7817 60 32C60 28.2183 59.2602 24.5518 57.8013 21.1024C56.3912 17.7686 54.3718 14.7738 51.799 12.201C49.2262 9.62825 46.2314 7.60879 42.8976 6.19874C39.4482 4.73977 35.7817 4 32 4ZM32 0C49.6731 0 64 14.3269 64 32C64 49.6731 49.6731 64 32 64C14.3269 64 0 49.6731 0 32C0 14.3269 14.3269 0 32 0Z" fill="white"/>
<path d="M36.766 20.086C37.4729 20.086 38.1639 19.8764 38.7516 19.4837C39.3393 19.0909 39.7974 18.5328 40.0679 17.8797C40.3384 17.2266 40.4092 16.508 40.2713 15.8147C40.1334 15.1214 39.793 14.4846 39.2932 13.9848C38.7934 13.485 38.1565 13.1446 37.4632 13.0067C36.77 12.8688 36.0513 12.9395 35.3983 13.21C34.7452 13.4806 34.187 13.9386 33.7943 14.5264C33.4016 15.1141 33.192 15.8051 33.192 16.512C33.192 17.4599 33.5685 18.3689 34.2388 19.0392C34.909 19.7094 35.8181 20.086 36.766 20.086ZM24.977 36.578L23.877 39.149H18.894C18.262 39.149 17.6559 39.4001 17.209 39.847C16.7621 40.2939 16.511 40.9 16.511 41.532C16.511 42.164 16.7621 42.7701 17.209 43.217C17.6559 43.6639 18.262 43.915 18.894 43.915H24.662C25.3616 43.9159 26.0461 43.711 26.6302 43.3259C27.2143 42.9408 27.6722 42.3924 27.947 41.749L28.602 40.221L27.807 39.752C26.5612 39.0084 25.5734 37.9006 24.977 36.578ZM45.111 29.617H41.828L39.887 25.652C39.4386 24.7258 38.7954 23.9074 38.0015 23.2528C37.2076 22.5981 36.2816 22.1227 35.287 21.859L29.993 20.284C28.958 20.0328 27.8799 20.0171 26.838 20.2379C25.7961 20.4588 24.8171 20.9105 23.973 21.56L21.019 23.825C20.5315 24.2144 20.2162 24.7794 20.1407 25.3987C20.0652 26.018 20.2356 26.6422 20.6153 27.1372C20.995 27.6323 21.5537 27.9587 22.1714 28.0463C22.7891 28.134 23.4166 27.9759 23.919 27.606L26.875 25.337C27.1372 25.1297 27.4412 24.9815 27.766 24.9026C28.0908 24.8237 28.4289 24.816 28.757 24.88L29.852 25.205L27.062 31.713C26.6086 32.7781 26.5573 33.9715 26.9176 35.0716C27.2779 36.1717 28.0253 37.1035 29.021 37.694L35.348 41.437L33.303 47.967C33.2056 48.2667 33.1686 48.5827 33.1941 48.8968C33.2196 49.2109 33.3072 49.5168 33.4517 49.7968C33.5963 50.0768 33.7949 50.3253 34.0362 50.5281C34.2774 50.7308 34.5565 50.8836 34.8572 50.9778C35.1579 51.072 35.4743 51.1055 35.7881 51.0766C36.1019 51.0477 36.4068 50.9568 36.6853 50.8092C36.9637 50.6616 37.2101 50.4603 37.4102 50.2169C37.6103 49.9734 37.7601 49.6927 37.851 49.391L40.211 41.866C40.4241 41.1077 40.3818 40.3003 40.0907 39.5684C39.7996 38.8365 39.2757 38.2207 38.6 37.816L34.04 35.125L36.372 29.296L37.881 32.381C38.1778 32.9793 38.6353 33.4833 39.2022 33.8365C39.7691 34.1897 40.4231 34.3782 41.091 34.381H45.111C45.428 34.3875 45.7431 34.3307 46.0378 34.2138C46.3325 34.097 46.601 33.9226 46.8275 33.7007C47.054 33.4788 47.2339 33.214 47.3567 32.9217C47.4795 32.6294 47.5428 32.3155 47.5428 31.9985C47.5428 31.6814 47.4795 31.3676 47.3567 31.0753C47.2339 30.783 47.054 30.5182 46.8275 30.2963C46.601 30.0744 46.3325 29.8999 46.0378 29.7831C45.7431 29.6663 45.428 29.6095 45.111 29.616V29.617Z" fill="white"/>
</g>
<defs>
<clipPath id="clip0_1674_10130">
<rect width="64" height="64" fill="white"/>
</clipPath>
</defs>
</svg>
