<svg width="64" height="64" viewBox="0 0 64 64" fill="none" xmlns="http://www.w3.org/2000/svg">
<path d="M32 62C48.5685 62 62 48.5685 62 32C62 15.4315 48.5685 2 32 2C15.4315 2 2 15.4315 2 32C2 48.5685 15.4315 62 32 62Z" stroke="white" stroke-width="4"/>
<path d="M9 40C7.33333 40 6.5 37.2 6.5 31.6C6.5 30.5333 6.83333 30 7.5 30H26C26.1358 29.9806 26.2743 29.9931 26.4045 30.0365C26.5346 30.0799 26.6529 30.153 26.7499 30.25C26.847 30.3471 26.9201 30.4653 26.9635 30.5955C27.0069 30.7257 27.0194 30.8641 27 31V39C27.0194 39.1358 27.0069 39.2743 26.9635 39.4045C26.9201 39.5346 26.847 39.6529 26.7499 39.7499C26.6529 39.847 26.5346 39.9201 26.4045 39.9635C26.2743 40.0069 26.1358 40.0194 26 40H9ZM31 40C30.8642 40.0194 30.7257 40.0069 30.5955 39.9635C30.4654 39.9201 30.3471 39.847 30.2501 39.7499C30.153 39.6529 30.0799 39.5346 30.0365 39.4045C29.9931 39.2743 29.9806 39.1358 30 39V30C30.0273 29.5252 30.2021 29.0707 30.5 28.7L33 24C33.3333 23.3333 33.7333 23.1333 34.2 23.4L48 30C52 33 50 40 46 40H31ZM30 20.3C30.9333 20.9667 31.2333 21.6 30.9 22.2L28.5 26.6C28.361 26.8477 28.1574 27.053 27.9108 27.1939C27.6642 27.3348 27.3839 27.406 27.1 27.4H20.1C19.6499 27.4044 19.2088 27.2732 18.8343 27.0236C18.4597 26.7739 18.169 26.4172 18 26L16 22C13.5 17 16 11 22 15L30 20.3ZM26 43C29.3333 46.3333 31.6667 48 33 48H44C44.1358 48.0194 44.2743 48.0069 44.4045 47.9635C44.5346 47.9201 44.6529 47.847 44.7499 47.7499C44.847 47.6529 44.9201 47.5346 44.9635 47.4045C45.0069 47.2743 45.0194 47.1358 45 47V43H26ZM48 47C47.9806 47.1358 47.9931 47.2743 48.0365 47.4045C48.0799 47.5346 48.153 47.6529 48.2501 47.7499C48.3471 47.847 48.4654 47.9201 48.5955 47.9635C48.7257 48.0069 48.8642 48.0194 49 48H50C52 48 54.0667 45.3333 56.2 40C56.7333 38.6667 56.3333 38 55 38C54 38 52.3 38 52 39C51.3806 40.3193 50.3194 41.3806 49 42C48.3333 42.2 48 42.5333 48 43" fill="white"/>
</svg>
