<svg xmlns="http://www.w3.org/2000/svg" xmlns:xlink="http://www.w3.org/1999/xlink" width="64" height="64" viewBox="0 0 64 64">
  <defs>
    <clipPath id="clip-_15">
      <rect width="64" height="64"/>
    </clipPath>
  </defs>
  <g id="_15" data-name="15" clip-path="url(#clip-_15)">
    <g id="_3" data-name="3">
      <g id="circles_1" fill="none" stroke="#fff" stroke-width="4">
        <circle cx="32" cy="32" r="32" stroke="none"/>
        <circle cx="32" cy="32" r="30" fill="none"/>
      </g>
      <path id="icon_1" d="M-23,8q-2.5,0-2.5-8.4,0-1.6,1-1.6H-6A.884.884,0,0,1-5-1V7A.884.884,0,0,1-6,8m5,0A.884.884,0,0,1-2,7V-2a2.285,2.285,0,0,1,.5-1.3L1-8q.5-1,1.2-.6L16-2c4,3,2,10-2,10M-2-11.7q1.4,1,.9,1.9L-3.5-5.4a1.567,1.567,0,0,1-1.4.8h-7A2.242,2.242,0,0,1-14-6l-2-4c-2.5-5,0-11,6-7m4,28q5,5,7,5H12a.884.884,0,0,0,1-1V11m3,4a.884.884,0,0,0,1,1h1q3,0,6.2-8Q25,6,23,6c-1,0-2.7,0-3,1a6.247,6.247,0,0,1-3,3q-1,.3-1,1" transform="translate(32 32)" fill="#fff"/>
    </g>
  </g>
</svg>
