<svg xmlns="http://www.w3.org/2000/svg" xmlns:xlink="http://www.w3.org/1999/xlink" width="64" height="64" viewBox="0 0 64 64">
  <defs>
    <clipPath id="clip-_15">
      <rect width="64" height="64"/>
    </clipPath>
  </defs>
  <g id="_15" data-name="15" clip-path="url(#clip-_15)">
    <g id="타원_1" data-name="타원 1" fill="none" stroke="#fff" stroke-width="3">
      <circle cx="32" cy="32" r="32" stroke="none"/>
      <circle cx="32" cy="32" r="30.5" fill="none"/>
    </g>
    <path id="패스_15" data-name="패스 15" d="M16.25-28.633V0H10.1V-21.68a7.368,7.368,0,0,1-1.2.85,12.4,12.4,0,0,1-1.475.723,13.167,13.167,0,0,1-1.621.547,11.84,11.84,0,0,1-1.66.322v-5.2a25.664,25.664,0,0,0,4.531-1.8,25.787,25.787,0,0,0,3.848-2.4ZM25.781-.723V-6a11.513,11.513,0,0,0,6.113,1.758A5.742,5.742,0,0,0,35.713-5.4,3.912,3.912,0,0,0,37.09-8.555q0-4.16-5.879-4.16a43.533,43.533,0,0,0-5,.332l1.055-15.625H42.09v5.039H31.973l-.391,5.605q1.5-.117,2.6-.117a9.552,9.552,0,0,1,6.758,2.266,7.911,7.911,0,0,1,2.441,6.094A8.995,8.995,0,0,1,40.469-2.2,11.181,11.181,0,0,1,32.578.488,16.885,16.885,0,0,1,25.781-.723Z" transform="translate(8 46)" fill="#fff"/>
  </g>
</svg>
