<svg xmlns="http://www.w3.org/2000/svg" xmlns:xlink="http://www.w3.org/1999/xlink" width="64" height="64" viewBox="0 0 64 64">
  <defs>
    <clipPath id="clip-_16">
      <rect width="64" height="64"/>
    </clipPath>
  </defs>
  <g id="_16" data-name="16" clip-path="url(#clip-_16)">
    <g id="_3" data-name="3">
      <g id="circles_1" fill="none" stroke="#fff" stroke-width="4">
        <circle cx="32" cy="32" r="32" stroke="none"/>
        <circle cx="32" cy="32" r="30" fill="none"/>
      </g>
      <path id="icon_1" d="M-23,6a.884.884,0,0,0-1,1c0,2,3,7,5,7H-6a.884.884,0,0,0,1-1V7A.884.884,0,0,0-6,6M0,6A.884.884,0,0,0-1,7v6a.884.884,0,0,0,1,1H7q1,0,2-2l4-8q1-2,0-2H6Q5,2,4,4T2,6M7.5-4q.5,0,0,1T8-2h7q1,0,2-2l3-6q1-2,0-2H5a.884.884,0,0,0-1,1v6A.884.884,0,0,0,5-4M0-11a.884.884,0,0,0-1-1H-8q-1,0-2,2L-15,0q-1.3,2.5-.5,2.5h7q1.1,0,2.2-2L-5-2q1-2,2-2h2A.884.884,0,0,0,0-5M13,14q-1,0,0-2l2-4q1-2,2-2h6a.884.884,0,0,1,1,1c0,2-3,7-5,7" transform="translate(32 32)" fill="#fff"/>
    </g>
  </g>
</svg>
