<svg xmlns="http://www.w3.org/2000/svg" xmlns:xlink="http://www.w3.org/1999/xlink" width="64" height="64" viewBox="0 0 64 64">
  <defs>
    <clipPath id="clip-_16">
      <rect width="64" height="64"/>
    </clipPath>
  </defs>
  <g id="_16" data-name="16" clip-path="url(#clip-_16)">
    <g id="타원_1" data-name="타원 1" fill="none" stroke="#fff" stroke-width="4">
      <circle cx="32" cy="32" r="32" stroke="none"/>
      <circle cx="32" cy="32" r="30" fill="none"/>
    </g>
    <g id="타원_27" data-name="타원 27" transform="translate(13.732 22.992)" fill="#e4e4e4" stroke="#000" stroke-width="3">
      <ellipse cx="8.741" cy="9.005" rx="8.741" ry="9.005" stroke="none"/>
      <ellipse cx="8.741" cy="9.005" rx="7.241" ry="7.505" fill="none"/>
    </g>
    <g id="타원_26" data-name="타원 26" transform="translate(7.905 22.992)" fill="#e5e5e5" stroke="#fff" stroke-width="3">
      <ellipse cx="9.006" cy="9.005" rx="9.006" ry="9.005" stroke="none"/>
      <ellipse cx="9.006" cy="9.005" rx="7.506" ry="7.505" fill="none"/>
    </g>
    <g id="타원_28" data-name="타원 28" transform="translate(13.732 22.992)" fill="#e5e5e5" stroke="#fff" stroke-width="3">
      <ellipse cx="8.741" cy="9.005" rx="8.741" ry="9.005" stroke="none"/>
      <ellipse cx="8.741" cy="9.005" rx="7.241" ry="7.505" fill="none"/>
    </g>
    <g id="타원_27-2" data-name="타원 27" transform="translate(38.091 22.988)" fill="#e5e5e5">
      <path d="M9.008.01a8.965,8.965,0,1,1-3.5.7A8.97,8.97,0,0,1,9.008.01Z" stroke="none"/>
      <path d="M 9.007542610168457 15.02835941314697 C 9.83505916595459 15.02846717834473 10.62392139434814 14.86012935638428 11.34171485900879 14.55582332611084 C 12.05944061279297 14.25154209136963 12.70612621307373 13.81131458282471 13.24936962127686 13.26759338378906 C 13.79257202148438 12.72391033172607 14.23236465454102 12.07673835754395 14.53634929656982 11.35851001739502 C 14.84032249450684 10.64031028747559 15.00850772857666 9.851033210754395 15.00850772857666 9.023097038269043 C 15.00850772857666 8.195160865783691 14.84032249450684 7.405709266662598 14.53634929656982 6.687190532684326 C 14.23236465454102 5.968643665313721 13.79257202148438 5.321010112762451 13.24936962127686 4.776759624481201 C 12.70612621307373 4.232470989227295 12.05944061279297 3.791564702987671 11.34171485900879 3.486533403396606 C 10.62392139434814 3.18147349357605 9.83505916595459 3.01230788230896 9.007542610168457 3.011549234390259 C 8.179937362670898 3.010790348052979 7.390822410583496 3.178544044494629 6.672656536102295 3.482395648956299 C 5.954424381256104 3.786276340484619 5.307168483734131 4.226274967193604 4.763360500335693 4.769956111907959 C 4.219512939453125 5.313675880432129 3.779144287109375 5.961077213287354 3.474730968475342 6.679704189300537 C 3.170305967330933 7.398361206054688 3.001857757568359 8.188220977783203 3.001857757568359 9.01680850982666 C 3.001857757568359 9.845396041870117 3.170305967330933 10.6354341506958 3.474730968475342 11.35440826416016 C 3.779144287109375 12.07335472106934 4.219512939453125 12.72121810913086 4.763360500335693 13.26550960540771 C 5.307168483734131 13.80976009368896 5.954424381256104 14.25043487548828 6.672656536102295 14.55506801605225 C 7.390822410583496 14.85967254638672 8.179937362670898 15.02825260162354 9.007542610168457 15.02835941314697 M 9.007542610168457 18.02987289428711 C 7.764491558074951 18.02995491027832 6.580092430114746 17.77787399291992 5.502662181854248 17.32189750671387 C 4.425079345703125 16.8658561706543 3.454525232315063 16.20586967468262 2.639347553253174 15.39025115966797 C 1.824082970619202 14.57454299926758 1.16426157951355 13.6032018661499 0.7082427144050598 12.52458190917969 C 0.2521964013576508 11.44589805603027 1.284921609112644e-06 10.25998210906982 1.284921609112644e-06 9.015236854553223 C 1.284921609112644e-06 7.770492076873779 0.2521963715553284 6.584839344024658 0.7082427144050598 5.506633758544922 C 1.16426157951355 4.428491592407227 1.824082970619202 3.457840442657471 2.639347553253174 2.642987489700317 C 3.454525232315063 1.828221440315247 4.425079345703125 1.169252872467041 5.502662181854248 0.7143401503562927 C 6.580092430114746 0.2594914138317108 7.764491558074951 0.008653408847749233 9.007542610168457 0.01003775279968977 C 10.25039196014404 0.01142187137156725 11.4342212677002 0.2648171484470367 12.51081562042236 0.7218199968338013 C 13.58725833892822 1.178758382797241 14.55652618408203 1.839259743690491 15.37043285369873 2.654966115951538 C 16.18424987792969 3.470585346221924 16.84277725219727 4.441410064697266 17.29783248901367 5.519131660461426 C 17.75286102294922 6.59678840637207 18.00447082519531 7.781388282775879 18.00447082519531 9.024666786193848 C 18.00447082519531 10.26794528961182 17.75286102294922 11.45228099822998 17.29783248901367 12.52946090698242 C 16.84277725219727 13.6067066192627 16.18424987792969 14.57684135437012 15.37043285369873 15.39160823822021 C 14.55652618408203 16.20646095275879 13.58725833892822 16.86594772338867 12.51081562042236 17.32175827026367 C 11.4342212677002 17.77763175964355 10.25039196014404 18.02978897094727 9.007542610168457 18.02987289428711 Z" stroke="none" fill="#fff"/>
    </g>
    <g id="타원_26-2" data-name="타원 26" transform="translate(32.787 22.982)" fill="#e5e5e5">
      <path d="M8.749.01a8.495,8.495,0,0,1,3.4.712,8.755,8.755,0,0,1,2.778,1.934A9.055,9.055,0,0,1,16.8,5.521a9.3,9.3,0,0,1,0,7.013A9.042,9.042,0,0,1,14.929,15.4a8.742,8.742,0,0,1-2.778,1.931,8.531,8.531,0,0,1-6.807,0A8.754,8.754,0,0,1,2.564,15.4,9.054,9.054,0,0,1,.688,12.529a9.3,9.3,0,0,1,0-7.02A9.041,9.041,0,0,1,2.564,2.644,8.742,8.742,0,0,1,5.345.714,8.489,8.489,0,0,1,8.749.01Z" stroke="none"/>
      <path d="M 8.748835563659668 15.03354930877686 C 9.540432929992676 15.03365230560303 10.29505634307861 14.86524677276611 10.98169898986816 14.56082153320312 C 11.66827964782715 14.25642395019531 12.28690528869629 13.81602478027344 12.80657958984375 13.27209568023682 C 13.32621574401855 12.7282018661499 13.74693012237549 12.08077907562256 14.03772830963135 11.36227226257324 C 14.32851696014404 10.64379501342773 14.48940753936768 9.854213714599609 14.48940753936768 9.025961875915527 C 14.48940753936768 8.197710037231445 14.32851696014404 7.407961845397949 14.03772830963135 6.689177513122559 C 13.74693012237549 5.970367431640625 13.32621574401855 5.322503089904785 12.80657958984375 4.778066635131836 C 12.28690528869629 4.23359203338623 11.66827964782715 3.792545557022095 10.98169898986816 3.487428188323975 C 10.29505634307861 3.182283878326416 9.540432929992676 3.01308798789978 8.748835563659668 3.012362003326416 C 7.957155704498291 3.011635780334473 7.202300071716309 3.179481267929077 6.515316486358643 3.483470439910889 C 5.828271389007568 3.787486553192139 5.209123611450195 4.227665901184082 4.688933372497559 4.771558284759521 C 4.168706893920898 5.315486907958984 3.747466087341309 5.963129997253418 3.456275939941406 6.682016849517822 C 3.165074586868286 7.400931835174561 3.003943920135498 8.191071510314941 3.003943920135498 9.019946098327637 C 3.003943920135498 9.848821640014648 3.165074586868286 10.63913059234619 3.456275939941406 11.35834980010986 C 3.747466087341309 12.07754230499268 4.168706893920898 12.72562503814697 4.688933372497559 13.27010154724121 C 5.209123611450195 13.81453895568848 5.828271389007568 14.25536441802979 6.515316486358643 14.56010246276855 C 7.202300071716309 14.86480808258057 7.957155704498291 15.03344631195068 8.748835563659668 15.03354930877686 M 8.748835563659668 18.03615570068359 C 7.541469573974609 18.03623390197754 6.391077518463135 17.78406143188477 5.34458589553833 17.32791900634766 C 4.297952175140381 16.87171745300293 3.355275630950928 16.21149826049805 2.563515186309814 15.39559268951416 C 1.77167284488678 14.5796012878418 1.130809187889099 13.60792350769043 0.6878930926322937 12.52892971038818 C 0.2449514716863632 11.449875831604 3.50656955561135e-06 10.2635498046875 3.50656955561135e-06 9.018372535705566 C 3.50656955561135e-06 7.773196220397949 0.2449514716863632 6.587127685546875 0.6878930926322937 5.508536815643311 C 1.130809187889099 4.430008411407471 1.77167284488678 3.459001302719116 2.563515186309814 2.643840312957764 C 3.355275630950928 1.828763604164124 4.297952175140381 1.169532895088196 5.34458589553833 0.7144249081611633 C 6.391077518463135 0.2593792378902435 7.541469573974609 0.008412682451307774 8.748835563659668 0.009757285006344318 C 9.956008911132812 0.0111016733571887 11.10586357116699 0.2645520865917206 12.15156555175781 0.7216899991035461 C 13.19712543487549 1.178765535354614 14.13858985900879 1.839484930038452 14.92914867401123 2.655474662780762 C 15.71962833404541 3.471380233764648 16.35927200317383 4.442556381225586 16.80127906799316 5.520676136016846 C 17.24326324462891 6.598734378814697 17.48765754699707 7.783779621124268 17.48765754699707 9.027531623840332 C 17.48765754699707 10.27128410339355 17.24326324462891 11.45607566833496 16.80127906799316 12.53366851806641 C 16.35927200317383 13.611328125 15.71962833404541 14.58183193206787 14.92914867401123 15.39690971374512 C 14.13858985900879 16.21207046508789 13.19712543487549 16.87180519104004 12.15156555175781 17.32778358459473 C 11.10586357116699 17.78382682800293 9.956008911132812 18.03607368469238 8.748835563659668 18.03615570068359 Z" stroke="none" fill="#fff"/>
    </g>
  </g>
</svg>
