<svg xmlns="http://www.w3.org/2000/svg" xmlns:xlink="http://www.w3.org/1999/xlink" width="64" height="64" viewBox="0 0 64 64">
  <defs>
    <clipPath id="clip-_16">
      <rect width="64" height="64"/>
    </clipPath>
  </defs>
  <g id="_16" data-name="16" clip-path="url(#clip-_16)">
    <g id="타원_1" data-name="타원 1" fill="none" stroke="#fff" stroke-width="3">
      <circle cx="32" cy="32" r="32" stroke="none"/>
      <circle cx="32" cy="32" r="30.5" fill="none"/>
    </g>
    <path id="패스_16" data-name="패스 16" d="M16.25-28.633V0H10.1V-21.68a7.368,7.368,0,0,1-1.2.85,12.4,12.4,0,0,1-1.475.723,13.167,13.167,0,0,1-1.621.547,11.84,11.84,0,0,1-1.66.322v-5.2a25.664,25.664,0,0,0,4.531-1.8,25.787,25.787,0,0,0,3.848-2.4ZM44.688-9.316a10.267,10.267,0,0,1-.723,3.867,9.44,9.44,0,0,1-2.012,3.115,9.308,9.308,0,0,1-3.066,2.07A9.874,9.874,0,0,1,35,.488a9.8,9.8,0,0,1-4.229-.879,8.535,8.535,0,0,1-3.154-2.549,11.917,11.917,0,0,1-1.973-4.092,20.221,20.221,0,0,1-.684-5.488,22.6,22.6,0,0,1,.889-6.553A15.044,15.044,0,0,1,28.389-24.1a11.4,11.4,0,0,1,3.994-3.232,11.877,11.877,0,0,1,5.273-1.143,13.3,13.3,0,0,1,5.039.762v5.156a9.241,9.241,0,0,0-4.648-1.211,6.5,6.5,0,0,0-2.832.605,6.26,6.26,0,0,0-2.178,1.719,8.31,8.31,0,0,0-1.426,2.686,11.952,11.952,0,0,0-.557,3.506h.117a6.793,6.793,0,0,1,5.879-2.754,7.66,7.66,0,0,1,3.145.625,6.822,6.822,0,0,1,2.4,1.768,8.109,8.109,0,0,1,1.543,2.744A10.948,10.948,0,0,1,44.688-9.316Zm-6.035.391q0-4.512-3.691-4.512a3.622,3.622,0,0,0-1.523.313,3.389,3.389,0,0,0-1.172.879,4.01,4.01,0,0,0-.752,1.338A5.258,5.258,0,0,0,31.25-9.2a6.61,6.61,0,0,0,.273,1.934,5.135,5.135,0,0,0,.771,1.572,3.82,3.82,0,0,0,1.182,1.064A3.016,3.016,0,0,0,35-4.238a3.3,3.3,0,0,0,1.514-.342,3.389,3.389,0,0,0,1.152-.957A4.4,4.4,0,0,0,38.4-7.021,6.771,6.771,0,0,0,38.652-8.926Z" transform="translate(7.586 46)" fill="#fff"/>
  </g>
</svg>
