<svg width="64" height="64" viewBox="0 0 64 64" fill="none" xmlns="http://www.w3.org/2000/svg">
<path d="M32 62C48.5685 62 62 48.5685 62 32C62 15.4315 48.5685 2 32 2C15.4315 2 2 15.4315 2 32C2 48.5685 15.4315 62 32 62Z" stroke="white" stroke-width="4"/>
<path d="M9.00007 38C8.86424 37.9806 8.72576 37.9931 8.59559 38.0365C8.46543 38.0799 8.34715 38.153 8.25013 38.2501C8.15311 38.3471 8.08 38.4654 8.0366 38.5955C7.9932 38.7257 7.98069 38.8642 8.00007 39C8.00007 41 11.0001 46 13.0001 46H26.0001C26.1359 46.0194 26.2744 46.0069 26.4046 45.9635C26.5347 45.9201 26.653 45.847 26.75 45.75C26.847 45.6529 26.9201 45.5347 26.9635 45.4045C27.007 45.2743 27.0195 45.1358 27.0001 45V39C27.0195 38.8642 27.007 38.7257 26.9635 38.5955C26.9201 38.4654 26.847 38.3471 26.75 38.2501C26.653 38.153 26.5347 38.0799 26.4046 38.0365C26.2744 37.9931 26.1359 37.9806 26.0001 38H9.00007ZM32.0001 38C31.8642 37.9806 31.7258 37.9931 31.5956 38.0365C31.4654 38.0799 31.3472 38.153 31.2501 38.2501C31.1531 38.3471 31.08 38.4654 31.0366 38.5955C30.9932 38.7257 30.9807 38.8642 31.0001 39V45C30.9807 45.1358 30.9932 45.2743 31.0366 45.4045C31.08 45.5347 31.1531 45.6529 31.2501 45.75C31.3472 45.847 31.4654 45.9201 31.5956 45.9635C31.7258 46.0069 31.8642 46.0194 32.0001 46H39.0001C39.6667 46 40.3334 45.3333 41.0001 44L45.0001 36C45.6667 34.6667 45.6667 34 45.0001 34H38.0001C37.3334 34 36.6667 34.6667 36.0001 36C35.3334 37.3333 34.6667 38 34.0001 38H32.0001ZM39.5001 28C39.8334 28 39.8334 28.3333 39.5001 29C39.1667 29.6667 39.3334 30 40.0001 30H47.0001C47.6667 30 48.3334 29.3333 49.0001 28L52.0001 22C52.6667 20.6667 52.6667 20 52.0001 20H37.0001C36.8642 19.9806 36.7258 19.9931 36.5956 20.0365C36.4654 20.0799 36.3472 20.153 36.2501 20.2501C36.1531 20.3471 36.08 20.4654 36.0366 20.5955C35.9932 20.7257 35.9807 20.8642 36.0001 21V27C35.9807 27.1358 35.9932 27.2743 36.0366 27.4045C36.08 27.5347 36.1531 27.6529 36.2501 27.75C36.3472 27.847 36.4654 27.9201 36.5956 27.9635C36.7258 28.0069 36.8642 28.0194 37.0001 28H39.5001ZM32.0001 21C32.0195 20.8642 32.007 20.7257 31.9635 20.5955C31.9201 20.4654 31.847 20.3471 31.75 20.2501C31.653 20.153 31.5347 20.0799 31.4046 20.0365C31.2744 19.9931 31.1359 19.9806 31.0001 20H24.0001C23.3334 20 22.6667 20.6667 22.0001 22L17.0001 32C16.1334 33.6667 15.9667 34.5 16.5001 34.5H23.5001C24.2334 34.5 24.9667 33.8333 25.7001 32.5L27.0001 30C27.6667 28.6667 28.3334 28 29.0001 28H31.0001C31.1359 28.0194 31.2744 28.0069 31.4046 27.9635C31.5347 27.9201 31.653 27.847 31.75 27.75C31.847 27.6529 31.9201 27.5347 31.9635 27.4045C32.007 27.2743 32.0195 27.1358 32.0001 27V21ZM45.0001 46C44.3334 46 44.3334 45.3333 45.0001 44L47.0001 40C47.6667 38.6667 48.3334 38 49.0001 38H55.0001C55.1359 37.9806 55.2744 37.9931 55.4046 38.0365C55.5347 38.0799 55.653 38.153 55.75 38.2501C55.847 38.3471 55.9201 38.4654 55.9635 38.5955C56.0069 38.7257 56.0195 38.8642 56.0001 39C56.0001 41 53.0001 46 51.0001 46" fill="white"/>
</svg>
