<svg width="64" height="64" viewBox="0 0 64 64" fill="none" xmlns="http://www.w3.org/2000/svg">
<path d="M32 62C48.5685 62 62 48.5685 62 32C62 15.4315 48.5685 2 32 2C15.4315 2 2 15.4315 2 32C2 48.5685 15.4315 62 32 62Z" stroke="white" stroke-width="4"/>
<path d="M14.149 43.971C14.379 43.894 19.432 42.6309 22.342 41.5589C16.331 40.1809 14.187 34.7059 14.187 30.5329C14.2205 27.1726 15.5857 23.9628 17.9829 21.6078C20.3801 19.2528 23.6136 17.9448 26.974 17.971C30.3335 17.9448 33.5663 19.2521 35.9634 21.606C38.3604 23.96 39.7262 27.1685 39.761 30.528C39.7588 32.2278 39.4068 33.909 38.727 35.467V35.429L36.583 35.812C35.894 35.965 34.133 36.312 31.338 36.769C28.199 37.305 26.131 36.884 24.409 35.314C23.3369 34.3343 22.6908 32.974 22.609 31.524C22.5219 30.073 23.0025 28.6451 23.949 27.5419C24.3124 27.1242 24.7557 26.7832 25.2527 26.5391C25.7498 26.2951 26.2906 26.1528 26.8434 26.1207C27.3962 26.0885 27.9499 26.1672 28.4718 26.352C28.9938 26.5368 29.4736 26.8241 29.883 27.1969C30.551 27.7999 30.9629 28.6357 31.0342 29.5328C31.1054 30.4298 30.8305 31.3202 30.266 32.021C29.8162 32.5339 29.1827 32.8494 28.5024 32.8995C27.822 32.9497 27.1492 32.7304 26.629 32.289C26.4446 32.1326 26.2948 31.9396 26.1893 31.7221C26.0837 31.5046 26.0247 31.2675 26.016 31.026C25.9957 30.8419 26.0123 30.6557 26.0648 30.4781C26.1173 30.3006 26.2048 30.1353 26.322 29.992C26.4283 29.8761 26.5589 29.785 26.7044 29.7254C26.85 29.6658 27.0069 29.639 27.164 29.647C27.4387 29.6662 27.7032 29.7588 27.93 29.915C27.968 29.953 28.007 29.953 28.007 29.992C28.045 30.03 28.084 30.03 28.122 30.069H28.237C28.275 30.069 28.314 30.107 28.352 30.107C28.5089 30.1002 28.6568 30.0322 28.7641 29.9176C28.8714 29.803 28.9296 29.6509 28.926 29.4939C28.9296 29.337 28.8714 29.1849 28.7641 29.0703C28.6568 28.9557 28.5089 28.8877 28.352 28.881C27.9364 28.768 27.5147 28.6785 27.089 28.613C26.7856 28.5763 26.4779 28.6129 26.1915 28.7195C25.9052 28.8261 25.6485 28.9998 25.443 29.226C25.0113 29.7228 24.7912 30.3689 24.83 31.026C24.8465 31.4206 24.9437 31.8076 25.1157 32.1631C25.2877 32.5186 25.5308 32.8351 25.83 33.0929C26.5743 33.7359 27.5417 34.0602 28.5232 33.9956C29.5047 33.9311 30.4213 33.4829 31.075 32.748C31.8352 31.8103 32.207 30.6169 32.114 29.4133C32.021 28.2098 31.4702 27.0877 30.575 26.278C30.0541 25.8038 29.4435 25.4387 28.7791 25.2046C28.1147 24.9704 27.4102 24.8718 26.707 24.9146C26.0039 24.9574 25.3166 25.1407 24.6855 25.4537C24.0544 25.7667 23.4925 26.2031 23.033 26.737C21.8912 28.0773 21.3026 29.8022 21.387 31.561C21.4833 33.3193 22.267 34.9693 23.569 36.155C25.0227 37.5004 26.9495 38.2161 28.929 38.146C29.7634 38.1402 30.5957 38.0632 31.417 37.916C33.331 37.571 35.317 37.227 36.7 36.997C37.236 36.882 37.7 36.806 37.963 36.767C38.063 36.7415 38.1658 36.7288 38.269 36.729L38.843 36.614C40.795 36.155 41.829 31.561 41.829 31.139V22.525C41.8256 22.3832 41.8509 22.2423 41.9036 22.1107C41.9563 21.9791 42.0351 21.8596 42.1354 21.7593C42.2356 21.6591 42.3551 21.5802 42.4867 21.5276C42.6183 21.4749 42.7593 21.4495 42.901 21.453H43.092C43.3741 21.4601 43.6427 21.5753 43.8422 21.7748C44.0417 21.9743 44.1569 22.2429 44.164 22.525V30.871C44.416 31.2372 44.7534 31.5366 45.1469 31.7434C45.5405 31.9502 45.9784 32.0581 46.423 32.058C46.8487 32.0592 47.2685 31.9592 47.6479 31.7662C48.0273 31.5732 48.3554 31.2927 48.605 30.948V22.525C48.6016 22.3832 48.6269 22.2423 48.6796 22.1107C48.7323 21.9791 48.8111 21.8596 48.9114 21.7593C49.0116 21.6591 49.1311 21.5802 49.2627 21.5276C49.3943 21.4749 49.5353 21.4495 49.677 21.453H49.868C50.1501 21.4601 50.4187 21.5753 50.6182 21.7748C50.8177 21.9743 50.9329 22.2429 50.94 22.525V31.139C50.94 31.522 51.94 45.878 39.876 45.993C33.138 46.07 14.034 45.993 14.034 45.993C13.7647 45.9872 13.5085 45.8753 13.3213 45.6817C13.134 45.4881 13.0308 45.2283 13.034 44.959C13.039 44.387 13.613 44.119 14.149 43.971Z" fill="white"/>
</svg>
