<svg xmlns="http://www.w3.org/2000/svg" xmlns:xlink="http://www.w3.org/1999/xlink" width="64" height="64" viewBox="0 0 64 64">
  <defs>
    <clipPath id="clip-_17">
      <rect width="64" height="64"/>
    </clipPath>
  </defs>
  <g id="_17" data-name="17" clip-path="url(#clip-_17)">
    <g id="타원_1" data-name="타원 1" fill="none" stroke="#fff" stroke-width="4">
      <circle cx="32" cy="32" r="32" stroke="none"/>
      <circle cx="32" cy="32" r="30" fill="none"/>
    </g>
    <path id="snail-crawl-slow-steady-svgrepo-com" d="M-397.142,447.1c.23-.077,5.283-1.34,8.193-2.412-6.011-1.378-8.155-6.853-8.155-11.026A12.689,12.689,0,0,1-384.317,421.1a12.689,12.689,0,0,1,12.787,12.557,12.39,12.39,0,0,1-1.034,4.939v-.038l-2.144.383h0c-.689.153-2.45.5-5.245.957-3.139.536-5.207.115-6.929-1.455a5.558,5.558,0,0,1-1.8-3.79,5.6,5.6,0,0,1,1.34-3.982,4.156,4.156,0,0,1,5.934-.345,3.522,3.522,0,0,1,.383,4.824,2.6,2.6,0,0,1-3.637.268,1.738,1.738,0,0,1-.613-1.263,1.392,1.392,0,0,1,.306-1.034,1.069,1.069,0,0,1,.842-.345,1.541,1.541,0,0,1,.766.268c.038.038.077.038.077.077h0c.038.038.077.038.115.077h.115c.038,0,.077.038.115.038a.6.6,0,0,0,.574-.613.6.6,0,0,0-.574-.613,11.475,11.475,0,0,0-1.263-.268,1.914,1.914,0,0,0-1.646.613,2.518,2.518,0,0,0-.613,1.8,2.888,2.888,0,0,0,1,2.067,3.744,3.744,0,0,0,5.245-.345,4.718,4.718,0,0,0-.5-6.47,5.27,5.27,0,0,0-7.542.459,6.927,6.927,0,0,0-1.646,4.824,6.71,6.71,0,0,0,2.182,4.594,7.5,7.5,0,0,0,5.36,1.991,14.672,14.672,0,0,0,2.488-.23c1.914-.345,3.9-.689,5.283-.919.536-.115,1-.191,1.263-.23a1.232,1.232,0,0,1,.306-.038l.574-.115c1.952-.459,2.986-5.053,2.986-5.475v-8.614a1.047,1.047,0,0,1,1.072-1.072h.191a1.1,1.1,0,0,1,1.072,1.072V434a2.741,2.741,0,0,0,2.259,1.187,2.684,2.684,0,0,0,2.182-1.11v-8.423a1.047,1.047,0,0,1,1.072-1.072h.191a1.1,1.1,0,0,1,1.072,1.072v8.614c0,.383,1,14.739-11.064,14.854-6.738.077-25.842,0-25.842,0a1.022,1.022,0,0,1-1-1.034C-398.252,447.516-397.678,447.248-397.142,447.1Z" transform="translate(411.291 -403.129)" fill="#fff"/>
  </g>
</svg>
