<svg width="64" height="64" viewBox="0 0 64 64" fill="none" xmlns="http://www.w3.org/2000/svg">
<path d="M32 62C48.5685 62 62 48.5685 62 32C62 15.4315 48.5685 2 32 2C15.4315 2 2 15.4315 2 32C2 48.5685 15.4315 62 32 62Z" stroke="white" stroke-width="4"/>
<path d="M8 36C8 38 9.5 44 11.5 44H16C16.1358 44.0194 16.2743 44.0069 16.4045 43.9635C16.5346 43.9201 16.6529 43.847 16.7499 43.75C16.847 43.6529 16.9201 43.5347 16.9635 43.4045C17.0069 43.2743 17.0194 43.1359 17 43V37C17.0194 36.8642 17.0069 36.7257 16.9635 36.5955C16.9201 36.4654 16.847 36.3471 16.7499 36.2501C16.6529 36.1531 16.5346 36.08 16.4045 36.0366C16.2743 35.9932 16.1358 35.9806 16 36H8ZM21 36C20.8642 35.9806 20.7257 35.9932 20.5955 36.0366C20.4654 36.08 20.3471 36.1531 20.2501 36.2501C20.153 36.3471 20.0799 36.4654 20.0365 36.5955C19.9931 36.7257 19.9806 36.8642 20 37V43C19.9806 43.1359 19.9931 43.2743 20.0365 43.4045C20.0799 43.5347 20.153 43.6529 20.2501 43.75C20.3471 43.847 20.4654 43.9201 20.5955 43.9635C20.7257 44.0069 20.8642 44.0194 21 44H33C33.3216 44.0034 33.6367 43.9098 33.9042 43.7314C34.1718 43.553 34.3794 43.2981 34.5 43L40.5 30.5C40.8333 29.7667 40.6667 29.4 40 29.4H33C32.7955 29.4044 32.5957 29.462 32.4203 29.5672C32.2449 29.6724 32.1 29.8216 32 30L29 35C28.8794 35.2981 28.6718 35.553 28.4042 35.7314C28.1367 35.9098 27.8216 36.0034 27.5 36H21ZM32.962 25.364C32.9426 25.4999 32.9551 25.6383 32.9985 25.7685C33.0419 25.8987 33.115 26.0169 33.2121 26.114C33.3091 26.211 33.4274 26.2841 33.5575 26.3275C33.6877 26.3709 33.8262 26.3834 33.962 26.364H39.962C40.2836 26.3674 40.5987 26.2738 40.8662 26.0954C41.1338 25.917 41.3414 25.6621 41.462 25.364L45.462 18.364C45.7953 17.6974 45.6287 17.364 44.962 17.364H32.962C32.8262 17.3446 32.6877 17.3572 32.5575 17.4006C32.4274 17.444 32.3091 17.5171 32.2121 17.6141C32.115 17.7111 32.0419 17.8294 31.9985 17.9595C31.9551 18.0897 31.9426 18.2282 31.962 18.364L32.962 25.364ZM28.462 18.364C28.4814 18.2282 28.4689 18.0897 28.4255 17.9595C28.3821 17.8294 28.309 17.7111 28.2119 17.6141C28.1149 17.5171 27.9966 17.444 27.8665 17.4006C27.7363 17.3572 27.5978 17.3446 27.462 17.364H17.462C16.7953 17.364 16.6287 17.6974 16.962 18.364L23.462 32.364C24.462 34.364 25.462 34.364 26.462 32.364L28.962 28.364C29.2833 27.7458 29.4546 27.0607 29.462 26.364L28.462 18.364ZM42 36C41.6784 35.9967 41.3633 36.0903 41.0958 36.2687C40.8282 36.447 40.6206 36.7019 40.5 37L37.5 43C37.1667 43.6667 37.3333 44 38 44H52.5C54.5 44 56 38 56 36" fill="white"/>
</svg>
