<svg xmlns="http://www.w3.org/2000/svg" xmlns:xlink="http://www.w3.org/1999/xlink" width="64" height="64" viewBox="0 0 64 64">
  <defs>
    <clipPath id="clip-_18">
      <rect width="64" height="64"/>
    </clipPath>
  </defs>
  <g id="_18" data-name="18" clip-path="url(#clip-_18)">
    <g id="타원_1" data-name="타원 1" fill="none" stroke="#fff" stroke-width="3">
      <circle cx="32" cy="32" r="32" stroke="none"/>
      <circle cx="32" cy="32" r="30.5" fill="none"/>
    </g>
    <path id="패스_18" data-name="패스 18" d="M16.25-28.633V0H10.1V-21.68a7.368,7.368,0,0,1-1.2.85,12.4,12.4,0,0,1-1.475.723,13.167,13.167,0,0,1-1.621.547,11.84,11.84,0,0,1-1.66.322v-5.2a25.664,25.664,0,0,0,4.531-1.8,25.787,25.787,0,0,0,3.848-2.4ZM24.57-7.539a7.457,7.457,0,0,1,.342-2.256,6.836,6.836,0,0,1,1.025-2.012,7.547,7.547,0,0,1,1.709-1.66,9.179,9.179,0,0,1,2.412-1.2,8.65,8.65,0,0,1-3.3-2.705,6.182,6.182,0,0,1-1.172-3.662A6.623,6.623,0,0,1,26.26-24a7.2,7.2,0,0,1,1.865-2.363,8.725,8.725,0,0,1,2.842-1.553,11.213,11.213,0,0,1,3.6-.557,11.431,11.431,0,0,1,3.652.557,8.931,8.931,0,0,1,2.861,1.543,7,7,0,0,1,1.865,2.334,6.537,6.537,0,0,1,.664,2.93,5.814,5.814,0,0,1-1.25,3.623A9.306,9.306,0,0,1,38.906-14.8a9.423,9.423,0,0,1,2.4,1.2,7.731,7.731,0,0,1,1.738,1.67A6.841,6.841,0,0,1,44.1-9.893,7.514,7.514,0,0,1,44.453-7.6a7.333,7.333,0,0,1-.723,3.271,7.447,7.447,0,0,1-2.041,2.539,9.632,9.632,0,0,1-3.145,1.65,13.15,13.15,0,0,1-4.033.586,13.217,13.217,0,0,1-3.994-.576,9.6,9.6,0,0,1-3.145-1.631,7.564,7.564,0,0,1-2.061-2.529A7.13,7.13,0,0,1,24.57-7.539Zm5.84-.527A4.758,4.758,0,0,0,30.7-6.348a3.515,3.515,0,0,0,.84,1.289,3.751,3.751,0,0,0,1.3.811,4.765,4.765,0,0,0,1.689.283,4.509,4.509,0,0,0,1.65-.293,3.873,3.873,0,0,0,1.3-.82,3.731,3.731,0,0,0,.859-1.289,4.438,4.438,0,0,0,.313-1.7,4.423,4.423,0,0,0-.293-1.6,3.807,3.807,0,0,0-.84-1.318,4.149,4.149,0,0,0-1.3-.889,4.14,4.14,0,0,0-1.689-.332,4.4,4.4,0,0,0-1.641.3,3.752,3.752,0,0,0-1.309.859,4.054,4.054,0,0,0-.859,1.318A4.332,4.332,0,0,0,30.41-8.066Zm.859-12.4a3.7,3.7,0,0,0,.264,1.4,3.6,3.6,0,0,0,.713,1.133,3.258,3.258,0,0,0,1.064.752,3.163,3.163,0,0,0,1.3.273,3.142,3.142,0,0,0,1.309-.273,3.328,3.328,0,0,0,1.064-.762,3.661,3.661,0,0,0,.723-1.133,3.627,3.627,0,0,0,.264-1.387,3.88,3.88,0,0,0-.254-1.416A3.385,3.385,0,0,0,37-23.018a3.369,3.369,0,0,0-1.074-.752,3.209,3.209,0,0,0-1.318-.273,3.207,3.207,0,0,0-1.357.283A3.272,3.272,0,0,0,32.2-23a3.423,3.423,0,0,0-.684,1.133A3.962,3.962,0,0,0,31.27-20.469Z" transform="translate(8 46)" fill="#fff"/>
  </g>
</svg>
