<svg xmlns="http://www.w3.org/2000/svg" xmlns:xlink="http://www.w3.org/1999/xlink" width="64" height="64" viewBox="0 0 64 64">
  <defs>
    <clipPath id="clip-_18">
      <rect width="64" height="64"/>
    </clipPath>
  </defs>
  <g id="_18" data-name="18" clip-path="url(#clip-_18)">
    <g id="패스_3" data-name="패스 3" fill="none">
      <path d="M32,0A32,32,0,1,1,0,32,32,32,0,0,1,32,0Z" stroke="none"/>
      <path d="M 32 4 C 28.21825790405273 4 24.55176544189453 4.739765167236328 21.10236358642578 6.198741912841797 C 17.76862335205078 7.608787536621094 14.77377700805664 9.628246307373047 12.20101165771484 12.20101165771484 C 9.628246307373047 14.77377700805664 7.608787536621094 17.76862335205078 6.198741912841797 21.10236358642578 C 4.739765167236328 24.55176544189453 4 28.21825790405273 4 32 C 4 35.78174209594727 4.739765167236328 39.44823455810547 6.198741912841797 42.89763641357422 C 7.608787536621094 46.23137664794922 9.628246307373047 49.22622299194336 12.20101165771484 51.79898834228516 C 14.77377700805664 54.37175369262695 17.76862335205078 56.39121246337891 21.10236358642578 57.8012580871582 C 24.55176544189453 59.26023483276367 28.21825790405273 60 32 60 C 35.78174209594727 60 39.44823455810547 59.26023483276367 42.89763641357422 57.8012580871582 C 46.23137664794922 56.39121246337891 49.22622299194336 54.37175369262695 51.79898834228516 51.79898834228516 C 54.37175369262695 49.22622299194336 56.39121246337891 46.23137664794922 57.8012580871582 42.89763641357422 C 59.26023483276367 39.44823455810547 60 35.78174209594727 60 32 C 60 28.21825790405273 59.26023483276367 24.55176544189453 57.8012580871582 21.10236358642578 C 56.39121246337891 17.76862335205078 54.37175369262695 14.77377700805664 51.79898834228516 12.20101165771484 C 49.22622299194336 9.628246307373047 46.23137664794922 7.608787536621094 42.89763641357422 6.198741912841797 C 39.44823455810547 4.739765167236328 35.78174209594727 4 32 4 M 32 0 C 49.6731071472168 0 64 14.3268928527832 64 32 C 64 49.6731071472168 49.6731071472168 64 32 64 C 14.3268928527832 64 0 49.6731071472168 0 32 C 0 14.3268928527832 14.3268928527832 0 32 0 Z" stroke="none" fill="#fff"/>
    </g>
    <g id="cogs_icon-icons.com_70998" transform="translate(14 14)">
      <path id="패스_11" data-name="패스 11" d="M12.787,25.385l1.452-2.033-1.591-1.591-2.033,1.452a5.592,5.592,0,0,0-1.2-.5L9,20.25H6.75l-.411,2.464a5.6,5.6,0,0,0-1.2.5L3.1,21.761,1.511,23.352l1.452,2.033a5.588,5.588,0,0,0-.5,1.2L0,27v2.25l2.464.411a5.59,5.59,0,0,0,.5,1.2L1.511,32.9,3.1,34.489l2.033-1.452a5.6,5.6,0,0,0,1.2.5L6.75,36H9l.411-2.464a5.592,5.592,0,0,0,1.2-.5l2.033,1.452L14.239,32.9l-1.452-2.033a5.586,5.586,0,0,0,.5-1.2l2.464-.411V27l-2.464-.411A5.59,5.59,0,0,0,12.787,25.385Zm-4.912,4.99a2.25,2.25,0,1,1,2.25-2.25A2.25,2.25,0,0,1,7.875,30.375ZM36,13.5V11.25l-2.369-.431c-.044-.283-.1-.562-.166-.836l2.023-1.3L34.628,6.6l-2.354.509c-.148-.243-.307-.479-.474-.708L33.171,4.42,31.58,2.829,29.6,4.2q-.343-.251-.708-.474L29.4,1.373,27.321.511l-1.3,2.024q-.412-.1-.837-.166L24.75,0H22.5l-.431,2.369q-.424.066-.836.166L19.929.511l-2.079.861.509,2.354q-.365.222-.708.474L15.67,2.829,14.079,4.42,15.451,6.4q-.251.343-.474.708L12.623,6.6l-.861,2.079,2.024,1.3q-.1.412-.166.836l-2.369.431V13.5l2.369.431q.066.424.166.836l-2.024,1.3.861,2.079,2.354-.509q.222.364.474.708L14.079,20.33l1.591,1.591,1.981-1.371q.343.251.708.474l-.509,2.353,2.079.861,1.3-2.024q.412.1.836.166L22.5,24.75h2.25l.431-2.369c.283-.044.562-.1.837-.166l1.3,2.024,2.079-.861-.509-2.354q.364-.222.708-.474l1.981,1.371,1.591-1.591L31.8,18.349q.251-.343.474-.708l2.353.509.861-2.079-2.023-1.3c.066-.275.122-.553.166-.836ZM23.625,17.269a4.894,4.894,0,1,1,4.894-4.894A4.894,4.894,0,0,1,23.625,17.269Z" fill="#fff"/>
    </g>
  </g>
</svg>
