<svg xmlns="http://www.w3.org/2000/svg" xmlns:xlink="http://www.w3.org/1999/xlink" width="64" height="64" viewBox="0 0 64 64">
  <defs>
    <clipPath id="clip-_19">
      <rect width="64" height="64"/>
    </clipPath>
  </defs>
  <g id="_19" data-name="19" clip-path="url(#clip-_19)">
    <g id="타원_1" data-name="타원 1" fill="none" stroke="#fff" stroke-width="3">
      <circle cx="32" cy="32" r="32" stroke="none"/>
      <circle cx="32" cy="32" r="30.5" fill="none"/>
    </g>
    <path id="패스_19" data-name="패스 19" d="M16.25-28.633V0H10.1V-21.68a7.368,7.368,0,0,1-1.2.85,12.4,12.4,0,0,1-1.475.723,13.167,13.167,0,0,1-1.621.547,11.84,11.84,0,0,1-1.66.322v-5.2a25.664,25.664,0,0,0,4.531-1.8,25.787,25.787,0,0,0,3.848-2.4ZM44.238-15.352a24.844,24.844,0,0,1-.82,6.67,14.308,14.308,0,0,1-2.393,4.971A10.566,10.566,0,0,1,37.188-.6,11.757,11.757,0,0,1,32.051.488,14.6,14.6,0,0,1,26.133-.605V-5.684a9.482,9.482,0,0,0,5.313,1.445,6.116,6.116,0,0,0,4.98-2.168,9.672,9.672,0,0,0,1.816-6.27l-.117-.039A6.341,6.341,0,0,1,32.48-9.961a7.748,7.748,0,0,1-3.174-.645,7.625,7.625,0,0,1-2.52-1.787,8.168,8.168,0,0,1-1.66-2.725,9.793,9.793,0,0,1-.6-3.477,10.794,10.794,0,0,1,.723-4.023,9.211,9.211,0,0,1,2.021-3.125,8.92,8.92,0,0,1,3.115-2.021,10.926,10.926,0,0,1,4.023-.713,9.211,9.211,0,0,1,4.1.889,8.618,8.618,0,0,1,3.1,2.568A11.99,11.99,0,0,1,43.564-20.9,20.881,20.881,0,0,1,44.238-15.352Zm-6.23-3.281a7.257,7.257,0,0,0-.273-2.021,5.319,5.319,0,0,0-.762-1.631,3.708,3.708,0,0,0-1.191-1.084,3.064,3.064,0,0,0-1.543-.4,3.139,3.139,0,0,0-1.475.352,3.6,3.6,0,0,0-1.162.967,4.579,4.579,0,0,0-.762,1.475,6.088,6.088,0,0,0-.273,1.855,6.34,6.34,0,0,0,.273,1.943,4.15,4.15,0,0,0,.771,1.436,3.236,3.236,0,0,0,1.2.889,3.911,3.911,0,0,0,1.563.3,3.355,3.355,0,0,0,1.484-.322A3.576,3.576,0,0,0,37-15.742a3.934,3.934,0,0,0,.742-1.289A4.75,4.75,0,0,0,38.008-18.633Z" transform="translate(8 46)" fill="#fff"/>
  </g>
</svg>
