<svg width="64" height="64" viewBox="0 0 64 64" fill="none" xmlns="http://www.w3.org/2000/svg">
<path d="M32 62C48.5685 62 62 48.5685 62 32C62 15.4315 48.5685 2 32 2C15.4315 2 2 15.4315 2 32C2 48.5685 15.4315 62 32 62Z" stroke="white" stroke-width="4"/>
<path d="M14 48C13 48 8 40 8 38.4C8 38.1334 8.33333 38 9 38H22.5C22.6358 37.9806 22.7743 37.9931 22.9045 38.0366C23.0346 38.08 23.1529 38.1531 23.2499 38.2501C23.347 38.3471 23.4201 38.4654 23.4635 38.5955C23.5069 38.7257 23.5194 38.8642 23.5 39V47C23.5194 47.1359 23.5069 47.2743 23.4635 47.4045C23.4201 47.5347 23.347 47.6529 23.2499 47.75C23.1529 47.847 23.0346 47.9201 22.9045 47.9635C22.7743 48.0069 22.6358 48.0194 22.5 48H14ZM28 38C27.8642 37.9806 27.7257 37.9931 27.5955 38.0366C27.4654 38.08 27.3471 38.1531 27.2501 38.2501C27.153 38.3471 27.0799 38.4654 27.0365 38.5955C26.9931 38.7257 26.9806 38.8642 27 39V47C26.9806 47.1359 26.9931 47.2743 27.0365 47.4045C27.0799 47.5347 27.153 47.6529 27.2501 47.75C27.3471 47.847 27.4654 47.9201 27.5955 47.9635C27.7257 48.0069 27.8642 48.0194 28 48H44C44.3107 48.0098 44.616 47.9173 44.869 47.7366C45.1219 47.5559 45.3085 47.2971 45.4 47L48.1 38.5C48.2333 38.1667 48.1 37.9334 47.7 37.8L38.7 34.3C38.2333 34.1 37.9333 34.2334 37.8 34.7L37 37C36.8 37.6667 36.4667 38 36 38H28ZM39.4 30C39.3263 30.1281 39.2834 30.2716 39.2747 30.4191C39.266 30.5667 39.2918 30.7142 39.35 30.85C39.4082 30.9859 39.4973 31.1063 39.6101 31.2017C39.7229 31.2972 39.8564 31.3651 40 31.4L48.1 34.5C48.9 34.8334 49.4333 34.6667 49.7 34L51.8 27.6C51.8662 27.4077 51.873 27.2 51.8195 27.0038C51.7659 26.8076 51.6546 26.6321 51.5 26.5L44.5 19.5C44.1667 19.1667 43.8 19.2 43.4 19.6L38.5 25.4C38.4213 25.4685 38.3583 25.553 38.3151 25.6478C38.2718 25.7427 38.2495 25.8458 38.2495 25.95C38.2495 26.0543 38.2718 26.1573 38.3151 26.2522C38.3583 26.3471 38.4213 26.4316 38.5 26.5L39.3 27.3C39.525 27.5137 39.6827 27.7883 39.7537 28.0903C39.8248 28.3923 39.8061 28.7085 39.7 29L39.4 30ZM40 16.3C40.1505 16.3773 40.2796 16.4904 40.376 16.6293C40.4725 16.7682 40.5333 16.9288 40.553 17.0967C40.5728 17.2647 40.5509 17.435 40.4894 17.5925C40.4278 17.75 40.3284 17.89 40.2 18L35.8 23C35.7121 23.1504 35.5922 23.2796 35.4489 23.3784C35.3055 23.4772 35.1421 23.5433 34.9703 23.5719C34.7985 23.6006 34.6226 23.5911 34.4549 23.5441C34.2872 23.4971 34.1319 23.4138 34 23.3L33 22.7C32.7197 22.4747 32.3754 22.3437 32.0162 22.3257C31.657 22.3078 31.3014 22.4038 31 22.6L30 23.3C29.8681 23.4138 29.7128 23.4971 29.5451 23.5441C29.3774 23.5911 29.2015 23.6006 29.0297 23.5719C28.8579 23.5433 28.6945 23.4772 28.5511 23.3784C28.4078 23.2796 28.2879 23.1504 28.2 23L23.8 18C23.6719 17.8797 23.5736 17.7312 23.5129 17.5663C23.4522 17.4014 23.4306 17.2247 23.4501 17.05C23.4695 16.8754 23.5293 16.7077 23.6247 16.5601C23.7202 16.4126 23.8486 16.2893 24 16.2L31 10.8C31.2696 10.5432 31.6277 10.4 32 10.4C32.3723 10.4 32.7304 10.5432 33 10.8L40 16.3ZM19 19.8C19.1203 19.672 19.2688 19.5737 19.4337 19.5129C19.5986 19.4522 19.7753 19.4307 19.95 19.4501C20.1246 19.4695 20.2924 19.5293 20.4399 19.6247C20.5874 19.7202 20.7107 19.8487 20.8 20L25.4 25.3C25.4942 25.3801 25.5699 25.4797 25.6218 25.5919C25.6737 25.7042 25.7006 25.8264 25.7006 25.95C25.7006 26.0737 25.6737 26.1959 25.6218 26.3081C25.5699 26.4203 25.4942 26.5199 25.4 26.6L24.5 27.5C24.34 27.6501 24.2267 27.8431 24.1735 28.0559C24.1203 28.2687 24.1295 28.4923 24.2 28.7L25.7 33C25.9 33.6667 25.6667 34 25 34H15.4C14.8667 34 14.5 33.6667 14.3 33L12.3 27C12.2058 26.6647 12.2232 26.3078 12.3494 25.9831C12.4757 25.6585 12.704 25.3837 13 25.2L19 19.8ZM53 38C52.6994 37.983 52.4027 38.0747 52.164 38.2583C51.9254 38.4419 51.7607 38.7051 51.7 39L49.2 47.3C49.0667 47.7667 49.2 48 49.6 48H50C51 48 56 40 56 38" fill="white"/>
</svg>
