<svg xmlns="http://www.w3.org/2000/svg" xmlns:xlink="http://www.w3.org/1999/xlink" width="64" height="64" viewBox="0 0 64 64">
  <defs>
    <clipPath id="clip-_19">
      <rect width="64" height="64"/>
    </clipPath>
  </defs>
  <g id="_19" data-name="19" clip-path="url(#clip-_19)">
    <g id="_3" data-name="3">
      <g id="circles_1" fill="none" stroke="#fff" stroke-width="4">
        <circle cx="32" cy="32" r="32" stroke="none"/>
        <circle cx="32" cy="32" r="30" fill="none"/>
      </g>
      <path id="icon_1" d="M-18,16c-1,0-6-8-6-9.6q0-.4,1-.4H-9.5a.884.884,0,0,1,1,1v8a.884.884,0,0,1-1,1M-4,6A.884.884,0,0,0-5,7v8a.884.884,0,0,0,1,1H12a1.418,1.418,0,0,0,1.4-1l2.7-8.5q.2-.5-.4-.7l-9-3.5Q6,2,5.8,2.7L5,5Q4.7,6,4,6M7.4-2A.952.952,0,0,0,8-.6l8.1,3.1q1.2.5,1.6-.5l2.1-6.4a1.013,1.013,0,0,0-.3-1.1l-7-7q-.5-.5-1.1.1L6.5-6.6a.729.729,0,0,0,0,1.1l.8.8A1.593,1.593,0,0,1,7.7-3M8-15.7A1.031,1.031,0,0,1,8.2-14L3.8-9A1.187,1.187,0,0,1,2-8.7L1-9.3a1.706,1.706,0,0,0-2-.1l-1,.7A1.187,1.187,0,0,1-3.8-9l-4.4-5A1.132,1.132,0,0,1-8-15.8l7-5.4a1.45,1.45,0,0,1,2,0m-14,9a1.132,1.132,0,0,1,1.8.2l4.6,5.3a.853.853,0,0,1,0,1.3l-.9.9a1.142,1.142,0,0,0-.3,1.2L-6.3,1Q-6,2-7,2h-9.6q-.8,0-1.1-1l-2-6A1.607,1.607,0,0,1-19-6.8M21,6a1.255,1.255,0,0,0-1.3,1l-2.5,8.3q-.2.7.4.7H18c1,0,6-8,6-10" transform="translate(32 32)" fill="#fff"/>
    </g>
  </g>
</svg>
