<svg width="64" height="64" viewBox="0 0 64 64" fill="none" xmlns="http://www.w3.org/2000/svg">
<path d="M32 62C48.5685 62 62 48.5685 62 32C62 15.4315 48.5685 2 32 2C15.4315 2 2 15.4315 2 32C2 48.5685 15.4315 62 32 62Z" stroke="white" stroke-width="4"/>
<path d="M9.00007 34C8.86424 33.9807 8.72576 33.9932 8.59559 34.0366C8.46543 34.08 8.34715 34.1531 8.25013 34.2501C8.15311 34.3471 8.08 34.4654 8.0366 34.5956C7.9932 34.7257 7.98069 34.8642 8.00007 35C8.00007 37 10.0001 47 14.0001 47H29.0001C29.1359 47.0194 29.2744 47.0069 29.4046 46.9635C29.5347 46.9201 29.653 46.847 29.75 46.75C29.847 46.653 29.9201 46.5347 29.9635 46.4045C30.007 46.2744 30.0195 46.1359 30.0001 46V35C30.0195 34.8642 30.007 34.7257 29.9635 34.5956C29.9201 34.4654 29.847 34.3471 29.75 34.2501C29.653 34.1531 29.5347 34.08 29.4046 34.0366C29.2744 33.9932 29.1359 33.9807 29.0001 34H9.00007ZM31.0001 30C31.6967 29.9927 32.3819 29.8214 33.0001 29.5L40.2061 26.2C40.8727 25.8667 40.9061 25.3667 40.3061 24.7L32.5001 13.6C32.1667 13.2 31.9001 13.2 31.7001 13.6L22.6001 29C22.2001 29.6667 22.3334 30 23.0001 30H31.0001ZM34.0001 35C33.9967 34.6785 34.0903 34.3634 34.2687 34.0958C34.4471 33.8282 34.702 33.6206 35.0001 33.5L42.1641 30C42.5641 29.8 42.8307 29.9667 42.9641 30.5L48.7001 46C48.9001 46.6667 48.6667 47 48.0001 47H35.0001C34.8642 47.0194 34.7258 47.0069 34.5956 46.9635C34.4654 46.9201 34.3472 46.847 34.2501 46.75C34.1531 46.653 34.08 46.5347 34.0366 46.4045C33.9932 46.2744 33.9807 46.1359 34.0001 46V35ZM48.0001 35C47.8001 34.3334 48.0334 34 48.7001 34H56.0001C56.0001 36 54.0001 45 52.5001 45C52.3667 45 52.2001 44.6667 52.0001 44" fill="white"/>
</svg>
