<svg xmlns="http://www.w3.org/2000/svg" xmlns:xlink="http://www.w3.org/1999/xlink" width="64" height="64" viewBox="0 0 64 64">
  <defs>
    <clipPath id="clip-_20">
      <rect width="64" height="64"/>
    </clipPath>
  </defs>
  <g id="_20" data-name="20" clip-path="url(#clip-_20)">
    <g id="타원_1" data-name="타원 1" fill="none" stroke="#fff" stroke-width="3">
      <circle cx="32" cy="32" r="32" stroke="none"/>
      <circle cx="32" cy="32" r="30.5" fill="none"/>
    </g>
    <path id="패스_20" data-name="패스 20" d="M8.379-5.117H20.254V0H1.621V-2.109a9.818,9.818,0,0,1,.723-3.857A12.8,12.8,0,0,1,4.16-9.033a15.756,15.756,0,0,1,2.393-2.4q1.3-1.045,2.471-1.885,1.23-.879,2.158-1.68a12.3,12.3,0,0,0,1.563-1.592,6.052,6.052,0,0,0,.947-1.6A4.763,4.763,0,0,0,14-19.922a3.474,3.474,0,0,0-1.016-2.715,4.515,4.515,0,0,0-3.105-.918,10.43,10.43,0,0,0-6.914,2.871v-5.43a14.842,14.842,0,0,1,8.242-2.363,12.173,12.173,0,0,1,3.818.557,8.078,8.078,0,0,1,2.861,1.592,6.789,6.789,0,0,1,1.787,2.51,8.47,8.47,0,0,1,.615,3.291,9.279,9.279,0,0,1-.6,3.438,10.563,10.563,0,0,1-1.582,2.734A14.351,14.351,0,0,1,15.84-12.1q-1.289,1.025-2.676,1.982-.937.664-1.807,1.318A17.127,17.127,0,0,0,9.824-7.51,7,7,0,0,0,8.77-6.27,2.141,2.141,0,0,0,8.379-5.117ZM34.355.488q-10,0-10-14.043,0-7.285,2.705-11.1A9.013,9.013,0,0,1,34.9-28.477q9.766,0,9.766,14.277Q44.668-7.09,42-3.3A8.782,8.782,0,0,1,34.355.488Zm.273-24.258q-4,0-4,10.059,0,9.473,3.926,9.473,3.828,0,3.828-9.766T34.629-23.77Z" transform="translate(9 46)" fill="#fff"/>
  </g>
</svg>
