<svg width="64" height="64" viewBox="0 0 64 64" fill="none" xmlns="http://www.w3.org/2000/svg">
<path d="M32 62C48.5685 62 62 48.5685 62 32C62 15.4315 48.5685 2 32 2C15.4315 2 2 15.4315 2 32C2 48.5685 15.4315 62 32 62Z" stroke="white" stroke-width="4"/>
<path d="M19.5 27C21.433 27 23 25.433 23 23.5C23 21.567 21.433 20 19.5 20C17.567 20 16 21.567 16 23.5C16 25.433 17.567 27 19.5 27Z" fill="white"/>
<path d="M44.5 27C46.433 27 48 25.433 48 23.5C48 21.567 46.433 20 44.5 20C42.567 20 41 21.567 41 23.5C41 25.433 42.567 27 44.5 27Z" fill="white"/>
<path d="M32 2.5V62.5" stroke="white" stroke-width="3"/>
<path d="M17.449 39.775C19.2193 42.3381 21.5764 44.4412 24.324 45.909C26.7746 47.0866 29.4092 47.8348 32.113 48.121" stroke="white" stroke-width="3"/>
<path d="M46.664 48.121C44.8937 45.5579 42.5366 43.4549 39.789 41.987C37.3383 40.8095 34.7038 40.0613 32 39.775" stroke="white" stroke-width="3"/>
</svg>
