<svg width="64" height="64" viewBox="0 0 64 64" fill="none" xmlns="http://www.w3.org/2000/svg">
<path d="M32 62C48.5685 62 62 48.5685 62 32C62 15.4315 48.5685 2 32 2C15.4315 2 2 15.4315 2 32C2 48.5685 15.4315 62 32 62Z" stroke="white" stroke-width="4"/>
<path d="M12.1036 18.7944C12.0354 18.7874 11.9697 18.7646 11.9118 18.7278C11.8539 18.691 11.8054 18.6412 11.77 18.5824C11.7347 18.5236 11.7135 18.4574 11.7082 18.389C11.7029 18.3206 11.7136 18.2519 11.7394 18.1883C12.3442 15.7626 21.3136 8.72336 24.2245 9.44913L34.4126 11.9893C34.4808 11.9963 34.5465 12.0192 34.6044 12.056C34.6623 12.0928 34.7109 12.1425 34.7462 12.2013C34.7815 12.2601 34.8027 12.3264 34.808 12.3948C34.8133 12.4632 34.8026 12.5319 34.7768 12.5954L32.1156 23.2687C32.1086 23.3369 32.0858 23.4026 32.049 23.4605C32.0122 23.5184 31.9624 23.5669 31.9036 23.6023C31.8448 23.6376 31.7786 23.6588 31.7102 23.6641C31.6418 23.6694 31.5731 23.6587 31.5095 23.6329L12.1036 18.7944ZM39.2641 13.1989C39.2005 13.1731 39.1318 13.1624 39.0634 13.1677C38.995 13.173 38.9288 13.1942 38.87 13.2295C38.8112 13.2648 38.7614 13.3134 38.7246 13.3713C38.6878 13.4292 38.665 13.4949 38.658 13.5631L35.9968 24.2364C35.971 24.2999 35.9603 24.3686 35.9656 24.437C35.9709 24.5054 35.9921 24.5716 36.0274 24.6304C36.0628 24.6892 36.1113 24.739 36.1692 24.7758C36.2271 24.8126 36.2928 24.8354 36.361 24.8425L37.3313 25.0844C37.3996 25.0914 37.4652 25.1142 37.5231 25.151C37.581 25.1878 37.6296 25.2376 37.6649 25.2964C37.7002 25.3552 37.7214 25.4214 37.7267 25.4898C37.732 25.5582 37.7213 25.6269 37.6955 25.6905L36.6069 30.0568C36.581 30.1204 36.5703 30.1891 36.5756 30.2575C36.581 30.3259 36.6021 30.3921 36.6375 30.4509C36.6728 30.5097 36.7213 30.5595 36.7792 30.5963C36.8371 30.6331 36.9028 30.6559 36.971 30.6629L47.6443 33.3241C47.7078 33.3499 47.7765 33.3606 47.8449 33.3553C47.9133 33.35 47.9796 33.3288 48.0384 33.2935C48.0972 33.2581 48.1469 33.2096 48.1838 33.1517C48.2206 33.0938 48.2434 33.0281 48.2504 32.9599L51.6373 19.3757C51.8792 18.4055 50.4225 15.981 49.4522 15.7391L39.2641 13.1989ZM35.8824 35.0293C35.8188 35.0034 35.7501 34.9927 35.6817 34.9981C35.6133 35.0034 35.5471 35.0245 35.4883 35.0599C35.4295 35.0952 35.3797 35.1437 35.3429 35.2016C35.3061 35.2595 35.2833 35.3252 35.2763 35.3935L35.1553 35.8786C35.0384 36.2444 34.8495 36.5831 34.5998 36.8748C34.3501 37.1665 34.0445 37.4053 33.7012 37.5773L30.6706 39.3982C30.5812 39.4359 30.5018 39.4939 30.4387 39.5676C30.3756 39.6413 30.3306 39.7287 30.3071 39.8229C30.2836 39.917 30.2824 40.0153 30.3035 40.11C30.3246 40.2047 30.3675 40.2932 30.4287 40.3685L36.2557 50.0662C36.2934 50.1556 36.3514 50.235 36.4251 50.2981C36.4988 50.3612 36.5862 50.4063 36.6804 50.4298C36.7745 50.4533 36.8728 50.4545 36.9675 50.4334C37.0622 50.4123 37.1507 50.3694 37.226 50.3082L44.4993 45.9379C44.671 45.8519 44.8237 45.7325 44.9486 45.5866C45.0734 45.4408 45.1679 45.2715 45.2264 45.0886L46.9198 38.2965C46.9457 38.233 46.9563 38.1643 46.951 38.0959C46.9457 38.0275 46.9246 37.9612 46.8892 37.9024C46.8539 37.8436 46.8054 37.7939 46.7475 37.7571C46.6896 37.7203 46.6239 37.6974 46.5556 37.6904L35.8824 35.0293ZM25.8218 42.3117C25.897 42.2505 25.9855 42.2076 26.0802 42.1865C26.1749 42.1654 26.2732 42.1666 26.3674 42.1901C26.4615 42.2136 26.5489 42.2586 26.6226 42.3217C26.6963 42.3848 26.7544 42.4642 26.7921 42.5536L32.6191 52.2514C32.6803 52.3266 32.7232 52.4151 32.7443 52.5098C32.7654 52.6045 32.7641 52.7028 32.7407 52.797C32.7172 52.8911 32.6721 52.9785 32.609 53.0522C32.5459 53.1259 32.4665 53.184 32.3771 53.2217L27.5283 56.1352C27.3717 56.2464 27.1946 56.3251 27.0072 56.3669C26.8198 56.4087 26.6259 56.4126 26.437 56.3784C16.2489 53.8382 10.9084 46.323 9.86366 43.486C9.75024 43.1142 9.85525 42.9686 10.1787 43.0492L19.8816 45.4684C20.0706 45.5026 20.2644 45.4987 20.4518 45.457C20.6392 45.4152 20.8164 45.3364 20.9729 45.2252" fill="white"/>
</svg>
