<svg xmlns="http://www.w3.org/2000/svg" xmlns:xlink="http://www.w3.org/1999/xlink" width="64" height="64" viewBox="0 0 64 64">
  <defs>
    <clipPath id="clip-_21">
      <rect width="64" height="64"/>
    </clipPath>
  </defs>
  <g id="_21" data-name="21" clip-path="url(#clip-_21)">
    <g id="타원_1" data-name="타원 1" fill="none" stroke="#fff" stroke-width="4">
      <circle cx="32" cy="32" r="32" stroke="none"/>
      <circle cx="32" cy="32" r="30" fill="none"/>
    </g>
    <path id="패스_51" data-name="패스 51" d="M3.627.182C5.551.182,7.2-.832,7.2-2.639A2.392,2.392,0,0,0,5.343-4.992v-.065A2.22,2.22,0,0,0,6.89-7.189c0-1.729-1.313-2.665-3.315-2.665a4.546,4.546,0,0,0-3,1.2l1.17,1.417a2.517,2.517,0,0,1,1.729-.806c.715,0,1.105.364,1.105,1.027,0,.767-.52,1.261-2.171,1.261v1.638c2.028,0,2.47.494,2.47,1.326,0,.728-.585,1.1-1.482,1.1a3.01,3.01,0,0,1-2.015-.936L.312-1.17A4.151,4.151,0,0,0,3.627.182Z" transform="translate(8.623 32.348)" fill="#fff"/>
    <path id="패스_50" data-name="패스 50" d="M3.627.182C5.551.182,7.2-.832,7.2-2.639A2.392,2.392,0,0,0,5.343-4.992v-.065A2.22,2.22,0,0,0,6.89-7.189c0-1.729-1.313-2.665-3.315-2.665a4.546,4.546,0,0,0-3,1.2l1.17,1.417a2.517,2.517,0,0,1,1.729-.806c.715,0,1.105.364,1.105,1.027,0,.767-.52,1.261-2.171,1.261v1.638c2.028,0,2.47.494,2.47,1.326,0,.728-.585,1.1-1.482,1.1a3.01,3.01,0,0,1-2.015-.936L.312-1.17A4.151,4.151,0,0,0,3.627.182Z" transform="translate(28 37.5)" fill="#fff"/>
    <path id="패스_49" data-name="패스 49" d="M.546,0H7.254V-1.95H5.486A13.709,13.709,0,0,0,3.9-1.82c1.482-1.5,2.912-3.328,2.912-4.992A2.942,2.942,0,0,0,3.64-9.854,4.007,4.007,0,0,0,.429-8.359L1.69-7.111a2.354,2.354,0,0,1,1.638-.936A1.2,1.2,0,0,1,4.589-6.682c0,1.4-1.625,3.159-4.043,5.356Z" transform="translate(47.377 42.652)" fill="#fff"/>
    <line id="선_16" data-name="선 16" x2="6.491" y2="1.926" transform="translate(38.452 35.145)" fill="none" stroke="#fff" stroke-linecap="round" stroke-width="3"/>
    <line id="선_17" data-name="선 17" x2="6.491" y2="1.926" transform="translate(19.383 29.804)" fill="none" stroke="#fff" stroke-linecap="round" stroke-width="3"/>
  </g>
</svg>
