<svg xmlns="http://www.w3.org/2000/svg" xmlns:xlink="http://www.w3.org/1999/xlink" width="64" height="64" viewBox="0 0 64 64">
  <defs>
    <clipPath id="clip-_21">
      <rect width="64" height="64"/>
    </clipPath>
  </defs>
  <g id="_21" data-name="21" clip-path="url(#clip-_21)">
    <g id="グループ_97" data-name="グループ 97" transform="translate(-438 -637)">
      <g id="circles_1" transform="translate(438 637)" fill="none" stroke="#fff" stroke-width="4">
        <circle cx="32" cy="32" r="32" stroke="none"/>
        <circle cx="32" cy="32" r="30" fill="none"/>
      </g>
      <path id="icon_1" d="M-22.5-8a.442.442,0,0,1-.5-.5C-23-11-16-20-13-20H-2.5a.442.442,0,0,1,.5.5v11a.442.442,0,0,1-.5.5m5-12a.442.442,0,0,0-.5.5v11a.442.442,0,0,0,.5.5h1a.442.442,0,0,1,.5.5V-3a.442.442,0,0,0,.5.5h11A.442.442,0,0,0,16-3V-17c0-1-2-3-3-3M4.5,2a.442.442,0,0,0-.5.5V3A2.881,2.881,0,0,1,3,5L.5,7.5a.625.625,0,0,0,0,1l8,8a.625.625,0,0,0,1,0l6-6a1.441,1.441,0,0,0,.5-1v-7a.442.442,0,0,0-.5-.5m-19,9.5a.625.625,0,0,1,1,0l8,8a.625.625,0,0,1,0,1l-4,4a1.441,1.441,0,0,1-1,.5C-10,25-17,19-18.7,16.5q-.3-.5.2-.5h10a1.441,1.441,0,0,0,1-.5" transform="translate(470 669) rotate(14)" fill="#fff"/>
    </g>
  </g>
</svg>
