<svg width="64" height="64" viewBox="0 0 64 64" fill="none" xmlns="http://www.w3.org/2000/svg">
<path d="M32 62C48.5685 62 62 48.5685 62 32C62 15.4315 48.5685 2 32 2C15.4315 2 2 15.4315 2 32C2 48.5685 15.4315 62 32 62Z" stroke="white" stroke-width="4"/>
<path d="M32.4832 27.5808L36.4947 31.5782L19.5228 48.4905C18.8411 49.1698 17.7359 49.1698 17.0542 48.4905L15.5113 46.953C14.8296 46.2737 14.8296 45.1724 15.5113 44.4931L32.4832 27.5808Z" fill="white"/>
<path d="M38.6548 21.4309C39.3365 20.7516 40.4417 20.7516 41.1234 21.4309L42.6663 22.9683C43.348 23.6476 43.348 24.749 42.6663 25.4283L37.729 30.3482L33.7175 26.3508L38.6548 21.4309Z" fill="white"/>
<path d="M44.7654 26.7779C44.823 26.5555 45.1399 26.5555 45.1974 26.7779L46.1151 30.3227C46.1353 30.401 46.1967 30.4622 46.2754 30.4824L49.8326 31.3968C50.0558 31.4541 50.0558 31.7699 49.8326 31.8273L46.2754 32.7417C46.1967 32.7619 46.1353 32.8231 46.1151 32.9014L45.1974 36.4462C45.1399 36.6686 44.823 36.6686 44.7654 36.4462L43.8478 32.9014C43.8275 32.8231 43.7661 32.7619 43.6875 32.7417L40.1302 31.8273C39.9071 31.7699 39.9071 31.4541 40.1302 31.3968L43.6875 30.4824C43.7661 30.4622 43.8275 30.401 43.8478 30.3227L44.7654 26.7779Z" fill="white"/>
<path d="M43.0053 14.0798C43.0329 13.9734 43.1844 13.9734 43.2119 14.0798L43.6508 15.7751C43.6605 15.8126 43.6899 15.8418 43.7275 15.8515L45.4288 16.2888C45.5355 16.3162 45.5355 16.4673 45.4288 16.4947L43.7275 16.932C43.6899 16.9417 43.6605 16.971 43.6508 17.0084L43.2119 18.7038C43.1844 18.8101 43.0329 18.8101 43.0053 18.7038L42.5665 17.0084C42.5568 16.971 42.5274 16.9417 42.4898 16.932L40.7885 16.4947C40.6818 16.4673 40.6818 16.3162 40.7885 16.2888L42.4898 15.8515C42.5274 15.8418 42.5568 15.8126 42.5665 15.7751L43.0053 14.0798Z" fill="white"/>
<path d="M24.7018 16.4792C24.7469 16.3051 24.9949 16.3051 25.04 16.4792L25.7581 19.2534C25.774 19.3147 25.822 19.3625 25.8835 19.3784L28.6675 20.094C28.8421 20.1389 28.8421 20.386 28.6675 20.4309L25.8835 21.1465C25.822 21.1623 25.774 21.2102 25.7581 21.2715L25.04 24.0457C24.9949 24.2197 24.7469 24.2197 24.7018 24.0457L23.9837 21.2715C23.9678 21.2102 23.9198 21.1623 23.8583 21.1465L21.0743 20.4309C20.8997 20.386 20.8997 20.1389 21.0743 20.094L23.8583 19.3784C23.9198 19.3625 23.9678 19.3147 23.9837 19.2534L24.7018 16.4792Z" fill="white"/>
</svg>
