<svg xmlns="http://www.w3.org/2000/svg" xmlns:xlink="http://www.w3.org/1999/xlink" width="64" height="64" viewBox="0 0 64 64">
  <defs>
    <clipPath id="clip-_23">
      <rect width="64" height="64"/>
    </clipPath>
  </defs>
  <g id="_23" data-name="23" clip-path="url(#clip-_23)">
    <g id="楕円形_1" data-name="楕円形 1" fill="none" stroke="#fff" stroke-width="4">
      <circle cx="32" cy="32" r="32" stroke="none"/>
      <circle cx="32" cy="32" r="30" fill="none"/>
    </g>
    <line id="線_10" data-name="線 10" x2="58" transform="translate(11.494 52.506) rotate(-45)" fill="none" stroke="#fff" stroke-width="4"/>
    <path id="前面オブジェクトで型抜き_6" data-name="前面オブジェクトで型抜き 6" d="M-50.644-314.264a12.588,12.588,0,0,1-4.014-.594,9.152,9.152,0,0,1-2.986-1.622,6.912,6.912,0,0,1-1.879-2.471,7.588,7.588,0,0,1-.653-3.145v-.672a6.662,6.662,0,0,1,.309-2.039l4.5-4.5.1-.031-.033-.016-.012-.006,2.177-2.177a5.273,5.273,0,0,0,2.5.577,4.993,4.993,0,0,0,3.382-1.186,4.186,4.186,0,0,0,1.364-3.323v-.435a4.386,4.386,0,0,0-.577-2.3l2.734-2.734a7.118,7.118,0,0,1,1.206,1.869,7.111,7.111,0,0,1,.593,2.887v.553a6.942,6.942,0,0,1-.989,3.521,7.26,7.26,0,0,1-3.085,2.768,6.96,6.96,0,0,1,3.5,2.413,6.542,6.542,0,0,1,1.4,4.154v.672a7.588,7.588,0,0,1-.653,3.145,6.924,6.924,0,0,1-1.879,2.471,9.152,9.152,0,0,1-2.986,1.622A12.591,12.591,0,0,1-50.644-314.264Zm.04-13.251a7.663,7.663,0,0,0-2.156.3,4.986,4.986,0,0,0-1.759.91,4.433,4.433,0,0,0-1.187,1.5,4.706,4.706,0,0,0-.435,2.077v.435a4.073,4.073,0,0,0,1.483,3.263,6.132,6.132,0,0,0,4.054,1.246,5.974,5.974,0,0,0,4.015-1.246,4.12,4.12,0,0,0,1.444-3.263v-.435a4.3,4.3,0,0,0-1.543-3.56A6.124,6.124,0,0,0-50.6-327.514ZM-66.346-314.7h-3.628l3.628-3.628v3.627Zm-3.916-8.2V-338.63l-6.684,3.956-1.859-3.164,9.176-5.379h3.283v16.4L-70.26-322.9Zm11.118-11.118v0a6.589,6.589,0,0,1-.2-1.607v-.553a7.312,7.312,0,0,1,.573-2.887,6.944,6.944,0,0,1,1.681-2.373,8.024,8.024,0,0,1,2.729-1.622,10.849,10.849,0,0,1,3.718-.593c.373,0,.74.015,1.092.044l-4.668,4.668q-.05.048-.1.1l-4.825,4.826Z" transform="translate(91.958 360.958)" fill="#fff" stroke="rgba(0,0,0,0)" stroke-miterlimit="10" stroke-width="1"/>
  </g>
</svg>
