<svg width="64" height="64" viewBox="0 0 64 64" fill="none" xmlns="http://www.w3.org/2000/svg">
<path d="M32 62C48.5685 62 62 48.5685 62 32C62 15.4315 48.5685 2 32 2C15.4315 2 2 15.4315 2 32C2 48.5685 15.4315 62 32 62Z" stroke="white" stroke-width="4"/>
<path d="M50.364 28.72L33.7108 37.2086C32.627 37.7649 31.3666 37.8678 30.207 37.4948C29.0473 37.1218 28.0833 36.3034 27.527 35.2196C26.9707 34.1358 26.8678 32.8754 27.2408 31.7158C27.6138 30.5561 28.4322 29.592 29.516 29.0358C29.966 28.8019 30.4528 28.6469 30.9552 28.5776L49.445 25.8424C49.8039 25.79 50.1696 25.8668 50.4772 26.0589C50.7847 26.2511 51.0141 26.5461 51.1244 26.8916C51.2347 27.237 51.2188 27.6104 51.0796 27.9453C50.9403 28.2801 50.6868 28.5546 50.364 28.72V28.72Z" fill="white"/>
<path fill-rule="evenodd" clip-rule="evenodd" d="M31.4999 8C18.9035 8 8.52739 17.5061 7.15411 29.7356C7.08006 30.3951 7.74441 30.8696 8.35801 30.6169V30.6169C8.60792 30.514 8.79736 30.3038 8.88274 30.0474C11.3985 22.4915 19.0059 17 27.9999 17C34.7612 17 40.7389 20.1035 44.3589 24.8545C44.8246 25.4657 45.5704 25.814 46.3319 25.711L49.8825 25.2307C50.3449 25.1539 50.8134 25.2469 51.2046 25.4932C51.5957 25.7395 51.8841 26.123 52.0183 26.5755C52.1525 27.028 52.1239 27.52 51.9375 27.964C51.7511 28.408 51.4191 28.7752 51.0005 29L47.4984 31V31C47.4502 31.0259 47.4259 31.0814 47.4398 31.1343C47.6028 31.7574 47.7316 32.3929 47.8244 33.0388C47.9074 33.616 48.2038 34.1462 48.6783 34.4852L52.7827 37.4168C53.9123 38.2237 55.4962 37.6583 55.7091 36.2865C55.9005 35.0524 55.9999 33.7878 55.9999 32.5C55.9999 18.969 45.0309 8 31.4999 8Z" fill="white"/>
</svg>
