<svg width="64" height="64" viewBox="0 0 64 64" fill="none" xmlns="http://www.w3.org/2000/svg">
<path d="M32 62C48.5685 62 62 48.5685 62 32C62 15.4315 48.5685 2 32 2C15.4315 2 2 15.4315 2 32C2 48.5685 15.4315 62 32 62Z" stroke="white" stroke-width="4"/>
<path fill-rule="evenodd" clip-rule="evenodd" d="M34.5823 17.1069C35.93 14.7726 38.9148 13.9729 41.249 15.3206C43.5833 16.6682 44.3831 19.653 43.0354 21.9873L42.5473 22.8327L48.4022 26.213C49.8371 27.0415 50.3287 28.8762 49.5003 30.3111L46.608 35.3207L47.4534 35.8088C49.7877 37.1565 50.5875 40.1413 49.2398 42.4756C47.8921 44.8098 44.9073 45.6096 42.573 44.2619L41.7276 43.7738L37.8591 50.4742C37.0307 51.9091 35.1959 52.4007 33.7611 51.5723L28.7515 48.68C28.2847 48.4105 28.1247 47.8135 28.3942 47.3467C29.7419 45.0124 28.9421 42.0276 26.6079 40.6799C24.2736 39.3322 21.2888 40.132 19.9412 42.4663C19.6716 42.9331 19.0746 43.0931 18.6078 42.8235L13.598 39.9311C12.1631 39.1027 11.6714 37.2679 12.4999 35.8331L15.8803 29.978C16.1498 29.5111 16.7468 29.3512 17.2136 29.6207C19.5478 30.9684 22.5326 30.1686 23.8803 27.8344C25.228 25.5001 24.4282 22.5153 22.094 21.1676C21.6272 20.8981 21.4672 20.3012 21.7367 19.8343L24.1411 15.6699C24.9695 14.2351 26.8043 13.7434 28.2391 14.5719L34.0942 17.9523L34.5823 17.1069Z" fill="white"/>
</svg>
