<svg width="64" height="64" viewBox="0 0 64 64" fill="none" xmlns="http://www.w3.org/2000/svg">
<path d="M32 62C48.5685 62 62 48.5685 62 32C62 15.4315 48.5685 2 32 2C15.4315 2 2 15.4315 2 32C2 48.5685 15.4315 62 32 62Z" stroke="white" stroke-width="4"/>
<path d="M47.576 49.023H43.433L38.27 40.057C38.3078 38.6646 37.8598 37.3024 37.003 36.2041C36.6141 35.7274 36.1236 35.3436 35.5674 35.0808C35.0111 34.818 34.4032 34.6828 33.788 34.6851C33.709 34.6851 33.63 34.6851 33.551 34.6911L41.94 26.3021C42.0604 26.6571 42.2892 26.9653 42.5943 27.1831C42.8994 27.401 43.2652 27.5174 43.64 27.5161C44.1174 27.5161 44.5752 27.3264 44.9128 26.9888C45.2504 26.6513 45.44 26.1934 45.44 25.7161C45.4386 25.3413 45.3189 24.9766 45.098 24.6739C44.8772 24.3711 44.5664 24.1458 44.21 24.0301L45.735 22.5051C49.302 25.8491 49.055 28.1631 49.016 28.4161V28.4221C49.0097 29.5955 48.5381 30.7185 47.7048 31.5447C46.8715 32.3709 45.7445 32.8328 44.571 32.8291L43.644 32.7351V32.8861C43.6452 33.8825 43.439 34.8683 43.0386 35.7807C42.6381 36.6932 42.0522 37.5123 41.318 38.1861L47.578 49.023H47.576ZM38.232 49.023H22.132C21.896 49.0251 21.6621 48.9792 21.4443 48.8883C21.2266 48.7974 21.0295 48.6633 20.865 48.494C20.6702 48.3004 20.523 48.0642 20.435 47.8041L31.758 36.4891C31.839 36.4891 31.918 36.4831 31.994 36.4831C33.1775 36.4844 34.3122 36.9551 35.1491 37.792C35.986 38.6289 36.4567 39.7635 36.458 40.947C36.4612 42.1353 35.9931 43.2763 35.1563 44.1198C34.3194 44.9634 33.1822 45.4407 31.994 45.447H38.236V49.021L38.232 49.023ZM15.458 44.3C15.1384 43.8446 14.9672 43.3015 14.968 42.745C14.9685 42.0327 15.2517 41.3498 15.7553 40.846C16.2588 40.3422 16.9417 40.0588 17.654 40.058L18.543 40.209V36.4831C18.5389 35.3056 18.7682 34.139 19.2175 33.0506C19.6669 31.9622 20.3274 30.9737 21.161 30.1421C21.9927 29.3061 22.9821 28.6437 24.0718 28.193C25.1615 27.7424 26.3298 27.5127 27.509 27.5171H27.547C28.7072 27.5416 29.8645 27.6439 31.011 27.8231C31.299 27.8621 31.57 27.8991 31.829 27.9311L15.458 44.299V44.3ZM34.858 24.9001C35.0367 24.2875 35.3192 23.7101 35.693 23.1931C34.2532 22.5169 32.6836 22.1621 31.093 22.1531C30.8558 22.1561 30.6203 22.1117 30.4006 22.0223C30.1808 21.933 29.9811 21.8005 29.8133 21.6327C29.6456 21.465 29.5131 21.2653 29.4237 21.0455C29.3344 20.8257 29.2899 20.5903 29.293 20.3531C29.2909 19.9679 29.413 19.5923 29.6412 19.2821C29.8695 18.9719 30.1917 18.7436 30.56 18.6311L29.293 18.5551C28.8186 18.5577 28.3626 18.3719 28.0251 18.0386C27.6876 17.7052 27.4962 17.2514 27.493 16.7771C27.493 16.2997 27.6827 15.8418 28.0202 15.5043C28.3578 15.1667 28.8156 14.9771 29.293 14.9771H31.093C32.8559 14.9804 34.5911 15.4156 36.1469 16.2445C37.7028 17.0734 39.0319 18.2708 40.018 19.7321L34.856 24.8941L34.858 24.9001Z" fill="white"/>
<path d="M11.4939 52.506L52.5061 11.4938" stroke="white" stroke-width="3"/>
</svg>
