<svg xmlns="http://www.w3.org/2000/svg" xmlns:xlink="http://www.w3.org/1999/xlink" width="64" height="64" viewBox="0 0 64 64">
  <defs>
    <clipPath id="clip-_3">
      <rect width="64" height="64"/>
    </clipPath>
  </defs>
  <g id="_3" data-name="3" clip-path="url(#clip-_3)">
    <g id="타원_1" data-name="타원 1" fill="none" stroke="#fff" stroke-width="4">
      <circle cx="32" cy="32" r="32" stroke="none"/>
      <circle cx="32" cy="32" r="30" fill="none"/>
    </g>
    <path id="빼기_4" data-name="빼기 4" d="M-128.382,41.065h-4.143l-5.163-8.966a6,6,0,0,0-1.267-3.853,4.13,4.13,0,0,0-3.215-1.519c-.079,0-.158,0-.237.006l8.389-8.389a1.788,1.788,0,0,0,1.7,1.214,1.8,1.8,0,0,0,1.8-1.8,1.78,1.78,0,0,0-1.23-1.686l1.525-1.525c3.567,3.344,3.32,5.658,3.281,5.911v.006a4.431,4.431,0,0,1-4.445,4.407l-.927-.094v.151a7.182,7.182,0,0,1-2.326,5.3l6.26,10.837Zm-9.344,0h-16.1a1.746,1.746,0,0,1-1.267-.529,1.775,1.775,0,0,1-.43-.69L-144.2,28.531c.081,0,.16-.006.236-.006a4.469,4.469,0,0,1,4.464,4.464,4.488,4.488,0,0,1-4.464,4.5h6.242v3.574ZM-160.5,36.342h0a2.7,2.7,0,0,1-.49-1.555,2.689,2.689,0,0,1,2.686-2.687l.889.151V28.525a8.913,8.913,0,0,1,2.618-6.341,8.908,8.908,0,0,1,6.348-2.625h.038a26,26,0,0,1,3.464.306c.288.039.559.076.818.108L-160.5,36.341Zm19.4-19.4v0a5.582,5.582,0,0,1,.835-1.707,10.968,10.968,0,0,0-4.6-1.04,1.777,1.777,0,0,1-1.8-1.8,1.79,1.79,0,0,1,1.267-1.722l-1.267-.076a1.79,1.79,0,0,1-1.8-1.778,1.8,1.8,0,0,1,1.8-1.8h1.8a10.792,10.792,0,0,1,8.925,4.755l-5.162,5.162Z" transform="translate(175.958 7.958)" fill="#fff"/>
    <line id="선_8" data-name="선 8" x2="58" transform="translate(11.494 52.506) rotate(-45)" fill="none" stroke="#fff" stroke-width="3"/>
  </g>
</svg>
