<svg width="64" height="64" viewBox="0 0 64 64" fill="none" xmlns="http://www.w3.org/2000/svg">
<path d="M32 62C48.5685 62 62 48.5685 62 32C62 15.4315 48.5685 2 32 2C15.4315 2 2 15.4315 2 32C2 48.5685 15.4315 62 32 62Z" stroke="white" stroke-width="4"/>
<path d="M11.4939 52.506L52.5061 11.4938" stroke="white" stroke-width="4"/>
<path d="M41.3141 46.694C39.9528 46.7144 38.5971 46.5138 37.3001 46.1C36.2122 45.7505 35.1994 45.2004 34.3141 44.478C33.5085 43.8075 32.866 42.9625 32.4351 42.007C31.9955 41.0173 31.7728 39.9449 31.7821 38.862V38.19C31.7786 37.4984 31.8829 36.8105 32.0911 36.151L36.5911 31.651L36.6911 31.62L36.6581 31.604L36.6461 31.598L38.8231 29.421C39.5962 29.8163 40.4549 30.0145 41.3231 29.998C42.5583 30.0349 43.7634 29.6123 44.7051 28.812C45.1648 28.3941 45.5257 27.8791 45.7616 27.3043C45.9976 26.7295 46.1026 26.1094 46.0691 25.489V25.054C46.0916 24.2489 45.8919 23.4532 45.4921 22.754L48.2261 20.02C48.7235 20.576 49.1305 21.2067 49.4321 21.889C49.8292 22.7994 50.0312 23.7828 50.0251 24.776V25.329C50.0161 26.57 49.6745 27.7859 49.0361 28.85C48.2986 30.0529 47.2265 31.0148 45.9511 31.618C47.3408 32.0377 48.5646 32.8814 49.4511 34.031C50.3816 35.2135 50.876 36.6806 50.8511 38.185V38.857C50.8603 39.9399 50.6377 41.0123 50.1981 42.002C49.7668 42.9573 49.1244 43.8022 48.3191 44.473C47.4337 45.1954 46.4209 45.7455 45.3331 46.095C44.0347 46.511 42.6773 46.7133 41.3141 46.694ZM41.3541 33.443C40.6248 33.4399 39.8988 33.541 39.1981 33.743C38.5568 33.9257 37.9587 34.2351 37.4391 34.653C36.939 35.0607 36.5339 35.5726 36.2521 36.153C35.9508 36.8032 35.8021 37.5136 35.8171 38.23V38.665C35.7991 39.286 35.9233 39.9029 36.1804 40.4684C36.4374 41.034 36.8204 41.5333 37.3001 41.928C38.4602 42.8123 39.8976 43.2541 41.3541 43.174C42.7992 43.2589 44.2259 42.8161 45.3691 41.928C45.839 41.5272 46.2127 41.0258 46.4627 40.461C46.7126 39.8962 46.8324 39.2824 46.8131 38.665V38.23C46.8529 37.5572 46.734 36.8845 46.4659 36.2661C46.1979 35.6477 45.7883 35.101 45.2701 34.67C44.1457 33.8241 42.7642 33.3911 41.3581 33.444L41.3541 33.443ZM25.6121 46.258H21.9841L25.6121 42.63V46.257V46.258ZM21.6961 38.058V22.328L15.0121 26.284L13.1531 23.12L22.3291 17.741H25.6121V34.141L21.6981 38.058H21.6961ZM32.8141 26.94C32.6816 26.4146 32.6144 25.8749 32.6141 25.333V24.78C32.6074 23.7888 32.8024 22.8066 33.1871 21.893C33.5736 20.9923 34.1465 20.1835 34.8681 19.52C35.6606 18.803 36.5885 18.2516 37.5971 17.898C38.7924 17.4852 40.0507 17.2845 41.3151 17.305C41.6881 17.305 42.0551 17.32 42.4071 17.349L37.7391 22.017C37.7057 22.049 37.6724 22.0824 37.6391 22.117L32.8141 26.943V26.94Z" fill="white"/>
</svg>
