<svg width="64" height="64" viewBox="0 0 64 64" fill="none" xmlns="http://www.w3.org/2000/svg">
<path d="M32 62C48.5685 62 62 48.5685 62 32C62 15.4315 48.5685 2 32 2C15.4315 2 2 15.4315 2 32C2 48.5685 15.4315 62 32 62Z" stroke="white" stroke-width="4"/>
<path d="M31.9999 45.5C29.3273 45.5017 26.6771 45.0129 24.1809 44.058L27.2809 40.958C28.7361 41.7225 30.3552 42.1219 31.9989 42.122C33.3289 42.1258 34.6464 41.8657 35.8752 41.357C37.1041 40.8482 38.2198 40.1008 39.1579 39.158C40.1006 38.2199 40.8477 37.1041 41.3562 35.8753C41.8646 34.6464 42.1242 33.3289 42.1199 31.999C42.1202 30.3558 41.7215 28.7371 40.9579 27.282L45.2779 22.962C48.094 25.0921 50.3928 27.8305 52.0029 30.973C52.163 31.2915 52.2463 31.643 52.2463 31.9995C52.2463 32.356 52.163 32.7075 52.0029 33.026C50.1241 36.7097 47.2965 39.8256 43.8119 42.052C40.2827 44.3015 36.185 45.4976 31.9999 45.5ZM18.7189 41.038C15.9032 38.9078 13.6047 36.1694 11.9949 33.027C11.8348 32.7085 11.7515 32.357 11.7515 32.0005C11.7515 31.644 11.8348 31.2925 11.9949 30.974C13.8737 27.2902 16.7012 24.1744 20.1859 21.948C23.716 19.698 27.8147 18.5019 32.0009 18.5C34.6726 18.4973 37.3221 18.9847 39.8179 19.938L36.7179 23.038C35.2628 22.2735 33.6436 21.874 31.9999 21.874C29.3153 21.8769 26.7415 22.9447 24.8433 24.8431C22.9451 26.7415 21.8775 29.3154 21.8749 32C21.875 33.6437 22.2745 35.2628 23.0389 36.718L18.7199 41.037L18.7189 41.038ZM32.0189 38.719C31.2906 38.7192 30.5672 38.601 29.8769 38.369L38.4039 29.842C38.8504 31.1727 38.8699 32.6096 38.4599 33.9519C38.0499 35.2943 37.2307 36.475 36.1169 37.329C34.9386 38.229 33.4975 38.7173 32.0149 38.719H32.0189ZM25.6349 34.126C25.2114 32.866 25.1718 31.5086 25.5209 30.226C26.0974 30.6523 26.7959 30.8816 27.5129 30.88C28.294 30.8796 29.0507 30.6082 29.6539 30.112L25.6359 34.13L25.6349 34.126ZM30.1259 29.634C30.5965 29.0559 30.8617 28.3378 30.8798 27.5926C30.8979 26.8474 30.6679 26.1173 30.2259 25.517C30.8046 25.3487 31.4033 25.2592 32.0059 25.251H32.0229C32.7508 25.2505 33.4739 25.3684 34.1639 25.6L30.1259 29.634Z" fill="white"/>
<path d="M11.4939 52.506L52.5061 11.4938" stroke="white" stroke-width="3"/>
</svg>
