<svg xmlns="http://www.w3.org/2000/svg" xmlns:xlink="http://www.w3.org/1999/xlink" width="64" height="64" viewBox="0 0 64 64">
  <defs>
    <clipPath id="clip-_5">
      <rect width="64" height="64"/>
    </clipPath>
  </defs>
  <g id="_5" data-name="5" clip-path="url(#clip-_5)">
    <g id="타원_1" data-name="타원 1" fill="none" stroke="#fff" stroke-width="4">
      <circle cx="32" cy="32" r="32" stroke="none"/>
      <circle cx="32" cy="32" r="30" fill="none"/>
    </g>
    <path id="빼기_1" data-name="빼기 1" d="M-59.958,37.542A21.846,21.846,0,0,1-67.777,36.1l3.1-3.1a10.146,10.146,0,0,0,4.718,1.164A10.059,10.059,0,0,0-52.8,31.2a10.054,10.054,0,0,0,2.962-7.159A10.147,10.147,0,0,0-51,19.324l4.32-4.32a23.455,23.455,0,0,1,6.725,8.011,2.286,2.286,0,0,1,0,2.053,23.243,23.243,0,0,1-8.191,9.026A22,22,0,0,1-59.958,37.542ZM-73.239,33.08h0a23.455,23.455,0,0,1-6.724-8.011,2.286,2.286,0,0,1,0-2.053,23.242,23.242,0,0,1,8.191-9.026,22,22,0,0,1,11.815-3.448A21.844,21.844,0,0,1-52.14,11.98l-3.1,3.1a10.144,10.144,0,0,0-4.718-1.164A10.136,10.136,0,0,0-70.083,24.042a10.147,10.147,0,0,0,1.164,4.718l-4.319,4.319Zm13.3-2.319h0a6.72,6.72,0,0,1-2.142-.35l8.527-8.527a6.735,6.735,0,0,1-2.287,7.487A6.771,6.771,0,0,1-59.943,30.761Zm-6.384-4.593v0a6.71,6.71,0,0,1-.114-3.9,3.338,3.338,0,0,0,1.992.654,3.373,3.373,0,0,0,2.141-.768l-4.018,4.018Zm4.491-4.492h0a3.363,3.363,0,0,0,.1-4.117,6.7,6.7,0,0,1,1.78-.266h.017a6.714,6.714,0,0,1,2.141.349Z" transform="translate(91.958 7.958)" fill="#fff"/>
    <line id="선_10" data-name="선 10" x2="58" transform="translate(11.494 52.506) rotate(-45)" fill="none" stroke="#fff" stroke-width="3"/>
  </g>
</svg>
