<svg xmlns="http://www.w3.org/2000/svg" xmlns:xlink="http://www.w3.org/1999/xlink" width="64" height="64" viewBox="0 0 64 64">
  <defs>
    <clipPath id="clip-_6">
      <rect width="64" height="64"/>
    </clipPath>
  </defs>
  <g id="_6" data-name="6" clip-path="url(#clip-_6)">
    <g id="타원_1" data-name="타원 1" fill="none" stroke="#fff" stroke-width="3">
      <circle cx="32" cy="32" r="32" stroke="none"/>
      <circle cx="32" cy="32" r="30.5" fill="none"/>
    </g>
    <path id="패스_6" data-name="패스 6" d="M21.68-9.316a10.267,10.267,0,0,1-.723,3.867,9.44,9.44,0,0,1-2.012,3.115,9.308,9.308,0,0,1-3.066,2.07,9.874,9.874,0,0,1-3.887.752A9.8,9.8,0,0,1,7.764-.391,8.535,8.535,0,0,1,4.609-2.939,11.917,11.917,0,0,1,2.637-7.031a20.221,20.221,0,0,1-.684-5.488,22.6,22.6,0,0,1,.889-6.553A15.044,15.044,0,0,1,5.381-24.1a11.4,11.4,0,0,1,3.994-3.232,11.877,11.877,0,0,1,5.273-1.143,13.3,13.3,0,0,1,5.039.762v5.156a9.241,9.241,0,0,0-4.648-1.211,6.5,6.5,0,0,0-2.832.605,6.26,6.26,0,0,0-2.178,1.719A8.31,8.31,0,0,0,8.6-18.76a11.952,11.952,0,0,0-.557,3.506h.117a6.793,6.793,0,0,1,5.879-2.754,7.66,7.66,0,0,1,3.145.625,6.822,6.822,0,0,1,2.4,1.768,8.109,8.109,0,0,1,1.543,2.744A10.948,10.948,0,0,1,21.68-9.316Zm-6.035.391q0-4.512-3.691-4.512a3.622,3.622,0,0,0-1.523.313,3.39,3.39,0,0,0-1.172.879,4.01,4.01,0,0,0-.752,1.338A5.258,5.258,0,0,0,8.242-9.2a6.61,6.61,0,0,0,.273,1.934,5.135,5.135,0,0,0,.771,1.572,3.82,3.82,0,0,0,1.182,1.064,3.016,3.016,0,0,0,1.523.391,3.3,3.3,0,0,0,1.514-.342,3.389,3.389,0,0,0,1.152-.957,4.4,4.4,0,0,0,.732-1.484A6.771,6.771,0,0,0,15.645-8.926Z" transform="translate(20.184 45.994)" fill="#fff"/>
  </g>
</svg>
