<svg xmlns="http://www.w3.org/2000/svg" xmlns:xlink="http://www.w3.org/1999/xlink" width="64" height="64" viewBox="0 0 64 64">
  <defs>
    <clipPath id="clip-_6">
      <rect width="64" height="64"/>
    </clipPath>
  </defs>
  <g id="_6" data-name="6" clip-path="url(#clip-_6)">
    <g id="타원_1" data-name="타원 1" fill="none" stroke="#fff" stroke-width="4">
      <circle cx="32" cy="32" r="32" stroke="none"/>
      <circle cx="32" cy="32" r="30" fill="none"/>
    </g>
    <line id="선_9" data-name="선 9" x2="58" transform="translate(11.494 52.506) rotate(-45)" fill="none" stroke="#fff" stroke-width="3"/>
    <path id="빼기_5" data-name="빼기 5" d="M-223.649,46.082a1.924,1.924,0,0,1-.412-.037,2.214,2.214,0,0,1-1.121-.681,2.209,2.209,0,0,1-.475-1.294,1.979,1.979,0,0,1,.595-1.437A2.3,2.3,0,0,1-224,42.017a18.421,18.421,0,0,0,5.847-3.579A18.962,18.962,0,0,0-212.1,27.251a20.1,20.1,0,0,0,.157-3.776,17.192,17.192,0,0,0-3.141-8.767l2.917-2.917c.3.385.58.78.842,1.172A20.968,20.968,0,0,1-208,22a17.834,17.834,0,0,1,.153,2.661,19.582,19.582,0,0,1-.337,3.858,23.055,23.055,0,0,1-4.561,10.09,22.983,22.983,0,0,1-8.738,6.789c-.431.191-1.3.534-1.58.622A2.206,2.206,0,0,1-223.649,46.082Zm-7.121-5.839a16.367,16.367,0,0,1-3.886-.468,17.611,17.611,0,0,1-3.99-1.51l3.073-3.073c.292.12.6.233.9.335a13.961,13.961,0,0,0,2.528.563,11.757,11.757,0,0,0,1.246.045c.595,0,1.335-.019,1.649-.062a11.605,11.605,0,0,0,6.8-3.3,11.659,11.659,0,0,0,3.414-7,11.844,11.844,0,0,0-.123-2.977,10.413,10.413,0,0,0-1.053-2.965l2.974-2.974.01.013c.055.084.111.17.165.254a17.748,17.748,0,0,1,1.14,2.246,14.566,14.566,0,0,1,.978,4.2,19.688,19.688,0,0,1-.067,2.918,15.7,15.7,0,0,1-1.181,4.274,15.988,15.988,0,0,1-5.013,6.324A15.939,15.939,0,0,1-230.77,40.244Zm-11.972-4.954h0c-.184-.179-.367-.364-.543-.55a16.98,16.98,0,0,1-2.964-4.261,17.829,17.829,0,0,1-1.647-10.4,19.354,19.354,0,0,1,3.37-8.4,19.351,19.351,0,0,1,5.813-5.4,19.126,19.126,0,0,1,7.467-2.595,15.265,15.265,0,0,1,2.544-.15,18.07,18.07,0,0,1,4.624.533,21.283,21.283,0,0,1,8.412,4.146l-2.908,2.908a18.112,18.112,0,0,0-1.894-1.269,17,17,0,0,0-6.271-2.125,15.775,15.775,0,0,0-1.956-.117,15.624,15.624,0,0,0-2.451.184,15.108,15.108,0,0,0-10.329,6.666,13.574,13.574,0,0,0-1.031,1.813,14.9,14.9,0,0,0-1.361,4.491,14.577,14.577,0,0,0,.13,4.528,13.434,13.434,0,0,0,3.88,7.114l-2.884,2.884Zm12.1-2.121h-.153a7.333,7.333,0,0,1-2.039-.2c-.138-.03-.278-.065-.416-.1l3.994-3.994a4.623,4.623,0,0,0,2.157-1.4,4.555,4.555,0,0,0,.935-1.689l3.746-3.746a7.325,7.325,0,0,1,.488,2.654,7.868,7.868,0,0,1-.888,3.669,8.845,8.845,0,0,1-5.931,4.607A6.781,6.781,0,0,1-230.643,33.169Zm-7.119-2.859h0a10.347,10.347,0,0,1-2.273-3.192,11.369,11.369,0,0,1,1.084-11.111,12.169,12.169,0,0,1,6.142-4.72,12.022,12.022,0,0,1,4.118-.686,12.612,12.612,0,0,1,4.427.755,14,14,0,0,1,3.571,1.884l-2.939,2.939a9.43,9.43,0,0,0-5.044-1.505,8.54,8.54,0,0,0-2.807.47,8.141,8.141,0,0,0-5.235,5.7,5.678,5.678,0,0,0-.2,1.733,5.479,5.479,0,0,0,.2,1.746,6.481,6.481,0,0,0,1.836,3.1l-2.886,2.886Zm4.8-4.8h0l-.054-.055a3.83,3.83,0,0,1-1.1-2.764,4.655,4.655,0,0,1,.473-2.037,5.364,5.364,0,0,1,4.038-3,3.589,3.589,0,0,1,.7-.064c.1,0,.214,0,.381.007a5.334,5.334,0,0,1,.968.086,6.865,6.865,0,0,1,1.793.623l-7.2,7.2Z" transform="translate(259.958 7.958)" fill="#fff"/>
  </g>
</svg>
