<svg width="64" height="64" viewBox="0 0 64 64" fill="none" xmlns="http://www.w3.org/2000/svg">
<path d="M32 62C48.5685 62 62 48.5685 62 32C62 15.4315 48.5685 2 32 2C15.4315 2 2 15.4315 2 32C2 48.5685 15.4315 62 32 62Z" stroke="white" stroke-width="4"/>
<path d="M11.4939 52.506L52.5061 11.4938" stroke="white" stroke-width="3"/>
<path d="M36.3091 54.04C36.1708 54.0425 36.0327 54.0301 35.8971 54.003C35.4632 53.8944 35.0724 53.657 34.7761 53.322C34.4838 52.9523 34.3174 52.4989 34.3011 52.028C34.2981 51.7607 34.3492 51.4955 34.4515 51.2486C34.5538 51.0016 34.705 50.7779 34.8961 50.591C35.1877 50.2932 35.5548 50.0803 35.9581 49.975C38.1139 49.1583 40.0972 47.9443 41.8051 46.396C45.0506 43.4751 47.1886 39.5237 47.8581 35.209C48.0289 33.958 48.0815 32.6938 48.0151 31.433C47.7946 28.2773 46.7077 25.2437 44.8741 22.666L47.7911 19.749C48.0911 20.134 48.3711 20.529 48.6331 20.921C50.4275 23.6346 51.5658 26.7285 51.9581 29.958C52.0754 30.8399 52.1265 31.7294 52.1111 32.619C52.1265 33.913 52.0136 35.2053 51.7741 36.477C51.096 40.1609 49.5305 43.6241 47.2131 46.567C44.8968 49.5078 41.8972 51.8384 38.4751 53.356C38.0441 53.547 37.1751 53.89 36.8951 53.978C36.7034 54.0248 36.5063 54.0456 36.3091 54.04ZM29.1881 48.201C27.8787 48.201 26.574 48.0439 25.3021 47.733C23.9158 47.3932 22.576 46.8861 21.3121 46.223L24.3851 43.15C24.6771 43.27 24.9851 43.383 25.2851 43.485C26.1085 43.7506 26.9548 43.939 27.8131 44.048C28.2273 44.085 28.6433 44.1 29.0591 44.093C29.6541 44.093 30.3941 44.074 30.7081 44.031C33.2795 43.7206 35.6732 42.559 37.5081 40.731C39.4148 38.8579 40.6201 36.3867 40.9221 33.731C41.0066 32.7374 40.9653 31.7372 40.7991 30.754C40.6003 29.718 40.2452 28.7183 39.7461 27.789L42.7201 24.815L42.7301 24.828C42.7851 24.912 42.8411 24.998 42.8951 25.082C43.3278 25.8027 43.7088 26.5533 44.0351 27.328C44.5677 28.6717 44.8973 30.0872 45.0131 31.528C45.063 32.501 45.0406 33.4763 44.9461 34.446C44.7566 35.9193 44.359 37.3584 43.7651 38.72C42.6623 41.2219 40.9364 43.3993 38.7521 45.044C35.9892 47.1027 32.6336 48.2107 29.1881 48.202V48.201ZM17.2161 43.247C17.0321 43.068 16.8491 42.883 16.6731 42.697C15.4726 41.4369 14.4729 39.9998 13.7091 38.436C12.1256 35.2142 11.5515 31.5894 12.0621 28.036C12.5057 25.009 13.6606 22.1303 15.4321 19.636C16.976 17.4538 18.9553 15.6152 21.2451 14.236C23.5262 12.8604 26.0695 11.9766 28.7121 11.641C29.5544 11.5202 30.4054 11.47 31.2561 11.491C32.814 11.4686 34.3682 11.6477 35.8801 12.024C38.9575 12.7633 41.8312 14.1797 44.2921 16.17L41.3841 19.078C40.78 18.6156 40.1475 18.1918 39.4901 17.809C37.5592 16.6965 35.4285 15.9745 33.2191 15.684C32.5702 15.6045 31.9169 15.5654 31.2631 15.567C30.4425 15.5639 29.623 15.6254 28.8121 15.751C26.7194 16.0761 24.7184 16.8375 22.9389 17.9859C21.1595 19.1343 19.6414 20.644 18.4831 22.417C18.0934 22.994 17.7488 23.6001 17.4521 24.23C16.7641 25.6457 16.3047 27.1615 16.0911 28.721C15.8982 30.2279 15.9421 31.7556 16.2211 33.249C16.7514 35.9631 18.1064 38.4475 20.1011 40.363L17.2171 43.247H17.2161ZM29.3161 41.126H29.1631C28.4774 41.1551 27.7911 41.0877 27.1241 40.926C26.9861 40.896 26.8461 40.861 26.7081 40.826L30.7021 36.832C31.539 36.5787 32.287 36.0932 32.8591 35.432C33.2879 34.9422 33.6067 34.3663 33.7941 33.743L37.5401 29.997C37.8657 30.8438 38.0312 31.7437 38.0281 32.651C38.0342 33.9279 37.7295 35.1872 37.1401 36.32C36.5501 37.476 35.7128 38.488 34.6878 39.2842C33.6628 40.0804 32.4752 40.6413 31.2091 40.927C30.5903 41.0824 29.9527 41.1497 29.3151 41.127L29.3161 41.126ZM22.1971 38.267C21.243 37.3575 20.4715 36.274 19.9241 35.075C19.1339 33.2861 18.8185 31.3236 19.0084 29.3773C19.1983 27.4309 19.887 25.5664 21.0081 23.964C22.4867 21.7636 24.6433 20.1063 27.1501 19.244C28.4723 18.7769 29.8659 18.5447 31.2681 18.558C32.777 18.5428 34.2765 18.7985 35.6951 19.313C36.9702 19.7651 38.173 20.3997 39.2661 21.197L36.3271 24.136C34.8227 23.1657 33.0732 22.6437 31.2831 22.631C30.3277 22.6295 29.3789 22.7884 28.4761 23.101C27.1991 23.5421 26.0519 24.294 25.138 25.2891C24.224 26.2842 23.5722 27.4911 23.2411 28.801C23.0856 29.3649 23.0181 29.9495 23.0411 30.534C23.0134 31.1229 23.0809 31.7125 23.2411 32.28C23.5478 33.4661 24.1844 34.5409 25.0771 35.38L22.1911 38.266L22.1971 38.267ZM26.9971 33.467L26.9431 33.412C26.5847 33.0479 26.3027 32.6158 26.1138 32.1411C25.9249 31.6665 25.8328 31.1588 25.8431 30.648C25.8442 29.9419 26.006 29.2453 26.3161 28.611C26.6926 27.8189 27.2576 27.1313 27.9616 26.6083C28.6656 26.0853 29.4871 25.7428 30.3541 25.611C30.5848 25.5668 30.8192 25.5454 31.0541 25.547C31.1541 25.547 31.2681 25.547 31.4351 25.554C31.7597 25.5531 32.0837 25.5819 32.4031 25.64C33.0267 25.7636 33.6302 25.9733 34.1961 26.263L26.9961 33.463L26.9971 33.467Z" fill="white"/>
</svg>
