<svg xmlns="http://www.w3.org/2000/svg" xmlns:xlink="http://www.w3.org/1999/xlink" width="64" height="64" viewBox="0 0 64 64">
  <defs>
    <clipPath id="clip-_7">
      <rect width="64" height="64"/>
    </clipPath>
  </defs>
  <g id="_7" data-name="7" clip-path="url(#clip-_7)">
    <g id="타원_1" data-name="타원 1" fill="none" stroke="#000" stroke-width="4">
      <circle cx="32" cy="32" r="32" stroke="none"/>
      <circle cx="32" cy="32" r="30" fill="none"/>
    </g>
    <path id="rabbit_icon_136284" d="M18.832,21.935,15.96,16.949c0-1.82-1.126-2.987-2.493-2.987a2.481,2.481,0,0,0-2.188,1.3,2.38,2.38,0,0,1,1.189-.305,2.493,2.493,0,0,1,0,4.986h3.471v1.988H6.987a.971.971,0,0,1-.7-.295,1,1,0,0,1,0-1.41h0l.526-.526a3.894,3.894,0,0,1-.947-.652,1.5,1.5,0,1,1-1.368-2.1l.494.084V14.961A4.977,4.977,0,0,1,9.974,9.974H10c2.23.011,3.966.884,3.966-.494a2.906,2.906,0,0,1,.568-1.915,6.074,6.074,0,0,0-2.556-.579,1,1,0,0,1-.295-1.957l-.7-.042a.994.994,0,1,1,0-1.988h1a6.008,6.008,0,0,1,5.186,3l.295-.011a3.488,3.488,0,0,1,2.009.642l.473.4c2.283,2.051,2,3.44,2,3.45a2.472,2.472,0,0,1-2.472,2.451l-.515-.053v.084a4.018,4.018,0,0,1-1.294,2.945l3.482,6.028h-2.3m.116-13.949a.994.994,0,1,0,1,.989A.99.99,0,0,0,18.947,7.986Z" transform="translate(30.966 19.033)" fill="#fff"/>
    <g id="타원_29" data-name="타원 29" fill="none" stroke="#fff" stroke-width="4">
      <circle cx="32" cy="32" r="32" stroke="none"/>
      <circle cx="32" cy="32" r="30" fill="none"/>
    </g>
    <path id="snail-crawl-slow-steady-svgrepo-com" d="M-397.633,435.6c.128-.043,2.948-.748,4.571-1.346a6.043,6.043,0,0,1-4.55-6.152,7.08,7.08,0,0,1,7.135-7.006,7.08,7.08,0,0,1,7.135,7.006,6.913,6.913,0,0,1-.577,2.756v-.021l-1.2.214h0c-.384.085-1.367.278-2.926.534-1.752.3-2.905.064-3.866-.812a3.1,3.1,0,0,1-1-2.115,3.126,3.126,0,0,1,.748-2.222,2.319,2.319,0,0,1,3.311-.192,1.965,1.965,0,0,1,.214,2.692,1.449,1.449,0,0,1-2.029.15.969.969,0,0,1-.342-.7.776.776,0,0,1,.171-.577.6.6,0,0,1,.47-.192.861.861,0,0,1,.427.15c.021.021.043.021.043.043h0c.021.021.043.021.064.043h.064c.021,0,.043.021.064.021a.333.333,0,0,0,.32-.342.333.333,0,0,0-.32-.342,6.4,6.4,0,0,0-.7-.15,1.068,1.068,0,0,0-.919.342,1.4,1.4,0,0,0-.342,1,1.611,1.611,0,0,0,.555,1.154,2.089,2.089,0,0,0,2.926-.192,2.632,2.632,0,0,0-.278-3.61,2.94,2.94,0,0,0-4.208.256,3.865,3.865,0,0,0-.919,2.691,3.744,3.744,0,0,0,1.218,2.563,4.183,4.183,0,0,0,2.991,1.111,8.186,8.186,0,0,0,1.388-.128c1.068-.192,2.179-.385,2.948-.513.3-.064.555-.107.7-.128a.686.686,0,0,1,.171-.021l.32-.064c1.089-.256,1.666-2.82,1.666-3.055v-4.806a.584.584,0,0,1,.6-.6h.107a.611.611,0,0,1,.6.6V428.3a1.529,1.529,0,0,0,1.26.662,1.5,1.5,0,0,0,1.218-.619v-4.7a.584.584,0,0,1,.6-.6h.107a.611.611,0,0,1,.6.6v4.806c0,.214.555,8.224-6.173,8.288-3.76.043-14.419,0-14.419,0a.57.57,0,0,1-.555-.577C-398.252,435.839-397.932,435.69-397.633,435.6Z" transform="translate(407.252 -397.428)" fill="#fff"/>
  </g>
</svg>
