<svg width="64" height="64" viewBox="0 0 64 64" fill="none" xmlns="http://www.w3.org/2000/svg">
<path d="M32 62C48.5685 62 62 48.5685 62 32C62 15.4315 48.5685 2 32 2C15.4315 2 2 15.4315 2 32C2 48.5685 15.4315 62 32 62Z" stroke="black" stroke-width="4"/>
<path d="M49.798 40.968L46.926 35.982C46.926 34.162 45.8 32.995 44.433 32.995C43.9849 32.9939 43.5449 33.1142 43.1596 33.3431C42.7744 33.5719 42.4583 33.9009 42.245 34.295C42.6079 34.0911 43.0179 33.9859 43.434 33.99C44.0952 33.99 44.7293 34.2526 45.1969 34.7202C45.6644 35.1877 45.927 35.8218 45.927 36.483C45.927 37.1442 45.6644 37.7783 45.1969 38.2458C44.7293 38.7133 44.0952 38.976 43.434 38.976H46.905V40.964H37.953C37.8225 40.9644 37.6933 40.9385 37.573 40.8878C37.4527 40.8371 37.3439 40.7627 37.253 40.669C37.0668 40.4816 36.9622 40.2282 36.9622 39.964C36.9622 39.6998 37.0668 39.4463 37.253 39.259L37.779 38.733C37.4329 38.5637 37.1137 38.344 36.832 38.081C36.7238 38.3291 36.5503 38.5433 36.3302 38.7008C36.11 38.8584 35.8513 38.9534 35.5815 38.9758C35.3117 38.9982 35.0409 38.9472 34.7978 38.8282C34.5546 38.7092 34.3482 38.5265 34.2004 38.2997C34.0527 38.0729 33.969 37.8103 33.9584 37.5398C33.9478 37.2692 34.0106 37.0009 34.1402 36.7632C34.2697 36.5255 34.4612 36.3273 34.6942 36.1895C34.9273 36.0518 35.1933 35.9798 35.464 35.981L35.958 36.065V33.994C35.9567 33.3391 36.0847 32.6905 36.3345 32.0851C36.5843 31.4798 36.9512 30.9298 37.414 30.4665C37.8768 30.0032 38.4265 29.6358 39.0316 29.3854C39.6366 29.1349 40.2852 29.0063 40.94 29.007H40.966C43.196 29.018 44.932 29.891 44.932 28.513C44.8892 27.8276 45.0904 27.1491 45.5 26.598C44.7003 26.2213 43.828 26.0237 42.944 26.019C42.7038 26.0202 42.4712 25.9348 42.2887 25.7786C42.1062 25.6223 41.9861 25.4056 41.9503 25.1681C41.9145 24.9305 41.9654 24.688 42.0937 24.4849C42.222 24.2818 42.4191 24.1317 42.649 24.062L41.949 24.02C41.8185 24.02 41.6893 23.9943 41.5687 23.9443C41.4481 23.8944 41.3385 23.8211 41.2462 23.7288C41.1539 23.6365 41.0807 23.527 41.0307 23.4064C40.9808 23.2858 40.955 23.1565 40.955 23.026C40.955 22.8954 40.9808 22.7662 41.0307 22.6456C41.0807 22.525 41.1539 22.4154 41.2462 22.3231C41.3385 22.2308 41.4481 22.1576 41.5687 22.1076C41.6893 22.0577 41.8185 22.032 41.949 22.032H42.949C44.0004 22.0346 45.0326 22.313 45.9427 22.8394C46.8527 23.3659 47.6087 24.1219 48.135 25.032L48.43 25.021C49.1499 25.0225 49.8517 25.2468 50.439 25.663L50.912 26.063C53.195 28.114 52.912 29.503 52.912 29.513C52.9065 30.165 52.6436 30.7883 52.1806 31.2474C51.7176 31.7064 51.092 31.964 50.44 31.964L49.925 31.911V31.995C49.9238 32.5485 49.8083 33.0958 49.5856 33.6026C49.3629 34.1094 49.038 34.5647 48.631 34.94L52.113 40.968H49.813H49.798ZM49.929 27.019C49.7325 27.0202 49.5407 27.0796 49.3779 27.1898C49.2152 27.2999 49.0887 27.4559 49.0145 27.6379C48.9404 27.8199 48.9218 28.0198 48.9613 28.2124C49.0007 28.405 49.0963 28.5815 49.2361 28.7197C49.3758 28.8579 49.5534 28.9516 49.7464 28.9889C49.9394 29.0262 50.1391 29.0055 50.3203 28.9293C50.5015 28.8531 50.656 28.7249 50.7644 28.5609C50.8727 28.397 50.93 28.2045 50.929 28.008C50.929 27.8758 50.9024 27.7451 50.851 27.6233C50.7996 27.5016 50.7243 27.3914 50.6296 27.2992C50.5349 27.2071 50.4227 27.1348 50.2997 27.0867C50.1766 27.0385 50.0451 27.0155 49.913 27.019H49.929Z" fill="white"/>
<path d="M32 62C48.5685 62 62 48.5685 62 32C62 15.4315 48.5685 2 32 2C15.4315 2 2 15.4315 2 32C2 48.5685 15.4315 62 32 62Z" stroke="white" stroke-width="4"/>
<path d="M9.61895 38.1719C9.74695 38.1289 12.5669 37.4239 14.1899 36.8259C12.8381 36.483 11.6465 35.6831 10.8172 34.5618C9.98793 33.4405 9.57198 32.0669 9.63995 30.6739C9.65948 28.7995 10.4216 27.0093 11.7591 25.6959C13.0967 24.3826 14.9005 23.6533 16.775 23.6679C18.6494 23.6533 20.4532 24.3826 21.7908 25.6959C23.1283 27.0093 23.8904 28.7995 23.9099 30.6739C23.9087 31.6224 23.7123 32.5606 23.3329 33.4299V33.4089L22.133 33.6229C21.749 33.7079 20.7659 33.9009 19.2069 34.1569C17.4549 34.4569 16.3019 34.2209 15.3409 33.3449C14.7442 32.7976 14.3852 32.0385 14.3409 31.2299C14.2926 30.4203 14.5608 29.6235 15.089 29.0079C15.2918 28.7749 15.5391 28.5847 15.8165 28.4486C16.0938 28.3124 16.3956 28.2331 16.704 28.2152C17.0125 28.1973 17.3214 28.2412 17.6126 28.3444C17.9039 28.4476 18.1716 28.6079 18.4 28.8159C18.7729 29.1523 19.0029 29.6187 19.0427 30.1194C19.0825 30.62 18.929 31.1169 18.6139 31.5079C18.3633 31.7945 18.0099 31.9709 17.6302 31.9989C17.2505 32.027 16.875 31.9045 16.585 31.6579C16.4826 31.5713 16.3994 31.4643 16.3405 31.3438C16.2816 31.2233 16.2484 31.0919 16.2429 30.9579C16.2316 30.8552 16.2409 30.7513 16.2702 30.6522C16.2996 30.5531 16.3484 30.4609 16.4139 30.3809C16.4735 30.3165 16.5464 30.2659 16.6276 30.2328C16.7089 30.1996 16.7963 30.1846 16.8839 30.1889C17.0371 30.2 17.1845 30.2517 17.3109 30.3389C17.3319 30.3599 17.3539 30.3599 17.3539 30.3819C17.3749 30.4029 17.3969 30.4029 17.4179 30.4249H17.482C17.503 30.4249 17.525 30.4459 17.546 30.4459C17.6336 30.4425 17.7163 30.4047 17.7762 30.3407C17.8362 30.2767 17.8684 30.1916 17.866 30.1039C17.8684 30.0163 17.8362 29.9312 17.7762 29.8672C17.7163 29.8031 17.6336 29.7653 17.546 29.7619C17.3156 29.6989 17.0819 29.6488 16.8459 29.6119C16.6766 29.5914 16.5048 29.6117 16.3449 29.6712C16.185 29.7307 16.0417 29.8277 15.9269 29.9539C15.6867 30.2298 15.5639 30.5887 15.585 30.9539C15.5937 31.174 15.6474 31.39 15.7429 31.5884C15.8383 31.7869 15.9735 31.9637 16.1399 32.1079C16.5552 32.4666 17.0948 32.6475 17.6423 32.6116C18.1898 32.5756 18.7012 32.3258 19.0659 31.9159C19.4903 31.3929 19.698 30.7271 19.6463 30.0555C19.5946 29.384 19.2874 28.7578 18.788 28.3059C18.4974 28.0413 18.1566 27.8376 17.786 27.7069C17.4153 27.5762 17.0222 27.5212 16.6299 27.5451C16.2376 27.5689 15.854 27.6712 15.5019 27.8459C15.1498 28.0205 14.8363 28.264 14.58 28.5619C13.9428 29.3095 13.6142 30.2717 13.6609 31.2529C13.7149 32.234 14.1524 33.1545 14.879 33.8159C15.69 34.5669 16.7653 34.9663 17.87 34.9269C18.3354 34.9238 18.7998 34.881 19.258 34.7989C20.326 34.6069 21.437 34.4139 22.206 34.2859C22.506 34.2219 22.7609 34.1789 22.9059 34.1579C22.9618 34.1438 23.0193 34.1367 23.077 34.1369L23.3969 34.0729C24.4859 33.8169 25.063 31.2529 25.063 31.0179V26.2119C25.0607 26.1326 25.0747 26.0535 25.1041 25.9797C25.1335 25.9059 25.1776 25.8389 25.2338 25.7827C25.2899 25.7266 25.357 25.6825 25.4307 25.6531C25.5045 25.6237 25.5836 25.6097 25.663 25.6119H25.77C25.9282 25.6148 26.0792 25.6789 26.1911 25.7908C26.303 25.9027 26.3671 26.0537 26.37 26.2119V30.8719C26.5106 31.0762 26.6987 31.2432 26.9182 31.3585C27.1377 31.4738 27.382 31.534 27.6299 31.5339C27.8675 31.5346 28.1017 31.4788 28.3135 31.3712C28.5253 31.2635 28.7084 31.1072 28.848 30.9149V26.2149C28.8457 26.1355 28.8598 26.0565 28.8891 25.9827C28.9185 25.9089 28.9626 25.8419 29.0188 25.7858C29.0749 25.7296 29.142 25.6855 29.2158 25.6561C29.2895 25.6267 29.3686 25.6127 29.448 25.6149H29.555C29.7132 25.6178 29.8642 25.6819 29.9761 25.7938C30.088 25.9057 30.1521 26.0567 30.155 26.2149V31.0209C30.155 31.2349 30.71 39.2449 23.982 39.3089C20.222 39.3519 9.56295 39.3089 9.56295 39.3089C9.41317 39.305 9.27098 39.2423 9.16711 39.1343C9.06324 39.0263 9.00607 38.8818 9.00796 38.7319C8.99996 38.4109 9.31995 38.2619 9.61895 38.1719Z" fill="white"/>
</svg>
