<svg width="64" height="64" viewBox="0 0 64 64" fill="none" xmlns="http://www.w3.org/2000/svg">
<g clip-path="url(#clip0_1674_10206)">
<path d="M32 62C48.5685 62 62 48.5685 62 32C62 15.4315 48.5685 2 32 2C15.4315 2 2 15.4315 2 32C2 48.5685 15.4315 62 32 62Z" stroke="white" stroke-width="4"/>
<path d="M30.818 50.8194L27.4765 32.4287C27.2553 31.2307 27.5192 29.9939 28.2099 28.9905C28.9006 27.987 29.9616 27.2991 31.1596 27.0779C32.3576 26.8568 33.5943 27.1206 34.5978 27.8113C35.6012 28.5021 36.2892 29.5631 36.5103 30.7611C36.6049 31.2593 36.6134 31.7701 36.5353 32.2712L33.8383 50.7667C33.7852 51.1254 33.6066 51.4537 33.3341 51.693C33.0616 51.9323 32.7131 52.0671 32.3505 52.0735C31.9879 52.0798 31.6349 51.9572 31.3542 51.7276C31.0736 51.4979 30.8836 51.1761 30.818 50.8194Z" fill="white"/>
<path d="M32 9C31.7348 9 31.4804 8.89464 31.2929 8.70711C31.1054 8.51957 31 8.26522 31 8C31 7.73478 31.1054 7.48043 31.2929 7.29289C31.4804 7.10536 31.7348 7 32 7C38.6304 7 44.9893 9.63392 49.6777 14.3223C54.3661 19.0107 57 25.3696 57 32C57 32.2652 56.8946 32.5196 56.7071 32.7071C56.5196 32.8946 56.2652 33 56 33C55.7348 33 55.4804 32.8946 55.2929 32.7071C55.1054 32.5196 55 32.2652 55 32C55 25.9 52.5768 20.0499 48.2635 15.7365C43.9501 11.4232 38.1 9 32 9Z" fill="white"/>
<path d="M32 9C31.7348 9 31.4804 8.89464 31.2929 8.70711C31.1054 8.51957 31 8.26522 31 8C31 7.73478 31.1054 7.48043 31.2929 7.29289C31.4804 7.10536 31.7348 7 32 7C38.6304 7 44.9893 9.63392 49.6777 14.3223C54.3661 19.0107 57 25.3696 57 32C57 32.2652 56.8946 32.5196 56.7071 32.7071C56.5196 32.8946 56.2652 33 56 33C55.7348 33 55.4804 32.8946 55.2929 32.7071C55.1054 32.5196 55 32.2652 55 32C55 25.9 52.5768 20.0499 48.2635 15.7365C43.9501 11.4232 38.1 9 32 9Z" fill="white"/>
<path d="M54.535 27.3979C54.4819 27.1381 54.5342 26.8678 54.6805 26.6465C54.8267 26.4252 55.0548 26.2711 55.3147 26.218C55.5745 26.165 55.8448 26.2173 56.0661 26.3635C56.2873 26.5097 56.4415 26.7379 56.4945 26.9977C57.8212 33.494 56.5129 40.2513 52.8574 45.783C49.2019 51.3147 43.4987 55.1678 37.0024 56.4944C36.7425 56.5475 36.4722 56.4952 36.251 56.349C36.0297 56.2027 35.8756 55.9746 35.8225 55.7148C35.7695 55.4549 35.8218 55.1846 35.968 54.9633C36.1142 54.7421 36.3424 54.588 36.6022 54.5349C42.5788 53.3143 47.8258 49.7696 51.1888 44.6804C54.5519 39.5912 55.7555 33.3745 54.535 27.3979Z" fill="white"/>
</g>
<defs>
<clipPath id="clip0_1674_10206">
<rect width="64" height="64" fill="white"/>
</clipPath>
</defs>
</svg>
