<svg xmlns="http://www.w3.org/2000/svg" xmlns:xlink="http://www.w3.org/1999/xlink" width="64" height="64" viewBox="0 0 64 64">
  <defs>
    <clipPath id="clip-_9">
      <rect width="64" height="64"/>
    </clipPath>
  </defs>
  <g id="_9" data-name="9" clip-path="url(#clip-_9)">
    <g id="_3" data-name="3">
      <g id="circles_1" fill="none" stroke="#fff" stroke-width="4">
        <circle cx="32" cy="32" r="32" stroke="none"/>
        <circle cx="32" cy="32" r="30" fill="none"/>
      </g>
      <path id="icon_1" d="M-20,13c-2,0-4-4-4-5q0-1,.5-1h6a.884.884,0,0,1,1,1v4a.884.884,0,0,1-1,1m4.5,0a.884.884,0,0,1-1-1V8a.884.884,0,0,1,1-1h9.5a.884.884,0,0,1,1,1v4a.884.884,0,0,1-1,1M1,7A.884.884,0,0,0,0,8v4a.884.884,0,0,0,1,1h9.4q.6,0,1.1-1l2.1-4.3q.4-.7-.5-.9L6.6,5.1a.794.794,0,0,0-.9.5l-.3.6A1.22,1.22,0,0,1,4.3,7m3-4.6q-.3.6.2.8L14,4.8A1.2,1.2,0,0,0,15.4,4l.9-1.5A2.974,2.974,0,0,0,16.7,1L15.5-2.9a.673.673,0,0,0-1-.4L8.5-.7A.709.709,0,0,0,8,0V.7a1.888,1.888,0,0,1-.1.6m6.6-7.8a.732.732,0,0,1-.3.9L8.5-3.5q-.9.3-1.1-.3l-.3-.9a1.255,1.255,0,0,0-.3-.5L5.5-6.5a.841.841,0,0,1,0-1.2L8.6-12q.4-.5.9,0l4,3.6a2.112,2.112,0,0,1,.7,1M6-14.4q1,.4.5,1.1L3.4-9a.8.8,0,0,1-1.1.3L.7-9.3a2.5,2.5,0,0,0-1.4,0l-1.6.6A.8.8,0,0,1-3.4-9l-3.1-4.3Q-7-14-6-14.4l5-2.1a2.125,2.125,0,0,1,2,0M-9.5-12q.5-.5.9,0l3.1,4.3a.841.841,0,0,1,0,1.2L-6.8-5.2a1.255,1.255,0,0,0-.3.5l-.3.9a.726.726,0,0,1-.9.5l-5.9-2.3a.732.732,0,0,1-.3-.9l.3-.9a2.112,2.112,0,0,1,.7-1M-8-.5a.709.709,0,0,0-.5-.7l-6-2.1a.673.673,0,0,0-1,.4L-16.2.4a2.462,2.462,0,0,0,.1,1.2l.9,2.3a.9.9,0,0,0,.8.6h7.7q.6,0,.3-.6L-7.8,1.4A1.985,1.985,0,0,1-8,.5M15,13q-1,0-.5-1l2-4A1.6,1.6,0,0,1,18,7h5.5Q24,7,24,8c0,1-2,5-4,5" transform="translate(32 32)" fill="#fff"/>
    </g>
  </g>
</svg>
