<svg width="64" height="64" viewBox="0 0 64 64" fill="none" xmlns="http://www.w3.org/2000/svg">
<path d="M32 62C48.5685 62 62 48.5685 62 32C62 15.4315 48.5685 2 32 2C15.4315 2 2 15.4315 2 32C2 48.5685 15.4315 62 32 62Z" stroke="white" stroke-width="4"/>
<path d="M12 45C10 45 8 41 8 40C8 39.3333 8.16667 39 8.5 39H14.5C14.6358 38.9806 14.7743 38.9931 14.9045 39.0365C15.0346 39.0799 15.1529 39.153 15.2499 39.2501C15.347 39.3471 15.4201 39.4654 15.4635 39.5955C15.5069 39.7257 15.5194 39.8642 15.5 40V44C15.5194 44.1358 15.5069 44.2743 15.4635 44.4045C15.4201 44.5346 15.347 44.6529 15.2499 44.7499C15.1529 44.847 15.0346 44.9201 14.9045 44.9635C14.7743 45.0069 14.6358 45.0194 14.5 45H12ZM19 45C18.8642 45.0194 18.7257 45.0069 18.5955 44.9635C18.4654 44.9201 18.3471 44.847 18.2501 44.7499C18.153 44.6529 18.0799 44.5346 18.0365 44.4045C17.9931 44.2743 17.9806 44.1358 18 44V40C17.9806 39.8642 17.9931 39.7257 18.0365 39.5955C18.0799 39.4654 18.153 39.3471 18.2501 39.2501C18.3471 39.153 18.4654 39.0799 18.5955 39.0365C18.7257 38.9931 18.8642 38.9806 19 39H28.5C28.6358 38.9806 28.7743 38.9931 28.9045 39.0365C29.0346 39.0799 29.1529 39.153 29.2499 39.2501C29.347 39.3471 29.4201 39.4654 29.4635 39.5955C29.5069 39.7257 29.5194 39.8642 29.5 40V44C29.5194 44.1358 29.5069 44.2743 29.4635 44.4045C29.4201 44.5346 29.347 44.6529 29.2499 44.7499C29.1529 44.847 29.0346 44.9201 28.9045 44.9635C28.7743 45.0069 28.6358 45.0194 28.5 45H19ZM33 39C32.8642 38.9806 32.7257 38.9931 32.5955 39.0365C32.4654 39.0799 32.3471 39.153 32.2501 39.2501C32.153 39.3471 32.0799 39.4654 32.0365 39.5955C31.9931 39.7257 31.9806 39.8642 32 40V44C31.9806 44.1358 31.9931 44.2743 32.0365 44.4045C32.0799 44.5346 32.153 44.6529 32.2501 44.7499C32.3471 44.847 32.4654 44.9201 32.5955 44.9635C32.7257 45.0069 32.8642 45.0194 33 45H42.4C42.8 45 43.1667 44.6667 43.5 44L45.6 39.7C45.8667 39.2333 45.7 38.9333 45.1 38.8L38.6 37.1C38.415 37.0628 38.2229 37.0927 38.058 37.1844C37.8931 37.276 37.7662 37.4233 37.7 37.6L37.4 38.2C37.3168 38.4275 37.1677 38.625 36.9718 38.7675C36.7759 38.91 36.5421 38.9909 36.3 39H33ZM39.3 34.4C39.1 34.8 39.1667 35.0667 39.5 35.2L46 36.8C46.291 36.8643 46.5956 36.8181 46.8544 36.6702C47.1132 36.5223 47.3077 36.2834 47.4 36L48.3 34.5C48.5638 34.0442 48.7018 33.5266 48.7 33L47.5 29.1C47.4729 28.9991 47.4226 28.9059 47.3532 28.8277C47.2837 28.7496 47.1971 28.6887 47.1 28.6499C47.003 28.6111 46.8983 28.5954 46.7941 28.6041C46.69 28.6128 46.5893 28.6456 46.5 28.7L40.5 31.3C40.3515 31.3457 40.2221 31.439 40.1317 31.5655C40.0414 31.692 39.9951 31.8446 40 32V32.7C39.9993 32.9041 39.9655 33.1067 39.9 33.3L39.3 34.4ZM46.5 25.5C46.565 25.6612 46.5705 25.8403 46.5155 26.0052C46.4606 26.1701 46.3487 26.31 46.2 26.4L40.5 28.5C39.9 28.7 39.5333 28.6 39.4 28.2L39.1 27.3C39.0406 27.1121 38.9379 26.9408 38.8 26.8L37.5 25.5C37.4203 25.4217 37.357 25.3283 37.3138 25.2253C37.2706 25.1223 37.2483 25.0117 37.2483 24.9C37.2483 24.7883 37.2706 24.6777 37.3138 24.5747C37.357 24.4717 37.4203 24.3783 37.5 24.3L40.6 20C40.8667 19.6667 41.1667 19.6667 41.5 20L45.5 23.6C45.8267 23.8572 46.0702 24.205 46.2 24.6L46.5 25.5ZM38 17.6C38.6667 17.8667 38.8333 18.2333 38.5 18.7L35.4 23C35.3481 23.0925 35.2783 23.1738 35.1946 23.2391C35.111 23.3044 35.0152 23.3524 34.9128 23.3803C34.8104 23.4083 34.7035 23.4155 34.5983 23.4017C34.4931 23.3879 34.3917 23.3534 34.3 23.3L32.7 22.7C32.2429 22.5667 31.7571 22.5667 31.3 22.7L29.7 23.3C29.6083 23.3534 29.5069 23.3879 29.4017 23.4017C29.2965 23.4155 29.1896 23.4083 29.0872 23.3803C28.9848 23.3524 28.889 23.3044 28.8054 23.2391C28.7217 23.1738 28.6519 23.0925 28.6 23L25.5 18.7C25.1667 18.2333 25.3333 17.8667 26 17.6L31 15.5C31.3078 15.3359 31.6512 15.25 32 15.25C32.3488 15.25 32.6922 15.3359 33 15.5L38 17.6ZM22.5 20C22.8333 19.6667 23.1333 19.6667 23.4 20L26.5 24.3C26.5797 24.3783 26.643 24.4717 26.6862 24.5747C26.7294 24.6777 26.7517 24.7883 26.7517 24.9C26.7517 25.0117 26.7294 25.1223 26.6862 25.2253C26.643 25.3283 26.5797 25.4217 26.5 25.5L25.2 26.8C25.0621 26.9408 24.9594 27.1121 24.9 27.3L24.6 28.2C24.574 28.2921 24.53 28.3781 24.4706 28.4531C24.4112 28.5281 24.3376 28.5907 24.254 28.6371C24.1703 28.6836 24.0783 28.7131 23.9833 28.7239C23.8882 28.7346 23.7919 28.7265 23.7 28.7L17.8 26.4C17.6513 26.31 17.5394 26.1701 17.4845 26.0052C17.4295 25.8403 17.435 25.6612 17.5 25.5L17.8 24.6C17.9298 24.205 18.1733 23.8572 18.5 23.6L22.5 20ZM24 31.5C24.0049 31.3446 23.9586 31.192 23.8683 31.0655C23.7779 30.939 23.6485 30.8457 23.5 30.8L17.5 28.7C17.4107 28.6456 17.31 28.6128 17.2059 28.6041C17.1017 28.5954 16.997 28.6111 16.9 28.6499C16.8029 28.6887 16.7163 28.7496 16.6468 28.8277C16.5774 28.9059 16.5271 28.9991 16.5 29.1L15.8 32.4C15.7335 32.8021 15.7679 33.2144 15.9 33.6L16.8 35.9C16.8591 36.0679 16.9666 36.2145 17.109 36.3213C17.2514 36.4281 17.4223 36.4903 17.6 36.5H25.3C25.7 36.5 25.8 36.3 25.6 35.9L24.2 33.4C24.0636 33.1199 23.9951 32.8115 24 32.5V31.5ZM47 45C46.3333 45 46.1667 44.6667 46.5 44L48.5 40C48.6206 39.7019 48.8282 39.447 49.0958 39.2686C49.3633 39.0903 49.6784 38.9966 50 39H55.5C55.8333 39 56 39.3333 56 40C56 41 54 45 52 45" fill="white"/>
</svg>
