<svg xmlns="http://www.w3.org/2000/svg" xmlns:xlink="http://www.w3.org/1999/xlink" width="64" height="64" viewBox="0 0 64 64">
  <defs>
    <clipPath id="clip-_9">
      <rect width="64" height="64"/>
    </clipPath>
  </defs>
  <g id="_9" data-name="9" clip-path="url(#clip-_9)">
    <g id="타원_1" data-name="타원 1" fill="none" stroke="#fff" stroke-width="3">
      <circle cx="32" cy="32" r="32" stroke="none"/>
      <circle cx="32" cy="32" r="30.5" fill="none"/>
    </g>
    <path id="패스_9" data-name="패스 9" d="M21.23-15.352a24.844,24.844,0,0,1-.82,6.67,14.308,14.308,0,0,1-2.393,4.971A10.566,10.566,0,0,1,14.18-.6,11.757,11.757,0,0,1,9.043.488,14.6,14.6,0,0,1,3.125-.605V-5.684A9.482,9.482,0,0,0,8.438-4.238a6.116,6.116,0,0,0,4.98-2.168,9.672,9.672,0,0,0,1.816-6.27l-.117-.039A6.341,6.341,0,0,1,9.473-9.961,7.748,7.748,0,0,1,6.3-10.605a7.625,7.625,0,0,1-2.52-1.787,8.168,8.168,0,0,1-1.66-2.725,9.793,9.793,0,0,1-.6-3.477,10.794,10.794,0,0,1,.723-4.023,9.211,9.211,0,0,1,2.021-3.125,8.92,8.92,0,0,1,3.115-2.021,10.926,10.926,0,0,1,4.023-.713,9.211,9.211,0,0,1,4.1.889,8.618,8.618,0,0,1,3.1,2.568A11.99,11.99,0,0,1,20.557-20.9,20.881,20.881,0,0,1,21.23-15.352ZM15-18.633a7.257,7.257,0,0,0-.273-2.021,5.319,5.319,0,0,0-.762-1.631,3.708,3.708,0,0,0-1.191-1.084,3.064,3.064,0,0,0-1.543-.4,3.139,3.139,0,0,0-1.475.352,3.6,3.6,0,0,0-1.162.967,4.579,4.579,0,0,0-.762,1.475,6.088,6.088,0,0,0-.273,1.855,6.339,6.339,0,0,0,.273,1.943A4.15,4.15,0,0,0,8.6-15.742a3.236,3.236,0,0,0,1.2.889,3.911,3.911,0,0,0,1.563.3,3.355,3.355,0,0,0,1.484-.322,3.576,3.576,0,0,0,1.143-.869,3.934,3.934,0,0,0,.742-1.289A4.75,4.75,0,0,0,15-18.633Z" transform="translate(21 46)" fill="#fff"/>
  </g>
</svg>
