<svg width="12" height="12" viewBox="0 0 12 12" fill="none" xmlns="http://www.w3.org/2000/svg">
<path fill-rule="evenodd" clip-rule="evenodd" d="M6 12C9.31371 12 12 9.31371 12 6C12 2.68629 9.31371 0 6 0C2.68629 0 0 2.68629 0 6C0 9.31371 2.68629 12 6 12ZM6 2C6.27614 2 6.5 2.22386 6.5 2.5V5.5H9.5C9.77614 5.5 10 5.72386 10 6C10 6.27614 9.77614 6.5 9.5 6.5H6.5V9.5C6.5 9.77614 6.27614 10 6 10C5.72386 10 5.5 9.77614 5.5 9.5V6.5H2.5C2.22386 6.5 2 6.27614 2 6C2 5.72386 2.22386 5.5 2.5 5.5H5.5V2.5C5.5 2.22386 5.72386 2 6 2Z" fill="white"/>
</svg>
