<svg xmlns="http://www.w3.org/2000/svg" xmlns:xlink="http://www.w3.org/1999/xlink" width="512" height="512" viewBox="0 0 512 512">
  <defs>
    <clipPath id="clip-bug_fix">
      <rect width="512" height="512"/>
    </clipPath>
  </defs>
  <g id="bug_fix" clip-path="url(#clip-bug_fix)">
    <path id="Icon_awesome-bug" data-name="Icon awesome-bug" d="M349.992,197.49c-.327,11.915-10.4,21.26-22.321,21.26H289.844v10.938a98.054,98.054,0,0,1-9.3,41.8l41.172,41.172a21.875,21.875,0,0,1-30.937,30.936l-37.417-37.417a98.021,98.021,0,0,1-61.958,21.949v-166.8a8.2,8.2,0,0,0-8.2-8.2H166.8a8.2,8.2,0,0,0-8.2,8.2v166.8a98.021,98.021,0,0,1-61.958-21.949L59.218,343.593a21.875,21.875,0,0,1-30.937-30.936l41.172-41.172a98.053,98.053,0,0,1-9.3-41.8V218.75H22.33c-11.919,0-21.995-9.345-22.321-21.26A21.875,21.875,0,0,1,21.875,175H60.156V134.842L28.281,102.968A21.875,21.875,0,0,1,59.218,72.032l37.343,37.343H253.438l37.343-37.343a21.875,21.875,0,0,1,30.937,30.936l-31.874,31.874V175h38.281A21.876,21.876,0,0,1,349.992,197.49ZM175.683,0A76.562,76.562,0,0,0,99.121,76.563H252.246A76.562,76.562,0,0,0,175.683,0Z" transform="translate(81 81)" fill="#fff"/>
  </g>
</svg>
