<svg xmlns="http://www.w3.org/2000/svg" xmlns:xlink="http://www.w3.org/1999/xlink" width="512" height="512" viewBox="0 0 512 512"><defs><clipPath id="b"><rect width="512" height="512"/></clipPath></defs><g id="a" clip-path="url(#b)"><path d="M511.988,288.9c-.478,17.43-15.217,31.1-32.653,31.1H424v16a143.438,143.438,0,0,1-13.6,61.145l60.228,60.228a32,32,0,1,1-45.256,45.255l-54.736-54.736A143.39,143.39,0,0,1,280,480V236a12,12,0,0,0-12-12H244a12,12,0,0,0-12,12V480a143.39,143.39,0,0,1-90.636-32.108L86.627,502.628a32,32,0,0,1-45.256-45.255L101.6,397.145A143.438,143.438,0,0,1,88,336V320H32.665C15.229,320,.49,306.33.012,288.9A32,32,0,0,1,32,256H88V197.255L41.371,150.627a32,32,0,0,1,45.256-45.255L141.254,160H370.744l54.627-54.627a32,32,0,0,1,45.256,45.255L424,197.255V256h56A32,32,0,0,1,511.988,288.9ZM257,0A112,112,0,0,0,145,112H369A112,112,0,0,0,257,0Z" transform="translate(0)" fill="#fff"/></g></svg>