<svg xmlns="http://www.w3.org/2000/svg" xmlns:xlink="http://www.w3.org/1999/xlink" width="512" height="512" viewBox="0 0 512 512"><defs><clipPath id="b"><rect width="512" height="512"/></clipPath></defs><g id="a" clip-path="url(#b)"><g transform="translate(-4.5 8.636)"><path d="M18,30H259.657" transform="translate(242.499 461.324)" fill="none" stroke="#fff" stroke-linecap="round" stroke-linejoin="round" stroke-width="35"/><g transform="translate(0 -9.223)" fill="none" stroke-linecap="round" stroke-linejoin="round"><path d="M396.9,22.326a61.571,61.571,0,0,1,87.2,86.949L120.766,471.564,4.5,500.547,33.566,384.615Z" stroke="none"/><path d="M 440.4969787597656 39.31802368164062 C 433.3570556640625 39.31802368164062 426.649658203125 42.08529663085938 421.6104736328125 47.11001586914062 L 65.15457153320312 402.5439147949219 L 52.63540649414062 452.4769287109375 L 102.9074096679688 439.9449157714844 L 459.3834838867188 84.49099731445312 C 464.3957824707031 79.49301147460938 467.1561889648438 72.85531616210938 467.1561889648438 65.80050659179688 C 467.1561889648438 58.74569702148438 464.3957824707031 52.10800170898438 459.3834838867188 47.11001586914062 C 454.3442687988281 42.08529663085938 447.6368713378906 39.31802368164062 440.4969787597656 39.31802368164062 M 440.4970092773438 4.318023681640625 C 456.2770080566406 4.318023681640625 472.0569763183594 10.32061767578125 484.0966796875 22.3258056640625 C 508.1760864257812 46.33621215820312 508.1760864257812 85.26480102539062 484.0966796875 109.2752075195312 L 120.765869140625 471.564208984375 L 4.499969482421875 500.5474243164062 L 33.56646728515625 384.6149291992188 L 396.8972778320312 22.3258056640625 C 408.93701171875 10.32061767578125 424.717041015625 4.318023681640625 440.4970092773438 4.318023681640625 Z" stroke="none" fill="#fff"/></g></g></g></svg>