<svg xmlns="http://www.w3.org/2000/svg" xmlns:xlink="http://www.w3.org/1999/xlink" width="512" height="512" viewBox="0 0 512 512"><defs><clipPath id="b"><rect width="512" height="512"/></clipPath></defs><g id="a" clip-path="url(#b)"><path d="M42.571,4.5H27.014C38.126,12.1,43.9,31.96,43.9,61.418V459.581c0,29.459-5.186,49.72-16.89,56.919H42.571c17.557,0,31.707-25.593,31.707-56.919V61.418C74.278,30.093,60.128,4.5,42.571,4.5Z" transform="translate(437.589 -4.5)" fill="#fff"/><path d="M413.012,4.767c-2.032-.133-4.063-.267-6.1-.267H66.466C32.363,4.5,4.5,30.093,4.5,61.418V459.581c0,31.325,27.863,56.919,61.966,56.919h340.6c2.032,0,4.063-.133,6.1-.267,31.2-2.8,55.871-27.193,55.871-56.652V61.418C468.884,31.96,444.213,7.566,413.012,4.767ZM213.473,260.433l-81.267-42.656L50.938,260.433V47.156H213.473Z" transform="translate(-4.5 -4.5)" fill="#fff"/><path d="M42.571,4.5H27.014C38.126,12.1,43.9,31.96,43.9,61.418V459.581c0,29.459-5.186,49.72-16.89,56.919H42.571c17.557,0,31.707-25.593,31.707-56.919V61.418C74.278,30.093,60.128,4.5,42.571,4.5Z" transform="translate(437.589 -4.5)" fill="#fff"/><path d="M413.012,4.767c-2.032-.133-4.063-.267-6.1-.267H66.466C32.363,4.5,4.5,30.093,4.5,61.418V459.581c0,31.325,27.863,56.919,61.966,56.919h340.6c2.032,0,4.063-.133,6.1-.267,31.2-2.8,55.871-27.193,55.871-56.652V61.418C468.884,31.96,444.213,7.566,413.012,4.767ZM213.473,260.433l-81.267-42.656L50.938,260.433V47.156H213.473Z" transform="translate(-4.5 -4.5)" fill="#fff"/></g></svg>