<svg xmlns="http://www.w3.org/2000/svg" xmlns:xlink="http://www.w3.org/1999/xlink" width="512" height="512" viewBox="0 0 512 512"><defs><clipPath id="b"><rect width="512" height="512"/></clipPath></defs><g id="a" clip-path="url(#b)"><g transform="translate(-80.869 -81.055)"><path d="M250.963,511.2a73.228,73.228,0,0,1-24.486-1.343,73.385,73.385,0,0,1-17.666-2.242,73.216,73.216,0,0,1-19.464-5.076,73.145,73.145,0,0,1-19.385-5.332,73.348,73.348,0,0,1-12.466-4.788,73.655,73.655,0,0,1-12.238-5.455,73.578,73.578,0,0,1-13.811-7.3A73.218,73.218,0,0,1,112.69,467.6a73.277,73.277,0,0,1-19.8-14.454,72.523,72.523,0,0,1-13.586-11.5A72.831,72.831,0,0,1,65.735,426.78a73.1,73.1,0,0,1-14.561-16.9,73.414,73.414,0,0,1-9.14-12.642,73.876,73.876,0,0,1-7.1-11.364,73.274,73.274,0,0,1-7.358-13.77,73.362,73.362,0,0,1-8.8-20.487,73.107,73.107,0,0,1-8.331-23.058A73.036,73.036,0,0,1,5.6,311.425a73.236,73.236,0,0,1-2.935-19.909A72.9,72.9,0,0,1,81.821,199.63a72.934,72.934,0,0,1,63.948,71.786,73.175,73.175,0,0,1,1.812,8.48,73.7,73.7,0,0,1,1.782,7.524,73.294,73.294,0,0,1,3.386,10.07,72.283,72.283,0,0,1,4.186,8.694q1.793,2.843,3.3,5.851,1.646,2.41,3.091,4.945c1.351,1.78,2.629,3.626,3.815,5.521a74.324,74.324,0,0,1,5.985,7.6,73.238,73.238,0,0,1,6.254,6.008,73,73,0,0,1,5.671,5.249,73.768,73.768,0,0,1,8.444,6.453,73.7,73.7,0,0,1,8.34,4.862c2.054.907,4.047,1.912,6.008,3.008,1.808.717,3.578,1.508,5.332,2.373q2.718.927,5.358,2.06a72.506,72.506,0,0,1,8.231,2.851,75.1,75.1,0,0,1,8.514,1.632,74.578,74.578,0,0,1,7.613,1.31,72.284,72.284,0,0,1,10.588.816,72.638,72.638,0,0,1,9.653-.469c2.207-.354,4.432-.593,6.674-.75,1.912-.379,3.824-.684,5.762-.906a72.661,72.661,0,0,1,54.322,7.483q1.681.964,3.311,2.035a72.877,72.877,0,0,1-31.148,133.493,73.543,73.543,0,0,1-13.245,2.093,73.457,73.457,0,0,1-15.55,1.4,73.568,73.568,0,0,1-22.3.1Zm178.05-198.826A72.914,72.914,0,0,1,365.075,240.6a75.106,75.106,0,0,1-1.831-8.5,73.258,73.258,0,0,1-1.764-7.507,71.546,71.546,0,0,1-3.386-10.062,71.758,71.758,0,0,1-4.2-8.694c-1.2-1.9-2.3-3.857-3.3-5.859-1.1-1.607-2.126-3.263-3.1-4.944q-2.029-2.682-3.815-5.538a72.892,72.892,0,0,1-5.968-7.573,74.664,74.664,0,0,1-6.279-6.032,74.326,74.326,0,0,1-5.662-5.233,74.559,74.559,0,0,1-8.433-6.444A72.644,72.644,0,0,1,309,159.341c-2.054-.915-4.065-1.92-6.017-3.016-1.805-.717-3.587-1.516-5.332-2.373q-2.718-.927-5.365-2.06a72.4,72.4,0,0,1-8.217-2.851,71.669,71.669,0,0,1-8.537-1.64,73.814,73.814,0,0,1-7.6-1.3,73.269,73.269,0,0,1-10.584-.816,72.568,72.568,0,0,1-9.649.47c-2.209.346-4.451.6-6.69.742q-2.854.581-5.762.915A72.877,72.877,0,1,1,208.786,4.4a73.3,73.3,0,0,1,13.236-2.1A73.525,73.525,0,0,1,237.578.9,73.255,73.255,0,0,1,259.871.8a73.337,73.337,0,0,1,24.467,1.335,73.236,73.236,0,0,1,17.7,2.258,73.435,73.435,0,0,1,19.45,5.069A73.379,73.379,0,0,1,340.853,14.8a73.059,73.059,0,0,1,12.493,4.8,73.2,73.2,0,0,1,12.238,5.447,73.444,73.444,0,0,1,13.8,7.3,75.3,75.3,0,0,1,6.848,3.487,73.294,73.294,0,0,1,11.909,8.578A73.159,73.159,0,0,1,417.93,58.844a73.1,73.1,0,0,1,13.621,11.537A72.877,72.877,0,0,1,445.1,85.223,73.332,73.332,0,0,1,459.643,102.1a73.814,73.814,0,0,1,9.157,12.666,73.554,73.554,0,0,1,7.1,11.364,73.893,73.893,0,0,1,7.368,13.779,73.488,73.488,0,0,1,8.795,20.478,73.3,73.3,0,0,1,8.331,23.05,72.711,72.711,0,0,1,4.845,17.174,73.184,73.184,0,0,1,2.926,19.885,72.927,72.927,0,0,1-79.154,91.877Z" transform="translate(81.839 81.055)" fill="#fff" opacity="0.35"/><circle cx="72.88" cy="72.88" r="72.88" transform="translate(321.005 438.445)" fill="#fff"/><circle cx="72.88" cy="72.88" r="72.88" transform="translate(207.763 89.916)" fill="#fff"/></g></g></svg>