<svg xmlns="http://www.w3.org/2000/svg" xmlns:xlink="http://www.w3.org/1999/xlink" width="512" height="512" viewBox="0 0 512 512"><defs><clipPath id="b"><rect width="512" height="512"/></clipPath></defs><g id="a" clip-path="url(#b)"><g transform="translate(-80.998 -88.182)"><path d="M0,30H511.992v85.332H0Z" transform="translate(80.998 484.85)" fill="rgba(255,255,255,0.36)"/><path d="M0,30H511.992v85.332H0Z" transform="translate(80.998 484.85)" fill="rgba(255,255,255,0.36)"/><path d="M187.6,85.33,268.933,4V46.277L229.88,85.33Zm-115.049,0L157.883,0h42.235L114.741,85.33ZM0,42.692,42.694,0H84.972L0,84.972Z" transform="translate(324.065 514.851)" fill="rgba(255,255,255,0.36)"/><path d="M187.6,85.33,268.933,4V46.277L229.88,85.33Zm-115.049,0L157.883,0h42.235L114.741,85.33ZM0,42.692,42.694,0H84.972L0,84.972Z" transform="translate(324.065 514.851)" fill="rgba(255,255,255,0.36)"/><path d="M318.771,74.369a34.551,34.551,0,0,1,2.567,12.323q0,13.35-8.729,21.822t-20.025,8.472a26.927,26.927,0,0,1-16.687-5.648,36.706,36.706,0,0,1-11.553-15.4l-26.7-62.128H84.636l-26.7,62.642A31.586,31.586,0,0,1,46.9,111.594a27.01,27.01,0,0,1-16.174,5.391q-13.35,0-20.281-7.188T3.51,90.286A33.968,33.968,0,0,1,5.05,80.53L132.9-226.516a34.074,34.074,0,0,1,12.323-15.917,26.9,26.9,0,0,1,18.484-4.621,30.075,30.075,0,0,1,17.2,5.391,30.415,30.415,0,0,1,11.553,15.147ZM109.8-25.242H212.486L160.627-145.39Z" transform="translate(174.784 351)" fill="#fff"/><path d="M318.771,74.369a34.551,34.551,0,0,1,2.567,12.323q0,13.35-8.729,21.822t-20.025,8.472a26.927,26.927,0,0,1-16.687-5.648,36.706,36.706,0,0,1-11.553-15.4l-26.7-62.128H84.636l-26.7,62.642A31.586,31.586,0,0,1,46.9,111.594a27.01,27.01,0,0,1-16.174,5.391q-13.35,0-20.281-7.188T3.51,90.286A33.968,33.968,0,0,1,5.05,80.53L132.9-226.516a34.074,34.074,0,0,1,12.323-15.917,26.9,26.9,0,0,1,18.484-4.621,30.075,30.075,0,0,1,17.2,5.391,30.415,30.415,0,0,1,11.553,15.147ZM109.8-25.242H212.486L160.627-145.39Z" transform="translate(174.784 351)" fill="#fff"/></g></g></svg>