<svg xmlns="http://www.w3.org/2000/svg" xmlns:xlink="http://www.w3.org/1999/xlink" width="512" height="512" viewBox="0 0 512 512"><defs><clipPath id="b"><rect width="512" height="512"/></clipPath></defs><g id="a" clip-path="url(#b)"><g transform="translate(-3 45.2)"><path d="M468.1,18H328.572l-46.51,75.426H189.041L142.531,18H3" transform="translate(23.448 192.8)" fill="none" stroke="#fff" stroke-linecap="round" stroke-linejoin="round" stroke-width="35"/><g transform="translate(0 0)" fill="none" stroke-linecap="round" stroke-linejoin="round"><path d="M91.32,34.416,3,210.8V364.4a51.2,51.2,0,0,0,51.2,51.2H463.8A51.2,51.2,0,0,0,515,364.4V210.8L426.68,34.416A51.2,51.2,0,0,0,380.856,6H137.144A51.2,51.2,0,0,0,91.32,34.416Z" stroke="none"/><path d="M 137.1626281738281 40.99996948242188 C 130.9734191894531 41.00326538085938 125.417724609375 44.44845581054688 122.6158447265625 50.086669921875 L 38.00003051757812 219.0730895996094 L 38.00003051757812 364.3998413085938 C 38.00003051757812 373.3326416015625 45.26724243164062 380.5999450683594 54.19992065429688 380.5999450683594 L 463.8000183105469 380.5999450683594 C 472.7327270507812 380.5999450683594 480.0000305175781 373.3326416015625 480.0000305175781 364.3998413085938 L 480.0000305175781 219.0731811523438 L 395.3362426757812 49.9908447265625 C 392.5821228027344 44.4483642578125 387.0264282226562 41.00326538085938 380.8559265136719 40.99996948242188 L 137.1626281738281 40.99996948242188 M 137.1439208984375 5.999969482421875 L 380.8559265136719 5.999969482421875 C 400.284912109375 6.010345458984375 418.0341186523438 17.01675415039062 426.679931640625 34.41604614257812 L 515 210.7999572753906 L 515 364.3998413085938 C 515 392.6768493652344 492.0769348144531 415.5999450683594 463.8000183105469 415.5999450683594 L 54.19992065429688 415.5999450683594 C 25.92303466796875 415.5999450683594 3.00006103515625 392.6768493652344 3.00006103515625 364.3998413085938 L 3.00006103515625 210.7999572753906 L 91.31991577148438 34.41604614257812 C 99.9658203125 17.01675415039062 117.7150268554688 6.010345458984375 137.1439208984375 5.999969482421875 Z" stroke="none" fill="#fff"/></g></g></g></svg>