<svg xmlns="http://www.w3.org/2000/svg" xmlns:xlink="http://www.w3.org/1999/xlink" width="64" height="64" viewBox="0 0 64 64">
  <defs>
    <clipPath id="clip-level-icon-20.5">
      <rect width="64" height="64"/>
    </clipPath>
  </defs>
  <g id="level-icon-20.5" clip-path="url(#clip-level-icon-20.5)">
    <g id="타원_19" data-name="타원 19" transform="translate(7 7)" stroke="red" stroke-width="2">
      <circle cx="25" cy="25" r="25" stroke="none"/>
      <circle cx="25" cy="25" r="24" fill="none"/>
    </g>
    <path id="패스_26" data-name="패스 26" d="M1.5-4.56a9.291,9.291,0,0,1,.84-4.245A7,7,0,0,1,4.365-11.31a21.313,21.313,0,0,1,3.045-1.8Q8.76-13.8,9.525-14.3a4.206,4.206,0,0,0,1.26-1.26,3.38,3.38,0,0,0,.495-1.875,3.43,3.43,0,0,0-.855-2.55,3.662,3.662,0,0,0-2.655-.84q-3.45,0-3.45,3.87H1.47a6.415,6.415,0,0,1,1.7-4.875,6.6,6.6,0,0,1,4.725-1.6,6.664,6.664,0,0,1,4.62,1.485,5.731,5.731,0,0,1,1.65,4.485,6.579,6.579,0,0,1-.675,3.18,5.445,5.445,0,0,1-1.65,1.9,17.754,17.754,0,0,1-2.6,1.425A17.22,17.22,0,0,0,6.675-9.54,5.4,5.4,0,0,0,5.07-7.7,6.359,6.359,0,0,0,4.41-4.59v1.77h9.57V0H1.5ZM23.34.3q-3.39,0-4.875-1.56T16.98-6.39V-17.13q0-6.3,6.36-6.3,6.12,0,6.12,6.3V-6.39q0,3.57-1.44,5.13T23.34.3Zm0-2.61a3.136,3.136,0,0,0,2.475-.9,4.856,4.856,0,0,0,.8-3.18V-17.13a5.866,5.866,0,0,0-.375-2.355A2.1,2.1,0,0,0,25.17-20.61a4.656,4.656,0,0,0-1.83-.3,3.846,3.846,0,0,0-2.655.78,4.025,4.025,0,0,0-.855,3V-6.39a7.048,7.048,0,0,0,.345,2.475,2.19,2.19,0,0,0,1.1,1.245A4.869,4.869,0,0,0,23.34-2.31Z" transform="translate(17 44)" fill="red"/>
    <path id="패스_27" data-name="패스 27" d="M8.01-9.66v4.62H5.4V-9.66H.99V-12H5.4v-4.5H8.01V-12h4.44v2.34Z" transform="translate(43 26)" fill="red"/>
  </g>
</svg>
