<svg xmlns="http://www.w3.org/2000/svg" xmlns:xlink="http://www.w3.org/1999/xlink" width="64" height="64" viewBox="0 0 64 64">
  <defs>
    <clipPath id="clip-level-icon-5">
      <rect width="64" height="64"/>
    </clipPath>
  </defs>
  <g id="level-icon-5" clip-path="url(#clip-level-icon-5)">
    <circle id="타원_19" data-name="타원 19" cx="25" cy="25" r="25" transform="translate(7 7)" fill="#0fa" opacity="0.7"/>
    <path id="패스_5" data-name="패스 5" d="M4.02-6.75A4.83,4.83,0,0,0,4.935-3.5,3.434,3.434,0,0,0,7.65-2.46q3.87,0,3.87-4.65v-.9a8.434,8.434,0,0,0-.315-2.64,2.071,2.071,0,0,0-1.08-1.26,5.527,5.527,0,0,0-2.265-.36H1.59V-23.13H13.62v2.67H4.38v5.49H7.92a8.749,8.749,0,0,1,3.825.69,4.076,4.076,0,0,1,2.01,2.19,10.81,10.81,0,0,1,.615,4.02v.99q0,3.72-1.815,5.55A6.6,6.6,0,0,1,7.65.3,6.558,6.558,0,0,1,2.88-1.335Q1.2-2.97,1.2-6.75Z" transform="translate(24 43)"/>
  </g>
</svg>
