<svg xmlns="http://www.w3.org/2000/svg" xmlns:xlink="http://www.w3.org/1999/xlink" width="64" height="64" viewBox="0 0 64 64">
  <defs>
    <clipPath id="clip-level-icon-2">
      <rect width="64" height="64"/>
    </clipPath>
  </defs>
  <g id="level-icon-2" clip-path="url(#clip-level-icon-2)">
    <circle id="타원_19" data-name="타원 19" cx="25" cy="25" r="25" transform="translate(7 7)" fill="#0bf"/>
    <path id="패스_2" data-name="패스 2" d="M1.5-4.56a9.291,9.291,0,0,1,.84-4.245A7,7,0,0,1,4.365-11.31a21.313,21.313,0,0,1,3.045-1.8Q8.76-13.8,9.525-14.3a4.206,4.206,0,0,0,1.26-1.26,3.38,3.38,0,0,0,.495-1.875,3.43,3.43,0,0,0-.855-2.55,3.662,3.662,0,0,0-2.655-.84q-3.45,0-3.45,3.87H1.47a6.415,6.415,0,0,1,1.7-4.875,6.6,6.6,0,0,1,4.725-1.6,6.664,6.664,0,0,1,4.62,1.485,5.731,5.731,0,0,1,1.65,4.485,6.579,6.579,0,0,1-.675,3.18,5.445,5.445,0,0,1-1.65,1.9,17.754,17.754,0,0,1-2.6,1.425A17.22,17.22,0,0,0,6.675-9.54,5.4,5.4,0,0,0,5.07-7.7,6.359,6.359,0,0,0,4.41-4.59v1.77h9.57V0H1.5Z" transform="translate(24.185 43.715)"/>
  </g>
</svg>
