<svg xmlns="http://www.w3.org/2000/svg" xmlns:xlink="http://www.w3.org/1999/xlink" width="64" height="64" viewBox="0 0 64 64">
  <defs>
    <clipPath id="clip-level-icon-10">
      <rect width="64" height="64"/>
    </clipPath>
  </defs>
  <g id="level-icon-10" clip-path="url(#clip-level-icon-10)">
    <circle id="타원_19" data-name="타원 19" cx="25" cy="25" r="25" transform="translate(7 7)" fill="#ff0"/>
    <path id="패스_10" data-name="패스 10" d="M4.47-2.43V-20.58H1.53v-2.55H7.32v20.7h3.57V0H.72V-2.43ZM19.29.3Q15.9.3,14.415-1.26T12.93-6.39V-17.13q0-6.3,6.36-6.3,6.12,0,6.12,6.3V-6.39q0,3.57-1.44,5.13T19.29.3Zm0-2.61a3.136,3.136,0,0,0,2.475-.9,4.856,4.856,0,0,0,.8-3.18V-17.13a5.866,5.866,0,0,0-.375-2.355A2.1,2.1,0,0,0,21.12-20.61a4.656,4.656,0,0,0-1.83-.3,3.846,3.846,0,0,0-2.655.78,4.025,4.025,0,0,0-.855,3V-6.39a7.048,7.048,0,0,0,.345,2.475,2.19,2.19,0,0,0,1.1,1.245A4.869,4.869,0,0,0,19.29-2.31Z" transform="translate(19 44)"/>
  </g>
</svg>
