<svg xmlns="http://www.w3.org/2000/svg" xmlns:xlink="http://www.w3.org/1999/xlink" width="64" height="64" viewBox="0 0 64 64">
  <defs>
    <clipPath id="clip-level-icon-19.5">
      <rect width="64" height="64"/>
    </clipPath>
  </defs>
  <g id="level-icon-19.5" clip-path="url(#clip-level-icon-19.5)">
    <circle id="타원_19" data-name="타원 19" cx="25" cy="25" r="25" transform="translate(7 7)" fill="#460c00"/>
    <path id="패스_23" data-name="패스 23" d="M4.47-2.43V-20.58H1.53v-2.55H7.32v20.7h3.57V0H.72V-2.43ZM15.27-.21a29.821,29.821,0,0,0,3.96-3.21,12.782,12.782,0,0,0,2.61-3.36,12.25,12.25,0,0,1-3.09.36,5.7,5.7,0,0,1-4.215-1.515,6.263,6.263,0,0,1-1.515-4.6v-4.2q0-3.6,1.515-5.145T19.59-23.43q3.54,0,5.055,1.545T26.16-16.74v4.2a13.858,13.858,0,0,1-1.92,7.2A16.494,16.494,0,0,1,19.2,0H15.33ZM19.59-20.7a5.488,5.488,0,0,0-2.145.345,2.279,2.279,0,0,0-1.185,1.2,5.979,5.979,0,0,0-.39,2.415v4.2a3.824,3.824,0,0,0,.855,2.88,4.215,4.215,0,0,0,2.865.78,4.215,4.215,0,0,0,2.865-.78,3.824,3.824,0,0,0,.855-2.88v-4.2a5.979,5.979,0,0,0-.39-2.415,2.279,2.279,0,0,0-1.185-1.2A5.488,5.488,0,0,0,19.59-20.7Z" transform="translate(19 44)" fill="#fff"/>
    <path id="패스_24" data-name="패스 24" d="M8.01-9.66v4.62H5.4V-9.66H.99V-12H5.4v-4.5H8.01V-12h4.44v2.34Z" transform="translate(43 26)" fill="#fff"/>
  </g>
</svg>
