<svg xmlns="http://www.w3.org/2000/svg" xmlns:xlink="http://www.w3.org/1999/xlink" width="64" height="64" viewBox="0 0 64 64">
  <defs>
    <clipPath id="clip-level-icon-8">
      <rect width="64" height="64"/>
    </clipPath>
  </defs>
  <g id="level-icon-8" clip-path="url(#clip-level-icon-8)">
    <circle id="타원_19" data-name="타원 19" cx="25" cy="25" r="25" transform="translate(7 7)" fill="#9f0" opacity="0.7"/>
    <path id="패스_8" data-name="패스 8" d="M8.07.3Q4.56.3,2.88-1.44T1.2-6.87a9.23,9.23,0,0,1,.645-3.87,4.653,4.653,0,0,1,2-2.1,4.987,4.987,0,0,1-2.19-4.53,5.786,5.786,0,0,1,1.725-4.455,6.62,6.62,0,0,1,4.7-1.6,6.911,6.911,0,0,1,3.465.81,5.318,5.318,0,0,1,2.145,2.19,6.644,6.644,0,0,1,.72,3.12,4.945,4.945,0,0,1-2.19,4.35A4.77,4.77,0,0,1,14.3-10.875,9,9,0,0,1,14.94-7.02q0,3.78-1.7,5.55A6.858,6.858,0,0,1,8.07.3ZM4.5-17.28a2.844,2.844,0,0,0,.975,2.3,3.836,3.836,0,0,0,2.565.825q3.42,0,3.42-3.12a3.536,3.536,0,0,0-.825-2.5A3.352,3.352,0,0,0,8.07-20.67a3.622,3.622,0,0,0-2.67.9A3.365,3.365,0,0,0,4.5-17.28ZM8.07-2.43a3.34,3.34,0,0,0,2.88-1.11,5.826,5.826,0,0,0,.81-3.42,6.217,6.217,0,0,0-.81-3.48,3.284,3.284,0,0,0-2.88-1.23,3.284,3.284,0,0,0-2.88,1.23,6.217,6.217,0,0,0-.81,3.48,5.826,5.826,0,0,0,.81,3.42A3.34,3.34,0,0,0,8.07-2.43Z" transform="translate(24 44)"/>
  </g>
</svg>
