<svg xmlns="http://www.w3.org/2000/svg" xmlns:xlink="http://www.w3.org/1999/xlink" width="64" height="64" viewBox="0 0 64 64">
  <defs>
    <clipPath id="clip-level-icon-18.5">
      <rect width="64" height="64"/>
    </clipPath>
  </defs>
  <g id="level-icon-18.5" clip-path="url(#clip-level-icon-18.5)">
    <circle id="타원_19" data-name="타원 19" cx="25" cy="25" r="25" transform="translate(7 7)" fill="#a61c00"/>
    <path id="패스_20" data-name="패스 20" d="M4.47-2.43V-20.58H1.53v-2.55H7.32v20.7h3.57V0H.72V-2.43ZM19.44.3q-3.51,0-5.19-1.74T12.57-6.87a9.23,9.23,0,0,1,.645-3.87,4.653,4.653,0,0,1,1.995-2.1,4.987,4.987,0,0,1-2.19-4.53,5.786,5.786,0,0,1,1.725-4.455,6.62,6.62,0,0,1,4.7-1.6,6.911,6.911,0,0,1,3.465.81,5.318,5.318,0,0,1,2.145,2.19,6.644,6.644,0,0,1,.72,3.12,4.945,4.945,0,0,1-2.19,4.35,4.77,4.77,0,0,1,2.085,2.085A9,9,0,0,1,26.31-7.02q0,3.78-1.7,5.55A6.858,6.858,0,0,1,19.44.3ZM15.87-17.28a2.844,2.844,0,0,0,.975,2.3,3.836,3.836,0,0,0,2.565.825q3.42,0,3.42-3.12a3.536,3.536,0,0,0-.825-2.5,3.352,3.352,0,0,0-2.565-.885,3.622,3.622,0,0,0-2.67.9A3.365,3.365,0,0,0,15.87-17.28ZM19.44-2.43a3.34,3.34,0,0,0,2.88-1.11,5.826,5.826,0,0,0,.81-3.42,6.217,6.217,0,0,0-.81-3.48,3.284,3.284,0,0,0-2.88-1.23,3.284,3.284,0,0,0-2.88,1.23,6.217,6.217,0,0,0-.81,3.48,5.826,5.826,0,0,0,.81,3.42A3.34,3.34,0,0,0,19.44-2.43Z" transform="translate(18 44)" fill="#fff"/>
    <path id="패스_33" data-name="패스 33" d="M10.178-7.547V-1.5H6.762V-7.547H.99V-10.61H6.762V-16.5h3.416v5.89H15.99v3.063Z" transform="translate(41.01 23.5)" fill="#fff" stroke="#a61c00" stroke-width="1.5"/>
  </g>
</svg>
