<svg xmlns="http://www.w3.org/2000/svg" xmlns:xlink="http://www.w3.org/1999/xlink" width="64" height="64" viewBox="0 0 64 64">
  <defs>
    <clipPath id="clip-level-icon-6">
      <rect width="64" height="64"/>
    </clipPath>
  </defs>
  <g id="level-icon-6" clip-path="url(#clip-level-icon-6)">
    <circle id="타원_19" data-name="타원 19" cx="25" cy="25" r="25" transform="translate(7 7)" fill="lime"/>
    <path id="패스_6" data-name="패스 6" d="M12.66-22.92A37.041,37.041,0,0,0,8.6-19.68,12.1,12.1,0,0,0,5.97-16.41a12.25,12.25,0,0,1,3.09-.36,5.7,5.7,0,0,1,4.215,1.515A6.263,6.263,0,0,1,14.79-10.65v4.26q0,3.6-1.515,5.145T8.22.3Q4.68.3,3.165-1.245T1.65-6.39v-4.26a13.181,13.181,0,0,1,2.01-7.14,17.754,17.754,0,0,1,5.16-5.34H12.6ZM8.22-2.43a5.488,5.488,0,0,0,2.145-.345,2.279,2.279,0,0,0,1.185-1.2,5.979,5.979,0,0,0,.39-2.415v-4.26a3.824,3.824,0,0,0-.855-2.88,4.215,4.215,0,0,0-2.865-.78,4.215,4.215,0,0,0-2.865.78A3.824,3.824,0,0,0,4.5-10.65v4.26a5.979,5.979,0,0,0,.39,2.415,2.279,2.279,0,0,0,1.185,1.2A5.488,5.488,0,0,0,8.22-2.43Z" transform="translate(24 43)"/>
  </g>
</svg>
