<svg xmlns="http://www.w3.org/2000/svg" xmlns:xlink="http://www.w3.org/1999/xlink" width="64" height="64" viewBox="0 0 64 64">
  <defs>
    <clipPath id="clip-level-icon-15">
      <rect width="64" height="64"/>
    </clipPath>
  </defs>
  <g id="level-icon-15" clip-path="url(#clip-level-icon-15)">
    <circle id="타원_19" data-name="타원 19" cx="25" cy="25" r="25" transform="translate(7 7)" fill="#f60" opacity="0.7"/>
    <path id="패스_29" data-name="패스 29" d="M4.47-2.43V-20.58H1.53v-2.55H7.32v20.7h3.57V0H.72V-2.43ZM15.39-6.75A4.83,4.83,0,0,0,16.305-3.5,3.434,3.434,0,0,0,19.02-2.46q3.87,0,3.87-4.65v-.9a8.434,8.434,0,0,0-.315-2.64,2.071,2.071,0,0,0-1.08-1.26,5.527,5.527,0,0,0-2.265-.36H12.96V-23.13H24.99v2.67H15.75v5.49h3.54a8.749,8.749,0,0,1,3.825.69,4.076,4.076,0,0,1,2.01,2.19,10.81,10.81,0,0,1,.615,4.02v.99q0,3.72-1.815,5.55A6.6,6.6,0,0,1,19.02.3a6.558,6.558,0,0,1-4.77-1.635Q12.57-2.97,12.57-6.75Z" transform="translate(19 43)"/>
  </g>
</svg>
