<svg xmlns="http://www.w3.org/2000/svg" xmlns:xlink="http://www.w3.org/1999/xlink" width="64" height="64" viewBox="0 0 64 64">
  <defs>
    <clipPath id="clip-level-icon-9">
      <rect width="64" height="64"/>
    </clipPath>
  </defs>
  <g id="level-icon-9" clip-path="url(#clip-level-icon-9)">
    <circle id="타원_19" data-name="타원 19" cx="25" cy="25" r="25" transform="translate(7 7)" fill="#cf0" opacity="0.7"/>
    <path id="패스_9" data-name="패스 9" d="M3.9-.21A29.821,29.821,0,0,0,7.86-3.42a12.782,12.782,0,0,0,2.61-3.36,12.25,12.25,0,0,1-3.09.36A5.7,5.7,0,0,1,3.165-7.935a6.263,6.263,0,0,1-1.515-4.6v-4.2q0-3.6,1.515-5.145T8.22-23.43q3.54,0,5.055,1.545T14.79-16.74v4.2a13.858,13.858,0,0,1-1.92,7.2A16.494,16.494,0,0,1,7.83,0H3.96ZM8.22-20.7a5.488,5.488,0,0,0-2.145.345,2.279,2.279,0,0,0-1.185,1.2A5.979,5.979,0,0,0,4.5-16.74v4.2a3.824,3.824,0,0,0,.855,2.88,4.215,4.215,0,0,0,2.865.78,4.215,4.215,0,0,0,2.865-.78,3.824,3.824,0,0,0,.855-2.88v-4.2a5.979,5.979,0,0,0-.39-2.415,2.279,2.279,0,0,0-1.185-1.2A5.488,5.488,0,0,0,8.22-20.7Z" transform="translate(24 44)"/>
  </g>
</svg>
