<svg xmlns="http://www.w3.org/2000/svg" xmlns:xlink="http://www.w3.org/1999/xlink" width="64" height="64" viewBox="0 0 64 64">
  <defs>
    <clipPath id="clip-level-icon-13">
      <rect width="64" height="64"/>
    </clipPath>
  </defs>
  <g id="level-icon-13" clip-path="url(#clip-level-icon-13)">
    <circle id="타원_19" data-name="타원 19" cx="25" cy="25" r="25" transform="translate(7 7)" fill="#fa0"/>
    <path id="패스_13" data-name="패스 13" d="M4.47-2.43V-20.58H1.53v-2.55H7.32v20.7h3.57V0H.72V-2.43ZM15.36-6.36a4.455,4.455,0,0,0,.795,2.97,3.434,3.434,0,0,0,2.685.9,3.8,3.8,0,0,0,2.85-.96,4.527,4.527,0,0,0,.93-3.21,4.705,4.705,0,0,0-1.11-3.45,3.935,3.935,0,0,0-2.91-1.11H16.95v-2.52H18.6a3.942,3.942,0,0,0,1.785-.54,4.655,4.655,0,0,0,1.53-1.365,3.186,3.186,0,0,0,.615-1.9,3.346,3.346,0,0,0-.885-2.475,3.474,3.474,0,0,0-2.565-.885q-3.54,0-3.54,3.87h-2.7a6.542,6.542,0,0,1,1.59-4.77,6.274,6.274,0,0,1,4.68-1.62,6.5,6.5,0,0,1,4.455,1.515A5.537,5.537,0,0,1,25.29-17.52a6.266,6.266,0,0,1-.75,2.955A4.486,4.486,0,0,1,22.2-12.48,5.038,5.038,0,0,1,24.8-10.425,7.207,7.207,0,0,1,25.62-6.69,7.242,7.242,0,0,1,23.9-1.545,6.547,6.547,0,0,1,18.87.3q-3.39,0-4.845-1.62T12.57-6.36Z" transform="translate(19 44)"/>
  </g>
</svg>
