<svg xmlns="http://www.w3.org/2000/svg" xmlns:xlink="http://www.w3.org/1999/xlink" width="64" height="64" viewBox="0 0 64 64">
  <defs>
    <clipPath id="clip-level-icon-12">
      <rect width="64" height="64"/>
    </clipPath>
  </defs>
  <g id="level-icon-12" clip-path="url(#clip-level-icon-12)">
    <circle id="타원_19" data-name="타원 19" cx="25" cy="25" r="25" transform="translate(7 7)" fill="#fc0"/>
    <path id="패스_12" data-name="패스 12" d="M4.47-2.43V-20.58H1.53v-2.55H7.32v20.7h3.57V0H.72V-2.43Zm8.4-2.13a9.291,9.291,0,0,1,.84-4.245,7,7,0,0,1,2.025-2.505,21.313,21.313,0,0,1,3.045-1.8Q20.13-13.8,20.9-14.3a4.205,4.205,0,0,0,1.26-1.26,3.38,3.38,0,0,0,.5-1.875,3.43,3.43,0,0,0-.855-2.55,3.662,3.662,0,0,0-2.655-.84q-3.45,0-3.45,3.87H12.84a6.415,6.415,0,0,1,1.695-4.875,6.6,6.6,0,0,1,4.725-1.6,6.664,6.664,0,0,1,4.62,1.485,5.731,5.731,0,0,1,1.65,4.485,6.579,6.579,0,0,1-.675,3.18,5.445,5.445,0,0,1-1.65,1.9,17.754,17.754,0,0,1-2.6,1.425,17.22,17.22,0,0,0-2.565,1.41A5.4,5.4,0,0,0,16.44-7.7a6.359,6.359,0,0,0-.66,3.105v1.77h9.57V0H12.87Z" transform="translate(19 44)"/>
  </g>
</svg>
