<svg xmlns="http://www.w3.org/2000/svg" xmlns:xlink="http://www.w3.org/1999/xlink" width="64" height="64" viewBox="0 0 64 64">
  <defs>
    <clipPath id="clip-level-icon-3">
      <rect width="64" height="64"/>
    </clipPath>
  </defs>
  <g id="level-icon-3" clip-path="url(#clip-level-icon-3)">
    <circle id="타원_19" data-name="타원 19" cx="25" cy="25" r="25" transform="translate(7 7)" fill="#0df"/>
    <path id="패스_3" data-name="패스 3" d="M3.99-6.36a4.455,4.455,0,0,0,.795,2.97,3.434,3.434,0,0,0,2.685.9,3.8,3.8,0,0,0,2.85-.96,4.527,4.527,0,0,0,.93-3.21,4.705,4.705,0,0,0-1.11-3.45,3.935,3.935,0,0,0-2.91-1.11H5.58v-2.52H7.23a3.942,3.942,0,0,0,1.785-.54,4.655,4.655,0,0,0,1.53-1.365,3.186,3.186,0,0,0,.615-1.9,3.346,3.346,0,0,0-.885-2.475A3.474,3.474,0,0,0,7.71-20.91q-3.54,0-3.54,3.87H1.47a6.542,6.542,0,0,1,1.59-4.77,6.274,6.274,0,0,1,4.68-1.62A6.5,6.5,0,0,1,12.2-21.915,5.537,5.537,0,0,1,13.92-17.52a6.266,6.266,0,0,1-.75,2.955,4.486,4.486,0,0,1-2.34,2.085,5.038,5.038,0,0,1,2.595,2.055A7.207,7.207,0,0,1,14.25-6.69a7.242,7.242,0,0,1-1.725,5.145A6.547,6.547,0,0,1,7.5.3Q4.11.3,2.655-1.32T1.2-6.36Z" transform="translate(24.275 43.565)"/>
  </g>
</svg>
