<svg width="18" height="18" viewBox="0 0 18 18" fill="none" xmlns="http://www.w3.org/2000/svg">
<g clip-path="url(#clip0_7390_14098)">
<path fill-rule="evenodd" clip-rule="evenodd" d="M17 9C17 13.4183 13.4183 17 9 17C4.58172 17 1 13.4183 1 9C1 4.58172 4.58172 1 9 1C13.4183 1 17 4.58172 17 9ZM4.33333 8C4.33333 7.44772 4.78105 7 5.33333 7C5.88562 7 6.33333 7.44772 6.33333 8V12C6.33333 12.5523 5.88562 13 5.33333 13C4.78105 13 4.33333 12.5523 4.33333 12V8ZM7.66667 5.66667C7.66667 4.93029 8.26362 4.33333 9 4.33333C9.73638 4.33333 10.3333 4.93029 10.3333 5.66667V7.66667H12.3333C13.0697 7.66667 13.6667 8.26362 13.6667 9V9.66667V11V11.6667C13.6667 12.403 13.0697 13 12.3333 13H8.33333C7.96514 13 7.66667 12.7015 7.66667 12.3333V10.3333V8.16863V5.66667Z" fill="#3B84F1"/>
</g>
<defs>
<clipPath id="clip0_7390_14098">
<rect width="18" height="18" fill="white"/>
</clipPath>
</defs>
</svg>
