<svg width="18" height="18" viewBox="0 0 18 18" fill="none" xmlns="http://www.w3.org/2000/svg">
<path fill-rule="evenodd" clip-rule="evenodd" d="M9 17C13.4183 17 17 13.4183 17 9C17 4.58172 13.4183 1 9 1C4.58172 1 1 4.58172 1 9C1 13.4183 4.58172 17 9 17ZM10.4164 7.32895L9.63361 4.9365C9.43322 4.32403 8.56678 4.32403 8.36639 4.9365L7.58359 7.32895H5.06342C4.41648 7.32895 4.1487 8.15773 4.67335 8.53625L6.7082 10.0044L5.92848 12.3874C5.72778 13.0008 6.42878 13.513 6.95216 13.1354L9 11.6579L11.0478 13.1354C11.5712 13.513 12.2722 13.0008 12.0715 12.3874L11.2918 10.0044L13.3267 8.53626C13.8513 8.15773 13.5835 7.32895 12.9366 7.32895H10.4164Z" fill="#ECCE23"/>
</svg>
