<svg xmlns="http://www.w3.org/2000/svg" xmlns:xlink="http://www.w3.org/1999/xlink" width="512" height="512" viewBox="0 0 512 512">
  <defs>
    <clipPath id="clip-accuracy">
      <rect width="512" height="512"/>
    </clipPath>
  </defs>
  <g id="accuracy" clip-path="url(#clip-accuracy)">
    <g id="Icon_feather-target" data-name="Icon feather-target" transform="translate(-3 -3)">
      <g id="パス_43" data-name="パス 43" transform="translate(0 0)" fill="none" stroke-linecap="round" stroke-linejoin="round">
        <path d="M515,259c0,141.385-114.615,256-256,256S3,400.385,3,259,117.615,3,259,3,515,117.615,515,259Z" stroke="none"/>
        <path d="M 258.9999694824219 475.9999694824219 C 378.6541748046875 475.9999694824219 475.9999694824219 378.6541748046875 475.9999694824219 258.9999694824219 C 475.9999694824219 139.3457641601562 378.6541748046875 41.99996948242188 258.9999694824219 41.99996948242188 C 139.3457641601562 41.99996948242188 41.99996948242188 139.3457641601562 41.99996948242188 258.9999694824219 C 41.99996948242188 378.6541748046875 139.3457641601562 475.9999694824219 258.9999694824219 475.9999694824219 M 258.9999694824219 515 C 117.6150665283203 515 2.999969482421875 400.3848571777344 2.999969482421875 258.9999694824219 C 2.999969482421875 117.6150665283203 117.6150665283203 2.999969482421875 258.9999694824219 2.999969482421875 C 400.3848571777344 2.999969482421875 515 117.6150665283203 515 258.9999694824219 C 515 400.3848571777344 400.3848571777344 515 258.9999694824219 515 Z" stroke="none" fill="#fff"/>
      </g>
      <g id="パス_44" data-name="パス 44" transform="translate(96.4 96.4)" fill="none" stroke-linecap="round" stroke-linejoin="round">
        <path d="M316.2,162.6A153.6,153.6,0,1,1,162.6,9,153.6,153.6,0,0,1,316.2,162.6Z" stroke="none"/>
        <path d="M 162.6000061035156 48 C 99.40931701660156 48 48 99.40931701660156 48 162.6000061035156 C 48 225.7906951904297 99.40931701660156 277.2000122070312 162.6000061035156 277.2000122070312 C 225.7906951904297 277.2000122070312 277.2000122070312 225.7906951904297 277.2000122070312 162.6000061035156 C 277.2000122070312 99.40931701660156 225.7906951904297 48 162.6000061035156 48 M 162.6000061035156 9 C 247.4309387207031 9 316.2000122070312 77.76908874511719 316.2000122070312 162.6000061035156 C 316.2000122070312 247.4309387207031 247.4309387207031 316.2000122070312 162.6000061035156 316.2000122070312 C 77.76908874511719 316.2000122070312 9 247.4309387207031 9 162.6000061035156 C 9 77.76908874511719 77.76908874511719 9 162.6000061035156 9 Z" stroke="none" fill="#fff"/>
      </g>
      <g id="パス_45" data-name="パス 45" transform="translate(192.8 192.8)" fill="none" stroke-linecap="round" stroke-linejoin="round">
        <path d="M117.4,66.2A51.2,51.2,0,1,1,66.2,15,51.2,51.2,0,0,1,117.4,66.2Z" stroke="none"/>
        <path d="M 66.20001983642578 54.00002288818359 C 59.47291564941406 54.00002288818359 54.00002288818359 59.47291564941406 54.00002288818359 66.20001983642578 C 54.00002288818359 72.9271240234375 59.47291564941406 78.4000244140625 66.20001983642578 78.4000244140625 C 72.9271240234375 78.4000244140625 78.4000244140625 72.9271240234375 78.4000244140625 66.20001983642578 C 78.4000244140625 59.47291564941406 72.9271240234375 54.00002288818359 66.20001983642578 54.00002288818359 M 66.20001983642578 15.00002288818359 C 94.47691345214844 15.00002288818359 117.400016784668 37.92301940917969 117.400016784668 66.20001983642578 C 117.400016784668 94.47691345214844 94.47691345214844 117.400016784668 66.20001983642578 117.400016784668 C 37.92301940917969 117.400016784668 15.00002288818359 94.47691345214844 15.00002288818359 66.20001983642578 C 15.00002288818359 37.92301940917969 37.92301940917969 15.00002288818359 66.20001983642578 15.00002288818359 Z" stroke="none" fill="#fff"/>
      </g>
    </g>
  </g>
</svg>
