<svg width="13" height="13" viewBox="0 0 13 13" fill="none" xmlns="http://www.w3.org/2000/svg">
    <path fill-rule="evenodd" clip-rule="evenodd" d="M11 1C11 0.447715 11.4477 0 12 0L13 12C13 12.5178 12.6065 12.9436 12.1022 12.9948C12.0686 12.9983 12.0345 13 12 13H1C0.447715 13 0 12.5523 0 12C0 11.4477 0.447716 11 1 11L9.41511 11L2.00652 3.59141C1.56886 3.15375 1.56886 2.44417 2.00652 2.00651C2.44417 1.56885 3.15376 1.56885 3.59141 2.00651L11 9.4151L11 1ZM12 0L13 11.9986L13 1C13 0.447716 12.5523 0 12 0Z" fill="white"/>
</svg>
