<svg width="11" height="16" viewBox="0 0 11 16" fill="none" xmlns="http://www.w3.org/2000/svg">
    <path d="M0.898246 14.0525C0.118434 12.9386 0 11.685 0 11.1885C0 10.6921 0.224561 9.73747 0.673684 8.74463C1.08826 7.82816 2.43275 6.26253 3.14386 5.34606C3.85497 4.42959 4.34152 4.00955 4.41637 2.82578C4.49123 1.642 4.41637 1.06921 4.15439 0.649165C3.9448 0.313127 3.74269 0.0763723 3.66784 0C4.54113 0.407319 6.37006 1.69547 6.69941 3.5895C7.11111 5.95704 7.03626 6.10979 7.11111 6.79714C7.18596 7.48449 7.33567 9.20286 8.00936 8.97375C8.68304 8.74463 8.9076 7.52267 8.75789 6.94988C8.60819 6.37709 8.53333 5.8043 8.38362 5.53699C8.23392 5.26969 9.61871 6.83532 10.0304 7.90453C10.4421 8.97375 10.6667 9.81384 10.6667 10.7685C10.6667 11.7232 10.4421 12.6014 10.1427 13.327C9.84328 14.0525 8.64561 15.2745 8.15906 15.5418C7.67251 15.8091 7.22339 16 6.9614 16H6.51228C6.87407 15.7963 7.3731 14.6635 7.3731 14.2434C7.3731 13.5561 7.22339 12.7542 6.13801 12.2578C5.05263 11.7613 4.07953 11.3031 3.66784 10.3866C3.54308 10.1066 3.30105 9.42434 3.33099 8.93556C3.36509 8.3789 3.43026 7.75884 3.61142 7.45083C3.33703 7.81624 2.44763 9.01608 2.24561 9.73747C2.09591 10.2721 1.87134 10.6539 1.87134 11.4558C1.87134 11.8123 1.96117 12.7084 2.32047 13.4415C2.76959 14.358 3.36842 15.1217 3.74269 15.4272C4.04211 15.6716 4.26953 15.9048 4.34581 15.9909C3.39673 15.728 1.64678 15.1217 0.898246 14.0525Z" fill="white"/>
</svg>
