<svg width="48" height="48" viewBox="0 0 48 48" fill="none" xmlns="http://www.w3.org/2000/svg">
    <path d="M29 12.4C29 12.5857 29.1492 12.7363 29.3333 12.7363H38.0174C38.336 12.7363 38.473 12.3286 38.2202 12.133L29 5.00002L29 12.4Z" fill="white"/>
    <path fill-rule="evenodd" clip-rule="evenodd" d="M12 5C10.8954 5 10 5.90357 10 7.01818V39.9818C10 41.0964 10.8954 42 12 42H37C38.1046 42 39 41.0964 39 39.9818V15.0909C39 14.5336 38.5523 14.0818 38 14.0818H28.3333C27.9651 14.0818 27.6667 13.7806 27.6667 13.4091V6.00909C27.6667 5.45179 27.219 5 26.6667 5H12ZM21.7146 17.1091C21.7146 16.7376 22.0131 16.4364 22.3813 16.4364H27.0992C27.4673 16.4364 27.7658 16.7376 27.7658 17.1091V25.4255H30.5689C31.7206 25.4255 32.3305 26.7996 31.5638 27.6667L25.614 34.3955C25.0838 34.9951 24.1544 34.9951 23.6242 34.3955L17.6744 27.6667C16.9077 26.7996 17.5176 25.4255 18.6693 25.4255H21.7146V17.1091Z" fill="white"/>
</svg>
