<svg width="20" height="20" viewBox="0 0 20 20" fill="none" xmlns="http://www.w3.org/2000/svg">
    <path d="M11.1343 11.9715C10.5489 12.6403 9.45105 12.6403 8.86573 11.9715L0.331196 2.21996C-0.446895 1.33091 0.23312 -1.00228e-07 1.46546 0L18.5345 1.38825e-06C19.7669 1.48848e-06 20.4469 1.33091 19.6688 2.21996L11.1343 11.9715Z" fill="white"/>
    <path d="M7.8054 8.73165C7.8054 8.23062 8.24198 7.82446 8.78053 7.82446H11.7059C12.2445 7.82446 12.681 8.23062 12.681 8.73165V16.9139C12.681 17.1895 12.5464 17.4501 12.3151 17.6223L9.38969 19.7995C8.75121 20.2747 7.8054 19.8518 7.8054 19.0911V8.73165Z" fill="white"/>
</svg>
