<svg width="16" height="15" viewBox="0 0 16 15" fill="none" xmlns="http://www.w3.org/2000/svg">
    <g opacity="0.5">
        <path fill-rule="evenodd" clip-rule="evenodd" d="M6.61173 12.3918C7.21604 12.5152 7.84783 12.5806 8.49805 12.5806C11.6489 12.5806 14.367 11.0445 15.6224 8.82626C16.1233 7.94117 16.1233 6.84529 15.6224 5.96019C15.0397 4.9306 14.1419 4.04797 13.0319 3.39769L11.7188 5.23732C12.1469 5.84753 12.3982 6.59101 12.3982 7.39322C12.3982 9.4678 10.7175 11.1496 8.6443 11.1496C8.283 11.1496 7.93362 11.0985 7.60298 11.0032L6.61173 12.3918ZM8.44877 9.8183C8.51327 9.82344 8.57848 9.82605 8.6443 9.82605C9.98704 9.82605 11.0755 8.73684 11.0755 7.39322C11.0755 7.04764 11.0035 6.71889 10.8737 6.42117L8.44877 9.8183ZM9.37857 5.07331L6.68967 8.84024C6.39018 8.43583 6.21306 7.93522 6.21306 7.39322C6.21306 6.04961 7.30156 4.96039 8.6443 4.96039C8.90022 4.96039 9.1469 4.99996 9.37857 5.07331ZM10.1724 3.96117C9.70564 3.75274 9.18849 3.63686 8.6443 3.63686C6.57107 3.63686 4.89039 5.31864 4.89039 7.39322C4.89039 8.38187 5.27208 9.28131 5.89604 9.95204L4.62297 11.7355C3.20887 11.0704 2.06778 10.0526 1.37374 8.82626C0.872816 7.94117 0.872816 6.84529 1.37374 5.96019C2.62914 3.74196 5.34724 2.20587 8.49805 2.20587C9.42991 2.20587 10.3239 2.34023 11.1534 2.58687L10.1724 3.96117Z" fill="white"/>
        <line y1="-0.5" x2="17.2121" y2="-0.5" transform="matrix(-0.580987 0.813913 -0.813554 -0.581489 13 0)" stroke="white"/>
        <line y1="-0.5" x2="17.2121" y2="-0.5" transform="matrix(-0.580987 0.813913 -0.813554 -0.581489 13 0)" stroke="white"/>
    </g>
</svg>
