<svg xmlns="http://www.w3.org/2000/svg" xmlns:xlink="http://www.w3.org/1999/xlink" width="64" height="64" viewBox="0 0 64 64">
  <defs>
    <clipPath id="clip-message">
      <rect width="64" height="64"/>
    </clipPath>
  </defs>
  <g id="message" clip-path="url(#clip-message)">
    <g id="그룹_112" data-name="그룹 112" transform="translate(-1676 -1299)">
      <circle id="타원_17" data-name="타원 17" cx="32" cy="32" r="32" transform="translate(1676 1299)" fill="#1a2533" opacity="0.6"/>
      <g id="타원_18" data-name="타원 18" transform="translate(1676 1299)" fill="none" stroke="#fff" stroke-width="3">
        <circle cx="32" cy="32" r="32" stroke="none"/>
        <circle cx="32" cy="32" r="30.5" fill="none"/>
      </g>
      <path id="Icon_feather-message-circle" data-name="Icon feather-message-circle" d="M31.085,17.054a12.377,12.377,0,0,1-1.329,5.612,12.554,12.554,0,0,1-11.225,6.942,12.377,12.377,0,0,1-5.612-1.329L4.5,31.085l2.806-8.418a12.377,12.377,0,0,1-1.329-5.612A12.554,12.554,0,0,1,12.918,5.829,12.377,12.377,0,0,1,18.531,4.5h.738A12.524,12.524,0,0,1,31.085,16.315Z" transform="translate(1690.208 1313.208)" fill="none" stroke="#fff" stroke-linecap="round" stroke-linejoin="round" stroke-width="3"/>
    </g>
  </g>
</svg>
