<svg width="46" height="46" viewBox="0 0 46 46" fill="none" xmlns="http://www.w3.org/2000/svg">
<path d="M20.1209 23C22.3166 20.6042 19.8553 4.79167 29.1901 0C23.699 14.375 34.1321 13.9794 37.6916 23.9583C43.6739 40.7292 27.2006 45.5208 27.2006 45.5208C27.2006 45.5208 34.9529 36.4167 33.4553 31.625C31.808 26.3542 26.866 20.125 26.866 20.125C26.866 20.125 29.8434 27.2113 21.9241 30.6667C19.5 31.7243 17.3034 33.7692 17 36.5C16.5 41 21.1605 46 21.1605 46C21.1605 46 12.2088 45.1657 9.13722 40.7292C2.83399 31.625 6.67659 24.4375 14.9133 11.5C12.1678 18.2083 16.6738 26.7613 20.1209 23Z" fill="white"/>
</svg>
