<svg width="12" height="11" viewBox="0 0 12 11" fill="none" xmlns="http://www.w3.org/2000/svg">
    <path d="M10.8563 3.91517C10.5777 2.99712 10.0607 2.1633 9.35214 1.50009C8.48312 0.686696 7.37243 0.173429 6.18548 0.0367238C4.99852 -0.0999828 3.79879 0.147185 2.76494 0.741419C1.73108 1.33565 0.918412 2.24517 0.447939 3.33452C-0.0225343 4.42388 -0.125642 5.63481 0.153968 6.78698C0.433579 7.93916 1.08095 8.97095 1.99968 9.72871C2.91842 10.4865 4.05937 10.9297 5.25263 10.9923C6.22549 11.0434 7.19069 10.8393 8.05287 10.4059C8.37767 10.2426 8.45816 9.83274 8.25618 9.53226C8.05437 9.23203 7.64686 9.15578 7.31643 9.3068C7.29148 9.3182 7.26637 9.32939 7.2411 9.34037C5.10249 10.269 2.60976 9.30235 1.67344 7.18138C0.737118 5.0604 1.71177 2.58824 3.85038 1.65964C5.989 0.731041 8.48172 1.69765 9.41804 3.81863C9.45433 3.90083 9.48775 3.98356 9.51835 4.06671L8.59262 4.08961C8.35386 4.09552 8.21109 4.35554 8.33562 4.55765L9.9468 7.17246C10.0713 7.37458 10.3698 7.36719 10.484 7.15918L11.9617 4.46795C12.076 4.25994 11.9203 4.0073 11.6815 4.0132L10.8789 4.03306C10.8757 3.9941 10.8682 3.95467 10.8563 3.91517Z" fill="white"/>
</svg>
