<svg width="18" height="19" viewBox="0 0 18 19" fill="none" xmlns="http://www.w3.org/2000/svg">
    <path opacity="0.4" fill-rule="evenodd" clip-rule="evenodd" d="M12 6.5C12 9.53757 9.53757 12 6.5 12C3.46243 12 1 9.53757 1 6.5C1 3.46243 3.46243 1 6.5 1C9.53757 1 12 3.46243 12 6.5ZM10.2424 11.8152C9.18424 12.5616 7.89331 13 6.5 13C2.91015 13 0 10.0899 0 6.5C0 2.91015 2.91015 0 6.5 0C10.0899 0 13 2.91015 13 6.5C13 8.51229 12.0856 10.311 10.6496 11.5033C10.796 11.4864 10.9484 11.5342 11.0607 11.6464L17.3536 17.9393C17.5488 18.1346 17.5488 18.4512 17.3536 18.6464C17.1583 18.8417 16.8417 18.8417 16.6464 18.6464L10.3536 12.3536C10.208 12.208 10.171 11.9951 10.2424 11.8152Z" fill="white"/>
</svg>
