<svg width="15" height="15" viewBox="0 0 15 15" fill="none" xmlns="http://www.w3.org/2000/svg">
    <g opacity="0.5">
        <path fill-rule="evenodd" clip-rule="evenodd" d="M0.375691 8.82626C-0.12523 7.94117 -0.12523 6.84529 0.375691 5.96019C1.6311 3.74196 4.34919 2.20587 7.5 2.20587C10.6508 2.20587 13.3689 3.74196 14.6243 5.96019C15.1252 6.84529 15.1252 7.94117 14.6243 8.82626C13.3689 11.0445 10.6508 12.5806 7.5 12.5806C4.34919 12.5806 1.6311 11.0445 0.375691 8.82626ZM7.64625 9.82605C8.98899 9.82605 10.0775 8.73684 10.0775 7.39322C10.0775 6.04961 8.98899 4.96039 7.64625 4.96039C6.30351 4.96039 5.21501 6.04961 5.21501 7.39322C5.21501 8.73684 6.30351 9.82605 7.64625 9.82605ZM7.64625 11.1496C9.71948 11.1496 11.4002 9.4678 11.4002 7.39322C11.4002 5.31864 9.71948 3.63686 7.64625 3.63686C5.57302 3.63686 3.89234 5.31864 3.89234 7.39322C3.89234 9.4678 5.57302 11.1496 7.64625 11.1496Z" fill="white"/>
    </g>
</svg>
