<svg width="21" height="21" viewBox="0 0 21 21" fill="none" xmlns="http://www.w3.org/2000/svg">
    <rect x="8.65234" width="11.3488" height="2.85742" rx="1.42871" fill="white"/>
    <rect x="8.65234" y="5.71483" width="9.4573" height="2.85742" rx="1.42871" fill="white"/>
    <rect x="8.65234" y="11.4297" width="7.56584" height="2.85742" rx="1.42871" fill="white"/>
    <rect x="8.65234" y="17.1445" width="5.67438" height="2.85742" rx="1.42871" fill="white"/>
    <path fill-rule="evenodd" clip-rule="evenodd" d="M3.41633 0C2.72591 0 2.16621 0.559698 2.16621 1.25012V12.7285H0.827915C0.191535 12.7285 -0.206202 13.4949 0.111988 14.108L2.61773 18.936C2.93592 19.5491 3.7314 19.5491 4.04959 18.936L6.55533 14.108C6.87352 13.4949 6.47578 12.7285 5.8394 12.7285H4.66646V1.25012C4.66646 0.559699 4.10676 0 3.41633 0Z" fill="white"/>
</svg>
