<svg width="11" height="12" viewBox="0 0 11 12" fill="none" xmlns="http://www.w3.org/2000/svg">
    <path fill-rule="evenodd" clip-rule="evenodd" d="M5.90567 0.76938C5.73318 0.596899 5.49925 0.5 5.25533 0.5L0.919721 0.5C0.411774 0.5 5.77396e-07 0.911773 5.16844e-07 1.41972L0 5.75532C-2.90781e-08 5.99925 0.0968988 6.23318 0.26938 6.40566L5.09434 11.2306C5.45351 11.5898 6.03584 11.5898 6.39502 11.2306L10.7306 6.89502C11.0898 6.53584 11.0898 5.95351 10.7306 5.59434L5.90567 0.76938ZM2.24149 1.59163C2.52181 1.87194 2.52181 2.32642 2.24149 2.60674C1.96118 2.88705 1.5067 2.88705 1.22638 2.60674C0.94607 2.32642 0.94607 1.87194 1.22638 1.59163C1.5067 1.31132 1.96118 1.31132 2.24149 1.59163Z" fill="white"/>
</svg>
