<svg width="48" height="48" viewBox="0 0 48 48" fill="none" xmlns="http://www.w3.org/2000/svg">
<circle cx="24" cy="24" r="17" stroke="black" stroke-width="2"/>
<path d="M29.6876 28.8964C30.3134 29.4352 30.3906 30.3908 29.7558 30.9189C28.6919 31.8039 27.4327 32.4362 26.073 32.758C24.2257 33.1953 22.2874 33.0372 20.5353 32.3064C18.7833 31.5756 17.3072 30.3095 16.3181 28.6891C15.329 27.0688 14.8776 25.1772 15.0285 23.2848C15.1793 21.3925 15.9247 19.5962 17.158 18.1531C18.3913 16.7099 20.0493 15.6936 21.895 15.2496C23.7408 14.8056 25.6796 14.9566 27.4343 15.681C28.7259 16.2142 29.869 17.038 30.7792 18.0804C31.3223 18.7023 31.0947 19.6337 30.3915 20.0665V20.0665C29.6883 20.4992 28.7778 20.2618 28.1852 19.6868C27.6421 19.1599 27.0011 18.737 26.2933 18.4449C25.1216 17.9611 23.8269 17.8603 22.5944 18.1568C21.3619 18.4533 20.2547 19.1319 19.4311 20.0956C18.6076 21.0593 18.1098 22.2588 18.0091 23.5224C17.9084 24.7861 18.2098 26.0492 18.8703 27.1313C19.5307 28.2133 20.5164 29.0587 21.6864 29.5467C22.8564 30.0347 24.1507 30.1403 25.3843 29.8483C26.1294 29.6719 26.8293 29.356 27.449 28.9217C28.1252 28.4479 29.0619 28.3577 29.6876 28.8964V28.8964Z" fill="black"/>
</svg>
