<svg width="48" height="48" viewBox="0 0 48 48" fill="none" xmlns="http://www.w3.org/2000/svg">
<path fill-rule="evenodd" clip-rule="evenodd" d="M41.6638 31.5183C41.8674 31.446 42.0606 31.6486 41.9788 31.8485L37.9151 41.7821C37.86 41.9168 37.702 41.9761 37.5719 41.9111L27.6383 36.9443C27.4412 36.8457 27.4588 36.5588 27.6665 36.4851L41.6638 31.5183ZM43.3671 32.4165C43.9397 31.0169 42.5873 29.5989 41.1622 30.1046L27.1649 35.0714C25.7108 35.5874 25.5875 37.5959 26.9675 38.2859L30.401 40.0026C30.3738 40.1053 30.3591 40.2141 30.3591 40.3277V41.4732C30.3591 42.5033 31.5351 43.0912 32.3591 42.4732L33.2756 41.7859C33.3665 41.7177 33.4447 41.6408 33.5105 41.5574L36.9011 43.2527C37.8119 43.7081 38.9178 43.2926 39.3034 42.3501L43.3671 32.4165ZM31.8591 40.9732V40.7322L32.052 40.8286L31.8591 40.9732Z" fill="black"/>
<path d="M42.9277 30.655L30.864 39.4056" stroke="black" stroke-width="1.5"/>
<path fill-rule="evenodd" clip-rule="evenodd" d="M36 32.3132L36 10C36 9.44772 35.5523 9 35 9L14 9C13.4477 9 13 9.44772 13 10L13 37C13 37.5523 13.4477 38 14 38H27.2009L31.2009 40H31.2L30.8327 39.8163C30.5886 39.6943 30.3128 39.7922 30.1835 40H14C12.3431 40 11 38.6569 11 37V10C11 8.34314 12.3431 7 14 7H35C36.6569 7 38 8.34315 38 10L38 31.6035L36 32.3132Z" fill="black"/>
<path d="M21.5914 16.2763C21.3167 15.9079 20.7785 15.9079 20.5038 16.2763L17.1437 20.7817C16.7964 21.2475 17.118 21.9221 17.6875 21.9221H19.745V26.625C19.745 27.0162 20.0522 27.3333 20.4312 27.3333H21.8037C22.1827 27.3333 22.4899 27.0162 22.4899 26.625V21.9221H24.4077C24.9772 21.9221 25.2989 21.2475 24.9515 20.7817L21.5914 16.2763Z" fill="black"/>
<path d="M27.7914 32.7237C28.0661 33.0921 28.6043 33.0921 28.879 32.7237L32.2391 28.2183C32.5865 27.7525 32.2648 27.0779 31.6953 27.0779L29.6379 27.0779L29.6379 22.375C29.6379 21.9838 29.3306 21.6667 28.9516 21.6667L27.5791 21.6667C27.2001 21.6667 26.8929 21.9838 26.8929 22.375L26.8929 27.0779L24.9751 27.0779C24.4056 27.0779 24.0839 27.7525 24.4313 28.2183L27.7914 32.7237Z" fill="black"/>
</svg>
