<svg width="48" height="48" viewBox="0 0 48 48" fill="none" xmlns="http://www.w3.org/2000/svg">
<path fill-rule="evenodd" clip-rule="evenodd" d="M35 13H40V17L35 17V13ZM33 13H16V14V16V20V22V26V28V32V34L16 36H27.252C27.4347 36.7095 27.7122 37.381 28.0703 38H9C7.89543 38 7 37.1046 7 36V13C7 11.8954 7.89543 11 9 11H40C41.1046 11 42 11.8954 42 13V30.124C41.4925 29.2094 40.8109 28.4047 40 27.7546V25L35 25V26C34.3094 26 33.6392 26.0875 33 26.252V25V23V19V17V13ZM35 19V23L40 23V19L35 19ZM14 32L14 28H9V32H14ZM9 34V36H14V34H9ZM14 26V22L9 22V26L14 26ZM14 14V13H9V14L14 14ZM9 16V20L14 20L14 16L9 16ZM28 24.0988C28.3333 24.2913 28.3333 24.7724 28 24.9648L22.75 27.9959C22.4167 28.1884 22 27.9478 22 27.5629V21.5007C22 21.1158 22.4167 20.8753 22.75 21.0677L28 24.0988Z" fill="black"/>
<path fill-rule="evenodd" clip-rule="evenodd" d="M35.3453 30.195C35.1452 29.935 34.7531 29.935 34.5529 30.195L32.1047 33.3753C31.8516 33.7041 32.086 34.1803 32.5009 34.1803H34V37C34 37.5523 34.4477 38 35 38C35.5523 38 36 37.5523 36 37V34.1803H37.3973C37.8123 34.1803 38.0466 33.7041 37.7935 33.3753L35.3453 30.195Z" fill="black"/>
<circle cx="35" cy="34" r="7" stroke="black" stroke-width="2"/>
</svg>
