<svg width="48" height="48" viewBox="0 0 48 48" fill="none" xmlns="http://www.w3.org/2000/svg">
<path fill-rule="evenodd" clip-rule="evenodd" d="M27.7109 9.47701C27.7109 9.1438 28.0945 8.95667 28.3571 9.16172L35.7134 14.9053C36.0133 15.1395 35.8478 15.6206 35.4673 15.6206H28.1109C27.89 15.6206 27.7109 15.4415 27.7109 15.2206V9.47701Z" fill="black"/>
<path opacity="0.35" d="M24.2872 33.0098C24.0753 33.0339 23.8609 33.0221 23.653 32.9749C23.4987 32.9742 23.345 32.9547 23.1954 32.9168C23.0221 32.8964 22.8525 32.8521 22.6913 32.7853C22.5184 32.7625 22.3494 32.716 22.1892 32.647C22.0781 32.6156 21.97 32.574 21.8664 32.5229C21.7566 32.4855 21.6505 32.4382 21.5494 32.3815C21.4238 32.3313 21.3039 32.2679 21.1917 32.1923C21.0147 32.1135 20.8509 32.008 20.7059 31.8796C20.5151 31.7844 20.3417 31.6577 20.193 31.5049C20.0639 31.4204 19.9458 31.3203 19.8411 31.2068C19.7067 31.0953 19.5885 30.9656 19.4897 30.8215C19.3423 30.6956 19.2151 30.5479 19.1126 30.3834C19.0222 30.2829 18.9429 30.173 18.8758 30.0557C18.8057 29.9633 18.7442 29.8647 18.6919 29.7611C18.6159 29.6493 18.552 29.5296 18.5014 29.4042C18.3988 29.2398 18.3219 29.0607 18.2734 28.8731C18.1684 28.6874 18.0955 28.4854 18.0577 28.2754C17.9979 28.133 17.9557 27.9839 17.9322 27.8313C17.8832 27.6636 17.8576 27.4899 17.8562 27.3152C17.7729 27.0156 17.7648 26.7001 17.8326 26.3966C17.9004 26.0931 18.0419 25.8111 18.2447 25.5755C18.4475 25.3399 18.7053 25.158 18.9951 25.046C19.285 24.934 19.598 24.8953 19.9063 24.9334C20.3609 24.9898 20.7795 25.2097 21.0842 25.552C21.3889 25.8943 21.5589 26.3357 21.5626 26.7942C21.5826 26.8664 21.5983 26.9398 21.6095 27.014C21.6283 27.0781 21.6437 27.1432 21.6557 27.209C21.6912 27.2938 21.7205 27.381 21.7434 27.47C21.7845 27.5427 21.8207 27.618 21.8518 27.6954C21.8828 27.7445 21.9113 27.7951 21.9373 27.8471C21.9657 27.8887 21.9924 27.9314 22.0174 27.9753C22.0523 28.0214 22.0854 28.0692 22.1162 28.1184C22.1721 28.1806 22.2238 28.2464 22.2712 28.3154C22.3282 28.364 22.3823 28.416 22.4332 28.4711C22.4845 28.5138 22.5335 28.5593 22.58 28.6072C22.6569 28.6576 22.73 28.7135 22.7987 28.7744C22.8734 28.8117 22.9456 28.8538 23.0148 28.9005C23.068 28.924 23.1196 28.95 23.1704 28.9785C23.2172 28.997 23.263 29.0175 23.3085 29.04C23.3554 29.056 23.4017 29.0738 23.4472 29.0934C23.5197 29.1137 23.5909 29.1384 23.6604 29.1673C23.7347 29.1771 23.8083 29.1912 23.8809 29.2096C23.9472 29.2175 24.013 29.2288 24.0781 29.2435C24.1699 29.2438 24.2616 29.2509 24.3524 29.2647C24.4353 29.2551 24.5189 29.251 24.6024 29.2525C24.6595 29.2433 24.7172 29.2371 24.7752 29.2331C24.8248 29.2233 24.8743 29.2153 24.9245 29.2096C25.4008 29.0879 25.9058 29.1575 26.3314 29.4036C26.3605 29.4202 26.389 29.4378 26.4172 29.4563C26.7427 29.6679 26.9951 29.9747 27.1401 30.335C27.285 30.6953 27.3155 31.0916 27.2273 31.4699C27.1391 31.8481 26.9366 32.19 26.6472 32.4489C26.3579 32.7078 25.9959 32.8711 25.6104 32.9167C25.498 32.9452 25.3832 32.9633 25.2674 32.9709C25.1348 32.9973 24.9998 33.0095 24.8646 33.0072C24.6734 33.0375 24.4786 33.0383 24.2871 33.0098L24.2872 33.0098ZM28.8988 27.8559C28.4442 27.7994 28.0257 27.5796 27.7211 27.2374C27.4164 26.8951 27.2464 26.4537 27.2427 25.9954C27.2227 25.9229 27.2069 25.8493 27.1953 25.775C27.1767 25.711 27.1614 25.6461 27.1496 25.5804C27.114 25.4958 27.0847 25.4086 27.0619 25.3196C27.0207 25.247 26.9843 25.1717 26.9532 25.0942C26.9221 25.045 26.8936 24.9943 26.8677 24.9424C26.8392 24.9007 26.8126 24.8578 26.7874 24.8142C26.7524 24.7679 26.7194 24.72 26.6886 24.6707C26.6328 24.6087 26.5811 24.5431 26.534 24.4744C26.4768 24.4254 26.4225 24.3732 26.3714 24.318C26.3202 24.2754 26.2712 24.2301 26.2247 24.1823C26.148 24.1319 26.0751 24.0761 26.0063 24.0153C25.9316 23.978 25.8595 23.9358 25.7904 23.889C25.7372 23.8653 25.6851 23.8392 25.6345 23.8108C25.5878 23.7922 25.5416 23.7715 25.4964 23.7493C25.4495 23.7333 25.4032 23.7155 25.3575 23.6959C25.2851 23.6756 25.214 23.6509 25.1447 23.622C25.0702 23.6123 24.9963 23.5981 24.9235 23.5795C24.8574 23.5717 24.7917 23.5604 24.7267 23.5458C24.6349 23.5454 24.5433 23.5383 24.4526 23.5246C24.3696 23.5343 24.2861 23.5383 24.2027 23.5368C24.1454 23.5458 24.0874 23.5524 24.0294 23.5561C23.9801 23.5661 23.9303 23.574 23.8801 23.5798C23.6298 23.6434 23.369 23.6549 23.114 23.6136C22.859 23.5723 22.6152 23.4791 22.3977 23.3396C22.1801 23.2002 21.9935 23.0176 21.8493 22.8031C21.7052 22.5886 21.6065 22.3467 21.5595 22.0925C21.5125 21.8383 21.5182 21.5771 21.5761 21.3252C21.634 21.0732 21.743 20.8359 21.8963 20.6278C22.0496 20.4197 22.2439 20.2453 22.4673 20.1154C22.6906 19.9855 22.9382 19.9029 23.1948 19.8727C23.3072 19.8441 23.4219 19.8259 23.5376 19.8182C23.6702 19.7919 23.8053 19.7797 23.9405 19.7819C24.1317 19.7516 24.3264 19.7507 24.5179 19.7793C24.7296 19.7552 24.9438 19.7669 25.1516 19.814C25.3062 19.8147 25.4602 19.8343 25.6101 19.8725C25.7832 19.893 25.9527 19.9372 26.1138 20.0039C26.2866 20.0268 26.4553 20.0733 26.6154 20.1423C26.7268 20.1737 26.8351 20.2154 26.939 20.2667C27.0487 20.3039 27.1548 20.3512 27.2559 20.4079C27.3814 20.4581 27.5013 20.5215 27.6134 20.5971C27.674 20.6242 27.7332 20.6544 27.7907 20.6875C27.9007 20.7511 28.004 20.8256 28.0992 20.9098C28.2898 21.0048 28.4631 21.1313 28.6117 21.2839C28.7411 21.3688 28.8596 21.4693 28.9645 21.583C29.0987 21.6944 29.2168 21.8239 29.3154 21.9677C29.4625 22.0935 29.5895 22.241 29.6921 22.4052C29.7825 22.5059 29.862 22.616 29.9293 22.7335C29.9994 22.8259 30.0609 22.9245 30.1132 23.0281C30.1892 23.1401 30.2532 23.2598 30.304 23.3853C30.4065 23.5496 30.4833 23.7286 30.5318 23.9161C30.6367 24.1017 30.7097 24.3037 30.7476 24.5136C30.8075 24.6563 30.8496 24.8058 30.8731 24.9588C30.9219 25.1263 30.9474 25.2997 30.9488 25.4742C31.0319 25.7738 31.0398 26.0892 30.9719 26.3926C30.9041 26.6959 30.7625 26.9779 30.5597 27.2134C30.357 27.4489 30.0994 27.6307 29.8096 27.7428C29.5199 27.8549 29.207 27.8937 28.8987 27.8558L28.8988 27.8559Z" fill="black"/>
<path d="M25.872 32.8011C26.9145 32.8011 27.7596 31.9553 27.7596 30.9119C27.7596 29.8685 26.9145 29.0227 25.872 29.0227C24.8295 29.0227 23.9844 29.8685 23.9844 30.9119C23.9844 31.9553 24.8295 32.8011 25.872 32.8011Z" fill="black"/>
<path d="M22.9345 23.7666C23.977 23.7666 24.8221 22.9208 24.8221 21.8774C24.8221 20.8341 23.977 19.9883 22.9345 19.9883C21.892 19.9883 21.0469 20.8341 21.0469 21.8774C21.0469 22.9208 21.892 23.7666 22.9345 23.7666Z" fill="black"/>
<circle cx="35" cy="36" r="7" stroke="black" stroke-width="2"/>
<path fill-rule="evenodd" clip-rule="evenodd" d="M25.7817 9H26.0575V11L25.7817 11H14V37.6205H27.1642C27.3092 38.3254 27.547 38.9965 27.8642 39.6205H13.6538C12.7404 39.6205 12 38.8727 12 37.9503V10.6702C12 9.74778 12.7404 9 13.6538 9H25.7817ZM35.9802 28.0595V17.351V17.2758H33.9802V17.2784V17.2817V17.285V17.2883V17.2916V17.2948V17.298V17.3012V17.3043V17.3074V17.3105V17.3136V17.3166V17.3196V17.3226V17.3256V17.3285V17.3314V17.3343V17.3372V17.34V17.3428V17.3456V17.3483V17.351V28.0644C34.3141 28.0219 34.6545 28 35 28C35.3318 28 35.659 28.0202 35.9802 28.0595Z" fill="black"/>
<path fill-rule="evenodd" clip-rule="evenodd" d="M35.3453 32.195C35.1452 31.935 34.7531 31.935 34.5529 32.195L32.1047 35.3753C31.8516 35.7041 32.086 36.1803 32.5009 36.1803H34V39C34 39.5523 34.4477 40 35 40C35.5523 40 36 39.5523 36 39V36.1803H37.3973C37.8123 36.1803 38.0466 35.7041 37.7935 35.3753L35.3453 32.195Z" fill="black"/>
</svg>
